<?xml version="1.0" encoding="UTF-8" standalone="no"?>
<svg width="81px" height="82px" viewBox="0 0 81 82" version="1.1" xmlns="http://www.w3.org/2000/svg" xmlns:xlink="http://www.w3.org/1999/xlink">
    <!-- Generator: Sketch 39.1 (31720) - http://www.bohemiancoding.com/sketch -->
    <title>flower</title>
    <desc>Created with Sketch.</desc>
    <defs></defs>
    <g id="Page-1" stroke="none" stroke-width="1" fill="none" fill-rule="evenodd">
        <g id="A4-Copy" transform="translate(-10.000000, -34.000000)">
            <g id="flower" transform="translate(12.000000, 36.000000)">
                <g id="Group-23">
                    <g id="Group-6">
                        <g id="Group-88-Copy-3">
                            <g id="Group-87">
                                <path d="M37.2910975,2.58670522 C37.7429569,2.51259534 38.1960619,2.4735376 38.649227,2.4735376 C47.4866632,2.4735376 56.3393635,17.3276462 56.3393635,17.3276462 L20.9972509,17.3276462 C20.9972509,17.3276462 28.9309858,3.95785492 37.2910975,2.58670522 Z" id="Triangle-5" stroke="#4C4F58" stroke-width="3" fill="#FF99B9"></path>
                                <path d="M38,25 L38.3484455,58.8489445 C38.4242228,66.2101508 38.9428711,73.703125 38.9428711,73.703125" id="Line" stroke="#4C4F58" stroke-width="3" stroke-linecap="square"></path>
                                <path d="M4.65613718,0.815563904 C4.65613718,-1.23157878 15.3432184,0.718971039 24.180315,5.0583679 C32.333948,9.06215454 38.692671,17.2782614 38.692671,17.2782614 C38.692671,17.2782614 45.3770095,8.98122823 53.409846,5.05836782 C62.2947685,0.719388611 72.6142402,-1.07495235 72.6142402,0.81556386 C72.6142402,4.41529112 69.9251255,41.9148677 38.692671,41.9148677 C7.46021654,41.9148677 4.65613718,4.75152266 4.65613718,0.815563904 Z" id="Path-605" stroke="#4C4F58" stroke-width="3" fill="#F16F91"></path>
                                <path d="M28.8959961,25.121583 C27.2666016,31.8293466 32.3344727,40.0117197 32.3344727,40.0117197 C32.3344727,40.0117197 27.6147263,38.9439396 23.7365723,36.6413584 C19.7387647,34.2677351 16.5718484,30.6486426 16.0852051,30.0625009 C6.70020889,18.7586611 5.89892578,4.38192506 5.89892578,1.82568362 C5.89892578,-0.221459062 15.1964727,2.2185864 24.0335693,6.55798326 C26.6634076,7.84934765 31.2888573,11.1906726 32.3344727,12.2416992 C34.6287049,14.5478044 35.5957031,15.7961426 35.5957031,15.7961426 C35.5957031,15.7961426 30.5253906,18.4138193 28.8959961,25.121583 Z" id="Path-605-Copy-2" fill="#F8C3D3"></path>
                                <path d="M0,41.0386615 C2.54671448e-16,38.7986946 12.5450554,36.6909908 26.1229059,50.0924628 C39.7007563,63.4939349 38.7622335,76.9452163 38.7622335,76.9452163 C38.7622335,76.9452163 38.4736681,61.3114047 49.0680632,50.0924631 C59.6624584,38.8735215 76.9473361,38.970074 76.9473361,41.0386615 C76.9473361,44.9774539 72.9365322,77.9809565 38.7622335,77.9809565 C4.58793479,77.9809565 4.89646532e-16,45.3453557 0,41.0386615 Z" id="Path-605-Copy" stroke="#4C4F58" stroke-width="3" fill="#FFFFFF"></path>
                            </g>
                        </g>
                    </g>
                </g>
            </g>
        </g>
    </g>
</svg>