<?xml version="1.0" encoding="UTF-8" standalone="no"?>
<svg width="70px" height="73px" viewBox="0 0 70 73" version="1.1" xmlns="http://www.w3.org/2000/svg" xmlns:xlink="http://www.w3.org/1999/xlink">
    <!-- Generator: Sketch 39.1 (31720) - http://www.bohemiancoding.com/sketch -->
    <title>gift</title>
    <desc>Created with Sketch.</desc>
    <defs>
        <path d="M5.63218391,24.5330427 C5.63218391,22.3264786 7.41392229,20.5377049 9.62787605,20.5377049 L60.1039247,20.5377049 C62.3106846,20.5377049 64.0996169,22.3240984 64.0996169,24.5330427 L64.0996169,68.0046622 C64.0996169,70.2112264 62.3178785,72 60.1039247,72 L9.62787605,72 C7.42111621,72 5.63218391,70.2136066 5.63218391,68.0046622 L5.63218391,24.5330427 Z" id="path-1"></path>
        <mask id="mask-2" maskContentUnits="userSpaceOnUse" maskUnits="objectBoundingBox" x="0" y="0" width="58.467433" height="51.4622951" fill="white">
            <use xlink:href="#path-1"></use>
        </mask>
        <rect id="path-3" x="0" y="18.4131148" width="70" height="10.6229508" rx="5.31147541"></rect>
        <mask id="mask-4" maskContentUnits="userSpaceOnUse" maskUnits="objectBoundingBox" x="0" y="0" width="70" height="10.6229508" fill="white">
            <use xlink:href="#path-3"></use>
        </mask>
    </defs>
    <g id="Page-1" stroke="none" stroke-width="1" fill="none" fill-rule="evenodd">
        <g id="A4-Copy" transform="translate(-15.000000, -38.000000)">
            <g id="gift" transform="translate(15.000000, 39.000000)">
                <g id="Group-16">
                    <g id="Group-91-Copy-5">
                        <g id="Group-90">
                            <path d="M33.483606,19.0876629 C33.483606,19.0876629 40.3467825,-5.92975525 48.48181,2.7889949 C56.6168375,11.507745 33.483606,19.0876629 33.483606,19.0876629 Z" id="Path-622" stroke="#4C4F58" stroke-width="3" fill="#86B6FB" transform="translate(41.849595, 10.015963) rotate(-6.000000) translate(-41.849595, -10.015963) "></path>
                            <path d="M19.0421456,21.4365013 C19.0421456,21.4365013 25.9053221,-3.58091684 34.0403496,5.13783331 C42.1753772,13.8565835 19.0421456,21.4365013 19.0421456,21.4365013 Z" id="Path-622-Copy" stroke="#4C4F58" stroke-width="3" fill="#86B6FB" transform="translate(27.408135, 12.364801) scale(-1, 1) translate(-27.408135, -12.364801) "></path>
                            <use id="Rectangle-221" stroke="#4C4F58" mask="url(#mask-2)" stroke-width="6" fill="#FFFFFF" xlink:href="#path-1"></use>
                            <path d="M23.2094729,45.7254192 C20.9190151,55.571331 25.3266601,69.0610361 25.3266601,69.0610361 L15.9006347,69.0610361 C15.9006347,69.0610361 11.9336273,69.0697787 9.82031252,69.0610361 C9.11660197,69.0581249 8.55233811,68.3857267 8.55017089,68.007081 C8.51027124,61.0360063 8.54554066,34.2274812 8.54554066,34.2274812 C8.54809787,32.0214984 8.55017089,28.9756098 8.55017089,28.9756098 C8.55017089,28.9756098 8.54678155,28.9756098 8.55017089,28.9756098 L9.52392578,28.9756098 L10.7214355,28.9756098 L34.5986328,28.9756098 C34.5986328,28.9756098 25.4999307,35.8795074 23.2094729,45.7254192 Z" id="Rectangle-221-Copy-2" fill="#E4E3E3"></path>
                            <use id="Rectangle-222" stroke="#4C4F58" mask="url(#mask-4)" stroke-width="6" fill="#768ED5" xlink:href="#path-3"></use>
                            <path d="M32.5,19.0032787 L32.5,71.42356" id="Line" stroke="#4C4F58" stroke-linecap="square"></path>
                            <path d="M37,19.2393443 L37,70.9382632" id="Line" stroke="#4C4F58" stroke-width="2" stroke-linecap="square"></path>
                        </g>
                    </g>
                </g>
            </g>
        </g>
    </g>
</svg>