<?xml version="1.0" encoding="UTF-8" standalone="no"?>
<svg width="162px" height="126px" viewBox="0 0 162 126" version="1.1" xmlns="http://www.w3.org/2000/svg" xmlns:xlink="http://www.w3.org/1999/xlink">
    <!-- Generator: Sketch 3.8.3 (29802) - http://www.bohemiancoding.com/sketch -->
    <title>Cake Delivery</title>
    <desc>Created with Sketch.</desc>
    <defs></defs>
    <g id="Page-1" stroke="none" stroke-width="1" fill="none" fill-rule="evenodd">
        <g id="A4-Copy" transform="translate(-217.000000, -358.000000)">
            <g id="Cake-Delivery" transform="translate(217.000000, 358.000000)">
                <g id="Group-149">
                    <g id="Group-105-Copy">
                        <g id="noun_475638_cc" transform="translate(0.000000, 15.053898)" fill="#4C4F58">
                            <path d="M134.682647,83.419603 L134.682647,61.3624909 C135.610473,60.3120629 136.121647,58.9544936 136.118628,57.5488367 L136.118628,30.8266498 C136.105778,23.7381695 131.045426,17.6794653 124.111011,16.45006 L21.6982836,16.4411911 C14.7185889,17.6251856 9.602452,23.7009679 9.5849503,30.8266498 L9.5849503,57.5044918 C9.58056594,58.9829538 10.131236,60.4084885 11.1266473,61.4955254 L11.1266473,83.419603 L8.26349576,83.419603 C3.80709014,83.5661473 0.269776743,87.2454778 0.269776743,91.7342563 C0.269776743,96.2230347 3.80709014,99.9023652 8.26349576,100.048909 L137.105314,100.048909 C141.56172,99.9023652 145.099033,96.2230347 145.099033,91.7342563 C145.099033,87.2454778 141.56172,83.5661473 137.105314,83.419603 L134.682647,83.419603 Z M103.138786,0.389767604 L105.579072,0.523401375 L105.579072,16.4675807 L103.02426,16.4675807 L103.138786,0.389767604 Z M80.5829235,0.389767604 L83.0232096,0.531671019 L83.0232096,16.4675807 L80.4683974,16.4675807 L80.5829235,0.389767604 Z M60.542078,0.389767604 L62.9735544,0.523182033 L62.9735544,16.4411911 L60.4187423,16.4411911 L60.542078,0.389767604 Z M37.9862159,0.389767604 L40.4176923,0.523182033 L40.4176923,16.4411911 L37.8628802,16.4411911 L37.9862159,0.389767604 Z M14.8619588,30.8266498 C14.8668154,25.700268 18.9935866,21.5457343 24.0857115,21.5408451 L121.609057,21.5408451 C126.701182,21.5457343 130.827953,25.700268 130.83281,30.8266498 L130.83281,57.5399677 C130.828107,57.8073828 130.613905,58.0230266 130.348276,58.0277607 L127.811084,58.0277607 C125.656888,57.9367362 123.965968,56.1361549 123.996485,53.9657754 L123.996485,43.0658193 C123.996485,40.0044486 121.531338,37.5227172 118.490424,37.5227172 C115.449511,37.5227172 112.984364,40.0044486 112.984364,43.0658193 L112.984364,45.7265084 C112.984364,47.9306953 111.209458,49.7175419 109.02,49.7175419 C106.830542,49.7175419 105.055636,47.9306953 105.055636,45.7265084 L105.055636,44.3961639 C105.055636,40.9674286 102.294671,38.1878895 98.8888485,38.1878895 C95.4830256,38.1878895 92.7220606,40.9674286 92.7220606,44.3961639 L92.7220606,59.4734017 C92.7220606,61.432679 91.1443663,63.0209871 89.1981818,63.0209871 C87.2519973,63.0209871 85.674303,61.432679 85.674303,59.4734017 L85.674303,44.3961639 C85.674303,40.9674286 82.9133381,38.1878895 79.5075152,38.1878895 C76.1016923,38.1878895 73.3407273,40.9674286 73.3407273,44.3961639 L73.3407273,52.9990584 C73.3407273,55.0807905 71.6644271,56.7683679 69.5966061,56.7683679 C67.528785,56.7683679 65.8524848,55.0807905 65.8524848,52.9990584 L65.8524848,47.5003011 C65.8524848,42.3571982 61.7110374,38.1878895 56.602303,38.1878895 C51.4935687,38.1878895 47.3521212,42.3571982 47.3521212,47.5003011 L47.3521212,63.9078834 C47.3521212,66.8467994 44.9855798,69.2292615 42.066303,69.2292615 C39.1470263,69.2292615 36.7804848,66.8467994 36.7804848,63.9078834 L36.7804848,49.7175419 C36.7804848,45.7989873 33.6250963,42.6223712 29.7327273,42.6223712 C25.8403582,42.6223712 22.6849697,45.7989873 22.6849697,49.7175419 L22.6849697,52.9990584 C22.6801202,55.8477822 20.3874134,58.155913 17.5577261,58.1607951 L15.496257,58.1607951 C15.1459438,58.1607951 14.8619588,57.8748997 14.8619588,57.5222298 L14.8619588,30.8266498 L14.8619588,30.8266498 Z M17.6370133,60.7860083 L18.2801212,60.7860083 C18.4659957,60.783659 18.6492224,60.741324 18.8175127,60.6618428 C22.5534443,60.0476772 25.304317,56.8098647 25.3278788,52.9990584 L25.3278788,49.7175419 C25.3278789,47.2684454 27.2999967,45.2830604 29.7327273,45.2830604 C32.1654578,45.2830604 34.1375757,47.2684454 34.1375758,49.7175419 L34.1375758,63.9078834 C34.1375758,68.3162574 37.6873879,71.8899506 42.066303,71.8899506 C46.4452182,71.8899506 49.9950303,68.3162574 49.9950303,63.9078834 L49.9950303,47.5003011 C49.9950303,43.8266561 52.9532071,40.8485785 56.602303,40.8485785 C60.251399,40.8485785 63.2095758,43.8266561 63.2095758,47.5003011 L63.2095758,52.9990584 C63.2095758,56.5502485 66.0691466,59.4290569 69.5966061,59.4290569 C73.1240655,59.4290569 75.9836364,56.5502485 75.9836364,52.9990584 L75.9836364,44.3961639 C75.9836364,42.4368866 77.5613306,40.8485785 79.5075152,40.8485785 C81.4536997,40.8485785 83.0313939,42.4368866 83.0313939,44.3961639 L83.0313939,59.4734017 C83.0313938,61.6914046 84.2067769,63.7409239 86.1147878,64.8499254 C88.0227986,65.9589269 90.373565,65.9589269 92.2815759,64.8499254 C94.1895867,63.7409239 95.3649698,61.6914046 95.3649697,59.4734017 L95.3649697,44.3961639 C95.3649697,42.4368866 96.942664,40.8485785 98.8888485,40.8485785 C100.835033,40.8485785 102.412727,42.4368866 102.412727,44.3961639 L102.412727,45.7265084 C102.412727,49.4001533 105.370904,52.378231 109.02,52.378231 C112.669096,52.378231 115.627273,49.4001533 115.627273,45.7265084 L115.627273,43.0658193 C115.627273,41.4739065 116.909149,40.1834062 118.490424,40.1834062 C120.071699,40.1834062 121.353576,41.4739065 121.353576,43.0658193 L121.353576,53.9657754 C121.342363,57.5974702 124.205309,60.5779787 127.811084,60.6884497 L129.396829,60.6884497 L129.396829,86.0802921 L16.4124655,86.0802921 L16.4124655,60.7948773 L17.6370133,60.7948773 L17.6370133,60.7860083 Z M137.105314,94.7186625 L8.26349576,94.7186625 C6.68421781,94.6320871 5.44772258,93.3176451 5.44772258,91.7253873 C5.44772258,90.1331295 6.68421781,88.8186875 8.26349576,88.7321121 L137.105314,88.7321121 C138.74984,88.7321121 140.082992,90.0742325 140.082992,91.7298218 C140.082992,93.3854111 138.74984,94.7275314 137.105314,94.7275314 L137.105314,94.7186625 Z" id="Shape"></path>
                        </g>
                        <path d="M13.0514231,72.7366206 C12.9363828,72.2780296 13.0514231,71.5954498 13.0514231,71.5954498 L13.0514231,46.1017931 C13.0514231,46.1017931 13.1794849,44.5861563 13.4419347,43.9391836 C14.5590384,41.1853788 18.1108952,33.9477657 24.5853579,33.9477657 C32.5809165,33.9477657 122.708753,33.9477657 122.708753,33.9477657 C122.708753,33.9477657 132.836936,36.1225212 132.830205,46.1017931 C132.823475,56.0810651 132.641444,73.4699914 132.830205,72.7366222 C132.830205,72.7366222 132.810014,73.2384495 131.935656,73.2384495 C131.061298,73.2384495 127.897644,73.4688375 126.68643,73.047792 C125.265919,72.5539906 123.994424,71.1169559 123.966073,69.4108087 L123.966069,57.7831782 C123.966069,57.7831782 123.950161,52.6881857 118.382784,52.8309086 C112.815407,52.9736316 113.175949,57.7831782 113.175949,57.7831782 L112.991016,61.0615182 C112.991016,61.0615182 112.723321,65.0147278 109.065733,64.8207042 C105.408146,64.6266807 104.974642,61.1160346 104.974642,61.1160346 L104.988715,58.0851635 C104.988715,58.0851635 103.823406,53.2699501 98.8495443,53.2699501 C93.8756829,53.2699501 92.6993678,58.9470139 92.6993678,58.9470139 L92.6993688,75.4708657 C92.6993688,75.4708657 92.2784225,76.6981953 91.3153258,77.4648543 C90.6918886,77.9611323 89.7028697,78.151296 88.9210906,78.0723455 C87.5011922,77.9289524 86.9078536,77.704757 86.3566033,76.8726767 C86.1354713,76.5388907 86.1049988,75.9495399 85.7479487,75.4708657 C85.7479487,75.4708657 85.4280953,58.5702981 85.7479487,58.5702981 C85.7479487,58.5702981 84.4298344,53.2699501 79.4902328,53.2699501 C74.5506312,53.2699501 73.4315276,58.1127265 73.4281613,58.5702981 C73.4281613,58.5702981 73.2520976,68.662737 73.4281613,68.6115902 C73.4281613,68.6115902 72.9801466,70.1555026 71.9472904,71.0727948 C71.1545822,71.7768087 69.8256869,71.9382852 69.2533933,71.8015699 C68.3104807,71.5763173 67.5054001,71.5658233 66.7100155,70.6391132 C66.3936469,70.2705091 66.244247,69.5374001 65.8359636,68.9230692 L65.8359626,62.097025 C65.8359626,62.097025 64.6313506,53.5436044 56.7677889,53.2699496 C48.9042272,52.9962948 47.3814445,62.2483235 47.3814445,62.2483235 L47.3536045,79.6350985 C47.3536045,79.6350985 47.0951561,81.2966857 46.0309022,82.5238609 C45.1101346,83.5855843 43.4892446,84.2307666 42.0842076,84.2993217 C40.9827034,84.3530668 39.3027213,83.9909278 38.0455801,82.5238609 C37.6775549,82.0943806 37.358945,81.6642318 37.1288504,80.9935711 C36.9928546,80.5971817 36.9920857,79.9590232 36.7478093,79.6145782 L36.8120553,63.7083238 C36.8120553,63.7083238 35.6606758,57.6404553 29.6960429,57.7831782 C23.73141,57.9259011 22.6883313,63.8541094 22.6883313,63.8541094 L22.6354048,68.2028705 C22.6354048,68.2028705 22.6548447,70.2839018 21.3908675,71.5954486 C20.8846787,72.1206877 20.0135176,72.8337689 19.1327726,73.047792 C18.4987666,73.201857 17.9957251,73.4801031 17.3115508,73.4800955 C15.4083522,73.4800742 13.1726076,73.2197047 13.0514231,72.7366206 Z" id="Path-745" fill="#EA497F"></path>
                        <path d="M13.6070821,75.5956726 L13.6070821,101.115891 L131.949805,101.115891 L131.949805,75.5956726 C131.949805,75.5956726 125.789639,76.3298034 123.433902,73.9044366 C123.007887,73.4658301 122.599255,73.0487836 122.228218,72.3732279 C121.822326,71.6342095 121.482215,70.8586805 121.488624,69.8043686 L121.32342,57.9951194 C121.32342,57.9951194 121.276612,55.2734302 118.358466,55.2734302 C115.624985,55.2734302 115.703437,57.8910759 115.636117,57.9782744 L115.636117,61.0339539 C115.636117,61.0339539 115.568759,63.7276839 113.565712,65.5865392 C112.651138,66.4352767 111.336116,67.3567157 109.434234,67.3321382 C103.366962,67.2537325 102.496275,62.1297961 102.496275,62.1297961 L102.299254,58.435539 C102.299254,58.435539 101.616104,55.4729666 98.7929504,55.7216598 C95.9697964,55.9703529 95.3573177,58.6122582 95.3573177,58.6122582 L95.2095518,74.6734864 C95.2095518,74.6734864 94.2620759,80.772594 89.300447,80.7015388 C84.3388182,80.6304836 83.2166543,76.0373172 83.2166543,76.0373172 L83.2570375,59.1056629 C83.2570375,59.1056629 82.6932021,55.5596417 79.7473688,55.7372796 C76.8015356,55.9149176 76.0324188,58.6122581 76.0324188,58.6122581 L76.0324188,68.4034789 C76.0324188,68.4034789 75.7129886,70.8895702 73.9774638,72.668781 C73.1169508,73.5509545 72.0440266,74.4373961 70.2212128,74.4091734 C64.7220589,74.3240297 63.5521693,70.1535191 63.5521693,70.1535191 L63.3854356,62.0195381 C63.3854356,62.0195381 62.4033892,55.4601032 56.6726436,55.6202836 C50.9418981,55.780464 50.1018048,61.0339539 50.1018048,61.0339536 C50.1018048,61.0339536 49.8931206,61.6758196 49.884898,62.3884433 C49.8380329,66.4500413 49.884898,79.8495278 49.884898,80.0871555 C49.884898,80.0871555 49.024919,86.5537908 42.3286475,86.7681815 C35.6323759,86.9825721 34.5903665,80.9572752 34.3908979,81.293257 L34.3330765,64.3925362 C34.3330765,64.3925362 33.9561665,59.826628 29.6740159,60.1534206 C25.3918652,60.4802132 25.2352273,63.5545751 25.2352273,63.5545751 L25.2930487,69.4105024 C25.2930487,69.4105024 24.4509965,72.4087968 22.6083297,73.9044368 C20.6447003,75.4982586 17.6612554,75.5956727 17.2632133,75.5956727 C16.491649,75.5956727 13.6070821,75.5956726 13.6070821,75.5956726 Z" id="Path-744" fill="#F5F3EF"></path>
                        <g id="Group-104" transform="translate(98.737685, 0.000000)">
                            <path d="M5.65722369,17.3210856 C8.51467392,17.3161933 10.8285199,14.9828127 10.8285158,12.1061351 C10.8285158,9.74699083 7.48964066,3.40568196 6.81129399,2.16402708 L5.65722369,0 L4.49434369,2.16402708 C3.82480672,3.40568196 0.477121869,9.74699083 0.477121869,12.1061351 C0.477121869,14.9862727 2.79633245,17.3210856 5.65722369,17.3210856 L5.65722369,17.3210856 Z M5.65722369,5.69387453 C7.01391702,8.45212217 8.18560672,11.2458457 8.18560672,12.1150041 C8.18560672,13.5232346 7.05163896,14.6648311 5.65281884,14.6648311 C4.25399872,14.6648311 3.12003096,13.5232346 3.12003096,12.1150041 C3.12884066,11.2369767 4.30053035,8.4432532 5.65722369,5.68500557 L5.65722369,5.69387453 Z" id="Shape" fill="#4C4F58"></path>
                            <path d="M5.69040634,5.68992769 C5.69040634,5.68992769 8.48388476,10.5377596 8.13512061,12.543384 C8.13512061,12.543384 8.11424495,13.0186967 7.72991184,13.5643429 C7.3478621,14.1067473 6.60509102,14.7194 5.69040643,14.754211 C5.69040643,14.754211 4.40088117,14.888447 3.53311657,13.5643429 C3.38084607,13.3319965 3.29598438,12.9443003 3.17486848,12.6217898 C3.17486848,12.6217898 2.9094712,12.1522743 3.7223364,10.1023934 C4.5352016,8.05251259 5.69040634,5.68992769 5.69040634,5.68992769 Z" id="Path-739" fill="#B82D5B"></path>
                        </g>
                        <g id="Group-104-Copy" transform="translate(76.181823, 0.000000)">
                            <path d="M5.65722369,17.3210856 C8.51467392,17.3161933 10.8285199,14.9828127 10.8285158,12.1061351 C10.8285158,9.74699083 7.48964066,3.40568196 6.81129399,2.16402708 L5.65722369,0 L4.49434369,2.16402708 C3.82480672,3.40568196 0.477121869,9.74699083 0.477121869,12.1061351 C0.477121869,14.9862727 2.79633245,17.3210856 5.65722369,17.3210856 L5.65722369,17.3210856 Z M5.65722369,5.69387453 C7.01391702,8.45212217 8.18560672,11.2458457 8.18560672,12.1150041 C8.18560672,13.5232346 7.05163896,14.6648311 5.65281884,14.6648311 C4.25399872,14.6648311 3.12003096,13.5232346 3.12003096,12.1150041 C3.12884066,11.2369767 4.30053035,8.4432532 5.65722369,5.68500557 L5.65722369,5.69387453 Z" id="Shape" fill="#4C4F58"></path>
                            <path d="M5.69040634,5.68992769 C5.69040634,5.68992769 8.48388476,10.5377596 8.13512061,12.543384 C8.13512061,12.543384 8.11424495,13.0186967 7.72991184,13.5643429 C7.3478621,14.1067473 6.60509102,14.7194 5.69040643,14.754211 C5.69040643,14.754211 4.40088117,14.888447 3.53311657,13.5643429 C3.38084607,13.3319965 3.29598438,12.9443003 3.17486848,12.6217898 C3.17486848,12.6217898 2.9094712,12.1522743 3.7223364,10.1023934 C4.5352016,8.05251259 5.69040634,5.68992769 5.69040634,5.68992769 Z" id="Path-739" fill="#B82C5B"></path>
                        </g>
                        <g id="Group-104-Copy-2" transform="translate(56.132168, 0.000000)">
                            <path d="M5.65722369,17.3210856 C8.51467392,17.3161933 10.8285199,14.9828127 10.8285158,12.1061351 C10.8285158,9.74699083 7.48964066,3.40568196 6.81129399,2.16402708 L5.65722369,0 L4.49434369,2.16402708 C3.82480672,3.40568196 0.477121869,9.74699083 0.477121869,12.1061351 C0.477121869,14.9862727 2.79633245,17.3210856 5.65722369,17.3210856 L5.65722369,17.3210856 Z M5.65722369,5.69387453 C7.01391702,8.45212217 8.18560672,11.2458457 8.18560672,12.1150041 C8.18560672,13.5232346 7.05163896,14.6648311 5.65281884,14.6648311 C4.25399872,14.6648311 3.12003096,13.5232346 3.12003096,12.1150041 C3.12884066,11.2369767 4.30053035,8.4432532 5.65722369,5.68500557 L5.65722369,5.69387453 Z" id="Shape" fill="#4C4F58"></path>
                            <path d="M5.69040634,5.68992769 C5.69040634,5.68992769 8.48388476,10.5377596 8.13512061,12.543384 C8.13512061,12.543384 8.11424495,13.0186967 7.72991184,13.5643429 C7.3478621,14.1067473 6.60509102,14.7194 5.69040643,14.754211 C5.69040643,14.754211 4.40088117,14.888447 3.53311657,13.5643429 C3.38084607,13.3319965 3.29598438,12.9443003 3.17486848,12.6217898 C3.17486848,12.6217898 2.9094712,12.1522743 3.7223364,10.1023934 C4.5352016,8.05251259 5.69040634,5.68992769 5.69040634,5.68992769 Z" id="Path-739" fill="#B82D5B"></path>
                        </g>
                        <g id="Group-104-Copy-3" transform="translate(33.576306, 0.000000)">
                            <path d="M5.65722369,17.3210856 C8.51467392,17.3161933 10.8285199,14.9828127 10.8285158,12.1061351 C10.8285158,9.74699083 7.48964066,3.40568196 6.81129399,2.16402708 L5.65722369,0 L4.49434369,2.16402708 C3.82480672,3.40568196 0.477121869,9.74699083 0.477121869,12.1061351 C0.477121869,14.9862727 2.79633245,17.3210856 5.65722369,17.3210856 L5.65722369,17.3210856 Z M5.65722369,5.69387453 C7.01391702,8.45212217 8.18560672,11.2458457 8.18560672,12.1150041 C8.18560672,13.5232346 7.05163896,14.6648311 5.65281884,14.6648311 C4.25399872,14.6648311 3.12003096,13.5232346 3.12003096,12.1150041 C3.12884066,11.2369767 4.30053035,8.4432532 5.65722369,5.68500557 L5.65722369,5.69387453 Z" id="Shape" fill="#4C4F58"></path>
                            <path d="M5.69040634,5.68992769 C5.69040634,5.68992769 8.48388476,10.5377596 8.13512061,12.543384 C8.13512061,12.543384 8.11424495,13.0186967 7.72991184,13.5643429 C7.3478621,14.1067473 6.60509102,14.7194 5.69040643,14.754211 C5.69040643,14.754211 4.40088117,14.888447 3.53311657,13.5643429 C3.38084607,13.3319965 3.29598438,12.9443003 3.17486848,12.6217898 C3.17486848,12.6217898 2.9094712,12.1522743 3.7223364,10.1023934 C4.5352016,8.05251259 5.69040634,5.68992769 5.69040634,5.68992769 Z" id="Path-739" fill="#B82D5B"></path>
                        </g>
                        <path d="M4.08820139,107.992211 C4.08820138,103.621367 7.99628759,102.55574 7.99628759,102.55574 L138.392879,103.422427 C138.392879,103.422427 141.675788,103.44271 141.675788,107.992211 C141.675788,112.541712 137.773004,112.7313 137.773004,112.7313 L7.99628759,112.7313 C7.99628759,112.7313 4.08820139,112.363055 4.08820139,107.992211 Z" id="Path-749" fill="#9E6779"></path>
                    </g>
                    <g id="Group" transform="translate(102.000000, 59.000000)">
                        <g id="noun_212389_cc" fill="#4C4F58">
                            <path d="M29.704,0.210497732 C25.6735385,0.210497732 22.3717532,3.54306803 22.3717532,7.60865476 C22.3717532,8.00263946 22.3977442,8.39662415 22.4497262,8.76359807 C15.3773895,11.0194632 9.709495,16.4504909 7.08347575,23.4295153 C3.1579065,25.1349195 0.34995025,28.9648605 0.34995025,33.5306122 C0.34995025,35.2099371 0.84377925,36.7579337 1.41558125,38.2267608 L11.5038022,65.3818997 C11.7906315,66.2481071 12.6743255,66.8507268 13.5580195,66.8507268 L45.851837,66.8507268 C46.735531,66.8507268 47.5941622,66.2481071 47.9060542,65.3818997 L57.9942752,38.2267608 C58.5400862,36.7579337 59.0599062,35.2099371 59.0599062,33.5306122 C59.0599062,28.965792 56.25195,25.1349195 52.2994615,23.4295153 C49.6994332,16.4504909 44.0315387,11.0194632 36.959202,8.76359807 C37.0121122,8.39569274 37.037175,8.00263946 37.037175,7.60865476 C37.0353185,3.54306803 33.7344615,0.210497732 29.704,0.210497732 L29.704,0.210497732 L29.704,0.210497732 Z M29.704,4.6439898 C31.3423613,4.6439898 32.6419113,5.9554093 32.6419113,7.60865476 C32.6419113,9.288911 31.3423613,10.5742511 29.704,10.5742511 C28.0656388,10.5742511 26.7651605,9.288911 26.7651605,7.60865476 C26.7651605,5.9563407 28.0656388,4.6439898 29.704,4.6439898 L29.704,4.6439898 L29.704,4.6439898 Z M34.9300475,12.7779575 C41.3266182,14.5355204 46.4227107,19.4160873 48.502919,25.7123912 C48.710847,26.3941803 49.282649,26.9455726 49.958415,27.1560703 C52.6624072,27.9691876 54.6386515,30.5137885 54.6386515,33.5315437 C54.6386515,37.2310879 51.725803,40.1957528 48.0341527,40.1957528 C46.2398455,40.1957528 44.6534662,39.4869529 43.4578802,38.332941 C42.6521592,37.5198237 41.195735,37.5198237 40.3890857,38.332941 C39.1934997,39.4869529 37.6071205,40.1957528 35.8128132,40.1957528 C34.018506,40.1957528 32.4321267,39.4869529 31.2365407,38.332941 C30.4308197,37.5198237 28.9743955,37.5198237 28.1686745,38.332941 C26.9721602,39.4869529 25.3607182,40.1957528 23.566411,40.1957528 C21.7721037,40.1957528 20.2126437,39.4869529 19.0161295,38.332941 C18.2104085,37.5198237 16.7539842,37.5198237 15.9482632,38.332941 C14.751749,39.4869529 13.140307,40.1957528 11.3459997,40.1957528 C7.6803405,40.1957528 4.741501,37.2301565 4.741501,33.5315437 C4.741501,30.51472 6.74373625,27.9691876 9.4477285,27.1560703 C10.1234945,26.9455726 10.6693055,26.3951117 10.9032245,25.7123912 C12.9834327,19.4160873 18.0795252,14.5615998 24.476096,12.8049683 C25.8025652,14.1694779 27.6739172,15.0086746 29.7021435,15.0086746 C31.7322262,15.0077432 33.6035782,14.1424671 34.9300475,12.7779575 L34.9300475,12.7779575 L34.9300475,12.7779575 Z M17.4835887,42.7403537 C19.2249857,43.9213764 21.3321132,44.6283135 23.5673392,44.6283135 C25.8294845,44.6283135 27.9356837,43.920445 29.704,42.7403537 C31.4463252,43.9213764 33.5525245,44.6283135 35.8137415,44.6283135 C38.076815,44.6283135 40.182086,43.920445 41.9244112,42.7403537 C43.6658082,43.9213764 45.7729357,44.6283135 48.0341527,44.6283135 C49.0997837,44.6283135 50.114361,44.4709059 51.076028,44.2091808 L44.3165115,62.4172347 L15.0914885,62.4172347 L8.33104375,44.2091808 C9.29271075,44.4709059 10.307288,44.6283135 11.346928,44.6283135 C13.6090732,44.6283135 15.7152725,43.920445 17.4835887,42.7403537 L17.4835887,42.7403537 L17.4835887,42.7403537 Z" id="Shape"></path>
                        </g>
                        <path d="M13.1865436,44.4218761 C11.0457608,44.7572736 6.46596484,43.3666992 6.46596484,43.3666992 L14.1323594,64.4453518 L45.2663828,64.4453518 L52.9661055,43.3666992 C52.9661055,43.3666992 46.533517,45.7401929 41.9774774,42.729155 C41.9774774,42.729155 36.4707521,46.7401581 29.8571975,42.7111909 C29.8571975,42.7111909 26.5534796,44.5425382 23.4192761,44.6358539 C20.2850726,44.7291696 17.5098408,42.7805461 17.5098408,42.7805461 C17.5098408,42.7805461 15.3273264,44.0864786 13.1865436,44.4218761 Z" id="Path-5" fill="#F69E54"></path>
                        <path d="M7.59422792,27.36363 C7.59422792,27.36363 9.13398798,27.0544125 9.88196817,24.9572696 C9.88196817,24.9572696 12.8378328,14.4609927 24.2975862,11.872404 C24.2975862,11.872404 28.5127485,16.9446879 35.3268456,11.8022321 C35.3268456,11.8022321 37.4594171,12.1871904 40.0343301,13.6400548 C43.5008775,15.5960135 48.0323624,19.2820903 49.7398025,25.1830821 C49.7398025,25.1830821 50.4618895,26.9316725 51.9036449,27.4119491 C51.9036449,27.4119491 57.3964959,28.3377805 56.3041689,35.3773044 C56.3041689,35.3773044 55.9402213,40.6350945 49.7398019,41.0806494 C49.7398019,41.0806494 47.4455281,41.4587033 44.7444751,39.5611495 C44.7444751,39.5611495 43.4452498,37.1937599 40.7439548,39.5395395 C40.7439548,39.5395395 37.3006089,42.3257749 34.0132227,40.8980569 C34.0132227,40.8980569 32.7287585,40.4688917 31.7580291,39.5005686 C31.7580291,39.5005686 30.0468218,37.6464777 27.6528496,39.4992332 C25.2588774,41.3519887 23.0421604,41.1216841 23.0421604,41.1216841 C23.0421604,41.1216841 21.5599932,41.7179021 18.8524066,39.7421638 C16.1448199,37.7664254 15.2206736,39.2378491 14.9014934,39.4992332 C14.9014934,39.4992332 11.7880956,42.3624391 7.59422806,40.8980569 C7.59422806,40.8980569 2.75643437,39.0479723 3.02673326,33.7238953 C3.29703215,28.3998182 7.59422792,27.36363 7.59422792,27.36363 Z" id="Path-6" fill="#FFDD4E"></path>
                        <path d="M29.8718747,11.1514371 C32.9593552,11.1514369 34.9524693,9.11688782 34.9524693,6.65164399 C34.9524693,4.18640016 33.0133591,1.67276188 29.8718747,1.67276188 C26.7303904,1.67276188 24.7912807,4.18640016 24.7912807,6.65164399 C24.7912807,9.11688782 26.7843943,11.1514373 29.8718747,11.1514371 Z" id="Oval-1" fill="#89CFFA" transform="translate(29.871875, 6.412100) rotate(-360.000000) translate(-29.871875, -6.412100) "></path>
                    </g>
                </g>
            </g>
        </g>
    </g>
</svg>