<?xml version="1.0" encoding="UTF-8" standalone="no"?>
<svg width="85px" height="98px" viewBox="0 0 85 98" version="1.1" xmlns="http://www.w3.org/2000/svg" xmlns:xlink="http://www.w3.org/1999/xlink">
    <!-- Generator: Sketch 40.1 (33804) - http://www.bohemiancoding.com/sketch -->
    <title>Group 4</title>
    <desc>Created with Sketch.</desc>
    <defs>
        <path d="M70.6012025,35.5666667 C70.6012025,55.2091667 54.8041139,71.1333333 35.3186709,71.1333333 C15.8310759,71.1333333 0.0350632911,55.2102444 0.0350632911,35.5666667 C0.0350632911,15.9241667 15.8321519,0 35.3197468,0 C54.8062658,0 70.6012025,15.9241667 70.6012025,35.5666667 L70.6012025,35.5666667 Z" id="path-1"></path>
        <path d="M5.33886076,0 C2.68126582,0 0.528291139,2.134 0.528291139,4.81335556 L0.528291139,37.1466889 C0.528291139,39.8249667 2.68126582,41.9966889 5.33886076,41.9966889 L11.7547468,42.0333333 L20.124557,52.9404444 C21.0703165,54.1335444 22.9801266,53.4599333 22.9801266,51.9305667 L22.9801266,42.0333333 L77.5092405,42.0333333 C80.1668354,42.0333333 82.3198101,39.8249667 82.3198101,37.1466889 L82.3198101,4.81335556 C82.3198101,2.134 80.1668354,0 77.5092405,0 L5.33886076,0 L5.33886076,0 Z" id="path-3"></path>
        <path d="M8.34398734,19.7492 C12.8210127,19.7492 16.363038,16.0556556 16.363038,11.5009667 L16.363038,8.7494 C16.363038,4.19363333 12.8210127,0.501166667 8.34398734,0.501166667 C3.86588608,0.501166667 0.324936709,4.19363333 0.324936709,8.7494 L0.324936709,11.5009667 C0.324936709,16.0556556 3.86588608,19.7492 8.34398734,19.7492 L8.34398734,19.7492 Z" id="path-5"></path>
        <path d="M0.385189873,8.99082222 L0.385189873,30.1777778 L35.6687975,30.1777778 L35.6687975,8.99082222 C35.6687975,2.59421111 24.033481,0.907488889 18.0275316,0.907488889 C12.0215823,0.907488889 0.385189873,2.59421111 0.385189873,8.99082222 L0.385189873,8.99082222 Z" id="path-7"></path>
    </defs>
    <g id="Page-1" stroke="none" stroke-width="1" fill="none" fill-rule="evenodd">
        <g id="Artboard" transform="translate(-65.000000, -90.000000)">
            <g id="Group-4" transform="translate(65.000000, 91.000000)">
                <g id="Group-1358" transform="translate(6.379747, 25.866667)">
                    <mask id="mask-2" fill="white">
                        <use xlink:href="#path-1"></use>
                    </mask>
                    <g id="Clip-1357"></g>
                    <polygon id="Fill-1356" fill="#E9EAE7" mask="url(#mask-2)" points="-5.34468354 -5.38888889 75.9809494 -5.38888889 75.9809494 76.5222222 -5.34468354 76.5222222"></polygon>
                </g>
                <g id="Group-1361" transform="translate(1.075949, 0.000000)">
                    <mask id="mask-4" fill="white">
                        <use xlink:href="#path-3"></use>
                    </mask>
                    <g id="Clip-1360"></g>
                    <polygon id="Fill-1359" fill="#FFFFFF" mask="url(#mask-4)" points="-4.8514557 -5.38888889 87.699557 -5.38888889 87.699557 58.9393556 -4.8514557 58.9393556"></polygon>
                </g>
                <path d="M28.8683886,41.99615 L24.0570658,41.99615 L24.0570658,51.9305667 C24.0570658,53.4599333 22.1469759,54.1340833 21.2007538,52.9409833 L12.5291506,41.99615 L6.41556114,42.0333333 C3.75810823,42.0333333 1.60424051,39.86215 1.60424051,37.1833333 L1.60424051,4.85 C1.60424051,2.17118333 3.75810823,0 6.41556114,0 L78.5853728,0 C81.2428278,0 83.3966956,2.17118333 83.3966956,4.85 L83.3966956,37.1833333 C83.3966956,39.86215 81.2428278,42.0333333 78.5853728,42.0333333 L54.5287696,42.0333333 M32.0759335,19.3628167 L36.8872563,19.3628167 M40.0948013,19.3628167 L44.9061241,19.3628167 M48.1136797,19.3628167 L52.9249918,19.3628167" id="Stroke-1362" stroke="#000000" stroke-width="2"></path>
                <g id="Group-1366" transform="translate(33.354430, 33.411111)">
                    <mask id="mask-6" fill="white">
                        <use xlink:href="#path-5"></use>
                    </mask>
                    <g id="Clip-1365"></g>
                    <polygon id="Fill-1364" fill="#FFFFFF" mask="url(#mask-6)" points="-5.05481013 -4.88772222 21.7427848 -4.88772222 21.7427848 25.1380889 -5.05481013 25.1380889"></polygon>
                </g>
                <path d="M49.7171025,44.9120778 L49.7171025,42.1605111 C49.7171025,37.6047444 46.1759703,33.9122778 41.6982348,33.9122778 C37.2204994,33.9122778 33.6793671,37.6047444 33.6793671,42.1605111 L33.6793671,44.9120778 C33.6793671,49.4662278 37.2204994,53.1603111 41.6982348,53.1603111 C46.1759703,53.1603111 49.7171025,49.4662278 49.7171025,44.9120778 L49.7171025,44.9120778 Z" id="Stroke-1367" stroke="#000000" stroke-width="2"></path>
                <g id="Group-1371" transform="translate(23.670886, 57.122222)">
                    <mask id="mask-8" fill="white">
                        <use xlink:href="#path-7"></use>
                    </mask>
                    <g id="Clip-1370"></g>
                    <polygon id="Fill-1369" fill="#FF8603" mask="url(#mask-8)" points="-4.99455696 -4.4814 41.0485443 -4.4814 41.0485443 35.5666667 -4.99455696 35.5666667"></polygon>
                </g>
                <path d="M59.339619,87.2622778 L59.339619,66.1130444 C59.339619,59.7158944 47.7042487,58.0297111 41.6981165,58.0297111 C35.6919842,58.0297111 24.0566032,59.7158944 24.0566032,66.1130444 L24.0566032,87.2622778 M51.3207513,87.2994611 L51.3207513,72.7494611 M32.0754709,72.7494611 L32.0754709,87.2622778 M12.8301905,87.2622778 L78.5849101,87.2622778 M9.62264127,87.2622778 L6.41509418,87.2622778 M3.20754709,87.2622778 L0,87.2622778 M85,87.2622778 L81.7924551,87.2622778" id="Stroke-1372" stroke="#000000" stroke-width="2"></path>
            </g>
        </g>
    </g>
</svg>