<?xml version="1.0" encoding="UTF-8" standalone="no"?>
<svg width="67px" height="82px" viewBox="0 0 67 82" version="1.1" xmlns="http://www.w3.org/2000/svg" xmlns:xlink="http://www.w3.org/1999/xlink">
    <!-- Generator: Sketch 39.1 (31720) - http://www.bohemiancoding.com/sketch -->
    <title>cloths</title>
    <desc>Created with Sketch.</desc>
    <defs></defs>
    <g id="Page-1" stroke="none" stroke-width="1" fill="none" fill-rule="evenodd">
        <g id="A4-Copy" transform="translate(-17.000000, -34.000000)">
            <g id="cloths" transform="translate(19.000000, 36.000000)">
                <g id="Group-30">
                    <g id="Group-18">
                        <g id="Group-4">
                            <g id="Group-98-Copy-5">
                                <g id="Group-94">
                                    <g id="Group-84">
                                        <path d="M13,9.68105741 L50.5749091,10.0692394 C50.5749091,10.0692394 45.642957,8.08209466e-12 31.7874545,7.61350859e-18 C17.9319521,-8.08232624e-12 13,9.68105741 13,9.68105741 Z" id="Path-575" stroke="#4C4F58" stroke-width="3"></path>
                                        <polygon id="Fill-44" fill="#FDFDFC" points="4 73.9706292 57.6019033 73.9706292 57.6019033 8 4 8"></polygon>
                                        <path d="M33.066924,15.5266667 L31,15 L33.066924,15.5266667 Z" id="Fill-56" fill="#F0EFEC"></path>
                                        <polyline id="Fill-61" fill="#D0D1CB" points="20.1834905 21.7104484 20 21.3204325 21.210348 20 21.6896055 20.2999007 20.1834905 21.7104484"></polyline>
                                        <polyline id="Fill-64" fill="#D0D1CB" points="43.5064022 21.7104484 42 20.2999007 42.4792576 20 43.6898927 21.3204325 43.5064022 21.7104484"></polyline>
                                        <path d="M34.9665649,78.3071649 L3.29363964,78.3071649 C1.47309253,78.3071649 0,76.8178028 0,74.9836273 L0,11.3264353 C0,9.48936213 1.47309253,8 3.29363964,8 L13.7230199,8 L34.9665649,53.1525919 L34.9665649,78.3071649 Z" id="Fill-66" stroke="#4C4F58" stroke-width="3" fill="#FFFFFF"></path>
                                        <path d="M5,18.9766569 L12.7588616,21.7777588 L8.73872608,26.3979687 C8.73872608,26.3979687 27.9459593,44.2704407 28.9366455,45 C29.9273317,45.7295593 38.4175846,60.4263546 30.4234619,43.4350586 C22.4293392,26.4437626 13.9132149,8 13.9132149,8 L5,18.9766569 Z" id="Fill-67" stroke="#4C4F58" stroke-width="2" fill="#FFFFFF"></path>
                                        <path d="M28,78.3071649 L59.6729252,78.3071649 C61.4934723,78.3071649 62.9665649,76.8178028 62.9665649,74.9836273 L62.9665649,11.3264353 C62.9665649,9.48936213 61.4934723,8 59.6729252,8 L49.2435449,8 L28,53.1525919 L28,78.3071649 Z" id="Fill-72" stroke="#4C4F58" stroke-width="3" fill="#C1E2DC"></path>
                                        <path d="M58.3771022,18.9766569 L50.6182406,21.7777588 L54.6383762,26.3979687 C54.6383762,26.3979687 44.9485381,34.1165475 40.7070312,37.5458984 C36.4655244,40.9752494 32.2783203,44.4765625 32.2783203,44.4765625 L30.6923828,44.4765625 L49.4638874,8 L58.3771022,18.9766569 Z" id="Fill-73" stroke="#4C4F58" stroke-width="2" fill="#FFFFFF"></path>
                                        <polyline id="Fill-90" fill="#858783" points="20.525 22.5266667 20 22 20.525 22.5266667"></polyline>
                                        <polyline id="Fill-91" fill="#747571" points="20.525 21.5266667 20 21 20.525 21.5266667"></polyline>
                                        <polyline id="Fill-93" fill="#858783" points="43.0011632 22.8258136 43 22.8252341 43.5242245 22 43.525 22.0008693 43.0011632 22.8258136"></polyline>
                                        <polyline id="Fill-94" fill="#747571" points="43.0016381 21.5266667 43 21.5254954 43.5233619 21 43.525 21.0011712 43.0016381 21.5266667"></polyline>
                                        <polyline id="Fill-96" fill="#7F807C" points="46.6385098 24.9694109 43.0005743 21.0008693 43 21 46.6385098 24.9694109"></polyline>
                                    </g>
                                    <path d="M19.5861816,8.02050781 L44.5185547,8.02050781" id="Line" stroke="#FFFFFF" stroke-width="3" stroke-linecap="square"></path>
                                </g>
                                <path d="M23.6722412,2.71191411 C25.2658076,2.22422757 27.4043615,1.69723859 29.9195557,1.54968262 C31.0696117,1.48221362 32.8773721,1.32104444 34.6385498,1.54968262 C37.3141794,1.89703601 40.9897461,3.35083013 40.9897461,3.35083013 C40.9897461,3.35083013 36.8135986,3.32119005 31.2679443,6.67761248 C25.72229,10.0340349 20.0216064,17.9453127 20.0216064,17.9453127 L15.4439697,8.09375 C15.4439697,8.09375 20.2906052,3.74681194 23.6722412,2.71191411 Z" id="Path-748" fill="#E4E3E3"></path>
                                <path d="M18.5216064,20.0585938 C18.5216064,20.0585938 16.773483,22.152662 15.3781738,24.2598877 C13.9828646,26.3671134 12.741333,28.7880859 12.741333,28.7880859 L10.1091919,26.3022461 L14.4555664,21.3278809 L6.58831787,18.5001831 L13.6647949,9.8614502 L18.5216064,20.0585938 Z" id="Path-749" fill="#E4E3E3"></path>
                                <path d="" id="Path-750" stroke="#979797"></path>
                                <path d="M11.9285889,30.692627 C11.9285889,30.692627 8.29974365,35.6368408 5.66186523,41.611084 C3.02398682,47.5853271 1.48217773,53.1606445 1.48217773,53.1606445 L1.48217773,10.9810181 C1.48217773,10.9810181 1.71362305,9.49487305 3.02398682,9.49487305 L11.4269409,9.47790527 L3.36529541,19.418457 L11.0614624,22.2332153 L7.37432861,26.4296265 L11.9285889,30.692627 Z" id="Path-751" fill="#D8D8D8"></path>
                            </g>
                        </g>
                    </g>
                </g>
            </g>
        </g>
    </g>
</svg>