<?xml version="1.0" encoding="UTF-8" standalone="no"?>
<svg width="71px" height="81px" viewBox="0 0 71 81" version="1.1" xmlns="http://www.w3.org/2000/svg" xmlns:xlink="http://www.w3.org/1999/xlink">
    <!-- Generator: Sketch 39.1 (31720) - http://www.bohemiancoding.com/sketch -->
    <title>document</title>
    <desc>Created with Sketch.</desc>
    <defs>
        <rect id="path-1" x="13.9214502" y="14.2192351" width="50.0302115" height="68.7807649" rx="4"></rect>
        <mask id="mask-2" maskContentUnits="userSpaceOnUse" maskUnits="objectBoundingBox" x="0" y="0" width="50.0302115" height="68.7807649" fill="white">
            <use xlink:href="#path-1"></use>
        </mask>
        <rect id="path-3" x="0" y="8.37935883" width="50.0302115" height="68.7807649" rx="4"></rect>
        <mask id="mask-4" maskContentUnits="userSpaceOnUse" maskUnits="objectBoundingBox" x="0" y="0" width="50.0302115" height="68.7807649" fill="white">
            <use xlink:href="#path-3"></use>
        </mask>
        <path d="M3.01000977,73.0139159 L3.01000978,13.4598388 C3.01000978,13.4598388 2.96859816,13.0087281 3.01000978,12.3258667 C3.0514214,11.6430054 3.01000978,12.3258667 3.01000978,12.3258667 C2.92229951,11.6217576 3.73737461,11.1760378 4.82844988,11.3300299 L4.94079582,11.3458862 L31.4940808,11.3458862 C31.4940808,11.3458862 21.5097309,22.6818947 19.4765633,37.8769535 C17.4433956,53.0720123 23.0922853,74.1374511 23.0922853,74.1374511 L5.10131828,74.1374497 L4.11218263,74.1374497 L4.11218263,74.1374497 C2.92853231,74.3827148 2.95979942,73.0895258 3.01000977,73.0139159 L3.01000977,73.0139159 Z" id="path-5"></path>
        <rect id="path-6" x="43.2425654" y="1.20542664" width="8.918429" height="17.9522122" rx="4"></rect>
        <mask id="mask-7" maskContentUnits="userSpaceOnUse" maskUnits="objectBoundingBox" x="0" y="0" width="8.918429" height="17.9522122" fill="white">
            <use xlink:href="#path-6"></use>
        </mask>
        <rect id="path-8" x="58.0341062" y="7.26159462" width="8.918429" height="17.9522122" rx="4"></rect>
        <mask id="mask-9" maskContentUnits="userSpaceOnUse" maskUnits="objectBoundingBox" x="0" y="0" width="8.918429" height="17.9522122" fill="white">
            <use xlink:href="#path-8"></use>
        </mask>
    </defs>
    <g id="Page-1" stroke="none" stroke-width="1" fill="none" fill-rule="evenodd">
        <g id="A4-Copy" transform="translate(-14.000000, -36.000000)">
            <g id="document" transform="translate(14.000000, 34.000000)">
                <g id="Group-12">
                    <g id="Group-2">
                        <g id="Group-79-Copy-4">
                            <g id="Group-66-Copy-2">
                                <g id="Group-65">
                                    <g id="Group-56">
                                        <use id="Rectangle-182-Copy" stroke="#4C4F58" mask="url(#mask-2)" stroke-width="6" fill="#FFFFFF" xlink:href="#path-1"></use>
                                        <path d="M19.2507553,35.2866142 L55.5268573,35.2866142" id="Line-Copy-67" stroke="#979797" stroke-width="2" stroke-linecap="square"></path>
                                        <path d="M19.2507553,43.9382827 L55.5268573,43.9382827" id="Line-Copy-66" stroke="#979797" stroke-width="2" stroke-linecap="square"></path>
                                        <path d="M19.2507553,52.5899513 L55.5268573,52.5899513" id="Line-Copy-65" stroke="#979797" stroke-width="2" stroke-linecap="square"></path>
                                        <use id="Rectangle-182" stroke="#4C4F58" mask="url(#mask-4)" stroke-width="6" fill="#EAD49F" xlink:href="#path-3"></use>
                                        <use id="Rectangle-182-Copy-2" fill="#EFDFB7" xlink:href="#path-5"></use>
                                        <use id="Rectangle-184-Copy" stroke="#4C4F58" mask="url(#mask-7)" stroke-width="6" transform="translate(47.701780, 10.181533) rotate(43.000000) translate(-47.701780, -10.181533) " xlink:href="#path-6"></use>
                                        <use id="Rectangle-184-Copy-2" stroke="#4C4F58" mask="url(#mask-9)" stroke-width="6" transform="translate(62.493321, 16.237701) rotate(43.000000) translate(-62.493321, -16.237701) " xlink:href="#path-8"></use>
                                        <path d="M7.37462236,23.9860705 L43.6507244,23.9860705" id="Line" stroke="#4C4F58" stroke-width="2" stroke-linecap="square"></path>
                                        <path d="M7.37462236,32.637739 L43.6507244,32.637739" id="Line-Copy-63" stroke="#4C4F58" stroke-width="2" stroke-linecap="square"></path>
                                        <path d="M7.37462236,42.1545744 L43.6507244,42.1545744" id="Line-Copy-64" stroke="#4C4F58" stroke-width="2" stroke-linecap="square"></path>
                                    </g>
                                </g>
                            </g>
                        </g>
                    </g>
                </g>
            </g>
        </g>
    </g>
</svg>