<?xml version="1.0" encoding="UTF-8" standalone="no"?>
<svg width="88px" height="64px" viewBox="0 0 88 64" version="1.1" xmlns="http://www.w3.org/2000/svg" xmlns:xlink="http://www.w3.org/1999/xlink">
    <!-- Generator: Sketch 39.1 (31720) - http://www.bohemiancoding.com/sketch -->
    <title>food</title>
    <desc>Created with Sketch.</desc>
    <defs>
        <rect id="path-1" x="1.59011472" y="44.1602492" width="80.8937198" height="10.0219224" rx="5.01096122"></rect>
        <mask id="mask-2" maskContentUnits="userSpaceOnUse" maskUnits="objectBoundingBox" x="0" y="0" width="80.8937198" height="10.0219224" fill="white">
            <use xlink:href="#path-1"></use>
        </mask>
        <polygon id="path-3" points="3.79644918 37.4789675 80.9857897 37.4789675 80.9857897 45.5342224 71.0775988 45.5342224 66.5095578 48.3360502 61.5933319 45.5342224 3.79644918 45.5342224"></polygon>
        <mask id="mask-4" maskContentUnits="userSpaceOnUse" maskUnits="objectBoundingBox" x="0" y="0" width="77.1893405" height="10.8570826" fill="white">
            <use xlink:href="#path-3"></use>
        </mask>
        <path d="M6.08676763,62.636777 C0.0178629099,60.2633803 -0.206244089,52.3877921 0.0741420559,52.3718035 C0.0938110943,52.3706819 81.440712,52.3718035 81.440712,52.3718035 C81.440712,52.3718035 83.6676589,52.3718035 84.4553338,52.3718035 C85.2430087,52.3718035 84.1045584,62.99281 74.3257487,62.99281 C64.5469389,62.99281 30.8252884,62.9927123 10.1192555,62.99281 C8.53446023,62.9928175 7.22360094,63.0813641 6.08676763,62.636777 Z" id="path-5"></path>
        <mask id="mask-6" maskContentUnits="userSpaceOnUse" maskUnits="objectBoundingBox" x="0" y="0" width="84.6579899" height="10.628695" fill="white">
            <use xlink:href="#path-5"></use>
        </mask>
    </defs>
    <g id="Page-1" stroke="none" stroke-width="1" fill="none" fill-rule="evenodd">
        <g id="A4-Copy" transform="translate(-6.000000, -43.000000)">
            <g id="food" transform="translate(8.000000, 44.000000)">
                <g id="Group-22">
                    <g id="Group-7">
                        <g id="Group-75-Copy-4">
                            <g id="Group-74">
                                <ellipse id="Oval-8-Copy-39" fill="#C6AF79" cx="69.8067633" cy="21.3028118" rx="2.0531401" ry="1.22638789"></ellipse>
                                <ellipse id="Oval-8-Copy-38" fill="#F2EFE8" cx="28.1280193" cy="16.1928623" rx="2.66908213" ry="0.613193944"></ellipse>
                                <ellipse id="Oval-8-Copy-37" fill="#F2EFE8" cx="31.6183575" cy="23.3467916" rx="2.0531401" ry="1.22638789"></ellipse>
                                <ellipse id="Oval-8-Copy-36" fill="#F2EFE8" cx="36.5458937" cy="9.85652487" rx="2.0531401" ry="1.22638789"></ellipse>
                                <ellipse id="Oval-8-Copy-35" fill="#C6AF79" transform="translate(20.742111, 22.030914) rotate(-30.000000) translate(-20.742111, -22.030914) " cx="20.7421105" cy="22.0309138" rx="2.25845411" ry="1.43078587"></ellipse>
                                <path d="M9.55091099,46.9673044 C9.55091099,46.1759803 9.44444444,38.4722422 9.44444444,38.4722422 L33.7073081,38.4722422 C33.7073081,38.4722422 33.7073087,46.8105631 33.7073081,47.9557503 C33.7073075,49.1009374 32.6106339,49.1009371 31.3533941,49.1009373 C30.0961544,49.1009374 30.0961543,47.9190486 30.0961543,47.9190486 C30.0961543,47.9190486 30.0961541,44.8781644 30.0961543,42.8850203 C30.0961544,40.8918763 28.0675294,40.4564564 27.4182424,40.4564565 C26.4438292,40.4564565 24.1151715,40.6950622 24.145719,42.9584185 C24.1762665,45.2217748 24.1714335,44.7640123 24.1151715,45.0938204 C24.0172522,45.6678232 23.829157,46.06519 23.1344177,46.06519 L21.8849897,46.06519 L20.689196,46.06519 C19.7005255,46.06519 19.2898975,45.8129418 19.2898979,44.6810824 C19.2898982,43.5492231 19.2898979,43.1987262 19.2898979,43.1987262 C19.2898979,43.1987262 19.1068345,41.7892376 16.9557492,41.6352869 C15.6671746,41.543065 14.8800008,42.0536048 14.4978792,42.6261655 C14.1157576,43.1987262 14.1157575,44.0250952 14.1157575,44.0250952 L14.1157576,46.845144 C14.1157576,46.845144 14.1157576,47.7586286 12.8783413,47.7586286 C11.640925,47.7586286 10.7160279,47.7586284 10.7160279,47.7586284 C10.7160279,47.7586284 9.55091099,47.7586286 9.55091099,46.9673044 Z" id="Path-13-Copy-4" stroke="#E6382F" stroke-width="2" fill="#F2564E"></path>
                                <ellipse id="Oval-8-Copy-34" fill="#C6AF79" transform="translate(52.450462, 10.681573) rotate(16.000000) translate(-52.450462, -10.681573) " cx="52.4504617" cy="10.6815733" rx="2.46376812" ry="1.43078587"></ellipse>
                                <ellipse id="Oval-8-Copy-33" fill="#C6AF79" transform="translate(61.642860, 19.547959) rotate(2.000000) translate(-61.642860, -19.547959) " cx="61.6428595" cy="19.547959" rx="2.46376812" ry="1.43078587"></ellipse>
                                <ellipse id="Oval-8-Copy-32" fill="#C6AF79" transform="translate(37.826434, 17.912775) rotate(2.000000) translate(-37.826434, -17.912775) " cx="37.8264344" cy="17.9127752" rx="2.46376812" ry="1.43078587"></ellipse>
                                <use id="Rectangle-24-Copy-9" stroke="#4C4F58" mask="url(#mask-2)" stroke-width="4" fill="#A0826D" xlink:href="#path-1"></use>
                                <use id="Rectangle-24-Copy-8" stroke="#4C4F58" mask="url(#mask-4)" stroke-width="4" fill="#BACB9D" xlink:href="#path-3"></use>
                                <path d="M83.6579894,38.8583646 C84.1515228,38.2385096 84.0348648,36.9742355 84.0334159,36.9086065 C83.5939979,17.0049807 62.988343,0.863013699 41.9596787,0.863013699 C21.2981193,0.863013699 2.25888831,16.2074152 0.492102164,35.8422936 C0.480779049,35.9681312 0.110903922,38.3547709 1.04666942,38.8583646 L83.6579894,38.8583646 Z" id="Combined-Shape-Copy-10" stroke="#4C4F58" stroke-width="3" fill="#FFFFFF"></path>
                                <use id="Combined-Shape-Copy-4" stroke="#4C4F58" mask="url(#mask-6)" stroke-width="6" fill="#FFFFFF" xlink:href="#path-5"></use>
                                <ellipse id="Oval-8-Copy-31" fill="#F2EFE8" cx="28.1280193" cy="16.1928623" rx="2.66908213" ry="0.613193944"></ellipse>
                                <ellipse id="Oval-8-Copy-30" fill="#F2EFE8" cx="33.6714976" cy="23.3467916" rx="2.0531401" ry="1.22638789"></ellipse>
                                <ellipse id="Oval-8-Copy-28" fill="#F2EFE8" cx="64.468599" cy="24.5731795" rx="2.0531401" ry="1.22638789"></ellipse>
                                <ellipse id="Oval-8-Copy-29" fill="#F2EFE8" cx="36.5458937" cy="9.85652487" rx="2.0531401" ry="1.22638789"></ellipse>
                                <ellipse id="Oval-8-Copy-27" fill="#C6AF79" transform="translate(20.742111, 22.030914) rotate(-30.000000) translate(-20.742111, -22.030914) " cx="20.7421105" cy="22.0309138" rx="2.25845411" ry="1.43078587"></ellipse>
                                <path d="M9.97998047,49.2861938 C9.97998047,48.4948697 9.97998047,40.8612061 9.97998047,40.8612061 L34.2624626,40.8612061 C34.2624626,40.8612061 34.2624633,49.1658601 34.2624627,50.3110472 C34.2624621,51.4562344 33.1657884,51.4562341 31.9085487,51.4562342 C30.651309,51.4562344 30.6513088,50.2743455 30.6513088,50.2743455 C30.6513088,50.2743455 30.6513087,47.2334613 30.6513088,45.2403173 C30.651309,43.2471732 28.5723827,43.0599365 27.9230957,43.0599365 C26.9486825,43.0599365 24.670326,43.0503592 24.7008736,45.3137155 C24.7314211,47.5770718 24.7265881,47.1193092 24.670326,47.4491174 C24.5724067,48.0231202 24.3843115,48.420487 23.6895722,48.420487 L22.4401443,48.420487 L21.2443506,48.420487 C20.2556801,48.420487 19.8450521,48.1682388 19.8450524,47.0363794 C19.8450528,45.90452 19.8450524,45.5540232 19.8450524,45.5540232 C19.8450524,45.5540232 19.6619891,44.1445345 17.5109038,43.9905838 C16.2223291,43.898362 15.4351553,44.4089017 15.0530337,44.9814624 C14.6709121,45.5540232 14.670912,46.3803921 14.670912,46.3803921 L14.6709121,49.2004409 C14.6709121,49.2004409 14.6709121,50.1139255 13.4334959,50.1139255 C12.1960796,50.1139255 11.2711824,50.1139253 11.2711824,50.1139253 C11.2711824,50.1139253 9.97998047,50.077518 9.97998047,49.2861938 Z" id="Path-13-Copy-3" stroke="#C99E5F" fill="#E0C59D"></path>
                                <ellipse id="Oval-8-Copy-26" fill="#C6AF79" transform="translate(52.450462, 10.681573) rotate(16.000000) translate(-52.450462, -10.681573) " cx="52.4504617" cy="10.6815733" rx="2.46376812" ry="1.43078587"></ellipse>
                                <ellipse id="Oval-8-Copy-25" fill="#C6AF79" transform="translate(61.642860, 19.547959) rotate(2.000000) translate(-61.642860, -19.547959) " cx="61.6428595" cy="19.547959" rx="2.46376812" ry="1.43078587"></ellipse>
                                <ellipse id="Oval-8-Copy-15" fill="#C6AF79" transform="translate(37.826434, 17.912775) rotate(2.000000) translate(-37.826434, -17.912775) " cx="37.8264344" cy="17.9127752" rx="2.46376812" ry="1.43078587"></ellipse>
                                <path d="" id="Path-365" stroke="#979797"></path>
                                <path d="M31.573445,18.7083148 C34.6427365,9.22576222 43.330904,2.48883281 43.330904,2.48883281 C43.330904,2.48883281 39.3067086,2.24524005 34.5231285,3.07682633 C27.9405275,4.22115769 20.9427009,6.74450488 11.7375858,14.7905871 C2.53247068,22.8366694 1.63534059,37.3804316 2.01343717,37.3804316 C2.39153374,37.3804316 30.8564457,37.3804316 30.8564457,37.3804316 C30.8564457,37.3804316 28.5041536,28.1908674 31.573445,18.7083148 Z" id="Path-368" fill="#E5E4E4"></path>
                                <path d="" id="Path-366" stroke="#979797"></path>
                                <path d="M34.4553223,55.3676758 C34.4553223,55.3676758 34.3909847,57.4895484 36.7880859,59.9995117 L7.95928955,59.9995117 C4.87078857,59.9995117 3.41223145,55.3676758 3.41223145,55.3676758 L34.4553223,55.3676758 Z" id="Path-367" fill="#E4E3E3"></path>
                            </g>
                        </g>
                    </g>
                </g>
            </g>
        </g>
    </g>
</svg>