<?xml version="1.0" encoding="UTF-8" standalone="no"?>
<svg width="91px" height="104px" viewBox="0 0 91 104" version="1.1" xmlns="http://www.w3.org/2000/svg" xmlns:xlink="http://www.w3.org/1999/xlink">
    <!-- Generator: Sketch 40.1 (33804) - http://www.bohemiancoding.com/sketch -->
    <title>Group</title>
    <desc>Created with Sketch.</desc>
    <defs>
        <path d="M88.7837838,44.4750397 C88.7837838,68.7061418 68.908239,88.3492538 44.3900422,88.3492538 C19.8736951,88.3492538 0,68.7061418 0,44.4750397 C0,20.2439377 19.8736951,0.600642289 44.3900422,0.600642289 C68.908239,0.600642289 88.7837838,20.2439377 88.7837838,44.4750397 L16.989147,29.8569653 L88.7837838,44.4750397 L88.7837838,44.4750397 Z" id="path-1"></path>
        <path d="M57.0805743,28.8876846 C57.0787247,44.3943428 44.3595228,56.9653732 28.6679139,56.9653732 C12.9781546,56.9653732 0.258952703,44.3943428 0.258952703,28.8858506 C0.258952703,13.3773583 12.9781546,0.806052782 28.6679139,0.806052782 C44.3595228,0.806052782 57.0805743,13.3791924 57.0805743,28.8876846 L57.0805743,28.8876846 Z" id="path-3"></path>
        <path d="M0.664028716,7.24163688 L0.664028716,10.7510385 C3.04546875,12.7290315 11.1904561,11.451635 18.7491005,11.2508095 C24.9121748,11.0866645 30.6858953,12.364061 32.6261909,10.7510385 L32.6261909,7.24163688 C32.6261909,1.75332528 21.9009248,0.220999682 16.6451098,0.220999682 C11.3911444,0.220999682 0.664028716,1.75332528 0.664028716,7.24163688 L0.664028716,7.24163688 Z" id="path-5"></path>
        <path d="M7.39679899,17.96058 C11.3162331,17.96058 14.4995017,14.9298582 14.4995017,11.1921208 L14.4995017,7.18019714 C14.4995017,3.44154277 11.3162331,0.410820986 7.39679899,0.410820986 C3.48013936,0.410820986 0.295945946,3.44154277 0.295945946,7.18019714 L0.295945946,11.1921208 C0.295945946,14.9298582 3.48013936,17.96058 7.39679899,17.96058 L7.39679899,17.96058 Z" id="path-7"></path>
        <path d="M14.4995017,7.01972019 C14.4995017,10.8968432 11.3208573,14.0394404 7.39679899,14.0394404 C3.47459037,14.0394404 0.295945946,10.8968432 0.295945946,7.01972019 C0.295945946,3.14351415 3.47459037,0 7.39679899,0 C11.3208573,0 14.4995017,3.14351415 14.4995017,7.01972019 L14.4995017,7.01972019 Z" id="path-9"></path>
        <path d="M14.7972973,7.90555294 C14.7972973,11.781759 11.6168032,14.9252731 7.69274493,14.9252731 C3.77053632,14.9252731 0.591891892,11.781759 0.591891892,7.90555294 C0.591891892,4.02842989 3.77053632,0.88583275 7.69274493,0.88583275 C11.6168032,0.88583275 14.7972973,4.02842989 14.7972973,7.90555294 L14.7972973,7.90555294 Z" id="path-11"></path>
        <path d="M14.7972973,7.68363625 C14.7972973,11.5607593 11.6168032,14.7038149 7.69274493,14.7038149 C3.77053632,14.7038149 0.591891892,11.5607593 0.591891892,7.68363625 C0.591891892,3.80743021 3.77053632,0.663916057 7.69274493,0.663916057 C11.6168032,0.663916057 14.7972973,3.80743021 14.7972973,7.68363625 L14.7972973,7.68363625 Z" id="path-13"></path>
        <path d="M14.2035557,7.68363625 C14.2035557,11.5607593 11.0249113,14.7038149 7.10085304,14.7038149 C3.17864443,14.7038149 0,11.5607593 0,7.68363625 C0,3.80743021 3.17864443,0.663916057 7.10085304,0.663916057 C11.0249113,0.663916057 14.2035557,3.80743021 14.2035557,7.68363625 L14.2035557,7.68363625 Z" id="path-15"></path>
        <path d="M14.2035557,7.90555294 C14.2035557,11.781759 11.0249113,14.9252731 7.10085304,14.9252731 C3.17864443,14.9252731 0,11.781759 0,7.90555294 C0,4.02842989 3.17864443,0.88583275 7.10085304,0.88583275 C11.0249113,0.88583275 14.2035557,4.02842989 14.2035557,7.90555294 L14.2035557,7.90555294 Z" id="path-17"></path>
        <path d="M7.39679899,14.6721781 C3.47459037,14.6721781 0.295945946,11.5290307 0.295945946,7.65227447 C0.295945946,3.77560992 3.47459037,0.632462576 7.39679899,0.632462576 C11.3208573,0.632462576 14.4995017,3.77560992 14.4995017,7.65227447 C14.4995017,11.5290307 11.3208573,14.6721781 7.39679899,14.6721781 L7.39679899,14.6721781 Z" id="path-19"></path>
    </defs>
    <g id="Page-1" stroke="none" stroke-width="1" fill="none" fill-rule="evenodd">
        <g id="Artboard" transform="translate(-62.000000, -85.000000)">
            <g id="Group" transform="translate(63.000000, 86.000000)">
                <g id="Group-139" transform="translate(0.000000, 6.419078)">
                    <mask id="mask-2" fill="white">
                        <use xlink:href="#path-1"></use>
                    </mask>
                    <g id="Clip-138"></g>
                    <polygon id="Fill-137" fill="#E9EAE7" mask="url(#mask-2)" points="-4.62415541 -3.98441335 93.4079392 -3.98441335 93.4079392 92.9343094 -4.62415541 92.9343094"></polygon>
                </g>
                <path d="M44.3901532,87.7481622 L44.3901532,14.0394404 M76.6843667,32.4666231 L12.0977154,69.3209794 M12.0977154,32.4666231 L76.6843667,69.3209794" id="Stroke-140" stroke="#000000" stroke-width="2"></path>
                <g id="Group-144" transform="translate(15.722128, 22.008267)">
                    <mask id="mask-4" fill="white">
                        <use xlink:href="#path-3"></use>
                    </mask>
                    <g id="Clip-143"></g>
                    <polygon id="Fill-142" fill="#FFFFFF" mask="url(#mask-4)" points="-4.3652027 -3.77900286 61.7047297 -3.77900286 61.7047297 61.5504289 -4.3652027 61.5504289"></polygon>
                </g>
                <path d="M72.8026287,50.8955574 C72.800853,66.4024631 60.0816882,78.9733102 44.3900422,78.9733102 C28.700172,78.9733102 15.9810071,66.4024631 15.9810071,50.8938059 C15.9810071,35.3851394 28.700172,22.8142887 44.3900422,22.8142887 C60.0816882,22.8142887 72.8026287,35.3868909 72.8026287,50.8955574 L72.8026287,50.8955574 L72.8026287,50.8955574 Z M19.5305828,21.0593183 L31.9620882,14.0394404 L19.5305828,21.0593183 L19.5305828,21.0593183 Z M7.10085304,61.4236154 L7.10085304,40.3639872 L7.10085304,61.4236154 L7.10085304,61.4236154 Z M31.9620882,87.7481622 L19.5305828,80.7282861 L31.9620882,87.7481622 L31.9620882,87.7481622 Z M69.2512774,80.7282861 L56.819772,87.7481622 L69.2512774,80.7282861 L69.2512774,80.7282861 Z M81.6792314,40.3639872 L81.6792314,61.4236154 L81.6792314,40.3639872 L81.6792314,40.3639872 Z M56.819772,14.0394404 L69.2512774,21.0593183 L56.819772,14.0394404 L56.819772,14.0394404 Z" id="Stroke-145" stroke="#000000" stroke-width="2"></path>
                <g id="Group-149" transform="translate(27.744932, 55.937679)">
                    <mask id="mask-6" fill="white">
                        <use xlink:href="#path-5"></use>
                    </mask>
                    <g id="Clip-148"></g>
                    <polygon id="Fill-147" fill="#FFDB01" mask="url(#mask-6)" points="-3.96012669 -4.36405596 37.2503463 -4.36405596 37.2503463 16.4264203 -3.96012669 16.4264203"></polygon>
                </g>
                <g id="Group-152" transform="translate(36.993243, 31.178378)">
                    <mask id="mask-8" fill="white">
                        <use xlink:href="#path-7"></use>
                    </mask>
                    <g id="Clip-151"></g>
                    <polygon id="Fill-150" fill="#FFFFFF" mask="url(#mask-8)" points="-4.32820946 -4.17423466 19.1236571 -4.17423466 19.1236571 22.5456356 -4.32820946 22.5456356"></polygon>
                </g>
                <path d="M44.3900422,49.1388942 C48.3089584,49.1388942 51.4927449,46.1080623 51.4927449,42.3699765 L51.4927449,38.358117 C51.4927449,34.6200321 48.3089584,31.5891994 44.3900422,31.5891994 C40.4729017,31.5891994 37.2891152,34.6200321 37.2891152,38.358117 L37.2891152,42.3699765 C37.2891152,46.1080623 40.4729017,49.1388942 44.3900422,49.1388942 L44.3900422,49.1388942 L44.3900422,49.1388942 Z M60.3711233,66.6885889 L60.3711233,63.1786555 C60.3711233,57.6908574 49.6460422,56.1587702 44.3900422,56.1587702 C39.1358179,56.1587702 28.4089611,57.6908574 28.4089611,63.1786555 L28.4089611,66.6885889 L60.3711233,66.6885889 L60.3711233,66.6885889 Z" id="Stroke-153" stroke="#000000" stroke-width="2"></path>
                <g id="Group-157" transform="translate(36.993243, 0.000000)">
                    <mask id="mask-10" fill="white">
                        <use xlink:href="#path-9"></use>
                    </mask>
                    <g id="Clip-156"></g>
                    <polygon id="Fill-155" fill="#FFFFFF" mask="url(#mask-10)" points="-4.32820946 -4.58505564 19.1236571 -4.58505564 19.1236571 18.624496 -4.32820946 18.624496"></polygon>
                </g>
                <path d="M51.4928189,7.01987792 C51.4928189,10.8966048 48.3143595,14.0397522 44.3901162,14.0397522 C40.4676486,14.0397522 37.2891892,10.8966048 37.2891892,7.01987792 C37.2891892,3.1431501 40.4676486,0 44.3901162,0 C48.3143595,0 51.4928189,3.1431501 51.4928189,7.01987792 L51.4928189,7.01987792 L51.4928189,7.01987792 Z" id="Stroke-158" stroke="#000000" stroke-width="2"></path>
                <g id="Group-162" transform="translate(73.986486, 20.174245)">
                    <mask id="mask-12" fill="white">
                        <use xlink:href="#path-11"></use>
                    </mask>
                    <g id="Clip-161"></g>
                    <polygon id="Fill-160" fill="#FFFFFF" mask="url(#mask-12)" points="-4.03226351 -3.69922289 19.4214527 -3.69922289 19.4214527 19.5103288 -4.03226351 19.5103288"></polygon>
                </g>
                <path d="M88.7837838,28.0799555 C88.7837838,31.9566824 85.6035486,35.0998297 81.6793054,35.0998297 C77.7568378,35.0998297 74.5783784,31.9566824 74.5783784,28.0799555 C74.5783784,24.2032277 77.7568378,21.0600776 81.6793054,21.0600776 C85.6035486,21.0600776 88.7837838,24.2032277 88.7837838,28.0799555 L88.7837838,28.0799555 L88.7837838,28.0799555 Z" id="Stroke-163" stroke="#000000" stroke-width="2"></path>
                <g id="Group-167" transform="translate(73.986486, 66.024801)">
                    <mask id="mask-14" fill="white">
                        <use xlink:href="#path-13"></use>
                    </mask>
                    <g id="Clip-166"></g>
                    <polygon id="Fill-165" fill="#FFFFFF" mask="url(#mask-14)" points="-4.03226351 -3.92113959 19.4214527 -3.92113959 19.4214527 19.2888706 -4.03226351 19.2888706"></polygon>
                </g>
                <path d="M88.7837838,73.7085952 C88.7837838,77.5853221 85.6035486,80.7284695 81.6793054,80.7284695 C77.7568378,80.7284695 74.5783784,77.5853221 74.5783784,73.7085952 C74.5783784,69.8318674 77.7568378,66.6887173 81.6793054,66.6887173 C85.6035486,66.6887173 88.7837838,69.8318674 88.7837838,73.7085952 L88.7837838,73.7085952 L88.7837838,73.7085952 Z" id="Stroke-168" stroke="#000000" stroke-width="2"></path>
                <g id="Group-172" transform="translate(0.000000, 66.024801)">
                    <mask id="mask-16" fill="white">
                        <use xlink:href="#path-15"></use>
                    </mask>
                    <g id="Clip-171"></g>
                    <polygon id="Fill-170" fill="#FFFFFF" mask="url(#mask-16)" points="-4.62415541 -3.92113959 18.8277111 -3.92113959 18.8277111 19.2888706 -4.62415541 19.2888706"></polygon>
                </g>
                <path d="M14.2036297,73.7085952 C14.2036297,77.5853221 11.0251703,80.7284695 7.10092703,80.7284695 C3.17845946,80.7284695 0,77.5853221 0,73.7085952 C0,69.8318674 3.17845946,66.6887173 7.10092703,66.6887173 C11.0251703,66.6887173 14.2036297,69.8318674 14.2036297,73.7085952 L14.2036297,73.7085952 L14.2036297,73.7085952 Z" id="Stroke-173" stroke="#000000" stroke-width="2"></path>
                <g id="Group-177" transform="translate(0.000000, 20.174245)">
                    <mask id="mask-18" fill="white">
                        <use xlink:href="#path-17"></use>
                    </mask>
                    <g id="Clip-176"></g>
                    <polygon id="Fill-175" fill="#FFFFFF" mask="url(#mask-18)" points="-4.62415541 -3.69922289 18.8277111 -3.69922289 18.8277111 19.5103288 -4.62415541 19.5103288"></polygon>
                </g>
                <path d="M14.2036297,28.0799555 C14.2036297,31.9566824 11.0251703,35.0998297 7.10092703,35.0998297 C3.17845946,35.0998297 0,31.9566824 0,28.0799555 C0,24.2032277 3.17845946,21.0600776 7.10092703,21.0600776 C11.0251703,21.0600776 14.2036297,24.2032277 14.2036297,28.0799555 L14.2036297,28.0799555 L14.2036297,28.0799555 Z" id="Stroke-178" stroke="#000000" stroke-width="2"></path>
                <g id="Group-182" transform="translate(36.993243, 87.116057)">
                    <mask id="mask-20" fill="white">
                        <use xlink:href="#path-19"></use>
                    </mask>
                    <g id="Clip-181"></g>
                    <polygon id="Fill-180" fill="#FFFFFF" mask="url(#mask-20)" points="-4.32820946 -3.95259307 19.1236571 -3.95259307 19.1236571 19.2572337 -4.32820946 19.2572337"></polygon>
                </g>
                <path d="M44.3901162,101.788272 C40.4676486,101.788272 37.2891892,98.6451246 37.2891892,94.7683977 C37.2891892,90.8916699 40.4676486,87.7485198 44.3901162,87.7485198 C48.3143595,87.7485198 51.4928189,90.8916699 51.4928189,94.7683977 C51.4928189,98.6451246 48.3143595,101.788272 44.3901162,101.788272" id="Stroke-183" stroke="#000000" stroke-width="2"></path>
            </g>
        </g>
    </g>
</svg>