<?xml version="1.0" encoding="UTF-8" standalone="no"?>
<svg width="292px" height="266px" viewBox="0 0 292 266" version="1.1" xmlns="http://www.w3.org/2000/svg" xmlns:xlink="http://www.w3.org/1999/xlink">
    <!-- Generator: Sketch 39.1 (31720) - http://www.bohemiancoding.com/sketch -->
    <title>payment option copy</title>
    <desc>Created with Sketch.</desc>
    <defs>
        <rect id="path-1" x="3.77656688" y="0" width="1.65268515" height="8.72266468" rx="0.826342573"></rect>
        <mask id="mask-2" maskContentUnits="userSpaceOnUse" maskUnits="objectBoundingBox" x="0" y="0" width="1.65268515" height="8.72266468" fill="white">
            <use xlink:href="#path-1"></use>
        </mask>
        <rect id="path-3" x="3.77656688" y="-0.0111275878" width="1.65268515" height="8.72266468" rx="0.826342573"></rect>
        <mask id="mask-4" maskContentUnits="userSpaceOnUse" maskUnits="objectBoundingBox" x="0" y="0" width="1.65268515" height="8.72266468" fill="white">
            <use xlink:href="#path-3"></use>
        </mask>
        <rect id="path-5" x="3.04419066" y="-3.60289576e-12" width="1.48397044" height="7.44829348" rx="0.741985219"></rect>
        <mask id="mask-6" maskContentUnits="userSpaceOnUse" maskUnits="objectBoundingBox" x="0" y="0" width="1.48397044" height="7.44829348" fill="white">
            <use xlink:href="#path-5"></use>
        </mask>
        <rect id="path-7" x="3.04419066" y="-0.00059580867" width="1.48397044" height="7.44829348" rx="0.741985219"></rect>
        <mask id="mask-8" maskContentUnits="userSpaceOnUse" maskUnits="objectBoundingBox" x="0" y="0" width="1.48397044" height="7.44829348" fill="white">
            <use xlink:href="#path-7"></use>
        </mask>
        <rect id="path-9" x="2.36081308" y="-1.35269573e-12" width="1.18048939" height="5.81510979" rx="0.590244695"></rect>
        <mask id="mask-10" maskContentUnits="userSpaceOnUse" maskUnits="objectBoundingBox" x="0" y="0" width="1.18048939" height="5.81510979" fill="white">
            <use xlink:href="#path-9"></use>
        </mask>
        <rect id="path-11" x="2.36081308" y="-0.00777016236" width="1.18048939" height="5.81510979" rx="0.590244695"></rect>
        <mask id="mask-12" maskContentUnits="userSpaceOnUse" maskUnits="objectBoundingBox" x="0" y="0" width="1.18048939" height="5.81510979" fill="white">
            <use xlink:href="#path-11"></use>
        </mask>
        <rect id="path-13" x="2.36081308" y="-1.35269573e-12" width="1.18048939" height="5.81510979" rx="0.590244695"></rect>
        <mask id="mask-14" maskContentUnits="userSpaceOnUse" maskUnits="objectBoundingBox" x="0" y="0" width="1.18048939" height="5.81510979" fill="white">
            <use xlink:href="#path-13"></use>
        </mask>
        <rect id="path-15" x="2.36081308" y="-0.00777016236" width="1.18048939" height="5.81510979" rx="0.590244695"></rect>
        <mask id="mask-16" maskContentUnits="userSpaceOnUse" maskUnits="objectBoundingBox" x="0" y="0" width="1.18048939" height="5.81510979" fill="white">
            <use xlink:href="#path-15"></use>
        </mask>
        <rect id="path-17" x="3.04419066" y="-3.60289576e-12" width="1.48397044" height="7.44829348" rx="0.741985219"></rect>
        <mask id="mask-18" maskContentUnits="userSpaceOnUse" maskUnits="objectBoundingBox" x="0" y="0" width="1.48397044" height="7.44829348" fill="white">
            <use xlink:href="#path-17"></use>
        </mask>
        <rect id="path-19" x="3.04419066" y="-0.00059580867" width="1.48397044" height="7.44829348" rx="0.741985219"></rect>
        <mask id="mask-20" maskContentUnits="userSpaceOnUse" maskUnits="objectBoundingBox" x="0" y="0" width="1.48397044" height="7.44829348" fill="white">
            <use xlink:href="#path-19"></use>
        </mask>
        <rect id="path-21" x="2.36081308" y="-1.35269573e-12" width="1.18048939" height="5.81510979" rx="0.590244695"></rect>
        <mask id="mask-22" maskContentUnits="userSpaceOnUse" maskUnits="objectBoundingBox" x="0" y="0" width="1.18048939" height="5.81510979" fill="white">
            <use xlink:href="#path-21"></use>
        </mask>
        <rect id="path-23" x="2.36081308" y="-0.00777016236" width="1.18048939" height="5.81510979" rx="0.590244695"></rect>
        <mask id="mask-24" maskContentUnits="userSpaceOnUse" maskUnits="objectBoundingBox" x="0" y="0" width="1.18048939" height="5.81510979" fill="white">
            <use xlink:href="#path-23"></use>
        </mask>
        <rect id="path-25" x="3.04419066" y="-3.60289576e-12" width="1.48397044" height="7.44829348" rx="0.741985219"></rect>
        <mask id="mask-26" maskContentUnits="userSpaceOnUse" maskUnits="objectBoundingBox" x="0" y="0" width="1.48397044" height="7.44829348" fill="white">
            <use xlink:href="#path-25"></use>
        </mask>
        <rect id="path-27" x="3.04419066" y="-0.00059580867" width="1.48397044" height="7.44829348" rx="0.741985219"></rect>
        <mask id="mask-28" maskContentUnits="userSpaceOnUse" maskUnits="objectBoundingBox" x="0" y="0" width="1.48397044" height="7.44829348" fill="white">
            <use xlink:href="#path-27"></use>
        </mask>
        <rect id="path-29" x="2.36081308" y="-1.35269573e-12" width="1.18048939" height="5.81510979" rx="0.590244695"></rect>
        <mask id="mask-30" maskContentUnits="userSpaceOnUse" maskUnits="objectBoundingBox" x="0" y="0" width="1.18048939" height="5.81510979" fill="white">
            <use xlink:href="#path-29"></use>
        </mask>
        <rect id="path-31" x="2.36081308" y="-0.00777016236" width="1.18048939" height="5.81510979" rx="0.590244695"></rect>
        <mask id="mask-32" maskContentUnits="userSpaceOnUse" maskUnits="objectBoundingBox" x="0" y="0" width="1.18048939" height="5.81510979" fill="white">
            <use xlink:href="#path-31"></use>
        </mask>
        <rect id="path-33" x="3.04419066" y="-3.60289576e-12" width="1.48397044" height="7.44829348" rx="0.741985219"></rect>
        <mask id="mask-34" maskContentUnits="userSpaceOnUse" maskUnits="objectBoundingBox" x="0" y="0" width="1.48397044" height="7.44829348" fill="white">
            <use xlink:href="#path-33"></use>
        </mask>
        <rect id="path-35" x="3.04419066" y="-0.00059580867" width="1.48397044" height="7.44829348" rx="0.741985219"></rect>
        <mask id="mask-36" maskContentUnits="userSpaceOnUse" maskUnits="objectBoundingBox" x="0" y="0" width="1.48397044" height="7.44829348" fill="white">
            <use xlink:href="#path-35"></use>
        </mask>
        <rect id="path-37" x="2.36081308" y="-1.35269573e-12" width="1.18048939" height="5.81510979" rx="0.590244695"></rect>
        <mask id="mask-38" maskContentUnits="userSpaceOnUse" maskUnits="objectBoundingBox" x="0" y="0" width="1.18048939" height="5.81510979" fill="white">
            <use xlink:href="#path-37"></use>
        </mask>
        <rect id="path-39" x="2.36081308" y="-0.00777016236" width="1.18048939" height="5.81510979" rx="0.590244695"></rect>
        <mask id="mask-40" maskContentUnits="userSpaceOnUse" maskUnits="objectBoundingBox" x="0" y="0" width="1.18048939" height="5.81510979" fill="white">
            <use xlink:href="#path-39"></use>
        </mask>
        <rect id="path-41" x="0" y="0" width="108" height="54" rx="8"></rect>
        <mask id="mask-42" maskContentUnits="userSpaceOnUse" maskUnits="objectBoundingBox" x="0" y="0" width="108" height="54" fill="white">
            <use xlink:href="#path-41"></use>
        </mask>
        <rect id="path-43" x="-1.8189894e-12" y="0" width="108" height="54" rx="8"></rect>
        <mask id="mask-44" maskContentUnits="userSpaceOnUse" maskUnits="objectBoundingBox" x="0" y="0" width="108" height="54" fill="white">
            <use xlink:href="#path-43"></use>
        </mask>
        <rect id="path-45" x="-5.1159077e-13" y="-4.8316906e-13" width="96" height="59" rx="8"></rect>
        <mask id="mask-46" maskContentUnits="userSpaceOnUse" maskUnits="objectBoundingBox" x="0" y="0" width="96" height="59" fill="white">
            <use xlink:href="#path-45"></use>
        </mask>
        <rect id="path-47" x="-1.21147536e-12" y="9.9475983e-13" width="96" height="59" rx="8"></rect>
        <mask id="mask-48" maskContentUnits="userSpaceOnUse" maskUnits="objectBoundingBox" x="0" y="0" width="96" height="59" fill="white">
            <use xlink:href="#path-47"></use>
        </mask>
        <rect id="path-49" x="8.57980353e-13" y="6.38777919e-12" width="96" height="59" rx="8"></rect>
        <mask id="mask-50" maskContentUnits="userSpaceOnUse" maskUnits="objectBoundingBox" x="0" y="0" width="96" height="59" fill="white">
            <use xlink:href="#path-49"></use>
        </mask>
        <rect id="path-51" x="2.36081308" y="-1.35269573e-12" width="1.18048939" height="5.81510979" rx="0.590244695"></rect>
        <mask id="mask-52" maskContentUnits="userSpaceOnUse" maskUnits="objectBoundingBox" x="0" y="0" width="1.18048939" height="5.81510979" fill="white">
            <use xlink:href="#path-51"></use>
        </mask>
        <rect id="path-53" x="2.36081308" y="-0.00777016236" width="1.18048939" height="5.81510979" rx="0.590244695"></rect>
        <mask id="mask-54" maskContentUnits="userSpaceOnUse" maskUnits="objectBoundingBox" x="0" y="0" width="1.18048939" height="5.81510979" fill="white">
            <use xlink:href="#path-53"></use>
        </mask>
    </defs>
    <g id="Page-1" stroke="none" stroke-width="1" fill="none" fill-rule="evenodd">
        <g id="A4-Copy" transform="translate(-159.000000, -288.000000)">
            <g id="payment-option-copy" transform="translate(142.000000, 288.000000)">
                <g id="Group-172">
                    <g id="Group-171">
                        <g id="Group-168-Copy" transform="translate(237.000000, 241.000000)" fill="#4FF8F8">
                            <rect id="Rectangle-37" x="2" y="0" width="4" height="8" rx="2"></rect>
                            <rect id="Rectangle-37-Copy" transform="translate(4.000000, 4.000000) rotate(-90.000000) translate(-4.000000, -4.000000) " x="2" y="0" width="4" height="8" rx="2"></rect>
                        </g>
                        <g id="Group-168-Copy-2" transform="translate(233.000000, 42.000000)" fill="#51CBD4">
                            <rect id="Rectangle-37" x="2" y="0" width="4" height="8" rx="2"></rect>
                            <rect id="Rectangle-37-Copy" transform="translate(4.000000, 4.000000) rotate(-90.000000) translate(-4.000000, -4.000000) " x="2" y="0" width="4" height="8" rx="2"></rect>
                        </g>
                        <circle id="Oval-17" fill="#E07D7D" cx="93" cy="77" r="2"></circle>
                        <circle id="Oval-17-Copy" fill="#DDB6FF" cx="293" cy="87" r="3"></circle>
                        <circle id="Oval-17-Copy-2" fill="#94BADC" cx="276" cy="59" r="2"></circle>
                        <circle id="Oval-18" stroke="#84E69B" cx="282" cy="205" r="3"></circle>
                        <circle id="Oval-18-Copy" stroke="#F98282" cx="251" cy="63" r="2"></circle>
                        <circle id="Oval-18-Copy-2" stroke="#F98282" cx="268.5" cy="170.5" r="1.5"></circle>
                        <g id="Group-169" transform="translate(210.000000, 30.000000)" fill="#DF7171">
                            <rect id="Rectangle-100" x="2.88235294" y="0" width="1.23529412" height="7" rx="0.617647059"></rect>
                            <rect id="Rectangle-100-Copy" transform="translate(3.500000, 3.500000) rotate(-270.000000) translate(-3.500000, -3.500000) " x="2.88235294" y="0" width="1.23529412" height="7" rx="0.617647059"></rect>
                        </g>
                        <g id="Group-169-Copy" transform="translate(233.000000, 65.000000)" fill="#9BEBB3">
                            <rect id="Rectangle-100" x="1.64705882" y="0" width="0.705882353" height="4" rx="0.352941176"></rect>
                            <rect id="Rectangle-100-Copy" transform="translate(2.000000, 2.147059) rotate(-270.000000) translate(-2.000000, -2.147059) " x="1.5" y="0.147058824" width="0.705882353" height="4" rx="0.352941176"></rect>
                        </g>
                        <g id="Group-170" transform="translate(86.000000, 256.000000)" stroke="#EB8F4E" stroke-width="2" opacity="0.653859608" fill="#D8D8D8">
                            <g id="Group-75-Copy-6" transform="translate(0.945405, 0.938547)">
                                <use id="Rectangle-34" mask="url(#mask-2)" xlink:href="#path-1"></use>
                                <use id="Rectangle-34-Copy" mask="url(#mask-4)" transform="translate(4.602909, 4.350205) rotate(-90.000000) translate(-4.602909, -4.350205) " xlink:href="#path-3"></use>
                            </g>
                        </g>
                        <g id="Group-75-Copy-13" transform="translate(250.653408, 151.653408) rotate(-47.000000) translate(-250.653408, -151.653408) translate(246.653408, 147.653408)" stroke="#51CCD5" stroke-width="2" fill="#B7B7B7">
                            <use id="Rectangle-34" mask="url(#mask-6)" xlink:href="#path-5"></use>
                            <use id="Rectangle-34-Copy" mask="url(#mask-8)" transform="translate(3.786176, 3.723551) rotate(-90.000000) translate(-3.786176, -3.723551) " xlink:href="#path-7"></use>
                        </g>
                        <path d="M66.3602774,248.721686 C67.6638225,248.721686 68.7205547,247.664701 68.7205547,246.360843 C68.7205547,245.056985 67.6638225,244 66.3602774,244 C65.0567322,244 64,245.056985 64,246.360843 C64,247.664701 65.0567322,248.721686 66.3602774,248.721686 Z" id="Oval-8-Copy-19" stroke="#BE4242" stroke-width="0.7" opacity="0.653859608"></path>
                        <g id="Group-75-Copy-7" transform="translate(306.164691, 130.164691) rotate(-34.000000) translate(-306.164691, -130.164691) translate(303.164691, 127.164691)" stroke="#7AC0C5" stroke-width="2" fill="#D8D8D8">
                            <g id="Group-78" transform="translate(0.000000, -0.000000)">
                                <use id="Rectangle-34" mask="url(#mask-10)" xlink:href="#path-9"></use>
                                <use id="Rectangle-34-Copy" mask="url(#mask-12)" transform="translate(2.951058, 2.899785) rotate(-90.000000) translate(-2.951058, -2.899785) " xlink:href="#path-11"></use>
                            </g>
                        </g>
                        <g id="Group-75-Copy-11" transform="translate(35.164691, 212.164691) rotate(-34.000000) translate(-35.164691, -212.164691) translate(32.164691, 209.164691)" stroke="#7AC0C5" stroke-width="2" fill="#D8D8D8">
                            <g id="Group-78" transform="translate(0.000000, -0.000000)">
                                <use id="Rectangle-34" mask="url(#mask-14)" xlink:href="#path-13"></use>
                                <use id="Rectangle-34-Copy" mask="url(#mask-16)" transform="translate(2.951058, 2.899785) rotate(-90.000000) translate(-2.951058, -2.899785) " xlink:href="#path-15"></use>
                            </g>
                        </g>
                        <g id="Group-168" opacity="0.463969216" transform="translate(240.500000, 109.500000) rotate(-180.000000) translate(-240.500000, -109.500000) translate(190.000000, 0.000000)">
                            <g id="Group-168-Copy-4" transform="translate(27.000000, 211.000000)" fill="#4FF8F8">
                                <rect id="Rectangle-37" x="2" y="0" width="4" height="8" rx="2"></rect>
                                <rect id="Rectangle-37-Copy" transform="translate(4.000000, 4.000000) rotate(-90.000000) translate(-4.000000, -4.000000) " x="2" y="0" width="4" height="8" rx="2"></rect>
                            </g>
                            <g id="Group-168-Copy-3" transform="translate(23.000000, 12.000000)" fill="#51CBD4">
                                <rect id="Rectangle-37" x="2" y="0" width="4" height="8" rx="2"></rect>
                                <rect id="Rectangle-37-Copy" transform="translate(4.000000, 4.000000) rotate(-90.000000) translate(-4.000000, -4.000000) " x="2" y="0" width="4" height="8" rx="2"></rect>
                            </g>
                            <circle id="Oval-17-Copy-4" fill="#DDB6FF" cx="83" cy="57" r="3"></circle>
                            <ellipse id="Oval-17-Copy-3" fill="#94BADC" cx="66" cy="29" rx="2" ry="2"></ellipse>
                            <circle id="Oval-18-Copy-5" stroke="#84E69B" cx="72" cy="175" r="3"></circle>
                            <circle id="Oval-18-Copy-4" stroke="#F98282" cx="41" cy="33" r="2"></circle>
                            <circle id="Oval-18-Copy-3" stroke="#F98282" cx="58.5" cy="140.5" r="1.5"></circle>
                            <g id="Group-169-Copy-3" fill="#DF7171">
                                <rect id="Rectangle-100" x="2.88235294" y="0" width="1.23529412" height="7" rx="0.617647059"></rect>
                                <rect id="Rectangle-100-Copy" transform="translate(3.500000, 3.500000) rotate(-270.000000) translate(-3.500000, -3.500000) " x="2.88235294" y="0" width="1.23529412" height="7" rx="0.617647059"></rect>
                            </g>
                            <g id="Group-169-Copy-2" transform="translate(23.000000, 35.000000)" fill="#9BEBB3">
                                <rect id="Rectangle-100" x="1.64705882" y="0" width="0.705882353" height="4" rx="0.352941176"></rect>
                                <rect id="Rectangle-100-Copy" transform="translate(2.000000, 2.147059) rotate(-270.000000) translate(-2.000000, -2.147059) " x="1.5" y="0.147058824" width="0.705882353" height="4" rx="0.352941176"></rect>
                            </g>
                            <g id="Group-75-Copy-14" transform="translate(40.653408, 121.653408) rotate(-47.000000) translate(-40.653408, -121.653408) translate(36.653408, 117.653408)" stroke="#51CCD5" stroke-width="2" fill="#B7B7B7">
                                <use id="Rectangle-34" mask="url(#mask-18)" xlink:href="#path-17"></use>
                                <use id="Rectangle-34-Copy" mask="url(#mask-20)" transform="translate(3.786176, 3.723551) rotate(-90.000000) translate(-3.786176, -3.723551) " xlink:href="#path-19"></use>
                            </g>
                            <g id="Group-75-Copy-9" transform="translate(96.164691, 100.164691) rotate(-34.000000) translate(-96.164691, -100.164691) translate(93.164691, 97.164691)" stroke="#7AC0C5" stroke-width="2" fill="#D8D8D8">
                                <g id="Group-78" transform="translate(0.000000, -0.000000)">
                                    <use id="Rectangle-34" mask="url(#mask-22)" xlink:href="#path-21"></use>
                                    <use id="Rectangle-34-Copy" mask="url(#mask-24)" transform="translate(2.951058, 2.899785) rotate(-90.000000) translate(-2.951058, -2.899785) " xlink:href="#path-23"></use>
                                </g>
                            </g>
                        </g>
                        <g id="Group-168-Copy-6" opacity="0.463969216" transform="translate(104.449298, 121.067148) rotate(17.000000) translate(-104.449298, -121.067148) translate(55.449298, 20.067148)">
                            <g id="Group-168-Copy-4" transform="translate(24.000000, 194.000000)" fill="#4FF8F8">
                                <rect id="Rectangle-37" x="2" y="0" width="4" height="8" rx="2"></rect>
                                <rect id="Rectangle-37-Copy" transform="translate(4.000000, 4.000000) rotate(-90.000000) translate(-4.000000, -4.000000) " x="2" y="0" width="4" height="8" rx="2"></rect>
                            </g>
                            <circle id="Oval-17-Copy-4" fill="#DDB6FF" cx="80" cy="40" r="3"></circle>
                            <ellipse id="Oval-17-Copy-3" fill="#94BADC" cx="63" cy="12" rx="2" ry="2"></ellipse>
                            <circle id="Oval-18-Copy-5" stroke="#84E69B" cx="69" cy="158" r="3"></circle>
                            <ellipse id="Oval-18-Copy-4" stroke="#F98282" cx="34" cy="2" rx="2" ry="2"></ellipse>
                            <circle id="Oval-18-Copy-3" stroke="#F98282" cx="55.5" cy="123.5" r="1.5"></circle>
                            <g id="Group-169-Copy-2" fill="#9BEBB3">
                                <rect id="Rectangle-100" x="1.64705882" y="0" width="0.705882353" height="4" rx="0.352941176"></rect>
                                <rect id="Rectangle-100-Copy" transform="translate(2.000000, 2.147059) rotate(-270.000000) translate(-2.000000, -2.147059) " x="1.5" y="0.147058824" width="0.705882353" height="4" rx="0.352941176"></rect>
                            </g>
                            <g id="Group-75-Copy-14" transform="translate(37.653408, 104.653408) rotate(-47.000000) translate(-37.653408, -104.653408) translate(33.653408, 100.653408)" stroke="#51CCD5" stroke-width="2" fill="#B7B7B7">
                                <use id="Rectangle-34" mask="url(#mask-26)" xlink:href="#path-25"></use>
                                <use id="Rectangle-34-Copy" mask="url(#mask-28)" transform="translate(3.786176, 3.723551) rotate(-90.000000) translate(-3.786176, -3.723551) " xlink:href="#path-27"></use>
                            </g>
                            <g id="Group-75-Copy-9" transform="translate(93.164691, 83.164691) rotate(-34.000000) translate(-93.164691, -83.164691) translate(90.164691, 80.164691)" stroke="#7AC0C5" stroke-width="2" fill="#D8D8D8">
                                <g id="Group-78" transform="translate(0.000000, -0.000000)">
                                    <use id="Rectangle-34" mask="url(#mask-30)" xlink:href="#path-29"></use>
                                    <use id="Rectangle-34-Copy" mask="url(#mask-32)" transform="translate(2.951058, 2.899785) rotate(-90.000000) translate(-2.951058, -2.899785) " xlink:href="#path-31"></use>
                                </g>
                            </g>
                        </g>
                        <g id="Group-168-Copy-5" opacity="0.463969216" transform="translate(118.270516, 107.217843) rotate(-306.000000) translate(-118.270516, -107.217843) translate(67.770516, -2.282157)">
                            <g id="Group-168-Copy-4" transform="translate(27.000000, 211.000000)" fill="#4FF8F8">
                                <rect id="Rectangle-37" x="2" y="0" width="4" height="8" rx="2"></rect>
                                <rect id="Rectangle-37-Copy" transform="translate(4.000000, 4.000000) rotate(-90.000000) translate(-4.000000, -4.000000) " x="2" y="0" width="4" height="8" rx="2"></rect>
                            </g>
                            <g id="Group-168-Copy-3" transform="translate(23.000000, 12.000000)" fill="#51CBD4">
                                <rect id="Rectangle-37" x="2" y="0" width="4" height="8" rx="2"></rect>
                                <rect id="Rectangle-37-Copy" transform="translate(4.000000, 4.000000) rotate(-90.000000) translate(-4.000000, -4.000000) " x="2" y="0" width="4" height="8" rx="2"></rect>
                            </g>
                            <circle id="Oval-17-Copy-4" fill="#DDB6FF" cx="83" cy="57" r="3"></circle>
                            <circle id="Oval-17-Copy-3" fill="#94BADC" cx="66" cy="29" r="2"></circle>
                            <circle id="Oval-18-Copy-5" stroke="#84E69B" cx="72" cy="175" r="3"></circle>
                            <circle id="Oval-18-Copy-4" stroke="#F98282" cx="41" cy="33" r="2"></circle>
                            <circle id="Oval-18-Copy-3" stroke="#F98282" cx="58.5" cy="140.5" r="1.5"></circle>
                            <g id="Group-169-Copy-3" fill="#DF7171">
                                <rect id="Rectangle-100" x="2.88235294" y="0" width="1.23529412" height="7" rx="0.617647059"></rect>
                                <rect id="Rectangle-100-Copy" transform="translate(3.500000, 3.500000) rotate(-270.000000) translate(-3.500000, -3.500000) " x="2.88235294" y="0" width="1.23529412" height="7" rx="0.617647059"></rect>
                            </g>
                            <g id="Group-169-Copy-2" transform="translate(23.000000, 35.000000)" fill="#9BEBB3">
                                <rect id="Rectangle-100" x="1.64705882" y="0" width="0.705882353" height="4" rx="0.352941176"></rect>
                                <rect id="Rectangle-100-Copy" transform="translate(2.000000, 2.147059) rotate(-270.000000) translate(-2.000000, -2.147059) " x="1.5" y="0.147058824" width="0.705882353" height="4" rx="0.352941176"></rect>
                            </g>
                            <g id="Group-75-Copy-14" transform="translate(40.653408, 121.653408) rotate(-47.000000) translate(-40.653408, -121.653408) translate(36.653408, 117.653408)" stroke="#51CCD5" stroke-width="2" fill="#B7B7B7">
                                <use id="Rectangle-34" mask="url(#mask-34)" xlink:href="#path-33"></use>
                                <use id="Rectangle-34-Copy" mask="url(#mask-36)" transform="translate(3.786176, 3.723551) rotate(-90.000000) translate(-3.786176, -3.723551) " xlink:href="#path-35"></use>
                            </g>
                            <g id="Group-75-Copy-9" transform="translate(96.164691, 100.164691) rotate(-34.000000) translate(-96.164691, -100.164691) translate(93.164691, 97.164691)" stroke="#7AC0C5" stroke-width="2" fill="#D8D8D8">
                                <g id="Group-78" transform="translate(0.000000, -0.000000)">
                                    <use id="Rectangle-34" mask="url(#mask-38)" xlink:href="#path-37"></use>
                                    <use id="Rectangle-34-Copy" mask="url(#mask-40)" transform="translate(2.951058, 2.899785) rotate(-90.000000) translate(-2.951058, -2.899785) " xlink:href="#path-39"></use>
                                </g>
                            </g>
                        </g>
                        <g id="Group-167" transform="translate(13.000000, 46.000000)">
                            <g id="Group-164" transform="translate(222.568685, 67.806871) rotate(-10.000000) translate(-222.568685, -67.806871) translate(162.068685, 21.806871)">
                                <g id="Group-162" transform="translate(60.459200, 45.953112) rotate(-23.000000) translate(-60.459200, -45.953112) translate(6.459200, 18.953112)">
                                    <use id="Rectangle-95" stroke="#4C4F58" mask="url(#mask-42)" stroke-width="4" fill="#6ABDA0" xlink:href="#path-41"></use>
                                    <path d="M95,8 L13,8 C13,11.3137085 10.3137085,14 7,14 L7,39 C10.3137085,39 13,41.6862915 13,45 C13,45.3407122 12.9716012,45.6747915 12.9170416,46 L95.0829584,46 C95.0283988,45.6747915 95,45.3407122 95,45 C95,41.6862915 97.6862915,39 101,39 L101,14 C97.6862915,14 95,11.3137085 95,8 Z" id="Combined-Shape" fill="#9FD346"></path>
                                    <ellipse id="Oval-14" fill="#3D9274" cx="54" cy="27" rx="14" ry="14"></ellipse>
                                    <g id="noun_334079_cc-copy" transform="translate(46.000000, 17.000000)" fill="#FFFFFF">
                                        <g id="Group">
                                            <path d="M16.0909091,1.69451866 C16.0909091,1.08576886 15.5575752,0.629166491 14.9480514,0.629166491 L5.65281386,0.629166491 L1.23376621,0.629166491 C0.624242402,0.629166491 0.167099567,1.08576883 0.167099567,1.69451864 C0.167099567,2.30326845 0.62424242,2.56160529 1.23376622,2.56160529 L5.6528138,2.56160529 C8.01471854,2.56160529 9.4623373,3.48588798 9.99567062,4.39901269 L1.23376621,4.39901269 C0.624242402,4.39901269 0.167099567,4.90463126 0.167099567,5.51338106 C0.167099567,6.12213087 0.62424242,6.36629157 1.23376622,6.36629157 L9.99567091,6.36629157 C9.91948043,7.96425981 9.23376615,9.81977605 5.6528138,9.81977605 L1.23376622,9.81977605 C0.776623371,9.81977605 0.319480517,10.1241509 0.167099566,10.5046196 C0.0147186154,10.9611819 0.0909090909,11.4177443 0.395670993,11.7221192 L9.53852805,20.4436308 C9.76709948,20.671912 10.0718614,20.7480057 10.3766233,20.7480057 C10.6813852,20.7480057 10.5773201,20.671912 10.8058916,20.4436308 C11.2630344,19.9870685 11.2630344,19.3022249 10.8058916,18.8456626 L3.24167859,11.6928527 L5.24398686,11.6928524 C10.7297011,11.6928524 11.7963678,8.49691589 11.8725582,6.36629157 L14.9480518,6.36629157 C15.5575756,6.36629157 16.0909091,6.12213087 16.0909091,5.51338106 C16.0909091,4.90463126 15.5575752,4.39901269 14.9480514,4.39901269 L12.2813852,4.39901269 C12.1290043,3.86635661 11.6718614,3.01816764 11.290909,2.56160529 L14.9480518,2.56160529 C15.5575756,2.56160529 16.0909089,2.02894921 16.0909089,1.4201994 L16.0909091,1.69451866 Z" id="Shape"></path>
                                        </g>
                                    </g>
                                </g>
                                <g id="Group-162-Copy" transform="translate(59.556492, 54.365444) rotate(-11.000000) translate(-59.556492, -54.365444) translate(5.556492, 27.365444)">
                                    <use id="Rectangle-95" stroke="#4C4F58" mask="url(#mask-44)" stroke-width="4" fill="#6ABDA0" xlink:href="#path-43"></use>
                                    <path d="M95,8 L13,8 C13,11.3137085 10.3137085,14 7,14 L7,39 C10.3137085,39 13,41.6862915 13,45 C13,45.3407122 12.9716012,45.6747915 12.9170416,46 L95.0829584,46 C95.0283988,45.6747915 95,45.3407122 95,45 C95,41.6862915 97.6862915,39 101,39 L101,14 C97.6862915,14 95,11.3137085 95,8 Z" id="Combined-Shape" fill="#9FD346"></path>
                                    <ellipse id="Oval-14" fill="#3D9274" cx="54" cy="27" rx="14" ry="14"></ellipse>
                                    <g id="noun_334079_cc-copy" transform="translate(46.000000, 17.000000)" fill="#FFFFFF">
                                        <g id="Group">
                                            <path d="M16.0909091,1.69451866 C16.0909091,1.08576886 15.5575752,0.629166491 14.9480514,0.629166491 L5.65281386,0.629166491 L1.23376621,0.629166491 C0.624242402,0.629166491 0.167099567,1.08576883 0.167099567,1.69451864 C0.167099567,2.30326845 0.62424242,2.56160529 1.23376622,2.56160529 L5.6528138,2.56160529 C8.01471854,2.56160529 9.4623373,3.48588798 9.99567062,4.39901269 L1.23376621,4.39901269 C0.624242402,4.39901269 0.167099567,4.90463126 0.167099567,5.51338106 C0.167099567,6.12213087 0.62424242,6.36629157 1.23376622,6.36629157 L9.99567091,6.36629157 C9.91948043,7.96425981 9.23376615,9.81977605 5.6528138,9.81977605 L1.23376622,9.81977605 C0.776623371,9.81977605 0.319480517,10.1241509 0.167099566,10.5046196 C0.0147186154,10.9611819 0.0909090909,11.4177443 0.395670993,11.7221192 L9.53852805,20.4436308 C9.76709948,20.671912 10.0718614,20.7480057 10.3766233,20.7480057 C10.6813852,20.7480057 10.5773201,20.671912 10.8058916,20.4436308 C11.2630344,19.9870685 11.2630344,19.3022249 10.8058916,18.8456626 L3.24167859,11.6928527 L5.24398686,11.6928524 C10.7297011,11.6928524 11.7963678,8.49691589 11.8725582,6.36629157 L14.9480518,6.36629157 C15.5575756,6.36629157 16.0909091,6.12213087 16.0909091,5.51338106 C16.0909091,4.90463126 15.5575752,4.39901269 14.9480514,4.39901269 L12.2813852,4.39901269 C12.1290043,3.86635661 11.6718614,3.01816764 11.290909,2.56160529 L14.9480518,2.56160529 C15.5575756,2.56160529 16.0909089,2.02894921 16.0909089,1.4201994 L16.0909091,1.69451866 Z" id="Shape"></path>
                                        </g>
                                    </g>
                                </g>
                            </g>
                            <g id="Group-163" transform="translate(81.486530, 149.798068) rotate(-38.000000) translate(-81.486530, -149.798068) translate(33.486530, 120.298068)">
                                <use id="Rectangle-97" stroke="#4C4F58" mask="url(#mask-46)" stroke-width="4" fill="#77BCFF" xlink:href="#path-45"></use>
                                <path d="M50,43.1805325 C47.3462175,45.5557322 43.8417722,47 40,47 C31.7157288,47 25,40.2842712 25,32 C25,23.7157288 31.7157288,17 40,17 C43.8417722,17 47.3462175,18.4442678 50,20.8194675 C46.9312532,23.5660702 45,27.5575009 45,32 C45,36.4424991 46.9312532,40.4339298 50,43.1805325 Z" id="Combined-Shape" stroke="#CE0000" fill="#CE0000"></path>
                                <path d="M76,43.1805325 C73.3462175,45.5557322 69.8417722,47 66,47 C57.7157288,47 51,40.2842712 51,32 C51,23.7157288 57.7157288,17 66,17 C69.8417722,17 73.3462175,18.4442678 76,20.8194675 C72.9312532,23.5660702 71,27.5575009 71,32 C71,36.4424991 72.9312532,40.4339298 76,43.1805325 Z" id="Combined-Shape-Copy-7" stroke="#FF9B00" fill="#FF9B00" transform="translate(63.500000, 32.000000) scale(-1, 1) translate(-63.500000, -32.000000) "></path>
                                <path d="M37,32 L65,32" id="Line" stroke="#6B9B3A" stroke-width="2" stroke-linecap="square"></path>
                                <rect id="Rectangle-99" fill="#FFFFFF" x="2" y="8" width="90" height="6"></rect>
                            </g>
                            <g id="Group-165" transform="translate(213.721143, 139.564410) rotate(60.000000) translate(-213.721143, -139.564410) translate(158.221143, 94.564410)">
                                <g id="Group-163-Copy" transform="translate(55.383715, 44.742284) rotate(-21.000000) translate(-55.383715, -44.742284) translate(7.383715, 15.242284)">
                                    <use id="Rectangle-97" stroke="#4C4F58" mask="url(#mask-48)" stroke-width="4" fill="#F3DCFF" xlink:href="#path-47"></use>
                                    <rect id="Rectangle-99" fill="#625858" x="1.91903845" y="43.4669374" width="90.3913648" height="6"></rect>
                                </g>
                                <text id="XOXO" transform="translate(55.500000, 39.000000) rotate(-20.000000) translate(-55.500000, -39.000000) " font-family="Helvetica-Bold, Helvetica" font-size="18" font-weight="bold" fill="#FFFFFF">
                                    <tspan x="29" y="46">XOXO</tspan>
                                </text>
                            </g>
                            <g id="Group-166" transform="translate(84.460934, 80.608696) scale(-1, 1) rotate(-18.000000) translate(-84.460934, -80.608696) translate(15.960934, 18.108696)">
                                <g id="Group-165-Copy" transform="translate(68.721143, 62.564410) rotate(21.000000) translate(-68.721143, -62.564410) translate(13.221143, 17.564410)">
                                    <g id="Group-163-Copy" transform="translate(55.383715, 44.742284) rotate(-21.000000) translate(-55.383715, -44.742284) translate(7.383715, 15.242284)">
                                        <use id="Rectangle-97" stroke="#4C4F58" mask="url(#mask-50)" stroke-width="4" fill="#CFC8F6" xlink:href="#path-49"></use>
                                        <path d="M94.0670338,29.7007715 L42.2144947,57.1285059 L88.1423274,57.1285059 C88.1423274,57.1285059 93.9434986,56.8623926 94.1275807,50.7281153 C94.3116627,44.5938379 94.0670338,29.7007715 94.0670338,29.7007715 Z" id="Path-31" fill="#F6A623"></path>
                                    </g>
                                </g>
                                <rect id="Rectangle-99" fill="#504444" x="22.7049389" y="77.7821386" width="90.3913648" height="6"></rect>
                                <path d="M68.6983448,48.530322 L109.088344,48.530322 L109.088344,50.530322 C109.088344,50.530322 112.599921,50.530322 97.9660622,50.530322 L68.6983448,50.530322 L68.6983448,48.530322 Z" id="Rectangle-99-Copy" fill="#504444"></path>
                                <rect id="Rectangle-99-Copy-2" fill="#504444" x="68.6983448" y="42.530322" width="40.3899994" height="4"></rect>
                            </g>
                            <g id="Group-161" transform="translate(91.000000, 5.000000)">
                                <g id="Group-64-Copy-2">
                                    <path d="M24.1232929,0 C10.8187611,0 0,11.1160972 0,24.7800339 L0,185.811644 C0,199.47121 10.8187611,210.588181 24.1232929,210.588181 L97.1995013,210.588181 C110.498927,210.583811 121.318539,199.47121 121.318539,185.807273 L121.318539,24.7800339 C121.318539,11.1160972 110.498927,0 97.1995013,0 L24.1232929,0 Z" id="Fill-185" stroke="#4C4F58" stroke-width="4.3" fill="#FFEAC2"></path>
                                    <path d="M10.6519652,25 C9.72777933,25 8.98060146,25.6480048 8.98060146,26.4478743 L8.98060146,180.552863 C8.98060146,181.352732 9.73203433,182 10.6519652,182 L109.371352,182 C110.294687,182 111.041865,181.352732 111.041865,180.549177 L111.041865,26.4478743 C111.041865,25.6480048 110.294687,25 109.371352,25 L10.6519652,25 Z" id="Fill-186" fill="#7F6F51"></path>
                                    <path d="M51.6713637,18.3527489 L69.2853587,18.3527489 C70.2129485,18.3527489 70.9567224,17.6024775 70.9567224,16.6763745 C70.9567224,15.7502715 70.2086935,15 69.2853587,15 L51.6713637,15 C50.7480289,15 50,15.7502715 50,16.6763745 C50,17.6024775 50.7522839,18.3527489 51.6713637,18.3527489" id="Fill-187" fill="#155C61"></path>
                                    <path d="M60.6592696,6.89301981 C61.6498334,6.89301981 62.4523263,7.69791855 62.4523263,8.69145209 C62.4523263,9.68498563 61.6498334,10.4907379 60.6592696,10.4907379 C59.6687058,10.4907379 58.8653619,9.68498563 58.8653619,8.69145209 C58.8653619,7.69791855 59.6687058,6.89301981 60.6592696,6.89301981" id="Fill-188" fill="#155C61" opacity="0.664528918"></path>
                                    <path d="M46.0309757,16 C46.6002621,16 47.0619514,16.4630734 47.0619514,17.0340665 C47.0619514,17.6050597 46.6002621,18.0681331 46.0309757,18.0681331 C45.4616893,18.0681331 45,17.6050597 45,17.0340665 C45,16.4630734 45.4616893,16 46.0309757,16" id="Fill-189" fill="#155C61"></path>
                                </g>
                            </g>
                        </g>
                        <g id="Group-168-Copy-7" opacity="0.463969216" transform="translate(65.500000, 148.000000) rotate(-180.000000) translate(-65.500000, -148.000000) translate(31.000000, 49.000000)">
                            <g id="Group-168-Copy-4" transform="translate(19.000000, 190.000000)" fill="#4FF8F8">
                                <rect id="Rectangle-37" x="2" y="0" width="4" height="8" rx="2"></rect>
                                <rect id="Rectangle-37-Copy" transform="translate(4.000000, 4.000000) rotate(-90.000000) translate(-4.000000, -4.000000) " x="2" y="0" width="4" height="8" rx="2"></rect>
                            </g>
                            <circle id="Oval-17-Copy-3" fill="#94BADC" cx="60" cy="20" r="2"></circle>
                            <ellipse id="Oval-18-Copy-5" stroke="#84E69B" cx="66" cy="166" rx="3" ry="3"></ellipse>
                            <circle id="Oval-18-Copy-3" stroke="#F98282" cx="52.5" cy="131.5" r="1.5"></circle>
                            <g id="Group-169-Copy-3" fill="#DF7171">
                                <rect id="Rectangle-100" x="2.88235294" y="0" width="1.23529412" height="7" rx="0.617647059"></rect>
                                <rect id="Rectangle-100-Copy" transform="translate(3.500000, 3.500000) rotate(-270.000000) translate(-3.500000, -3.500000) " x="2.88235294" y="0" width="1.23529412" height="7" rx="0.617647059"></rect>
                            </g>
                            <g id="Group-75-Copy-9" transform="translate(56.664691, 78.253840) rotate(-34.000000) translate(-56.664691, -78.253840) translate(53.664691, 75.253840)" stroke="#7AC0C5" stroke-width="2" fill="#D8D8D8">
                                <g id="Group-78" transform="translate(0.000000, -0.000000)">
                                    <use id="Rectangle-34" mask="url(#mask-52)" xlink:href="#path-51"></use>
                                    <use id="Rectangle-34-Copy" mask="url(#mask-54)" transform="translate(2.951058, 2.899785) rotate(-90.000000) translate(-2.951058, -2.899785) " xlink:href="#path-53"></use>
                                </g>
                            </g>
                        </g>
                    </g>
                    <path d="M112.683594,252.94043 C107.698242,247.292969 106.46875,238.608398 106.46875,238.608398 L223.170645,238.608398 C223.170645,238.608398 221.286621,258.813477 202.357422,259.417969 C183.428223,260.022461 127.091227,259.417969 127.091227,259.417969 C127.091227,259.417969 117.668945,258.587891 112.683594,252.94043 Z" id="Path-32" fill="#FFC860"></path>
                    <path d="M156.822412,249.357144 C156.822412,245.443676 159.990634,242.258259 163.888568,242.258259 C167.789571,242.258259 170.96163,245.443676 170.96163,249.357144 C170.96163,253.266764 167.785735,256.448332 163.888568,256.448332 C159.990634,256.448332 156.822412,253.266764 156.822412,249.357144 Z" id="Fill-190" fill="#5A5E69"></path>
                </g>
            </g>
        </g>
    </g>
</svg>