<?xml version="1.0" encoding="UTF-8" standalone="no"?>
<svg width="172px" height="127px" viewBox="0 0 172 127" version="1.1" xmlns="http://www.w3.org/2000/svg" xmlns:xlink="http://www.w3.org/1999/xlink">
    <!-- Generator: Sketch 3.8.3 (29802) - http://www.bohemiancoding.com/sketch -->
    <title>Electronic item </title>
    <desc>Created with Sketch.</desc>
    <defs></defs>
    <g id="Page-1" stroke="none" stroke-width="1" fill="none" fill-rule="evenodd">
        <g id="A4-Copy" transform="translate(-211.000000, -358.000000)">
            <g id="Electronic-item-" transform="translate(213.000000, 359.000000)">
                <g id="Group-124">
                    <g id="Group-123" transform="translate(21.229064, 7.928475)">
                        <polygon id="Fill-1" fill="#F1C345" points="0.00598991306 77.0890323 126.932267 77.0890323 126.932267 0.533994137 0.00598991306 0.533994137"></polygon>
                        <polyline id="Fill-2" fill="#F1AA44" points="126.932267 0.533994137 126.932267 77.0890323 0.00598991306 77.0890323 126.932267 0.533994137"></polyline>
                    </g>
                    <path d="M22.3095591,81.0348816 L146.397104,81.0348816 L146.397104,7.57209336 L22.3095591,7.57209336 L22.3095591,81.0348816 Z M145.114302,0.704589724 L24.4779283,0.704589724 C20.2108788,0.704589724 16.7561857,3.93203137 16.7561857,7.89711805 L16.7561857,82.3170895 C16.7561857,86.2929376 20.2108788,89.5203792 24.4779283,89.5203792 L145.114302,89.5203792 C149.384256,89.5203792 152.834108,86.2929376 152.834108,82.3170895 L152.834108,7.89711805 C152.834108,3.93203137 149.384256,0.704589724 145.114302,0.704589724 L145.114302,0.704589724 Z" id="Fill-3" stroke="#4C4F58" stroke-width="3" fill="#E6E6E1"></path>
                    <path d="M0.966121527,109.138355 C0.966121527,109.138355 1.34757072,116.363937 13.8780127,116.363937 L70.9691533,116.363937 L97.7403954,116.363937 L154.834422,116.363937 C167.361978,116.363937 166.998098,109.138355 166.998098,109.138355 L0.966121527,109.138355 Z" id="Fill-6" stroke="#4C4F58" stroke-width="4" fill="#C3CAC7"></path>
                    <polygon id="Fill-7" fill="#E6E6E1" points="19.4275382 84.8157762 1.54861957 107.513409 168.76102 107.513409 149.279125 84.8157762"></polygon>
                    <polygon id="Fill-4" stroke="#4C4F58" stroke-width="3" fill="#F4F3F1" points="19.4275382 87.0087586 0.966121525 107.14454 2.56882229 109.147457 165.77638 109.147457 167.015245 107.14454 149.279125 87.0087586"></polygon>
                </g>
                <g id="Group-120" transform="translate(141.564935, 74.561404)">
                    <path d="M26.7185367,47.6949968 C26.7185367,48.849752 25.9234537,49.7887624 24.9448395,49.7887624 L1.89201938,49.7887624 C0.914060681,49.7887624 0.120288569,48.849752 0.120288569,47.6949968 L0.120288569,2.87008802 C0.120288569,1.71273343 0.914060681,0.775022769 1.89201938,0.775022769 L24.9448395,0.775022769 C25.9234537,0.775022769 26.7185367,1.71273343 26.7185367,2.87008802 L26.7185367,47.6949968" id="Fill-15" stroke="#4C4F58" stroke-width="3" fill="#E6E6E1"></path>
                    <polygon id="Fill-17" fill="#C7D736" points="1.99844381 42.9291128 24.7762579 42.9291128 24.7762575 2.74943302 1.99844381 2.74943302"></polygon>
                    <polygon id="Fill-18" fill="#D4DC33" points="2.15371595 2.73342467 2.15371595 42.9885597 24.8298416 2.73342467"></polygon>
                    <path d="M15.3700372,44.796282 C15.3700372,45.8630526 14.4964155,46.728627 13.4198532,46.728627 C12.3416631,46.728627 11.4707545,45.8630526 11.4707545,44.796282 C11.4707545,43.7289735 12.3416631,42.8623232 13.4198532,42.8623232 C14.4964155,42.8623232 15.3700372,43.7289735 15.3700372,44.796282" id="Fill-19" fill="#636462"></path>
                </g>
            </g>
        </g>
    </g>
</svg>