<?xml version="1.0" encoding="UTF-8" standalone="no"?>
<svg width="159px" height="140px" viewBox="0 0 159 140" version="1.1" xmlns="http://www.w3.org/2000/svg" xmlns:xlink="http://www.w3.org/1999/xlink">
    <!-- Generator: Sketch 3.8.3 (29802) - http://www.bohemiancoding.com/sketch -->
    <title>Food Delivery</title>
    <desc>Created with Sketch.</desc>
    <defs>
        <path d="M1.69970703,129.62294 L1.69970703,14.7285156 L67.9619141,14.7285156 L67.9619141,129.62294 C67.9619141,129.62294 67.3810673,134.459961 63.7631835,134.459961 L6.01562494,134.459961 C2.28317731,134.459961 1.69970703,129.62294 1.69970703,129.62294 Z" id="path-1"></path>
        <mask id="mask-2" maskContentUnits="userSpaceOnUse" maskUnits="objectBoundingBox" x="0" y="0" width="66.262207" height="119.731445" fill="white">
            <use xlink:href="#path-1"></use>
        </mask>
        <path d="M-4.26325641e-14,0.819325293 L104.75501,0.819325293 L104.75501,19.7211587 C104.75501,19.7211587 104.75501,23.66811 101.499421,23.6681097 C98.2438318,23.6681094 -4.26325641e-14,23.6681097 -4.26325641e-14,23.6681097 L-4.26325641e-14,0.819325293 Z" id="path-3"></path>
        <mask id="mask-4" maskContentUnits="userSpaceOnUse" maskUnits="objectBoundingBox" x="0" y="0" width="104.75501" height="22.8487844" fill="white">
            <use xlink:href="#path-3"></use>
        </mask>
        <path d="M0.014068766,2.96013788 C-0.0355283228,1.45272073 1.80285227,0.910657733 1.80285227,0.910657733 L33.2318259,0.910657733 C33.2318259,0.910657733 34.9314176,0.680123918 34.9314198,2.89333545 C34.931422,5.10654698 31.8914914,46.4424717 31.8914914,46.4424717 L3.30094151,46.4424717 C3.30094151,46.4424717 0.0636658549,4.46755504 0.014068766,2.96013788 Z" id="path-5"></path>
        <mask id="mask-6" maskContentUnits="userSpaceOnUse" maskUnits="objectBoundingBox" x="0" y="0" width="34.9183368" height="45.5386664" fill="white">
            <use xlink:href="#path-5"></use>
        </mask>
    </defs>
    <g id="Page-1" stroke="none" stroke-width="1" fill="none" fill-rule="evenodd">
        <g id="A4-Copy" transform="translate(-217.000000, -350.000000)">
            <g id="Food-Delivery" transform="translate(218.000000, 352.000000)">
                <g id="Group-2">
                    <g id="Group-115">
                        <g id="Group-113">
                            <use id="Rectangle-321" stroke="#14797E" mask="url(#mask-2)" stroke-width="6" fill="#29C4CD" xlink:href="#path-1"></use>
                            <path d="M51.5076581,2.18761423 C51.5076589,4.33444012 51.5076581,13.4649083 51.5076581,13.4649083 C51.5076581,13.4649083 58.4431069,13.4649083 63.8473485,13.4649083 C69.2515901,13.4649083 69.2515909,19.5185767 69.2515909,19.5185767 L69.2515909,129.428517 C69.2515909,129.428517 69.2515905,135.787418 63.9041817,135.787418 L6.23071679,135.787418 C0.57162265,135.787418 0.57162265,129.603227 0.57162265,129.603227 C0.57162265,129.603227 0.86821363,25.6952898 0.57162265,19.5800991 C0.275031669,13.4649083 6.26242375,13.4649083 6.26242375,13.4649083 L18.9272609,13.4649083 C18.9272609,13.4649083 18.927261,4.26713938 18.9272605,2.15396385 C18.9272601,0.0407883324 20.8359597,0.0407883324 20.8359597,0.0407883324 L49.6394895,0.0407883324 C49.6394895,0.0407883324 51.5076573,0.0407883324 51.5076581,2.18761423 Z" id="Path-890" stroke="#4C4F58" stroke-width="3"></path>
                            <path d="M42.6045822,74.4876526 C51.5908133,43.6292397 46.6892106,17.8112793 46.6892106,17.8112793 L65.0112321,17.8112793 L65.0112305,131.426025 L11.5888672,131.426025 C11.5888672,131.426025 33.618351,105.346065 42.6045822,74.4876526 Z" id="Path-891" fill="#1FAAB1"></path>
                            <path d="M1.8378072,50.8168237 L67.9988664,50.8168237" id="Line" stroke="#4C4F58" stroke-width="3" stroke-linecap="square"></path>
                            <path d="M1.8378072,100.937527 L67.9988664,100.937527" id="Line-Copy-5" stroke="#4C4F58" stroke-width="3" stroke-linecap="square"></path>
                        </g>
                        <g id="Group-114" transform="translate(46.934669, 72.396571)">
                            <g id="Group-112" transform="translate(6.141202, 41.767252)">
                                <use id="Rectangle-318" stroke="#4C4F58" mask="url(#mask-4)" stroke-width="6" fill="#C7E894" xlink:href="#path-3"></use>
                                <path d="M26.9945341,17.4144086 C26.115013,18.2127323 24.5332006,19.5467886 24.5332006,19.5467886 L100.703597,19.5651433 L100.722693,15.4122113 L29.2519501,15.2636738 C29.2519501,15.2636738 27.6879295,16.7850274 26.9945341,17.4144086 Z" id="Path-889" fill="#9BBE65"></path>
                            </g>
                            <g id="Group-111" transform="translate(34.402525, 0.000000)">
                                <use id="Rectangle-319" stroke="#4C4F58" mask="url(#mask-6)" stroke-width="6" fill="#92D9EE" xlink:href="#path-5"></use>
                                <path d="M21.9342725,24.6976752 C25.6153609,13.07436 22.5671674,5.0955674 22.5671674,5.0955674 L30.6245555,5.0955674 L28.024692,42.2769366 L11.6575741,42.2769366 C11.6575741,42.2769366 18.2531842,36.3209903 21.9342725,24.6976752 Z" id="Rectangle-319-Copy" fill="#7ECADD"></path>
                            </g>
                            <g id="Group-110" transform="translate(-0.000000, 25.060351)">
                                <path d="M1.73773285,8.90409296 C1.73773285,8.90409296 3.20812219,1.81508083 11.8442726,5.35958687 C11.8442726,5.35958687 14.6950274,-3.38951042 28.5396023,3.22907631 C28.5396023,3.22907631 35.5532777,-0.564918403 37.0693609,6.50098038 C37.0693609,6.50098038 42.7708706,0.696800678 47.2365985,5.46563654 C47.2365985,5.46563654 54.0286242,0.0312710548 56.918253,7.76269946 L52.9537942,16.8700543 L10.6344068,16.0236964 L1.73773285,8.90409296 Z" id="Path-887" stroke="#4C4F58" stroke-width="2" fill="#EEF7E1"></path>
                                <path d="M0.516955064,9.63488391 C0.516955064,9.63488391 -3.15697274,35.6524015 20.7927779,38.3709439 L38.9438354,38.3709439 C38.9438354,38.3709439 60.774274,35.5381942 57.9385231,9.3751982 L2.33652777,9.88097352 L0.516955064,9.63488391 Z" id="Path-886" stroke="#4C4F58" stroke-width="3" fill="#F2F861"></path>
                                <path d="M37.6780448,25.418269 C33.0834191,30.9994725 20.8839105,36.0355569 20.8839105,36.0355569 L38.9792985,36.2105219 C38.9792985,36.2105219 57.7420222,33.9432854 56.0128144,11.4729931 L42.9710372,11.5770034 C42.9710372,11.5770034 42.2726705,19.8370655 37.6780448,25.418269 Z" id="Path-886-Copy" fill="#CAD047"></path>
                            </g>
                        </g>
                    </g>
                    <g id="Group-157-Copy" transform="translate(13.000000, 32.000000)">
                        <g id="Group-99-Copy-3" stroke="#4C4F58" stroke-width="3" fill="#F5F5F5">
                            <ellipse id="Oval-83" cx="22.912037" cy="22.876506" rx="22.912037" ry="22.876506"></ellipse>
                        </g>
                        <g id="noun_41223_cc" transform="translate(14.000000, 2.000000)" fill="#4C4F58">
                            <path d="M8.99004766,6.68688694 C10.6486609,6.68688694 11.9934593,5.32850466 11.9934593,3.6531378 C11.9934593,1.97777094 10.6486609,0.619388663 8.99004766,0.619388663 C7.3310081,0.619388663 5.98663602,1.97777094 5.98663602,3.6531378 C5.98663602,5.32893534 7.3310081,6.68688694 8.99004766,6.68688694 L8.99004766,6.68688694 Z M16.8648361,16.5629377 L15.1375759,11.9373747 C14.5351028,9.69824043 12.4999972,8.03880893 10.0994851,8.03880893 L7.88018388,8.03880893 C6.00283841,8.03880893 4.34848901,9.05350413 3.42836375,10.5673639 C3.30428754,10.7396381 2.94186564,11.594549 2.88004072,11.8034315 L1.13444628,16.5633684 C0.269750248,18.6823414 1.88146178,20.06355 1.88146178,20.06355 C2.06565738,20.2444379 2.28055225,20.3714902 2.50781211,20.4528897 L2.50781211,23.1347688 C2.50781211,23.2962759 2.63785761,23.4276349 2.79774963,23.4276349 L4.62009224,23.4276349 L4.62009224,23.9814966 C4.62009224,23.9819273 4.62051862,23.9819273 4.620945,23.982358 L4.620945,37.6023583 C4.620945,38.6097319 5.38501565,39.3815204 6.32688623,39.3815204 C7.24146857,39.3815204 7.9859258,38.6540925 8.02899005,37.7410391 L8.02899005,25.7744406 C8.02899005,25.2477122 8.44470929,24.8200414 8.96233305,24.8053981 C8.971287,24.7976457 8.98024095,24.7933389 8.98919491,24.7933389 C8.99814886,24.7933389 9.00710281,24.7980764 9.01605676,24.8053981 C9.5341069,24.8200414 9.94939976,25.2472815 9.94939976,25.7744406 L9.94939976,37.798751 C10.0440558,38.7053441 10.7663414,39.3763522 11.6446815,39.3763522 C12.5869785,39.3763522 13.3506227,38.6045637 13.3506227,37.6527486 L13.3506227,23.9724522 C13.3506227,23.9608237 13.3493436,23.9487645 13.3489172,23.9362746 L13.3489172,23.4272043 L15.2215725,23.4272043 C15.3818909,23.4272043 15.5119364,23.2958452 15.5119364,23.1343381 L15.5119364,20.4468601 C15.7315215,20.3650299 15.9387415,20.238839 16.1173942,20.0631193 C16.1178206,20.0631193 17.7299585,18.6819107 16.8648361,16.5629377 L16.8648361,16.5629377 Z M9.40619329,11.1212255 L13.4832265,11.1212255 L14.7090653,13.2746534 L9.40619329,13.2746534 L9.40619329,11.1212255 L9.40619329,11.1212255 Z M4.53780115,11.1212255 L8.97981457,11.1212255 L8.97981457,13.2746534 L3.31196236,13.2746534 L4.53780115,11.1212255 L4.53780115,11.1212255 Z M14.9324878,16.6029914 L13.7876609,17.4708229 L13.7087809,17.5634203 C13.0252958,18.2352897 13.0103725,19.3399982 13.6759497,20.0303872 C14.0191846,20.3865642 14.4762625,20.5596998 14.9320614,20.5545315 L14.9320614,22.8419026 L3.08811353,22.8419026 L3.08811353,20.5558236 C3.53709032,20.5553929 3.98564072,20.3805346 4.32333266,20.0299565 C4.98848345,19.3395675 4.9735602,18.2352897 4.2905015,17.5629896 L4.21162144,17.4703922 L3.08811353,16.6184961 L3.08811353,13.9176669 L14.9324878,13.9176669 L14.9324878,16.6029914 L14.9324878,16.6029914 Z M12.5443406,21.5179751 L12.1533513,21.5179751 L12.1533513,19.3089889 L12.4961598,19.3089889 L11.8327145,18.2904175 L11.1816342,19.3089889 L11.5214581,19.3089889 L11.5214581,21.5179751 L10.4550849,21.5179751 L10.4550849,19.3089889 L10.7970406,19.3089889 L10.1344481,18.2904175 L9.48294145,19.3089889 L9.82361804,19.3089889 L9.82361804,21.5179751 L9.43476066,21.5179751 L9.43476066,21.8616622 L12.544767,21.8616622 L12.544767,21.5179751 L12.5443406,21.5179751 Z" id="Shape"></path>
                        </g>
                        <g id="noun_162332_cc" transform="translate(32.000000, 9.000000)" fill="#4C4F58">
                            <path d="M7.01388889,18.4021178 C6.66752401,18.4021178 6.34280693,18.269887 6.10468107,18.0274639 L0.432956104,12.0770785 C-0.108239026,11.5701938 -0.129886831,10.7106937 0.389660494,10.1597321 C0.887560014,9.60877049 1.73182442,9.58673202 2.27301955,10.1156552 L6.42939815,13.1349248 C6.66752401,13.3553094 7.03553669,13.3112325 7.23036694,13.0467709 L17.0801183,0.661153933 C17.5130744,0.0661153933 18.3573388,-0.0661153932 18.9418296,0.39669236 C19.5263203,0.837461648 19.6562071,1.69696176 19.2016032,2.2920003 L8.07463134,17.8511562 C7.83650549,18.1596947 7.4901406,18.3580409 7.12212791,18.3800793 C7.0788323,18.4021178 7.0571845,18.4021178 7.01388889,18.4021178 L7.01388889,18.4021178 Z" id="Shape"></path>
                        </g>
                    </g>
                </g>
            </g>
        </g>
    </g>
</svg>