<?xml version="1.0" encoding="UTF-8" standalone="no"?>
<svg width="9px" height="9px" viewBox="0 0 9 9" version="1.1" xmlns="http://www.w3.org/2000/svg" xmlns:xlink="http://www.w3.org/1999/xlink">
    <!-- Generator: Sketch 3.8.3 (29802) - http://www.bohemiancoding.com/sketch -->
    <title>Plus</title>
    <desc>Created with Sketch.</desc>
    <defs></defs>
    <g id="Page-1" stroke="none" stroke-width="1" fill="none" fill-rule="evenodd">
        <g id="Plus" fill="#F1723F">
            <g id="noun_509911_cc" transform="translate(0.000000, 3.750000)">
                <path d="M5.72058047,0.0147540984 L1.65514512,0.0147540984 L0.719525066,0.0147540984 C0.346701847,0.0147540984 -0.00949868074,0.354098361 0.00712401055,0.752459016 C0.0237467018,1.15327869 0.320580475,1.49016393 0.719525066,1.49016393 L3.26754617,1.49016393 L7.33298153,1.49016393 L8.26860158,1.49016393 C8.6414248,1.49016393 8.99762533,1.15081967 8.98100264,0.752459016 C8.96437995,0.354098361 8.66754617,0.0147540984 8.26860158,0.0147540984 L5.72058047,0.0147540984 Z" id="Shape"></path>
            </g>
            <g id="noun_509911_cc-copy" transform="translate(4.250000, 4.500000) rotate(-270.000000) translate(-4.250000, -4.500000) translate(-0.250000, 3.500000)">
                <path d="M5.72058047,0.0147540984 L1.65514512,0.0147540984 L0.719525066,0.0147540984 C0.346701847,0.0147540984 -0.00949868074,0.354098361 0.00712401055,0.752459016 C0.0237467018,1.15327869 0.320580475,1.49016393 0.719525066,1.49016393 L3.26754617,1.49016393 L7.33298153,1.49016393 L8.26860158,1.49016393 C8.6414248,1.49016393 8.99762533,1.15081967 8.98100264,0.752459016 C8.96437995,0.354098361 8.66754617,0.0147540984 8.26860158,0.0147540984 L5.72058047,0.0147540984 Z" id="Shape"></path>
            </g>
        </g>
    </g>
</svg>