<?xml version="1.0" encoding="UTF-8" standalone="no"?>
<svg width="164px" height="193px" viewBox="0 0 164 193" version="1.1" xmlns="http://www.w3.org/2000/svg" xmlns:xlink="http://www.w3.org/1999/xlink">
    <!-- Generator: Sketch 3.8.3 (29802) - http://www.bohemiancoding.com/sketch -->
    <title>Group 33</title>
    <desc>Created with Sketch.</desc>
    <defs></defs>
    <g id="Page-1" stroke="none" stroke-width="1" fill="none" fill-rule="evenodd">
        <g id="A4-Copy" transform="translate(-216.000000, -169.000000)">
            <g id="Group-33" transform="translate(218.000000, 171.000000)">
                <g id="Group-30-Copy">
                    <g id="Group-29">
                        <path d="M74.6667774,70 L74.6667767,172.78418 C74.6667767,172.78418 73.2956837,185.436523 61.1950977,182.93457 C49.0945117,180.432617 53.8337696,164.425781 53.8337696,164.425781 C53.8337696,164.425781 52.3923633,158.24707 47.5710743,163.144531 C47.5710743,163.144531 41.7839649,177.455078 52.4236133,185.150391 C63.0632618,192.845703 72.4216602,187.082031 72.4216602,187.082031 C72.4216602,187.082031 81.7165821,183.597656 81.9538868,172.78418 L81.9538879,70 L74.6667774,70 Z" id="Path-711" stroke="#4C4F58" stroke-width="3" fill="#C9C1B3"></path>
                        <path d="M83.3338021,3.33255207 C83.3338021,1.49158581 81.8422163,0 80.00125,0 C78.1602838,0 76.6686979,1.49158581 76.6686979,3.33255207 L76.6686979,13.4036469 C34.0311567,15.1514867 0,50.2670354 0,93.3364584 L0,94.0589697 C5.71290176,86.7932311 14.5802278,82.1350334 24.5341333,82.1350334 C36.6096345,82.1350334 47.0807356,88.9907655 52.2689417,99.0296723 C56.9712027,89.9279676 66.0191565,83.4434913 76.6686979,82.3106611 L83.3338021,82.3109736 C93.9833435,83.4438038 103.031297,89.9282801 107.733558,99.0299848 C112.919264,88.9907655 123.392866,82.1353459 135.468367,82.1353459 C145.42446,82.1353459 154.287098,86.7935436 160,94.0592822 L160,93.3367709 C160,50.2670354 125.971031,15.1514867 83.3338021,13.4036469 L83.3338021,3.33255207 Z" id="Shape" stroke="#4C4F58" stroke-width="3" fill="#FA5252"></path>
                        <path d="M143.2771,52.4619139 C148.881836,24.2731863 160.095524,15.6446151 158.446777,15.8349609 C142.649902,17.6586914 120.694765,30.1959996 109.790449,44.0703116 C93.1978779,65.182183 92.4973145,90.1127964 92.4973145,90.1127964 C95.950252,86.8341427 99.5225872,84.4897488 103.516724,82.9138162 C107.193304,81.463179 111.22054,80.6506382 115.991455,80.6506382 C121.008281,80.6506382 127.338629,82.2756076 132.12207,85.3779272 C138.852374,89.7428921 143.2771,96.0247772 143.2771,96.0247772 C143.2771,96.0247772 137.672363,80.6506415 143.2771,52.4619139 Z" id="Shape-Copy-4" fill="#EA4040" transform="translate(125.553916, 55.928335) scale(-1, 1) translate(-125.553916, -55.928335) "></path>
                        <path d="M52.2770996,52.4619139 C57.8818359,24.2731863 69.0955242,15.6446151 67.4467773,15.8349609 C51.6499023,17.6586914 29.7441594,29.4586949 18.8398438,43.3330069 C2.24727248,64.4448783 1.49731445,90.1127964 1.49731445,90.1127964 C4.95025199,86.8341427 8.52258723,84.4897488 12.5167236,82.9138162 C16.1933043,81.463179 20.2205404,80.6506382 24.9914551,80.6506382 C30.0082808,80.6506382 36.3386287,82.2756076 41.1220703,85.3779272 C47.8523743,89.7428921 52.2770996,96.0247772 52.2770996,96.0247772 C52.2770996,96.0247772 46.6723633,80.6506415 52.2770996,52.4619139 Z" id="Shape-Copy-3" fill="#D25959"></path>
                    </g>
                </g>
                <g id="Group-32" transform="translate(58.000000, 115.000000)">
                    <g id="Group-31">
                        <path d="M49.8317727,50.1958333 C49.8317727,51.2415123 49.1178447,52.0890432 48.2369659,52.0890432 L33.5869205,52.0890432 C32.7065076,52.0890432 31.9924242,51.2415123 31.9924242,50.1958333 C31.9924242,49.1501543 32.7065076,48.3024691 33.5869205,48.3024691 L48.2369659,48.3024691 C49.1178447,48.3024691 49.8317727,49.1501543 49.8317727,50.1958333" id="Fill-8" fill="#EFEDE9"></path>
                        <path d="M60.0615833,67.475463 C60.065,67.1407407 59.8318902,66.8597222 59.4026326,66.592284 C59.1136136,66.4223765 58.8746023,66.3064815 58.5953674,66.1941358 C49.2212765,61.5773148 48.6421515,57.0469136 48.4545455,52.7748457 C48.3916477,51.3455247 48.4241061,47.7478395 48.4435189,46.0882716 C51.7159091,44.95 53.9991742,43.0930556 54.4681894,40.9464506 C54.5270492,40.6765432 54.5585758,40.4021605 54.5585758,40.1239198 L27.2516439,40.1234568 C27.2516439,42.6146605 29.6822917,44.8070988 33.3668561,46.0884259 C33.3862689,47.7479938 33.4187273,51.3455247 33.3558295,52.7748457 C33.1683788,57.0466049 32.5887879,61.5770062 23.2159394,66.1936728 C22.935928,66.3064815 22.6964508,66.4223765 22.4933144,66.541358 C22.4591477,66.5572531 22.4276212,66.5736111 22.3931439,66.5895062 C21.9783295,66.8597222 21.745375,67.1407407 21.745375,67.4311728 L21.7424242,69.5416667 C21.8634053,71.3066358 30.394822,72.7291667 40.9083712,72.7291667 C51.4899432,72.7291667 60.0679508,71.2881173 60.0679508,69.5108025 C60.0679508,69.4901235 60.0615833,67.475463 60.0615833,67.475463 Z" id="Fill-9" stroke="#4C4F58" fill="#827B71"></path>
                        <path d="M45.2930491,53.2376543 C45.4806551,57.5098765 46.0599354,62.0401235 55.433871,66.6569444 C55.7132612,66.7694444 55.9521172,66.8853395 56.154943,67.003858 C56.189265,67.0199074 56.2211021,67.0361111 56.2557347,67.0524691 C56.6703938,67.3226852 56.9035036,67.6037037 56.9035036,67.8941358 C56.9035036,67.9092593 56.5855459,68.9845375 55.5984996,69.9123457 C54.6114534,70.8401538 54.8175148,70.9190673 53.1809315,71.3932957 C55.9973519,70.8329562 59.3397972,70.3662411 59.3397972,69.5755004 L59.3397972,67.468209 C59.3432139,67.1131164 58.6116816,66.8597222 58.1824241,66.5921296 C57.8934051,66.4223765 57.6545491,66.3064815 57.3751589,66.1939815 C46.8401421,61.654926 47.7934532,52.2762955 47.7934532,52.2762955 L47.7934532,48.4155861 C47.7934532,48.4155861 47.7867751,46.1887451 47.7934532,45.6259364 C51.0658433,44.4876648 53.3418996,43.1467607 53.81107,41.0001558 C53.8700852,40.7302484 52.0367799,40.4020062 52.0367799,40.1239198 L24.7301587,40.1234568 C24.7301587,40.2791667 24.7394769,40.4333333 24.7582686,40.5864198 L51.3970794,40.5864198 C51.3970794,40.8649691 51.3658635,41.1395062 51.3068483,41.4094136 C50.8376778,43.5560185 48.5534803,43.6409599 45.2810901,44.7792315 C45.2753439,45.2679661 45.2686659,45.9238303 45.2633856,46.6437377 L45.2810907,52.8935185 C45.283265,52.9804012 45.2877688,53.1179012 45.2930491,53.2376543 Z" id="Fill-10" fill="#D5D3CD"></path>
                        <path d="M21.909375,66.9753086 C21.7997311,67.1140432 21.7424242,67.2552469 21.7424242,67.3987654 C21.7424242,69.1760802 30.3205871,70.6171296 40.9021591,70.6171296 C51.4837311,70.6171296 60.0620492,69.1760802 60.0620492,67.3987654 C60.0620492,67.2552469 60.0045871,67.1140432 59.8950985,66.975463 C58.6554697,68.5516975 50.6250606,69.7683642 40.9021591,69.7683642 C31.1791023,69.7683642 23.1486932,68.5515432 21.909375,66.9753086 Z" id="Fill-11" fill="#4C4F58"></path>
                        <path d="M48.1955,52.1751277 C48.1955,52.1751277 47.9667386,52.2032809 47.5660568,52.2375824 C47.1655303,52.265412 46.5932386,52.3236599 45.9064886,52.359903 C45.2197386,52.4016473 44.4185303,52.4359489 43.5601705,52.459248 C43.1310682,52.4683088 42.6875227,52.4776932 42.2368333,52.4870776 C41.7861439,52.4909608 41.3284659,52.4945204 40.8704773,52.4984036 C40.4126439,52.494844 39.9549659,52.4909608 39.5042765,52.4877248 C39.0535871,52.4870776 38.6100417,52.4683088 38.1809394,52.4598952 C37.3225795,52.4372433 36.5213712,52.4026181 35.8346212,52.3608738 C35.1478712,52.3246307 34.5755795,52.2657356 34.175053,52.237906 C33.7743712,52.2036045 33.5454545,52.1751277 33.5454545,52.1751277 C33.5454545,52.1751277 33.7743712,52.1463274 34.175053,52.1120258 C34.5755795,52.0841963 35.1478712,52.0253012 35.8346212,51.989058 C36.5213712,51.9476373 37.3225795,51.9126886 38.1809394,51.8900366 C38.6100417,51.881623 39.0535871,51.8628542 39.5042765,51.8625306 C39.9549659,51.858971 40.4126439,51.8550878 40.8704773,51.8518519 C41.3284659,51.8554114 41.7861439,51.858971 42.2368333,51.8628542 C42.6875227,51.8722386 43.1310682,51.881623 43.5601705,51.8910074 C44.4185303,51.9139829 45.2197386,51.9482845 45.9064886,51.9900288 C46.5932386,52.0265956 47.1655303,52.0845199 47.5660568,52.1123494 C47.9667386,52.146651 48.1955,52.1751277 48.1955,52.1751277" id="Fill-12" fill="#4C4F58"></path>
                        <path d="M33.5454545,48.471424 C33.5454545,48.471424 33.7743712,48.4432709 34.175053,48.4089693 C34.5755795,48.3811398 35.1478712,48.3232155 35.8346212,48.2866487 C36.5213712,48.2449044 37.3225795,48.2102792 38.1809394,48.1876273 C38.6100417,48.1782429 39.0535871,48.1688585 39.5042765,48.1594741 C39.9549659,48.1559145 40.4126439,48.1520313 40.8704773,48.1481481 C41.3284659,48.1517077 41.7861439,48.1555909 42.2368333,48.1591505 C42.6875227,48.1594741 43.1310682,48.1782429 43.5601705,48.1866565 C44.4185303,48.2093084 45.2197386,48.2439336 45.9064886,48.2856779 C46.5932386,48.3219211 47.1655303,48.3808162 47.5660568,48.4086457 C47.9667386,48.4429473 48.1955,48.471424 48.1955,48.471424 C48.1955,48.471424 47.9667386,48.5002244 47.5660568,48.5345259 C47.1655303,48.5623555 46.5932386,48.6212506 45.9064886,48.6574937 C45.2197386,48.699238 44.4185303,48.7338632 43.5601705,48.7565151 C43.1310682,48.7649287 42.6875227,48.7836975 42.2368333,48.7840211 C41.7861439,48.7875807 41.3284659,48.7914639 40.8704773,48.7946999 C40.4126439,48.7911403 39.9549659,48.7872571 39.5042765,48.7836975 C39.0535871,48.7743131 38.6100417,48.7649287 38.1809394,48.7555443 C37.3225795,48.7328924 36.5213712,48.6982672 35.8346212,48.6565229 C35.1478712,48.6199562 34.5755795,48.5620319 34.175053,48.5342023 C33.7743712,48.4999008 33.5454545,48.471424 33.5454545,48.471424" id="Fill-13" fill="#4C4F58"></path>
                        <path d="M28.7310606,41.5123457 C28.8164773,41.629321 28.9149394,41.7350309 29.0088977,41.8427469 C29.1075152,41.9472222 29.2036477,42.0523148 29.3061477,42.1516975 C29.405697,42.2535494 29.5128561,42.3481481 29.6156667,42.445679 C29.7175455,42.5442901 29.8301402,42.6324074 29.9363674,42.7257716 C30.0425947,42.8192901 30.1558106,42.9054012 30.2648333,42.9953704 C30.3727689,43.0867284 30.4934394,43.1632716 30.6037045,43.2513889 C30.7142803,43.3393519 30.8315341,43.4188272 30.948322,43.4989198 C31.0652652,43.5787037 31.1798788,43.6609568 31.3003939,43.7358025 L31.6566591,43.9665123 C31.7770189,44.0410494 31.9012614,44.1097222 32.0234848,44.1816358 C32.1457083,44.2530864 32.2646705,44.3300926 32.3912424,44.3947531 L32.765678,44.5976852 C32.8894545,44.6674383 33.0191326,44.7260802 33.1450833,44.792284 L33.5263523,44.9850309 L33.9146098,45.1651235 L34.3030227,45.3476852 L34.4104924,45.3983025 L34.4072311,45.4893519 C34.4017955,45.641358 34.3912348,45.7935185 34.3833144,45.9450617 C34.3755492,46.0967593 34.3662311,46.2479938 34.3536515,46.3990741 C34.3437121,46.5501543 34.3314432,46.7007716 34.3089242,46.850463 C34.2907538,47.000463 34.2671477,47.1501543 34.2443182,47.299537 C34.228322,47.1487654 34.2110833,46.9983025 34.1997462,46.8484568 C34.1876326,46.6981481 34.1742765,46.5484568 34.1579697,46.399537 C34.1416629,46.250463 34.1284621,46.1018519 34.1169697,45.9532407 C34.105322,45.804784 34.0907235,45.6567901 34.0815606,45.5087963 L34.1856136,45.6503086 C33.9119697,45.5509259 33.6335114,45.4606481 33.3620417,45.3526235 L32.9594962,45.1787037 C32.825625,45.1195988 32.688803,45.0665123 32.560678,44.9953704 C32.3017879,44.858642 32.0362197,44.7337963 31.7864924,44.5791667 C31.6616288,44.5021605 31.5347462,44.4287037 31.4115909,44.3489198 L31.0469394,44.1024691 C30.9233182,44.0233025 30.8116553,43.9266975 30.6948674,43.837963 C30.5790114,43.7479938 30.4628447,43.6584877 30.3533561,43.5603395 C30.242625,43.4637346 30.1309621,43.3686728 30.027375,43.2643519 C29.9237879,43.1600309 29.8161629,43.0608025 29.7167689,42.9527778 C29.6206364,42.8415123 29.5190682,42.7362654 29.4283712,42.6208333 C29.3351894,42.507716 29.2446477,42.3929012 29.1621818,42.2716049 C28.9925909,42.0341049 28.8403939,41.7813272 28.7310606,41.5123457" id="Fill-14" fill="#FFFFFF"></path>
                        <path d="M34.3996212,52.9320988 C34.3996212,52.9320988 34.4131326,52.9987654 34.4317689,53.1253086 C34.45025,53.2515432 34.4783598,53.4375 34.4960644,53.6757716 C34.5173409,53.9140432 34.5319394,54.2041667 34.5355114,54.5378086 C34.5348902,54.871142 34.5316288,55.2487654 34.4945114,55.6589506 C34.481,55.8645062 34.4541326,56.0773148 34.431303,56.2986111 C34.3997765,56.5186728 34.3699583,56.7469136 34.3241439,56.9791667 C34.2446288,57.4459877 34.1270644,57.9330247 33.9815455,58.4304012 C33.8993902,58.6759259 33.8288826,58.9307099 33.7310417,59.1794753 C33.6847614,59.3049383 33.6380152,59.4310185 33.5911136,59.5578704 C33.5372235,59.6819444 33.4828674,59.8066358 33.4283561,59.9316358 C33.3244583,60.1844136 33.1919848,60.4265432 33.0717803,60.6756173 C32.9405492,60.9191358 32.8065227,61.162963 32.6636439,61.4013889 C32.509428,61.6328704 32.3687235,61.8733025 32.1995985,62.0933642 C32.1179091,62.2054012 32.036375,62.3169753 31.9549962,62.4283951 C31.8737727,62.5398148 31.7821439,62.6427469 31.696572,62.7496914 C31.609447,62.8552469 31.5226326,62.9604938 31.4361288,63.0651235 C31.342947,63.1638889 31.2500758,63.2618827 31.1576705,63.3594136 C31.064178,63.4555556 30.9765871,63.5561728 30.8798333,63.6467593 C30.7833902,63.7373457 30.6875682,63.8273148 30.5925227,63.916358 C30.4058485,64.0983025 30.2101667,64.2635802 30.0133977,64.4189815 C29.9158674,64.4973765 29.8194242,64.5748457 29.7240682,64.6513889 C29.6243636,64.7223765 29.5260568,64.7925926 29.4289924,64.8617284 C29.0492765,65.149537 28.6557386,65.370679 28.3022689,65.5847222 C28.1190114,65.6810185 27.9433636,65.7733025 27.7765682,65.8609568 C27.6927045,65.9035494 27.6108598,65.945216 27.5315,65.9856481 C27.4498106,66.0214506 27.3706061,66.0563272 27.2935758,66.0899691 C26.9854545,66.2229938 26.7220606,66.3472222 26.4925227,66.421142 C26.0396591,66.5822531 25.780303,66.6666667 25.780303,66.6666667 C25.780303,66.6666667 26.0200909,66.5319444 26.4406515,66.3097222 C26.6546591,66.2058642 26.8956894,66.0435185 27.1823788,65.8813272 C27.2535076,65.8395062 27.3266553,65.7966049 27.4022879,65.7523148 C27.4749697,65.7037037 27.5499811,65.6537037 27.6268561,65.6024691 C27.7809167,65.5015432 27.943053,65.3955247 28.112178,65.2848765 C28.2766439,65.1677469 28.44375,65.0401235 28.6184659,64.9117284 C28.7962879,64.7875 28.9677424,64.6429012 29.1455644,64.4972222 C29.234553,64.4243827 29.3247841,64.3507716 29.415947,64.2760802 C29.5024508,64.1962963 29.5903523,64.1155864 29.678875,64.0341049 C29.7669318,63.9518519 29.856697,63.8699074 29.9481705,63.7882716 C30.0399545,63.7067901 30.1225758,63.6140432 30.2114091,63.5265432 C30.2988447,63.4376543 30.3870568,63.3479938 30.4760455,63.257716 C30.5648788,63.1675926 30.6447045,63.0675926 30.7301212,62.9723765 C30.8144508,62.8759259 30.8992462,62.778858 30.9845076,62.6813272 C31.0655758,62.5804012 31.1467992,62.478858 31.2283333,62.3770062 C31.308625,62.2739198 31.3948182,62.1748457 31.4707614,62.0675926 C31.5467045,61.9604938 31.6229583,61.8527778 31.6995227,61.745216 C31.8583977,61.5339506 31.9880758,61.3018519 32.1334394,61.0802469 C32.2724356,60.8550926 32.4033561,60.6240741 32.5317917,60.3935185 C32.6495114,60.1570988 32.7796553,59.9277778 32.882,59.6871914 C33.105947,59.2151235 33.2933977,58.7348765 33.4617462,58.2651235 C33.6156515,57.7907407 33.7661402,57.3305556 33.8722121,56.8834877 C33.9835644,56.4378086 34.0728636,56.0117284 34.1421288,55.6151235 C34.2117045,55.2186728 34.2593826,54.8520062 34.2992955,54.5259259 C34.3312879,54.199537 34.3611061,53.9134259 34.3730644,53.6773148 C34.3864205,53.4410494 34.3968258,53.2544753 34.3985341,53.1273148 C34.4016402,53 34.3996212,52.9320988 34.3996212,52.9320988" id="Fill-15" fill="#FFFFFF"></path>
                        <path d="M81.9178447,36.3095679 C81.9178447,36.2993827 81.9209508,36.2895062 81.9209508,36.2796296 C81.9209508,36.2728395 81.9178447,36.2665123 81.9178447,36.2598765 L81.9178447,33.1790123 L0.00310606061,33.1790123 L0.00310606061,36.2598765 C0.00310606061,36.2665123 0,36.2728395 0,36.2796296 C0,36.2895062 0.00264015152,36.2993827 0.00310606061,36.3095679 L0.00310606061,36.3356481 L0.00574621212,36.3362654 C0.250348485,39.1166667 18.4908447,41.3621914 40.9602424,41.3621914 C63.4297955,41.3621914 81.6702917,39.1166667 81.9147386,36.3362654 L81.9178447,36.3356481 L81.9178447,36.3095679" id="Fill-16" stroke="#4C4F58" fill="#BDB8AB"></path>
                        <path d="M81.5395265,32.5617284 C81.2214659,32.8496914 80.7089659,33.1300926 80.0189545,33.4006173 C74.7754583,35.4575617 59.2718674,36.9487654 40.9602424,36.9487654 C22.6486174,36.9487654 7.14533712,35.4575617 1.90184091,33.4006173 C1.21198485,33.1300926 0.699484848,32.8496914 0.381268939,32.5617284 C0.131852273,32.7885802 0,33.0200617 0,33.2552469 C0,33.7901235 0.667492424,34.3055556 1.90184091,34.7895062 C7.14533712,36.8464506 22.6486174,38.3376543 40.9602424,38.3376543 C59.2718674,38.3376543 74.7754583,36.8464506 80.0189545,34.7895062 C81.253303,34.3055556 81.9209508,33.7901235 81.9209508,33.2552469 C81.9209508,33.0200617 81.7890985,32.7885802 81.5395265,32.5617284" id="Fill-17" fill="#727682"></path>
                        <path d="M40.8895795,36.8623457 C59.2012045,36.8623457 74.7047955,35.371142 79.9482917,33.3141975 C80.638303,33.0436728 81.150803,32.7632716 81.4688636,32.4753086 C78.7423636,29.9966049 61.6149242,28.0864198 40.8895795,28.0864198 C20.1643902,28.0864198 3.03710606,29.9966049 0.310606061,32.4753086 C0.62882197,32.7632716 1.14132197,33.0436728 1.83117803,33.3141975 C7.07467424,35.371142 22.5779545,36.8623457 40.8895795,36.8623457" id="Fill-18" stroke="#4C4F58" fill="#5B5953"></path>
                        <path d="M70.1215719,6.1470679 C71.906625,4.43780864 71.4259621,1.4712963 71.4259621,1.4712963 C70.4733333,1.9308642 69.8112765,2.43935185 69.3605871,2.95478395 C69.1242159,2.2507716 68.6870378,1.58209877 67.9290037,1.08024691 C67.9100568,1.12530864 67.7038144,1.60447531 67.6065947,2.43117284 C67.4997462,3.34058642 67.5258371,4.66867284 68.0818219,6.29783951 C68.0818219,6.29783951 67.1782689,7.75385802 67.7437272,10.8092593 C67.8041401,11.1350309 67.8807045,11.4785494 67.977303,11.8410494 C67.9939204,11.9435185 68.9881704,10.9209877 69.2678712,9.1654321 C69.912534,10.3787037 70.8850416,11.2027778 70.8850416,11.2027778 C72.1863257,8.4154321 71.096875,6.85432099 70.1215719,6.1470679" id="Fill-19" fill="#75BA4B"></path>
                        <path d="M62.8071301,1.18399531 C62.7827475,1.22026074 62.7496679,1.24989037 62.7134823,1.27118666 C62.7134823,1.27118666 62.6667361,1.29834716 62.5966944,1.30791506 C62.5268081,1.31948913 62.433471,1.31331629 62.3402891,1.28831629 C62.246952,1.26624839 62.1536149,1.22982864 62.0835732,1.19171135 C62.0135316,1.15544592 61.9669407,1.11686568 61.9669407,1.11686568 C61.9212816,1.07905703 61.9169331,1.01377926 61.9576225,0.971032342 C61.9604179,0.968254565 61.9639899,0.965013824 61.9669407,0.962544688 C61.9669407,0.962544688 62.0135316,0.923964441 62.0835732,0.887544688 C62.1536149,0.849427404 62.246952,0.813161972 62.3402891,0.791094071 C62.433471,0.76593975 62.5268081,0.75976691 62.5966944,0.771495305 C62.6667361,0.781063207 62.7134823,0.808223701 62.7134823,0.808223701 C62.8507702,0.88785333 62.892702,1.05606321 62.8071301,1.18399531 L62.8071301,1.18399531 Z M62.8071301,4.75266814 C62.7827475,4.78893358 62.7496679,4.81856321 62.7134823,4.8398595 C62.7134823,4.8398595 62.6667361,4.86702 62.5966944,4.8765879 C62.5268081,4.88816197 62.433471,4.88198913 62.3402891,4.85698913 C62.246952,4.83492123 62.1536149,4.79850148 62.0835732,4.76038419 C62.0135316,4.72411876 61.9669407,4.68553852 61.9669407,4.68553852 C61.9212816,4.64772987 61.9169331,4.5824521 61.9576225,4.53970518 C61.9604179,4.5369274 61.9639899,4.53368666 61.9669407,4.53121753 C61.9669407,4.53121753 62.0135316,4.49263728 62.0835732,4.45621753 C62.1536149,4.41810024 62.246952,4.38183481 62.3402891,4.35976691 C62.433471,4.33461259 62.5268081,4.32843975 62.5966944,4.34016814 C62.6667361,4.34973605 62.7134823,4.37689654 62.7134823,4.37689654 C62.8507702,4.45652617 62.892702,4.62473605 62.8071301,4.75266814 L62.8071301,4.75266814 Z M62.8071301,8.95791506 C62.7827475,8.99418049 62.7496679,9.02381012 62.7134823,9.04510642 C62.7134823,9.04510642 62.6667361,9.07226691 62.5966944,9.08183481 C62.5268081,9.09340889 62.433471,9.08723605 62.3402891,9.06223605 C62.246952,9.04016814 62.1536149,9.00374839 62.0835732,8.96563111 C62.0135316,8.92936568 61.9669407,8.89078543 61.9669407,8.89078543 C61.9212816,8.85297679 61.9169331,8.78769901 61.9576225,8.7449521 C61.9604179,8.74217432 61.9639899,8.73893358 61.9669407,8.73646444 C61.9669407,8.73646444 62.0135316,8.69788419 62.0835732,8.66146444 C62.1536149,8.62334716 62.246952,8.58708173 62.3402891,8.56501382 C62.433471,8.5398595 62.5268081,8.53368666 62.5966944,8.54541506 C62.6667361,8.55498296 62.7134823,8.58214345 62.7134823,8.58214345 C62.8507702,8.66177308 62.892702,8.82998296 62.8071301,8.95791506 L62.8071301,8.95791506 Z M62.8071301,12.3529768 C62.7827475,12.3892422 62.7496679,12.4188718 62.7134823,12.4401681 C62.7134823,12.4401681 62.6667361,12.4673286 62.5966944,12.4768965 C62.5268081,12.4884706 62.433471,12.4822978 62.3402891,12.4572978 C62.246952,12.4352299 62.1536149,12.3988101 62.0835732,12.3606928 C62.0135316,12.3244274 61.9669407,12.2858472 61.9669407,12.2858472 C61.9212816,12.2480385 61.9169331,12.1827607 61.9576225,12.1400138 C61.9604179,12.137236 61.9639899,12.1339953 61.9669407,12.1315262 C61.9669407,12.1315262 62.0135316,12.0929459 62.0835732,12.0565262 C62.1536149,12.0184089 62.246952,11.9821435 62.3402891,11.9600756 C62.433471,11.9349212 62.5268081,11.9287484 62.5966944,11.9404768 C62.6667361,11.9500447 62.7134823,11.9772052 62.7134823,11.9772052 C62.8507702,12.0568348 62.892702,12.2250447 62.8071301,12.3529768 L62.8071301,12.3529768 Z M60.5261944,3.11300765 C60.5019672,3.14927308 60.4688876,3.17890271 60.432702,3.20019901 C60.432702,3.20019901 60.3861111,3.2273595 60.3160694,3.2369274 C60.2460278,3.24850148 60.152846,3.24232864 60.0593535,3.21732864 C59.9661717,3.19526074 59.8728346,3.15884098 59.8027929,3.1207237 C59.7329066,3.08445827 59.6863157,3.04587802 59.6863157,3.04587802 C59.640346,3.00806938 59.6363081,2.9427916 59.6768422,2.90004469 C59.6797929,2.89726691 59.6830543,2.89402617 59.6863157,2.89155703 C59.6863157,2.89155703 59.7329066,2.85297679 59.8027929,2.81655703 C59.8728346,2.77843975 59.9661717,2.74217432 60.0593535,2.72010642 C60.152846,2.6949521 60.2460278,2.68877926 60.3160694,2.70050765 C60.3861111,2.71007555 60.432702,2.73723605 60.432702,2.73723605 C60.5699899,2.81686568 60.612077,2.98507555 60.5261944,3.11300765 L60.5261944,3.11300765 Z M60.5261944,6.79742123 C60.5019672,6.83368666 60.4688876,6.86331629 60.432702,6.88461259 C60.432702,6.88461259 60.3861111,6.91177308 60.3160694,6.92134098 C60.2460278,6.93291506 60.152846,6.92674222 60.0593535,6.90174222 C59.9661717,6.87967432 59.8728346,6.84325456 59.8027929,6.80513728 C59.7329066,6.76887185 59.6863157,6.7302916 59.6863157,6.7302916 C59.640346,6.69248296 59.6363081,6.62720518 59.6768422,6.58445827 C59.6797929,6.58168049 59.6830543,6.57843975 59.6863157,6.57597061 C59.6863157,6.57597061 59.7329066,6.53739037 59.8027929,6.50097061 C59.8728346,6.46285333 59.9661717,6.4265879 60.0593535,6.40452 C60.152846,6.37936568 60.2460278,6.37319284 60.3160694,6.38492123 C60.3861111,6.39448913 60.432702,6.42164963 60.432702,6.42164963 C60.5699899,6.50127926 60.612077,6.66948913 60.5261944,6.79742123 L60.5261944,6.79742123 Z M60.5261944,10.7133163 C60.5019672,10.7495817 60.4688876,10.7792114 60.432702,10.8005077 C60.432702,10.8005077 60.3861111,10.8276681 60.3160694,10.837236 C60.2460278,10.8488101 60.152846,10.8426373 60.0593535,10.8176373 C59.9661717,10.7955694 59.8728346,10.7591496 59.8027929,10.7210323 C59.7329066,10.6847669 59.6863157,10.6461867 59.6863157,10.6461867 C59.640346,10.608378 59.6363081,10.5431002 59.6768422,10.5003533 C59.6797929,10.4975756 59.6830543,10.4943348 59.6863157,10.4918657 C59.6863157,10.4918657 59.7329066,10.4532854 59.8027929,10.4168657 C59.8728346,10.3787484 59.9661717,10.342483 60.0593535,10.3204151 C60.152846,10.2952607 60.2460278,10.2890879 60.3160694,10.3008163 C60.3861111,10.3103842 60.432702,10.3375447 60.432702,10.3375447 C60.5699899,10.4171743 60.612077,10.5853842 60.5261944,10.7133163 L60.5261944,10.7133163 Z M58.6808838,4.75266814 C58.6566566,4.78893358 58.623577,4.81856321 58.5873914,4.8398595 C58.5873914,4.8398595 58.5406452,4.86702 58.4707588,4.8765879 C58.4007172,4.88816197 58.3073801,4.88198913 58.2140429,4.85698913 C58.1208611,4.83492123 58.027524,4.79850148 57.9574823,4.76038419 C57.887596,4.72411876 57.8408497,4.68553852 57.8408497,4.68553852 C57.7950354,4.64772987 57.7908422,4.5824521 57.8315316,4.53970518 C57.834327,4.5369274 57.837899,4.53368666 57.8408497,4.53121753 C57.8408497,4.53121753 57.887596,4.49263728 57.9574823,4.45621753 C58.027524,4.41810024 58.1208611,4.38183481 58.2140429,4.35976691 C58.3073801,4.33461259 58.4007172,4.32843975 58.4707588,4.34016814 C58.5406452,4.34973605 58.5873914,4.37689654 58.5873914,4.37689654 C58.7246793,4.45652617 58.7666111,4.62473605 58.6808838,4.75266814 L58.6808838,4.75266814 Z M58.6808838,8.95791506 C58.6566566,8.99418049 58.623577,9.02381012 58.5873914,9.04510642 C58.5873914,9.04510642 58.5406452,9.07226691 58.4707588,9.08183481 C58.4007172,9.09340889 58.3073801,9.08723605 58.2140429,9.06223605 C58.1208611,9.04016814 58.027524,9.00374839 57.9574823,8.96563111 C57.887596,8.92936568 57.8408497,8.89078543 57.8408497,8.89078543 C57.7950354,8.85297679 57.7908422,8.78769901 57.8315316,8.7449521 C57.834327,8.74217432 57.837899,8.73893358 57.8408497,8.73646444 C57.8408497,8.73646444 57.887596,8.69788419 57.9574823,8.66146444 C58.027524,8.62334716 58.1208611,8.58708173 58.2140429,8.56501382 C58.3073801,8.5398595 58.4007172,8.53368666 58.4707588,8.54541506 C58.5406452,8.55498296 58.5873914,8.58214345 58.5873914,8.58214345 C58.7246793,8.66177308 58.7666111,8.82998296 58.6808838,8.95791506 L58.6808838,8.95791506 Z M58.597952,11.7742731 C58.5737247,11.8105385 58.5406452,11.8401681 58.5044596,11.8614644 C58.5044596,11.8614644 58.4577134,11.8886249 58.387827,11.8981928 C58.3176301,11.9097669 58.2244482,11.9035941 58.1311111,11.8785941 C58.0379293,11.8565262 57.9445922,11.8201064 57.8745505,11.7819891 C57.8046641,11.7457237 57.7579179,11.7071435 57.7579179,11.7071435 C57.7121035,11.6693348 57.7079104,11.604057 57.7484444,11.5613101 C57.7515505,11.5585323 57.7548119,11.5552916 57.7579179,11.5528225 C57.7579179,11.5528225 57.8046641,11.5142422 57.8745505,11.4778225 C57.9445922,11.4397052 58.0379293,11.4034397 58.1311111,11.3813718 C58.2244482,11.3562175 58.3176301,11.3500447 58.387827,11.3617731 C58.4577134,11.371341 58.5044596,11.3985015 58.5044596,11.3985015 C58.6417475,11.4781311 58.6836793,11.646341 58.597952,11.7742731 L58.597952,11.7742731 Z M57.7484444,1.14464345 C57.7515505,1.14186568 57.7548119,1.13862494 57.7579179,1.1361558 C57.7579179,1.1361558 57.8046641,1.09757555 57.8745505,1.0611558 C57.9445922,1.02303852 58.0379293,0.986773083 58.1311111,0.964705182 C58.2244482,0.939550861 58.3176301,0.933378022 58.387827,0.945106417 C58.4577134,0.954674318 58.5044596,0.981834812 58.5044596,0.981834812 C58.6417475,1.06146444 58.6836793,1.22967432 58.597952,1.35760642 C58.5737247,1.39387185 58.5406452,1.42350148 58.5044596,1.44479777 C58.5044596,1.44479777 58.4577134,1.47195827 58.387827,1.48152617 C58.3176301,1.49310024 58.2244482,1.4869274 58.1311111,1.4619274 C58.0379293,1.4398595 57.9445922,1.40343975 57.8745505,1.36532247 C57.8046641,1.32905703 57.7579179,1.29047679 57.7579179,1.29047679 C57.7121035,1.25266814 57.7079104,1.18739037 57.7484444,1.14464345 L57.7484444,1.14464345 Z M56.6282437,3.11300765 C56.6038611,3.14927308 56.5707816,3.17890271 56.534596,3.20019901 C56.534596,3.20019901 56.4880051,3.2273595 56.4179634,3.2369274 C56.348077,3.24850148 56.2547399,3.24232864 56.1614028,3.21732864 C56.0680657,3.19526074 55.9747285,3.15884098 55.9048422,3.1207237 C55.8348005,3.08445827 55.7882096,3.04587802 55.7882096,3.04587802 C55.7422399,3.00806938 55.738202,2.9427916 55.7788914,2.90004469 C55.7816869,2.89726691 55.7851035,2.89402617 55.7882096,2.89155703 C55.7882096,2.89155703 55.8348005,2.85297679 55.9048422,2.81655703 C55.9747285,2.77843975 56.0680657,2.74217432 56.1614028,2.72010642 C56.2547399,2.6949521 56.348077,2.68877926 56.4179634,2.70050765 C56.4880051,2.71007555 56.534596,2.73723605 56.534596,2.73723605 C56.6720391,2.81686568 56.713971,2.98507555 56.6282437,3.11300765 L56.6282437,3.11300765 Z M56.6282437,6.79742123 C56.6038611,6.83368666 56.5707816,6.86331629 56.534596,6.88461259 C56.534596,6.88461259 56.4880051,6.91177308 56.4179634,6.92134098 C56.348077,6.93291506 56.2547399,6.92674222 56.1614028,6.90174222 C56.0680657,6.87967432 55.9747285,6.84325456 55.9048422,6.80513728 C55.8348005,6.76887185 55.7882096,6.7302916 55.7882096,6.7302916 C55.7422399,6.69248296 55.738202,6.62720518 55.7788914,6.58445827 C55.7816869,6.58168049 55.7851035,6.57843975 55.7882096,6.57597061 C55.7882096,6.57597061 55.8348005,6.53739037 55.9048422,6.50097061 C55.9747285,6.46285333 56.0680657,6.4265879 56.1614028,6.40452 C56.2547399,6.37936568 56.348077,6.37319284 56.4179634,6.38492123 C56.4880051,6.39448913 56.534596,6.42164963 56.534596,6.42164963 C56.6720391,6.50127926 56.713971,6.66948913 56.6282437,6.79742123 L56.6282437,6.79742123 Z M56.6282437,10.7133163 C56.6038611,10.7495817 56.5707816,10.7792114 56.534596,10.8005077 C56.534596,10.8005077 56.4880051,10.8276681 56.4179634,10.837236 C56.348077,10.8488101 56.2547399,10.8426373 56.1614028,10.8176373 C56.0680657,10.7955694 55.9747285,10.7591496 55.9048422,10.7210323 C55.8348005,10.6847669 55.7882096,10.6461867 55.7882096,10.6461867 C55.7422399,10.608378 55.738202,10.5431002 55.7788914,10.5003533 C55.7816869,10.4975756 55.7851035,10.4943348 55.7882096,10.4918657 C55.7882096,10.4918657 55.8348005,10.4532854 55.9048422,10.4168657 C55.9747285,10.3787484 56.0680657,10.342483 56.1614028,10.3204151 C56.2547399,10.2952607 56.348077,10.2890879 56.4179634,10.3008163 C56.4880051,10.3103842 56.534596,10.3375447 56.534596,10.3375447 C56.6720391,10.4171743 56.713971,10.5853842 56.6282437,10.7133163 L56.6282437,10.7133163 Z M54.7829331,4.75266814 C54.7585505,4.78893358 54.7256263,4.81856321 54.6892854,4.8398595 C54.6892854,4.8398595 54.6425391,4.86702 54.5726528,4.8765879 C54.5026111,4.88816197 54.409274,4.88198913 54.3160922,4.85698913 C54.2227551,4.83492123 54.1295732,4.79850148 54.0593763,4.76038419 C53.9894899,4.72411876 53.9427437,4.68553852 53.9427437,4.68553852 C53.8970846,4.64772987 53.8927361,4.5824521 53.9334255,4.53970518 C53.9363763,4.5369274 53.9397929,4.53368666 53.9427437,4.53121753 C53.9427437,4.53121753 53.9894899,4.49263728 54.0593763,4.45621753 C54.1295732,4.41810024 54.2227551,4.38183481 54.3160922,4.35976691 C54.409274,4.33461259 54.5026111,4.32843975 54.5726528,4.34016814 C54.6425391,4.34973605 54.6892854,4.37689654 54.6892854,4.37689654 C54.8267285,4.45652617 54.8685051,4.62473605 54.7829331,4.75266814 L54.7829331,4.75266814 Z M54.7829331,8.95791506 C54.7585505,8.99418049 54.7256263,9.02381012 54.6892854,9.04510642 C54.6892854,9.04510642 54.6425391,9.07226691 54.5726528,9.08183481 C54.5026111,9.09340889 54.409274,9.08723605 54.3160922,9.06223605 C54.2227551,9.04016814 54.1295732,9.00374839 54.0593763,8.96563111 C53.9894899,8.92936568 53.9427437,8.89078543 53.9427437,8.89078543 C53.8970846,8.85297679 53.8927361,8.78769901 53.9334255,8.7449521 C53.9363763,8.74217432 53.9397929,8.73893358 53.9427437,8.73646444 C53.9427437,8.73646444 53.9894899,8.69788419 54.0593763,8.66146444 C54.1295732,8.62334716 54.2227551,8.58708173 54.3160922,8.56501382 C54.409274,8.5398595 54.5026111,8.53368666 54.5726528,8.54541506 C54.6425391,8.55498296 54.6892854,8.58214345 54.6892854,8.58214345 C54.8267285,8.66177308 54.8685051,8.82998296 54.7829331,8.95791506 L54.7829331,8.95791506 Z M63.8029331,6.58445827 C63.8058838,6.58168049 63.8093005,6.57843975 63.8122513,6.57597061 C63.8122513,6.57597061 63.8589975,6.53739037 63.9288838,6.50097061 C63.9989255,6.46285333 64.0922626,6.4265879 64.1855997,6.40452 C64.2787816,6.37936568 64.3721187,6.37319284 64.4421604,6.38492123 C64.5120467,6.39448913 64.5587929,6.42164963 64.5587929,6.42164963 C64.6962361,6.50127926 64.7380126,6.66948913 64.6522854,6.79742123 C64.6280581,6.83368666 64.5949785,6.86331629 64.5587929,6.88461259 C64.5587929,6.88461259 64.5120467,6.91177308 64.4421604,6.92134098 C64.3721187,6.93291506 64.2787816,6.92674222 64.1855997,6.90174222 C64.0922626,6.87967432 63.9989255,6.84325456 63.9288838,6.80513728 C63.8589975,6.76887185 63.8122513,6.7302916 63.8122513,6.7302916 C63.7664369,6.69248296 63.7622437,6.62720518 63.8029331,6.58445827 L63.8029331,6.58445827 Z M63.8029331,2.90004469 C63.8058838,2.89726691 63.8093005,2.89402617 63.8122513,2.89155703 C63.8122513,2.89155703 63.8589975,2.85297679 63.9288838,2.81655703 C63.9989255,2.77843975 64.0922626,2.74217432 64.1855997,2.72010642 C64.2787816,2.6949521 64.3721187,2.68877926 64.4421604,2.70050765 C64.5120467,2.71007555 64.5587929,2.73723605 64.5587929,2.73723605 C64.6962361,2.81686568 64.7380126,2.98507555 64.6522854,3.11300765 C64.6280581,3.14927308 64.5949785,3.17890271 64.5587929,3.20019901 C64.5587929,3.20019901 64.5120467,3.2273595 64.4421604,3.2369274 C64.3721187,3.24850148 64.2787816,3.24232864 64.1855997,3.21732864 C64.0922626,3.19526074 63.9989255,3.15884098 63.9288838,3.1207237 C63.8589975,3.08445827 63.8122513,3.04587802 63.8122513,3.04587802 C63.7664369,3.00806938 63.7622437,2.9427916 63.8029331,2.90004469 L63.8029331,2.90004469 Z M64.1855997,10.8176373 C64.0922626,10.7955694 63.9989255,10.7591496 63.9288838,10.7210323 C63.8589975,10.6847669 63.8122513,10.6461867 63.8122513,10.6461867 C63.7664369,10.608378 63.7622437,10.5431002 63.8029331,10.5003533 C63.8058838,10.4975756 63.8093005,10.4943348 63.8122513,10.4918657 C63.8122513,10.4918657 63.8589975,10.4532854 63.9288838,10.4168657 C63.9989255,10.3787484 64.0922626,10.342483 64.1855997,10.3204151 C64.254399,10.3018965 64.3200922,10.2971126 64.3795732,10.2986558 C64.8420657,7.44510642 65.1313952,4.30914963 65.2169672,0.863779256 C64.6533725,0.614859503 64.0389937,0.404211355 63.3930884,0.25976691 C62.4774217,0.0505076511 61.500721,-0.0368380279 60.5241755,0.014242219 C59.5473194,0.0560632067 58.570774,0.25189654 57.6551073,0.591557034 C56.7394407,0.930137281 55.8848081,1.41131012 55.152399,1.94911876 C54.9692967,2.0832237 54.7938043,2.22118666 54.6268535,2.35806938 C54.4600581,2.50405703 54.301649,2.6427916 54.1527134,2.77272987 C54.0040884,2.91840889 53.8647816,3.04649531 53.7358801,3.17890271 C53.6071338,3.31732864 53.4887929,3.43229777 53.3822551,3.55776074 C53.1684028,3.79788419 53.0005202,4.00343975 52.8862172,4.15714345 C52.8290657,4.22998296 52.7851149,4.2949521 52.755452,4.33600148 C52.7260997,4.37782247 52.7105694,4.39927308 52.7105694,4.39927308 C51.8127626,5.66516814 51.7843422,7.56038419 52.7105694,8.86840889 C52.7105694,8.86840889 52.7260997,8.89016814 52.755452,8.93168049 C52.7851149,8.97303852 52.8290657,9.03769901 52.8862172,9.11084716 C53.0005202,9.26439654 53.1684028,9.46979777 53.3822551,9.70992123 C53.4887929,9.83538419 53.6071338,9.95066197 53.7358801,10.0889336 C53.8647816,10.221341 54.0040884,10.3495817 54.1527134,10.4947978 C54.301649,10.625199 54.4600581,10.7637793 54.6268535,10.9096126 C54.7938043,11.0468039 54.9692967,11.1846126 55.152399,11.3187175 C55.8848081,11.8565262 56.7394407,12.337699 57.6551073,12.6765879 C58.570774,13.0159397 59.5473194,13.2117731 60.5241755,13.2535941 C61.500721,13.30452 62.4774217,13.2173286 63.3930884,13.0080694 C63.5643876,12.9697978 63.7327361,12.9255077 63.899221,12.8785941 C64.0399255,12.2140879 64.1716225,11.5346126 64.2916717,10.8358472 C64.2568838,10.8318348 64.2216301,10.8273595 64.1855997,10.8176373 L64.1855997,10.8176373 Z" id="Fill-20" fill="#DF4843"></path>
                        <path d="M66.2830227,4.81481481 C66.2584848,4.85108025 66.2257159,4.88070988 66.1892197,4.90200617 C66.1892197,4.90200617 66.1426288,4.92916667 66.0725871,4.93873457 C66.0027008,4.95030864 65.9093636,4.9441358 65.8160265,4.9191358 C65.7226894,4.8970679 65.6295076,4.86064815 65.5594659,4.82253086 C65.4894242,4.78626543 65.4429886,4.74768519 65.4429886,4.74768519 C65.3970189,4.70987654 65.3928258,4.64459877 65.4335152,4.60185185 C65.4364659,4.59907407 65.4397273,4.59583333 65.4429886,4.5933642 C65.4429886,4.5933642 65.4894242,4.55478395 65.5594659,4.5183642 C65.6295076,4.48024691 65.7226894,4.44398148 65.8160265,4.42191358 C65.9093636,4.39675926 66.0027008,4.39058642 66.0725871,4.40231481 C66.1426288,4.41188272 66.1892197,4.43904321 66.1892197,4.43904321 C66.3266629,4.51867284 66.3685947,4.68688272 66.2830227,4.81481481 L66.2830227,4.81481481 Z M66.2830227,9.02006173 C66.2584848,9.05632716 66.2257159,9.08595679 66.1892197,9.10725309 C66.1892197,9.10725309 66.1426288,9.13441358 66.0725871,9.14398148 C66.0027008,9.15555556 65.9093636,9.14938272 65.8160265,9.12438272 C65.7226894,9.10231481 65.6295076,9.06589506 65.5594659,9.02777778 C65.4894242,8.99151235 65.4429886,8.9529321 65.4429886,8.9529321 C65.3970189,8.91512346 65.3928258,8.84984568 65.4335152,8.80709877 C65.4364659,8.80432099 65.4397273,8.80108025 65.4429886,8.79861111 C65.4429886,8.79861111 65.4894242,8.76003086 65.5594659,8.72361111 C65.6295076,8.68549383 65.7226894,8.6492284 65.8160265,8.62716049 C65.9093636,8.60200617 66.0027008,8.59583333 66.0725871,8.60756173 C66.1426288,8.61712963 66.1892197,8.64429012 66.1892197,8.64429012 C66.3266629,8.72391975 66.3685947,8.89212963 66.2830227,9.02006173 L66.2830227,9.02006173 Z M68.0494394,6.31419753 C67.4934545,4.68503086 67.4673636,3.35694444 67.5742121,2.44753086 C67.4729545,2.35848765 67.363,2.26867284 67.2426402,2.17716049 C67.1137386,2.0720679 66.9745871,1.97376543 66.8259621,1.87067901 C66.5282462,1.65679012 66.1926364,1.45262346 65.8262765,1.25555556 C65.6105606,1.13981481 65.3828864,1.02993827 65.1472917,0.925925926 C65.0617197,4.3712963 64.7723902,7.50725309 64.3098977,10.3608025 C64.3308636,10.3614198 64.3541591,10.3598765 64.3724848,10.362963 C64.4423712,10.3725309 64.4891174,10.3996914 64.4891174,10.3996914 C64.6265606,10.479321 64.6683371,10.6475309 64.5826098,10.775463 C64.5583826,10.8117284 64.525303,10.841358 64.4891174,10.8626543 C64.4891174,10.8626543 64.4423712,10.8898148 64.3724848,10.8993827 C64.3296212,10.9064815 64.2771288,10.9044753 64.2219962,10.8979938 C64.101947,11.5967593 63.97025,12.2762346 63.8295455,12.9407407 C64.5537235,12.7364198 65.2306894,12.4560185 65.8262765,12.1365741 C66.1926364,11.9393519 66.5282462,11.7354938 66.8259621,11.5214506 C66.9745871,11.4182099 67.1137386,11.3200617 67.2426402,11.2151235 C67.3713864,11.116821 67.489572,11.020679 67.5965758,10.9257716 C67.6369545,10.8915123 67.6742273,10.8584877 67.7113447,10.8256173 C67.1458864,7.77021605 68.0494394,6.31419753 68.0494394,6.31419753 L68.0494394,6.31419753 Z" id="Fill-21" fill="#CB4242"></path>
                        <path d="M63.8281707,3.28053164 C63.8982123,3.32552279 63.9915495,3.3685103 64.0848866,3.39455781 C64.1780684,3.42406618 64.2714055,3.4313522 64.3414472,3.41769092 C64.4113335,3.40639759 64.4580798,3.37433911 64.4580798,3.37433911 C64.4942654,3.34920235 64.5273449,3.31422947 64.5515722,3.27142411 C64.6372995,3.1204214 64.5955229,2.92187742 64.4580798,2.82788779 C64.4580798,2.82788779 64.4113335,2.79582931 64.3414472,2.78453598 C64.2714055,2.77069255 64.1780684,2.77797857 64.0848866,2.80766909 C63.9915495,2.8337166 63.8982123,2.87652196 63.8281707,2.92151312 C63.7582843,2.96450062 63.7115381,3.01003823 63.7115381,3.01003823 C63.7085873,3.01295264 63.7051707,3.0167778 63.7022199,3.0200565 C63.6615305,3.07051218 63.6657237,3.14756181 63.7115381,3.19218867 C63.7115381,3.19218867 63.7582843,3.23772628 63.8281707,3.28053164" id="Fill-22" fill="#AB3637"></path>
                        <path d="M63.8281707,6.82991435 C63.8982123,6.87490551 63.9915495,6.91789301 64.0848866,6.94394053 C64.1780684,6.9734489 64.2714055,6.98073492 64.3414472,6.96707363 C64.4113335,6.95578031 64.4580798,6.92372183 64.4580798,6.92372183 C64.4942654,6.89858507 64.5273449,6.86361218 64.5515722,6.82080683 C64.6372995,6.66980411 64.5955229,6.47126013 64.4580798,6.3772705 C64.4580798,6.3772705 64.4113335,6.34521203 64.3414472,6.3339187 C64.2714055,6.32007527 64.1780684,6.32736128 64.0848866,6.35705181 C63.9915495,6.38309932 63.8982123,6.42590467 63.8281707,6.47089583 C63.7582843,6.51388334 63.7115381,6.55942095 63.7115381,6.55942095 C63.7085873,6.56233535 63.7051707,6.56616051 63.7022199,6.56943922 C63.6615305,6.61989489 63.6657237,6.69694453 63.7115381,6.74157139 C63.7115381,6.74157139 63.7582843,6.787109 63.8281707,6.82991435" id="Fill-23" fill="#AB3637"></path>
                        <path d="M64.4580798,10.3861049 C64.4580798,10.3861049 64.4113335,10.3537842 64.3414472,10.3423986 C64.3231214,10.3387258 64.299826,10.3405622 64.2788601,10.3398276 C64.219379,10.3379912 64.1536858,10.3436841 64.0848866,10.3657208 C63.9915495,10.3919813 63.8982123,10.4351367 63.8281707,10.4804958 C63.7582843,10.5238348 63.7115381,10.5697447 63.7115381,10.5697447 C63.7085873,10.572683 63.7051707,10.5765394 63.7022199,10.5798449 C63.6615305,10.6307132 63.6657237,10.7083928 63.7115381,10.7533846 C63.7115381,10.7533846 63.7582843,10.7992946 63.8281707,10.8424499 C63.8982123,10.887809 63.9915495,10.931148 64.0848866,10.9574085 C64.1209169,10.9689778 64.1561707,10.9743034 64.1909585,10.979078 C64.2460911,10.9867909 64.2985835,10.9891782 64.3414472,10.9807308 C64.4113335,10.9693451 64.4580798,10.9370245 64.4580798,10.9370245 C64.4942654,10.9116822 64.5273449,10.8764233 64.5515722,10.833268 C64.6372995,10.6810305 64.5955229,10.480863 64.4580798,10.3861049" id="Fill-24" fill="#AB3637"></path>
                        <path d="M62.5943901,8.53776433 C62.5943901,8.53776433 62.5476438,8.50570585 62.4776022,8.49441253 C62.4077158,8.48056909 62.3143787,8.48785511 62.2211969,8.51754563 C62.1278598,8.54359315 62.0345226,8.5863985 61.964481,8.63138966 C61.8944393,8.67437716 61.8478484,8.71991477 61.8478484,8.71991477 C61.8448976,8.72282918 61.8413257,8.72665434 61.8385302,8.72993305 C61.7978408,8.78038872 61.8021893,8.85743836 61.8478484,8.90206521 C61.8478484,8.90206521 61.8944393,8.94760282 61.964481,8.99040818 C62.0345226,9.03539934 62.1278598,9.07838684 62.2211969,9.10443436 C62.3143787,9.13394273 62.4077158,9.14122874 62.4776022,9.12756746 C62.5476438,9.11627413 62.5943901,9.08421566 62.5943901,9.08421566 C62.6305757,9.0590789 62.6636552,9.02410601 62.6880378,8.98130066 C62.7736098,8.83029794 62.7316779,8.63175396 62.5943901,8.53776433" id="Fill-25" fill="#AB3637"></path>
                        <path d="M62.5943901,0.821714949 C62.5943901,0.821714949 62.5476438,0.789656471 62.4776022,0.778363143 C62.4077158,0.76451971 62.3143787,0.771805727 62.2211969,0.801496249 C62.1278598,0.827543763 62.0345226,0.870349116 61.964481,0.915340275 C61.8944393,0.95832778 61.8478484,1.00386539 61.8478484,1.00386539 C61.8448976,1.0067798 61.8413257,1.01060496 61.8385302,1.01388366 C61.7978408,1.06433934 61.8021893,1.14138897 61.8478484,1.18601583 C61.8478484,1.18601583 61.8944393,1.23155344 61.964481,1.2743588 C62.0345226,1.31934996 62.1278598,1.36233746 62.2211969,1.38838497 C62.3143787,1.41789334 62.4077158,1.42517936 62.4776022,1.41151808 C62.5476438,1.40022475 62.5943901,1.36816627 62.5943901,1.36816627 C62.6305757,1.34302951 62.6636552,1.30805663 62.6880378,1.26525127 C62.7736098,1.11424856 62.7316779,0.915704576 62.5943901,0.821714949" id="Fill-26" fill="#AB3637"></path>
                        <path d="M57.7713768,1.42867978 C57.8414185,1.47367094 57.9347556,1.51665845 58.0279374,1.54270596 C58.1212746,1.57221433 58.2144564,1.57950035 58.2846534,1.56583907 C58.3545397,1.55454574 58.4012859,1.52248726 58.4012859,1.52248726 C58.4374715,1.4973505 58.4705511,1.46237762 58.4947784,1.41957226 C58.5805056,1.26856955 58.5385738,1.07002556 58.4012859,0.976035936 C58.4012859,0.976035936 58.3545397,0.943977458 58.2846534,0.932684131 C58.2144564,0.918840697 58.1212746,0.926126715 58.0279374,0.955817237 C57.9347556,0.98186475 57.8414185,1.0246701 57.7713768,1.06966126 C57.7014905,1.11264877 57.6547443,1.15818638 57.6547443,1.15818638 C57.6516382,1.16110078 57.6483768,1.16492594 57.6452708,1.16820465 C57.6047367,1.21866032 57.6089299,1.29570996 57.6547443,1.34033682 C57.6547443,1.34033682 57.7014905,1.38587443 57.7713768,1.42867978" id="Fill-27" fill="#AB3637"></path>
                        <path d="M58.4012859,11.4698631 C58.4012859,11.4698631 58.3545397,11.4378046 58.2846534,11.4265113 C58.2144564,11.4126679 58.1212746,11.4199539 58.0279374,11.4496444 C57.9347556,11.4756919 57.8414185,11.5184973 57.7713768,11.5634884 C57.7014905,11.6064759 57.6547443,11.6520135 57.6547443,11.6520135 C57.6516382,11.6549279 57.6483768,11.6587531 57.6452708,11.6620318 C57.6047367,11.7124875 57.6089299,11.7895371 57.6547443,11.834164 C57.6547443,11.834164 57.7014905,11.8797016 57.7713768,11.9225069 C57.8414185,11.9674981 57.9347556,12.0104856 58.0279374,12.0365331 C58.1212746,12.0660415 58.2144564,12.0733275 58.2846534,12.0596662 C58.3545397,12.0483729 58.4012859,12.0163144 58.4012859,12.0163144 C58.4374715,11.9911777 58.4705511,11.9562048 58.4947784,11.9133994 C58.5805056,11.7623967 58.5385738,11.5638527 58.4012859,11.4698631" id="Fill-28" fill="#AB3637"></path>
                        <path d="M62.5943901,4.37109766 C62.5943901,4.37109766 62.5476438,4.33903919 62.4776022,4.32774586 C62.4077158,4.31390243 62.3143787,4.32118844 62.2211969,4.35087897 C62.1278598,4.37692648 62.0345226,4.41973183 61.964481,4.46472299 C61.8944393,4.5077105 61.8478484,4.55324811 61.8478484,4.55324811 C61.8448976,4.55616251 61.8413257,4.55998767 61.8385302,4.56326638 C61.7978408,4.61372205 61.8021893,4.69077169 61.8478484,4.73539855 C61.8478484,4.73539855 61.8944393,4.78093616 61.964481,4.82374151 C62.0345226,4.86873267 62.1278598,4.91172018 62.2211969,4.93776769 C62.3143787,4.96727606 62.4077158,4.97456208 62.4776022,4.96090079 C62.5476438,4.94960747 62.5943901,4.91754899 62.5943901,4.91754899 C62.6305757,4.89241223 62.6636552,4.85743934 62.6880378,4.81463399 C62.7736098,4.66363127 62.7316779,4.46508729 62.5943901,4.37109766" id="Fill-29" fill="#AB3637"></path>
                        <path d="M66.1662426,8.53776433 C66.1662426,8.53776433 66.1196517,8.50570585 66.04961,8.49441253 C65.9797237,8.48056909 65.8863865,8.48785511 65.7930494,8.51754563 C65.6997123,8.54359315 65.6065305,8.5863985 65.5364888,8.63138966 C65.4664471,8.67437716 65.4200115,8.71991477 65.4200115,8.71991477 C65.4167502,8.72282918 65.4134888,8.72665434 65.410538,8.72993305 C65.3698487,8.78038872 65.3740418,8.85743836 65.4200115,8.90206521 C65.4200115,8.90206521 65.4664471,8.94760282 65.5364888,8.99040818 C65.6065305,9.03539934 65.6997123,9.07838684 65.7930494,9.10443436 C65.8863865,9.13394273 65.9797237,9.14122874 66.04961,9.12756746 C66.1196517,9.11627413 66.1662426,9.08421566 66.1662426,9.08421566 C66.2027388,9.0590789 66.2355077,9.02410601 66.2600456,8.98130066 C66.3456176,8.83029794 66.3036858,8.63175396 66.1662426,8.53776433" id="Fill-30" fill="#AB3637"></path>
                        <path d="M66.1662426,4.37109766 C66.1662426,4.37109766 66.1196517,4.33903919 66.04961,4.32774586 C65.9797237,4.31390243 65.8863865,4.32118844 65.7930494,4.35087897 C65.6997123,4.37692648 65.6065305,4.41973183 65.5364888,4.46472299 C65.4664471,4.5077105 65.4200115,4.55324811 65.4200115,4.55324811 C65.4167502,4.55616251 65.4134888,4.55998767 65.410538,4.56326638 C65.3698487,4.61372205 65.3740418,4.69077169 65.4200115,4.73539855 C65.4200115,4.73539855 65.4664471,4.78093616 65.5364888,4.82374151 C65.6065305,4.86873267 65.6997123,4.91172018 65.7930494,4.93776769 C65.8863865,4.96727606 65.9797237,4.97456208 66.04961,4.96090079 C66.1196517,4.94960747 66.1662426,4.91754899 66.1662426,4.91754899 C66.2027388,4.89241223 66.2355077,4.85743934 66.2600456,4.81463399 C66.3456176,4.66363127 66.3036858,4.46508729 66.1662426,4.37109766" id="Fill-31" fill="#AB3637"></path>
                        <path d="M60.4201234,2.82788779 C60.4201234,2.82788779 60.3735324,2.79582931 60.3034908,2.78453598 C60.2334491,2.77069255 60.1402673,2.77797857 60.0467749,2.80766909 C59.9535931,2.8337166 59.8602559,2.87652196 59.7902143,2.92151312 C59.7203279,2.96450062 59.673737,3.01003823 59.673737,3.01003823 C59.6704756,3.01295264 59.6672143,3.0167778 59.6642635,3.0200565 C59.6237294,3.07051218 59.6277673,3.14756181 59.673737,3.19218867 C59.673737,3.19218867 59.7203279,3.23772628 59.7902143,3.28053164 C59.8602559,3.32552279 59.9535931,3.3685103 60.0467749,3.39455781 C60.1402673,3.42406618 60.2334491,3.4313522 60.3034908,3.41769092 C60.3735324,3.40639759 60.4201234,3.37433911 60.4201234,3.37433911 C60.456309,3.34920235 60.4893885,3.31422947 60.5136158,3.27142411 C60.5994984,3.1204214 60.5574112,2.92187742 60.4201234,2.82788779" id="Fill-32" fill="#AB3637"></path>
                        <path d="M60.4201234,6.3772705 C60.4201234,6.3772705 60.3735324,6.34521203 60.3034908,6.3339187 C60.2334491,6.32007527 60.1402673,6.32736128 60.0467749,6.35705181 C59.9535931,6.38309932 59.8602559,6.42590467 59.7902143,6.47089583 C59.7203279,6.51388334 59.673737,6.55942095 59.673737,6.55942095 C59.6704756,6.56233535 59.6672143,6.56616051 59.6642635,6.56943922 C59.6237294,6.61989489 59.6277673,6.69694453 59.673737,6.74157139 C59.673737,6.74157139 59.7203279,6.787109 59.7902143,6.82991435 C59.8602559,6.87490551 59.9535931,6.91789301 60.0467749,6.94394053 C60.1402673,6.9734489 60.2334491,6.98073492 60.3034908,6.96707363 C60.3735324,6.95578031 60.4201234,6.92372183 60.4201234,6.92372183 C60.456309,6.89858507 60.4893885,6.86361218 60.5136158,6.82080683 C60.5994984,6.66980411 60.5574112,6.47126013 60.4201234,6.3772705" id="Fill-33" fill="#AB3637"></path>
                        <path d="M60.4201234,10.3896162 C60.4201234,10.3896162 60.3735324,10.3575577 60.3034908,10.3462644 C60.2334491,10.3324209 60.1402673,10.339707 60.0467749,10.3693975 C59.9535931,10.395445 59.8602559,10.4382504 59.7902143,10.4832415 C59.7203279,10.526229 59.673737,10.5717666 59.673737,10.5717666 C59.6704756,10.574681 59.6672143,10.5785062 59.6642635,10.5817849 C59.6237294,10.6322406 59.6277673,10.7092902 59.673737,10.7539171 C59.673737,10.7539171 59.7203279,10.7994547 59.7902143,10.84226 C59.8602559,10.8872512 59.9535931,10.9302387 60.0467749,10.9562862 C60.1402673,10.9857946 60.2334491,10.9930806 60.3034908,10.9794193 C60.3735324,10.968126 60.4201234,10.9360675 60.4201234,10.9360675 C60.456309,10.9109307 60.4893885,10.8759579 60.5136158,10.8331525 C60.5994984,10.6821498 60.5574112,10.4836058 60.4201234,10.3896162" id="Fill-34" fill="#AB3637"></path>
                        <path d="M58.5565646,8.53776433 C58.5565646,8.53776433 58.5098184,8.50570585 58.439932,8.49441253 C58.3698904,8.48056909 58.2765532,8.48785511 58.1832161,8.51754563 C58.0900343,8.54359315 57.9966972,8.5863985 57.9266555,8.63138966 C57.8567692,8.67437716 57.8100229,8.71991477 57.8100229,8.71991477 C57.8070722,8.72282918 57.8035002,8.72665434 57.8007048,8.72993305 C57.7600154,8.78038872 57.7642085,8.85743836 57.8100229,8.90206521 C57.8100229,8.90206521 57.8567692,8.94760282 57.9266555,8.99040818 C57.9966972,9.03539934 58.0900343,9.07838684 58.1832161,9.10443436 C58.2765532,9.13394273 58.3698904,9.14122874 58.439932,9.12756746 C58.5098184,9.11627413 58.5565646,9.08421566 58.5565646,9.08421566 C58.5927502,9.0590789 58.6258298,9.02410601 58.650057,8.98130066 C58.7357843,8.83029794 58.6938525,8.63175396 58.5565646,8.53776433" id="Fill-35" fill="#AB3637"></path>
                        <path d="M58.5565646,4.37109766 C58.5565646,4.37109766 58.5098184,4.33903919 58.439932,4.32774586 C58.3698904,4.31390243 58.2765532,4.32118844 58.1832161,4.35087897 C58.0900343,4.37692648 57.9966972,4.41973183 57.9266555,4.46472299 C57.8567692,4.5077105 57.8100229,4.55324811 57.8100229,4.55324811 C57.8070722,4.55616251 57.8035002,4.55998767 57.8007048,4.56326638 C57.7600154,4.61372205 57.7642085,4.69077169 57.8100229,4.73539855 C57.8100229,4.73539855 57.8567692,4.78093616 57.9266555,4.82374151 C57.9966972,4.86873267 58.0900343,4.91172018 58.1832161,4.93776769 C58.2765532,4.96727606 58.3698904,4.97456208 58.439932,4.96090079 C58.5098184,4.94960747 58.5565646,4.91754899 58.5565646,4.91754899 C58.5927502,4.89241223 58.6258298,4.85743934 58.650057,4.81463399 C58.7357843,4.66363127 58.6938525,4.46508729 58.5565646,4.37109766" id="Fill-36" fill="#AB3637"></path>
                        <path d="M56.5375233,2.82788779 C56.5375233,2.82788779 56.4909324,2.79582931 56.4208907,2.78453598 C56.3510044,2.77069255 56.2576673,2.77797857 56.1643301,2.80766909 C56.070993,2.8337166 55.9776559,2.87652196 55.9077695,2.92151312 C55.8377279,2.96450062 55.7911369,3.01003823 55.7911369,3.01003823 C55.7880309,3.01295264 55.7846142,3.0167778 55.7818188,3.0200565 C55.7411294,3.07051218 55.7451673,3.14756181 55.7911369,3.19218867 C55.7911369,3.19218867 55.8377279,3.23772628 55.9077695,3.28053164 C55.9776559,3.32552279 56.070993,3.3685103 56.1643301,3.39455781 C56.2576673,3.42406618 56.3510044,3.4313522 56.4208907,3.41769092 C56.4909324,3.40639759 56.5375233,3.37433911 56.5375233,3.37433911 C56.5737089,3.34920235 56.6067885,3.31422947 56.631171,3.27142411 C56.7168983,3.1204214 56.6749665,2.92187742 56.5375233,2.82788779" id="Fill-37" fill="#AB3637"></path>
                        <path d="M56.5375233,6.3772705 C56.5375233,6.3772705 56.4909324,6.34521203 56.4208907,6.3339187 C56.3510044,6.32007527 56.2576673,6.32736128 56.1643301,6.35705181 C56.070993,6.38309932 55.9776559,6.42590467 55.9077695,6.47089583 C55.8377279,6.51388334 55.7911369,6.55942095 55.7911369,6.55942095 C55.7880309,6.56233535 55.7846142,6.56616051 55.7818188,6.56943922 C55.7411294,6.61989489 55.7451673,6.69694453 55.7911369,6.74157139 C55.7911369,6.74157139 55.8377279,6.787109 55.9077695,6.82991435 C55.9776559,6.87490551 56.070993,6.91789301 56.1643301,6.94394053 C56.2576673,6.9734489 56.3510044,6.98073492 56.4208907,6.96707363 C56.4909324,6.95578031 56.5375233,6.92372183 56.5375233,6.92372183 C56.5737089,6.89858507 56.6067885,6.86361218 56.631171,6.82080683 C56.7168983,6.66980411 56.6749665,6.47126013 56.5375233,6.3772705" id="Fill-38" fill="#AB3637"></path>
                        <path d="M56.5375233,10.3896162 C56.5375233,10.3896162 56.4909324,10.3575577 56.4208907,10.3462644 C56.3510044,10.3324209 56.2576673,10.339707 56.1643301,10.3693975 C56.070993,10.395445 55.9776559,10.4382504 55.9077695,10.4832415 C55.8377279,10.526229 55.7911369,10.5717666 55.7911369,10.5717666 C55.7880309,10.574681 55.7846142,10.5785062 55.7818188,10.5817849 C55.7411294,10.6322406 55.7451673,10.7092902 55.7911369,10.7539171 C55.7911369,10.7539171 55.8377279,10.7994547 55.9077695,10.84226 C55.9776559,10.8872512 56.070993,10.9302387 56.1643301,10.9562862 C56.2576673,10.9857946 56.3510044,10.9930806 56.4208907,10.9794193 C56.4909324,10.968126 56.5375233,10.9360675 56.5375233,10.9360675 C56.5737089,10.9109307 56.6067885,10.8759579 56.631171,10.8331525 C56.7168983,10.6821498 56.6749665,10.4836058 56.5375233,10.3896162" id="Fill-39" fill="#AB3637"></path>
                        <path d="M54.6739355,8.53776433 C54.6739355,8.53776433 54.6271893,8.50570585 54.5573029,8.49441253 C54.4872613,8.48056909 54.3939241,8.48785511 54.3007423,8.51754563 C54.2074052,8.54359315 54.1142234,8.5863985 54.0440264,8.63138966 C53.9741401,8.67437716 53.9273938,8.71991477 53.9273938,8.71991477 C53.9244431,8.72282918 53.9210264,8.72665434 53.9180757,8.72993305 C53.8773863,8.78038872 53.8817348,8.85743836 53.9273938,8.90206521 C53.9273938,8.90206521 53.9741401,8.94760282 54.0440264,8.99040818 C54.1142234,9.03539934 54.2074052,9.07838684 54.3007423,9.10443436 C54.3939241,9.13394273 54.4872613,9.14122874 54.5573029,9.12756746 C54.6271893,9.11627413 54.6739355,9.08421566 54.6739355,9.08421566 C54.7102764,9.0590789 54.7432007,9.02410601 54.7675832,8.98130066 C54.8531552,8.83029794 54.8113787,8.63175396 54.6739355,8.53776433" id="Fill-40" fill="#AB3637"></path>
                        <path d="M54.6739355,4.37109766 C54.6739355,4.37109766 54.6271893,4.33903919 54.5573029,4.32774586 C54.4872613,4.31390243 54.3939241,4.32118844 54.3007423,4.35087897 C54.2074052,4.37692648 54.1142234,4.41973183 54.0440264,4.46472299 C53.9741401,4.5077105 53.9273938,4.55324811 53.9273938,4.55324811 C53.9244431,4.55616251 53.9210264,4.55998767 53.9180757,4.56326638 C53.8773863,4.61372205 53.8817348,4.69077169 53.9273938,4.73539855 C53.9273938,4.73539855 53.9741401,4.78093616 54.0440264,4.82374151 C54.1142234,4.86873267 54.2074052,4.91172018 54.3007423,4.93776769 C54.3939241,4.96727606 54.4872613,4.97456208 54.5573029,4.96090079 C54.6271893,4.94960747 54.6739355,4.91754899 54.6739355,4.91754899 C54.7102764,4.89241223 54.7432007,4.85743934 54.7675832,4.81463399 C54.8531552,4.66363127 54.8113787,4.46508729 54.6739355,4.37109766" id="Fill-41" fill="#AB3637"></path>
                        <path d="M62.5943901,11.9328261 C62.5943901,11.9328261 62.5476438,11.9007676 62.4776022,11.8894743 C62.4077158,11.8756308 62.3143787,11.8829168 62.2211969,11.9126074 C62.1278598,11.9386549 62.0345226,11.9814602 61.964481,12.0264514 C61.8944393,12.0694389 61.8478484,12.1149765 61.8478484,12.1149765 C61.8448976,12.1178909 61.8413257,12.1217161 61.8385302,12.1249948 C61.7978408,12.1754504 61.8021893,12.2525001 61.8478484,12.2971269 C61.8478484,12.2971269 61.8944393,12.3426646 61.964481,12.3854699 C62.0345226,12.4304611 62.1278598,12.4734486 62.2211969,12.4994961 C62.3143787,12.5290045 62.4077158,12.5362905 62.4776022,12.5226292 C62.5476438,12.5113359 62.5943901,12.4792774 62.5943901,12.4792774 C62.6305757,12.4541406 62.6636552,12.4191677 62.6880378,12.3763624 C62.7736098,12.2253597 62.7316779,12.0268157 62.5943901,11.9328261" id="Fill-42" fill="#AB3637"></path>
                        <path d="M50.9635433,7.17749389 C49.3328615,7.71761735 46.5114713,7.79477784 44.4667516,6.22579636 C42.4220319,4.6569692 40.3252857,5.14554945 39.160513,6.48304945 C37.9957403,7.82039513 37.1932895,9.05496303 33.7766228,6.79169142 C30.3599562,4.5282655 27.5127857,5.96854328 26.5292516,6.66298772 C25.5455622,7.35743216 24.8209183,9.23505562 22.1807668,8.10341982 C19.5406153,6.9716297 19.9288728,5.27425315 15.3732137,6.58598155 C10.8175547,7.89770994 14.4413956,7.07456179 9.93760768,6.53443834 C5.43381981,5.99431488 6.90919859,10.392463 6.90919859,10.392463 C6.90919859,10.392463 45.6802895,10.3481729 64.3775319,10.292926 C64.590763,8.97517908 64.7674978,7.59801858 64.9040092,6.15727784 C60.7771418,4.24030254 52.5620774,6.64786426 50.9635433,7.17749389" id="Fill-43" fill="#EDBB59"></path>
                        <path d="M70.9413371,6.6529321 C70.7083826,6.83287037 69.1036364,8.42762346 65.0657576,6.29274691 C64.9863977,6.2507716 64.9047083,6.21126543 64.8219318,6.17283951 C64.6854205,7.61358025 64.5086856,8.99074074 64.2954545,10.3084877 C70.2409205,10.2908951 74.157197,10.2723765 74.1509848,10.2537037 C76.0663371,5.5212963 71.1742917,6.47283951 70.9413371,6.6529321" id="Fill-44" fill="#DCAC4D"></path>
                        <path d="M55.7688715,16.9962431 C53.0485836,17.1215517 52.4630912,19.5720147 52.4935306,21.8039591 C55.503148,21.6982492 58.699006,21.5217985 61.3782939,21.3336812 C61.9355212,20.0838356 62.3945685,18.7713974 62.8511594,17.3372924 C60.673345,17.2152245 58.0689093,16.8902246 55.7688715,16.9962431 Z" id="Fill-45" fill="#EED990"></path>
                        <path d="M74.7265379,15.9916124 C73.6394167,15.1686186 72.9663333,13.1624457 69.5238864,15.8886803 C67.6582311,17.3663037 65.2900152,17.5061186 62.7132273,17.3615198 C62.2566364,18.7956247 61.7466212,20.1349766 61.1893939,21.3848223 C68.0348409,20.9045753 73.6543258,20.1740198 77.2943182,19.2896062 L77.2943182,16.817847 C76.3191705,17.0132173 75.3517879,16.4649149 74.7265379,15.9916124" id="Fill-46" fill="#D7C986"></path>
                        <path d="M14.0754242,18.5584877 C14.5413333,13.4658951 8.84683712,15.2341049 7.96689015,15.1890432 C5.98304924,15.1890432 4.99066288,14.5501543 4.53205303,13.7345679 C4.51403788,13.8912037 4.50378788,14.0503086 4.50378788,14.2117284 L4.50378788,18.6330247 C6.47846591,19.3635802 9.71948485,20.0186728 13.8921667,20.5554012 C13.9469886,19.933642 14.0105076,19.2683642 14.0754242,18.5584877" id="Fill-47" fill="#E7DB98"></path>
                        <path d="M47.1358674,22.0852749 C46.9748182,20.4335774 46.8482462,18.9607379 46.878375,18.6828058 C46.784572,14.2074971 40.9249886,16.0335774 37.146,15.442065 C33.3670114,14.8503984 33.3604886,16.2522502 33.2117083,16.7280218 C32.4092576,20.4832687 30.3320795,20.775707 29.7433258,20.6118181 C27.5948636,20.3031761 27.3911061,19.7823428 27.6207992,18.3997811 C27.8026591,17.3059539 28.8891591,15.4676823 24.2817841,15.287744 C19.6744091,15.1076514 19.2085,17.396849 18.8202424,19.8402132 C18.755947,20.2443798 18.6987955,20.6932996 18.6363636,21.1610465 C25.1882879,21.7692255 33.2480492,22.1280218 41.9645871,22.1280218 C43.7173371,22.1280218 45.4430644,22.1133613 47.1358674,22.0852749" id="Fill-48" fill="#E7DB98"></path>
                        <path d="M13.8921667,20.595216 C9.71948485,20.0584877 6.47846591,19.4033951 4.50378788,18.6728395 L4.50378788,21.0972222 C6.45392803,21.8186728 9.63795076,22.4666667 13.7353106,22.999537 C13.7525492,22.2967593 13.8129621,21.4924383 13.8921667,20.595216" id="Fill-49" fill="#D1C176"></path>
                        <path d="M47.4862311,24.4862654 C47.4057841,23.7151235 47.319125,22.8697531 47.2408523,22.0662037 C45.5480492,22.0942901 43.822322,22.1089506 42.069572,22.1089506 C33.3530341,22.1089506 25.2932727,21.7501543 18.7413485,21.1419753 C18.6369848,21.9228395 18.5175568,22.7564815 18.3257576,23.5274691 C24.9509848,24.1592593 33.1682235,24.5333333 42.069572,24.5333333 C43.9071174,24.5333333 45.715,24.5171296 47.4862311,24.4862654" id="Fill-50" fill="#D1C176"></path>
                        <path d="M77.2944732,21.9019396 L77.2944735,19.2901235 C73.6544811,20.174537 68.0349962,20.9050926 61.1895492,21.3853395 C60.7977197,22.2643519 60.1785068,23.332507 59.7425711,24.1254082 C67.1499045,23.6485564 68.8594024,26.2064966 77.2944732,21.9019396 Z" id="Fill-51" fill="#C2B26E"></path>
                        <path d="M52.4546673,21.7811848 C52.466781,22.6767094 52.6155795,23.6490741 52.7281742,24.3097222 C55.1931439,24.221142 57.722517,24.0385996 59.9686647,23.8940009 C60.4046003,23.1010996 61.02841,22.1233508 61.4202396,21.2443385" id="Fill-52" fill="#D1C176"></path>
                        <path d="M56.1760568,29.1666667 C55.2245152,29.212963 54.2557348,29.254784 53.270803,29.291821 C53.1920644,30.4462963 52.9504129,31.2209877 52.6477273,31.7387346 C52.9584886,31.7277778 53.2673864,31.716358 53.5750417,31.704321 C54.4730038,30.9441358 55.3431667,30.1013889 56.1760568,29.1666667" id="Fill-53" fill="#ECBA92"></path>
                        <path d="M53.2135029,31.7777777 C63.4683173,31.3808641 72.3375114,30.4683642 77.2438447,29.2763889 L77.2438447,26.8518519 C72.7585379,27.9416667 65.1320864,28.834105 56.0449955,29.2763889 C55.2121053,30.2111111 54.3181746,31.0175925 53.4202125,31.7777777" id="Fill-54" fill="#ECBA92"></path>
                        <path d="M45.3466216,36.4211421 C59.4958147,36.1646606 71.4038295,34.770216 75.5984091,32.9157407 C76.5452917,32.4972222 77.1154091,32.0550926 77.252697,31.5975309 L77.2881064,29.1281338 C72.3817731,30.3201091 63.5367968,31.3827769 53.2819824,31.7796905 C50.7764786,33.9009868 48.0839928,35.2488148 45.3466216,36.2526728" id="Fill-55" fill="#C4946E"></path>
                        <path d="M52.6974242,31.7881173 C52.0109848,32.9623457 51.0105227,32.817284 50.8822424,32.7890432 C50.1774773,32.7453704 49.6345379,32.3944444 49.2147538,31.8898148 C46.9016705,31.9432099 44.5194773,31.9714506 42.0858788,31.9714506 C24.6778068,31.9714506 9.88659091,30.5407407 4.50378788,28.5493827 L4.50378788,31.528858 L4.63206818,31.528858 C4.76920076,31.9864198 5.33916288,32.4285494 6.28620076,32.8470679 C10.9387689,34.9040123 24.6947348,36.395216 40.9426932,36.395216 C42.5415379,36.395216 44.1158447,36.3805556 45.6600227,36.3524691 C48.3973939,35.3486111 51.1192348,33.875 53.6247386,31.7537037 C53.3170833,31.7657407 53.0081856,31.7771605 52.6974242,31.7881173" id="Fill-56" fill="#E4A878"></path>
                        <path d="M55.8664086,29.4211028 C64.9534995,28.9788188 72.7976742,27.9350309 77.2829811,26.845216 L77.2829811,21.7592593 C73.4255644,22.6966049 67.3428106,23.4606481 59.9354773,23.9375 C58.8204015,25.9657407 57.215526,27.7197529 55.8664086,29.2334875" id="Fill-57" fill="#D7C986"></path>
                        <path d="M52.8030303,24.2714506 C52.9275833,25.0035494 53.0533788,25.4915123 53.0471667,25.5100309 C53.2765492,27.1104938 53.3264015,28.3618827 53.2594659,29.3408951 C54.2443977,29.303858 55.213178,29.262037 56.1647197,29.2157407 C57.5138371,27.7020062 59.0604573,25.9479938 60.175533,23.9197531 C57.9293853,24.0643519 55.268,24.1828704 52.8030303,24.2714506 Z" id="Fill-58" fill="#E7DB98"></path>
                        <path d="M48.1316705,29.437037 C47.8364394,28.2308642 47.8021174,27.1563272 47.8021174,27.1563272 C47.8021174,27.1563272 47.6642083,25.9098765 47.5025379,24.3626543 C45.7313068,24.3935185 43.9234242,24.4097222 42.0858788,24.4097222 C33.1845303,24.4097222 24.9672917,24.0356481 18.3420644,23.403858 C17.9541174,24.9623457 17.2695417,26.2615741 15.8096932,26.3333333 C14.0856742,26.4179012 13.6789356,25.1936728 13.7353106,22.8899691 C9.63795076,22.3570988 6.45392803,21.7091049 4.50378788,20.9876543 L4.50378788,26.0734568 C9.88659091,28.0649691 24.6778068,29.495679 42.0858788,29.495679 C44.1414697,29.495679 46.1600985,29.475463 48.1316705,29.437037" id="Fill-59" fill="#E7DB98"></path>
                        <path d="M49.3986691,32.1100698 C48.8575934,31.4594525 48.3382235,30.2878086 48.1316705,29.4438272 C46.1600985,29.4822531 44.1414697,29.5024691 42.0858788,29.5024691 C24.6778068,29.5024691 9.88659091,28.0717593 4.50378788,26.0802469 L4.50378788,28.6569529 C9.88659091,30.648311 24.677808,32.1100698 42.0858799,32.1100698 C44.5194784,32.1100698 47.3077072,31.9802472 49.6207906,31.9268521" id="Fill-60" fill="#ECBA93"></path>
                        <path d="M32.053303,17.7598765 C31.3014811,19.7228395 30.1168295,20.3166667 29.0416667,20.3766975 C29.2469773,20.4212963 29.477447,20.4617284 29.736803,20.4990741 C30.3255568,20.662963 32.4027348,20.3705247 33.2051856,16.6152778 C33.2907576,16.341821 33.3306705,15.7631173 34.0652538,15.4320988 C32.8017083,15.7825617 32.1741288,17.3905864 32.053303,17.7598765" id="Fill-61" fill="#C53539"></path>
                        <path d="M13.8219697,25.0421296 C14.0738712,25.9813272 14.6362235,26.4549383 15.7287803,26.4013889 C17.1886288,26.3296296 17.8732045,25.0304012 18.2611515,23.4719136 C18.4529508,22.7009259 18.5723788,21.867284 18.6767424,21.0864198 C18.7391742,20.6186728 18.7963258,20.1697531 18.8606212,19.7655864 C19.0542841,18.5470679 19.2673598,17.3669753 20.0038068,16.5123457 C18.7977235,17.6273148 18.0996364,20.0094136 17.3075909,23.0834877 C16.5115076,26.1733025 14.8867273,25.7470679 13.8219697,25.0421296" id="Fill-62" fill="#C53539"></path>
                        <path d="M52.3535833,23.7510802 C53.0265114,27.7118827 52.4087159,30.8305556 52.3535833,31.0041667 C51.682053,32.9188272 50.0557197,32.2648148 48.7651515,31.3305556 C48.8895492,31.5550926 49.0276136,31.7675926 49.1849356,31.9567901 C49.6047197,32.4614198 50.1476591,32.8123457 50.8524242,32.8560185 C50.9807045,32.8842593 51.9811667,33.029321 52.6676061,31.8550926 C52.9702917,31.3373457 53.2119432,30.5626543 53.2906818,29.408179 C53.3576174,28.4291667 53.3077652,27.1777778 53.0783826,25.5773148 C53.0845947,25.5587963 52.9587992,25.0708333 52.8342462,24.3387346 C52.7216515,23.6780864 52.6106098,22.8185185 52.5984962,21.9229938 C52.5821894,20.7182099 52.7460341,19.450463 53.3273333,18.5185185 C52.092053,19.4679012 52.1156591,22.529321 52.3535833,23.7510802" id="Fill-63" fill="#C53539"></path>
                        <path d="M62.3337631,16.7943308 L61.7164336,16.6938679 C61.5122101,16.6522012 61.3087631,16.6089913 61.1070245,16.5608432 C60.9068389,16.5037444 60.706032,16.4535901 60.5086419,16.3909358 C60.3112517,16.3270469 60.1158805,16.2593 59.9237707,16.1835283 C59.7316608,16.108837 59.5417252,16.025195 59.3592442,15.9309049 C59.5603616,15.9767382 59.7602366,16.0167074 59.9616646,16.0509666 C60.1618502,16.0892382 60.3640548,16.1154728 60.5648616,16.1440222 C60.7652025,16.1742691 60.9677176,16.1918617 61.1679032,16.2160901 L61.7707896,16.2636209 L62.3730548,16.2863061 L62.9305926,16.2855345 C63.4844032,14.3694851 63.9458086,12.2926333 64.2998995,10.0410901 L8.58043355,10.0410901 C7.49688431,10.0410901 5.68869113,9.91068884 4.94478961,10.5812135 C4.21036158,11.2430962 4.32373279,13.2432506 4.41551688,13.7305962 C4.87412673,14.5461827 5.8665131,15.1850716 7.85035401,15.1850716 C8.73030098,15.2301333 14.4247972,13.4619234 13.9588881,18.554516 C13.8939714,19.2643925 13.8304525,19.9296703 13.7756305,20.5514296 C13.696426,21.4486518 13.6360131,22.2529728 13.6187745,22.9557506 C13.5981192,23.7995777 13.6406722,24.4968 13.7863464,25.0398555 C14.851104,25.7447938 16.4758843,26.1710283 17.2719676,23.0812135 C18.0640131,20.0071395 18.7621002,17.6250407 19.9681836,16.5100716 C20.7082025,15.6509666 21.9768729,15.1205654 24.2865396,15.2108432 C28.8939146,15.3907814 27.8074146,17.229053 27.6255548,18.3228802 C27.4235055,19.5384666 27.5573767,20.0878493 29.0529449,20.4125407 C30.1281078,20.3525098 31.3127593,19.7586827 32.0645813,17.7957197 C32.185407,17.4264296 32.8129866,15.8184049 34.076532,15.4679419 C34.6200926,15.2230345 35.5435245,15.1134666 37.1507555,15.3651641 C40.9297442,15.9566765 46.7893275,14.1305962 46.8831305,18.6059049 C46.8530017,18.883837 46.9795737,20.3566765 47.1406229,22.008374 C47.2188957,22.8119234 47.3055548,23.6572938 47.3860017,24.4284358 C47.5476722,25.975658 47.6855813,27.2221086 47.6855813,27.2221086 C47.6855813,27.2221086 47.7199032,28.2966456 48.0151343,29.5028185 C48.1617404,30.1014296 48.3748161,30.729979 48.6784336,31.2779728 C49.9690017,32.212232 51.5953351,32.8662444 52.2668654,30.9515839 C52.3219979,30.7779728 52.9397934,27.6593 52.2668654,23.6984975 C52.0289411,22.4767382 52.0053351,19.4153185 53.2406154,18.4659358 C53.7361873,17.6711827 54.5352214,17.1204111 55.7871192,17.062695 C58.087157,16.9566765 60.4135964,17.2816765 62.5914108,17.4037444 C62.6510472,17.2160901 62.7108389,17.0285901 62.7687669,16.837695 C62.6235586,16.8248864 62.4783502,16.812232 62.3337631,16.7943308" id="Fill-64" fill="#DF4843"></path>
                        <path d="M76.3087652,10.853858 C75.5482462,10.0862654 74.144928,10.0308642 72.9750303,10.0308642 L64.2956098,10.0308642 C63.9415189,12.2824074 63.4801136,14.3592593 62.926303,16.2753086 L62.9694773,16.2753086 C63.1690417,16.275463 63.3682955,16.2555556 63.566928,16.2469136 C63.7660265,16.2401235 63.9634167,16.2137346 64.1608068,16.1929012 C64.3580417,16.170679 64.5555871,16.1549383 64.7498712,16.1157407 L65.3344318,16.0157407 L65.9092083,15.8757716 C66.0044091,15.8507716 66.1020947,15.8341049 66.1951212,15.8021605 L66.4759091,15.7111111 C66.6619621,15.6481481 66.8526742,15.5975309 67.0351553,15.5246914 L67.5799583,15.3 C67.6697235,15.2603395 67.7644583,15.2305556 67.8503409,15.183179 L68.1121818,15.0476852 L68.6377273,14.779321 L68.6732917,14.7611111 L68.6736023,14.7606481 C68.6748447,14.7589506 68.6746894,14.7594136 68.6781061,14.758179 L68.7087008,14.7393519 L68.7813826,14.6927469 L68.9428977,14.5845679 C69.0533182,14.5111111 69.1659129,14.4368827 69.281303,14.3655864 C69.5113068,14.2216049 69.7534242,14.091821 70.0026856,13.9748457 C70.2524129,13.8584877 70.5137879,13.7631173 70.781375,13.6871914 C70.9155568,13.6492284 71.0519129,13.6186728 71.1888902,13.591821 C71.3269545,13.5682099 71.4656402,13.5478395 71.6057235,13.5387346 C71.7461174,13.5319444 71.8865114,13.5283951 72.02675,13.5375 C72.0966364,13.5390432 72.1665227,13.5466049 72.2360985,13.5554012 C72.3056742,13.562963 72.3749394,13.570679 72.4435833,13.5854938 C72.5813371,13.6083333 72.7162955,13.6441358 72.8490795,13.6842593 C72.9793788,13.732716 73.1093674,13.7783951 73.2319015,13.8407407 C73.357697,13.8950617 73.4732424,13.9691358 73.5901856,14.0365741 C73.701072,14.1148148 73.8135114,14.1885802 73.914303,14.2771605 C74.0195985,14.3592593 74.1157311,14.4516975 74.2087576,14.545679 C74.3025606,14.6385802 74.3856477,14.7419753 74.4710644,14.8404321 C74.3612652,14.7669753 74.2607841,14.6845679 74.1497424,14.6165123 C74.0390114,14.5483025 73.9324735,14.4766975 73.8175492,14.4189815 C73.7072841,14.3540123 73.588322,14.3064815 73.4738636,14.253858 C73.355678,14.2094136 73.2407538,14.158642 73.1194621,14.1282407 C73.0009659,14.0898148 72.8782765,14.0683642 72.7582273,14.0438272 C72.6355379,14.0296296 72.5154886,14.008642 72.3931098,14.0054012 C72.332697,13.999537 72.2715076,14.0009259 72.2106288,14.0020062 C72.1500606,14.0018519 72.0894924,14.0026235 72.0289242,14.0092593 C71.9077879,14.0162037 71.7875833,14.0348765 71.6684659,14.0555556 L71.4904886,14.0910494 L71.3139091,14.1356481 C71.1972765,14.1697531 71.0815758,14.2067901 70.9675833,14.250463 C70.7392879,14.3367284 70.5189129,14.445679 70.3027311,14.5634259 C70.0863939,14.6811728 69.8776667,14.8148148 69.6717348,14.9566358 C69.5686136,15.0271605 69.4667348,15.1010802 69.3636136,15.1766975 L69.2053598,15.2935185 L69.1165265,15.3564815 L69.0646553,15.3904321 C69.0398068,15.4050926 69.0107652,15.4208333 68.9832765,15.4347222 L69.0193068,15.4160494 L68.4628561,15.7208333 L68.1836212,15.8719136 C68.0910606,15.9234568 67.9899583,15.9570988 67.8935152,16.0006173 L67.3074015,16.2464506 C67.1100114,16.3228395 66.9045455,16.3763889 66.7032727,16.442284 L66.3998106,16.5358025 C66.298553,16.5671296 66.1934129,16.582716 66.090447,16.6067901 L65.4700114,16.737963 L64.8416553,16.816821 C64.6332386,16.85 64.4217159,16.850463 64.2117462,16.8617284 C64.0016212,16.8722222 63.7918068,16.8839506 63.5816818,16.8708333 C63.3718674,16.8615741 63.1622083,16.8632716 62.9536364,16.8444444 C62.8905833,16.8382716 62.8276856,16.8330247 62.7644773,16.8274691 C62.7065492,17.0183642 62.6467576,17.2058642 62.5871212,17.3935185 C65.1639091,17.5381173 67.532125,17.3983025 69.3977803,15.920679 C72.8402273,13.1944444 73.5133106,15.2006173 74.6004318,16.0236111 C75.2256818,16.4969136 76.1930644,17.045216 77.1682121,16.8498457 L77.1682121,14.1975309 C77.1682121,13.058642 77.0539091,11.6060185 76.3087652,10.853858" id="Fill-65" fill="#CB4242"></path>
                        <path d="M63.0868864,16.8926659 C63.2954583,16.9114931 63.5051174,16.9097956 63.7149318,16.9190548 C63.9250568,16.9321721 64.1348712,16.9204437 64.3449962,16.9099499 C64.5549659,16.8986845 64.7664886,16.8982215 64.9749053,16.8650425 L65.6032614,16.7861845 L66.223697,16.6550116 C66.3266629,16.6309375 66.431803,16.6153511 66.5330606,16.584024 L66.8365227,16.4905054 C67.0377955,16.4246104 67.2432614,16.371061 67.4406515,16.2946721 L68.0267652,16.0488388 C68.1232083,16.0053203 68.2243106,15.9716783 68.3168712,15.9201351 L68.5961061,15.7690548 L69.1525568,15.4642709 L69.1165265,15.4829437 C69.1440152,15.4690548 69.1730568,15.4533141 69.1979053,15.4386536 L69.2497765,15.404703 L69.3386098,15.34174 L69.4968636,15.224919 C69.5999848,15.1493017 69.7018636,15.075382 69.8049848,15.0048573 C70.0109167,14.8630363 70.2196439,14.7293943 70.4359811,14.6116474 C70.6521629,14.4939005 70.8725379,14.3849499 71.1008333,14.2986845 C71.2148258,14.2550116 71.3305265,14.2179746 71.4471591,14.1838696 L71.6237386,14.1392709 L71.8017159,14.1037771 C71.9208333,14.083098 72.0410379,14.0644252 72.1621742,14.0574808 C72.2227424,14.050845 72.2833106,14.0500734 72.3438788,14.0502277 C72.4047576,14.0491474 72.465947,14.0477585 72.5263598,14.0536227 C72.6487386,14.0568635 72.7687879,14.0778511 72.8914773,14.0920487 C73.0115265,14.1165857 73.1342159,14.1380363 73.2527121,14.1764622 C73.3740038,14.2068635 73.488928,14.2576351 73.6071136,14.3020795 C73.721572,14.354703 73.8405341,14.4022338 73.9507992,14.467203 C74.0657235,14.524919 74.1722614,14.596524 74.2829924,14.6647338 C74.3940341,14.7327894 74.4945152,14.8151968 74.6043144,14.8886536 C74.5188977,14.7901968 74.4358106,14.6868017 74.3420076,14.5939005 C74.2489811,14.499919 74.1528485,14.4074808 74.047553,14.325382 C73.9467614,14.2368017 73.834322,14.1630363 73.7234356,14.0847956 C73.6064924,14.0173573 73.490947,13.9432832 73.3651515,13.8889622 C73.2426174,13.8266166 73.1126288,13.7809375 72.9823295,13.7324808 C72.8495455,13.6923573 72.7145871,13.6565548 72.5768333,13.6337153 C72.5081894,13.6189005 72.4389242,13.6111845 72.3693485,13.6036227 C72.2997727,13.5948264 72.2298864,13.5872647 72.16,13.5857215 C72.0197614,13.5766166 71.8793674,13.5801659 71.7389735,13.5869561 C71.5988902,13.596061 71.4602045,13.6164314 71.3221402,13.6400425 C71.1851629,13.6668943 71.0488068,13.6974499 70.914625,13.7354129 C70.6470379,13.8113388 70.3856629,13.9067092 70.1359356,14.0230672 C69.8866742,14.1400425 69.6445568,14.2698264 69.414553,14.4138079 C69.2991629,14.4851042 69.1865682,14.5593326 69.0761477,14.6327894 L68.9146326,14.7409684 L68.8419508,14.7875734 L68.8113561,14.8064005 C68.8079394,14.8076351 68.8080947,14.8071721 68.8068523,14.8088696 L68.8065417,14.8093326 L68.7709773,14.8275425 L68.2454318,15.0959067 L67.9835909,15.2314005 C67.8977083,15.2787771 67.8029735,15.308561 67.7132083,15.3482215 L67.1684053,15.5729129 C66.9859242,15.6457524 66.7952121,15.6963696 66.6091591,15.7593326 L66.3283712,15.850382 C66.2353447,15.8823264 66.1376591,15.8989931 66.0424583,15.9239931 L65.4676818,16.0639622 L64.8831212,16.1639622 C64.6888371,16.2031598 64.4912917,16.2189005 64.2940568,16.2411227 C64.0966667,16.2619561 63.8992765,16.288345 63.700178,16.2951351 C63.5015455,16.3037771 63.3022917,16.3236845 63.1027273,16.3235301 L63.059553,16.3235301 C63.0061288,16.5084067 62.9530152,16.6937462 62.8977273,16.8756906 C62.9609356,16.8812462 63.0238333,16.8864931 63.0868864,16.8926659" id="Fill-66" fill="#CC5E5F"></path>
                        <path d="M61.8926061,16.2277778 L61.2897197,16.1802469 C61.0895341,16.1560185 60.8870189,16.1384259 60.686678,16.108179 C60.4858712,16.0796296 60.2836667,16.0533951 60.0834811,16.0151235 C59.882053,15.9808642 59.682178,15.9408951 59.4810606,15.8950617 C59.6635417,15.9893519 59.8534773,16.0729938 60.0455871,16.1476852 C60.237697,16.2234568 60.4330682,16.2912037 60.6304583,16.3550926 C60.8278485,16.4177469 61.0286553,16.4679012 61.2288409,16.525 C61.4305795,16.5731481 61.6340265,16.616358 61.83825,16.6580247 L62.4555795,16.7584877 C62.6001667,16.7763889 62.745375,16.7890432 62.8905833,16.8018519 C62.9458712,16.6199074 62.9989848,16.4345679 63.0524091,16.2496914 L62.4948712,16.250463 L61.8926061,16.2277778" id="Fill-67" fill="#E16561"></path>
                        <path d="M5.48997332,10.9567901 C5.48997332,10.9567901 3.23807938,14.7890432 8.10418923,14.6347222 C8.07825362,14.6347222 13.824621,13.3231481 14.6528521,16.3066358 C14.6528521,16.2037037 14.4717688,12.7828704 7.97482181,13.7345679 C7.9488862,13.7603395 4.97234832,14.3003086 5.48997332,10.9567901" id="Fill-68" fill="#E16561"></path>
                        <path d="M46.5909091,14.84258 C46.5909091,14.84258 46.6590871,14.8100182 46.7996364,14.8154195 C46.938322,14.8183516 47.1498447,14.8773022 47.361678,15.0408824 C47.5724242,15.2030738 47.7837917,15.4543084 47.9571098,15.7731355 C48.1366402,16.0896479 48.2900795,16.4691232 48.4149432,16.8914997 C48.5447765,17.3129503 48.6452576,17.7782281 48.7238409,18.2722096 C48.7657727,18.5192775 48.7977652,18.7734442 48.8319318,19.0336293 C48.8564697,19.2938145 48.8855114,19.5601726 48.9029053,19.8308516 C48.9423523,20.3737528 48.9588144,20.9294627 48.9633182,21.5027651 C48.9600568,22.0658824 48.9586591,22.6294627 48.967822,23.196438 C48.9870795,24.3285368 49.0327386,25.458938 49.1358598,26.508938 C49.1906818,27.033475 49.2484545,27.5394935 49.3365114,28.0118701 C49.4272083,28.4827034 49.5250492,28.9254503 49.6598523,29.316654 C49.7965189,29.7055429 49.9525985,30.0516849 50.1501439,30.3137219 C50.3472235,30.5734442 50.5755189,30.7561602 50.8008636,30.833938 C51.0235682,30.916654 51.2231326,30.9239071 51.3552955,30.913259 C51.4225417,30.9124874 51.4730152,30.9012219 51.507803,30.8984442 C51.5427462,30.8941232 51.5606061,30.8919627 51.5606061,30.8919627 C51.5606061,30.8919627 51.543678,30.8979812 51.5105985,30.9094009 C51.4772083,30.9189688 51.4292197,30.9427343 51.3619735,30.9558516 C51.2308977,30.9893392 51.0238788,31.0310059 50.7600189,30.9776108 C50.4961591,30.9317775 50.1903674,30.7691232 49.9307008,30.5015306 C49.6682386,30.2359442 49.442428,29.8823948 49.2554432,29.4782281 C49.0673712,29.0742158 48.9077197,28.621438 48.7811477,28.1347096 C48.6547311,27.6482898 48.5430682,27.1314688 48.4627765,26.5930429 C48.3789129,26.0552343 48.3189659,25.4972096 48.2740833,24.9299256 C48.2302879,24.3626417 48.204197,23.7859442 48.1936364,23.2094009 C48.1824545,22.633938 48.1872689,22.054617 48.2029545,21.4930429 C48.2090114,20.9414997 48.2156894,20.3898022 48.2017121,19.8626417 C48.1923939,19.333938 48.1718939,18.8237528 48.1347765,18.3428886 C48.0948636,17.8621787 48.0406629,17.4101726 47.9690682,16.9982898 C47.893125,16.5874874 47.7974583,16.2172713 47.6795833,15.9030738 C47.5604659,15.5893392 47.4133939,15.3354812 47.254053,15.158475 C47.0925379,14.9847096 46.9210833,14.8893392 46.7929583,14.8609442 C46.6649886,14.8286911 46.5909091,14.84258 46.5909091,14.84258" id="Fill-69" fill="#E16561"></path>
                        <path id="Fill-70" fill="#75BA4B"></path>
                        <path d="M7.15288411,9.4261133 C7.15288411,9.4261133 6.7063879,5.58737873 12.1225811,7.4585207 C11.9866909,7.43923058 7.42466442,7.09200836 7.15288411,9.4261133" id="Fill-71" fill="#FBF6EB"></path>
                        <path d="M26.0909091,7.96092625 C26.0909091,7.96092625 28.3816288,4.41154353 35.2926136,8.30814847 C35.3314394,8.34672872 28.0710227,6.57203736 26.0909091,7.96092625" id="Fill-72" fill="#FBF6EB"></path>
                        <path d="M47.8333333,8.33552939 C47.8333333,8.33552939 48.0936212,8.26886272 48.5511439,8.16747383 C49.0072689,8.05852322 49.6564356,7.90188741 50.4369886,7.73923309 C50.6320492,7.69926396 50.8350303,7.6554368 51.0442235,7.60204173 C51.2534167,7.55065284 51.4708409,7.50420223 51.6935455,7.45296766 C52.1395758,7.35219605 52.6092121,7.24324544 53.0967083,7.14170223 C53.3403788,7.09093062 53.5880871,7.03923309 53.8389015,6.9870726 C54.0903371,6.93815284 54.340375,6.86731951 54.5955379,6.81068371 C55.1036894,6.68846149 55.6214697,6.57148618 56.1390947,6.45373926 C56.6576515,6.34015902 57.1758977,6.22518988 57.6880871,6.11978865 C57.8227348,6.09201087 57.9569167,6.06423309 58.0906326,6.03676396 C58.2305606,6.01423309 58.3579091,5.99694914 58.4897614,5.98028247 C58.7511364,5.94772075 59.0087841,5.92040593 59.2633258,5.90296766 C59.7714773,5.86423309 60.2650303,5.85698001 60.732803,5.87040593 C61.2005758,5.88151704 61.6428788,5.9216405 62.0477538,5.98630099 C62.8590568,6.10744297 63.5149015,6.34154791 63.9315795,6.57225778 C64.1417045,6.68552939 64.2918826,6.79710346 64.3912765,6.87441828 C64.4869432,6.9562084 64.5380379,6.99972692 64.5380379,6.99972692 C64.5380379,6.99972692 64.4787121,6.96917136 64.3673598,6.91191828 C64.2558523,6.8562084 64.0871932,6.78630099 63.8700795,6.71299852 C63.6523447,6.64015902 63.3800985,6.57873926 63.0673182,6.52549852 C62.7532955,6.47518988 62.3957879,6.44386272 62.0050455,6.42735038 C61.6138371,6.41315284 61.188928,6.42441828 60.7405682,6.44633186 C60.292053,6.47148618 59.8199318,6.52210346 59.333678,6.58367754 C58.8469583,6.65188741 58.3450189,6.72102322 57.8666856,6.84694914 C57.3548068,6.97009729 56.8323674,7.08753556 56.3105492,7.20605408 C55.7877992,7.32056025 55.2648939,7.43614667 54.7489773,7.54231951 C54.2352348,7.65883186 53.7221136,7.73676396 53.2259205,7.81176396 C52.7300379,7.88969605 52.2490644,7.95420223 51.7935606,8.01809112 C51.3379015,8.0812084 50.9089545,8.14478865 50.5067197,8.17472692 C50.1063485,8.21392445 49.7385909,8.24093062 49.4130758,8.2650047 C49.0877159,8.2907763 48.803822,8.30790593 48.5700909,8.31901704 C48.1018523,8.33522075 47.8333333,8.33552939 47.8333333,8.33552939" id="Fill-73" fill="#FBF6EB"></path>
                    </g>
                </g>
            </g>
        </g>
    </g>
</svg>