<?xml version="1.0" encoding="UTF-8" standalone="no"?>
<svg width="130px" height="134px" viewBox="0 0 130 134" version="1.1" xmlns="http://www.w3.org/2000/svg" xmlns:xlink="http://www.w3.org/1999/xlink">
    <!-- Generator: Sketch 3.8.3 (29802) - http://www.bohemiancoding.com/sketch -->
    <title>Parcel Delivery</title>
    <desc>Created with Sketch.</desc>
    <defs></defs>
    <g id="Page-1" stroke="none" stroke-width="1" fill="none" fill-rule="evenodd">
        <g id="A4-Copy" transform="translate(-232.000000, -354.000000)">
            <g id="Parcel-Delivery" transform="translate(233.000000, 356.000000)">
                <g id="Group-158">
                    <g id="Group-143">
                        <polygon id="Fill-10" stroke="#4C4F58" stroke-width="3" fill="#BD8959" points="112.793203 32.101875 112.612255 96.0574432 57.2392834 129.357301 56.0849281 127.040406 56.0849281 65.0598295"></polygon>
                        <polyline id="Fill-11" stroke="#4C4F58" stroke-width="3" fill="#E2B886" points="0.432797386 32.9579545 57.1403333 0 112.793203 32.1336364 56.0849281 65.0923295 0.432797386 32.9579545"></polyline>
                        <polygon id="Fill-12" stroke="#4C4F58" stroke-width="3" fill="#9A6B4C" points="55.9039804 129.015398 0.902646916 96.8035611 0.902646916 33.9112715 56.0849281 65.0598295"></polygon>
                        <path d="M77.8274575,77.1734659 L77.7875752,63.2353977 L65.6589085,70.2384091 L65.6987908,84.1764773 L77.8274575,77.1734659 L77.8274575,77.1734659 Z M65.189183,69.9710227 L78.2536078,62.4273295 L78.2964444,77.4356818 L65.2320196,84.979375 L65.189183,69.9710227 L65.189183,69.9710227 Z" id="Fill-13" fill="#3A271A"></path>
                        <path d="M72.1634248,78.2142045 C72.8576732,77.813125 73.4211961,77.7444318 73.4219346,78.0635227 L73.4219346,78.1728409 L70.0947124,80.0940341 L70.0947124,79.9854545 C70.0932353,79.665625 70.6560196,79.0850568 71.3510065,78.6825 L71.5866078,78.5465909 L71.588085,79.0363068 L71.9278235,78.8405682 L71.9263464,78.3501136 L72.1634248,78.2142045" id="Fill-14" fill="#3A271A"></path>
                        <polyline id="Fill-15" fill="#3A271A" points="71.9115752 73.2653409 71.9145294 74.0460795 71.9278235 78.8405682 71.588085 79.0363068 71.5725752 73.4610795 71.9115752 73.2653409"></polyline>
                        <path d="M73.3923922,67.3171023 L73.4042092,71.7363636 C73.4064248,72.5355682 72.8451176,73.5076136 72.1501307,73.9094318 L71.9145294,74.0460795 L71.9115752,73.2653409 L71.5725752,73.4610795 L71.5747908,74.2410795 L71.338451,74.3769886 C70.6434641,74.7795455 70.0799412,74.4575 70.0769869,73.6582955 L70.0629542,69.2390341 L73.3923922,67.3171023" id="Fill-16" fill="#3A271A"></path>
                        <path d="M86.6318562,61.8548864 L86.6333333,62.4398864 C88.1001176,61.6746591 89.281817,62.05875 89.4465163,63.3114773 L86.640719,64.9320455 L86.6532745,69.5086364 C86.6554902,70.1460795 86.2049673,70.9201705 85.6517843,71.2407386 C85.0963856,71.5613068 84.6429085,71.3079545 84.6406928,70.6705114 L84.6406928,70.5227841 L85.0594575,70.28125 L85.0594575,70.4289773 C85.0601961,70.7997727 85.3260784,70.9467614 85.6495686,70.7598864 C85.9723203,70.57375 86.2367255,70.1217045 86.2352484,69.7501705 L86.2219542,65.1743182 L83.453085,66.7727273 C83.6067059,65.3456818 84.7669869,63.6180114 86.2145686,62.6806818 L86.2138301,62.0964205 L86.6318562,61.8548864" id="Fill-17" fill="#3A271A"></path>
                        <path d="M92.6585229,68.6097159 L92.6186405,54.6716477 L80.4899739,61.6746591 L80.5305948,75.6119886 L92.6585229,68.6097159 M80.0261569,61.4043182 L93.0854118,53.8635795 L93.1275098,68.8719318 L80.0682549,76.4126705 L80.0261569,61.4043182" id="Fill-18" fill="#3A271A"></path>
                        <path id="Fill-19" fill="#3A271A"></path>
                        <path id="Fill-20" fill="#3A271A"></path>
                        <path id="Fill-21" fill="#3A271A"></path>
                        <path id="Fill-22" fill="#3A271A"></path>
                        <path id="Fill-23" fill="#3A271A"></path>
                        <polyline id="Fill-24" fill="#3A271A" points="104.317464 59.5628977 104.318941 60.2948864 98.851366 63.4518182 98.8484118 62.7198295 104.317464 59.5628977"></polyline>
                        <polyline id="Fill-25" fill="#3A271A" points="102.884654 50.3210795 103.765758 52.333125 103.17417 52.6751136 103.193373 59.4772159 102.554516 59.8450568 102.536791 53.0422159 101.944464 53.3849432 102.884654 50.3210795"></polyline>
                        <path d="M107.651333,59.9528977 L107.61219,46.0148295 L95.4835229,53.0178409 L95.5234052,66.9559091 L107.651333,59.9528977 L107.651333,59.9528977 Z M95.0189673,52.7475 L108.077484,45.2067614 L108.121059,60.214375 L95.0618039,67.7558523 L95.0189673,52.7475 L95.0189673,52.7475 Z" id="Fill-26" fill="#3A271A"></path>
                        <polyline id="Fill-27" fill="#3A271A" points="100.298209 51.8153409 101.178575 53.8266477 100.586987 54.1686364 100.606928 60.9714773 99.9688105 61.3393182 99.9496078 54.5364773 99.357281 54.8784659 100.298209 51.8153409"></polyline>
                        <polygon id="Fill-29" fill="#B5957B" points="20.4995294 107.511264 20.4995294 46.28307 30.441705 51.7755959 30.441705 113.131825"></polygon>
                        <polyline id="Fill-30" fill="#EDCEA9" points="31.5702838 49.680328 21.7086046 43.9474206 47.5323791 29.0343182 57.2237908 34.6671591"></polyline>
                        <polygon id="Fill-33" fill="#EDCEA9" points="57.2245294 23.4014773 76.4262098 12.4551114 86.1577044 17.9660315 66.9152026 29.0343182"></polygon>
                        <path d="M83.0328431,112.00223 L82.9235359,74.7640341 L92.6659085,69.1385795 L92.8648064,106.27311 M82.9220588,74.2314773 L82.8821765,60.2934091 L92.6186405,54.6716477 L92.6585229,68.6097159 L82.9220588,74.2314773 M85.0594575,70.28125 L84.6406928,70.5227841 L84.6406928,70.6705114 C84.6421699,71.1210795 84.8689085,71.3796023 85.1983072,71.3796023 C85.3342026,71.3796023 85.4885621,71.3352841 85.6517843,71.2407386 C86.2049673,70.9201705 86.6554902,70.1460795 86.6532745,69.5086364 L86.640719,64.9320455 L89.4465163,63.3114773 C89.3394248,62.4945455 88.7987974,62.0469318 88.0292157,62.0469318 C87.6185752,62.0469318 87.1429412,62.1739773 86.6333333,62.4398864 L86.6318562,61.8548864 L86.2138301,62.0964205 L86.2145686,62.6806818 C84.7669869,63.6180114 83.6067059,65.3456818 83.453085,66.7727273 L86.2219542,65.1743182 L86.2352484,69.7501705 C86.2367255,70.1217045 85.9723203,70.57375 85.6495686,70.7598864 C85.5542941,70.8152841 85.4641895,70.8411364 85.3844248,70.8411364 C85.1923987,70.8411364 85.0594575,70.6904545 85.0594575,70.4289773 L85.0594575,70.28125 M89.5742876,60.0415341 C89.5587778,60.0563068 89.2522745,60.3325568 89.1651242,60.539375 C89.0779739,60.7469318 89.1370588,60.8658523 89.2249477,60.8813636 L89.340902,60.8518182 C89.4125425,60.8111932 89.4886144,60.7277273 89.5425294,60.5977273 C89.6296797,60.3909091 89.5772418,60.0592614 89.5742876,60.0415341 M88.5255294,59.8805114 C88.5085425,59.8945455 88.2020392,60.1707955 88.1119346,60.3805682 C88.0299542,60.5851705 88.0875621,60.7048295 88.175451,60.7203409 L88.295098,60.6900568 C88.3652614,60.6486932 88.4405948,60.5681818 88.4930327,60.441875 C88.580183,60.2298864 88.5270065,59.8967614 88.5255294,59.8805114 M87.4760327,59.71875 C87.4590458,59.7335227 87.1481111,60.0171591 87.0624379,60.2239773 C86.9760261,60.4322727 87.0343725,60.5452841 87.1252157,60.5593182 L87.2448627,60.5290341 C87.3157647,60.4884091 87.391098,60.4078977 87.4435359,60.2801136 C87.5299477,60.0732955 87.4789869,59.7364773 87.4760327,59.71875 M89.6651307,58.5546591 C89.6496209,58.5686932 89.3438562,58.8449432 89.2567059,59.0525 C89.1695556,59.2593182 89.2286405,59.3782386 89.3187451,59.3922727 L89.4346993,59.3627273 C89.5070784,59.3213636 89.5824118,59.239375 89.6341111,59.1108523 C89.7234771,58.9010795 89.668085,58.5716477 89.6651307,58.5546591 M88.6163725,58.3928977 C88.6001242,58.4076705 88.2936209,58.6846591 88.2072092,58.8914773 C88.1200588,59.0990341 88.1784052,59.2172159 88.2662941,59.2334659 L88.3852026,59.2017045 C88.455366,59.1618182 88.5306993,59.0805682 88.5853529,58.9542614 C88.6710261,58.7474432 88.6193268,58.4113636 88.6163725,58.3928977 M82.8806993,59.7564205 L82.8533725,49.9628409 L92.5950065,44.3004545 L92.6230719,54.1309659 L82.8806993,59.7564205" id="Fill-36" fill="#D0AC86"></path>
                        <path d="M85.1983072,71.3796023 C84.8689085,71.3796023 84.6421699,71.1210795 84.6406928,70.6705114 L84.6406928,70.5227841 L85.0594575,70.28125 L85.0594575,70.4289773 C85.0594575,70.6904545 85.1923987,70.8411364 85.3844248,70.8411364 C85.4641895,70.8411364 85.5542941,70.8152841 85.6495686,70.7598864 C85.9723203,70.57375 86.2367255,70.1217045 86.2352484,69.7501705 L86.2219542,65.1743182 L83.453085,66.7727273 C83.6067059,65.3456818 84.7669869,63.6180114 86.2145686,62.6806818 L86.2138301,62.0964205 L86.6318562,61.8548864 L86.6333333,62.4398864 C87.1429412,62.1739773 87.6185752,62.0469318 88.0292157,62.0469318 C88.7987974,62.0469318 89.3394248,62.4945455 89.4465163,63.3114773 L86.640719,64.9320455 L86.6532745,69.5086364 C86.6554902,70.1460795 86.2049673,70.9201705 85.6517843,71.2407386 C85.4885621,71.3352841 85.3342026,71.3796023 85.1983072,71.3796023" id="Fill-37" fill="#76624D"></path>
                        <polyline id="Fill-38" fill="#76624D" points="82.9235359 74.7640341 82.9220588 74.2314773 92.6585229 68.6097159 92.6186405 54.6716477 82.8821765 60.2934091 82.8806993 59.7564205 92.6230719 54.1309659 92.6659085 69.1385795 82.9235359 74.7640341"></polyline>
                        <path id="Fill-39" fill="#76624D"></path>
                        <path id="Fill-40" fill="#76624D"></path>
                        <path id="Fill-41" fill="#76624D"></path>
                        <path id="Fill-42" fill="#76624D"></path>
                        <path id="Fill-43" fill="#76624D"></path>
                        <path d="M82.4058039,49.3025 L57.2237908,34.6671591 L66.9152026,29.0343182 L92.0972157,43.6696591 L82.4058039,49.3025 M28.4205761,17.9137354 L37.9737397,12.4194059 L57.2245294,23.4014773 L47.5323791,29.0343182 L28.4205761,17.9137354 Z" id="Fill-44" fill="#EDCEA9"></path>
                        <polyline id="Fill-45" fill="#F3DDC0" points="57.2237908 34.6671591 47.5323791 29.0343182 57.2245294 23.4014773 66.9152026 29.0343182 57.2237908 34.6671591"></polyline>
                        <polyline id="Fill-46" fill="#CDAD86" points="82.8533725 49.9628409 82.8518954 49.5617614 82.4058039 49.3025 92.0972157 43.6696591 92.5632484 43.9407386 92.5529085 43.9606818 92.594268 43.9363068 92.5950065 44.3004545 82.8533725 49.9628409"></polyline>
                    </g>
                    <g id="Group-157" transform="translate(77.000000, 84.000000)">
                        <g id="Group-99-Copy-3" stroke="#4C4F58" stroke-width="3" fill="#F5F5F5">
                            <ellipse id="Oval-83" cx="22.912037" cy="22.876506" rx="22.912037" ry="22.876506"></ellipse>
                        </g>
                        <g id="noun_41223_cc" transform="translate(14.000000, 2.000000)" fill="#4C4F58">
                            <path d="M8.99004766,6.68688694 C10.6486609,6.68688694 11.9934593,5.32850466 11.9934593,3.6531378 C11.9934593,1.97777094 10.6486609,0.619388663 8.99004766,0.619388663 C7.3310081,0.619388663 5.98663602,1.97777094 5.98663602,3.6531378 C5.98663602,5.32893534 7.3310081,6.68688694 8.99004766,6.68688694 L8.99004766,6.68688694 Z M16.8648361,16.5629377 L15.1375759,11.9373747 C14.5351028,9.69824043 12.4999972,8.03880893 10.0994851,8.03880893 L7.88018388,8.03880893 C6.00283841,8.03880893 4.34848901,9.05350413 3.42836375,10.5673639 C3.30428754,10.7396381 2.94186564,11.594549 2.88004072,11.8034315 L1.13444628,16.5633684 C0.269750248,18.6823414 1.88146178,20.06355 1.88146178,20.06355 C2.06565738,20.2444379 2.28055225,20.3714902 2.50781211,20.4528897 L2.50781211,23.1347688 C2.50781211,23.2962759 2.63785761,23.4276349 2.79774963,23.4276349 L4.62009224,23.4276349 L4.62009224,23.9814966 C4.62009224,23.9819273 4.62051862,23.9819273 4.620945,23.982358 L4.620945,37.6023583 C4.620945,38.6097319 5.38501565,39.3815204 6.32688623,39.3815204 C7.24146857,39.3815204 7.9859258,38.6540925 8.02899005,37.7410391 L8.02899005,25.7744406 C8.02899005,25.2477122 8.44470929,24.8200414 8.96233305,24.8053981 C8.971287,24.7976457 8.98024095,24.7933389 8.98919491,24.7933389 C8.99814886,24.7933389 9.00710281,24.7980764 9.01605676,24.8053981 C9.5341069,24.8200414 9.94939976,25.2472815 9.94939976,25.7744406 L9.94939976,37.798751 C10.0440558,38.7053441 10.7663414,39.3763522 11.6446815,39.3763522 C12.5869785,39.3763522 13.3506227,38.6045637 13.3506227,37.6527486 L13.3506227,23.9724522 C13.3506227,23.9608237 13.3493436,23.9487645 13.3489172,23.9362746 L13.3489172,23.4272043 L15.2215725,23.4272043 C15.3818909,23.4272043 15.5119364,23.2958452 15.5119364,23.1343381 L15.5119364,20.4468601 C15.7315215,20.3650299 15.9387415,20.238839 16.1173942,20.0631193 C16.1178206,20.0631193 17.7299585,18.6819107 16.8648361,16.5629377 L16.8648361,16.5629377 Z M9.40619329,11.1212255 L13.4832265,11.1212255 L14.7090653,13.2746534 L9.40619329,13.2746534 L9.40619329,11.1212255 L9.40619329,11.1212255 Z M4.53780115,11.1212255 L8.97981457,11.1212255 L8.97981457,13.2746534 L3.31196236,13.2746534 L4.53780115,11.1212255 L4.53780115,11.1212255 Z M14.9324878,16.6029914 L13.7876609,17.4708229 L13.7087809,17.5634203 C13.0252958,18.2352897 13.0103725,19.3399982 13.6759497,20.0303872 C14.0191846,20.3865642 14.4762625,20.5596998 14.9320614,20.5545315 L14.9320614,22.8419026 L3.08811353,22.8419026 L3.08811353,20.5558236 C3.53709032,20.5553929 3.98564072,20.3805346 4.32333266,20.0299565 C4.98848345,19.3395675 4.9735602,18.2352897 4.2905015,17.5629896 L4.21162144,17.4703922 L3.08811353,16.6184961 L3.08811353,13.9176669 L14.9324878,13.9176669 L14.9324878,16.6029914 L14.9324878,16.6029914 Z M12.5443406,21.5179751 L12.1533513,21.5179751 L12.1533513,19.3089889 L12.4961598,19.3089889 L11.8327145,18.2904175 L11.1816342,19.3089889 L11.5214581,19.3089889 L11.5214581,21.5179751 L10.4550849,21.5179751 L10.4550849,19.3089889 L10.7970406,19.3089889 L10.1344481,18.2904175 L9.48294145,19.3089889 L9.82361804,19.3089889 L9.82361804,21.5179751 L9.43476066,21.5179751 L9.43476066,21.8616622 L12.544767,21.8616622 L12.544767,21.5179751 L12.5443406,21.5179751 Z" id="Shape"></path>
                        </g>
                        <g id="noun_162332_cc" transform="translate(32.000000, 9.000000)" fill="#4C4F58">
                            <path d="M7.01388889,18.4021178 C6.66752401,18.4021178 6.34280693,18.269887 6.10468107,18.0274639 L0.432956104,12.0770785 C-0.108239026,11.5701938 -0.129886831,10.7106937 0.389660494,10.1597321 C0.887560014,9.60877049 1.73182442,9.58673202 2.27301955,10.1156552 L6.42939815,13.1349248 C6.66752401,13.3553094 7.03553669,13.3112325 7.23036694,13.0467709 L17.0801183,0.661153933 C17.5130744,0.0661153933 18.3573388,-0.0661153932 18.9418296,0.39669236 C19.5263203,0.837461648 19.6562071,1.69696176 19.2016032,2.2920003 L8.07463134,17.8511562 C7.83650549,18.1596947 7.4901406,18.3580409 7.12212791,18.3800793 C7.0788323,18.4021178 7.0571845,18.4021178 7.01388889,18.4021178 L7.01388889,18.4021178 Z" id="Shape"></path>
                        </g>
                    </g>
                </g>
            </g>
        </g>
    </g>
</svg>