<?xml version="1.0" encoding="UTF-8" standalone="no"?>
<svg width="267px" height="218px" viewBox="0 0 267 218" version="1.1" xmlns="http://www.w3.org/2000/svg" xmlns:xlink="http://www.w3.org/1999/xlink">
    <!-- Generator: Sketch 39.1 (31720) - http://www.bohemiancoding.com/sketch -->
    <title>1</title>
    <desc>Created with Sketch.</desc>
    <defs></defs>
    <g id="Page-1" stroke="none" stroke-width="1" fill="none" fill-rule="evenodd">
        <g id="1">
            <path d="M26.6194215,145.223951 L25.3272946,144.150396 L28.1659161,137.249932 C33.0113441,125.47143 41.9854151,118.15447 51.5861226,118.15447 L56.1126817,118.15447 L56.1126817,120.2815 L51.5861226,120.2815 C42.5150129,120.2815 34.0360882,127.194586 29.458043,138.323295 L26.6194215,145.223951" id="Fill-1" fill="#225697"></path>
            <path d="M85.0367247,145.223951 L86.3288516,144.150396 L83.4902301,137.249932 C78.6448022,125.47143 69.6707312,118.15447 60.0698323,118.15447 L55.5434645,118.15447 L55.5434645,120.2815 L60.0698323,120.2815 C69.1411333,120.2815 77.6198667,127.194586 82.1981032,138.323295 L85.0367247,145.223951" id="Fill-2" fill="#11488C"></path>
            <path d="M57.0080409,138.287918 L21.7236559,138.287918 C20.1769699,138.287918 18.9231226,140.069589 18.9231226,142.267374 L18.9231226,202.738088 C18.9231226,204.937211 20.1769699,206.717544 21.7236559,206.717544 L57.0080409,206.717544 L59.2969677,170.969368 L57.0080409,138.287918" id="Fill-3" fill="#2A609E"></path>
            <path d="M92.2418968,138.287918 L56.9573204,138.287918 L56.9573204,206.717544 L92.2418968,206.717544 C93.7883914,206.717544 95.0420473,204.937211 95.0420473,202.738088 L95.0420473,142.267374 C95.0420473,140.069589 93.7883914,138.287918 92.2418968,138.287918" id="Fill-4" fill="#225697"></path>
            <path d="M211.921441,142.936481 L174.965578,142.936481 C172.92011,142.936481 171.261456,144.593281 171.261456,146.637318 L171.261456,202.87386 C171.261456,204.918088 172.92011,206.574123 174.965578,206.574123 L211.921441,206.574123 L214.949355,173.329314 L211.921441,142.936481" id="Fill-5" fill="#8E2F7D"></path>
            <path d="M248.878452,142.936481 L211.921441,142.936481 L211.921441,206.574123 L248.878452,206.574123 C250.922581,206.574123 252.582,204.918088 252.582,202.87386 L252.582,146.637318 C252.582,144.593281 250.922581,142.936481 248.878452,142.936481" id="Fill-6" fill="#822874"></path>
            <polygon id="Fill-7" fill="#822874" points="176.815822 206.717544 182.175535 206.717544 182.175535 142.936481 176.815822 142.936481"></polygon>
            <polygon id="Fill-8" fill="#822874" points="189.78628 206.717544 195.145419 206.717544 195.145419 142.936481 189.78628 142.936481"></polygon>
            <polygon id="Fill-9" fill="#822874" points="202.757312 206.717544 208.116452 206.717544 208.116452 142.936481 202.757312 142.936481"></polygon>
            <polygon id="Fill-10" fill="#752669" points="215.72643 206.717544 221.087484 206.717544 221.087484 142.936481 215.72643 142.936481"></polygon>
            <polygon id="Fill-11" fill="#752669" points="228.697462 206.717544 234.056602 206.717544 234.056602 142.936481 228.697462 142.936481"></polygon>
            <polygon id="Fill-12" fill="#752669" points="241.668495 206.717544 247.027634 206.717544 247.027634 142.936481 241.668495 142.936481"></polygon>
            <path d="M202.912344,146.328293 C202.912344,147.629409 201.857742,148.684032 200.554323,148.684032 C199.252817,148.684032 198.196301,147.629409 198.196301,146.328293 C198.196301,145.026986 199.252817,143.972363 200.554323,143.972363 C201.857742,143.972363 202.912344,145.026986 202.912344,146.328293" id="Fill-13" fill="#2A609E"></path>
            <path d="M201.340968,146.328293 L199.769591,146.328293 L199.769591,136.892909 C199.769591,130.197823 205.220602,124.751074 211.921441,124.751074 L212.445871,125.737619 L211.921441,126.32163 C206.087634,126.32163 201.340968,131.063895 201.340968,136.892909 L201.340968,146.328293" id="Fill-14" fill="#2A609E"></path>
            <path d="M220.930538,146.328293 C220.930538,147.629409 221.98514,148.684032 223.288559,148.684032 C224.590065,148.684032 225.646581,147.629409 225.646581,146.328293 C225.646581,145.026986 224.590065,143.972363 223.288559,143.972363 C221.98514,143.972363 220.930538,145.026986 220.930538,146.328293" id="Fill-15" fill="#225697"></path>
            <path d="M222.501914,146.328293 L224.075204,146.328293 L224.075204,136.892909 C224.075204,130.197823 218.62228,124.751074 211.921441,124.751074 L211.921441,126.32163 C217.755247,126.32163 222.501914,131.063895 222.501914,136.892909 L222.501914,146.328293" id="Fill-16" fill="#225697"></path>
            <path d="M241.668495,153.676232 L222.656946,153.676232 C221.031978,153.676232 219.686452,154.934512 219.577355,156.554023 L216.448,203.430333 C216.390581,204.281298 216.689161,205.118877 217.272925,205.740368 C217.856688,206.363772 218.672043,206.717544 219.525677,206.717544 L241.668495,206.717544 L248.574129,182.884598 L241.668495,153.676232" id="Fill-17" fill="#47AD46"></path>
            <path d="M266.887075,203.430333 L263.75772,156.554023 C263.648624,154.934512 262.303097,153.676232 260.678129,153.676232 L241.668495,153.676232 L241.668495,206.717544 L263.809398,206.717544 C264.663032,206.717544 265.478387,206.363772 266.062151,205.740368 C266.645914,205.118877 266.944495,204.281298 266.887075,203.430333" id="Fill-18" fill="#36AA47"></path>
            <path d="M231.112903,159.210754 C231.112903,160.735225 229.874559,161.971132 228.349118,161.971132 C226.823677,161.971132 225.587247,160.735225 225.587247,159.210754 C225.587247,157.686284 226.823677,156.450377 228.349118,156.450377 C229.874559,156.450377 231.112903,157.686284 231.112903,159.210754" id="Fill-19" fill="#EFA244"></path>
            <path d="M229.269742,159.210754 L227.428495,159.210754 L227.428495,148.155668 C227.428495,140.311111 233.815441,133.929256 241.668495,133.929256 L242.280968,135.08523 L241.668495,135.769444 C234.831763,135.769444 229.269742,141.325767 229.269742,148.155668 L229.269742,159.210754" id="Fill-20" fill="#EFA244"></path>
            <path d="M252.222172,159.210754 C252.222172,160.735225 253.460516,161.971132 254.985957,161.971132 C256.511398,161.971132 257.747828,160.735225 257.747828,159.210754 C257.747828,157.686284 256.511398,156.450377 254.985957,156.450377 C253.460516,156.450377 252.222172,157.686284 252.222172,159.210754" id="Fill-21" fill="#ED9736"></path>
            <path d="M254.065333,159.210754 L255.906581,159.210754 L255.906581,148.155668 C255.906581,140.311111 249.519634,133.929256 241.668495,133.929256 L241.668495,135.769444 C248.503312,135.769444 254.065333,141.325767 254.065333,148.155668 L254.065333,159.210754" id="Fill-22" fill="#ED9736"></path>
            <path d="M147.096903,95.7167246 L156.897239,118.15447 C156.897239,118.118328 156.75369,115.753984 158.355882,112.892639 C162.094456,106.215911 169.614669,95.4639211 169.614669,95.4639211 L147.096903,95.7167246" id="Fill-23" fill="#2A5A7E"></path>
            <polyline id="Fill-24" fill="#2A5A7E" points="156.910062 78.9460228 126.36354 74.1167491 116.696417 82.1144807 115.434723 164.471056 126.36354 165.7345 156.90432 165.7345 156.910062 78.9460228"></polyline>
            <polyline id="Fill-25" fill="#366389" points="95.8189312 78.9460228 95.8244817 165.7345 126.36354 165.7345 126.36354 74.1167491 95.8189312 78.9460228"></polyline>
            <polyline id="Fill-26" fill="#751D20" points="95.7280172 162.212461 126.36354 162.212461 132.40731 164.792893 126.36354 167.495711 95.7280172 167.495711 95.7280172 162.212461"></polyline>
            <polygon id="Fill-27" fill="#5F181B" points="126.36354 167.495711 156.998105 167.495711 156.998105 162.212461 126.36354 162.212461"></polygon>
            <path d="M209.083011,11.6561158 L209.869656,9.18487544 C210.110817,8.42665614 209.691656,7.61489298 208.929892,7.3745193 C208.382495,7.20107544 207.802559,7.3731807 207.433161,7.76997895 C207.433161,7.76997895 207.433161,7.76997895 207.433161,7.76615439 C206.642688,7.87477193 206.786237,7.11731754 206.786237,7.11731754 C207.031226,6.35909825 206.612065,5.54618772 205.844559,5.30466667 C205.159355,5.08360702 204.426301,5.41768246 204.118151,6.05141228 C204.118151,6.05141228 204.116237,6.05026491 204.112409,6.04548421 C203.467398,6.36177544 203.503763,5.64715614 203.503763,5.64715614 C203.503763,5.64715614 203.499935,5.6475386 203.498022,5.64639123 C203.628172,4.94152456 203.224323,4.22939123 202.519978,4.01081754 C201.884538,3.80773333 201.220387,4.07124561 200.873957,4.60477193 L200.872043,4.60362456 C200.232774,5.14441754 199.930366,4.3988193 199.930366,4.3988193 L199.924624,4.39920175 C199.804043,3.94140175 199.457613,3.55416491 198.971462,3.40118246 C198.213527,3.16004386 197.402,3.58055439 197.155097,4.34221579 C196.561763,5.57735789 195.775118,4.65487368 195.775118,4.65487368 C195.775118,4.65487368 195.773204,4.65735965 195.775118,4.66118421 C195.600946,4.39920175 195.340645,4.18712982 195.017183,4.08635263 C194.255419,3.84330175 193.441978,4.26342982 193.200817,5.02126667 L192.460108,7.34602632 C188.649951,16.1419439 191.939505,15.8296684 192.687871,17.8373719 C193.128086,19.002907 192.819935,20.9159526 192.490731,22.3163158 C192.255312,23.3231316 186.845834,38.4630404 186.845834,38.4630404 C186.845834,38.4630404 195.866989,41.5724088 197.844129,42.1992544 C198.064237,41.4412263 201.463462,25.5146053 201.656774,24.9374789 C203.174559,20.3621561 203.921011,20.9918702 206.012989,19.3578263 C207.743226,18.0113895 208.696387,13.8083877 209.083011,11.6561158" id="Fill-28" fill="#F3B484"></path>
            <path d="M182.077731,49.0421596 L161.160817,71.6921684 C160.991813,71.8734526 160.784338,72.0706088 160.551406,72.2801947 C157.467604,75.0748018 151.463645,81.1763158 142.667574,76.1326754 C141.925716,76.4673246 141.246445,76.9811544 140.699047,77.5278754 C140.42554,77.8011404 140.155477,78.1046193 139.912976,78.4308544 C140.38171,80.0251228 140.928916,81.8391123 141.290084,83.507386 C143.320049,92.9133211 141.928778,96.4388018 149.55694,100.434321 C156.916378,104.29426 165.949017,101.666404 170.158622,94.6179281 L194.908086,57.9547263 L182.077731,49.0421596" id="Fill-29" fill="#2A5A7E"></path>
            <path d="M153.37437,87.8434825 C152.71309,85.9530018 153.704148,83.8923281 155.595925,83.2289579 C157.485213,82.5644404 159.552884,83.5603561 160.213015,85.4443351 C160.874677,87.3336684 159.883045,89.3989316 157.994331,90.0617281 C156.106957,90.7214649 154.034501,89.7276526 153.37437,87.8434825" id="Fill-30" fill="#2A5A7E"></path>
            <path d="M186.24006,60.9738351 C182.110652,59.723586 179.783062,55.3672193 181.030019,51.2441509 L187.315525,30.524207 C187.505774,29.9034807 188.165523,29.5514298 188.786226,29.7401719 L201.474946,33.580414 C201.773527,33.672586 202.028086,33.8775825 202.171634,34.1525684 C202.320925,34.4292754 202.353462,34.7518772 202.261591,35.0494281 L195.976086,55.7693719 C194.724344,59.893014 190.366215,62.2233193 186.24006,60.9738351" id="Fill-31" fill="#2A5A7E"></path>
            <path d="M186.139576,52.7906123 C186.53577,51.4875842 187.912686,50.7509737 189.217828,51.1456684 C190.525075,51.5420842 191.265785,52.9191175 190.865763,54.2223368 C190.46957,55.5267035 189.090548,56.2608281 187.786363,55.8697667 C186.480073,55.4744982 185.742617,54.0961263 186.139576,52.7906123" id="Fill-32" fill="#2A5A7E"></path>
            <path d="M105.662905,95.7167246 L95.8623785,118.15447 C95.8623785,118.118328 96.0061183,115.753984 94.4039269,112.892639 C90.6651613,106.215911 83.1451398,95.4639211 83.1451398,95.4639211 L105.662905,95.7167246" id="Fill-33" fill="#366389"></path>
            <path d="M43.6758409,11.6561158 L42.8891957,9.18487544 C42.6489914,8.42665614 43.0685355,7.61489298 43.8299161,7.3745193 C44.3780796,7.20107544 44.9574409,7.3731807 45.3260731,7.76997895 C45.3260731,7.76997895 45.3260731,7.76997895 45.3276043,7.76615439 C46.1165462,7.87477193 45.9726151,7.11731754 45.9726151,7.11731754 C45.7283914,6.35909825 46.1475527,5.54618772 46.9154409,5.30466667 C47.6006452,5.08360702 48.3338903,5.41768246 48.6407011,6.05141228 C48.6407011,6.05141228 48.6431892,6.05026491 48.6472086,6.04548421 C49.2914538,6.36177544 49.256428,5.64715614 49.256428,5.64715614 C49.256428,5.64715614 49.2594903,5.6475386 49.2617871,5.64639123 C49.1316366,4.94152456 49.5356774,4.22939123 50.2398301,4.01081754 C50.874314,3.80773333 51.5398043,4.07124561 51.8858516,4.60477193 L51.8883398,4.60362456 C52.5260774,5.14441754 52.828486,4.3988193 52.828486,4.3988193 L52.8344194,4.39920175 C52.9561484,3.94140175 53.3014301,3.55416491 53.787772,3.40118246 C54.5468559,3.16004386 55.3578086,3.58055439 55.6037548,4.34221579 C56.1986194,5.57735789 56.9850731,4.65487368 56.9850731,4.65487368 C56.9850731,4.65487368 56.9862215,4.65735965 56.9846903,4.66118421 C57.1588624,4.39920175 57.4187806,4.18712982 57.7432,4.08635263 C58.5041978,3.84330175 59.3182129,4.26342982 59.5593742,5.02126667 L60.2998925,7.34602632 C64.1098581,16.1419439 60.8201118,15.8296684 60.0723204,17.8373719 C59.6321054,19.002907 59.9392989,20.9159526 60.268886,22.3163158 C60.505071,23.3231316 65.9139742,38.4630404 65.9139742,38.4630404 C65.9139742,38.4630404 56.8935849,41.5724088 54.9162538,42.1992544 C54.6959548,41.4412263 51.2955806,25.5146053 51.1032258,24.9374789 C49.5856323,20.3621561 48.8387978,20.9918702 46.7462452,19.3578263 C45.017157,18.0113895 44.0628473,13.8083877 43.6758409,11.6561158" id="Fill-34" fill="#F3B484"></path>
            <path d="M70.681886,49.0421596 L91.5989914,71.6921684 C91.7679957,71.8734526 91.975471,72.0706088 92.2084022,72.2801947 C95.2922043,75.0748018 101.296163,81.1763158 110.092043,76.1326754 C110.833901,76.4673246 111.513363,76.9811544 112.060761,77.5278754 C112.334077,77.8011404 112.60414,78.1046193 112.846832,78.4308544 C112.378099,80.0251228 111.830892,81.8391123 111.469533,83.507386 C109.439759,92.9133211 110.830839,96.4388018 103.20306,100.434321 C95.8432387,104.29426 86.8106,101.666404 82.6011871,94.6179281 L57.8515312,57.9547263 L70.681886,49.0421596" id="Fill-35" fill="#366389"></path>
            <path d="M99.3852473,87.8434825 C100.046718,85.9530018 99.0556602,83.8923281 97.1636925,83.2289579 C95.2744043,82.5644404 93.2067333,83.5603561 92.5466022,85.4443351 C91.8849398,87.3336684 92.8767634,89.3989316 94.7654774,90.0617281 C96.6526602,90.7214649 98.7251161,89.7276526 99.3852473,87.8434825" id="Fill-36" fill="#366389"></path>
            <path d="M56.7841054,55.7693719 C58.0354645,59.893014 62.3930194,62.2233193 66.5197484,60.9738351 C70.649157,59.723586 72.9767462,55.3672193 71.7297892,51.2441509 L65.4440925,30.524207 C65.2540344,29.9034807 64.5940946,29.5514298 63.9733914,29.7401719 L51.285628,33.580414 C50.9860903,33.672586 50.7321054,33.8775825 50.5874086,34.1525684 C50.4396495,34.4292754 50.405772,34.7518772 50.4986,35.0494281 L56.7841054,55.7693719" id="Fill-37" fill="#366389"></path>
            <path d="M66.6200409,52.7906123 C66.2240387,51.4875842 64.8471226,50.7509737 63.5414065,51.1456684 C62.2356903,51.5420842 61.4945978,52.9191175 61.893471,54.2223368 C62.2900473,55.5267035 63.6690688,56.2608281 64.9732538,55.8697667 C66.2797355,55.4744982 67.0171914,54.0961263 66.6200409,52.7906123" id="Fill-38" fill="#366389"></path>
            <path d="M106.444574,159.269079 L101.906723,159.269079 C101.421912,159.269079 101.028398,159.662435 101.028398,160.146625 L101.028398,163.559089 C101.028398,164.044618 101.421912,164.436061 101.906723,164.436061 L106.444574,164.436061 C106.927471,164.436061 107.322708,164.044618 107.322708,163.559089 L107.322708,160.146625 C107.322708,159.662435 106.927471,159.269079 106.444574,159.269079" id="Fill-40" fill="#302821"></path>
            <path d="M145.382361,160.146625 C145.382361,159.662435 145.777024,159.269079 146.263557,159.269079 L150.801409,159.269079 C151.284114,159.269079 151.676862,159.662435 151.676862,160.146625 L151.676862,163.559089 C151.676862,164.044618 151.284114,164.436061 150.801409,164.436061 L146.263557,164.436061 C145.777024,164.436061 145.382361,164.044618 145.382361,163.559089 L145.382361,160.146625" id="Fill-42" fill="#27201A"></path>
            <polyline id="Fill-43" fill="#FFFFFF" points="112.675148 76.3141509 123.184039 84.9553649 126.353587 109.478835 128.771516 74.7902544 112.675148 76.3141509"></polyline>
            <polyline id="Fill-44" fill="#EFEEED" points="140.041978 76.2562088 129.535768 84.8962754 126.36354 109.421084 126.36354 74.7311649 140.041978 76.2562088"></polyline>
            <path d="M118.852897,65.513207 L118.852897,73.9989526 C118.852897,74.4039737 118.289039,74.7525825 117.504499,74.8330895 C115.724308,75.0130351 111.836252,75.646 111.192006,76.5071 C110.546039,77.3685825 110.818398,78.3398298 111.911662,79.0733807 C114.761385,80.9904421 121.631611,82.1144807 126.358181,82.1144807 L129.983065,75.6672263 L129.990338,75.6672263 L126.36354,65.513207 L118.852897,65.513207" id="Fill-45" fill="#F3B484"></path>
            <path d="M140.809867,79.0733807 C141.905045,78.3398298 142.176447,77.3685825 141.531437,76.5071 C140.884512,75.646 136.997987,75.0130351 135.217987,74.8330895 C134.437084,74.7525825 133.876097,74.4066509 133.876097,74.0002912 L133.876097,65.513207 L126.36354,65.513207 L126.36354,82.1144807 C131.089918,82.1144807 137.959378,80.9904421 140.809867,79.0733807" id="Fill-46" fill="#F1AA7B"></path>
            <path d="M113.243791,75.3402263 C113.087802,75.1899211 112.867312,75.1245211 112.652372,75.1658263 L108.411378,75.7643702 C108.130981,75.8202088 107.884843,75.9936526 107.740912,76.2389982 C107.595258,76.4856825 107.558701,76.783807 107.64617,77.054586 L113.628884,94.7999772 C113.772049,95.2573947 114.174751,95.5821 114.650374,95.6287596 C115.128677,95.6761842 115.587841,95.4344719 115.818284,95.0133877 L123.184039,84.9553649 L113.243791,75.3402263" id="Fill-47" fill="#294863"></path>
            <path d="M139.475249,75.2815193 C139.631047,75.1298754 139.85326,75.0652404 140.062841,75.1067368 L144.308428,75.7079579 C144.589783,75.7615018 144.834963,75.9332246 144.977172,76.1799088 C145.124357,76.4269754 145.156512,76.7245263 145.073637,76.9968351 L139.090923,94.7408877 C138.945843,95.1983053 138.545822,95.5232018 138.064839,95.5702439 C137.590363,95.6169035 137.129477,95.3740439 136.8998,94.9542982 L129.535768,84.8962754 L139.475249,75.2815193" id="Fill-48" fill="#294863"></path>
            <path d="M122.477972,111.139651 C122.477972,112.10803 121.693432,112.892639 120.724194,112.892639 C119.754955,112.892639 118.970415,112.10803 118.970415,111.139651 C118.970415,110.173949 119.754955,109.388002 120.724194,109.388002 C121.693432,109.388002 122.477972,110.173949 122.477972,111.139651" id="Fill-49" fill="#FFFFFF"></path>
            <path d="M122.477972,131.180161 C122.477972,132.148732 121.693432,132.932002 120.724194,132.932002 C119.754955,132.932002 118.970415,132.148732 118.970415,131.180161 C118.970415,130.211782 119.754955,129.428512 120.724194,129.428512 C121.693432,129.428512 122.477972,130.211782 122.477972,131.180161" id="Fill-50" fill="#FFFFFF"></path>
            <path d="M122.477972,151.217995 C122.477972,152.186565 121.693432,152.971174 120.724194,152.971174 C119.754955,152.971174 118.970415,152.186565 118.970415,151.217995 C118.970415,150.252293 119.754955,149.466346 120.724194,149.466346 C121.693432,149.466346 122.477972,150.252293 122.477972,151.217995" id="Fill-51" fill="#FFFFFF"></path>
            <path d="M109.590198,38.0264667 L107.166335,36.4995105 C106.748705,36.2348509 106.222935,36.1585509 105.737168,36.2897333 C105.248912,36.4218719 104.853292,36.7467684 104.652133,37.1787526 C103.616097,39.4084719 103.474462,41.9082053 104.250389,44.2270368 L104.817118,45.9188316 C105.095219,48.1655702 105.366813,50.1042404 106.650135,51.1571421 L107.014174,51.3093596 C107.527695,51.5225789 108.126196,51.4470439 108.557032,51.1131596 L110.322486,49.7449228 L109.590198,38.0264667" id="Fill-52" fill="#F3B484"></path>
            <path d="M148.446067,37.1787526 C148.244908,36.7467684 147.847374,36.4218719 147.361032,36.2897333 C146.875073,36.1585509 146.351026,36.2348509 145.931099,36.4995105 L143.509916,38.0264667 L142.775714,49.7449228 L144.541933,51.1131596 C144.972004,51.4470439 145.571462,51.5225789 146.08326,51.3093596 L146.449213,51.1571421 C147.732535,50.1042404 148.002789,48.1655702 148.282422,45.9188316 L148.847811,44.2270368 C149.624886,41.9082053 149.480572,39.4084719 148.446067,37.1787526" id="Fill-53" fill="#F1AA7B"></path>
            <path d="M126.601256,12.2992158 L115.176335,12.2992158 C112.865015,12.2992158 108.646224,13.6035825 107.615738,15.6676982 L106.206092,19.552114 C104.776733,22.4073404 105.604146,25.5522772 105.604146,28.7436825 L106.709469,43.1204 C106.709469,48.2231298 108.201415,54.3192895 110.99946,58.5886474 L112.679933,61.1486175 C115.506114,65.4588982 118.106062,66.9518158 123.26366,66.9518158 L126.601256,66.9518158 L139.448262,18.0150228 L126.601256,12.2992158" id="Fill-54" fill="#F5C190"></path>
            <path d="M146.997568,19.552114 L145.053731,15.6676982 C144.020566,13.6035825 140.337305,12.2992158 138.02809,12.2992158 L126.601256,12.2992158 L126.601256,66.9518158 L129.939809,66.9518158 C135.098746,66.9518158 137.697163,65.4588982 140.523918,61.1486175 L142.203243,58.5886474 C145.003011,54.3192895 146.493617,48.2231298 146.493617,43.1204 L147.597983,28.7436825 C147.597983,25.5522772 148.425587,22.4073404 146.997568,19.552114" id="Fill-55" fill="#F3B484"></path>
            <path d="M118.47948,37.3573596 C118.47948,38.5150544 117.541822,39.4518807 116.382908,39.4518807 C115.225525,39.4518807 114.287867,38.5150544 114.287867,37.3573596 C114.287867,36.2002386 115.225525,35.2626474 116.382908,35.2626474 C117.541822,35.2626474 118.47948,36.2002386 118.47948,37.3573596" id="Fill-56" fill="#1A1D1D"></path>
            <path d="M116.463103,36.7551825 C116.463103,37.1244439 116.162609,37.4244807 115.793594,37.4244807 C115.424578,37.4244807 115.124275,37.1244439 115.124275,36.7551825 C115.124275,36.3870684 115.424578,36.0872228 115.793594,36.0872228 C116.162609,36.0872228 116.463103,36.3870684 116.463103,36.7551825" id="Fill-57" fill="#FAF9F8"></path>
            <path d="M138.643434,37.3573596 C138.643434,38.5150544 137.704819,39.4518807 136.545714,39.4518807 C135.38948,39.4518807 134.449333,38.5150544 134.449333,37.3573596 C134.449333,36.2002386 135.38948,35.2626474 136.545714,35.2626474 C137.704819,35.2626474 138.643434,36.2002386 138.643434,37.3573596" id="Fill-58" fill="#1A1D1D"></path>
            <path d="M136.62591,36.7551825 C136.62591,37.1244439 136.327712,37.4244807 135.958314,37.4244807 C135.587768,37.4244807 135.289187,37.1244439 135.289187,36.7551825 C135.289187,36.3870684 135.587768,36.0872228 135.958314,36.0872228 C136.327712,36.0872228 136.62591,36.3870684 136.62591,36.7551825" id="Fill-59" fill="#FAF9F8"></path>
            <path d="M142.956202,30.8661228 C142.914669,30.7318807 142.820118,30.6175263 142.697624,30.5538474 C142.697624,30.5538474 140.665361,29.3733965 139.925417,29.1219316 C138.643434,28.6857404 137.096557,28.5576175 135.289187,29.0423807 C134.390957,29.2823719 131.705262,30.0310298 131.705262,30.0310298 C131.417591,30.1111544 131.181981,30.3278158 131.074032,30.6142754 C130.966467,30.9028386 130.995751,31.226014 131.156908,31.4860842 L131.454531,31.9716123 C131.725742,32.4160263 132.273905,32.5871754 132.740151,32.3762509 L134.248366,31.6906982 C136.509157,30.6655246 139.089774,30.6112158 141.391908,31.5405842 L141.996725,31.7834439 C142.305067,31.9096544 142.656282,31.7757947 142.813419,31.4734632 L142.917923,31.2759246 C142.983189,31.1502877 142.995822,31.0024684 142.956202,30.8661228" id="Fill-60" fill="#4C2E1D"></path>
            <path d="M121.941292,31.4860842 C122.101301,31.226014 122.13269,30.9028386 122.024168,30.6142754 C121.914114,30.3278158 121.680609,30.1111544 121.391598,30.0310298 C121.391598,30.0310298 118.707434,29.2823719 117.809204,29.0423807 C116.000686,28.5576175 114.455148,28.6857404 113.172783,29.1219316 C112.43303,29.3733965 110.400768,30.5538474 110.400768,30.5538474 C110.27789,30.6175263 110.185445,30.7318807 110.143146,30.8661228 C110.100847,31.0024684 110.116351,31.1502877 110.180852,31.2759246 L110.283632,31.4734632 C110.442301,31.7757947 110.792942,31.9096544 111.102241,31.7834439 L111.707441,31.5405842 C114.007852,30.6112158 116.590191,30.6655246 118.849834,31.6906982 L120.360155,32.3762509 C120.824103,32.5871754 121.370735,32.4160263 121.644052,31.9716123 L121.941292,31.4860842" id="Fill-61" fill="#4C2E1D"></path>
            <path d="M124.540284,56.6966368 C123.921495,56.4505263 122.982114,55.8506439 122.982497,55.1872737 L122.982497,54.3330579 C122.982497,54.2825737 120.87291,55.5850281 120.87291,55.5850281 C120.457385,55.4190421 119.985781,55.6196404 119.819073,56.0349877 C119.65294,56.4505263 119.855056,56.9220947 120.269815,57.089993 L120.456428,57.1632333 C122.436439,57.9593158 124.517699,58.3587912 126.598959,58.3587912 L126.598959,57.401886 C126.344591,57.3986351 125.333819,57.0161789 124.540284,56.6966368" id="Fill-62" fill="#F5C190"></path>
            <path d="M127.868692,5.73014912 C128.179714,5.18801754 128.356948,4.79772105 128.356948,4.79772105 C128.356948,4.79772105 124.103514,4.6045807 119.437809,0.489352632 C119.363929,0.422805263 119.259809,0.405212281 119.168703,0.443649123 C119.077789,0.481512281 119.015202,0.569477193 119.010226,0.667194737 C118.941514,1.84707193 119.007163,3.29027018 119.724714,4.9472614 C119.742514,4.9908614 119.737346,5.0405807 119.707871,5.07748772 C119.681075,5.11649825 119.635331,5.13542982 119.58729,5.1291193 C117.331475,4.8382614 114.48692,1.5914 113.283985,0.0965701754 C113.21068,0.00497192982 113.08608,-0.0246684211 112.978131,0.0214175439 C112.87248,0.068077193 112.809127,0.181284211 112.826927,0.296021053 C113.101966,2.19453333 113.546009,3.80084912 114.073692,5.1570386 C114.092641,5.20580175 114.081923,5.2599193 114.043834,5.29720877 C114.009574,5.33239474 113.954834,5.34444211 113.906411,5.32665789 C111.953961,4.61777544 110.356555,3.44612105 109.158596,2.27771754 C109.0784,2.19874035 108.96337,2.16661404 108.851402,2.18803158 C108.74154,2.20944912 108.647563,2.28594035 108.603733,2.39054211 C108.044469,3.72340175 106.475772,7.89465965 105.604146,14.5384965 C104.748215,21.0639632 105.639938,30.4188404 106.320357,38.6735825 C106.320357,38.6818053 106.326099,38.6892632 106.326673,38.6982509 L107.63526,52.5663018 C107.969249,56.2401754 108.842406,59.8461632 110.229084,63.2658947 L110.372441,63.6198579 C111.517191,66.4462088 113.91866,68.3313351 116.474204,69.9998 C120.920376,72.901686 126.598959,72.901686 126.598959,72.901686 L129.822482,71.9870421 L129.276998,55.1121211 L126.598959,54.3319105 C124.130884,54.3743632 121.661277,54.6076614 119.225548,55.0319965 C116.936047,55.4297509 114.595634,55.5060509 112.277424,55.2517175 C110.465077,55.0547526 109.010454,53.6702614 108.727759,51.8744386 L107.324813,43.0364509 C106.720187,39.2417211 106.571854,35.2963035 106.898378,31.4688737 C107.179542,28.1992561 107.603871,24.9906404 107.963125,22.9724193 C108.170409,21.8164456 109.25506,21.0310719 110.417802,21.1989702 C113.328198,21.6183333 119.269953,22.3157421 126.623458,22.3157421 L128.279241,20.0072368 L127.962095,5.81352456 L127.868692,5.73014912" id="Fill-63" fill="#5A3725"></path>
            <path d="M146.782245,12.9331368 C143.164443,6.12675614 133.439135,4.01368596 126.601256,4.62102632 L126.601256,22.3157421 C133.955718,22.3157421 139.900153,21.6183333 142.807869,21.1989702 C143.972716,21.0310719 145.055262,21.8145333 145.262738,22.9710807 C145.620077,24.9734298 146.038473,28.1451386 146.319062,31.3885579 C146.655348,35.2867421 146.506058,39.1925754 145.886695,43.0565298 L144.472265,51.8744386 C144.188039,53.6702614 142.734181,55.0547526 140.922217,55.2517175 C138.601901,55.5060509 136.262637,55.4297509 133.973518,55.0319965 C131.538172,54.6076614 129.069905,54.3743632 126.598002,54.3319105 L126.598002,72.901686 C126.598002,72.901686 132.279456,72.901686 136.726585,69.9998 C139.280406,68.3313351 141.683406,66.4462088 142.827583,63.6198579 L142.971897,63.2658947 C144.355895,59.8461632 145.229052,56.2401754 145.563998,52.5663018 L146.898232,38.6951912 C146.900529,38.6881158 146.904548,38.6818053 146.905697,38.6735825 C146.91297,38.5821754 146.920434,38.4867526 146.928856,38.3934333 L146.928856,38.3827246 C147.686983,29.1601772 148.608946,16.3767719 146.782245,12.9331368" id="Fill-64" fill="#4C2E1D"></path>
            <path d="M123.034557,52.3561421 C122.968142,52.8181491 122.923929,53.1388386 122.904981,53.2908649 C122.591471,53.4425088 122.386867,53.6974158 122.386867,53.9873175 C122.386867,54.4537228 122.914933,54.831207 123.570854,54.831207 C123.671912,54.831207 123.771056,54.8218368 123.864649,54.8029053 C124.098346,54.7587316 124.340465,54.7725 124.567271,54.8419158 C125.132469,55.0130649 125.807529,55.112886 126.529673,55.112886 C126.553789,55.112886 126.575991,55.112886 126.598002,55.1121211 L127.761127,52.7202404 L123.034557,52.3561421" id="Fill-65" fill="#F5C190"></path>
            <path d="M130.296383,53.2908649 C130.274563,53.1388386 130.230542,52.8181491 130.164701,52.3561421 L126.598002,52.3561421 L126.598002,55.1121211 C126.623458,55.112886 126.646043,55.112886 126.668819,55.112886 C127.392495,55.112886 128.065832,55.0130649 128.631413,54.8419158 C128.859368,54.7725 129.100529,54.7587316 129.335183,54.8029053 C129.428011,54.8218368 129.526963,54.831207 129.628978,54.831207 C130.283559,54.831207 130.813157,54.4537228 130.813157,53.9873175 C130.813157,53.6974158 130.609127,53.4425088 130.296383,53.2908649" id="Fill-66" fill="#F3B484"></path>
            <path d="M122.985942,41.2442614 C121.29054,42.8905439 119.007163,44.3419649 114.676978,44.3419649 C113.218144,44.3419649 111.8552,43.8273702 110.952759,43.1854175 C108.566028,41.335286 107.677368,38.424986 108.287927,35.9313719 C108.851402,33.6207632 112.130239,33.0067298 112.621174,32.9289 C113.345232,32.8309912 114.110249,32.7692246 114.900148,32.7692246 C115.305912,32.7692246 115.713206,32.7849053 116.10117,32.8172228 C119.684329,33.1316018 121.889041,33.874714 123.186527,34.5191526 C124.339125,35.1695193 126.529673,37.609207 122.985942,41.2442614 L122.985942,41.2442614 Z M126.598002,35.0469421 L125.280037,35.0469421 C124.750247,34.5103561 122.487159,32.6556351 116.164523,32.1020298 C115.753017,32.0672263 115.327157,32.0513544 114.900148,32.0513544 C111.089991,32.0513544 107.867043,33.3656649 107.308927,33.6075684 L105.634196,33.5651158 C105.542516,33.5683667 105.43629,33.5987719 105.365473,33.6670404 C105.294847,33.7345439 105.254845,33.8265246 105.254845,33.9244333 L105.254845,36.4388912 C105.254845,36.6383421 105.420022,36.7987825 105.624052,36.7987825 L106.632527,36.7987825 C106.825839,38.3899912 107.819576,45.0602175 114.676978,45.0602175 C121.187376,45.0602175 124.598277,41.7670789 125.637759,38.4867526 C125.750875,38.3928596 126.189176,38.2815649 126.598002,38.2417895 L126.598002,35.0469421 L126.598002,35.0469421 Z" id="Fill-67" fill="#751D20"></path>
            <path d="M130.012157,34.5191526 C131.312705,33.874714 133.517226,33.1316018 137.100385,32.8172228 C137.488731,32.7849053 137.894686,32.7692246 138.301789,32.7692246 C139.091305,32.7692246 139.856705,32.8309912 140.580572,32.9289 C141.070359,33.0067298 144.349578,33.6207632 144.913245,35.9313719 C145.523039,38.424986 144.635144,41.335286 142.248222,43.1854175 C141.347312,43.8273702 139.983602,44.3419649 138.522854,44.3419649 C134.194583,44.3419649 131.910441,42.8905439 130.215996,41.2442614 C126.671308,37.609207 128.862622,35.1695193 130.012157,34.5191526 L130.012157,34.5191526 Z M126.601256,38.2417895 C127.01257,38.2815649 127.450488,38.3928596 127.565327,38.4867526 C128.604617,41.7670789 132.012839,45.0602175 138.522854,45.0602175 C145.381404,45.0602175 146.375716,38.3899912 146.569602,36.7987825 L147.577886,36.7987825 C147.781151,36.7987825 147.948049,36.6383421 147.948049,36.4388912 L147.948049,33.9244333 C147.948049,33.8265246 147.905751,33.7345439 147.834742,33.6670404 C147.765265,33.5987719 147.659422,33.5683667 147.56468,33.5651158 L145.891862,33.6075684 C145.334703,33.3656649 142.111563,32.0513544 138.301789,32.0513544 C137.872675,32.0513544 137.448538,32.0672263 137.036075,32.1020298 C130.715353,32.6556351 128.450351,34.5103561 127.921518,35.0469421 L126.601256,35.0469421 L126.601256,38.2417895 L126.601256,38.2417895 Z" id="Fill-68" fill="#5F181B"></path>
            <path d="M126.859452,65.4780211 C119.250813,65.4780211 117.771499,58.5475333 118.027015,57.9518579 C118.281766,57.3571386 119.031854,57.0595877 119.701172,57.283707 C119.769884,57.307993 126.712841,59.5820772 133.499426,57.2852368 C134.170084,57.0595877 134.920363,57.3571386 135.17588,57.9518579 C135.431204,58.5475333 133.24812,65.4780211 126.859452,65.4780211" id="Fill-69" fill="#ED9873"></path>
            <path d="M119.485849,59.8553421 C119.485849,59.8553421 121.109477,64.3283579 126.444118,64.7609158 C129.467439,64.7760228 132.631628,61.8783439 133.295587,59.8553421 C126.752077,60.0276386 119.485849,59.8553421 119.485849,59.8553421" id="Fill-70" fill="#C75441"></path>
            <path d="M119.097503,58.2092509 C119.097503,58.2092509 127.068075,60.4644035 133.743458,58.2092509 C134.003376,59.5082632 133.10706,60.2586421 133.10706,60.2586421 C133.10706,60.2586421 127.445512,62.5818719 119.602985,60.0706649 C119.170043,59.3784193 119.097503,58.2092509 119.097503,58.2092509" id="Fill-71" fill="#FFFFFF"></path>
            <polyline id="Fill-72" fill="#8E2225" points="125.477751 188.332877 97.9962731 188.332877 97.9962731 157.575946 125.477751 157.575946 130.010817 172.955081 125.477751 188.332877"></polyline>
            <polygon id="Fill-73" fill="#751D20" points="125.477751 188.332877 152.958271 188.332877 152.958271 157.575946 125.477751 157.575946"></polygon>
            <path d="M99.836372,210.486649 C98.7536344,210.744807 93.576514,211.232439 93.3654022,210.352789 L91.5176473,202.638649 C91.3071097,201.760912 92.0112624,200.837281 93.0938086,200.579123 L108.158542,196.976386 C109.239174,196.718228 110.28612,197.221158 110.49551,198.098895 L112.344987,205.814947 C112.554185,206.692684 111.848884,207.612491 110.767677,207.870649 L99.836372,210.486649" id="Fill-74" fill="#F1AA7B"></path>
            <path d="M105.26652,195.022035 C105.26652,195.022035 106.534914,196.473456 102.708105,199.213754 C98.8845505,201.957877 96.2564667,203.522123 95.1522925,204.883667 C94.0481183,206.241386 91.256772,203.239105 91.3746731,202.929316 C91.492,202.617614 96.1839269,197.119807 96.6384968,196.897982 C97.0907699,196.687632 105.26652,195.022035 105.26652,195.022035" id="Fill-75" fill="#302821"></path>
            <path d="M101.073568,191.901193 C101.073568,191.901193 103.355987,188.403632 100.478129,186.424421 C99.3779742,185.762772 96.8610925,188.63693 88.1812,192.042702 C79.5037957,195.450386 63.9676495,206.981439 63.5008301,214.322684 C63.4099161,215.783667 65.9415355,218.684596 69.6152258,215.745421 C73.2877677,212.806246 101.073568,191.901193 101.073568,191.901193" id="Fill-76" fill="#1A1D1D"></path>
            <path d="M98.8692387,192.62786 C97.4161462,191.564632 95.4365183,191.794105 94.4452688,193.144175 L87.1897591,203.019193 C86.201572,204.361614 86.575372,206.321702 88.0273161,207.38493 L93.4877054,211.391158 C94.9400323,212.454386 96.9252108,212.224912 97.9122495,210.882491 L105.167185,201.005561 C106.158434,199.655491 105.781763,197.699228 104.328097,196.632175 L98.8692387,192.62786" id="Fill-77" fill="#FAF9F8"></path>
            <path d="M105.26652,195.022035 C105.26652,195.022035 102.646667,189.304316 101.659437,188.332877 C96.6844323,191.061702 98.313228,190.340772 92.8746581,192.492088 C87.4376194,194.637667 67.4346301,205.036649 64.9342086,216.315281 C64.7284559,217.854667 70.5972882,220.300474 82.1948495,213.177228 C84.6516323,212.039421 89.8006172,211.869228 92.1081097,212.157982 C94.3514839,210.878667 95.0376452,207.088526 89.9079914,204.476351 C84.9505957,201.954053 106.20992,196.303263 105.26652,195.022035" id="Fill-78" fill="#5A3725"></path>
            <path d="M159.250092,161.791377 C156.297972,169.709367 160.329768,178.517523 168.253447,181.466642 C176.17751,184.416526 184.994252,180.388307 187.946372,172.471274 C190.898301,164.554432 186.866697,155.744363 178.942826,152.795435 C171.017806,149.846316 162.20183,153.874344 159.250092,161.791377" id="Fill-79" fill="#8E2225"></path>
            <path d="M171.284424,166.269939 C170.808417,167.547916 171.458022,168.967593 172.736176,169.442986 C174.014523,169.919909 175.436226,169.268968 175.912232,167.992139 C176.388047,166.7155 175.738443,165.294484 174.460097,164.8189 C173.182516,164.343316 171.760047,164.992918 171.284424,166.269939" id="Fill-80" fill="#8E2225"></path>
            <path d="M180.016759,181.455742 L113.920957,207.151632 L104.718166,192.138316 L118.412682,181.631098 C131.13528,172.104689 148.091406,163.483554 166.389232,153.910868 L180.016759,181.455742" id="Fill-81" fill="#8E2225"></path>
            <path d="M166.472299,154.058688 C159.091998,158.183095 156.455875,167.504316 160.58471,174.87807 C164.713161,182.252016 174.042849,184.885035 181.423151,180.760628 C188.802112,176.635839 191.438043,167.314426 187.310166,159.941054 C183.182097,152.5673 173.852217,149.934854 166.472299,154.058688" id="Fill-82" fill="#8E2225"></path>
            <path d="M172.741344,165.25643 C171.551998,165.922095 171.12652,167.425912 171.792585,168.614204 C172.457692,169.802686 173.962654,170.228168 175.152191,169.564416 C176.343452,168.898177 176.768546,167.394933 176.102673,166.20626 C175.436226,165.015865 173.931073,164.590956 172.741344,165.25643" id="Fill-83" fill="#8E2225"></path>
            <path d="M108.060738,187.051649 C108.642396,186.695965 109.401288,186.879544 109.759968,187.462789 L119.85831,203.939 C120.213161,204.520333 120.03229,205.279509 119.44891,205.633281 L113.473086,209.293386 C112.891237,209.64907 112.130047,209.467404 111.773665,208.88607 L101.674366,192.406035 C101.317791,191.826614 101.503065,191.067439 102.082234,190.711754 L108.060738,187.051649" id="Fill-84" fill="#751D20"></path>
            <path d="M152.924776,210.486649 C154.00694,210.744807 159.184443,211.232439 159.395172,210.352789 L161.242927,202.638649 C161.452508,201.760912 160.749695,200.837281 159.666957,200.579123 L144.601075,196.976386 C143.5214,196.718228 142.474454,197.221158 142.265447,198.098895 L140.416161,205.814947 C140.206772,206.692684 140.912647,207.612491 141.992131,207.870649 L152.924776,210.486649" id="Fill-85" fill="#F1AA7B"></path>
            <path d="M147.492905,195.022035 C147.492905,195.022035 146.22566,196.473456 150.051895,199.213754 C153.874875,201.957877 156.504682,203.522123 157.60943,204.883667 C158.712839,206.241386 161.503994,203.239105 161.385901,202.929316 C161.268766,202.617614 156.575499,197.119807 156.122652,196.897982 C155.668465,196.687632 147.492905,195.022035 147.492905,195.022035" id="Fill-86" fill="#302821"></path>
            <path d="M151.687581,191.901193 C151.687581,191.901193 149.403439,188.403632 152.283211,186.424421 C153.381452,185.762772 155.898333,188.63693 164.578034,192.042702 C173.255056,195.450386 188.793499,206.981439 189.258022,214.322684 C189.349892,215.783667 186.818847,218.684596 183.1442,215.745421 C179.471467,212.806246 151.687581,191.901193 151.687581,191.901193" id="Fill-87" fill="#1A1D1D"></path>
            <path d="M153.891527,192.62786 C155.343662,191.564632 157.324247,191.794105 158.315305,193.144175 L165.571006,203.019193 C166.557662,204.361614 166.185202,206.321702 164.733449,207.38493 L159.272869,211.391158 C157.820733,212.454386 155.835555,212.224912 154.847368,210.882491 L147.593581,201.005561 C146.601374,199.655491 146.979002,197.699228 148.431329,196.632175 L153.891527,192.62786" id="Fill-88" fill="#FAF9F8"></path>
            <path d="M147.492905,195.022035 C147.492905,195.022035 150.114482,189.304316 151.099989,188.332877 C156.076333,191.061702 154.447538,190.340772 159.886108,192.492088 C165.323338,194.637667 185.326518,205.036649 187.827131,216.315281 C188.031927,217.854667 182.16386,220.300474 170.564959,213.177228 C168.109516,212.039421 162.96034,211.869228 160.653039,212.157982 C158.408325,210.878667 157.721589,207.088526 162.852583,204.476351 C167.80883,201.954053 146.551037,196.303263 147.492905,195.022035" id="Fill-89" fill="#5A3725"></path>
            <path d="M93.5110559,161.791377 C96.4629849,169.709367 92.4317634,178.517523 84.5077011,181.466642 C76.5821075,184.416526 67.766514,180.388307 64.8142022,172.471274 C61.8626559,164.554432 65.8938774,155.744363 73.8179398,152.795435 C81.7421935,149.846316 90.5591269,153.874344 93.5110559,161.791377" id="Fill-90" fill="#A32529"></path>
            <path d="M81.4767247,166.269939 C81.9525398,167.547916 81.3029355,168.967593 80.0245892,169.442986 C78.7464344,169.919909 77.3245398,169.268968 76.8485333,167.992139 C76.3725269,166.7155 77.0228968,165.294484 78.3008602,164.8189 C79.5790151,164.343316 81.0009097,164.992918 81.4767247,166.269939" id="Fill-91" fill="#A32529"></path>
            <path d="M72.7426667,181.455742 L138.84,207.151632 L148.042217,192.138316 L134.346744,181.631098 C121.625869,172.104689 104.668402,163.483554 86.3713419,153.910868 L72.7426667,181.455742" id="Fill-92" fill="#A32529"></path>
            <path d="M86.2884667,154.058688 C93.6689591,158.183095 96.3041247,167.504316 92.1758645,174.87807 C88.0481785,182.252016 78.7179161,184.885035 71.3379978,180.760628 C63.9575054,176.635839 61.322914,167.314426 65.4506,159.941054 C69.5786688,152.5673 78.908357,149.934854 86.2884667,154.058688" id="Fill-93" fill="#A32529"></path>
            <path d="M80.0194215,165.25643 C81.2091505,165.922095 81.634628,167.425912 80.9685634,168.614204 C80.3019247,169.802686 78.798686,170.228168 77.6076172,169.564416 C76.4178882,168.898177 75.9922194,167.394933 76.6582839,166.20626 C77.3228172,165.015865 78.8283527,164.590956 80.0194215,165.25643" id="Fill-94" fill="#A32529"></path>
            <path d="M144.700602,187.051649 C144.11837,186.695965 143.360052,186.879544 143.000798,187.462789 L132.90303,203.939 C132.546456,204.520333 132.728284,205.279509 133.310516,205.633281 L139.287871,209.293386 C139.869529,209.64907 140.630718,209.467404 140.985761,208.88607 L151.086591,192.406035 C151.441443,191.826614 151.258275,191.067439 150.677191,190.711754 L144.700602,187.051649" id="Fill-95" fill="#751D20"></path>
            <path d="M86.1232903,109.643291 C84.2728559,109.643291 82.7588989,111.156479 82.7588989,113.004698 L82.7588989,158.382737 C82.7588989,160.231721 84.2728559,161.744909 86.1232903,161.744909 L126.319135,161.744909 L131.682486,136.506819 L126.319135,109.643291 L86.1232903,109.643291" id="Fill-96" fill="#323534"></path>
            <path d="M126.319135,164.834581 L128.562892,163.175486 L126.319135,161.075802 L84.4405204,161.075802 C83.5151118,161.075802 82.7588989,161.921412 82.7588989,162.955191 C82.7588989,163.988205 83.5151118,164.834963 84.4405204,164.834963 L126.319135,164.834581" id="Fill-97" fill="#262929"></path>
            <path d="M170.00091,113.004698 C170.00091,111.156479 168.486187,109.643291 166.636518,109.643291 L126.319135,109.643291 L126.319135,161.744909 L166.636518,161.744909 C168.486187,161.744909 170.00091,160.231721 170.00091,158.382737 L170.00091,113.004698" id="Fill-98" fill="#262929"></path>
            <path d="M168.318523,161.075802 L126.319135,161.075802 L126.319135,164.834581 L168.318523,164.834581 C169.244123,164.834581 170.00091,163.988779 170.00091,162.955191 C170.00091,161.921412 169.244123,161.075802 168.318523,161.075802" id="Fill-99" fill="#131515"></path>
            <path d="M7.08363441,146.888209 C5.2513828,146.888209 3.73283226,148.307504 3.61091183,150.134114 L0.0798129032,203.009632 C0.0156946237,203.969596 0.352937634,204.914263 1.01115484,205.61607 C1.66918065,206.319789 2.58942151,206.717544 3.55272688,206.717544 L28.5274667,206.717544 L36.3186989,179.834511 L28.5274667,146.888209 L7.08363441,146.888209" id="Fill-100" fill="#EFA244"></path>
            <path d="M49.9711075,146.888209 C51.8035505,146.888209 53.3221011,148.307504 53.4440215,150.134114 L56.974929,203.009632 C57.0390473,203.969596 56.7018043,204.914263 56.0437785,205.61607 C55.3857527,206.319789 54.4655118,206.717544 53.5022065,206.717544 L28.5274667,206.717544 L28.5274667,146.888209 L49.9711075,146.888209" id="Fill-101" fill="#ED9736"></path>
            <path d="M16.6211806,153.13104 C16.6211806,154.850754 15.2260817,156.244616 13.5050323,156.244616 C11.7837914,156.244616 10.3885011,154.850754 10.3885011,153.13104 C10.3885011,151.411518 11.7837914,150.017465 13.5050323,150.017465 C15.2260817,150.017465 16.6211806,151.411518 16.6211806,153.13104" id="Fill-102" fill="#E15C4A"></path>
            <path d="M14.5437484,153.13104 L12.4661247,153.13104 L12.4661247,140.661058 C12.4661247,131.812553 19.6712968,124.613963 28.5274667,124.613963 L29.2201355,125.917947 L28.5274667,126.689744 C20.8168129,126.689744 14.5437484,132.957244 14.5437484,140.661058 L14.5437484,153.13104" id="Fill-103" fill="#E15C4A"></path>
            <path d="M40.4335613,153.13104 C40.4335613,154.850754 41.8288516,156.244616 43.5499011,156.244616 C45.2709505,156.244616 46.6662409,154.850754 46.6662409,153.13104 C46.6662409,151.411518 45.2709505,150.017465 43.5499011,150.017465 C41.8288516,150.017465 40.4335613,151.411518 40.4335613,153.13104" id="Fill-104" fill="#DF4D3E"></path>
            <path d="M42.5111849,153.13104 L44.5886172,153.13104 L44.5886172,140.661058 C44.5886172,131.812553 37.3836366,124.613963 28.5274667,124.613963 L28.5274667,126.689744 C36.237929,126.689744 42.5111849,132.957244 42.5111849,140.661058 L42.5111849,153.13104" id="Fill-105" fill="#DF4D3E"></path>
        </g>
    </g>
</svg>