<?xml version="1.0" encoding="UTF-8" standalone="no"?>
<svg width="321px" height="224px" viewBox="0 0 321 224" version="1.1" xmlns="http://www.w3.org/2000/svg" xmlns:xlink="http://www.w3.org/1999/xlink">
    <!-- Generator: Sketch 39.1 (31720) - http://www.bohemiancoding.com/sketch -->
    <title>2</title>
    <desc>Created with Sketch.</desc>
    <defs>
        <ellipse id="path-1" cx="96.0775763" cy="96.2072588" rx="96.0775763" ry="96.2072588"></ellipse>
        <polygon id="path-3" points="0.187924723 91.220697 154.980723 91.220697 154.980723 0.157951108 0.187924723 0.157951108"></polygon>
    </defs>
    <g id="Page-1" stroke="none" stroke-width="1" fill="none" fill-rule="evenodd">
        <g id="2">
            <path d="M14.503012,220.62069 L307.463855,62.7586207" id="Path-2" stroke="#CCCCCC" stroke-width="2" stroke-dasharray="2"></path>
            <g id="Group-2" transform="translate(67.680723, 0.000000)">
                <g id="Group-17" transform="translate(0.000000, 30.684043)">
                    <mask id="mask-2" fill="white">
                        <use xlink:href="#path-1"></use>
                    </mask>
                    <use id="Mask" fill="#D9EDEF" xlink:href="#path-1"></use>
                    <g mask="url(#mask-2)">
                        <g transform="translate(18.513287, -30.684043)">
                            <polyline id="Fill-19" fill="#F9B77C" points="86.8646168 130.248551 76.6218774 130.248551 75.5073245 137.182223 76.6218774 144.233178 86.8646168 144.233178 86.8646168 130.248551"></polyline>
                            <g id="Group-26" stroke-width="1" fill="none" transform="translate(0.000000, 130.090600)">
                                <mask id="mask-4" fill="white">
                                    <use xlink:href="#path-3"></use>
                                </mask>
                                <g id="Clip-21"></g>
                                <polygon id="Fill-20" fill="#FCC287" mask="url(#mask-4)" points="66.3594392 14.1425783 76.6218774 14.1425783 76.6218774 0.157951108 66.3594392 0.157951108"></polygon>
                                <path d="M6.88564945,106.067652 C-2.52996132,77.6229715 -2.01622382,54.5796348 8.4138786,37.575288 C19.7494574,19.0961317 38.607541,15.0015357 44.1176275,14.1875146 L47.5288893,37.4301437 C44.551898,37.8702948 34.3722846,40.0697022 28.3464459,49.8927783 C21.8066459,60.5539164 22.0656412,77.4185113 29.0974652,98.662149 L6.88564945,106.067652" id="Fill-22" fill="#366389" mask="url(#mask-4)"></path>
                                <path d="M148.282998,106.067652 C157.698609,77.6229715 157.184871,54.5796348 146.754769,37.575288 C135.41919,19.0961317 116.560883,15.0015357 111.05102,14.1875146 L107.639758,37.4301437 C110.61675,37.8702948 120.796363,40.0697022 126.822202,49.8927783 C133.362002,60.5539164 133.102783,77.4185113 126.071182,98.662149 L148.282998,106.067652" id="Fill-23" fill="#2A5A7E" mask="url(#mask-4)"></path>
                                <path d="M46.48082,13.5831213 C39.5273438,13.5831213 33.89011,18.7858466 33.89011,27.9631879 L37.4168788,92.4541986 L76.8199853,92.4541986 L77.9347621,57.1050551 L76.8199853,13.5831213 L46.48082,13.5831213" id="Fill-24" fill="#366389" mask="url(#mask-4)"></path>
                                <path d="M119.600105,27.9631879 C119.600105,18.7858466 113.96399,13.5831213 107.008275,13.5831213 L76.6218774,13.5831213 L76.6218774,92.4541986 L115.823071,92.4541986 L119.600105,27.9631879" id="Fill-25" fill="#2A5A7E" mask="url(#mask-4)"></path>
                            </g>
                            <polyline id="Fill-27" fill="#F9F9F9" points="76.6111326 142.555257 75.4963558 153.218417 76.6111326 167.778453 76.6458295 167.866978 81.4787674 155.938636 97.7540609 143.673721 76.6111326 142.555257"></polyline>
                            <polyline id="Fill-28" fill="#FFFFFF" points="55.8865813 143.673721 72.0828555 156.054572 76.6111326 167.778453 76.6111326 142.555257 55.8865813 143.673721"></polyline>
                            <polyline id="Fill-29" fill="#2A4864" points="59.6392155 171.673308 72.0828555 156.054572 55.8865813 143.673721 48.5270398 143.673721 59.6392155 171.673308"></polyline>
                            <polyline id="Fill-29" fill="#2A4864" transform="translate(94.145309, 157.673514) scale(-1, 1) translate(-94.145309, -157.673514) " points="93.4795769 171.673308 105.923217 156.054572 89.7269428 143.673721 82.3674012 143.673721 93.4795769 171.673308"></polyline>
                            <path d="M120.771068,86.3500511 C120.669887,88.8709777 119.747398,91.9372064 117.240494,91.7974545 C114.733365,91.6595 112.813845,89.5032315 112.953752,86.9872478 L113.789834,71.8652828 C113.928398,69.3477264 116.074231,67.419959 118.581136,67.5612836 C121.090279,67.7001368 123.252677,69.8797722 122.870116,72.3703669 C122.332427,75.8628164 121.045061,79.512543 120.771068,86.3500511" id="Fill-43" fill="#F9B77C"></path>
                            <path d="M32.4729108,86.3500511 C32.5736437,88.8709777 33.4963565,91.9372064 36.0030374,91.7974545 C38.5103897,91.6595 40.4296862,89.5032315 40.2900033,86.9872478 L39.4536969,71.8652828 C39.3151332,69.3477264 37.1695237,67.419959 34.662619,67.5612836 C32.1534758,67.7001368 29.9910774,69.8797722 30.3736384,72.3703669 C30.9115518,75.8628164 32.1980221,79.512543 32.4729108,86.3500511" id="Fill-44" fill="#FCC287"></path>
                            <path d="M115.624739,95.3826975 C115.624739,107.311713 108.142303,116.981557 96.2576186,116.981557 L56.9861363,116.981557 C45.1014516,116.981557 37.6194637,107.311713 37.6194637,95.3826975 L35.4673625,45.1661532 C35.4673625,33.238036 42.9495742,23.5681927 54.8342589,23.5681927 L98.4097198,23.5681927 C110.294181,23.5681927 117.776392,33.238036 117.776392,45.1661532 L115.624739,95.3826975" id="Fill-45" fill="#FCC287"></path>
                            <path d="M98.2393694,23.5681927 L76.4517508,23.5681927 L76.4517508,116.981557 L96.0872682,116.981557 C107.972177,116.981557 115.454388,107.311713 115.454388,95.3826975 L117.606266,45.1661532 C117.606266,33.238036 110.124054,23.5681927 98.2393694,23.5681927" id="Fill-46" fill="#F9B77C"></path>
                            <path d="M57.3577285,103.323167 C47.7789306,111.411252 38.9977129,94.2190719 38.9977129,81.6557801 L37.6548321,45.9217571 C36.7545044,48.3734819 34.4459315,39.7070663 34.4459315,45.7119046 L37.4656782,102.702821 C37.4656782,137.266029 76.4517508,140.570195 76.4517508,140.570195 L77.5275776,116.538485 L76.4517508,96.8451495 C64.6532487,96.8626747 61.4336032,99.8821696 57.3577285,103.323167" id="Fill-47" fill="#7A5034"></path>
                            <path d="M95.5453255,103.323167 C105.124795,111.411252 113.905565,94.2190719 113.905565,81.6557801 L115.229418,45.7426859 C116.130194,48.1939613 118.731564,36.5999455 118.731564,42.6045591 L115.437376,102.702821 C115.437376,137.266029 76.4517508,140.570195 76.4517508,140.570195 L76.4517508,96.8451495 C88.2504768,96.8626747 91.4698985,99.8821696 95.5453255,103.323167" id="Fill-48" fill="#684127"></path>
                            <path d="M76.9771286,112.185056 C70.7757909,112.185056 64.4379043,108.938857 64.7906931,108.010922 C65.1416911,107.082988 66.1770009,106.619245 67.1003853,106.969748 C67.1950741,107.006147 76.7752152,110.553194 86.1404595,106.971096 C87.0658586,106.619245 88.1011684,107.082988 88.4532856,108.010922 C88.8058506,108.938857 83.5227487,112.185056 76.9771286,112.185056" id="Fill-49" fill="#F9B77C"></path>
                            <path d="M89.2475081,60.4561799 C98.9118171,57.2533449 108.590005,60.4143892 108.685365,60.4449459 C110.328878,60.9698019 112.460832,57.0165306 110.820454,56.4840354 C110.332907,56.3251855 98.5554467,51.5246402 86.2843956,55.3361375 C84.6305861,55.8495347 87.5536294,61.0185578 89.2475081,60.4561799" id="Fill-50" fill="#684127"></path>
                            <path d="M102.116688,70.5452789 C102.116688,72.7064904 100.370429,74.459231 98.2158651,74.459231 C96.0624207,74.459231 94.3159371,72.7064904 94.3159371,70.5452789 C94.3159371,68.3822699 96.0624207,66.6302034 98.2158651,66.6302034 C100.370429,66.6302034 102.116688,68.3822699 102.116688,70.5452789" id="Fill-51" fill="#3A2A21"></path>
                            <path d="M100.502501,69.7137326 C100.502501,70.4468684 99.9110869,71.0402523 99.1808857,71.0402523 C98.4493414,71.0402523 97.8581515,70.4468684 97.8581515,69.7137326 C97.8581515,68.9801474 98.4493414,68.3860895 99.1808857,68.3860895 C99.9110869,68.3860895 100.502501,68.9801474 100.502501,69.7137326" id="Fill-52" fill="#F8D8BA"></path>
                            <path d="M64.0428077,60.4561799 C61.9211502,59.558802 59.8861229,58.0125437 56.3242096,57.9835598 C49.8025414,57.9298609 44.6736728,60.4227024 44.6047267,60.4449459 C42.9607667,60.9698019 40.8294836,57.0165306 42.4694143,56.4840354 C42.8083244,56.3737167 48.6056114,52.9405831 56.2317592,52.7970116 C59.5740749,52.7336514 64.123394,53.8694165 67.0056964,55.3361375 C68.5491474,56.1216241 65.6869915,61.1520186 64.0428077,60.4561799" id="Fill-53" fill="#7A5034"></path>
                            <path d="M68.681667,95.515709 C68.681667,97.8921654 72.3358069,99.8208316 76.6505303,99.877002 L76.4613764,51.825264 C73.5454964,55.4824051 68.681667,95.515709 68.681667,95.515709" id="Fill-54" fill="#FCC287"></path>
                            <path d="M80.7481185,68.2384737 C79.02402,57.9494082 77.7335203,52.9958548 76.4613764,51.825264 L76.4613764,99.877002 C76.5245023,99.8779007 76.5860613,99.8821696 76.6505303,99.8821696 C81.051884,99.8821696 84.6187221,97.9274404 84.6187221,95.515709 C84.6187221,95.515709 83.1088487,82.3329702 80.7481185,68.2384737" id="Fill-55" fill="#F9B77C"></path>
                            <path d="M72.6659868,97.0264675 C72.6659868,98.2073936 71.5059921,99.1640875 70.0746903,99.1640875 C68.6449555,99.1640875 67.4849609,98.2073936 67.4849609,97.0264675 C67.4849609,95.8464402 68.6449555,94.8888475 70.0746903,94.8888475 C71.5059921,94.8888475 72.6659868,95.8464402 72.6659868,97.0264675" id="Fill-56" fill="#FCC287"></path>
                            <path d="M85.7214109,97.0264675 C85.7214109,98.2073936 84.5611924,99.1640875 83.1310099,99.1640875 C81.7001558,99.1640875 80.5401612,98.2073936 80.5401612,97.0264675 C80.5401612,95.8464402 81.7001558,94.8888475 83.1310099,94.8888475 C84.5611924,94.8888475 85.7214109,95.8464402 85.7214109,97.0264675" id="Fill-57" fill="#F9B77C"></path>
                            <path d="M58.8100723,70.5452789 C58.8100723,72.7064904 57.0638125,74.459231 54.9101443,74.459231 C52.7558046,74.459231 51.0095448,72.7064904 51.0095448,70.5452789 C51.0095448,68.3822699 52.7558046,66.6302034 54.9101443,66.6302034 C57.0638125,66.6302034 58.8100723,68.3822699 58.8100723,70.5452789" id="Fill-58" fill="#443328"></path>
                            <path d="M57.1961083,69.7137326 C57.1961083,70.4468684 56.6044707,71.0402523 55.8747172,71.0402523 C55.1429491,71.0402523 54.5517592,70.4468684 54.5517592,69.7137326 C54.5517592,68.9801474 55.1429491,68.3860895 55.8747172,68.3860895 C56.6044707,68.3860895 57.1961083,68.9801474 57.1961083,69.7137326" id="Fill-59" fill="#F8D8BA"></path>
                            <path d="M107.605509,20.561954 C108.223113,12.5522825 97.1433961,-0.596304754 76.4517508,0.0363984062 L75.3757002,17.0344541 L76.4517508,32.583988 C78.0657148,32.5338841 79.7909327,32.4525494 81.6697121,32.3231328 C95.0566593,31.1345676 100.707548,28.0007097 100.707548,28.0007097 C100.707548,28.0007097 117.579628,24.6657619 113.194167,90.615405 C115.652049,85.3455 115.757706,93.438079 115.757706,93.438079 C115.757706,93.438079 119.191577,46.2715862 119.214857,39.9139979 C119.239929,32.8367548 116.7037,18.7654005 107.605509,20.561954" id="Fill-60" fill="#684127"></path>
                            <path d="M63.1897124,2.13335103 C32.9246417,10.5366646 34.5502459,29.400925 34.4262326,46.0469047 C34.3042339,62.6917611 37.1572119,92.7074147 37.1572119,92.7074147 C37.1572119,92.7074147 38.2119967,79.4941192 38.7026775,82.3680205 C38.4600233,68.9556572 36.6732465,33.9877982 50.6883189,29.4379974 C55.8250224,27.7695124 55.5687132,33.22815 76.4517508,32.583988 L76.4517508,0.0363984062 C72.3935604,0.160647287 67.9725078,0.804809204 63.1897124,2.13335103" id="Fill-61" fill="#7A5034"></path>
                            <path d="M76.8542345,119.76581 C64.1880868,119.76581 61.7252807,108.174041 62.1505972,107.178702 C62.5743467,106.182913 63.8232101,105.685244 64.9379869,106.060687 C65.0519269,106.100455 76.6109087,109.904763 87.9095521,106.062934 C89.0265674,105.685244 90.275207,106.182913 90.7000757,107.178702 C91.1265114,108.174041 87.491175,119.76581 76.8542345,119.76581" id="Fill-62" fill="#F9B77C"></path>
                            <path d="M64.5796018,110.36199 C64.5796018,110.36199 67.2825998,117.399689 76.1634311,118.123388 C81.197387,118.148553 86.4645954,113.743896 87.5701944,110.36199 C76.6762732,110.649582 64.5796018,110.36199 64.5796018,110.36199" id="Fill-63" fill="#D65037"></path>
                            <path d="M63.9324493,107.607394 C63.9324493,107.607394 77.2025463,111.378898 88.3149458,107.607394 C88.7480971,109.779391 87.2568033,111.03536 87.2568033,111.03536 C87.2568033,111.03536 77.8315669,114.921452 64.7745758,110.72193 C64.0531048,109.563472 63.9324493,107.607394 63.9324493,107.607394" id="Fill-64" fill="#FFFFFF"></path>
                            <path d="M121.357333,69.7130586 L117.678346,69.7130586 L117.678346,34.6928488 L117.688643,34.5957864 C117.706999,34.3946964 118.115079,29.3332958 113.454506,24.202244 C109.015321,19.3149715 98.983897,13.4894291 76.4087715,13.4804418 C53.7257499,13.4896538 43.6956688,19.3666483 39.2768548,24.2979583 C34.6462779,29.4649592 35.1235277,34.5450084 35.1289001,34.5957864 L35.1391973,34.7905853 L35.1391973,69.7130586 L31.46021,69.7130586 L31.46021,34.8672017 C31.3901447,33.9183716 31.1754718,27.8162462 36.5416223,21.828259 C43.6882817,13.8534131 57.0841829,9.80285471 76.3561666,9.78780105 L76.4613764,9.78780105 C95.733584,9.80285471 109.129037,13.8534131 116.275921,21.828259 C121.642071,27.8162462 121.427398,33.9183716 121.357333,34.8672017 L121.357333,69.7130586" id="Fill-65" fill="#B4DADE"></path>
                            <path d="M76.4613764,127.807386 L76.3561666,127.807386 L76.3561666,126.103177 C99.3922008,126.103177 109.670756,120.065985 114.236864,115.001438 C119.172326,109.527073 118.678959,103.94194 118.673362,103.886219 L118.668885,103.798818 L118.668885,75.2566257 L120.366793,75.2566257 L120.366793,103.759049 C120.422532,104.402762 120.767039,110.26313 115.539452,116.096312 C108.588214,123.852992 95.4412349,127.793007 76.4613764,127.807386" id="Fill-66" fill="#B4DADE"></path>
                            <path d="M119.518399,67.4833192 C125.770327,67.4833192 130.838084,72.5698841 130.838084,78.8450142 C130.838084,85.1199197 125.770327,90.2064847 119.518399,90.2064847 L119.518399,67.4833192" id="Fill-67" fill="#B4DADE"></path>
                            <path d="M130.838084,78.8450142 L130.838084,78.8450142 C130.838084,85.1199197 125.770327,90.2064847 119.518399,90.2064847 L119.518399,78.8450142 L130.838084,78.8450142" id="Fill-68" fill="#93C4CC"></path>
                            <path d="M116.075127,88.9168127 C116.075127,90.1732318 117.09902,91.2009251 118.35057,91.2009251 L120.120334,91.2009251 C121.371883,91.2009251 122.395777,90.1732318 122.395777,88.9168127 L122.395777,68.7732158 C122.395777,67.5167967 121.371883,66.4891034 120.120334,66.4891034 L118.35057,66.4891034 C117.09902,66.4891034 116.075127,67.5167967 116.075127,68.7732158 L116.075127,88.9168127" id="Fill-69" fill="#8ABCC1"></path>
                            <path d="M122.395777,78.8450142 L122.395777,88.9168127 C122.395777,90.1732318 121.371883,91.2009251 120.120334,91.2009251 L118.35057,91.2009251 C117.09902,91.2009251 116.074903,90.1732318 116.074903,88.9168127 L116.074903,78.8450142 L122.395777,78.8450142" id="Fill-70" fill="#7BAFB2"></path>
                            <path d="M33.299144,67.4833192 C27.0472161,67.4833192 21.9794586,72.5698841 21.9794586,78.8450142 C21.9794586,85.1199197 27.0472161,90.2064847 33.299144,90.2064847 L33.299144,67.4833192" id="Fill-71" fill="#B4DADE"></path>
                            <path d="M21.9794586,78.8450142 L21.9794586,78.8450142 C21.9794586,85.1199197 27.0472161,90.2064847 33.299144,90.2064847 L33.299144,78.8450142 L21.9794586,78.8450142" id="Fill-72" fill="#93C4CC"></path>
                            <path d="M36.7424164,88.9168127 C36.7424164,90.1732318 35.718523,91.2009251 34.4669734,91.2009251 L32.6972093,91.2009251 C31.4456597,91.2009251 30.4215424,90.1732318 30.4215424,88.9168127 L30.4215424,68.7732158 C30.4215424,67.5167967 31.4456597,66.4891034 32.6972093,66.4891034 L34.4669734,66.4891034 C35.718523,66.4891034 36.7424164,67.5167967 36.7424164,68.7732158 L36.7424164,88.9168127" id="Fill-73" fill="#8ABCC1"></path>
                            <path d="M30.4217663,78.8450142 L30.4217663,88.9168127 C30.4217663,90.1732318 31.4456597,91.2009251 32.6972093,91.2009251 L34.4669734,91.2009251 C35.718523,91.2009251 36.7424164,90.1732318 36.7424164,88.9168127 L36.7424164,78.8450142 L30.4217663,78.8450142" id="Fill-74" fill="#7BAFB2"></path>
                            <path d="M81.4407128,130.248551 C82.841347,130.248551 83.9874629,129.098406 83.9874629,127.692349 L83.9874629,125.704143 C83.9874629,124.298086 82.841347,123.147716 81.4407128,123.147716 L71.4822639,123.147716 C70.0816297,123.147716 68.9352899,124.298086 68.9352899,125.704143 L68.9352899,127.692349 C68.9352899,129.098406 70.0816297,130.248551 71.4822639,130.248551 L81.4407128,130.248551" id="Fill-75" fill="#8ABCC1"></path>
                        </g>
                    </g>
                </g>
                <g id="Group-17" transform="translate(40.218520, 0.000000)">
                    <path d="M99.0658347,86.3500511 C98.9646542,88.8709777 98.0421652,91.9372064 95.5352605,91.7974545 C93.0281319,91.6595 91.1086116,89.5032315 91.2485184,86.9872478 L92.084601,71.8652828 C92.2231646,69.3477264 94.368998,67.419959 96.8759027,67.5612836 C99.3850459,67.7001368 101.547444,69.8797722 101.164883,72.3703669 C100.627194,75.8628164 99.339828,79.512543 99.0658347,86.3500511" id="Fill-43" fill="#F9B77C"></path>
                    <path d="M10.7676777,86.3500511 C10.8684105,88.8709777 11.7911233,91.9372064 14.2978042,91.7974545 C16.8051566,91.6595 18.724453,89.5032315 18.5847701,86.9872478 L17.7484637,71.8652828 C17.6099001,69.3477264 15.4642905,67.419959 12.9573858,67.5612836 C10.4482426,67.7001368 8.28584426,69.8797722 8.66840521,72.3703669 C9.20631859,75.8628164 10.4927889,79.512543 10.7676777,86.3500511" id="Fill-44" fill="#FCC287"></path>
                    <path d="M93.9195057,95.3826975 C93.9195057,107.311713 86.4370701,116.981557 74.5523854,116.981557 L35.2809031,116.981557 C23.3962184,116.981557 15.9142305,107.311713 15.9142305,95.3826975 L13.7621293,45.1661532 C13.7621293,33.238036 21.244341,23.5681927 33.1290257,23.5681927 L76.7044866,23.5681927 C88.5889475,23.5681927 96.0711592,33.238036 96.0711592,45.1661532 L93.9195057,95.3826975" id="Fill-45" fill="#FCC287"></path>
                    <path d="M76.5341362,23.5681927 L54.7465177,23.5681927 L54.7465177,116.981557 L74.382035,116.981557 C86.2669435,116.981557 93.7491552,107.311713 93.7491552,95.3826975 L95.9010326,45.1661532 C95.9010326,33.238036 88.4188209,23.5681927 76.5341362,23.5681927" id="Fill-46" fill="#F9B77C"></path>
                    <path d="M35.6524954,103.323167 C26.0736974,111.411252 17.2924797,94.2190719 17.2924797,81.6557801 L15.949599,45.9217571 C15.0492712,48.3734819 12.7406983,39.7070663 12.7406983,45.7119046 L15.7604451,102.702821 C15.7604451,137.266029 54.7465177,140.570195 54.7465177,140.570195 L55.8223444,116.538485 L54.7465177,96.8451495 C42.9480155,96.8626747 39.72837,99.8821696 35.6524954,103.323167" id="Fill-47" fill="#7A5034"></path>
                    <path d="M73.8400923,103.323167 C83.4195618,111.411252 92.2003318,94.2190719 92.2003318,81.6557801 L93.5241852,45.7426859 C94.4249607,48.1939613 97.0263304,36.5999455 97.0263304,42.6045591 L93.7321426,102.702821 C93.7321426,137.266029 54.7465177,140.570195 54.7465177,140.570195 L54.7465177,96.8451495 C66.5452437,96.8626747 69.7646653,99.8821696 73.8400923,103.323167" id="Fill-48" fill="#684127"></path>
                    <path d="M55.2718954,112.185056 C49.0705577,112.185056 42.7326711,108.938857 43.0854599,108.010922 C43.4364579,107.082988 44.4717677,106.619245 45.3951521,106.969748 C45.489841,107.006147 55.069982,110.553194 64.4352264,106.971096 C65.3606254,106.619245 66.3959352,107.082988 66.7480524,108.010922 C67.1006174,108.938857 61.8175156,112.185056 55.2718954,112.185056" id="Fill-49" fill="#F9B77C"></path>
                    <path d="M67.5422749,60.4561799 C77.2065839,57.2533449 86.8847716,60.4143892 86.980132,60.4449459 C88.6236443,60.9698019 90.755599,57.0165306 89.1152206,56.4840354 C88.6276736,56.3251855 76.8502135,51.5246402 64.5791624,55.3361375 C62.925353,55.8495347 65.8483962,61.0185578 67.5422749,60.4561799" id="Fill-50" fill="#684127"></path>
                    <path d="M80.4114553,70.5452789 C80.4114553,72.7064904 78.6651955,74.459231 76.5106319,74.459231 C74.3571876,74.459231 72.6107039,72.7064904 72.6107039,70.5452789 C72.6107039,68.3822699 74.3571876,66.6302034 76.5106319,66.6302034 C78.6651955,66.6302034 80.4114553,68.3822699 80.4114553,70.5452789" id="Fill-51" fill="#3A2A21"></path>
                    <path d="M78.7972674,69.7137326 C78.7972674,70.4468684 78.2058537,71.0402523 77.4756525,71.0402523 C76.7441082,71.0402523 76.1529184,70.4468684 76.1529184,69.7137326 C76.1529184,68.9801474 76.7441082,68.3860895 77.4756525,68.3860895 C78.2058537,68.3860895 78.7972674,68.9801474 78.7972674,69.7137326" id="Fill-52" fill="#F8D8BA"></path>
                    <path d="M42.3375745,60.4561799 C40.215917,59.558802 38.1808897,58.0125437 34.6189764,57.9835598 C28.0973083,57.9298609 22.9684396,60.4227024 22.8994936,60.4449459 C21.2555336,60.9698019 19.1242505,57.0165306 20.7641812,56.4840354 C21.1030912,56.3737167 26.9003782,52.9405831 34.526526,52.7970116 C37.8688417,52.7336514 42.4181608,53.8694165 45.3004632,55.3361375 C46.8439142,56.1216241 43.9817584,61.1520186 42.3375745,60.4561799" id="Fill-53" fill="#7A5034"></path>
                    <path d="M46.9764339,95.515709 C46.9764339,97.8921654 50.6305737,99.8208316 54.9452971,99.877002 L54.7561433,51.825264 C51.8402632,55.4824051 46.9764339,95.515709 46.9764339,95.515709" id="Fill-54" fill="#FCC287"></path>
                    <path d="M59.0428854,68.2384737 C57.3187868,57.9494082 56.0282871,52.9958548 54.7561433,51.825264 L54.7561433,99.877002 C54.8192692,99.8779007 54.8808281,99.8821696 54.9452971,99.8821696 C59.3466508,99.8821696 62.9134889,97.9274404 62.9134889,95.515709 C62.9134889,95.515709 61.4036155,82.3329702 59.0428854,68.2384737" id="Fill-55" fill="#F9B77C"></path>
                    <path d="M50.9607536,97.0264675 C50.9607536,98.2073936 49.8007589,99.1640875 48.3694572,99.1640875 C46.9397223,99.1640875 45.7797277,98.2073936 45.7797277,97.0264675 C45.7797277,95.8464402 46.9397223,94.8888475 48.3694572,94.8888475 C49.8007589,94.8888475 50.9607536,95.8464402 50.9607536,97.0264675" id="Fill-56" fill="#FCC287"></path>
                    <path d="M64.0161777,97.0264675 C64.0161777,98.2073936 62.8559592,99.1640875 61.4257767,99.1640875 C59.9949226,99.1640875 58.834928,98.2073936 58.834928,97.0264675 C58.834928,95.8464402 59.9949226,94.8888475 61.4257767,94.8888475 C62.8559592,94.8888475 64.0161777,95.8464402 64.0161777,97.0264675" id="Fill-57" fill="#F9B77C"></path>
                    <path d="M37.1048391,70.5452789 C37.1048391,72.7064904 35.3585793,74.459231 33.2049111,74.459231 C31.0505714,74.459231 29.3043116,72.7064904 29.3043116,70.5452789 C29.3043116,68.3822699 31.0505714,66.6302034 33.2049111,66.6302034 C35.3585793,66.6302034 37.1048391,68.3822699 37.1048391,70.5452789" id="Fill-58" fill="#443328"></path>
                    <path d="M35.4908751,69.7137326 C35.4908751,70.4468684 34.8992375,71.0402523 34.1694841,71.0402523 C33.4377159,71.0402523 32.846526,70.4468684 32.846526,69.7137326 C32.846526,68.9801474 33.4377159,68.3860895 34.1694841,68.3860895 C34.8992375,68.3860895 35.4908751,68.9801474 35.4908751,69.7137326" id="Fill-59" fill="#F8D8BA"></path>
                    <path d="M85.900276,20.561954 C86.5178802,12.5522825 75.4381629,-0.596304754 54.7465177,0.0363984062 L53.6704671,17.0344541 L54.7465177,32.583988 C56.3604817,32.5338841 58.0856995,32.4525494 59.9644789,32.3231328 C73.3514261,31.1345676 79.0023147,28.0007097 79.0023147,28.0007097 C79.0023147,28.0007097 95.8743944,24.6657619 91.4889341,90.615405 C93.9468155,85.3455 94.052473,93.438079 94.052473,93.438079 C94.052473,93.438079 97.4863437,46.2715862 97.5096242,39.9139979 C97.5346955,32.8367548 94.9984663,18.7654005 85.900276,20.561954" id="Fill-60" fill="#684127"></path>
                    <path d="M41.4844793,2.13335103 C11.2194085,10.5366646 12.8450127,29.400925 12.7209994,46.0469047 C12.5990007,62.6917611 15.4519787,92.7074147 15.4519787,92.7074147 C15.4519787,92.7074147 16.5067635,79.4941192 16.9974444,82.3680205 C16.7547901,68.9556572 14.9680134,33.9877982 28.9830857,29.4379974 C34.1197892,27.7695124 33.8634801,33.22815 54.7465177,32.583988 L54.7465177,0.0363984062 C50.6883272,0.160647287 46.2672746,0.804809204 41.4844793,2.13335103" id="Fill-61" fill="#7A5034"></path>
                    <path d="M55.1490013,119.76581 C42.4828537,119.76581 40.0200476,108.174041 40.445364,107.178702 C40.8691135,106.182913 42.1179769,105.685244 43.2327537,106.060687 C43.3466938,106.100455 54.9056756,109.904763 66.2043189,106.062934 C67.3213342,105.685244 68.5699738,106.182913 68.9948425,107.178702 C69.4212782,108.174041 65.7859419,119.76581 55.1490013,119.76581" id="Fill-62" fill="#F9B77C"></path>
                    <path d="M42.8743686,110.36199 C42.8743686,110.36199 45.5773666,117.399689 54.4581979,118.123388 C59.4921538,118.148553 64.7593623,113.743896 65.8649612,110.36199 C54.97104,110.649582 42.8743686,110.36199 42.8743686,110.36199" id="Fill-63" fill="#D65037"></path>
                    <path d="M42.2272161,107.607394 C42.2272161,107.607394 55.4973131,111.378898 66.6097127,107.607394 C67.0428639,109.779391 65.5515701,111.03536 65.5515701,111.03536 C65.5515701,111.03536 56.1263338,114.921452 43.0693427,110.72193 C42.3478717,109.563472 42.2272161,107.607394 42.2272161,107.607394" id="Fill-64" fill="#FFFFFF"></path>
                    <path d="M99.6520998,69.7130586 L95.9731126,69.7130586 L95.9731126,34.6928488 L95.9834097,34.5957864 C96.0017655,34.3946964 96.4098454,29.3332958 91.7492725,24.202244 C87.3100881,19.3149715 77.2786639,13.4894291 54.7035383,13.4804418 C32.0205167,13.4896538 21.9904356,19.3666483 17.5716216,24.2979583 C12.9410447,29.4649592 13.4182945,34.5450084 13.423667,34.5957864 L13.4339641,34.7905853 L13.4339641,69.7130586 L9.75497681,69.7130586 L9.75497681,34.8672017 C9.68491152,33.9183716 9.47023864,27.8162462 14.8363891,21.828259 C21.9830486,13.8534131 35.3789497,9.80285471 54.6509334,9.78780105 L54.7561433,9.78780105 C74.0283508,9.80285471 87.4238043,13.8534131 94.5706875,21.828259 C99.936838,27.8162462 99.7221651,33.9183716 99.6520998,34.8672017 L99.6520998,69.7130586" id="Fill-65" fill="#B4DADE"></path>
                    <path d="M54.7561433,127.807386 L54.6509334,127.807386 L54.6509334,126.103177 C77.6869676,126.103177 87.9655231,120.065985 92.5316309,115.001438 C97.4670926,109.527073 96.9737255,103.94194 96.9681292,103.886219 L96.9636522,103.798818 L96.9636522,75.2566257 L98.6615602,75.2566257 L98.6615602,103.759049 C98.7172991,104.402762 99.0618054,110.26313 93.8342185,116.096312 C86.8829808,123.852992 73.7360017,127.793007 54.7561433,127.807386" id="Fill-66" fill="#B4DADE"></path>
                    <path d="M97.8131658,67.4833192 C104.065094,67.4833192 109.132851,72.5698841 109.132851,78.8450142 C109.132851,85.1199197 104.065094,90.2064847 97.8131658,90.2064847 L97.8131658,67.4833192" id="Fill-67" fill="#B4DADE"></path>
                    <path d="M109.132851,78.8450142 L109.132851,78.8450142 C109.132851,85.1199197 104.065094,90.2064847 97.8131658,90.2064847 L97.8131658,78.8450142 L109.132851,78.8450142" id="Fill-68" fill="#93C4CC"></path>
                    <path d="M94.3698934,88.9168127 C94.3698934,90.1732318 95.3937868,91.2009251 96.6453364,91.2009251 L98.4151005,91.2009251 C99.6666501,91.2009251 100.690544,90.1732318 100.690544,88.9168127 L100.690544,68.7732158 C100.690544,67.5167967 99.6666501,66.4891034 98.4151005,66.4891034 L96.6453364,66.4891034 C95.3937868,66.4891034 94.3698934,67.5167967 94.3698934,68.7732158 L94.3698934,88.9168127" id="Fill-69" fill="#8ABCC1"></path>
                    <path d="M100.690544,78.8450142 L100.690544,88.9168127 C100.690544,90.1732318 99.6666501,91.2009251 98.4151005,91.2009251 L96.6453364,91.2009251 C95.3937868,91.2009251 94.3696696,90.1732318 94.3696696,88.9168127 L94.3696696,78.8450142 L100.690544,78.8450142" id="Fill-70" fill="#7BAFB2"></path>
                    <path d="M11.5939108,67.4833192 C5.34198288,67.4833192 0.274225475,72.5698841 0.274225475,78.8450142 C0.274225475,85.1199197 5.34198288,90.2064847 11.5939108,90.2064847 L11.5939108,67.4833192" id="Fill-71" fill="#B4DADE"></path>
                    <path d="M0.274225475,78.8450142 L0.274225475,78.8450142 C0.274225475,85.1199197 5.34198288,90.2064847 11.5939108,90.2064847 L11.5939108,78.8450142 L0.274225475,78.8450142" id="Fill-72" fill="#93C4CC"></path>
                    <path d="M15.0371832,88.9168127 C15.0371832,90.1732318 14.0132899,91.2009251 12.7617402,91.2009251 L10.9919761,91.2009251 C9.74042651,91.2009251 8.71630927,90.1732318 8.71630927,88.9168127 L8.71630927,68.7732158 C8.71630927,67.5167967 9.74042651,66.4891034 10.9919761,66.4891034 L12.7617402,66.4891034 C14.0132899,66.4891034 15.0371832,67.5167967 15.0371832,68.7732158 L15.0371832,88.9168127" id="Fill-73" fill="#8ABCC1"></path>
                    <path d="M8.71653312,78.8450142 L8.71653312,88.9168127 C8.71653312,90.1732318 9.74042651,91.2009251 10.9919761,91.2009251 L12.7617402,91.2009251 C14.0132899,91.2009251 15.0371832,90.1732318 15.0371832,88.9168127 L15.0371832,78.8450142 L8.71653312,78.8450142" id="Fill-74" fill="#7BAFB2"></path>
                    <path d="M59.7354796,130.248551 C61.1361138,130.248551 62.2822297,129.098406 62.2822297,127.692349 L62.2822297,125.704143 C62.2822297,124.298086 61.1361138,123.147716 59.7354796,123.147716 L49.7770307,123.147716 C48.3763965,123.147716 47.2300568,124.298086 47.2300568,125.704143 L47.2300568,127.692349 C47.2300568,129.098406 48.3763965,130.248551 49.7770307,130.248551 L59.7354796,130.248551" id="Fill-75" fill="#8ABCC1"></path>
                </g>
            </g>
            <g id="noun_484130_cc" transform="translate(291.993976, 27.034483)" fill="#CCCCCC">
                <g id="Group">
                    <g id="Shape">
                        <path d="M11.2068729,34.8330702 C11.9979463,35.9823847 13.2285049,36.557042 14.4590635,36.557042 C15.6896221,36.557042 16.9201807,35.9823847 17.7112541,34.8330702 C20.6118565,30.5894474 24.6551205,24.6660573 26.1933187,22.3232239 C27.9073111,19.7593685 28.83023,16.5766514 28.5665389,13.1729123 C28.0391566,6.27702534 22.4137459,0.663066057 15.513828,0.176817615 C15.1622399,0.132613211 14.8546002,0.132613211 14.503012,0.132613211 C6.68017525,0.132613211 0.351588171,6.49804736 0.351588171,14.3664312 C0.351588171,17.3281263 1.2305586,20.0687993 2.76875685,22.3232239 C4.30695509,24.6660573 8.30627054,30.5894474 11.2068729,34.8330702 L11.2068729,34.8330702 Z M14.503012,1.90078936 C14.8106517,1.90078936 15.1182913,1.90078936 15.3819825,1.94499377 C21.4468784,2.38703781 26.3691128,7.29372663 26.8525465,13.34973 C27.0722892,16.2230162 26.3691128,19.0078936 24.786966,21.350727 C23.2487678,23.649356 19.3373494,29.3959285 16.3049014,33.8605733 C15.9093647,34.479435 15.2501369,34.8330702 14.503012,34.8330702 C13.7558872,34.8330702 13.0966594,34.479435 12.7011227,33.8605733 C9.6686747,29.3959285 5.71330778,23.649356 4.21905805,21.350727 C2.81270537,19.2731201 2.10952903,16.8860823 2.10952903,14.3664312 C2.0655805,7.51474865 7.64704272,1.90078936 14.503012,1.90078936 L14.503012,1.90078936 Z"></path>
                        <path d="M14.503012,22.5442459 C18.9857612,22.5442459 22.6334885,18.8752804 22.6334885,14.3664312 C22.6334885,9.85758205 18.9857612,6.18861654 14.503012,6.18861654 C10.0202629,6.18861654 6.3725356,9.85758205 6.3725356,14.3664312 C6.3725356,18.8752804 10.0202629,22.5442459 14.503012,22.5442459 L14.503012,22.5442459 Z M14.503012,7.95679269 C18.0188938,7.95679269 20.8755476,10.8300789 20.8755476,14.3664312 C20.8755476,17.9027835 18.0188938,20.7760698 14.503012,20.7760698 C10.9871303,20.7760698 8.13047645,17.9027835 8.13047645,14.3664312 C8.13047645,10.8300789 10.9871303,7.95679269 14.503012,7.95679269 L14.503012,7.95679269 Z"></path>
                    </g>
                </g>
            </g>
            <g id="noun_484130_cc" transform="translate(0.000000, 186.344828)" fill="#CCCCCC">
                <g id="Group">
                    <g id="Shape">
                        <path d="M10.4597481,32.9997507 C11.1980832,34.088575 12.3466046,34.6329871 13.495126,34.6329871 C14.6436473,34.6329871 15.7921687,34.088575 16.5305038,32.9997507 C19.2377327,28.9794765 23.0114458,23.3678438 24.4470975,21.1483174 C26.0468237,18.7194017 26.9082147,15.7041961 26.662103,12.4796012 C26.1698795,5.94665559 20.9194962,0.628167844 14.4795728,0.167511425 C14.1514239,0.125633569 13.8642935,0.125633569 13.5361446,0.125633569 C6.23483023,0.125633569 0.328148959,6.15604487 0.328148959,13.6103033 C0.328148959,16.4161197 1.14852136,19.0125467 2.58417306,21.1483174 C4.01982475,23.3678438 7.75251917,28.9794765 10.4597481,32.9997507 L10.4597481,32.9997507 Z M13.5361446,1.80074782 C13.8232749,1.80074782 14.1104053,1.80074782 14.356517,1.84262568 C20.0170865,2.26140424 24.611172,6.90984628 25.0623768,12.6471126 C25.2674699,15.3691732 24.611172,18.0074782 23.1345016,20.2270046 C21.6988499,22.4046531 18.0481928,27.8487744 15.217908,32.0784379 C14.8487404,32.6647279 14.2334611,32.9997507 13.5361446,32.9997507 C12.838828,32.9997507 12.2235487,32.6647279 11.8543812,32.0784379 C9.02409639,27.8487744 5.33242059,22.4046531 3.93778751,20.2270046 C2.62519168,18.2587453 1.96889376,15.9973411 1.96889376,13.6103033 C1.92787514,7.11923556 7.13723987,1.80074782 13.5361446,1.80074782 L13.5361446,1.80074782 Z"></path>
                        <path d="M13.5361446,21.3577067 C17.7200438,21.3577067 21.1245893,17.8818446 21.1245893,13.6103033 C21.1245893,9.33876194 17.7200438,5.86289988 13.5361446,5.86289988 C9.35224535,5.86289988 5.94769989,9.33876194 5.94769989,13.6103033 C5.94769989,17.8818446 9.35224535,21.3577067 13.5361446,21.3577067 L13.5361446,21.3577067 Z M13.5361446,7.53801413 C16.8176342,7.53801413 19.4838445,10.2600748 19.4838445,13.6103033 C19.4838445,16.9605318 16.8176342,19.6825924 13.5361446,19.6825924 C10.254655,19.6825924 7.58844469,16.9605318 7.58844469,13.6103033 C7.58844469,10.2600748 10.254655,7.53801413 13.5361446,7.53801413 L13.5361446,7.53801413 Z"></path>
                    </g>
                </g>
            </g>
        </g>
    </g>
</svg>