<?xml version="1.0" encoding="UTF-8" standalone="no"?>
<svg width="166px" height="152px" viewBox="0 0 166 152" version="1.1" xmlns="http://www.w3.org/2000/svg" xmlns:xlink="http://www.w3.org/1999/xlink">
    <!-- Generator: Sketch 3.8.3 (29802) - http://www.bohemiancoding.com/sketch -->
    <title>Group 42 Copy</title>
    <desc>Created with Sketch.</desc>
    <defs>
        <path d="M-8.01917612e-20,116.172745 L-8.01917612e-20,36.774923 C-8.01917612e-20,33.0170039 4.11965614,33.0170039 4.11965614,33.0170039 L29.8401498,33.0170039 C29.8401498,33.0170039 31.5003879,33.1927491 32.218333,33.4305031 C32.8570888,33.6420329 33.9102524,34.3648553 33.9102524,34.3648553 L56.514395,54.2598579 C56.514395,54.2598579 57.0333745,54.6824834 57.3487952,54.7823844 C57.664216,54.8822854 58.3043572,54.8822854 58.3043572,54.8822854 L128.419726,54.8822854 C128.419726,54.8822854 131.067644,54.8822854 131.067648,57.8140875 C131.067653,60.4969178 131.067642,109.260732 131.067649,114.146108 C131.067655,119.031484 129.218548,119.031484 126.294845,119.031486 C123.520924,119.031488 5.5753679,119.031482 2.78768395,119.031486 C-8.01917612e-20,119.031489 -8.01917612e-20,116.509996 -8.01917612e-20,116.172745 Z" id="path-1"></path>
        <mask id="mask-2" maskContentUnits="userSpaceOnUse" maskUnits="objectBoundingBox" x="0" y="0" width="131.067649" height="86.0144825" fill="white">
            <use xlink:href="#path-1"></use>
        </mask>
        <rect id="path-3" x="60.7685736" y="0" width="65.273093" height="93.4576157" rx="5"></rect>
        <mask id="mask-4" maskContentUnits="userSpaceOnUse" maskUnits="objectBoundingBox" x="0" y="0" width="65.273093" height="93.4576157" fill="white">
            <use xlink:href="#path-3"></use>
        </mask>
        <rect id="path-5" x="54.6574625" y="5.34673367" width="65.273093" height="93.4576157" rx="5"></rect>
        <mask id="mask-6" maskContentUnits="userSpaceOnUse" maskUnits="objectBoundingBox" x="0" y="0" width="65.273093" height="93.4576157" fill="white">
            <use xlink:href="#path-5"></use>
        </mask>
        <rect id="path-7" x="0.421351411" y="0" width="65.273093" height="93.4576157" rx="5"></rect>
        <mask id="mask-8" maskContentUnits="userSpaceOnUse" maskUnits="objectBoundingBox" x="0" y="0" width="65.273093" height="93.4576157" fill="white">
            <use xlink:href="#path-7"></use>
        </mask>
        <rect id="path-9" x="16.5084877" y="25.057103" width="33.2837302" height="1.29289192" rx="0.646445958"></rect>
        <mask id="mask-10" maskContentUnits="userSpaceOnUse" maskUnits="objectBoundingBox" x="0" y="0" width="33.2837302" height="1.29289192" fill="white">
            <use xlink:href="#path-9"></use>
        </mask>
        <rect id="path-11" x="16.5084877" y="28.7510799" width="33.2837302" height="1.29289192" rx="0.646445958"></rect>
        <mask id="mask-12" maskContentUnits="userSpaceOnUse" maskUnits="objectBoundingBox" x="0" y="0" width="33.2837302" height="1.29289192" fill="white">
            <use xlink:href="#path-11"></use>
        </mask>
        <rect id="path-13" x="16.5084877" y="32.4450568" width="33.2837302" height="1.29289192" rx="0.646445958"></rect>
        <mask id="mask-14" maskContentUnits="userSpaceOnUse" maskUnits="objectBoundingBox" x="0" y="0" width="33.2837302" height="1.29289192" fill="white">
            <use xlink:href="#path-13"></use>
        </mask>
        <rect id="path-15" x="16.5084877" y="36.1390337" width="33.2837302" height="1.29289192" rx="0.646445958"></rect>
        <mask id="mask-16" maskContentUnits="userSpaceOnUse" maskUnits="objectBoundingBox" x="0" y="0" width="33.2837302" height="1.29289192" fill="white">
            <use xlink:href="#path-15"></use>
        </mask>
        <path d="M-8.01917612e-20,125.407687 L-8.01917612e-20,46.0098653 C-8.01917612e-20,42.2519462 4.11965614,42.2519462 4.11965614,42.2519462 L29.8401498,42.2519462 C29.8401498,42.2519462 31.5003879,42.4276913 32.218333,42.6654453 C32.8570888,42.8769751 33.9102524,43.5997976 33.9102524,43.5997976 L56.514395,63.4948002 C56.514395,63.4948002 57.0333745,63.9174256 57.3487952,64.0173266 C57.664216,64.1172277 63.1076393,64.1172282 63.1076393,64.1172282 L128.051351,64.1172277 C128.051351,64.1172277 131.067644,64.1172277 131.067648,67.0490298 C131.067653,69.7318601 131.067642,118.495674 131.067649,123.38105 C131.067655,128.266426 129.218548,128.266426 126.294845,128.266428 C123.520924,128.26643 5.5753679,128.266425 2.78768395,128.266428 C-8.01917612e-20,128.266432 -8.01917612e-20,125.744938 -8.01917612e-20,125.407687 Z" id="path-17"></path>
        <mask id="mask-18" maskContentUnits="userSpaceOnUse" maskUnits="objectBoundingBox" x="0" y="0" width="131.067649" height="86.0144825" fill="white">
            <use xlink:href="#path-17"></use>
        </mask>
    </defs>
    <g id="Page-1" stroke="none" stroke-width="1" fill="none" fill-rule="evenodd">
        <g id="A4-Copy" transform="translate(-214.000000, -219.000000)">
            <g id="Group-42-Copy" transform="translate(215.000000, 219.000000)">
                <g id="Group-41">
                    <g id="Group-59" transform="translate(33.611111, 0.000000)">
                        <use id="Rectangle-1-Copy-3" stroke="#4C4F58" mask="url(#mask-2)" stroke-width="6" fill="#80D2C3" xlink:href="#path-1"></use>
                        <use id="Rectangle-195-Copy-2" stroke="#4C4F58" mask="url(#mask-4)" stroke-width="6" fill="#3D9ACC" xlink:href="#path-3"></use>
                        <use id="Rectangle-195-Copy" stroke="#4C4F58" mask="url(#mask-6)" stroke-width="6" fill="#73AF84" xlink:href="#path-5"></use>
                        <g id="Group-40" transform="translate(48.125000, 9.929648)">
                            <use id="Rectangle-195" stroke="#4C4F58" mask="url(#mask-8)" stroke-width="6" fill="#CAB483" xlink:href="#path-7"></use>
                            <rect id="Rectangle-196" fill="#FFFFFF" x="9.11210317" y="10.5278342" width="47.8915895" height="3.6939769" rx="1.84698845"></rect>
                            <use id="Rectangle-196-Copy" stroke="#928F8F" mask="url(#mask-10)" stroke-width="2" fill="#FFFFFF" xlink:href="#path-9"></use>
                            <use id="Rectangle-196-Copy-2" stroke="#928F8F" mask="url(#mask-12)" stroke-width="2" fill="#FFFFFF" xlink:href="#path-11"></use>
                            <use id="Rectangle-196-Copy-4" stroke="#928F8F" mask="url(#mask-14)" stroke-width="2" fill="#FFFFFF" xlink:href="#path-13"></use>
                            <use id="Rectangle-196-Copy-3" stroke="#928F8F" mask="url(#mask-16)" stroke-width="2" fill="#FFFFFF" xlink:href="#path-15"></use>
                        </g>
                        <use id="Rectangle-1-Copy-2" stroke="#4C4F58" mask="url(#mask-18)" stroke-width="6" fill="#A6FCE6" xlink:href="#path-17"></use>
                        <rect id="Rectangle-201" fill="#95E6D2" x="59.3559854" y="76.0518348" width="60.6503527" height="9.23494226"></rect>
                        <rect id="Rectangle-201-Copy" fill="#95E6D2" x="59.3559854" y="87.7724661" width="51.7746914" height="2.77048268"></rect>
                        <rect id="Rectangle-201-Copy-2" fill="#95E6D2" x="59.5833333" y="93.4576157" width="51.7746914" height="2.77048268"></rect>
                        <rect id="Rectangle-201-Copy-3" fill="#95E6D2" x="59.5833333" y="99.2964824" width="43.5416667" height="2.77048268"></rect>
                    </g>
                    <rect id="Rectangle-95" fill="#95E6D2" x="39.7222222" y="48.8844221" width="10.6944444" height="6.87437186"></rect>
                    <g id="Group-145" transform="translate(0.000000, 69.507538)">
                        <g id="Group-142" transform="translate(0.000000, 12.098894)">
                            <path d="M34.8648206,69.8454381 C15.6403358,69.8454381 0,54.1784232 0,34.9222641 C0,15.6661049 15.6403358,0 34.8648206,0 C54.0883968,0 69.7287326,15.6661049 69.7287326,34.9222641 C69.7287326,54.1784232 54.0883968,69.8454381 34.8648206,69.8454381 L34.8648206,69.8454381 Z M34.8648206,2.7309893 C17.1430436,2.7309893 2.72558858,17.1721986 2.72558858,34.9231741 C2.72558858,52.6750596 17.1430436,67.1162689 34.8648206,67.1162689 C52.585689,67.1162689 67.0031441,52.6750596 67.0031441,34.9231741 C67.0031441,17.1721986 52.585689,2.7309893 34.8648206,2.7309893 L34.8648206,2.7309893 Z" id="Shape" stroke="#4C4F58" stroke-width="0.5" fill="#4C4F58"></path>
                            <path d="M34.5898438,67.1175 C52.4803699,67.1175 66.8741269,52.5668369 66.8741269,34.6468342 C66.8741269,16.7268315 52.4803699,2.92456187 34.5898438,2.92456187 C16.6993176,2.92456187 3.02832709,17.1010282 3.02832709,35.0210309 C3.02832709,52.9410336 16.6993176,67.1175 34.5898438,67.1175 Z" id="Oval-100" fill="#E1CA73"></path>
                        </g>
                        <g id="noun_12666_cc" transform="translate(5.490451, 18.698291)" fill="#000000">
                            <g id="Group">
                                <ellipse id="Oval" cx="28.7558377" cy="1.93401439" rx="1.26604585" ry="1.25830132"></ellipse>
                                <ellipse id="Oval" cx="28.7558377" cy="55.555614" rx="1.26604585" ry="1.25830132"></ellipse>
                                <path d="M55.7329548,30.004411 C55.03172,30.004411 54.46604,29.4421912 54.46604,28.7435188 C54.46604,28.0517553 55.03172,27.4869447 55.7329548,27.4869447 C56.4315827,27.4869447 56.9990006,28.0517553 56.9990006,28.7435188 C56.9990006,29.4413276 56.4307137,30.004411 55.7329548,30.004411 L55.7329548,30.004411 Z" id="Shape"></path>
                                <path d="M1.77958951,30.004411 C1.08009265,30.004411 0.512674711,29.4421912 0.512674711,28.7435188 C0.512674711,28.0517553 1.07922371,27.4869447 1.77958951,27.4869447 C2.4799553,27.4869447 3.0465043,28.0517553 3.0465043,28.7435188 C3.04563536,29.4413276 2.47908636,30.004411 1.77958951,30.004411 L1.77958951,30.004411 Z" id="Shape"></path>
                                <ellipse id="Oval" cx="47.8316816" cy="47.7035374" rx="1.26604585" ry="1.25830132"></ellipse>
                                <ellipse id="Oval" cx="9.68173158" cy="9.78609099" rx="1.26604585" ry="1.25830132"></ellipse>
                                <ellipse id="Oval" cx="9.68173158" cy="47.7035374" rx="1.26691479" ry="1.25916494"></ellipse>
                                <ellipse id="Oval" cx="47.8316816" cy="9.78781824" rx="1.26691479" ry="1.25916494"></ellipse>
                            </g>
                        </g>
                        <g id="Group-144" transform="translate(29.314236, 0.000000)" fill="#4C4F58">
                            <rect id="Rectangle-path" x="3.59008482" y="9.01300422" width="4.40110008" height="2.73790649"></rect>
                            <rect id="Rectangle-path" x="3.00510772" y="5.1001362" width="5.57171007" height="3.46594219"></rect>
                            <path d="M5.82965519,11.5455839 C2.69753569,11.5455839 0.149737473,9.02854947 0.149737473,5.93439775 C0.149737473,2.84024603 2.69753569,0.323859296 5.82965519,0.323859296 C8.9624305,0.323859296 11.5115403,2.84089375 11.5115403,5.93439775 C11.5115403,9.02790175 8.9624305,11.5455839 5.82965519,11.5455839 L5.82965519,11.5455839 Z M5.82965519,0.971577889 C3.05953945,0.971577889 0.805541389,3.19778669 0.805541389,5.93439775 C0.805541389,8.6710088 3.05953945,10.8978653 5.82965519,10.8978653 C8.60108254,10.8978653 10.8557364,8.6710088 10.8557364,5.93439775 C10.8557364,3.19778669 8.60108254,0.971577889 5.82965519,0.971577889 L5.82965519,0.971577889 Z" id="Shape"></path>
                        </g>
                        <g id="Group-148" transform="translate(29.648438, 40.696281)">
                            <path d="M5.08819957,0.407463879 C2.31742802,0.407463879 0.0627741609,2.6343204 0.0627741609,5.37093146 C0.0627741609,8.10754251 2.31742802,10.334399 5.08819957,10.334399 C7.85897111,10.334399 10.1129692,8.10754251 10.1129692,5.37093146 C10.1129692,2.63367268 7.85897111,0.407463879 5.08819957,0.407463879 L5.08819957,0.407463879 Z" id="Path" stroke="#4C4F58"></path>
                            <g id="Group-146" transform="translate(4.058160, 0.763819)" fill="#000000">
                                <polygon id="Shape" points="1.58826624 4.49505705 1.37285619 7.12414681 1.11336223 7.12090822 1.0392211 4.48922758"></polygon>
                                <path d="M1.21956718,5.49448683 L1.20317208,5.49448683 C0.610981144,5.48218018 0.139458128,4.99962983 0.148639383,4.41862625 C0.159132246,3.84345214 0.639836516,3.37709475 1.22022298,3.37709475 C1.82880902,3.38940141 2.29967623,3.87195176 2.29115078,4.45230762 C2.28000211,5.02748173 1.79995364,5.49448683 1.21956718,5.49448683 L1.21956718,5.49448683 Z M1.21956718,4.19904965 C1.089718,4.19904965 0.98216616,4.30333234 0.979542945,4.43028519 C0.977575533,4.56177206 1.08250416,4.66929335 1.21300914,4.67253194 L1.21300914,4.67253194 L1.21891137,4.67253194 L1.21891137,4.19904965 L1.21956718,4.19904965 Z M1.22678102,4.19904965 L1.22153459,4.67188422 C1.35466278,4.66799791 1.457624,4.56501065 1.46024721,4.44000096 C1.46221463,4.30916181 1.357286,4.20164052 1.22678102,4.19904965 L1.22678102,4.19904965 Z" id="Shape"></path>
                                <polygon id="Shape" points="1.04512334 4.09606239 1.4215254 0.275170412 1.59416848 4.10189186"></polygon>
                            </g>
                        </g>
                        <polygon id="Path-1339" fill="#4C4F58" transform="translate(24.885063, 35.744903) rotate(-43.000000) translate(-24.885063, -35.744903) " points="23.613602 51.4901904 26.1565234 51.4901904 24.7220204 19.9996161"></polygon>
                        <polygon id="Path-1339-Copy" fill="#4C4F58" transform="translate(35.865965, 35.744903) scale(-1, 1) rotate(-1.000000) translate(-35.865965, -35.744903) " points="35.1249277 44.9216346 36.6070033 44.9216346 35.7709405 26.5681718"></polygon>
                        <text id="24" font-family="Helvetica-Bold, Helvetica" font-size="26.3517588" font-weight="bold" fill="#FFFFFF">
                            <tspan x="20.8637153" y="52.4974874">24</tspan>
                        </text>
                        <text id="HOURS" font-family="Helvetica-Bold, Helvetica" font-size="13.1758794" font-weight="bold" fill="#FFFFFF">
                            <tspan x="10.9809028" y="66.8950754">HOURS</tspan>
                        </text>
                    </g>
                    <path d="M84.7286309,12.4059065 C85.2804735,11.798357 86.0203044,11.9169578 86.0203044,11.9169578 L96.2880459,11.9169578 L91.837698,16.4736575 L84.1767883,24.3176429 L84.1767883,13.894384 C84.1767883,13.894384 84.1767883,13.013456 84.7286309,12.4059065 Z" id="Path-1103" stroke="#4C4F58" fill="#BA9D5D"></path>
                </g>
            </g>
        </g>
    </g>
</svg>