<?xml version="1.0" encoding="UTF-8" standalone="no"?>
<svg width="164px" height="125px" viewBox="0 0 164 125" version="1.1" xmlns="http://www.w3.org/2000/svg" xmlns:xlink="http://www.w3.org/1999/xlink">
    <!-- Generator: Sketch 3.8.3 (29802) - http://www.bohemiancoding.com/sketch -->
    <title>Gift Delivery</title>
    <desc>Created with Sketch.</desc>
    <defs></defs>
    <g id="Page-1" stroke="none" stroke-width="1" fill="none" fill-rule="evenodd">
        <g id="A4-Copy" transform="translate(-216.000000, -359.000000)">
            <g id="Gift-Delivery" transform="translate(216.000000, 359.000000)">
                <g id="Group-138">
                    <g id="Group-135">
                        <g id="Group-132">
                            <path d="M99.085518,80.187922 L99.085518,120.194397 C99.085518,121.415179 100.089501,122.414441 101.315375,122.414441 L159.227815,122.414441 C160.453993,122.414441 161.457672,121.415179 161.457672,120.194397 L161.457672,80.187922 L99.085518,80.187922" id="Fill-64" fill="#83C6A5"></path>
                            <g id="Group-78" transform="translate(59.952383, 57.131331)" fill="#542A75">
                                <polyline id="Fill-72" points="1.36113878 66.8189217 67.733113 0.738437144 67.104522 0.112612507 0.732547788 66.193097"></polyline>
                            </g>
                            <path d="M161.723029,67.3542802 L98.4049497,67.3542802 C97.1784677,67.3542802 96.1750931,68.3532392 96.1750931,69.5740209 L96.1750931,80.187922 L163.952582,80.187922 L163.952582,69.5740209 C163.952582,68.3532392 162.949207,67.3542802 161.723029,67.3542802" id="Fill-93" fill="#CD1F5A"></path>
                            <polygon id="Fill-94" fill="#F9CA37" points="96.1750931 74.6968253 163.952582 74.6968253 163.952582 72.84689 96.1750931 72.84689"></polygon>
                            <polygon id="Fill-95" fill="#F9CA37" points="129.342691 122.414441 131.200803 122.414441 131.200803 67.6647715 129.342691 67.6647715"></polygon>
                            <path d="M110.774636,67.0941938 L73.1120654,67.0941938 C71.8235754,67.0941938 70.7691353,66.0443941 70.7691353,64.7615747 L70.7691353,28.1941085 C70.7691353,26.911289 71.8235754,25.8614894 73.1120654,25.8614894 L110.774636,25.8614894 C112.063125,25.8614894 113.117566,26.911289 113.117566,28.1941085 L113.117566,64.7615747 C113.117566,66.0443941 112.063125,67.0941938 110.774636,67.0941938 Z" id="Fill-439" fill="#D8D5CF"></path>
                            <path d="M70.7691353,46.1464511 L113.117566,46.1464511 C113.375628,46.1464511 113.584753,45.9382464 113.584753,45.6813193 C113.584753,45.4243923 113.375628,45.2161876 113.117566,45.2161876 L70.7691353,45.2161876 C70.5110726,45.2161876 70.3019475,45.4243923 70.3019475,45.6813193 C70.3019475,45.9382464 70.5110726,46.1464511 70.7691353,46.1464511" id="Fill-490" fill="#A32458"></path>
                            <path d="M90.3144711,20.5919369 L90.3144711,68.024303 C90.3144711,68.319513 90.7836654,68.5590229 91.3626567,68.5590229 C91.9416479,68.5590229 92.4108422,68.319513 92.4108422,68.024303 L92.4108422,20.5919369 C92.4108422,20.2963789 91.9416479,20.056869 91.3626567,20.056869 C90.7836654,20.056869 90.3144711,20.2963789 90.3144711,20.5919369" id="Fill-491" fill="#A32458"></path>
                            <path d="M91.9406148,46.0765451 L92.3081034,45.7893558 C92.2992886,45.7784614 91.6415173,44.9435241 90.7369299,44.0946663 C90.2837243,43.670086 89.7694226,43.241269 89.2295882,42.908081 C88.6891458,42.5779191 88.1219549,42.3291629 87.5231521,42.3249262 C87.2842389,42.3246236 87.0404623,42.3691092 86.8112758,42.4704879 C86.5820894,42.5712614 86.3714445,42.7286254 86.1930195,42.932896 C86.0218896,43.1247591 85.9054726,43.3744232 85.9072963,43.635587 C85.9069924,43.8002139 85.9513707,43.9563675 86.01885,44.0901269 C86.1477294,44.3419094 86.3431762,44.5289304 86.5690191,44.6990046 C86.9656879,44.9928517 87.4796857,45.2355555 88.0417093,45.4561677 C88.8830728,45.7845138 89.8289989,46.0508222 90.5697515,46.2381459 C91.3098961,46.4248644 91.8433473,46.5313877 91.8491226,46.5325982 C92.0412258,46.5707287 92.2357607,46.4862969 92.3384995,46.3201568 C92.4412383,46.153714 92.4290798,45.9427857 92.3081034,45.7893558 L91.9406148,46.0765451 L92.032411,45.6204921 C92.032411,45.6204921 92.0129575,45.616558 91.9734426,45.6083872 C91.6776887,45.5472573 90.3126006,45.2540155 89.0456919,44.8294352 C88.4137573,44.6185069 87.8046198,44.3715664 87.3863697,44.1237181 C87.1775486,44.0011557 87.0182732,43.8773828 86.9319483,43.7811487 C86.8884819,43.7333342 86.8635571,43.6936906 86.8523106,43.6694808 L86.841368,43.635587 C86.8428878,43.6352843 86.833465,43.6201532 86.8969928,43.5441948 C86.996084,43.431619 87.0915277,43.3647393 87.190315,43.3205563 C87.2897102,43.2769786 87.3964004,43.2554923 87.5231521,43.2551897 C87.8371436,43.250953 88.2787987,43.4128563 88.7377796,43.6988352 C89.4286825,44.1234155 90.1502855,44.7952388 90.6858645,45.35721 C90.9542619,45.6380442 91.1779771,45.8916424 91.3333011,46.0741242 C91.411115,46.1652137 91.4719072,46.2387511 91.5126379,46.288684 L91.55884,46.3455771 L91.5731261,46.3637345 L91.9406148,46.0765451 L92.032411,45.6204921 L91.9406148,46.0765451" id="Fill-492" fill="#A32458"></path>
                            <path d="M91.930888,46.0765451 L92.2682846,46.3979309 L92.3008084,46.3646424 C92.4658591,46.195476 93.2473424,45.4083533 94.1564892,44.6760053 C94.6103027,44.3101339 95.096944,43.9581832 95.5419427,43.7067034 C95.764138,43.5811148 95.9756948,43.4806439 96.1617188,43.4149747 C96.3474388,43.3483976 96.5073222,43.3187405 96.6194838,43.3193458 C96.7103681,43.3196484 96.7672087,43.3359901 96.8076355,43.3568711 C96.8477584,43.3789625 96.8824099,43.4061986 96.9261803,43.4773151 C97.0353022,43.6594942 97.0653943,43.7917405 97.0653943,43.890093 C97.0638745,44.0044846 97.0301349,44.0992056 96.9298278,44.2253994 C96.8422871,44.3334359 96.7000334,44.4517615 96.5121856,44.5643374 C96.1842119,44.7622529 95.7231033,44.9389848 95.2233917,45.0794019 C94.4732164,45.2909355 93.6367162,45.4265107 92.9929272,45.5064032 C92.6710327,45.546652 92.39686,45.5732829 92.2041488,45.5896245 C92.1077932,45.5977954 92.031803,45.6035452 91.9804337,45.6071767 L91.9220732,45.6111108 L91.9038355,45.6123213 L91.930888,46.0765451 L92.2682846,46.3979309 L91.930888,46.0765451 L91.9579406,46.540769 C91.9719228,46.5395585 93.3871644,46.4593634 94.8343219,46.1358593 C95.5592684,45.9724428 96.2915101,45.7527384 96.8851456,45.4240897 C97.1818113,45.2582522 97.4474731,45.0639681 97.6538625,44.8130936 C97.8599479,44.5649426 98.0012897,44.2420437 97.9997699,43.890093 C97.9997699,43.5901935 97.9021985,43.2890835 97.7280289,42.9997758 C97.6094842,42.8003471 97.4395701,42.6354175 97.2413876,42.5331309 C97.0435091,42.4296338 96.827393,42.3890823 96.6194838,42.3893849 C96.3410557,42.3902928 96.0696187,42.4565672 95.7975737,42.5573407 C95.3224829,42.7346779 94.8385773,43.0230777 94.3628786,43.3541474 C92.9436855,44.3464487 91.6047381,45.7445676 91.5934915,45.7548568 C91.4606606,45.8928529 91.4263131,46.0980314 91.5068627,46.2714344 C91.5871083,46.4448375 91.7664452,46.5516635 91.9579406,46.540769 L91.930888,46.0765451" id="Fill-493" fill="#A32458"></path>
                            <path d="M48.8262032,47.6901317 L49.0119233,47.6901317 C49.0119233,46.772881 48.2653955,46.0305464 47.3450021,46.0302438 C47.1009216,46.0308491 46.8808539,46.1282937 46.6911824,46.2587243 C46.4060671,46.4560346 46.1756648,46.7341452 46.0103101,46.9641388 C45.8458673,47.1938298 45.7485999,47.3763115 45.7458642,47.3811535 L45.7206355,47.4265469 L45.7160761,47.4341125 L45.8191188,47.5022027 L45.7227632,47.4250338 L45.7160761,47.4341125 L45.8191188,47.5022027 L45.7227632,47.4250338 L45.8577218,47.5333729 L45.7385692,47.4083896 L45.7227632,47.4250338 L45.8577218,47.5333729 L45.7385692,47.4083896 L45.864105,47.5400306 L45.7610623,47.3899295 L45.7385692,47.4083896 L45.864105,47.5400306 L45.7610623,47.3899295 L45.8653208,47.5418464 L45.8273257,47.3617856 C45.7896346,47.3705617 45.7732207,47.382364 45.7610623,47.3899295 L45.8653208,47.5418464 L45.8273257,47.3617856 L45.8656248,47.5430568 L45.8656248,47.3578515 L45.8656248,47.5412411 L45.9659319,47.3872059 C45.9513417,47.3811535 45.9370556,47.3617856 45.8656248,47.3578515 L45.8656248,47.5412411 L45.9659319,47.3872059 L45.8738317,47.5285309 L45.99572,47.4114158 L45.9659319,47.3872059 L45.8738317,47.5285309 L45.99572,47.4114158 L45.9437427,47.4613486 L46.0008874,47.4174682 L45.99572,47.4114158 L45.9437427,47.4613486 L46.0008874,47.4174682 L45.9811299,47.3856928 C45.9771784,47.3787325 45.8069603,47.0561362 45.53066,46.7250665 C45.3920538,46.5595317 45.2270031,46.3915758 45.0364197,46.2596321 C44.8464441,46.1285963 44.6263765,46.0308491 44.381688,46.0302438 C43.4606867,46.0305464 42.7141589,46.772881 42.7141589,47.6901317 C42.7162867,47.9337433 42.8123383,48.1764471 42.9013988,48.3713364 C42.9916752,48.5647125 43.0801278,48.7048271 43.0825595,48.7090638 L43.0831674,48.709669 C43.1126516,48.7559704 43.155814,48.8171002 43.1895537,48.860678 L43.1898576,48.8612832 L45.6653146,52.009169 L45.6647067,52.0085638 C45.7081731,52.0660622 45.7832514,52.1081268 45.8631931,52.1075215 C45.9428308,52.1081268 46.0173012,52.0666674 46.0607676,52.0100769 L46.0616795,52.009169 L48.7204249,48.6082903 C48.7629794,48.552305 48.8006705,48.4884515 48.8289389,48.424598 C48.8304587,48.4206639 48.874533,48.3177721 48.9192152,48.1770523 C48.9635935,48.0354247 49.0110114,47.8608111 49.0119233,47.6901317 L48.6404832,47.6901317 C48.641699,47.7863658 48.6049198,47.942822 48.5651009,48.0653844 C48.5453434,48.1271195 48.525586,48.1815917 48.5106919,48.2203274 L48.4930622,48.2651156 L48.486983,48.2799442 L48.4267987,48.3813229 L45.7683573,51.7818991 L45.7689652,51.7809912 L45.8631931,51.8548312 L45.8631931,51.7374135 C45.8209425,51.7368082 45.7841633,51.7604128 45.7689652,51.7809912 L45.8631931,51.8548312 L45.8631931,51.7374135 L45.8631931,51.8551339 L45.9583328,51.7818991 C45.9431348,51.7607154 45.9054437,51.7368082 45.8631931,51.7374135 L45.8631931,51.8551339 L45.9583328,51.7818991 L45.9577249,51.7812938 L43.4825719,48.6331054 L43.4831798,48.6337106 C43.4600788,48.6046588 43.4166124,48.5429237 43.396855,48.5117535 L43.3971589,48.5123587 L43.3846965,48.4917804 C43.3549084,48.4421502 43.2770944,48.3071803 43.2090072,48.1498162 C43.1397041,47.9930574 43.0843832,47.8102731 43.085903,47.6901317 C43.085903,47.333339 43.2305884,47.0119532 43.4652461,46.7780256 C43.7005118,46.5444005 44.0233182,46.4003519 44.381688,46.4003519 C44.521814,46.3997467 44.6734904,46.4590608 44.824559,46.5637684 C45.0510098,46.7190141 45.2640863,46.9701913 45.414243,47.1814222 C45.4893213,47.2867351 45.5498095,47.382364 45.5908442,47.4507568 C45.6112096,47.4846506 45.6270155,47.5121893 45.6373502,47.5309519 L45.6522443,47.5578854 C45.6674423,47.5866346 45.6826404,47.6102392 45.6969265,47.6302123 L45.7194196,47.6589615 L45.7388731,47.678632 L45.7634939,47.6976973 C45.7789959,47.7046576 45.79389,47.7237229 45.8656248,47.7279596 L45.9039238,47.7237229 C45.941919,47.7152494 45.9583328,47.7031445 45.9707952,47.6955789 L46.0048388,47.6656192 L46.0300676,47.6323307 C46.0434419,47.6108444 46.057728,47.5854241 46.0744459,47.5542539 L46.0805251,47.5430568 C46.1142647,47.4810191 46.2869145,47.1802117 46.5294752,46.9048247 C46.6507556,46.7671311 46.7890578,46.6363979 46.9307035,46.5440979 C47.0726532,46.4514952 47.2136911,46.4000493 47.3450021,46.4003519 C47.703068,46.4003519 48.0258744,46.5444005 48.2608361,46.7780256 C48.4957978,47.0119532 48.6404832,47.333339 48.6404832,47.6901317 L48.8262032,47.6901317" id="Fill-505" fill="#FFFFFF"></path>
                            <polygon id="Fill-564" fill="#CD1F5A" points="67.7633492 29.0043638 131.034315 29.0043638 131.034315 5.93691551 67.7633492 5.93691551"></polygon>
                            <polygon id="Fill-564-Copy" fill="#E42968" points="67.7633492 29.0043638 131.034315 29.0043638 131.034315 5.93691551"></polygon>
                            <path d="M130.75072,7.1292232 L68.4031868,7.1292232 C67.1767048,7.1292232 66.1733302,6.13056686 66.1733302,4.90948252 L66.1733302,2.33839639 C66.1733302,1.11731205 67.1767048,0.118353094 68.4031868,0.118353094 L130.75072,0.118353094 C131.976898,0.118353094 132.980272,1.11731205 132.980272,2.33839639 L132.980272,4.90948252 C132.980272,6.13056686 131.976898,7.1292232 130.75072,7.1292232 Z" id="Fill-570" fill="#2E1A42"></path>
                            <path d="M147.597362,65.8744531 C147.597362,67.0952348 146.593987,68.0941938 145.367505,68.0941938 L102.304767,68.0941938 C101.078285,68.0941938 100.075214,67.0952348 100.075214,65.8744531 L100.075214,33.7295214 C100.075214,32.5087396 101.078285,31.5097807 102.304767,31.5097807 L145.367505,31.5097807 C146.593987,31.5097807 147.597362,32.5087396 147.597362,33.7295214 L147.597362,65.8744531" id="Fill-571" fill="#F9C824"></path>
                            <path d="M144.43161,24.3563751 C144.43161,23.337443 143.602405,22.5124923 142.579577,22.5124923 C141.414191,22.5124923 141.116309,23.5090303 140.530881,24.3025082 C139.947884,25.0917493 138.965482,26.1999552 137.89402,26.1999552 C136.297922,26.1999552 134.742251,23.3235223 134.742251,23.3235223 C134.409414,22.8338781 133.84587,22.5124923 133.207856,22.5124923 C132.569235,22.5124923 132.006603,22.8338781 131.673766,23.3235223 C131.673766,23.3235223 130.117791,26.1999552 128.521692,26.1999552 C126.92681,26.1999552 125.37053,23.3235223 125.37053,23.3235223 C125.037693,22.8338781 124.474454,22.5124923 123.836136,22.5124923 C123.197818,22.5124923 122.634883,22.8338781 122.301742,23.3235223 C122.301742,23.3235223 120.74607,26.1999552 119.150276,26.1999552 C117.554786,26.1999552 115.998506,23.3235223 115.998506,23.3235223 C115.665669,22.8338781 115.102734,22.5124923 114.464416,22.5124923 C113.826098,22.5124923 113.263467,22.8338781 112.930022,23.3235223 C112.930022,23.3235223 111.37435,26.1999552 109.778252,26.1999552 C108.210422,26.1999552 107.176651,24.5591326 106.516448,23.3716394 C105.626755,21.7725788 103.240662,22.6320285 103.240662,24.3563751 C103.240662,24.996423 109.778556,31.5097807 109.778556,31.5097807 L137.89402,31.5097807 C137.89402,31.5097807 144.044668,25.5350922 144.220661,25.1940359 L144.229476,25.1779969 C144.354708,24.9295433 144.43161,24.6532484 144.43161,24.3563751" id="Fill-572" fill="#2E1A42"></path>
                            <path d="M113.744941,52.352041 C113.744941,52.6834134 113.47472,52.9521427 113.141578,52.9521427 C112.808741,52.9521427 112.538824,52.6834134 112.538824,52.352041 C112.538824,52.0203661 112.808741,51.7516367 113.141578,51.7516367 C113.47472,51.7516367 113.744941,52.0203661 113.744941,52.352041" id="Fill-577" fill="#FFFFFF"></path>
                            <path d="M108.665755,57.8467693 C108.665755,58.1781416 108.395534,58.4471735 108.062393,58.4471735 C107.729252,58.4471735 107.459639,58.1781416 107.459639,57.8467693 C107.459639,57.5153969 107.729252,57.246365 108.062393,57.246365 C108.395534,57.246365 108.665755,57.5153969 108.665755,57.8467693" id="Fill-581" fill="#FFFFFF"></path>
                            <path d="M113.744637,63.613253 C113.744637,63.9446254 113.47472,64.2136573 113.141578,64.2136573 C112.808741,64.2136573 112.538824,63.9446254 112.538824,63.613253 C112.538824,63.2815781 112.808741,63.0128487 113.141578,63.0128487 C113.47472,63.0128487 113.744637,63.2815781 113.744637,63.613253" id="Fill-585" fill="#FFFFFF"></path>
                            <path d="M103.843113,52.352041 C103.843113,52.6834134 103.5735,52.9521427 103.240359,52.9521427 C102.907217,52.9521427 102.637908,52.6834134 102.637908,52.352041 C102.637908,52.0203661 102.907217,51.7516367 103.240359,51.7516367 C103.5735,51.7516367 103.843113,52.0203661 103.843113,52.352041" id="Fill-597" fill="#FFFFFF"></path>
                            <path d="M103.843113,63.613253 C103.843113,63.944928 103.5735,64.2136573 103.240359,64.2136573 C102.907217,64.2136573 102.637908,63.944928 102.637908,63.613253 C102.637908,63.2815781 102.907217,63.0131514 103.240359,63.0131514 C103.5735,63.0131514 103.843113,63.2815781 103.843113,63.613253" id="Fill-598" fill="#FFFFFF"></path>
                            <path d="M128.796777,37.1185978 C128.52078,37.1185978 128.297369,36.8961698 128.297369,36.6216906 C128.297369,36.3469088 128.52078,36.1241782 128.796777,36.1241782 C129.072469,36.1241782 129.296185,36.3469088 129.296185,36.6216906 C129.296185,36.8961698 129.072469,37.1185978 128.796777,37.1185978 M129.752126,35.3745807 L127.925017,35.3745807 L125.839542,37.8215913 L125.839542,46.6445688 L131.837297,46.6445688 L131.837297,37.8215913 L129.752126,35.3745807" id="Fill-600" fill="#2E1A42"></path>
                            <path d="M129.171865,36.5018519 L129.171865,35.3745807 L128.838723,35.3745807 L129.171257,35.3981853 L129.108337,35.393646 L129.171257,35.3987905 L129.171257,35.3981853 L129.108337,35.393646 L129.171257,35.3987905 C129.170953,35.3878961 129.196485,35.143074 129.294057,34.9303299 C129.341779,34.823504 129.405306,34.7275724 129.477345,34.6643242 C129.551208,34.601076 129.625374,34.5623402 129.747262,34.5517484 C130.024171,34.5317753 130.271899,34.4040683 130.43543,34.2119026 C130.599873,34.0203422 130.683158,33.7734017 130.682854,33.5191983 C130.68407,32.9750819 130.305638,32.4019137 129.573397,32.0959617 C129.372175,32.0112272 129.264269,31.9267954 129.216243,31.8702048 C129.168825,31.8121012 129.168825,31.7909176 129.166393,31.7606553 C129.166393,31.7355375 129.174296,31.6986175 129.196485,31.653224 C129.228401,31.5854365 129.291321,31.5070571 129.346034,31.4522823 C129.373391,31.4247436 129.398315,31.4023495 129.415337,31.3881262 L129.433879,31.3726924 L129.437222,31.3699688 L129.37795,31.2934051 L129.43631,31.3708767 L129.437222,31.3699688 L129.37795,31.2934051 L129.43631,31.3708767 C129.583427,31.2607218 129.613216,31.0528197 129.502574,30.9060475 C129.392236,30.7595779 129.183111,30.7299209 129.035994,30.8400757 C129.023228,30.8500622 128.905899,30.9372177 128.779147,31.0870162 C128.715923,31.1623693 128.64966,31.2537615 128.595859,31.3648242 C128.542362,31.4755843 128.500111,31.6087384 128.499807,31.7606553 C128.497679,31.9428344 128.570022,32.1440788 128.711364,32.3035612 C128.852098,32.4654645 129.049064,32.5949872 129.312598,32.7069578 C129.856688,32.9411881 130.015052,33.2846653 130.016268,33.5191983 C130.015964,33.6314715 129.9804,33.72014 129.928727,33.780362 C129.875534,33.8396762 129.809574,33.8796224 129.696197,33.889609 C129.418985,33.9092795 129.183111,34.028513 129.017452,34.183456 C128.767293,34.4170811 128.652092,34.7072967 128.58522,34.9345667 C128.519869,35.1627445 128.507406,35.3358449 128.50619,35.3512787 L128.505278,35.3745807 L128.505278,36.5018519 C128.505278,36.6852415 128.654523,36.8338294 128.838723,36.8338294 C129.02262,36.8338294 129.171865,36.6852415 129.171865,36.5018519" id="Fill-601" fill="#0E7040"></path>
                            <path d="M118.392806,31.8057461 L118.392806,25.8313602 C118.39311,24.3415465 119.004071,22.9894264 119.992248,22.0043881 C120.98164,21.0205603 122.339737,20.4122878 123.83644,20.4119852 C125.332839,20.4122878 126.69124,21.0205603 127.680329,22.0043881 C128.668505,22.9894264 129.279771,24.3415465 129.279771,25.8313602 L129.279771,31.8057461 L130.394699,31.8057461 C130.394395,31.8057461 130.394395,29.1175448 130.394395,25.8313602 C130.392571,22.2368027 127.447191,19.3043845 123.83644,19.3022661 C120.225386,19.3043845 117.280309,22.2368027 117.277877,25.8313602 L117.277877,31.8057461 L118.392806,31.8057461" id="Fill-602" fill="#F9C824"></path>
                            <path id="Fill-821" fill="#F1F1EE"></path>
                            <polyline id="Fill-826" fill="#512A72" points="129.142684 122.414441 127.885502 122.414441 129.342691 120.963363 129.342691 122.215012 129.142684 122.414441"></polyline>
                            <polyline id="Fill-839" fill="#C62057" points="161.675612 80.187922 159.529952 80.187922 161.684426 78.4892984 161.675612 80.187922"></polyline>
                            <polyline id="Fill-840" fill="#F1C434" points="131.200803 122.414441 129.342691 122.414441 129.342691 103.986205 131.200803 102.521509 131.200803 122.414441"></polyline>
                            <path d="M147.659978,67.3542802 L147.025612,67.3542802 C147.380638,66.9608701 147.597362,66.4415688 147.597362,65.8744531 L147.597362,33.7295214 C147.597362,33.0934075 147.324709,32.5172131 146.890045,32.1116981 L147.850561,31.354535 L147.659978,67.3542802" id="Fill-841" fill="#F1F1EE"></path>
                            <path d="M100.090716,69.0069051 L101.248503,68.0941938 L129.342691,68.0941938 L129.342691,68.5084848 L100.090716,69.0069051 M131.200803,68.4767094 L131.200803,68.0941938 L145.367505,68.0941938 C146.024061,68.0941938 146.616784,67.8079123 147.025612,67.3542802 L147.659978,67.3542802 L147.655418,68.1964804 L131.200803,68.4767094" id="Fill-842" fill="#C62057"></path>
                            <polyline id="Fill-843" fill="#F1C434" points="129.342691 68.7380399 129.342691 68.0941938 131.200803 68.0941938 131.200803 68.688658 129.342691 68.7380399"></polyline>
                            <path id="Fill-844" fill="#F1F1EE"></path>
                            <path id="Fill-845" fill="#7CC3A1"></path>
                            <path d="M145.367505,68.0941938 L102.304767,68.0941938 C102.025427,68.0941938 101.757638,68.0421426 101.510821,67.9477242 C101.493496,67.9413691 101.476778,67.9344087 101.459756,67.9274484 L127.971219,47.0267818 C128.078517,47.1254369 128.221987,47.1856589 128.379743,47.1856589 C128.692518,47.1856589 128.949669,46.9480998 128.979457,46.6445688 L131.837297,46.6445688 L131.837297,43.9787616 L146.890045,32.1116981 C147.324709,32.5172131 147.597362,33.0934075 147.597362,33.7295214 L147.597362,65.8744531 C147.597362,66.4415688 147.380638,66.9608701 147.025612,67.3542802 C146.616784,67.8079123 146.024061,68.0941938 145.367505,68.0941938 M143.617299,63.0128487 C143.284462,63.0128487 143.014545,63.2815781 143.014545,63.613253 C143.014545,63.9446254 143.284462,64.2136573 143.617299,64.2136573 C143.95044,64.2136573 144.220053,63.9446254 144.220053,63.613253 C144.220053,63.2815781 143.95044,63.0128487 143.617299,63.0128487 M133.458624,63.0128487 C133.125787,63.0128487 132.856174,63.2815781 132.856174,63.613253 C132.856174,63.9446254 133.125787,64.2136573 133.458624,64.2136573 C133.791461,64.2136573 134.061378,63.9446254 134.061378,63.613253 C134.061378,63.2815781 133.791461,63.0128487 133.458624,63.0128487 M123.299949,63.0128487 C122.967112,63.0128487 122.697195,63.2815781 122.697195,63.613253 C122.697195,63.9446254 122.967112,64.2136573 123.299949,64.2136573 C123.633394,64.2136573 123.903008,63.9446254 123.903008,63.613253 C123.903008,63.2815781 123.633394,63.0128487 123.299949,63.0128487 M113.141578,63.0128487 C112.808741,63.0128487 112.538824,63.2815781 112.538824,63.613253 C112.538824,63.9446254 112.808741,64.2136573 113.141578,64.2136573 C113.47472,64.2136573 113.744637,63.9446254 113.744637,63.613253 C113.744637,63.2815781 113.47472,63.0128487 113.141578,63.0128487 M138.538113,57.246365 C138.205276,57.246365 137.935359,57.5153969 137.935359,57.8467693 C137.935359,58.1781416 138.205276,58.4471735 138.538113,58.4471735 C138.870647,58.4471735 139.140868,58.1781416 139.140868,57.8467693 C139.140868,57.5153969 138.870647,57.246365 138.538113,57.246365 M128.379743,57.246365 C128.046298,57.246365 127.776988,57.5153969 127.776988,57.8467693 C127.776988,58.1781416 128.046298,58.4471735 128.379743,58.4471735 C128.71258,58.4471735 128.982193,58.1781416 128.982193,57.8467693 C128.982193,57.5153969 128.71258,57.246365 128.379743,57.246365 M118.220764,57.246365 C117.887623,57.246365 117.61801,57.5153969 117.61801,57.8467693 C117.61801,58.1781416 117.887623,58.4471735 118.220764,58.4471735 C118.554209,58.4471735 118.823822,58.1781416 118.823822,57.8467693 C118.823822,57.5153969 118.554209,57.246365 118.220764,57.246365 M143.617299,51.7516367 C143.284462,51.7516367 143.014545,52.0203661 143.014545,52.352041 C143.014545,52.6834134 143.284462,52.9521427 143.617299,52.9521427 C143.95044,52.9521427 144.220053,52.6834134 144.220053,52.352041 C144.220053,52.0203661 143.95044,51.7516367 143.617299,51.7516367 M133.458624,51.7516367 C133.125787,51.7516367 132.856174,52.0203661 132.856174,52.352041 C132.856174,52.6834134 133.125787,52.9521427 133.458624,52.9521427 C133.791461,52.9521427 134.061378,52.6834134 134.061378,52.352041 C134.061378,52.0203661 133.791461,51.7516367 133.458624,51.7516367 M123.299949,51.7516367 C122.967112,51.7516367 122.697195,52.0203661 122.697195,52.352041 C122.697195,52.6834134 122.967112,52.9521427 123.299949,52.9521427 C123.633394,52.9521427 123.903008,52.6834134 123.903008,52.352041 C123.903008,52.0203661 123.633394,51.7516367 123.299949,51.7516367 M138.538113,45.985153 C138.205276,45.985153 137.935359,46.2538823 137.935359,46.5855573 C137.935359,46.9169296 138.205276,47.1856589 138.538113,47.1856589 C138.870647,47.1856589 139.140868,46.9169296 139.140868,46.5855573 C139.140868,46.2538823 138.870647,45.985153 138.538113,45.985153 M143.617299,39.7293276 C143.284462,39.7293276 143.014545,39.9983595 143.014545,40.3300345 C143.014545,40.6608016 143.284462,40.9298335 143.617299,40.9298335 C143.95044,40.9298335 144.220053,40.6608016 144.220053,40.3300345 C144.220053,39.9983595 143.95044,39.7293276 143.617299,39.7293276" id="Fill-846" fill="#F0C226"></path>
                            <path d="M113.141578,64.2136573 C112.808741,64.2136573 112.538824,63.9446254 112.538824,63.613253 C112.538824,63.2815781 112.808741,63.0128487 113.141578,63.0128487 C113.47472,63.0128487 113.744637,63.2815781 113.744637,63.613253 C113.744637,63.9446254 113.47472,64.2136573 113.141578,64.2136573" id="Fill-855" fill="#FAF9F8"></path>
                            <polyline id="Fill-860" fill="#2C193F" points="131.837297 46.6445688 128.456037 46.6445688 131.837297 43.9787616 131.837297 46.6445688"></polyline>
                            <path id="Fill-863" fill="#EB982D"></path>
                            <path id="Fill-927" fill="#F1F1EE"></path>
                            <path d="M138.309839,31.1051735 L130.394699,31.1051735 C130.394395,30.0974385 130.394395,28.1076914 130.394395,25.8313602 C130.394395,25.6007614 130.382237,25.3725836 130.358224,25.1477346 C131.131196,24.3264154 131.673766,23.3235223 131.673766,23.3235223 C132.006603,22.8338781 132.569235,22.5124923 133.207856,22.5124923 C133.84587,22.5124923 134.409414,22.8338781 134.742251,23.3235223 C134.742251,23.3235223 136.297922,26.1999552 137.89402,26.1999552 C138.965482,26.1999552 139.947884,25.0917493 140.530881,24.3025082 C141.116309,23.5090303 141.414191,22.5124923 142.579577,22.5124923 C142.611189,22.5124923 142.6428,22.5130976 142.674108,22.5146107 C142.701161,22.5161238 142.727909,22.5179395 142.754658,22.5203605 L142.714839,26.7703998 C142.701465,26.7840178 142.687787,26.7976359 142.674108,26.8112539 C141.232422,28.254161 139.180383,30.2572235 138.309839,31.1051735 M128.764253,31.1051735 L118.392806,31.1051735 L118.392806,28.7195954 L129.279771,28.7195954 L129.279771,30.7765248 C129.265181,30.7744065 129.25059,30.7734986 129.235696,30.7734986 C129.166089,30.7734986 129.095874,30.7952875 129.035994,30.8400757 C129.023228,30.8500622 128.905899,30.9372177 128.779147,31.0870162 C128.774284,31.0930686 128.769116,31.0991211 128.764253,31.1051735" id="Fill-931" fill="#2C193F"></path>
                            <path d="M109.148749,31.1051735 L107.162669,31.1051735 L108.277597,29.9951519 C108.664539,30.3891672 109.004064,30.7326445 109.262126,30.9919925 L109.148749,31.1051735 M106.886673,31.1051735 L106.73986,31.1051735 L108.033517,29.7466983 C108.069688,29.7833157 108.105555,29.8199331 108.141119,29.8562479 L106.886673,31.1051735" id="Fill-932" fill="#F1F1EE"></path>
                            <path d="M107.162669,31.1051735 L106.886673,31.1051735 L108.141119,29.8562479 C108.187321,29.9031545 108.232611,29.9494558 108.277597,29.9951519 L107.162669,31.1051735" id="Fill-933" fill="#7CC3A1"></path>
                            <path id="Fill-934" fill="#7CC3A1"></path>
                            <path d="M117.277877,31.1051735 L109.374592,31.1051735 C109.339029,31.069464 109.301641,31.0316361 109.262126,30.9919925 C109.004064,30.7326445 108.664539,30.3891672 108.277597,29.9951519 C108.232611,29.9494558 108.187321,29.9031545 108.141119,29.8562479 C108.105555,29.8199331 108.069688,29.7833157 108.033517,29.7466983 L109.011663,28.7195954 L117.277877,28.7195954 L117.277877,31.1051735" id="Fill-935" fill="#2C193F"></path>
                            <path d="M129.410676,31.4173447 L128.764253,31.4173447 C128.770351,31.4055957 128.776831,31.3938467 128.782929,31.3820977 C128.941867,31.0913095 129.088989,30.9221237 129.104997,30.9027378 C129.180083,30.8157951 129.268128,30.7734986 129.35541,30.7734986 C129.374086,30.7734986 129.392381,30.7752609 129.410676,30.7793731 L129.410676,31.4173447" id="Fill-936" fill="#7CC3A1"></path>
                            <path d="M130.394699,31.1051735 L129.279771,31.1051735 L129.279771,30.7765248 L129.279771,28.7195954 L130.065509,28.7195954 L130.130253,24.0004903 C130.239679,24.3705984 130.316581,24.7540219 130.358224,25.1477346 C130.382237,25.3725836 130.394395,25.6007614 130.394395,25.8313602 C130.394395,28.1076914 130.394395,30.0974385 130.394699,31.1051735 M118.392806,31.1051735 L117.277877,31.1051735 L117.277877,28.7195954 L118.392806,28.7195954 L118.392806,31.1051735" id="Fill-937" fill="#F0C226"></path>
                            <path d="M129.279771,28.7195954 L118.392806,28.7195954 L118.392806,26.0023423 C118.64023,26.1261152 118.894645,26.1999552 119.150276,26.1999552 C119.986472,26.1999552 120.811422,25.4104114 121.407489,24.658393 C121.949147,23.9753726 122.301742,23.3235223 122.301742,23.3235223 C122.634883,22.8338781 123.197818,22.5124923 123.836136,22.5124923 C124.474454,22.5124923 125.037693,22.8338781 125.37053,23.3235223 C125.37053,23.3235223 126.169339,24.8000206 127.208886,25.6373788 C127.620145,25.9687511 128.069399,26.1999552 128.521692,26.1999552 C128.777323,26.1999552 129.032347,26.1261152 129.279771,26.0020397 L129.279771,28.7195954" id="Fill-941" fill="#2C193F"></path>
                            <polyline id="Fill-942" fill="#C62057" points="66.8069046 28.8261789 66.1604812 28.8261789 66.7880203 28.5636789 66.8069046 28.5561789 66.8069046 28.8261789"></polyline>
                            <path d="M117.277877,28.7195954 L107.035005,28.7195954 C105.245588,26.866634 103.240662,24.7107468 103.240662,24.3563751 C103.240662,23.2690502 104.189324,22.5255051 105.113669,22.5255051 C105.389666,22.5255051 105.663534,22.5920822 105.909135,22.735223 C106.145312,22.8732191 106.355349,23.0820291 106.516448,23.3716394 C107.176651,24.5591326 108.210422,26.1999552 109.778252,26.1999552 C110.663994,26.1999552 111.537273,25.3141773 112.139116,24.5255414 C112.621805,23.8933617 112.930022,23.3235223 112.930022,23.3235223 C113.263467,22.8338781 113.826098,22.5124923 114.464416,22.5124923 C115.102734,22.5124923 115.665669,22.8338781 115.998506,23.3235223 C115.998506,23.3235223 116.54138,24.326718 117.314353,25.1480372 C117.29034,25.3728862 117.278181,25.6007614 117.277877,25.8313602 L117.277877,28.7195954" id="Fill-951" fill="#2C193F"></path>
                            <path d="M130.065509,28.7195954 L129.279771,28.7195954 L129.279771,26.0020397 L129.279771,25.8313602 C129.279771,24.3415465 128.668505,22.9894264 127.680329,22.0043881 C126.832278,21.1606748 125.71279,20.5932564 124.467463,20.4486026 C124.260466,20.4243927 124.049821,20.4119852 123.83644,20.4119852 C122.343992,20.4122878 120.989239,21.0169288 120.000758,21.9959146 C119.998023,21.9989409 119.995287,22.0016645 119.992248,22.0043881 C119.004071,22.9894264 118.39311,24.3415465 118.392806,25.8313602 L118.392806,26.0023423 L118.392806,28.7195954 L117.277877,28.7195954 L117.277877,25.8313602 C117.278181,25.6007614 117.29034,25.3728862 117.314353,25.1480372 C117.488826,23.4990437 118.283988,22.0292032 119.46214,20.9760747 C120.623878,19.9368669 122.158272,19.303174 123.83644,19.3022661 L123.861669,19.3022661 C126.524062,19.3137658 128.82079,20.9182737 129.837235,23.2042888 C129.951524,23.4615185 130.049703,23.7275242 130.130253,24.0004903 L130.065509,28.7195954" id="Fill-952" fill="#F0C226"></path>
                            <path d="M114.472473,48.8846154 L15.989773,48.8846154 C13.7796738,48.8846154 11.9708029,50.6855256 11.9708029,52.8858984 L11.9708029,117.704445 L118.491443,117.704445 L118.491443,52.8858984 C118.491443,50.6855256 116.682572,48.8846154 114.472473,48.8846154" id="Fill-953" fill="#4C4F58"></path>
                            <path d="M113.852543,116.560802 C113.852543,117.301623 113.243405,117.90808 112.499309,117.90808 L16.5215506,117.90808 C15.7771505,117.90808 15.168317,117.301623 15.168317,116.560802 L15.168317,54.2806583 C15.168317,53.5398368 15.7771505,52.9333801 16.5215506,52.9333801 L112.499309,52.9333801 C113.243405,52.9333801 113.852543,53.5398368 113.852543,54.2806583 L113.852543,116.560802 L109.300781,79.3261719" id="Fill-954" fill="#FAF9F8"></path>
                            <path d="M1.25815766,122.137843 L1.25815766,122.827521 C1.25815766,123.206708 2.295272,123.517502 3.56248468,123.517502 L126.260528,123.517502 C127.52774,123.517502 128.565159,123.293561 128.565159,123.020292 L128.565159,122.521872" id="Fill-955" stroke="#4C4F58" stroke-width="2" fill="#8A8B88"></path>
                            <polygon id="Fill-956" stroke="#4C4F58" fill="#E7E5E3" points="0.614368625 122.3521 129.337219 122.3521 129.337219 117.148496 0.614368625 117.148496"></polygon>
                            <path d="M56.0942106,117.148496 L56.0942106,117.908685 L56.0942106,118.70186 C56.0942106,119.137637 56.789065,119.49443 57.6389395,119.49443 L72.5710151,119.49443 C73.4202816,119.49443 74.115744,119.137637 74.115744,118.70186 L74.115744,117.908685 L74.115744,117.148496 L56.0942106,117.148496" id="Fill-957" fill="#4C4F58"></path>
                            <polygon id="Fill-958" fill="#4C4F58" points="118.138087 119.753642 122.514818 119.753642 122.514818 119.109796 118.138087 119.109796"></polygon>
                        </g>
                        <g id="Group-133" transform="translate(51.474453, 71.538462)">
                            <rect id="Rectangle-341" fill="#F75E5E" x="1.50490094" y="11.2298748" width="23.3259645" height="20.2137746"></rect>
                            <rect id="Rectangle-342" fill="#C43E3E" x="0" y="7.48658318" width="26.3357664" height="3.74329159"></rect>
                            <rect id="Rectangle-343" fill="#5FE37C" x="11.4903759" y="6.05872215" width="4.02959199" height="25.4543828"></rect>
                            <rect id="Rectangle-344" fill="#23963C" x="11.4767173" y="3.8127472" width="4.06130076" height="3.91393511" rx="1"></rect>
                            <path d="M15.4808968,4.76584276 C15.4808968,4.76584276 19.1941003,-0.126299561 22.8498045,0.765839447 L22.8498045,6.76634666 L15.4808968,6.76634698 L15.4808968,4.76584276 Z" id="Path-1236-Copy-2" fill="#26823B"></path>
                            <path d="M15.4808968,4.76584276 C15.4808968,4.76584276 19.1941003,0.622358758 22.8498045,1.51449777 L22.8498045,7.51500498 L15.4808968,7.5150053 L15.4808968,4.76584276 Z" id="Path-1236" fill="#5FE27C"></path>
                            <path d="M4.25163908,4.77795172 C4.25163908,4.77795172 7.8305551,-0.126299561 11.4862593,0.765839447 L11.4862593,6.7829797 L4.25163908,6.7829797 L4.25163908,4.77795172 Z" id="Path-1236-Copy-3" fill="#27823B" transform="translate(7.868949, 3.720175) scale(-1, 1) translate(-7.868949, -3.720175) "></path>
                            <path d="M4.25163908,4.77795172 C4.25163908,4.77795172 7.8305551,0.622358758 11.4862593,1.51449777 L11.4862593,7.53163802 L4.25163908,7.53163802 L4.25163908,4.77795172 Z" id="Path-1236-Copy" fill="#5FE27C" transform="translate(7.868949, 4.460303) scale(-1, 1) translate(-7.868949, -4.460303) "></path>
                        </g>
                        <g id="Group-134" transform="translate(64.642336, 93.000000)">
                            <ellipse id="Oval-90" fill="#4C4F58" cx="9.57664234" cy="9.53846154" rx="9.57664234" ry="9.53846154"></ellipse>
                            <g id="Group-99-Copy" transform="translate(4.788321, 5.961538)" fill="#FFFFFF">
                                <g id="noun_162332_cc">
                                    <path d="M3.44487442,9.05371316 C3.27443745,9.05371316 3.11465278,8.98823528 2.99747736,8.8681925 L0.206571911,5.92168793 C-0.0597358606,5.6706894 -0.0703881715,5.24508318 0.18526729,4.97225869 C0.43027044,4.69943419 0.845710565,4.68852121 1.11201834,4.95043273 L3.15726203,6.44551097 C3.27443745,6.55464077 3.45552673,6.53281481 3.55139753,6.40185905 L8.39819898,0.268764362 C8.6112452,-0.0258860949 9.02668532,-0.0913639741 9.31429772,0.137808603 C9.60191011,0.356068201 9.66582398,0.781674415 9.44212545,1.07632487 L3.96683765,8.78088866 C3.84966223,8.93367038 3.67922526,9.0318872 3.49813597,9.04280018 C3.47683135,9.05371316 3.46617904,9.05371316 3.44487442,9.05371316 L3.44487442,9.05371316 Z" id="Shape"></path>
                                </g>
                            </g>
                        </g>
                    </g>
                    <text id="Delivered" font-family="LucidaGrande-Bold, Lucida Grande" font-size="9.53846154" font-weight="bold" fill="#4C4F58">
                        <tspan x="42.7007299" y="67.4230769">Delivered</tspan>
                    </text>
                </g>
            </g>
        </g>
    </g>
</svg>