<?xml version="1.0" encoding="UTF-8" standalone="no"?>
<svg width="189px" height="133px" viewBox="0 0 189 133" version="1.1" xmlns="http://www.w3.org/2000/svg" xmlns:xlink="http://www.w3.org/1999/xlink">
    <!-- Generator: Sketch 3.8.3 (29802) - http://www.bohemiancoding.com/sketch -->
    <title>Cash-Cheque Delivery</title>
    <desc>Created with Sketch.</desc>
    <defs>
        <rect id="path-1" x="2.38031816e-13" y="0.282649254" width="58.888064" height="32.1277985" rx="2"></rect>
        <mask id="mask-2" maskContentUnits="userSpaceOnUse" maskUnits="objectBoundingBox" x="0" y="0" width="58.888064" height="32.1277985" fill="white">
            <use xlink:href="#path-1"></use>
        </mask>
    </defs>
    <g id="Page-1" stroke="none" stroke-width="1" fill="none" fill-rule="evenodd">
        <g id="A4-Copy" transform="translate(-203.000000, -360.000000)">
            <g id="Cash-Cheque-Delivery" transform="translate(205.000000, 351.000000)">
                <g id="Group-130">
                    <g id="Group" transform="translate(0.000000, 40.000000)">
                        <polygon id="Fill-69" stroke="#4C4F58" stroke-width="3" fill="#FB726C" points="11.2841375 94.3370895 87.8392147 94.3370895 87.8392147 21.7935868 11.2841375 21.7935868"></polygon>
                        <polygon id="Fill-70" stroke="#4C4F58" stroke-width="3" fill="#EC5A52" points="0.210437186 100.425949 98.9484052 100.425949 98.9484052 94.3370895 0.210437186 94.3370895"></polygon>
                        <text id="SCHOOL" font-family="LucidaGrande, Lucida Grande" font-size="15.7341878" font-weight="normal" fill="#553A3A">
                            <tspan x="13.9805523" y="15.5149121">SCHOOL</tspan>
                        </text>
                        <polygon id="Fill-71" stroke="#4C4F58" stroke-width="3" fill="#FCE6B7" points="11.2841375 26.7020997 87.8392147 26.7020997 87.8392147 21.7935868 11.2841375 21.7935868"></polygon>
                        <polygon id="Fill-72" stroke="#4C4F58" stroke-width="2" fill="#FCE6B7" points="11.2841375 59.5260886 87.8392147 59.5260886 87.8392147 54.6175756 11.2841375 54.6175756"></polygon>
                        <polygon id="Fill-73" fill="#FCE6B7" points="63.6464746 49.0325228 83.1359726 49.0325228 83.1359726 32.8030502 63.6464746 32.8030502"></polygon>
                        <polygon id="Fill-74" fill="#93CDC1" points="65.2598264 47.6886555 81.5214614 47.6886555 81.5214614 34.1480691 65.2598264 34.1480691"></polygon>
                        <polygon id="Fill-75" fill="#FCE6B7" points="64.429672 41.720134 82.3510361 41.720134 82.3510361 40.1165905 64.429672 40.1165905"></polygon>
                        <polygon id="Fill-76" fill="#FCE6B7" points="39.8166373 49.0325228 59.3067149 49.0325228 59.3067149 32.8030502 39.8166373 32.8030502"></polygon>
                        <polygon id="Fill-77" fill="#93CDC1" points="41.4311485 47.6886555 57.691624 47.6886555 57.691624 34.1480691 41.4311485 34.1480691"></polygon>
                        <polygon id="Fill-78" fill="#FCE6B7" points="40.6004143 41.720134 58.5217784 41.720134 58.5217784 40.1165905 40.6004143 40.1165905"></polygon>
                        <polygon id="Fill-79" fill="#FCE6B7" points="15.9873796 49.0325228 35.478037 49.0325228 35.478037 32.8030502 15.9873796 32.8030502"></polygon>
                        <polygon id="Fill-80" fill="#93CDC1" points="17.6024705 47.6886555 33.8623664 47.6886555 33.8623664 34.1480691 17.6024705 34.1480691"></polygon>
                        <polygon id="Fill-81" fill="#FCE6B7" points="16.7717364 41.720134 34.6931005 41.720134 34.6931005 40.1165905 16.7717364 40.1165905"></polygon>
                        <path d="M16.7717364,41.720134 L34.6931005,41.720134" id="Fill-82" fill="#FCE6B7"></path>
                        <polygon id="Fill-83" fill="#FCE6B7" points="63.6464746 79.3628144 83.1359726 79.3628144 83.1359726 63.1333418 63.6464746 63.1333418"></polygon>
                        <polygon id="Fill-84" fill="#93CDC1" points="65.2598264 78.0177955 81.5214614 78.0177955 81.5214614 64.4777849 65.2598264 64.4777849"></polygon>
                        <polygon id="Fill-85" fill="#FCE6B7" points="64.429672 72.0498498 82.3510361 72.0498498 82.3510361 70.4457305 64.429672 70.4457305"></polygon>
                        <polygon id="Fill-86" fill="#FCE6B7" points="15.9873796 79.3628144 35.478037 79.3628144 35.478037 63.1333418 15.9873796 63.1333418"></polygon>
                        <polygon id="Fill-87" fill="#93CDC1" points="17.6024705 78.0177955 33.8623664 78.0177955 33.8623664 64.4777849 17.6024705 64.4777849"></polygon>
                        <polygon id="Fill-88" fill="#FCE6B7" points="16.7717364 72.0498498 34.6931005 72.0498498 34.6931005 70.4457305 16.7717364 70.4457305"></polygon>
                        <polygon id="Fill-89" fill="#93CDC1" points="37.8224116 94.3370895 61.3003609 94.3370895 61.3003609 63.1333418 37.8224116 63.1333418"></polygon>
                        <polygon id="Fill-90" fill="#4C4F58" points="37.8224116 94.3370895 39.4375025 94.3370895 39.4375025 63.1333418 37.8224116 63.1333418"></polygon>
                        <polygon id="Fill-91" fill="#4C4F58" points="59.6858497 94.3370895 61.3003609 94.3370895 61.3003609 63.1333418 59.6858497 63.1333418"></polygon>
                        <polygon id="Fill-92" fill="#4C4F58" points="38.7389438 80.1130539 60.3844084 80.1130539 60.3844084 78.5089346 38.7389438 78.5089346"></polygon>
                        <polygon id="Fill-93" fill="#4C4F58" points="38.6299571 64.7368853 60.4928154 64.7368853 60.4928154 63.1333418 38.6299571 63.1333418"></polygon>
                        <path d="M80.8066706,86.597473 C80.8066706,85.7084708 80.3179694,84.9346243 79.592164,84.5212152 L79.6008598,84.3536637 C79.6008598,83.0311001 78.5220069,81.9590003 77.1903974,81.9590003 C76.8112627,81.9584245 76.4558963,82.0476702 76.1376318,82.2014031 C75.8761795,81.1603953 74.9306615,80.3877004 73.8002138,80.3877004 C72.9184646,80.3871246 72.1497602,80.8586873 71.7294655,81.5605615 C71.3219246,81.2484894 70.813513,81.0607856 70.2598835,81.0607856 C68.9282741,81.0607856 67.8482618,82.1323096 67.8482618,83.455449 C67.8482618,83.7646421 67.9102915,84.0611681 68.0181188,84.3329356 C66.9311498,84.5643986 66.1160681,85.5242216 66.1160681,86.6729 C66.1160681,87.9954636 67.194921,89.0669876 68.5265304,89.0669876 L68.6024733,89.063533 L68.6024733,89.0669876 L78.5469347,89.0669876 C80.425217,89.0669876 80.8055112,87.869368 80.8066706,86.597473" id="Fill-94" stroke="#4C4F58" fill="#C2E06E"></path>
                        <path d="M78.0599726,89.0669876 C78.0599726,91.191035 76.8767707,93.0882257 75.0245756,94.3370895 L71.5225066,94.3370895 C69.6691521,93.0882257 68.4865299,91.191035 68.4865299,89.0669876 L78.0599726,89.0669876" id="Fill-95" stroke="#4C4F58" fill="#FCE6B7"></path>
                        <path d="M33.0774299,86.597473 C33.0774299,85.7084708 32.5893084,84.9346243 31.863503,84.5212152 L31.8721987,84.3536637 C31.8721987,83.0311001 30.7921864,81.9590003 29.4617364,81.9590003 C29.0826016,81.9584245 28.7266556,82.0476702 28.408391,82.2014031 C28.1469388,81.1603953 27.2014207,80.3877004 26.0715528,80.3877004 C25.1898036,80.3871246 24.4205194,80.8586873 24.0008045,81.5605615 C23.5938433,81.2484894 23.0854317,81.0607856 22.5306428,81.0607856 C21.1990333,81.0607856 20.1196007,82.1323096 20.1196007,83.455449 C20.1196007,83.7646421 20.1816304,84.0611681 20.288878,84.3329356 C19.2019091,84.5643986 18.3868273,85.5242216 18.3868273,86.6729 C18.387407,87.9954636 19.4662599,89.0669876 20.7972896,89.0669876 L20.8732325,89.063533 L20.8732325,89.0669876 L30.8176939,89.0669876 C32.6971357,89.0669876 33.0774299,87.869368 33.0774299,86.597473" id="Fill-96" stroke="#4C4F58" fill="#C2E06E"></path>
                        <path d="M30.3313116,89.0669876 C30.3313116,91.191035 29.1486894,93.0882257 27.2953349,94.3370895 L23.7932659,94.3370895 C21.9404911,93.0882257 20.7578689,91.191035 20.7578689,89.0669876 L30.3313116,89.0669876" id="Fill-97" stroke="#4C4F58" fill="#FCE6B7"></path>
                    </g>
                    <g id="Group-131" transform="translate(50.000000, 0.000000)">
                        <g id="Group-129" transform="translate(34.739933, 72.803785) rotate(-26.000000) translate(-34.739933, -72.803785) translate(5.239933, 56.303785)">
                            <g id="Group-24-Copy-4" transform="translate(-0.000000, 0.000000)">
                                <g id="Group-26">
                                    <g id="Group-25">
                                        <g id="Group-24-Copy">
                                            <use id="Rectangle-67-Copy-3" stroke="#4C4F58" mask="url(#mask-2)" stroke-width="6" fill="#E4E3E3" xlink:href="#path-1"></use>
                                            <rect id="Rectangle-67-Copy-4" fill="#2983B1" x="5.08909195" y="4.72259795" width="48.7098801" height="23.2479011" rx="2"></rect>
                                            <path d="M5.08909195,6.72482203 C5.08909195,5.61902421 5.98193582,4.72259795 7.09197062,4.72259795 L19.7140931,4.72259795 C19.7140931,4.72259795 20.020972,12.0568331 23.6208873,17.3275248 C27.2208025,22.5982165 38.4141544,27.9704991 38.4141544,27.9704991 L7.09867583,27.9704991 C5.9888133,27.9704991 5.08909195,27.0733987 5.08909195,25.968275 L5.08909195,6.72482203 Z" id="Rectangle-67-Copy-5" fill="#296F92"></path>
                                            <rect id="Rectangle-69-Copy" fill="#64B3DB" x="36.3506568" y="13.4258396" width="14.5402627" height="2.19053172"></rect>
                                            <rect id="Rectangle-69-Copy-2" fill="#64B3DB" x="7.99714449" y="18.5370802" width="42.893775" height="2.19053172"></rect>
                                            <rect id="Rectangle-69-Copy-3" fill="#64B3DB" x="7.99714449" y="23.6483209" width="18.1753284" height="2.19053172"></rect>
                                            <path d="M30.7844625,26.1575921 C30.7844625,26.1575921 34.0531899,25.1111711 33.0297545,22.6735628 C32.0063191,20.2359545 31.4932825,22.6735628 31.4932825,22.6735628 C31.4932825,22.6735628 31.4373415,23.3688012 31.61682,23.5233928 C32.580612,24.3535437 35.923668,26.9684447 39.4067388,26.5975524 C43.5384312,26.1575921 37.7652795,23.8583182 37.7652795,23.8583182 C37.7652795,23.8583182 37.3900815,22.4421577 42.2814435,23.8042359 C42.4811439,23.8598457 42.8322061,24.1432568 42.7925683,24.3792213 C42.6979691,24.9423713 42.8051185,25.9495158 44.6158164,26.3123269 C47.1852114,26.8271589 47.4493216,24.3934725 47.4493216,24.3934725" id="Path-83" stroke="#FFFFFF"></path>
                                            <path d="M47.6193604,23.6483209 C47.8201195,23.6483209 47.9828669,23.4848652 47.9828669,23.2832323 C47.9828669,23.0815994 47.8201195,22.9181437 47.6193604,22.9181437 C47.4186012,22.9181437 47.2558538,23.0815994 47.2558538,23.2832323 C47.2558538,23.4848652 47.4186012,23.6483209 47.6193604,23.6483209 Z" id="Oval-29" fill="#FFFFFF"></path>
                                            <circle id="Oval-29-Copy" stroke="#FFFFFF" stroke-width="0.3" fill="#FFFFFF" cx="36.6006568" cy="23.1681437" r="0.25"></circle>
                                        </g>
                                    </g>
                                </g>
                            </g>
                            <text id="school-fees" font-family="LucidaGrande-Bold, Lucida Grande" font-size="6.30588235" font-weight="bold" fill="#FFFFFF">
                                <tspan x="10.2911623" y="15.995356">school fees</tspan>
                            </text>
                        </g>
                        <g id="Group-Copy-5" transform="translate(75.636625, 39.635927) scale(-1, 1) rotate(-6.000000) translate(-75.636625, -39.635927) translate(20.136625, 5.635927)">
                            <path d="M68.2705955,64.7752324 C70.7682772,61.4482795 66.1662145,60.1496047 65.1122062,56.8140254 C63.9205899,53.0430834 70.0218002,47.3372709 73.3230488,45.7932833 C76.6242973,44.2492958 90.1516338,44.5528366 91.5240796,48.6662729 C92.6405636,52.0135787 88.9468222,58.176859 93.0010107,60.2889747 C99.0004287,63.4156338 101.51723,51.5745767 97.5245748,45.6411086 C94.6897397,41.429008 83.4350916,39.1730743 83.4350916,39.1730743 C86.5941541,36.968899 90.3453893,36.3664001 94.1265159,36.5352885 C105.472185,37.042358 108.92868,42.546394 110.454891,38.8481024 C113.739848,30.8925564 100.908765,28.5717901 93.3525712,30.4306406 C88.0669111,31.7310677 83.8050986,34.1669423 83.8050986,34.1669423 C85.9267143,31.8863426 88.5124545,30.5836241 91.0959056,29.3768741 C99.6449787,25.3864986 104.982208,29.9851689 106.211929,26.59864 C108.355896,20.6942859 99.6809292,19.4816053 89.2540842,25.674404 C84.3105594,28.6098001 80.7736805,32.4826412 80.7736805,32.4826412 C81.7928154,30.0663108 83.6036683,28.0839951 85.2641218,26.7237225 C90.7288609,22.2466303 97.2989083,22.5950553 94.7154571,18.2004528 C92.8026772,14.9465546 85.7468274,19.2757852 81.0972346,24.2277328 C77.1087533,28.4751476 74.9983133,33.4713055 74.9983133,33.4713055 L66.8913732,29.3768737 L60.3242881,46.3909289 L62.4932085,46.3909299 C59.1074024,50.408802 56.490559,52.7791701 57.9750302,58.6592624 C59.0151699,62.7794381 63.1803066,71.5550295 68.2705955,64.7752324 Z" id="Fill-3" stroke="#4C4F58" stroke-width="3" fill="#F4D5B4"></path>
                            <polyline id="Fill-4" fill="#FAF9F8" points="66.2075508 27.6914948 59.0384637 46.7378722 53.1876947 44.6354611 60.8392181 25.6630819 66.2075508 27.6914948"></polyline>
                            <polyline id="Fill-5" stroke="#4C4F58" stroke-width="3" fill="#1A325A" points="63.0278875 25.7101227 55.3141576 47.1660912 0 31.8572285 0 0.0440754202 63.0278875 25.7101227"></polyline>
                            <polyline id="Fill-5-Copy" fill="#2E466E" points="56.9954159 39.1949844 54.5999196 45.6716156 1.39095818 31.0916824 1.39095818 18.9459763"></polyline>
                            <path d="M53.9061653,27.9527124 C54.1376216,29.0333015 55.2006511,29.7216598 56.2802421,29.4892867 C57.359833,29.2577222 58.0470658,28.1939815 57.8156095,27.1133924 C57.5841531,26.0326685 56.5212583,25.3445797 55.4419366,25.576279 C54.3623457,25.807439 53.674709,26.8715841 53.9061653,27.9527124" id="Fill-6" fill="#FAF9F8"></path>
                            <path d="M46.009721,24.9541012 C46.2414466,26.0349599 47.3039375,26.7229138 48.3835285,26.4913494 C49.4632541,26.2599197 50.1508907,25.1953703 49.9195691,24.1154551 C49.6881127,23.0343268 48.6249486,22.3455641 47.5456269,22.5775329 C46.4659013,22.8096365 45.7783993,23.8733772 46.009721,24.9541012" id="Fill-7" fill="#FAF9F8"></path>
                            <path d="M37.9449693,21.7547918 C38.1766949,22.8355157 39.2393204,23.5233348 40.3191807,23.29204 C41.3985023,23.0603407 42.0860044,21.9964652 41.8548173,20.9160109 C41.6234957,19.8347478 40.5604662,19.1466591 39.4806059,19.3783583 C38.4011496,19.6100575 37.7137822,20.6740678 37.9449693,21.7547918" id="Fill-8" fill="#FAF9F8"></path>
                        </g>
                    </g>
                </g>
            </g>
        </g>
    </g>
</svg>