<?xml version="1.0" encoding="UTF-8" standalone="no"?>
<svg width="139px" height="135px" viewBox="0 0 139 135" version="1.1" xmlns="http://www.w3.org/2000/svg" xmlns:xlink="http://www.w3.org/1999/xlink">
    <!-- Generator: Sketch 3.8.3 (29802) - http://www.bohemiancoding.com/sketch -->
    <title>Bulk Delivery</title>
    <desc>Created with Sketch.</desc>
    <defs></defs>
    <g id="Page-1" stroke="none" stroke-width="1" fill="none" fill-rule="evenodd">
        <g id="A4-Copy" transform="translate(-229.000000, -354.000000)">
            <g id="Bulk-Delivery" transform="translate(230.000000, 356.000000)">
                <g id="Group-106">
                    <path d="M82.3675747,17.2747253 C82.3675747,17.2747253 121.411743,17.816 123.289259,18.6142363 C123.289259,18.6142363 120.317301,56.0715989 120.049596,56.7805824 C119.78189,57.4895659 84.4863115,56.3465549 84.4863115,56.3465549 C84.4863115,56.3465549 81.9230694,18.8164945 82.3675747,17.2747253" id="Fill-124" stroke="#4C4F58" stroke-width="3" fill="#907156"></path>
                    <path d="M122.642653,18.7142857 C122.642653,18.7142857 129.361053,23.1956374 130.053221,24.0651319 L126.540126,57.5370714 L118.821053,57.0058736 L122.604,19.1965385" id="Fill-125" stroke="#4C4F58" stroke-width="3" fill="#C7A682"></path>
                    <path d="M98.7789474,17.9945055 C98.7789474,17.9945055 98.8927579,29.7549945 98.8827368,29.9997198 C98.8727158,30.2451648 105.438653,30.2725165 105.438653,30.2725165 L106.652632,18.1492582 L98.7789474,17.9945055" id="Fill-126" stroke="#4C4F58" fill="#BDA27C"></path>
                    <path d="M8.58947368,6.54422438 C8.58947368,6.54422438 12.5005474,57.3902189 13.5169684,58.8009881 C13.5169684,58.8009881 72.5209263,57.0051365 72.9690105,56.9072464 C73.4170947,56.8093562 74.1436211,0.645625474 74.1679579,0.046048551 C74.1922947,-0.553528372 17.9713263,4.87001558 8.58947368,6.54422438" id="Fill-127" stroke="#4C4F58" stroke-width="3" fill="#A18565"></path>
                    <path d="M52.3421053,7.23739011 C52.6420211,11.8101538 53.1330526,18.4206154 53.4107789,20.2805275 C55.1336842,20.1660824 60.52,19.7529286 64.5456,19.4398242 C64.5219789,14.0098022 64.4045895,8.16662637 64.2184842,6.48593956 C62.1104842,6.55575824 54.6813053,7.07184066 52.3421053,7.23739011 L52.3421053,7.23739011 Z M52.8782316,21.7510385 L52.8381474,21.7503187 C52.0293053,21.7172088 51.8367579,21.7085714 50.8668632,6.61621978 L50.8210526,5.9021978 L51.5304,5.85181319 C51.9949474,5.81798352 62.9286316,5.03846154 64.5899789,5.03846154 C64.7660632,5.03846154 64.8591158,5.04637912 64.9478737,5.06797253 C65.6049684,5.2292033 65.9356632,5.3090989 65.9793263,20.1034615 L65.9814737,20.7714176 L65.3186526,20.8232418 C64.1032421,20.9182527 53.4243789,21.7510385 52.8782316,21.7510385 L52.8782316,21.7510385 Z" id="Fill-128" stroke="#4C4F58" fill="#755845"></path>
                    <path d="M98.3660794,6.2857038 C98.3660794,6.2857038 78.117111,-0.130417084 74.2668794,0.00202247666 C74.2668794,0.00202247666 72.69429,53.9085225 73.0679321,56.8632203 C73.0679321,56.8632203 91.1058268,57.3123631 93.0506268,57.2130335 C93.0506268,57.2130335 98.3174057,7.48485764 98.3660794,6.2857038 Z" id="Fill-129" stroke="#4C4F58" stroke-width="3" fill="#C7A682"></path>
                    <path d="M85.9756297,2.87912088 C85.9756297,2.87912088 84.8718823,19.8522582 85.2627034,20.2287033 L89.7542823,21.0456538 L91.5895665,4.49862637 C91.5895665,4.49862637 86.9397981,3.14615934 85.9756297,2.87912088" id="Fill-130" stroke="#4C4F58" fill="#E7C69E"></path>
                    <path d="M92.0364623,26.1517747 C92.0879991,24.8935989 89.3429465,24.1493462 84.8764202,23.8736703 C83.7297255,23.8024121 82.8213886,23.7541868 82.0977255,23.7527473 C81.2001255,23.9586044 80.9238307,24.4631703 80.8844623,25.5082912 C80.8493886,26.4267308 84.4870307,27.188978 86.6286728,27.3682033 C87.5692202,27.4466593 88.9893465,27.6316429 90.2935149,27.6244451 C91.2820202,27.4430604 92.0006728,27.0227088 92.0364623,26.1517747" id="Fill-132"></path>
                    <path d="M135.479621,57.2686887 C135.479621,57.2686887 129.457069,105.673702 127.383103,121.995339 C127.027563,124.79336 123.221278,127.384147 121.474494,127.498585 C106.035628,128.510043 75.1578947,130.532958 75.1578947,130.532958 C75.1578947,130.532958 76.4162526,59.7778425 77.7476211,56.1479909 C77.7476211,56.1479909 133.740968,56.0018755 135.479621,57.2686887 Z" id="Fill-133" stroke="#4C4F58" stroke-width="3" fill="#A18565"></path>
                    <path d="M3.8574808,58.4611549 C18.8222109,57.9537867 72.4712609,56.147188 77.7791158,56.1428571 C77.7791158,56.1428571 76.1700211,124.100187 75.1893895,130.527824 C75.1893895,130.527824 28.7430721,130.617519 13.8039343,130.050789 C11.8682441,129.977357 9.58435436,128.564164 9.29073556,126.423921 C7.67497083,114.646305 2.28525316,75.3542341 0.514993848,62.380294 C0.262636868,60.530811 1.41236394,58.5440548 3.8574808,58.4611549 Z" id="Fill-134" stroke="#4C4F58" stroke-width="3" fill="#7C5F4C"></path>
                    <polyline id="Fill-135" stroke="#4C4F58" fill="#BDA27C" points="41.5744842 57.5824176 42.1993684 83.0691154 30.2406737 83.5326538 27.2 58.0545934 41.5744842 57.5824176"></polyline>
                    <path d="M130.477539,60.4615385 C130.477539,60.4615385 129.80285,65.4711717 129.499512,67.5027887 C129.155389,69.80756 128.535156,73.4707033 128.535156,73.4707033 L110.231579,74.5440385 L111.918457,60.4615385 L130.477539,60.4615385 Z" id="Fill-136" stroke="#4C4F58" fill="#7C5F4C"></path>
                </g>
            </g>
        </g>
    </g>
</svg>