<?xml version="1.0" encoding="UTF-8" standalone="no"?>
<svg width="72px" height="21px" viewBox="0 0 72 21" version="1.1" xmlns="http://www.w3.org/2000/svg" xmlns:xlink="http://www.w3.org/1999/xlink">
    <!-- Generator: Sketch 3.8.3 (29802) - http://www.bohemiancoding.com/sketch -->
    <title>Group</title>
    <desc>Created with Sketch.</desc>
    <defs></defs>
    <g id="Page-1" stroke="none" stroke-width="1" fill="none" fill-rule="evenodd">
        <g id="Group">
            <g id="Final-Logo-Master">
                <g id="Page-1">
                    <g id="Group-14" transform="translate(0.000000, 0.034833)">
                        <path d="M54.1634197,0.0907851389 C56.8486648,0.0907851389 59.0263732,2.26210833 59.0263732,4.93948 C59.0263732,5.97311361 58.7350014,6.92675569 58.0307958,7.70143111 C57.3784479,8.41904194 56.5017465,8.84018236 55.5899958,9.15954181 C55.3448408,8.98005694 55.0974042,8.80210139 54.8507282,8.62347597 C54.2972028,8.22264625 53.6681662,7.79387194 53.1384972,7.29057875 L53.4991437,7.18384333 C54.2504535,6.96146208 55.6289873,6.60925417 56.1671113,6.01724861 C56.4416239,5.71526764 56.5111268,5.33675819 56.5111268,4.93948 C56.5111268,3.64630681 55.4603958,2.59866931 54.1634197,2.59866931 L53.8582817,2.59866931 C52.5595563,2.59866931 51.5281563,3.64358944 51.5282324,4.93503111 C51.5283465,6.85538389 53.1980366,7.95806375 54.5973338,8.97134875 C56.6771324,10.4773608 58.8633465,11.9374432 59.0173859,14.7164947 C59.0286676,14.9108556 59.0277296,15.1023853 59.0141155,15.260561 C58.8353577,17.8535175 56.6687535,19.9024204 54.0228549,19.9024204 C51.259969,19.9024204 49.0193493,17.6680165 49.0193493,14.9135729 L49.0193493,14.0179054 L51.5345958,14.0179054 L51.5345958,14.9135729 C51.5345958,16.2841719 52.648238,17.3945489 54.0228549,17.3945489 C55.3754535,17.3945489 56.4753296,16.3194976 56.5102268,14.9792825 C56.4722366,13.1457842 54.4513056,11.9651097 53.1193056,11.0005097 C50.9506225,9.43011514 49.0131634,7.85925292 49.0129859,4.93518278 C49.0128465,2.25945417 51.1712113,0.0907851389 53.8582817,0.0907851389 L54.1634197,0.0907851389 L54.1634197,0.0907851389 Z M31.5167324,19.9024204 C28.8314873,19.9024204 26.6537915,17.7310972 26.6537915,15.0537382 C26.6537915,14.0200919 26.9452014,13.0664625 27.6493563,12.2917744 C28.6290507,11.2140311 30.1143042,10.8032419 31.4652423,10.4051675 L38.5266296,8.32438931 C39.0834634,9.07291486 39.8059099,9.71651236 40.5953493,10.3265663 L32.1810085,12.8093622 C31.4295972,13.031061 30.0511268,13.3839893 29.5130535,13.9759569 C29.2385662,14.2779 29.169038,14.6564474 29.169038,15.0537382 C29.169038,16.3468988 30.2197563,17.3945489 31.5167324,17.3945489 L31.8218704,17.3945489 C33.1205958,17.3945489 34.1519958,16.3496288 34.1519197,15.0581744 C34.1518817,14.2041394 33.8214549,13.5119328 33.3316268,12.9172731 L35.8777775,12.163654 C36.3697606,12.9750328 36.6671028,13.9127246 36.6671662,15.0580354 C36.6673183,17.7337514 34.5089408,19.9024204 31.8218704,19.9024204 L31.5167324,19.9024204 L31.5167324,19.9024204 Z M30.1617634,10.3544097 C28.4014521,9.05668653 26.7929113,7.64608542 26.6615873,5.27671083 C26.6503056,5.08235 26.651231,4.89082028 26.6648577,4.73264458 C26.8436155,2.13968806 29.0102197,0.0907851389 31.6561183,0.0907851389 C34.4190042,0.0907851389 36.6596239,2.32520167 36.6596239,5.07963264 L36.6596239,5.97530014 L34.1443775,5.97530014 L34.1443775,5.07963264 C34.1443775,3.70904625 33.0307352,2.59866931 31.6561183,2.59866931 C30.3035197,2.59866931 29.2036437,3.67372056 29.1687465,5.01392306 C29.2067239,6.84743403 31.2276549,8.02810847 32.5596676,8.99270847 C32.769862,9.14493125 32.9778761,9.29715403 33.1821507,9.45060278 L31.3418535,9.99287431 C30.9504042,10.1082042 30.5534282,10.2240017 30.1617634,10.3544097 L30.1617634,10.3544097 Z M45.3288676,5.00654194 C45.2900915,3.66977722 44.1918634,2.59866931 42.8417493,2.59866931 C41.4891507,2.59866931 40.3892746,3.67372056 40.3543775,5.01392306 C40.3923676,6.84743403 42.4132986,8.02810847 43.7452986,8.99270847 C43.954707,9.1443625 44.1619352,9.29597861 44.3654873,9.44884597 L42.5269775,9.99302597 C42.1359718,10.1087476 41.7394268,10.2246463 41.3481169,10.3549785 C39.5870577,9.05683819 37.9777563,7.64579472 37.8470408,5.27514361 C37.8366845,5.09664458 37.8369761,4.90077972 37.8504887,4.73264458 C38.0292465,2.13972597 40.1958507,0.0907851389 42.8417493,0.0907851389 C45.4424451,0.0907851389 47.5800845,2.07032583 47.8221592,4.60026486 C47.8441141,4.80452194 47.8463704,5.14870417 47.828193,5.35234194 C47.7559648,6.26005431 47.4485704,7.09585139 46.8013563,7.78286347 C46.2089789,8.41166083 45.4407592,8.79837292 44.6353732,9.09277056 C44.4359535,8.94283542 44.2328577,8.79382292 44.0271507,8.64486097 C43.4851479,8.25237292 42.7619028,7.79067431 42.1386972,7.24603931 L42.5720408,7.11777986 C43.2538606,6.91596208 44.4701155,6.59442875 44.968069,6.0658325 C45.2425183,5.77449347 45.3190563,5.39297597 45.3288676,5.00654194 L45.3288676,5.00654194 Z M42.7011845,19.9024204 C40.0159394,19.9024204 37.838231,17.7310972 37.838231,15.0537382 C37.838231,14.0200919 38.1296408,13.0664625 38.8338085,12.2917744 C39.8135028,11.2140311 41.2987563,10.8032419 42.6496944,10.4051675 L49.6253028,8.34964181 C50.1451352,9.10573806 50.8258014,9.76050833 51.5896099,10.3802057 L43.3654606,12.8093622 C42.6140493,13.0312758 41.2356169,13.3839893 40.697493,13.9759569 C40.4230183,14.2779379 40.3534901,14.6564474 40.3534901,15.0537382 C40.3534901,16.3468987 41.4042085,17.3945489 42.7011845,17.3945489 L43.0063225,17.3945489 C44.3050479,17.3945489 45.3364479,16.3496287 45.3363718,15.0581744 C45.3363338,14.2041394 45.005907,13.5119328 44.5160789,12.9172731 L47.0622296,12.163654 C47.5542127,12.9750328 47.8515549,13.9127246 47.8516183,15.0580354 C47.8517704,17.7337514 45.693393,19.9024204 43.0063225,19.9024204 L42.7011845,19.9024204 L42.7011845,19.9024204 Z" id="Fill-1" fill="#FFFFFF"></path>
                        <g id="Group-8" transform="translate(27.507042, 1.011111)" fill="#FBAF17">
                            <path d="M18.5199085,11.4372213 C19.0632423,12.2360622 19.3384141,13.1040632 19.3384775,14.0724675 C19.3386296,16.1857403 17.6443859,17.9017728 15.5213746,17.9135649 C15.4598958,17.9138808 15.3983028,17.9136281 15.3368239,17.9136281 C15.2831408,17.9136281 15.2293944,17.9138429 15.1757113,17.9136028 C13.0531183,17.9037444 11.3372873,16.184489 11.3372873,14.0680944 C11.3372873,11.5442094 13.4059056,10.9800094 15.4289535,10.3811915 L23.2308634,8.07201597 L23.3740141,8.55288778 L15.5721042,10.8620633 C14.5665127,11.1596713 13.1700169,11.5190581 12.4449718,12.3166731 C11.9962141,12.8103228 11.8403366,13.4129703 11.8403366,14.0680944 C11.8403366,15.9085821 13.332169,17.4034593 15.1779042,17.4120158 C15.2308648,17.4122054 15.2838634,17.4120538 15.3368239,17.4120538 C15.3974789,17.4120538 15.4581338,17.4122054 15.5185732,17.4119906 C17.3650183,17.4017404 18.8355423,15.9100229 18.8354282,14.0724675 C18.8353901,13.2044918 18.5904127,12.4345307 18.1036014,11.7187525 L17.9624282,11.5111714 L18.3787732,11.2296781 L18.5199085,11.4372213 Z" id="Fill-2"></path>
                            <path d="M15.7453732,6.96776889 C16.5742225,6.71676056 17.6219239,6.38790931 18.2203859,5.73077556 C18.6637056,5.24400139 18.8101394,4.64324972 18.8105704,3.99826194 C18.8118634,2.10431181 17.2233761,0.584396944 15.334707,0.584396944 C13.433362,0.584396944 11.8403366,2.11649569 11.8403366,4.0222 C11.8403366,4.59671333 11.9693028,5.13382819 12.2329014,5.64461625 C12.8953521,6.92820917 14.3575732,7.90405778 15.5117408,8.72277972 L15.7167,8.86816486 L15.4250746,9.27686861 L15.2201155,9.13148347 C13.4254901,7.85841875 11.3372873,6.47410653 11.3372873,4.0222 C11.3372873,1.83980514 13.1553887,0.0828226389 15.334707,0.0828226389 C17.5015521,0.0828226389 19.3151282,1.82791194 19.3136197,3.99861583 C19.3120732,6.22256736 17.7536155,6.88382139 15.8915408,7.44770542 L15.6508732,7.52056861 L15.5047056,7.04063208 L15.7453732,6.96776889 Z" id="Fill-4"></path>
                            <path d="M7.25252958,11.3530336 C7.83501972,12.1732849 8.12550423,13.0654767 8.12556761,14.0724675 C8.12571972,16.1857782 6.43141268,17.9018865 4.30832535,17.9135649 C4.19667465,17.9141715 4.08507465,17.9136281 3.97343662,17.9136281 C1.84557042,17.9136281 0.124390141,16.1877119 0.124390141,14.0680944 C0.124390141,11.7581985 1.84610282,11.0829658 3.76189859,10.5158715 L12.1443338,8.03457958 L12.2874845,8.51545139 L9.60981972,9.307935 L3.90506197,10.9966675 C3.01279437,11.2608203 1.87694366,11.6055081 1.23386197,12.3125528 C0.783925352,12.8072389 0.627439437,13.4114283 0.627439437,14.0680944 C0.627439437,15.9108824 2.12321408,17.4120537 3.97343662,17.4120537 C4.08413662,17.4120537 4.19481127,17.4125972 4.30552394,17.4119906 C6.15203239,17.4018415 7.62263239,15.9100608 7.62251831,14.0724675 C7.62248028,13.1693431 7.36431972,12.3784014 6.84196479,11.6428686 L6.69662113,11.4381944 L7.10718592,11.1483594 L7.25252958,11.3530336 Z" id="Fill-5"></path>
                            <path d="M7.61616761,4.74922681 C7.61616761,4.50485389 7.61777746,4.25987431 7.6158,4.01642403 C7.58857183,2.11284306 6.03087465,0.584396944 4.12179718,0.584396944 C2.22045211,0.584396944 0.627439437,2.11649569 0.627439437,4.0222 C0.627439437,6.21342944 2.58207465,7.49151181 4.17602535,8.63299306 L4.3803,8.77927556 L4.08683662,9.18666486 L3.88252394,9.04034444 C2.12907042,7.78465819 0.124390141,6.43108375 0.124390141,4.0222 C0.124390141,1.83980514 1.94247887,0.0828226389 4.12179718,0.0828226389 C6.3057169,0.0828226389 8.08762817,1.83164042 8.11878592,4.00925778 C8.12229718,4.25510944 8.1192169,4.503135 8.1192169,4.74922681 L8.1192169,5.00002028 L7.61616761,5.00002028 L7.61616761,4.74922681 Z" id="Fill-6"></path>
                            <path d="M23.0252577,4.01058486 C23.0614479,6.30719736 25.1658761,7.58713764 26.8314845,8.79324153 C28.6701592,10.1246726 30.5228155,11.4924026 30.5229296,13.9874457 C30.5230056,16.1643553 28.6966394,17.9136028 26.5255479,17.9136028 C24.3311451,17.9136028 22.5461789,16.1489864 22.5282803,13.9611189 C22.525593,13.6280336 22.5281408,13.2939119 22.5281408,12.9606876 L22.5281408,12.7099068 L23.0311901,12.7099068 L23.0311901,12.9606876 C23.0311901,13.2930146 23.0301507,13.6255311 23.0313296,13.9570365 C23.0469592,15.8696796 24.6071662,17.4120158 26.5255479,17.4120158 C28.4186028,17.4120158 30.0199563,15.8877026 30.0198803,13.9874457 C30.0197662,11.6950419 28.2192845,10.4180971 26.5359042,9.19908889 C24.7823366,7.92932292 22.7343169,6.64292417 22.5371915,4.31930236 L22.5217394,4.31930236 L22.5217394,4.06852153 C22.5217394,4.04932306 22.5218915,4.03014986 22.5221324,4.01101458 C22.5218915,3.99088083 22.5217394,3.97067125 22.5217394,3.95039847 L22.5217394,3.69961764 L22.5386366,3.69961764 C22.7253676,1.67141722 24.4363183,0.0828226389 26.5191592,0.0828226389 C28.6837479,0.0828226389 30.5165662,1.82601611 30.5165662,3.99843889 C30.5165662,6.28358792 28.921107,7.14338625 26.9018366,7.53511597 L26.6549451,7.58301736 L26.5588606,7.09068208 L26.8057521,7.04278069 C28.5791451,6.6987375 30.0135169,6.02093917 30.0135169,3.99843889 C30.0135169,2.10263083 28.4056352,0.584396944 26.5191592,0.584396944 C24.6086113,0.584396944 23.0563014,2.11302 23.0252577,4.01058486" id="Fill-7"></path>
                        </g>
                        <path d="M62.8689549,7.88282444 L68.9517887,7.88282444 L68.9517887,0.236751667 L71.9228028,0.236751667 L71.9228028,19.6258436 L68.9517887,19.6258436 L68.9517887,10.5984919 L62.8689549,10.5984919 L62.8689549,19.6258436 L59.8979028,19.6258436 L59.8979028,0.236751667 L62.8689549,0.236751667 L62.8689549,7.88282444 Z M13.8687085,0.236751667 L16.7901972,0.236751667 L16.7901972,13.1377585 C16.7901972,14.1088675 16.8652268,15.7038447 17.4516718,16.5078297 C17.9523507,17.1942351 18.8430085,17.3541297 19.641993,17.3541297 C20.5378099,17.3541297 21.4104676,17.1365892 21.9787606,16.3967339 C22.6292451,15.5499283 22.7494014,14.1719608 22.7494014,13.1377585 L22.7494014,0.236751667 L25.6214915,0.236751667 L25.6214915,12.7636094 C25.6214915,13.4424568 25.6084859,14.1222774 25.5548789,14.7992542 C25.5181563,15.2633163 25.4659056,15.7419257 25.3427704,16.1918449 C25.1533014,16.8837608 24.8268549,17.5157432 24.3642296,18.0655854 C23.8089676,18.7255124 23.1199352,19.2191621 22.3225606,19.5485568 C21.4640366,19.9032799 20.5431718,20.0451514 19.6172746,20.0451514 C18.6597507,20.0451514 17.7100225,19.8891243 16.8278577,19.5091108 C16.0271493,19.1642461 15.3385099,18.6532811 14.8204014,17.9495731 C14.4348085,17.4258933 14.2044211,16.8103163 14.075062,16.1773733 C13.9823873,15.7237636 13.9452085,15.2555813 13.9180056,14.7940596 C13.8781521,14.1180813 13.8687085,13.4406621 13.8687085,12.7636094 L13.8687085,0.236751667 Z M9.39759718,9.86541111 C9.84214648,10.0487382 10.2403521,10.3136367 10.5667606,10.6794314 C11.2624352,11.4590486 11.522662,12.5911771 11.615793,13.6049676 C11.6732155,14.2301124 11.7092155,14.8568622 11.7486761,15.4832582 C11.8570056,17.2040935 12.0310225,18.5663382 13.0936817,19.6258436 L9.49249014,19.6258436 C8.89243099,18.6223285 8.87118592,17.3435257 8.81603239,16.2040919 C8.7857493,15.5786692 8.75225915,14.9532085 8.69763803,14.3294288 C8.63220423,13.5816489 8.44816056,12.5028692 7.84604789,11.9898693 C7.22315915,11.4592003 5.9445507,11.3877906 5.15570704,11.3877906 L2.93060282,11.3877906 L2.93060282,19.6258436 L0.0585507042,19.6258436 L0.0585507042,0.236751667 L5.69992817,0.236751667 C7.25464648,0.236751667 9.02796338,0.480909722 10.2588845,1.51089069 C11.4344493,2.49447431 11.8113338,3.94260028 11.8113338,5.41758389 C11.8113338,6.56088514 11.5862197,7.72228528 10.8806958,8.65173653 C10.4838211,9.17455681 9.9738,9.56980014 9.39759718,9.86541111 L9.39759718,9.86541111 Z M2.93060282,8.74611111 L5.03202676,8.74611111 C5.9813493,8.74611111 7.2122831,8.62511903 7.97195915,8.00309611 C8.6558831,7.44305431 8.84029437,6.56396903 8.84029437,5.72182722 C8.84029437,4.95760417 8.69595211,4.09407736 8.08129014,3.57118125 C7.41662113,3.00569208 6.27289859,2.90305167 5.43194366,2.90305167 L2.93060282,2.90305167 L2.93060282,8.74611111 Z" id="Fill-9" fill="#FFFFFF"></path>
                        <path d="M35.4791789,8.39869333 L35.4785704,8.40013417 L35.4782535,8.40074083 L35.477607,8.40213111 L35.476707,8.40392583 L35.4760225,8.40525292 L35.4756296,8.40597333 L35.474907,8.40732569 L35.4746155,8.40783125 C35.4740451,8.40882972 35.4734746,8.40984083 35.4728915,8.41083931 L35.4728282,8.41095306 L35.4719915,8.41224222 L35.4715986,8.41288681 L35.4707366,8.41423917 L35.4705592,8.41452986 C35.4695197,8.41607181 35.4684803,8.41757583 35.4674028,8.41904194 L35.4671873,8.41933264 C35.4661099,8.42083667 35.4650324,8.42226486 35.4638789,8.42366778 L35.4635873,8.42398375 L35.4626493,8.42509597 L35.4620408,8.42581639 L35.4611155,8.42692861 L35.4609,8.42718139 C35.4602155,8.427965 35.459493,8.42872333 35.4588085,8.42943111 L35.4583014,8.43003778 L35.457262,8.43108681 L35.4567676,8.43161764 L35.4556521,8.43272986 L35.455538,8.43284361 C35.4547901,8.43355139 35.4540676,8.43427181 35.453307,8.43495431 L35.4525211,8.43566208 L35.4516211,8.43649625 L35.4506577,8.43735569 L35.4498592,8.43803819 L35.4498211,8.43810139 L35.4482873,8.43935264 L35.4482873,8.43942847 L35.4474254,8.44007306 L35.4463732,8.44089458 L35.4454479,8.44165292 L35.4446113,8.4422975 L35.4436099,8.44308111 C35.4430775,8.44344764 35.4425324,8.44383944 35.442,8.44423125 L35.441962,8.44426917 L35.4409479,8.44495167 L35.4399465,8.44563417 L35.4389704,8.44630403 L35.437893,8.44702444 L35.4368155,8.44770694 L35.4351676,8.44874333 L35.4343817,8.44921097 L35.4329366,8.45007042 L35.4322901,8.45042431 C35.4317197,8.45075292 35.4311366,8.45106889 35.4305662,8.45135958 L35.4302113,8.45161236 L35.4301352,8.45165028 L35.4299577,8.45171347 C35.4293493,8.45208 35.4287028,8.45235806 35.4280944,8.45268667 L35.4273338,8.45311639 L35.4257493,8.45386208 L35.4251789,8.45419069 C35.4244183,8.45454458 35.4237085,8.45487319 35.4229479,8.45518917 L35.4229099,8.45522708 L35.4228718,8.45522708 C35.422162,8.45551778 35.4214014,8.45587167 35.4206915,8.45620028 L35.420007,8.45647833 L35.4182451,8.45719875 L35.4177,8.45737569 C35.4169521,8.45770431 35.4161915,8.45795708 35.4154437,8.45827306 L35.4147972,8.45848792 L35.4130732,8.45906931 L35.4123887,8.45930944 C35.4117803,8.45952431 35.4111592,8.45971389 35.4105507,8.45992875 L35.4099423,8.46010569 C35.4091563,8.46035847 35.4083197,8.46059861 35.4075338,8.46085139 L35.4073944,8.46088931 C35.4065958,8.46106625 35.4058859,8.46124319 35.4051254,8.46145806 L35.4044408,8.46164764 L35.4026155,8.46207736 L35.401931,8.46225431 C35.4011451,8.46243125 35.4003465,8.46260819 35.3995986,8.46274722 L35.3989521,8.46289889 C35.3983056,8.463 35.3976845,8.46315167 35.3970761,8.46325278 L35.3962521,8.46336653 C35.3956056,8.46350556 35.3949211,8.46361931 35.3941986,8.46372042 L35.3938056,8.46379625 C35.3929817,8.46393528 35.3921197,8.46404903 35.3913338,8.46415014 L35.3905732,8.46422597 L35.3886718,8.46447875 L35.3879493,8.46454194 C35.3862254,8.46469361 35.3845014,8.46483264 35.3827394,8.46490847 L35.382207,8.46497167 C35.3815606,8.46497167 35.3808761,8.46500958 35.3802296,8.4650475 L35.379431,8.4650475 C35.3785437,8.46508542 35.377707,8.46508542 35.376807,8.46508542 L35.376807,8.46508542 C35.3759451,8.46508542 35.3750831,8.46508542 35.3742211,8.4650475 L35.3734732,8.4650475 C35.3727507,8.46500958 35.3721042,8.46497167 35.3714577,8.46497167 L35.3709254,8.46490847 C35.3691254,8.46483264 35.3674014,8.46469361 35.3657155,8.46454194 L35.364993,8.46447875 L35.3630535,8.46422597 L35.362293,8.46415014 C35.361507,8.46404903 35.3606831,8.46393528 35.3598845,8.46379625 L35.3594282,8.46372042 C35.358769,8.46361931 35.3580592,8.46350556 35.3573746,8.46336653 L35.3565887,8.46325278 C35.3559676,8.46315167 35.3553211,8.463 35.3547127,8.46289889 L35.3541042,8.46274722 C35.3532803,8.46260819 35.3525197,8.46243125 35.3517338,8.46225431 L35.3510493,8.46207736 L35.3491859,8.46164764 L35.3485394,8.46145806 C35.3477789,8.46124319 35.347031,8.46106625 35.3463085,8.46088931 L35.346131,8.46085139 C35.3453324,8.46059861 35.3445085,8.46035847 35.3437225,8.46010569 L35.3431394,8.45992875 L35.3412761,8.45930944 L35.3405915,8.45906931 L35.3388296,8.45848792 L35.3381831,8.45827306 C35.3374732,8.45795708 35.3366746,8.45770431 35.3359521,8.45737569 L35.3353817,8.45719875 L35.3336958,8.45647833 L35.3329732,8.45620028 C35.3322634,8.45587167 35.3315028,8.45559361 35.3307803,8.45522708 L35.3307423,8.45522708 L35.3307169,8.45518917 C35.3299563,8.45483528 35.3292338,8.45454458 35.3285239,8.45419069 L35.3278775,8.45386208 L35.326293,8.45311639 L35.3255324,8.45268667 C35.3249239,8.45235806 35.3243535,8.45208 35.3237451,8.45171347 L35.3235296,8.45165028 L35.3234535,8.45161236 L35.3230986,8.45135958 C35.3224775,8.45106889 35.321907,8.45075292 35.3213366,8.45042431 L35.3207282,8.45007042 L35.3192831,8.44921097 L35.3185352,8.44874333 L35.3168366,8.44770694 L35.3157592,8.44702444 L35.3146563,8.44630403 L35.3136803,8.44563417 L35.3127042,8.44495167 L35.3117408,8.44426917 L35.3116648,8.44423125 C35.3111324,8.44383944 35.3105873,8.44344764 35.3100549,8.44308111 L35.3090408,8.4422975 L35.3081789,8.44165292 L35.3072789,8.44089458 L35.3062014,8.44007306 L35.3053775,8.43942847 L35.3053394,8.43935264 C35.3048451,8.43896083 35.304338,8.43853111 35.303869,8.43810139 L35.3037676,8.43803819 L35.302969,8.43735569 L35.3020056,8.43649625 L35.3011437,8.43566208 L35.3003451,8.43495431 C35.2995972,8.43427181 35.2988366,8.43355139 35.2981521,8.43284361 L35.2979746,8.43272986 L35.2968972,8.43161764 L35.2963648,8.43108681 L35.2953507,8.43003778 L35.2948563,8.42943111 C35.2941338,8.42872333 35.2934873,8.427965 35.2927648,8.42718139 L35.2925493,8.42692861 L35.2915859,8.42581639 L35.2909775,8.42509597 L35.2900775,8.42398375 L35.2898239,8.42366778 C35.2886324,8.42226486 35.2875169,8.42083667 35.2864394,8.41933264 L35.286262,8.41904194 C35.2851465,8.41757583 35.284107,8.41607181 35.2831056,8.41452986 L35.2828901,8.41423917 L35.2820282,8.41288681 L35.2816606,8.41224222 L35.2808746,8.41095306 L35.2807606,8.41083931 C35.2801521,8.40984083 35.2796197,8.40882972 35.2790366,8.40783125 L35.2787197,8.40732569 L35.2780352,8.40597333 L35.2776423,8.40525292 L35.2769577,8.40392583 C35.2766282,8.40335708 35.2763493,8.40273778 35.2760577,8.40213111 L35.2753732,8.40074083 L35.2751197,8.40013417 L35.2744479,8.39869333 L35.2743718,8.39851639 L35.2743338,8.39851639 L34.7182859,7.61638403 C34.5672254,7.40386111 34.4640296,7.19774611 34.4588577,6.99937875 L34.4589972,6.99944194 C34.4587437,6.99754611 34.4585282,6.99568819 34.4582493,6.99381764 C34.4577803,6.99041778 34.4573113,6.98701792 34.4568803,6.98360542 C34.4563732,6.97995278 34.4559803,6.97633806 34.4555493,6.97268542 C34.4550423,6.96838819 34.4545732,6.96407833 34.4541169,6.95981903 C34.4538634,6.95712694 34.4535718,6.95440958 34.4533183,6.95169222 C34.4528239,6.94634597 34.4523549,6.94101236 34.451962,6.93564083 L34.4515563,6.93069903 C34.4511,6.92431639 34.4507324,6.91793375 34.4504155,6.91152583 L34.4503014,6.90926347 C34.4499465,6.90213514 34.449693,6.89500681 34.4495155,6.88784056 L34.4494775,6.88719597 C34.4493,6.87963792 34.4492239,6.87211778 34.4492239,6.86452181 C34.4492239,6.85657194 34.449338,6.84860944 34.4495155,6.84065958 C34.449731,6.83274764 34.4500099,6.82482306 34.4504155,6.81694903 C34.4508465,6.80906236 34.4513408,6.80121361 34.4519239,6.79340278 C34.4525324,6.78555403 34.4532169,6.77774319 34.4540028,6.76997028 C34.4547887,6.76219736 34.4556887,6.75446236 34.4566648,6.74672736 C34.4576662,6.73901764 34.4587437,6.73135847 34.4598972,6.72368667 C34.4610507,6.71601486 34.4623437,6.70841889 34.4637,6.70082292 C34.465069,6.69322694 34.4665141,6.68566889 34.4680479,6.67814875 C34.4695944,6.67062861 34.4712549,6.66313375 34.4729789,6.65568944 C34.4746648,6.64819458 34.4765028,6.64078819 34.4784423,6.63340708 C34.4803056,6.62602597 34.4823211,6.61868278 34.4844,6.61132694 C34.4864915,6.60402167 34.4886465,6.59671639 34.4909408,6.58951222 C34.4931718,6.58228278 34.4955042,6.57507861 34.4979507,6.56791236 C34.5003972,6.56070819 34.502869,6.55361778 34.505493,6.54652736 C34.5080789,6.53946222 34.5108169,6.53240972 34.5135803,6.52542042 C34.5163056,6.51839319 34.5191831,6.51144181 34.5220986,6.50452833 C34.5250394,6.49761486 34.5280563,6.49073931 34.5311493,6.48390167 C34.5342423,6.47708931 34.5373986,6.47031486 34.540707,6.46355306 C34.5439394,6.45681653 34.5472859,6.45011792 34.5506958,6.44344458 C34.5541056,6.43685972 34.5575915,6.43022431 34.5611915,6.42367736 C34.5647408,6.41711778 34.5684169,6.41059611 34.5721183,6.40418819 C34.5758451,6.39772972 34.5796225,6.39128389 34.5835394,6.38493917 C34.5873803,6.37860708 34.5913352,6.37230028 34.5953282,6.36603139 C34.5993845,6.35978778 34.6034789,6.35355681 34.6076493,6.34742694 C34.6118197,6.34127181 34.6160535,6.33517986 34.620338,6.32912583 C34.6246479,6.32307181 34.6290718,6.31709361 34.6334831,6.31117861 C34.6379704,6.30522569 34.6424704,6.29934861 34.6470718,6.29354736 L34.6470718,6.29354736 C34.6516606,6.28770819 34.6563,6.28190694 34.6610408,6.27624472 C34.6657563,6.27051931 34.6705732,6.26485708 34.6754155,6.25925806 L34.6754155,6.25925806 C34.6803085,6.25367167 34.6851887,6.24816111 34.6902211,6.24263792 C34.6951775,6.23719056 34.7002479,6.23174319 34.7053817,6.22640958 L34.7053817,6.22640958 C34.7104521,6.22107597 34.715662,6.21576764 34.7209099,6.21057306 C34.7261197,6.20534056 34.731469,6.20014597 34.736831,6.19506514 C34.7421803,6.18993375 34.7476437,6.18489083 34.753107,6.17994903 C34.7586338,6.17493139 34.7641732,6.17005278 34.7697761,6.16521208 C34.7753789,6.16034611 34.7810197,6.15554333 34.7867746,6.15085431 C34.7924789,6.14612736 34.7982718,6.14150153 34.8041282,6.13691361 C34.8099845,6.13236361 34.8158789,6.12785153 34.8218113,6.12337736 C34.827769,6.11896639 34.8337648,6.11455542 34.8398493,6.11029611 C34.8459211,6.10599889 34.8520183,6.10176486 34.8582042,6.09761931 L34.8582042,6.09761931 C34.8643521,6.09346111 34.8706014,6.08937875 34.8768507,6.08532167 C34.883138,6.08135306 34.8894634,6.07740972 34.8958268,6.0735675 C34.9021901,6.06966208 34.9086549,6.06590833 34.9151197,6.06217986 C34.9215592,6.05848931 34.9280873,6.05483667 34.9346662,6.05128514 L34.9346662,6.05128514 C34.9412451,6.04770833 34.9478873,6.04427056 34.9545042,6.04083278 C34.9611845,6.03742028 34.9679028,6.03409625 34.9746592,6.03087333 C34.9814535,6.0276125 34.9882479,6.02445278 34.9950676,6.02136889 C35.001938,6.01829764 35.0088338,6.01525167 35.0157296,6.01230681 C35.0227014,6.0094125 35.0296732,6.00654347 35.0366831,6.00381347 L35.0366831,6.00381347 C35.0437183,6.00105819 35.0507662,5.99834083 35.0578775,5.99578778 C35.0649887,5.99318417 35.0721127,5.99066903 35.0793254,5.98822972 C35.0865127,5.98580306 35.093738,5.98346486 35.1009634,5.98125306 L35.1009634,5.98125306 C35.1082268,5.97895278 35.1155155,5.97680417 35.1228803,5.97473139 L35.1228803,5.97473139 C35.130207,5.97264597 35.1375718,5.97064903 35.1450127,5.96877847 C35.1524155,5.96688264 35.1598563,5.96505 35.1673225,5.96333111 L35.1673225,5.96333111 C35.1748394,5.96161222 35.1823183,5.95996917 35.1898606,5.95842722 L35.1898606,5.95842722 C35.1974408,5.95688528 35.2049831,5.95545708 35.2126394,5.95413 C35.2202577,5.95272708 35.2278761,5.95147583 35.2355577,5.95028778 L35.2355577,5.95028778 C35.2432521,5.94915028 35.2509465,5.94807597 35.2586662,5.94706486 L35.2586662,5.94706486 C35.2664239,5.94610431 35.2741944,5.94524486 35.2819901,5.94442333 L35.2819901,5.94442333 C35.2897859,5.943665 35.2976197,5.94294458 35.3054915,5.94233792 L35.3054915,5.94233792 C35.3133254,5.94176917 35.3211845,5.94126361 35.3290944,5.94083389 L35.3290944,5.94083389 C35.3370042,5.94044208 35.3449394,5.94015139 35.3528873,5.93993653 L35.3528873,5.93993653 C35.3608606,5.93975958 35.3688338,5.93965847 35.376807,5.93965847 L35.376807,5.93965847 C35.384831,5.93965847 35.3928423,5.93975958 35.4007775,5.93993653 L35.4007775,5.93993653 C35.4087254,5.94015139 35.4166606,5.94044208 35.4245324,5.94083389 L35.4245324,5.94083389 C35.4324676,5.94126361 35.4403775,5.94176917 35.4482113,5.94233792 L35.4482113,5.94233792 C35.4560831,5.94294458 35.4638789,5.943665 35.4716366,5.94442333 L35.4716366,5.94442333 C35.4794324,5.94524486 35.4872282,5.94610431 35.4949606,5.94706486 L35.4949606,5.94706486 C35.5027183,5.94807597 35.5104507,5.94915028 35.5180944,5.95028778 L35.5180944,5.95028778 C35.5257887,5.95147583 35.5334451,5.95272708 35.5410254,5.95413 C35.5486437,5.95545708 35.5562239,5.95688528 35.5637662,5.95842722 L35.5637662,5.95842722 C35.5713085,5.95996917 35.5788634,5.96161222 35.5863296,5.96333111 L35.5863296,5.96333111 C35.5938085,5.96505 35.6012493,5.96684472 35.6086775,5.96877847 C35.6160803,5.97064903 35.6234451,5.97264597 35.6307845,5.97473139 L35.6307845,5.97473139 C35.6381113,5.97680417 35.6454,5.97895278 35.6526634,5.98125306 L35.6526634,5.98125306 C35.6599521,5.98346486 35.6671394,5.98580306 35.6743268,5.98822972 C35.6815141,5.99066903 35.6886634,5.99318417 35.6957873,5.99578778 C35.7028986,5.99834083 35.7099338,6.00105819 35.7169817,6.00381347 L35.7169817,6.00381347 C35.7239915,6.00654347 35.7309254,6.0094125 35.7378972,6.01230681 C35.744831,6.01525167 35.7517268,6.01829764 35.7585592,6.02136889 C35.7654169,6.02445278 35.7722113,6.0276125 35.7789676,6.03087333 C35.7857239,6.03409625 35.7924423,6.03742028 35.7991225,6.04083278 C35.8058028,6.04427056 35.8123817,6.04770833 35.8189986,6.05128514 L35.8189986,6.05128514 C35.8255394,6.05483667 35.8320676,6.05848931 35.8385451,6.06217986 C35.8450479,6.06590833 35.8514366,6.06966208 35.857838,6.0735675 C35.8642014,6.07740972 35.8705268,6.08135306 35.8767761,6.08532167 C35.8830634,6.08937875 35.8892746,6.09346111 35.8954606,6.09761931 L35.8954606,6.09761931 C35.9016338,6.10176486 35.9077437,6.10599889 35.9138155,6.11029611 C35.9198873,6.11455542 35.9258577,6.11896639 35.9318535,6.12337736 C35.9377859,6.12785153 35.9436803,6.13236361 35.9495366,6.13691361 C35.9553549,6.14150153 35.9611352,6.14612736 35.9668901,6.15085431 C35.972607,6.15554333 35.9782859,6.16034611 35.9838887,6.16521208 C35.9894915,6.17001486 35.9950563,6.17493139 36.0005197,6.17994903 C36.0060211,6.18489083 36.0114465,6.18993375 36.0167958,6.19506514 C36.0222211,6.20014597 36.027507,6.20534056 36.0327549,6.21057306 C36.0380028,6.21576764 36.0431746,6.22107597 36.0483085,6.22640958 L36.0483085,6.22640958 C36.0534169,6.23174319 36.0584873,6.23719056 36.0634817,6.24263792 C36.068438,6.24816111 36.0733563,6.25367167 36.0782493,6.25925806 L36.0782493,6.25925806 C36.0830915,6.26485708 36.0878704,6.27051931 36.0926113,6.27624472 C36.0973268,6.28190694 36.1019915,6.28770819 36.106593,6.29354736 L36.106593,6.29354736 C36.1111944,6.29934861 36.1156817,6.30522569 36.1201437,6.31117861 C36.124593,6.31709361 36.1289789,6.32307181 36.1332887,6.32912583 C36.1375986,6.33517986 36.1418451,6.34127181 36.1460155,6.34742694 C36.1501859,6.35355681 36.1542803,6.35978778 36.1582986,6.36603139 C36.1623296,6.37230028 36.1662718,6.37860708 36.1701634,6.38493917 C36.1740042,6.39128389 36.177807,6.39772972 36.1815085,6.40418819 C36.1852859,6.41059611 36.1888732,6.41711778 36.1924732,6.42367736 C36.1960352,6.43022431 36.1995465,6.43685972 36.202931,6.44344458 C36.2063789,6.45011792 36.2096873,6.45681653 36.2129958,6.46355306 C36.2162282,6.47031486 36.2194225,6.47708931 36.2225155,6.48390167 C36.2255958,6.49073931 36.2285873,6.49761486 36.2315282,6.50452833 C36.2344817,6.51144181 36.2373211,6.51839319 36.2400845,6.52542042 C36.2428859,6.53240972 36.2455479,6.53946222 36.2481718,6.54652736 C36.2507577,6.55361778 36.2532676,6.56070819 36.2556761,6.56791236 C36.2581225,6.57507861 36.2604549,6.58228278 36.262762,6.58951222 C36.2649803,6.59671639 36.2671732,6.60402167 36.2692648,6.61132694 C36.2713437,6.61868278 36.2733211,6.62602597 36.2752606,6.63340708 C36.2771239,6.64078819 36.278962,6.64819458 36.2806859,6.65568944 C36.2824099,6.66313375 36.2840324,6.67062861 36.2855789,6.67814875 C36.2871127,6.68566889 36.2885958,6.69322694 36.2899521,6.70082292 C36.2912831,6.70841889 36.2925761,6.71601486 36.2937676,6.72368667 C36.2949211,6.73135847 36.2959986,6.73901764 36.296962,6.74672736 C36.2979634,6.75446236 36.2988634,6.76219736 36.299662,6.76997028 C36.3004479,6.77774319 36.3011324,6.78555403 36.3017408,6.79340278 C36.3023113,6.80121361 36.3028183,6.80906236 36.3032113,6.81694903 C36.3036423,6.82482306 36.3039718,6.83274764 36.3041493,6.84065958 C36.3043268,6.84860944 36.3044789,6.85657194 36.3044789,6.86452181 C36.3044789,6.87211778 36.3043268,6.87963792 36.3041493,6.88719597 L36.3041493,6.88784056 C36.3039718,6.89500681 36.3037183,6.90213514 36.3033634,6.90926347 L36.3032493,6.91152583 C36.3029324,6.91793375 36.3025268,6.92431639 36.3020704,6.93069903 L36.3017028,6.93564083 C36.3012718,6.94101236 36.3008408,6.94634597 36.3003465,6.95169222 C36.300093,6.95440958 36.2998394,6.95712694 36.2995479,6.95981903 C36.2990789,6.96407833 36.2986099,6.96838819 36.2981155,6.97268542 C36.2977225,6.97633806 36.2972535,6.97995278 36.2967845,6.98360542 C36.2963155,6.98701792 36.2958845,6.99041778 36.2953775,6.99381764 C36.2951366,6.99568819 36.2949211,6.99754611 36.2946676,6.99944194 L36.294807,6.99937875 C36.2895972,7.19774611 36.1864014,7.40386111 36.0353408,7.61638403 L35.479331,8.39851639 L35.479293,8.39851639 L35.4791789,8.39869333 Z" id="Fill-10" fill="#FBAF17"></path>
                        <path d="M35.376807,6.46788819 C35.5952408,6.46788819 35.7723127,6.64444083 35.7723127,6.86219625 C35.7723127,7.07995167 35.5952408,7.25650431 35.376807,7.25650431 C35.1583859,7.25650431 34.9813394,7.07995167 34.9813394,6.86219625 C34.9813394,6.64444083 35.1583859,6.46788819 35.376807,6.46788819" id="Fill-11" fill="#FEFEFE"></path>
                        <path d="M50.3933831,14.0128625 L50.3927746,14.0142907 L50.3924577,14.0148974 L50.3918113,14.0163003 L50.3909113,14.0180824 L50.3902268,14.0194094 L50.3898338,14.0201299 L50.3891113,14.0214949 L50.3888197,14.0219878 C50.3882493,14.0229989 50.3876789,14.0239974 50.3870958,14.0250085 L50.3870324,14.0251096 L50.3861958,14.0263987 L50.3858028,14.0270433 L50.3849408,14.0284083 L50.3847634,14.028699 C50.3837239,14.0302283 50.3826845,14.0317324 50.381607,14.0332111 L50.3813915,14.0334892 C50.3803141,14.0349932 50.3792366,14.036434 50.3780831,14.0378243 L50.3777915,14.0381529 L50.3768535,14.0392651 L50.3762451,14.0399729 L50.3753197,14.0410851 L50.3751042,14.0413379 C50.3744197,14.0421342 50.3736972,14.0428799 50.3730127,14.0436003 L50.3725056,14.0442069 L50.3714662,14.0452433 L50.3709718,14.0457868 L50.3698563,14.046899 L50.3697423,14.0470001 C50.3689944,14.0477206 50.3682718,14.0484283 50.3675113,14.0491108 L50.3667254,14.0498312 L50.3658254,14.0506528 L50.364862,14.0515122 L50.3640634,14.0521947 L50.364038,14.0522706 L50.3624915,14.0535218 L50.3624915,14.0535976 L50.3616296,14.0542422 L50.3605775,14.0550637 L50.3596521,14.0558094 L50.3588155,14.056454 L50.3578141,14.0572503 C50.3572817,14.0576042 50.3567366,14.057996 50.3562042,14.0583878 L50.3561662,14.0584257 L50.3551521,14.0591082 L50.3541507,14.0597907 L50.3531746,14.0604732 L50.3520972,14.0611936 L50.3510197,14.0618635 L50.3493718,14.0629125 L50.3485859,14.0633675 L50.3471408,14.0642269 L50.3464944,14.0645935 C50.3459239,14.0649094 50.3453535,14.0652381 50.3447704,14.0655287 L50.3444155,14.0657689 L50.3443394,14.0658068 L50.344162,14.0658826 C50.3435535,14.0662365 50.342907,14.0665272 50.3422986,14.0668432 L50.341538,14.0672729 L50.3399535,14.0680312 L50.3393831,14.0683472 C50.3386225,14.0687137 50.3379127,14.0690297 50.3371521,14.0693583 L50.3371141,14.0693962 L50.3370887,14.0693962 C50.3363662,14.0696743 50.3356056,14.0700408 50.3348958,14.0703568 L50.3342113,14.0706475 L50.3324493,14.0713679 L50.3319042,14.0715449 C50.3311563,14.0718608 50.3303958,14.0721136 50.3296479,14.0724422 L50.3290014,14.0726571 L50.3272775,14.0732258 L50.326593,14.0734786 C50.3259845,14.0736935 50.3253634,14.0738704 50.3247549,14.0740853 L50.3241465,14.0742622 C50.3233606,14.074515 50.3225366,14.0747678 50.321738,14.0750206 L50.3215986,14.0750585 C50.3208,14.0752354 50.3200901,14.0754124 50.3193296,14.0756272 L50.3186451,14.0758042 L50.3168197,14.0762339 L50.3161352,14.0764108 C50.3153493,14.0765878 50.3145507,14.0767774 50.3138028,14.0769164 L50.3131563,14.0770554 C50.3125099,14.0771692 50.3118887,14.0773082 50.3112803,14.0774219 L50.3104563,14.0775231 C50.3098099,14.0776621 50.3091254,14.0777758 50.3084028,14.0778769 L50.3080099,14.0779528 C50.3071859,14.0780918 50.3063239,14.0782056 50.305538,14.0783193 L50.3047775,14.0783825 L50.3028761,14.0786353 L50.3021535,14.0787111 C50.3004296,14.0788501 50.2987056,14.0789892 50.2969437,14.079065 L50.2964113,14.0791408 C50.2957648,14.0791408 50.2950803,14.0791787 50.2944338,14.079204 L50.2936352,14.079204 C50.2927479,14.0792419 50.2919113,14.0792419 50.2910239,14.0792419 L50.2910239,14.0792419 C50.2901493,14.0792419 50.2892873,14.0792419 50.2884254,14.079204 L50.2876775,14.079204 C50.2869549,14.0791787 50.2863085,14.0791408 50.285662,14.0791408 L50.2851296,14.079065 C50.2833296,14.0789892 50.2816056,14.0788501 50.2799197,14.0787111 L50.2791972,14.0786353 L50.2772577,14.0783825 L50.2764972,14.0783193 C50.2757113,14.0782056 50.2748873,14.0780918 50.2740887,14.0779528 L50.2736324,14.0778769 C50.2729859,14.0777758 50.2722634,14.0776621 50.2715789,14.0775231 L50.270793,14.0774219 C50.2701718,14.0773082 50.2695254,14.0771692 50.2689169,14.0770554 L50.2683085,14.0769164 C50.2674845,14.0767774 50.2667239,14.0765878 50.265938,14.0764108 L50.2652535,14.0762339 L50.2633901,14.0758042 L50.2627437,14.0756272 C50.2619831,14.0754124 50.2612352,14.0752354 50.2605127,14.0750585 L50.2603352,14.0750206 C50.2595366,14.0747678 50.2587127,14.074515 50.2579268,14.0742622 L50.2573437,14.0740853 L50.2554803,14.0734786 L50.2547958,14.0732258 L50.2530338,14.0726571 L50.2523873,14.0724422 C50.2516775,14.0721136 50.2508789,14.0718608 50.250169,14.0715449 L50.2495859,14.0713679 L50.2479,14.0706475 L50.2471775,14.0703568 C50.2464676,14.0700408 50.245707,14.0697501 50.2449845,14.0693962 L50.2449592,14.0693962 L50.2449211,14.0693583 C50.2441606,14.0689918 50.243438,14.0687137 50.2427282,14.0683472 L50.2420817,14.0680312 L50.2404972,14.0672729 L50.2397366,14.0668432 C50.2391282,14.0665272 50.2385577,14.0662365 50.2379493,14.0658826 L50.2377338,14.0658068 L50.2376577,14.0657689 L50.2373028,14.0655287 C50.2366944,14.0652381 50.2361113,14.0649094 50.2355408,14.0645935 L50.2349324,14.0642269 L50.2334873,14.0633675 L50.2327394,14.0629125 L50.2310408,14.0618635 L50.2299634,14.0611936 L50.2288606,14.0604732 L50.2278845,14.0597907 L50.2269211,14.0591082 L50.2259451,14.0584257 L50.225869,14.0583878 C50.2253366,14.057996 50.2247915,14.0576042 50.2242592,14.0572503 L50.2232451,14.056454 L50.2223831,14.0558094 L50.2214831,14.0550637 L50.2204056,14.0542422 L50.2195817,14.0535976 L50.2195437,14.0535218 C50.2190493,14.05313 50.2185423,14.0527003 50.2180732,14.0522706 L50.2179718,14.0521947 L50.2171732,14.0515122 L50.2162099,14.0506528 L50.2153479,14.0498312 L50.2145493,14.0491108 C50.2138014,14.0484283 50.2130408,14.0477206 50.2123563,14.0470001 L50.2121789,14.046899 L50.2111014,14.0457868 L50.210569,14.0452433 L50.2095549,14.0442069 L50.2090606,14.0436003 C50.208338,14.0428799 50.2076915,14.0421342 50.206969,14.0413379 L50.2067535,14.0410851 L50.2057901,14.0399729 L50.2051817,14.0392651 L50.2042817,14.0381529 L50.2040282,14.0378243 C50.2028366,14.036434 50.2017211,14.0349932 50.2006437,14.0334892 L50.2004662,14.0332111 C50.1993507,14.0317324 50.1983113,14.0302283 50.1973099,14.028699 L50.1970944,14.0284083 L50.1962324,14.0270433 L50.1958648,14.0263987 L50.1950789,14.0251096 L50.1949775,14.0250085 C50.1943563,14.0239974 50.1938239,14.0229989 50.1932408,14.0219878 L50.1929239,14.0214949 L50.1922394,14.0201299 L50.1918465,14.0194094 L50.191162,14.0180824 C50.1908451,14.0175136 50.1905535,14.0169069 50.190262,14.0163003 L50.1895775,14.0148974 L50.1893239,14.0142907 L50.1886521,14.0128625 L50.1885761,14.0126729 L50.188538,14.0126729 L49.6324901,13.2305406 C49.4814296,13.0180176 49.3782338,12.8119026 49.373062,12.6135353 L49.3732014,12.6136111 C49.3729479,12.6117026 49.3727324,12.6098447 49.3724535,12.6079868 C49.3719845,12.6045743 49.3715155,12.6011744 49.3710845,12.5977746 C49.3705775,12.5941219 49.3701845,12.5904946 49.3697535,12.5868419 C49.3692465,12.5825447 49.3687901,12.5782475 49.3683211,12.5739882 C49.3680676,12.5712961 49.3677761,12.5685787 49.3675225,12.5658487 C49.3670282,12.5605151 49.3665592,12.5551689 49.3661662,12.5497974 L49.3657606,12.5448556 C49.3653042,12.5384729 49.3649366,12.5321029 49.3646197,12.5256824 L49.3645056,12.5234326 C49.3641507,12.5163043 49.3638972,12.509176 49.3637197,12.5020097 L49.3636817,12.5013651 C49.3635042,12.4938071 49.3634282,12.4862743 49.3634282,12.4786783 C49.3634282,12.4707285 49.3635423,12.4627786 49.3637197,12.4548287 C49.3639352,12.4469042 49.3642268,12.4389922 49.3646197,12.4311056 C49.3650507,12.4232189 49.3655451,12.4153828 49.3661282,12.4075719 C49.3667366,12.3997232 49.3674211,12.3919124 49.368207,12.3841394 C49.3690056,12.3763665 49.369893,12.3686189 49.370869,12.3608839 C49.3718704,12.3531868 49.3729479,12.345515 49.3741014,12.3378432 C49.3752549,12.330184 49.3765479,12.3225881 49.3779169,12.3149921 C49.3792732,12.3073961 49.3807183,12.2998381 49.3822521,12.2923179 C49.3837986,12.2847851 49.3854592,12.2773029 49.3871831,12.269846 C49.388869,12.2623637 49.390707,12.2549447 49.3926465,12.2475636 C49.3945099,12.2401825 49.3965254,12.2328393 49.3986042,12.2254961 C49.4006958,12.2181908 49.4028507,12.2108729 49.4051451,12.2036814 C49.4073761,12.1964393 49.4097085,12.1892351 49.4121549,12.1820689 C49.4146014,12.1748774 49.4170732,12.1677743 49.4196972,12.1606839 C49.4222831,12.1536314 49.4250211,12.1465662 49.4277845,12.1395769 C49.4305099,12.1325624 49.4333873,12.125611 49.4363028,12.1186975 C49.4392437,12.111784 49.4422606,12.1049085 49.4453535,12.0980582 C49.4484465,12.0912585 49.4516028,12.084484 49.4549113,12.0777096 C49.4581437,12.0709731 49.4614901,12.0642744 49.4649,12.0576137 C49.4683099,12.0510162 49.4717958,12.0443935 49.4753958,12.0378339 C49.4789577,12.0312743 49.4826211,12.0247526 49.4863225,12.0183447 C49.4900493,12.0118989 49.4938268,12.0054531 49.4977437,11.9991083 C49.5015845,11.9927636 49.5055394,11.9864568 49.5095324,11.9801879 C49.5135887,11.9739569 49.5176831,11.967726 49.5218535,11.9615961 C49.5260239,11.9554283 49.5302577,11.949349 49.5345423,11.9432824 C49.5388521,11.9372283 49.5432761,11.9312501 49.5476873,11.9253351 C49.5521873,11.9193949 49.5566746,11.9135178 49.5612761,11.9077165 L49.5612761,11.9077165 C49.5658775,11.9018774 49.5705042,11.8960635 49.5752451,11.8904139 C49.5799606,11.8846758 49.5847775,11.8790136 49.5896197,11.8734272 L49.5896197,11.8734272 C49.5945127,11.8678408 49.599393,11.8623176 49.6044254,11.8568071 C49.6093817,11.8513597 49.6144521,11.8459124 49.6195859,11.8405787 L49.6195859,11.8405787 C49.6246563,11.8352325 49.6298662,11.8299368 49.6351141,11.8247422 C49.6403239,11.8195097 49.6456732,11.8143151 49.6510352,11.8092217 C49.6563845,11.8041029 49.6618479,11.7990474 49.6673113,11.7941056 C49.672838,11.7890879 49.6783775,11.7842219 49.6839803,11.7793812 C49.6895831,11.7745026 49.6952239,11.7697125 49.7009789,11.7650108 C49.7066958,11.7602839 49.7124761,11.7556581 49.7183324,11.7510828 C49.7241887,11.7465328 49.7300831,11.7420081 49.7360155,11.7375339 C49.7419732,11.7331229 49.7479817,11.7287246 49.7540535,11.7244526 C49.7601254,11.7201554 49.7662352,11.715934 49.7724085,11.7117758 L49.7724085,11.7117758 C49.7785563,11.7076176 49.7848056,11.7035353 49.7910549,11.6994908 C49.7973423,11.6955096 49.8036676,11.6915662 49.810031,11.6877367 C49.8163944,11.6838312 49.8228592,11.6800649 49.8293239,11.676349 C49.8357634,11.6726585 49.8422915,11.6689932 49.8488704,11.6654543 L49.8488704,11.6654543 C49.8554493,11.6618649 49.8620915,11.6584271 49.8687085,11.6549893 C49.8753887,11.6515894 49.882107,11.6482528 49.8888634,11.6450299 C49.8956577,11.641769 49.9024521,11.6386219 49.9092718,11.6355381 C49.9161423,11.6324542 49.923038,11.6294082 49.9299338,11.626476 C49.9369056,11.623569 49.9438775,11.6207 49.9508873,11.6179826 L49.9508873,11.6179826 C49.9579225,11.6152274 49.9649704,11.6124974 49.9720817,11.6099569 C49.979193,11.6073407 49.9863169,11.6048382 49.9935296,11.6023989 C50.0007169,11.5999596 50.0079423,11.597634 50.0151676,11.5954096 L50.0151676,11.5954096 C50.022431,11.5931219 50.0297197,11.5909733 50.0370845,11.5888879 L50.0370845,11.5888879 C50.0444113,11.5868151 50.0517761,11.5848056 50.0592169,11.5829476 C50.0666197,11.5810392 50.0740606,11.5792192 50.0815394,11.5775003 L50.0815394,11.5775003 C50.0890437,11.5757814 50.0965225,11.5741257 50.1040648,11.5725837 L50.1040648,11.5725837 C50.1116451,11.5710418 50.1191873,11.5696136 50.1268437,11.5682865 C50.134462,11.5668962 50.1420803,11.5656324 50.1497746,11.5644569 L50.1497746,11.5644569 C50.1574563,11.5633068 50.1651507,11.5622325 50.1728704,11.561234 L50.1728704,11.561234 C50.1806282,11.5602608 50.1883986,11.5594014 50.1961944,11.5585799 L50.1961944,11.5585799 C50.2039901,11.5578342 50.2118239,11.5571137 50.2196958,11.5565071 L50.2196958,11.5565071 C50.2275296,11.5559257 50.2353887,11.5554328 50.2432986,11.5550031 L50.2432986,11.5550031 C50.2512085,11.5545986 50.2591437,11.5543206 50.2670915,11.5541057 L50.2670915,11.5541057 C50.2750648,11.5539287 50.283038,11.553815 50.2910239,11.553815 L50.2910239,11.553815 C50.2990352,11.553815 50.3070465,11.5539287 50.3149817,11.5541057 L50.3149817,11.5541057 C50.3229296,11.5543206 50.3308648,11.5545986 50.3387366,11.5550031 L50.3387366,11.5550031 C50.3466718,11.5554328 50.3545817,11.5559257 50.3624155,11.5565071 L50.3624155,11.5565071 C50.3702873,11.5571137 50.3780831,11.5578342 50.3858408,11.5585799 L50.3858408,11.5585799 C50.3936366,11.5594014 50.4014324,11.5602608 50.4091648,11.561234 L50.4091648,11.561234 C50.4169225,11.5622325 50.4246549,11.5633068 50.4322986,11.5644569 L50.4322986,11.5644569 C50.439993,11.5656324 50.4476493,11.5668962 50.4552296,11.5682865 C50.4628479,11.5696136 50.4704282,11.5710418 50.4779704,11.5725837 L50.4779704,11.5725837 C50.4855127,11.5741257 50.4930676,11.5757814 50.5005338,11.5775003 L50.5005338,11.5775003 C50.5080127,11.5792192 50.5154535,11.5810139 50.5228817,11.5829476 C50.5302845,11.5848056 50.537662,11.5868151 50.5449887,11.5888879 L50.5449887,11.5888879 C50.5523155,11.5909733 50.5596042,11.5931219 50.5668676,11.5954096 L50.5668676,11.5954096 C50.574169,11.597634 50.5813437,11.5999596 50.588531,11.6023989 C50.5957183,11.6048382 50.6028676,11.6073407 50.6099915,11.6099569 C50.6171028,11.6124974 50.6241507,11.6152274 50.6311859,11.6179826 L50.6311859,11.6179826 C50.6381958,11.6207 50.6451296,11.623569 50.6521014,11.626476 C50.6590352,11.6294082 50.665931,11.6324542 50.6727634,11.6355381 C50.6796211,11.6386219 50.6864155,11.641769 50.6931718,11.6450299 C50.6999282,11.6482528 50.7066465,11.6515894 50.7133268,11.6549893 C50.720007,11.6584271 50.7265859,11.6618649 50.7332028,11.6654543 L50.7332028,11.6654543 C50.7397437,11.6689932 50.7462718,11.6726585 50.7527493,11.676349 C50.7592521,11.6800649 50.7656408,11.6838312 50.7720423,11.6877367 C50.7784056,11.6915662 50.784731,11.6955096 50.7909803,11.6994908 C50.7972676,11.7035353 50.8034789,11.7076176 50.8096648,11.7117758 L50.8096648,11.7117758 C50.815838,11.715934 50.8219479,11.7201554 50.8280197,11.7244526 C50.8340915,11.7287246 50.840062,11.7331229 50.8460577,11.7375339 C50.8519901,11.7420081 50.8578845,11.7465328 50.8637408,11.7510828 C50.8695592,11.7556581 50.8753521,11.7602839 50.8810944,11.7650108 C50.8868113,11.7697125 50.8924901,11.7745026 50.898093,11.7793812 C50.9036958,11.784184 50.9092606,11.7890879 50.9147239,11.7941056 C50.9202254,11.7990474 50.9256507,11.8041029 50.931,11.8092217 C50.9364254,11.8143151 50.9417113,11.8195097 50.9469592,11.8247422 C50.952207,11.8299368 50.9573789,11.8352325 50.9625127,11.8405787 L50.9625127,11.8405787 C50.9676211,11.8459124 50.9726915,11.8513597 50.9776859,11.8568071 C50.9826423,11.8623176 50.9875606,11.8678408 50.9924535,11.8734272 L50.9924535,11.8734272 C50.9972958,11.8790136 51.0020746,11.8846758 51.0068155,11.8904139 C51.011531,11.8960635 51.0161958,11.9018774 51.0207972,11.9077165 L51.0207972,11.9077165 C51.0253986,11.9135178 51.0298859,11.9193949 51.0343479,11.9253351 C51.0387972,11.9312501 51.0431831,11.9372283 51.047493,11.9432824 C51.0518028,11.949349 51.0560493,11.9554283 51.0602197,11.9615961 C51.0643901,11.967726 51.0684845,11.9739569 51.0725028,11.9801879 C51.0765338,11.9864568 51.0804887,11.9927636 51.0843676,11.9991083 C51.0882085,12.0054531 51.0920113,12.0118989 51.0957127,12.0183447 C51.0994901,12.0247526 51.1030901,12.0312743 51.1066775,12.0378339 C51.1102394,12.0443935 51.1137507,12.0510162 51.1171352,12.0576137 C51.1205831,12.0642744 51.1238915,12.0709731 51.1272,12.0777096 C51.1304324,12.084484 51.1336268,12.0912585 51.1367197,12.0980582 C51.1398127,12.1049085 51.1427915,12.111784 51.1457324,12.1186975 C51.1486859,12.125611 51.1515254,12.1325624 51.1542887,12.1395769 C51.1570901,12.1465662 51.1597521,12.1536314 51.1623761,12.1606839 C51.164962,12.1677743 51.1674718,12.1748774 51.1698803,12.1820689 C51.1723268,12.1892351 51.1746592,12.1964393 51.1769662,12.2036814 C51.1791845,12.2108729 51.1813775,12.2181908 51.183469,12.2254961 C51.1855479,12.2328393 51.1875254,12.2401825 51.1894648,12.2475636 C51.1913282,12.2549447 51.1931662,12.2623637 51.1948901,12.269846 C51.1966141,12.2773029 51.1982366,12.2847851 51.1997831,12.2923179 C51.2013169,12.2998381 51.2028,12.3073961 51.2041563,12.3149921 C51.2054873,12.3225881 51.2067803,12.330184 51.2079718,12.3378432 C51.2091254,12.345515 51.2102028,12.3531868 51.2111662,12.3608839 C51.2121676,12.3686189 51.2130676,12.3763665 51.2138662,12.3841394 C51.2146521,12.3919124 51.2153366,12.3997232 51.2159451,12.4075719 C51.2165155,12.4153828 51.2170225,12.4232189 51.2174155,12.4311056 C51.2178465,12.4389922 51.2181761,12.4469042 51.2183535,12.4548287 C51.218531,12.4627786 51.2186831,12.4707285 51.2186831,12.4786783 C51.2186831,12.4862743 51.218531,12.4938071 51.2183535,12.5013651 L51.2183535,12.5020097 C51.2181761,12.509176 51.2179225,12.5163043 51.2175676,12.5234326 L51.2174535,12.5256824 C51.2171366,12.5321029 51.216731,12.5384729 51.2162746,12.5448556 L51.215907,12.5497974 C51.2154761,12.5551689 51.2150451,12.5605151 51.2145507,12.5658487 C51.2142972,12.5685787 51.2140437,12.5712961 51.2137521,12.5739882 C51.2132831,12.5782475 51.2128268,12.5825447 51.2123197,12.5868419 C51.2119268,12.5904946 51.2114577,12.5941219 51.2109887,12.5977746 C51.2105197,12.6011744 51.2100887,12.6045743 51.2095817,12.6079868 C51.2093408,12.6098447 51.2091254,12.6117026 51.2088718,12.6136111 L51.2090113,12.6135353 C51.2038014,12.8119026 51.1006056,13.0180176 50.9495451,13.2305406 L50.3935352,14.0126729 L50.3934972,14.0126729 L50.3933831,14.0128625 Z" id="Fill-12" fill="#FBAF17"></path>
                        <path d="M50.2910239,12.0820447 C50.5094451,12.0820447 50.6865169,12.2585974 50.6865169,12.4763528 C50.6865169,12.6941082 50.5094451,12.8706608 50.2910239,12.8706608 C50.0725901,12.8706608 49.8955437,12.6941082 49.8955437,12.4763528 C49.8955437,12.2585974 50.0725901,12.0820447 50.2910239,12.0820447" id="Fill-13" fill="#FEFEFE"></path>
                    </g>
                </g>
            </g>
        </g>
    </g>
</svg>