<?xml version="1.0" encoding="UTF-8" standalone="no"?>
<svg width="136px" height="169px" viewBox="0 0 136 169" version="1.1" xmlns="http://www.w3.org/2000/svg" xmlns:xlink="http://www.w3.org/1999/xlink">
    <!-- Generator: Sketch 3.8.3 (29802) - http://www.bohemiancoding.com/sketch -->
    <title>3 benifts</title>
    <desc>Created with Sketch.</desc>
    <defs></defs>
    <g id="Page-1" stroke="none" stroke-width="1" fill="none" fill-rule="evenodd">
        <g id="A4-Copy" transform="translate(-228.000000, -338.000000)">
            <g id="3-benifts" transform="translate(232.000000, 338.000000)">
                <g id="Group-27-Copy">
                    <path d="M71.9488715,87.1052246 C71.9488715,87.1052246 101.259563,76.0423991 106.196492,66.8469238" id="Path-606" stroke="#4C4F58" stroke-width="3"></path>
                    <path d="M23.9453993,17.429362 L16.1928385,47.0004883 L36.5451678,51.7753906 C36.5451678,51.7753906 48.6603299,53.9372559 44.5948929,63.5383301 C44.5948929,63.5383301 42.3741609,68.6812337 34.0129847,67.161377 C34.0129847,67.161377 31.73682,76.9003092 29.9458333,84.2922363 C29.9458333,84.2922363 45.7492622,84.1956787 46.2321542,94.0462646 C46.7150463,103.896851 36.5060221,103.077108 36.5060221,103.077108 C36.5060221,103.077108 27.8316804,103.53597 19.0741898,97.6846924 L8.43713469,126.296509 C8.43713469,126.296509 32.6668873,139.995728 58.7513455,132.74821 C84.8358037,125.500692 77.0652416,99.7078451 77.0652416,99.7078451 C77.0652416,99.7078451 73.1129557,83.5992432 61.5512623,79.3561198 C61.5512623,79.3561198 79.0642433,72.8004557 79.108818,55.594401 C79.108818,55.594401 82.4822049,31.0226237 57.2523799,25.8575033 L23.9453993,17.429362 Z" id="Path-591" stroke="#4C4F58" stroke-width="3" fill="#5176B3"></path>
                    <path d="M50.4758898,51.1641439 L51.9879991,68.4898275 C51.9879991,68.4898275 58.2324508,70.9217122 60.35489,67.9264323 L56.4294633,50.7141113 L50.4758898,51.1641439 Z" id="Path-595" fill="#FFFFFF"></path>
                    <path d="M56.5683304,49.8516439 L63.3471065,46.6780599 L66.9496528,56.2472331 C66.9496528,56.2472331 65.3666811,64.1495768 60.5200448,66.607666 L56.8300637,51.4865723 L56.5683304,49.8516439 Z" id="Path-596" fill="#FFFFFF"></path>
                    <path d="M63.1476635,46.3490804 C63.1476635,46.3490804 64.9098013,45.0689984 66.6069538,43.4257255 C68.1250352,41.9558388 69.5911214,40.1953603 69.6975658,38.8004964 C69.6975658,38.8004964 68.9829427,53.3556315 67.334252,55.8256836 L63.5828378,47.5963542 L63.1476635,46.3490804 Z" id="Path-597" fill="#FFFFFF"></path>
                    <path d="M52.1250635,26.5403862 C52.1624126,26.861326 52.3973013,27.8928128 52.7143061,28.4159661 C53.8439704,30.2802529 57.110775,34.0617044 63.4008247,29.7497152 C69.5759237,25.5165275 69.5965713,18.1928361 69.2698239,15.0047704 C69.1703433,14.03414 68.5800569,12.721135 68.0137294,12.0620117 C66.8370652,10.6925451 64.9840888,8.99039714 61.8212816,8.99039714 C57.4264046,8.99039714 50.3131171,10.9703892 52.1250635,26.5403862 Z" id="Path-599" stroke="#4C4F58" stroke-width="2" fill="#FFFFFF"></path>
                    <path d="M42.0669958,3.56807455 C39.8913832,3.99662789 37.3975152,5.30981445 37.3975152,5.30981445 C37.3975152,5.30981445 43.1973633,-0.792399089 45.5798213,0.892374674 C45.5798213,0.892374674 45.7352611,2.99157715 45.3540907,3.56807454 C45.1886644,3.81827191 43.7351922,3.23947233 42.0669958,3.56807455 Z" id="Path-601" stroke="#4C4F58" fill="#282424"></path>
                    <path d="M63.7959961,2.08211263 C62.6405274,2.43050258 62.1341616,5.04577637 62.1341616,5.04577637 C62.1341616,5.04577637 68.0834491,6.29618327 69.4209744,8.59191895 C69.4209744,8.59191895 70.8113607,5.29742434 67.491692,3.89121503 C64.1720233,2.48500572 64.9514647,1.73372268 63.7959961,2.08211263 Z" id="Path-602" stroke="#4C4F58" fill="#282424"></path>
                    <path d="M104.437507,63.9667155 C104.437507,63.9667155 104.029478,66.7210286 107.320573,67.2781576 C110.611668,67.8352865 113.807328,65.5236003 113.807328,65.5236003 L104.437507,63.9667155 Z" id="Path-605" stroke="#4C4F58" fill="#F6A623"></path>
                    <polyline id="Path-607" stroke="#4C4F58" stroke-width="3" points="30.8270399 133.728027 41.2655093 162.505046 54.0847222 133.728027"></polyline>
                    <path d="M37.1103516,17.5848799 C37.1103516,13.7118393 38.161404,11.242226 38.978325,9.9076707 C39.4975969,9.05936705 40.5131704,8.42324186 41.5022543,8.23261628 C43.6078542,7.82680519 47.518,7.67392378 51.3733832,10.6899821 C51.3733832,10.6899821 57.2718099,14.104248 53.8444191,25.3317057 C53.8444191,25.3317057 48.8986328,30.9320475 41.7935475,26.265096 C41.7935475,26.265096 37.1103516,23.9198001 37.1103516,17.5848799 Z" id="Path-600" stroke="#4C4F58" stroke-width="2" fill="#FFFFFF"></path>
                    <g id="noun_534619_cc" transform="translate(87.414044, 29.352682) rotate(21.000000) translate(-87.414044, -29.352682) translate(69.914044, 14.352682)" stroke="#B59C0A" stroke-width="2" fill="#FFDB03">
                        <path d="M31.3025384,18.8965187 C30.3367743,19.2174214 29.7518612,20.1412908 29.8093298,21.108368 L20.6971534,21.731725 L26.2029339,14.4669945 C26.9831427,15.0442309 28.0794286,15.0607372 28.8771702,14.430098 C29.8292977,13.6766322 29.9890408,12.2968966 29.2331831,11.3472967 C28.4778124,10.3981823 27.0932097,10.2389447 26.1410822,10.991925 C25.3438276,11.6225642 25.1105442,12.6906213 25.4972395,13.5795361 L17.1482261,17.2716155 L19.8292807,8.56792079 C20.7609532,8.84367372 21.7963614,8.48636006 22.3296502,7.62171926 C22.9661876,6.58910221 22.6423181,5.23800993 21.6069099,4.6034869 C20.5710147,3.96896387 19.2156333,4.29132293 18.5790959,5.32393998 C18.0462941,6.18858078 18.1938617,7.27120233 18.8615685,7.9746636 L12.2833661,14.2907651 L11.8167993,5.19771505 C12.7864595,5.13945739 13.6372865,4.45007506 13.8418356,3.45629644 C14.0853464,2.26929658 13.3178002,1.10996911 12.1270321,0.866743374 C10.936264,0.624003116 9.77276909,1.38912041 9.52925823,2.57612027 C9.3247091,3.57038436 9.83510787,4.53746155 10.7044416,4.97051017 L6.68992158,13.1484294 L3.13174087,4.76320999 C4.02347765,4.37822394 4.58598774,3.44027558 4.43695909,2.43630188 C4.25870914,1.23765049 3.13953322,0.409906209 1.93707658,0.587592077 C0.734619949,0.765277946 -0.0957520886,1.88091217 0.0824978621,3.07956356 C0.232013531,4.08353727 1.04339172,4.81806929 2.00818176,4.92924433 L0.602637062,18.0949904 C0.602637062,18.0949904 4.84442528,18.5181527 10.4080075,21.7317243 C15.9715897,24.9452958 19.0222857,29.379014 19.0222857,29.379014 L30.1702129,22.1817654 C30.7059368,22.9900905 31.7296565,23.3794458 32.6954205,23.0590287 C33.8472269,22.67647 34.4706147,21.4341254 34.0863546,20.2845075 C33.7020944,19.1348897 32.4558058,18.5134746 31.3025384,18.8965187 Z" id="Shape"></path>
                    </g>
                    <path d="M2.70729167,166.727946 L77.041249,166.727946 C77.041249,166.727946 64.2277416,151.732747 41.5552445,164.80306 C41.5552445,164.80306 43.0099256,165.057861 38.6701831,163.195638 C38.6701831,163.195638 23.5385127,153.833659 2.96788194,165.226318 L0.299117477,166.937012 L2.70729167,166.727946 Z" id="Path-608" stroke="#4C4F58" stroke-width="2" fill="#EE7474"></path>
                    <path d="M44.7578125,48.9355472 C44.7578125,48.9355472 61.6789858,54.9694824 69.6458478,40.2010091 C69.6458478,40.2010091 70.3253255,78.2982585 48.268873,67.3983561 L47.7465495,70.3150228" id="Path-594" stroke="#4C4F58" stroke-width="2"></path>
                    <path d="M104.745244,63.405599 C104.745244,63.405599 98.5287941,52.5418701 109.570164,52.5734863 C109.570164,52.5734863 107.466869,40.2756348 111.244,39.8387044 C111.244,39.8387044 115.30315,38.4675293 116.876121,41.0167643 C118.449092,43.5659993 114.954839,51.675415 114.954839,51.675415 L116.879836,52.3846436 C116.879836,52.3846436 122.085069,40.4479574 126.361093,41.8917643 C130.637117,43.3355713 128.931279,46.0460205 128.931279,46.0460205 C128.931279,46.0460205 124.624396,52.1120605 120.399519,54.379598 C120.399519,54.379598 121.479026,55.291626 121.030993,56.4252523 C121.030993,56.4252523 129.050716,54.1110026 130.448246,56.6471354 C130.448246,56.6471354 131.947783,60.2721761 128.672689,61.8458659 C128.672689,61.8458659 124.778693,62.5331624 121.205006,60.3861084 C121.205006,60.3861084 120.344086,63.296224 118.895696,64.2555339 C118.895696,64.2555339 117.161856,66.3701172 112.746394,65.7813721 C108.330932,65.192627 104.745244,63.405599 104.745244,63.405599 Z" id="Path-593" stroke="#4C4F58" stroke-width="2" fill="#FFBC4B"></path>
                    <ellipse id="Oval-37" fill="#282424" transform="translate(44.074074, 21.750000) rotate(23.000000) translate(-44.074074, -21.750000) " cx="44.0740741" cy="21.75" rx="2.34074074" ry="2.91666667"></ellipse>
                    <ellipse id="Oval-37-Copy" fill="#282424" transform="translate(58.439296, 25.868493) rotate(31.000000) translate(-58.439296, -25.868493) " cx="58.4392956" cy="25.8684935" rx="2.34074074" ry="2.91666667"></ellipse>
                    <path d="M109.161665,52.2782522 C109.161665,52.2782522 111.144022,51.5398409 113.028424,54.4542882 C114.912825,57.3687355 111.711372,58.2270451 111.711372,58.2270451" id="Path-614" stroke="#4C4F58" stroke-width="2"></path>
                </g>
            </g>
        </g>
    </g>
</svg>