<?xml version="1.0" encoding="UTF-8" standalone="no"?>
<svg width="20px" height="25px" viewBox="0 0 20 25" version="1.1" xmlns="http://www.w3.org/2000/svg" xmlns:xlink="http://www.w3.org/1999/xlink">
    <!-- Generator: Sketch 39.1 (31720) - http://www.bohemiancoding.com/sketch -->
    <title>rupee</title>
    <desc>Created with Sketch.</desc>
    <defs></defs>
    <g id="Page-1" stroke="none" stroke-width="1" fill="none" fill-rule="evenodd">
        <g id="A4" transform="translate(-298.000000, -436.000000)" fill="#666666">
            <g id="rupee" transform="translate(298.000000, 436.000000)">
                <g id="Group">
                    <path d="M19.5454547,1.69189454 C19.5454547,0.949037401 18.9090904,0.391845716 18.1818177,0.391845716 L7.09090916,0.391845716 L1.8181818,0.391845716 C1.09090907,0.391845716 0.545454546,0.949037371 0.545454546,1.69189451 C0.545454546,2.43475166 1.09090909,2.75 1.81818182,2.75 L7.09090909,2.75 C9.90909091,2.75 11.6363633,3.8779018 12.2727269,4.99218751 L1.8181818,4.99218751 C1.09090907,4.99218751 0.545454546,5.60919365 0.545454546,6.35205079 C0.545454546,7.09490794 1.09090909,7.39285714 1.81818182,7.39285714 L12.2727273,7.39285714 C12.1818182,9.34285714 11.3636364,11.6071429 7.09090909,11.6071429 L1.81818182,11.6071429 C1.27272727,11.6071429 0.727272727,11.9785714 0.545454545,12.4428571 C0.363636364,13 0.454545455,13.5571429 0.818181818,13.9285714 L11.7272727,24.5714286 C12,24.85 12.3636364,24.9428571 12.7272727,24.9428571 C13.0909091,24.9428571 12.9667406,24.85 13.2394678,24.5714286 C13.7849224,24.0142857 13.7849224,23.1785714 13.2394678,22.6214286 L4.21398637,13.8928576 L6.60310421,13.8928571 C13.1485588,13.8928571 14.421286,9.99285714 14.5121951,7.39285714 L18.1818182,7.39285714 C18.9090909,7.39285714 19.5454547,7.09490794 19.5454547,6.35205079 C19.5454547,5.60919365 18.9090904,4.99218751 18.1818177,4.99218751 L15.0000001,4.99218751 C14.8181819,4.34218751 14.2727273,3.30714286 13.8181818,2.75 L18.1818182,2.75 C18.9090909,2.75 19.5454545,2.1 19.5454545,1.35714286 L19.5454547,1.69189454 Z" id="Shape"></path>
                </g>
            </g>
        </g>
    </g>
</svg>