<?xml version="1.0" encoding="UTF-8" standalone="no"?>
<svg width="179px" height="141px" viewBox="0 0 179 141" version="1.1" xmlns="http://www.w3.org/2000/svg" xmlns:xlink="http://www.w3.org/1999/xlink">
    <!-- Generator: Sketch 3.8.3 (29802) - http://www.bohemiancoding.com/sketch -->
    <title>Group</title>
    <desc>Created with Sketch.</desc>
    <defs></defs>
    <g id="Page-1" stroke="none" stroke-width="1" fill="none" fill-rule="evenodd">
        <g id="A4-Copy" transform="translate(-206.000000, -351.000000)">
            <g id="Group" transform="translate(207.000000, 351.000000)">
                <g id="Group-4">
                    <g id="Group-38">
                        <path d="M42.1348627,127.872629 C31.0421579,120.335493 22.2325587,109.668525 16.953475,97.1186814 C13.4346306,88.753371 11.4888205,79.5490882 11.4895208,69.9067745 C11.4878868,55.4407217 15.8685272,41.9716235 23.3632574,30.818737 C30.8579875,19.6632683 41.4647067,10.8038233 53.9441747,5.49486999 C62.2614858,1.95658499 71.4123487,0 80.9992449,0 C95.3918439,0 108.78306,4.40519182 119.871097,11.9409196 C130.963568,19.4780559 139.773167,30.1450239 145.052251,42.6948675 C148.571329,51.0601779 150.516905,60.2644607 150.516439,69.9067745 C150.517839,84.3728272 146.137432,97.8419254 138.642469,108.994812 C131.147972,120.150281 120.541019,129.009726 108.061785,134.318679 C99.7440067,137.857199 90.5940774,139.813784 81.006481,139.813784 C66.6145823,139.813784 53.2228991,135.408357 42.1348627,127.872629 Z M81.0029797,7.04229749 C68.0442952,7.04370595 56.0361073,10.9977212 46.0549605,17.7764021 C36.0761479,24.5553176 28.145151,34.1612461 23.4029392,45.4380771 C20.2412312,52.9571381 18.4926631,61.2172836 18.4921963,69.9067745 C18.4935968,82.938546 22.4253657,95.0149124 29.1659077,105.052534 C35.9066831,115.087573 45.4585659,123.063679 56.6719502,127.832723 C64.1487068,131.01232 72.3623784,132.770782 81.0029797,132.771486 C93.9614307,132.769843 105.969852,128.816062 115.950999,122.037147 C125.929578,115.258231 133.860575,105.652303 138.602787,94.3754718 C141.764495,86.8561761 143.513296,78.5962653 143.513763,69.9067745 C143.512363,56.8747682 139.580594,44.7986365 132.840052,34.7610151 C126.099276,24.725976 116.547393,16.7498698 105.334009,11.9810607 C97.8572525,8.80122866 89.643581,7.04276697 81.0029797,7.04229749" id="Fill-37" fill="#93CFC6"></path>
                        <path d="M58.8392603,105.567267 L62.3877494,105.593558 C62.3877494,105.593558 64.2133469,100.889304 67.2651129,99.9423493 L100.193561,99.3212187 C100.193561,99.3212187 103.095236,99.0108881 103.095236,101.918418 C103.095236,103.220304 102.640996,104.313973 100.972258,104.313973 L83.7617824,104.63205 L84.2010836,105.974312 L103.576086,106.052481 C103.576086,106.052481 106.34261,106.167036 106.34261,108.346627 C106.34261,110.527157 104.331908,110.828098 104.331908,110.828098 L85.6900859,111.430684 L85.4526952,112.879285 L105.871096,112.652523 C105.871096,112.652523 108.011581,112.528813 108.011581,115.00958 C108.011581,117.49105 105.547806,117.485886 105.547806,117.485886 L85.261989,117.59645 L85.261989,119.088009 L103.35877,119.294113 C103.35877,119.294113 105.773993,119.542941 105.773759,121.723236 C105.773759,123.903062 103.872066,124.208698 103.872066,124.208698 L58.7930427,123.206344 L58.8392603,105.567267" id="Fill-38" fill="#FADDB7"></path>
                        <path d="M96.0183499,121.934036 C90.7472026,127.235477 82.2002037,127.235477 76.9288231,121.934036 C71.6574424,116.632829 71.6574424,108.03747 76.9288231,102.736498 C82.2002037,97.4350567 90.7467358,97.4350567 96.0183499,102.736498 C101.289964,108.03747 101.289964,116.632829 96.0183499,121.934036" id="Fill-39" fill="#6AC1B7"></path>
                        <path d="M95.2578593,102.408503 C90.4143421,97.5371113 82.5328308,97.5375808 77.689547,102.408503 C72.8457964,107.279895 72.8457964,115.205297 77.689547,120.075984 C82.5328308,124.947376 90.4143421,124.946907 95.2576259,120.075984 C100.10161,115.204827 100.10161,107.279191 95.2578593,102.408503 L95.2578593,102.408503 Z M75.8798223,121.895949 C70.0384238,116.021734 70.0384238,106.462989 75.8798223,100.588774 C81.7212207,94.7138542 91.2259522,94.7138542 97.0675841,100.588774 C102.908749,106.462754 102.908749,116.021499 97.0675841,121.895949 C91.2259522,127.770399 81.7212207,127.770399 75.8798223,121.895949 L75.8798223,121.895949 Z" id="Fill-40" fill="#FFFFFF"></path>
                        <path d="M96.2492048,101.411314 C90.859012,95.990388 82.0883944,95.990388 76.6979682,101.411314 C71.3073086,106.83224 71.3077754,115.652483 76.6979682,121.072939 C82.0883944,126.4941 90.859012,126.4941 96.2492048,121.072939 C101.639631,115.652483 101.639631,106.83177 96.2492048,101.411314 L96.2492048,101.411314 Z M74.6839987,123.098069 C68.1831816,116.560939 68.1831816,105.923549 74.6839987,99.3859491 C81.1845824,92.8485844 91.7623571,92.8485844 98.2634077,99.3859491 C104.763758,105.923314 104.763758,116.560939 98.2634077,123.098069 C91.7623571,129.636138 81.1845824,129.636138 74.6839987,123.098069 L74.6839987,123.098069 Z" id="Fill-41" fill="#024958"></path>
                        <path d="M76.424853,112.725645 C75.8947505,113.258512 75.0352888,113.258512 74.5051863,112.725645 C73.9753172,112.192308 73.9753172,111.327984 74.5051863,110.795351 C75.0352888,110.262015 75.8947505,110.262015 76.424853,110.795351 C76.9547222,111.327984 76.9547222,112.192308 76.424853,112.725645" id="Fill-42" fill="#FFFFFF"></path>
                        <path d="M87.3231733,123.656112 C86.7930708,124.188745 85.9333757,124.188745 85.40374,123.656112 C84.873404,123.122776 84.873404,122.258451 85.40374,121.725584 C85.9333757,121.192247 86.7930708,121.192247 87.3231733,121.725584 C87.8530425,122.258451 87.8530425,123.122776 87.3231733,123.656112" id="Fill-43" fill="#FFFFFF"></path>
                        <path d="M98.2213769,112.72541 C97.6912744,113.257808 96.8315793,113.257808 96.3019436,112.72541 C95.7716076,112.192074 95.7716076,111.327749 96.3019436,110.794647 C96.8315793,110.262249 97.6912744,110.262249 98.2213769,110.794647 C98.7512461,111.327749 98.7512461,112.192074 98.2213769,112.72541" id="Fill-44" fill="#FFFFFF"></path>
                        <path d="M87.3228232,100.702096 C86.7929541,101.235432 85.9334924,101.235432 85.4033899,100.702096 C84.8735207,100.169933 84.8735207,99.3046693 85.4033899,98.7722716 C85.9334924,98.2387002 86.7929541,98.2387002 87.3228232,98.7722716 C87.8531592,99.3046693 87.8531592,100.169933 87.3228232,100.702096" id="Fill-45" fill="#FFFFFF"></path>
                        <path d="M59.0430561,114.15441 C59.0430561,114.15441 65.7803302,112.762148 69.7592505,115.429535 C73.7374704,118.096923 74.7848372,121.325816 74.7848372,121.325816 L85.0617304,121.769716 C85.0617304,121.769716 89.3891504,122.050469 89.5637505,126.648619 L67.281237,126.203781 C67.281237,126.203781 64.7509369,126.41505 61.9764769,123.308927 L59.0194805,123.206344 L59.0430561,114.15441" id="Fill-49" fill="#FADDB7"></path>
                        <polygon id="Fill-50" fill="#FFFFFF" points="55.5384146 125.123727 57.7930427 125.123727 57.7930427 103.484625 55.5384146 103.484625"></polygon>
                        <polygon id="Fill-51" stroke="#4C4F58" stroke-width="3" fill="#024958" points="7.10724644 127.394868 57.5384146 127.394868 57.5384146 100.940712 7.10724644 100.940712"></polygon>
                        <path d="M54.9651648,103.946365 C54.9651648,104.544021 54.4829139,105.028531 53.8886201,105.028531 C53.294093,105.028531 52.8123089,104.544021 52.8123089,103.946365 C52.8123089,103.348474 53.294093,102.863964 53.8886201,102.863964 C54.4829139,102.863964 54.9651648,103.348474 54.9651648,103.946365" id="Fill-52" fill="#FFFFFF"></path>
                        <path d="M49.2962655,103.946365 C49.2962655,104.544021 48.814248,105.028531 48.2199543,105.028531 C47.6254272,105.028531 47.1436431,104.544021 47.1436431,103.946365 C47.1436431,103.348474 47.6254272,102.863964 48.2199543,102.863964 C48.814248,102.863964 49.2962655,103.348474 49.2962655,103.946365" id="Fill-53" fill="#FFFFFF"></path>
                        <g id="Group-37" transform="translate(120.687285, 46.328479) rotate(-8.000000) translate(-120.687285, -46.328479) translate(63.687285, 15.328479)">
                            <path d="M70.8222691,38.5215724 C70.8222691,38.5215724 62.4974884,43.316438 59.543293,43.5734818 C56.5879306,43.8298215 38.2236475,27.6616454 38.2236475,27.6616454 C38.2236475,27.6616454 42.8363098,21.9228772 44.2361447,21.7247539 C45.6352792,21.5271001 61.9020276,24.7592799 61.9020276,24.7592799 L64.999311,23.3468297 L70.8222691,38.5215724" id="Fill-54" fill="#FADDB7"></path>
                            <polygon id="Fill-55" fill="#2E9643" points="50.1502812 50.0374016 6.42207407 61.1870017 0.323910818 36.999292 44.0523514 25.8496919"></polygon>
                            <polyline id="Fill-56" fill="#1C6B2C" points="42.8520928 27.9081555 48.1197388 48.8031216 7.62139896 59.1287729 2.3535196 38.233572 42.8520928 27.9081555"></polyline>
                            <path d="M7.79950034,54.8519856 C9.34312344,54.4583212 10.9121896,55.397529 11.3031723,56.9503555 C11.6948553,58.5027127 10.7609318,60.080422 9.21660844,60.4738517 C7.67298533,60.8675162 6.10461944,59.9283084 5.71293646,58.3754818 C5.32172032,56.82289 6.25541039,55.2458848 7.79950034,54.8519856" id="Fill-61" fill="#378B48"></path>
                            <polygon id="Fill-63" fill="#2D9743" points="2.68124481 50.4014884 47.7931807 50.4014884 47.7931807 25.4489852 2.68124481 25.4489852"></polygon>
                            <polygon id="Fill-64" fill="#1B6A2B" points="4.34718132 48.7033557 46.1265439 48.7033557 46.1265439 27.1478221 4.34718132 27.1478221"></polygon>
                            <path d="M44.9099457,25.5525069 C46.5023541,25.5525069 47.7931807,26.8508719 47.7931807,28.4520556 C47.7931807,30.0541782 46.5023541,31.3520737 44.9099457,31.3520737 C43.3168371,31.3520737 42.026244,30.0541782 42.026244,28.4520556 C42.026244,26.8508719 43.3168371,25.5525069 44.9099457,25.5525069" id="Fill-65" fill="#378B48"></path>
                            <path d="M45.989058,44.2009802 C47.5819333,44.2009802 48.8727598,45.4991103 48.8727598,47.1005288 C48.8727598,48.7024167 47.5819333,50.0003122 45.989058,50.0003122 C44.3959493,50.0003122 43.1053563,48.7024167 43.1053563,47.1005288 C43.1053563,45.4991103 44.3959493,44.2009802 45.989058,44.2009802" id="Fill-66" fill="#378B48"></path>
                            <path d="M5.56518001,25.5525069 C7.15782184,25.5525069 8.44841493,26.8508719 8.44841493,28.4520556 C8.44841493,30.0541782 7.15782184,31.3520737 5.56518001,31.3520737 C3.97230475,31.3520737 2.68124481,30.0541782 2.68124481,28.4520556 C2.68124481,26.8508719 3.97230475,25.5525069 5.56518001,25.5525069" id="Fill-67" fill="#378B48"></path>
                            <path d="M25.1528305,31.0300059 L25.1614671,31.7340009 C25.1871436,31.7337662 25.2128201,31.7335314 25.2384966,31.7335314 C26.9228734,31.7340009 28.4471225,32.4131132 29.5621818,33.5187539 C30.6760741,34.6255683 31.37214,36.1497562 31.3933815,37.8488278 C31.3936149,37.8748843 31.3938483,37.9011756 31.3938483,37.9272321 C31.3933815,39.6206699 30.7183236,41.1533086 29.6189035,42.2746771 C28.5185498,43.3948719 27.0029374,44.0948762 25.3134252,44.1162379 C25.2877487,44.1164726 25.2618388,44.1167074 25.2359289,44.1167074 C23.5513186,44.1164726 22.0270696,43.4373604 20.9120102,42.3317197 C19.798118,41.2249053 19.102052,39.7007173 19.081044,38.0018804 C19.0808106,37.9753545 19.0805771,37.949298 19.0805771,37.9232415 C19.0808106,36.2298037 19.7558685,34.697165 20.8552885,33.5757965 C21.9558757,32.4556017 23.4717215,31.7555973 25.1614671,31.7340009 L25.1441939,30.3257762 C23.0751367,30.3511285 21.2044886,31.2138099 19.8585744,32.5863537 C18.511493,33.9579585 17.6798086,35.8485806 17.680042,37.9232415 C17.680042,37.9554013 17.6802755,37.9875611 17.6805089,38.0194862 C17.7057185,40.0995461 18.5633128,41.9805438 19.9281343,43.3340734 C21.2922555,44.6890114 23.1722404,45.5254016 25.2359289,45.5251668 C25.2676744,45.5251668 25.2991864,45.5249321 25.3306985,45.5246974 C27.3995222,45.4991103 29.2697034,44.6366636 30.6158511,43.2641199 C31.962699,41.8925151 32.7946168,40.0021277 32.7943834,37.9272321 C32.7943834,37.895307 32.79415,37.8633819 32.7936832,37.8314568 C32.7684735,35.7509274 31.9108792,33.8699298 30.5458243,32.5164002 C29.1819366,31.1614622 27.3019516,30.3248372 25.2384966,30.325072 C25.2069845,30.325072 25.1757059,30.3253067 25.1441939,30.3257762 L25.1528305,31.0300059" id="Fill-69" fill="#2E9643"></path>
                            <path d="M5.56518001,44.6016869 C7.15782184,44.6016869 8.44841493,45.9005213 8.44841493,47.5014703 C8.44841493,49.1035929 7.15782184,50.4014884 5.56518001,50.4014884 C3.97230475,50.4014884 2.68124481,49.1035929 2.68124481,47.5014703 C2.68124481,45.9005213 3.97230475,44.6016869 5.56518001,44.6016869" id="Fill-70" fill="#378B48"></path>
                            <path d="M59.2257487,43.3183456 C59.2257487,43.3183456 52.1642507,44.7779791 47.9950911,41.9819522 C43.826165,39.1868644 43.1053563,36.9722966 43.1053563,36.9722966 L33.4937173,36.3335602 C33.4937173,36.3335602 30.2089956,35.043646 30.025759,30.2257756 L50.5921501,30.6908019 C50.5921501,30.6908019 53.2438298,30.470378 56.1515741,33.7253279 L59.2507249,33.8330751 L59.2257487,43.3183456" id="Fill-71" fill="#FADDB7"></path>
                            <polyline id="Fill-73" stroke="#4C4F58" stroke-width="3" fill="#1A325A" points="73.2640122 41.5957996 64.3909221 18.6005856 107.271105 0.867845794 113.755349 23.7485051 73.2640122 41.5957996"></polyline>
                            <path d="M81.0677938,33.7114781 C81.3436992,34.2405894 81.1399214,34.8952883 80.6135536,35.1725201 C80.086719,35.4492823 79.4366373,35.2450557 79.1607319,34.7152402 C78.8848265,34.1858942 79.0886043,33.5316647 79.6149721,33.2541982 C80.1418067,32.9772012 80.7923553,33.1814278 81.0677938,33.7114781" id="Fill-74" fill="#FFFFFF"></path>
                            <path d="M76.3328181,35.9145435 C76.6084901,36.444359 76.4051791,37.0985884 75.8785779,37.3753507 C75.3519767,37.653052 74.7016615,37.4483559 74.426223,36.9187751 C74.1500841,36.3887248 74.3533951,35.7347301 74.8804632,35.4577331 C75.4070644,35.1805013 76.0571461,35.3849627 76.3328181,35.9145435" id="Fill-75" fill="#FFFFFF"></path>
                            <path d="M27.8612401,34.6975858 L27.8612401,33.8570583 L22.8107394,33.8570583 L22.8107394,34.6976843 L24.8266619,34.6976843 C25.0087857,34.7853213 25.5488771,35.0850596 25.7544832,35.6317569 L22.8107394,35.6317569 L22.8107394,36.472383 L25.7805139,36.472383 C25.3954234,37.9180982 23.3069609,37.9433062 23.285754,37.9434046 L22.9884944,38.63426 L26.074861,42.6038227 L26.6693802,42.062738 L24.05639,38.7021048 C24.9449832,38.5344129 26.313597,38.0240504 26.5780907,36.4722845 L27.8612401,36.4722845 L27.8612401,35.6316585 L26.5673508,35.6316585 C26.4904419,35.2663402 26.3229717,34.9546872 26.1168195,34.6975858 L27.8612401,34.6975858 L27.8612401,34.6975858 Z" id="Shape" fill="#FFFFFF"></path>
                        </g>
                        <g id="Group-36" transform="translate(0.000000, 58.930233)">
                            <g id="Group-21">
                                <g id="Group-120" transform="translate(0.670386, 0.054174)">
                                    <path d="M25.7585893,46.3006755 C25.7585893,47.4216725 24.9920721,48.3332317 24.0486177,48.3332317 L1.82404264,48.3332317 C0.881220177,48.3332317 0.115966824,47.4216725 0.115966824,46.3006755 L0.115966824,2.78618352 C0.115966824,1.66266317 0.881220177,0.75236566 1.82404264,0.75236566 L24.0486177,0.75236566 C24.9920721,0.75236566 25.7585893,1.66266317 25.7585893,2.78618352 L25.7585893,46.3006755" id="Fill-15" stroke="#4C4F58" stroke-width="3" fill="#E6E6E1"></path>
                                    <polygon id="Fill-17" fill="#C7D736" points="1.75496933 41.6741187 24.1589463 41.6741187 24.1589463 2.41115764 1.75496933 2.69455381"></polygon>
                                    <polygon id="Fill-18" fill="#D4DC33" points="1.81126745 2.40608747 1.81126745 41.7810184 24.2180129 2.40608747"></polygon>
                                    <path d="M12.9377028,46.3333225 C11.89825,46.3333225 11.0586316,45.4930525 11.0586316,44.457468 C11.0586316,43.4213612 11.89825,42.5800468 12.9377028,42.5800468 C13.9755862,42.5800468 14.8178203,43.4213612 14.8178203,44.457468 C14.8178203,45.4930525 13.9755862,46.3333225 12.9377028,46.3333225 Z" id="Fill-19" fill="#636462"></path>
                                </g>
                            </g>
                            <g id="noun_354530_cc" transform="translate(3.269461, 12.116279)" fill="#4C4F58">
                                <path d="M16.0604647,0.0679091301 C18.994915,1.45125151 20.5304719,4.78592377 19.7011186,7.97587166 L20.6394539,8.85223342 L16.2021413,11.1059259 L17.1280527,5.5674354 L18.005794,6.3892472 C18.4763784,4.08122739 17.7403138,1.68815418 16.0604647,0.0679091301 L16.0604647,0.0679091301 Z" id="Shape"></path>
                                <path d="M4.58661796,11.9638075 C1.65347545,10.5820237 0.118136527,7.2460155 0.945746108,4.05740353 L0.00893652695,3.18126443 L4.44494132,0.927349268 L3.52033772,6.46583979 L2.64085269,5.64246942 C2.17048623,7.95227046 2.9065509,10.3453437 4.58661796,11.9638075 L4.58661796,11.9638075 Z" id="Shape"></path>
                            </g>
                            <text id="TASK" font-family="Helvetica-Bold, Helvetica" font-size="4.35928144" font-weight="bold" fill="#4C4F58">
                                <tspan x="7.62874251" y="20.4883721">TASK</tspan>
                            </text>
                        </g>
                        <polygon id="Path-1056" fill="#3D7269" transform="translate(127.853436, 27.021672) rotate(-13.000000) translate(-127.853436, -27.021672) " points="118.589963 25.1351648 137.116909 17.1389852 136.407807 36.9043585"></polygon>
                        <text id="24" font-family="Helvetica-Bold, Helvetica" font-size="10.8982036" font-weight="bold" fill="#024958">
                            <tspan x="80.6467066" y="111.10204">24</tspan>
                        </text>
                        <text id="HOURS" font-family="Helvetica-Bold, Helvetica" font-size="5.4491018" font-weight="bold" fill="#024958">
                            <tspan x="77.3772455" y="117.581395">HOURS</tspan>
                        </text>
                        <polygon id="Path-1056-Copy" fill="#3D7269" transform="translate(50.614188, 127.574593) rotate(-204.000000) translate(-50.614188, -127.574593) " points="41.3507152 125.688085 59.8776613 117.691906 59.1685595 137.457279"></polygon>
                    </g>
                </g>
            </g>
        </g>
    </g>
</svg>