<?xml version="1.0" encoding="UTF-8" standalone="no"?>
<svg width="60px" height="60px" viewBox="0 0 60 60" version="1.1" xmlns="http://www.w3.org/2000/svg" xmlns:xlink="http://www.w3.org/1999/xlink">
    <!-- Generator: Sketch 3.8.3 (29802) - http://www.bohemiancoding.com/sketch -->
    <title>Group 44</title>
    <desc>Created with Sketch.</desc>
    <defs></defs>
    <g id="Page-1" stroke="none" stroke-width="1" fill="none" fill-rule="evenodd">
        <g id="A4-Copy" transform="translate(-239.000000, -236.000000)">
            <g id="Group-44" transform="translate(240.000000, 237.000000)">
                <circle id="Oval-59" stroke="#4C4F58" stroke-width="2" fill="#CCCCCC" cx="29" cy="29" r="29"></circle>
                <g id="Group-43" transform="translate(9.000000, 5.000000)">
                    <g id="noun_11315_cc" fill="#FFFFFF">
                        <path d="M27.6711864,33.0768272 C27.3030508,32.8722069 27.6183051,30.3589638 27.6183051,30.3589638 L24.8454237,30.0513689 C24.8454237,29.898568 24.6881356,27.640436 24.6881356,27.640436 C26.8888136,26.9216073 27.3389831,22.6790564 27.3389831,22.6790564 C28.7355932,23.4324314 29.6420339,20.0794476 29.6420339,20.0794476 C31.2955932,15.418355 28.8210169,15.6993758 28.8210169,15.6993758 C29.6074576,12.2108643 29.2305085,7.06213741 29.2305085,7.06213741 C28.1315254,-2.37963111 14.9138983,-0.653645001 12.7898305,2.5226212 C6.88610169,3.51981333 9.65423729,13.0698712 9.65423729,13.0698712 L10.440678,15.9405356 C8.38033898,17.2393434 9.81152542,18.8138573 9.8820339,20.6268735 C9.98440678,23.3015541 11.6630508,22.748149 11.6630508,22.748149 C11.7667797,27.1621027 14.679322,27.7420819 14.679322,27.7420819 C15.0976271,30.5130934 14.679322,30.2745911 14.679322,30.2745911 L12.1681356,30.2745911 C12.2562712,30.976811 12.0115254,32.8190587 12.0115254,32.8190587 C9.66779661,33.8341883 9.16813559,33.7650957 6.8440678,34.75498 C2.35186441,36.6716351 0.501694915,37.7618365 0.501694915,37.7618365 C0.325423729,37.8375726 0.160677966,37.9212809 3.55271368e-15,38.008311 C4.05220339,43.0228388 10.039322,46.4621883 16.859661,47.2428018 L22.7884746,47.2428018 C29.680678,46.4535518 35.7220339,42.9490957 39.7755932,37.8482022 C38.4027119,36.680936 36.2047458,35.6020286 33.1159322,34.8247369 C30.1545763,34.0799985 27.6711864,33.0768272 27.6711864,33.0768272 L27.6711864,33.0768272 Z" id="Shape"></path>
                    </g>
                    <path d="M12.0099954,46.3824056 C4.14376613,43.7173204 0.0262810202,38.0935465 0.0262810202,38.0935465 C0.0262810202,38.0935465 4.90622128,35.5146891 6.19499655,35.041158 C6.19499655,35.041158 10.6649242,35.8858236 16.1982996,38.44104 C17.4857941,39.0355826 18.6743597,39.7271655 19.7615321,40.5585429 C23.3467936,43.3002473 25.6929285,46.7894287 25.6929285,46.7894287 C25.6929285,46.7894287 19.8762247,49.0474908 12.0099954,46.3824056 Z" id="Path-1120" stroke="#1A325A" fill="#1A325A"></path>
                    <path d="M26.1276425,46.3824056 C18.2614132,43.7173204 14.1439281,38.0935465 14.1439281,38.0935465 C14.1439281,38.0935465 19.0238683,35.5146891 20.3126436,35.041158 C20.3126436,35.041158 24.7825712,35.8858236 30.3159467,38.44104 C31.621788,39.0440548 32.6466507,39.7943125 33.7459789,40.6392924 C37.3049467,43.3748323 39.8105756,46.7894287 39.8105756,46.7894287 C39.8105756,46.7894287 33.9938717,49.0474908 26.1276425,46.3824056 Z" id="Path-1120-Copy" stroke="#1A325A" fill="#1A325A" transform="translate(26.977252, 41.361815) scale(-1, 1) translate(-26.977252, -41.361815) "></path>
                    <path d="M25.5335191,45.5 C24.9111463,44.7115366 24.1800127,43.9320055 23.7021772,43.3996582 C22.6287356,42.2037579 21.5612075,41.1517029 20.023696,40.01651 C20.023696,40.01651 14.9221622,43.3555806 13.252384,47.4222514 C13.252384,47.4222514 13.4708695,47.4915557 13.8632374,47.5921613 C14.3923341,47.7278251 15.237614,47.9204065 16.2897088,48.0767212 C17.4505738,48.2491964 19.1642829,48.2741045 20.023696,48.2849325 C20.9611584,48.2967438 22.3654021,48.2486407 23.5855641,48.0767212 C25.1110969,47.8617753 26.8658088,47.3424988 26.8658088,47.3424988 C26.8658088,47.3424988 26.2703461,46.4334617 25.5335191,45.5 Z" id="Path-1122" fill="#335388"></path>
                </g>
            </g>
        </g>
    </g>
</svg>