<?xml version="1.0" encoding="UTF-8" standalone="no"?>
<svg width="63px" height="85px" viewBox="0 0 63 85" version="1.1" xmlns="http://www.w3.org/2000/svg" xmlns:xlink="http://www.w3.org/1999/xlink">
    <!-- Generator: Sketch 39.1 (31720) - http://www.bohemiancoding.com/sketch -->
    <title>Group 5</title>
    <desc>Created with Sketch.</desc>
    <defs></defs>
    <g id="Page-1" stroke="none" stroke-width="1" fill="none" fill-rule="evenodd">
        <g id="Artboard" transform="translate(-679.000000, -296.000000)">
            <g id="Group-5" transform="translate(679.000000, 296.000000)">
                <g id="shutterstock_141441646">
                    <polyline id="Fill-2" fill="#C3C6C5" points="22.3071373 81.7832157 0.677647059 84.2603922 0.677647059 40.4254118 22.3071373 33.4908235 41.5924706 40.4216471 62.8843922 33.4908235 62.8843922 81.7832157 41.5924706 84.2566275 22.3071373 81.7832157"></polyline>
                    <path d="M61.5316078,34.3818039 C55.2207059,32.2271373 48.9098039,30.0712157 42.5976471,27.9140392 C41.0127059,43.1698824 40.6023529,58.3818039 42.5976471,73.4996078 C48.9098039,75.6555294 55.2207059,77.811451 61.5316078,79.9686275 L61.5316078,34.3818039" id="Fill-3" fill="#E0D9C5"></path>
                    <path d="M22.3071373,34.8461176 C15.9962353,32.6876863 9.68407843,30.5305098 3.37192157,28.3720784 L3.37192157,73.958902 C9.68407843,76.1148235 15.9962353,78.2732549 22.3071373,80.4304314 C24.6763922,65.1758431 24.6763922,49.9814902 22.3071373,34.8461176" id="Fill-4" fill="#E0D9C5"></path>
                    <polyline id="Fill-5" fill="#BAB5A5" points="42.5976471 27.9140392 22.3071373 34.8461176 22.3071373 80.4304314 42.5976471 73.5259608 42.5976471 27.9140392"></polyline>
                    <path d="M42.5976471,47.5055686 C48.9261176,52.6092549 55.2558431,57.7104314 61.5855686,62.8128627 C61.568,68.531451 61.5504314,74.2500392 61.5316078,79.9673725 C55.2207059,77.8101961 48.9098039,75.6542745 42.5976471,73.4983529 C41.0892549,64.7692549 40.9399216,56.0978824 42.5976471,47.5055686" id="Fill-6" fill="#76BD6E"></path>
                    <path d="M9.93003922,76.198902 C13.2693333,71.9171765 16.6086275,67.635451 19.9479216,63.3537255 C20.7347451,63.0123922 21.5203137,62.6698039 22.3071373,62.3284706 C24.5647059,68.2854902 24.179451,74.3341176 22.3071373,80.4304314 C18.1810196,79.0199216 14.0561569,77.6094118 9.93003922,76.198902" id="Fill-7" fill="#76BD6E"></path>
                    <polyline id="Fill-8" fill="#4EA04B" points="22.3071373 62.3272157 36.2641569 46.745098 42.5976471 47.5331765 42.5976471 73.4996078 22.3071373 80.4291765 22.3071373 62.3272157"></polyline>
                    <path d="M60.1788235,35.2727843 C60.006902,35.2163137 59.8374902,35.1573333 59.6655686,35.0983529 C53.9758431,37.5692549 48.2848627,40.038902 42.5976471,42.5098039 C41.7556078,40.8658824 41.856,38.9383529 42.5976471,36.8138039 C45.8378039,35.4058039 49.0804706,33.9978039 52.3218824,32.5898039 C49.0804706,31.4829804 45.8378039,30.374902 42.5976471,29.2680784 C42.252549,28.3996863 42.252549,27.4974118 42.5976471,26.5612549 C49.3603137,28.8715294 56.1229804,31.1818039 62.8856471,33.4908235 L62.8856471,81.7832157 C56.1229804,79.4729412 49.3603137,77.1626667 42.5976471,74.8523922 L42.5976471,72.1455686 C48.4567843,74.1471373 54.3184314,76.1499608 60.1788235,78.1515294 L60.1788235,63.4064314 C54.3184314,58.6842353 48.4567843,53.9620392 42.5976471,49.2385882 C41.6677647,48.1618824 41.8748235,46.9872941 42.5976471,45.772549 C48.4567843,50.4922353 54.3184314,55.2144314 60.1788235,59.9378824 L60.1788235,35.2727843" id="Fill-9" fill="#FFFFFF"></path>
                    <path d="M22.3071373,33.4908235 L22.3071373,36.198902 C16.4467451,34.1948235 10.5863529,32.192 4.72470588,30.1891765 L4.72470588,39.6021961 C9.70039216,46.6133333 14.6760784,53.6232157 19.6505098,60.6343529 C20.5364706,60.2503529 21.4224314,59.8663529 22.3071373,59.481098 C23.1140392,60.8840784 22.9772549,62.8680784 22.3071373,65.1796078 C22.0862745,65.2749804 21.8654118,65.3728627 21.644549,65.4669804 C18.8975686,68.9894902 16.1505882,72.5107451 13.4023529,76.0332549 C16.3701961,77.0459608 19.3392941,78.0611765 22.3071373,79.0763922 L22.3071373,81.7832157 C15.5444706,79.4716863 8.78180392,77.1601569 2.01788235,74.8486275 L2.01788235,26.5562353 C8.78180392,28.8677647 15.5444706,31.180549 22.3071373,33.4908235 L22.3071373,33.4908235 Z M4.72470588,44.1913725 L4.72470588,73.0666667 C5.85913725,73.4531765 6.99231373,73.8421961 8.1254902,74.2287059 C11.251451,70.220549 14.3786667,66.2111373 17.5033725,62.2029804 C13.2442353,56.1970196 8.98509804,50.1948235 4.72470588,44.1913725 L4.72470588,44.1913725 Z" id="Fill-10" fill="#FFFFFF"></path>
                    <path d="M42.5976471,42.5361569 L39.9673725,45.4713725 L42.5976471,45.7976471 L42.5976471,49.2661961 L37.1701961,48.5935686 L22.3071373,65.1796078 L22.3071373,59.481098 L42.5976471,36.838902 L42.5976471,42.5361569 L42.5976471,42.5361569 Z M42.5976471,26.56 L42.5976471,29.2668235 L22.3071373,36.198902 L22.3071373,33.4908235 L42.5976471,26.56 L42.5976471,26.56 Z M42.5976471,72.1455686 L42.5976471,74.8523922 L22.3071373,81.7832157 L22.3071373,79.0763922 L42.5976471,72.1455686 L42.5976471,72.1455686 Z" id="Fill-11" fill="#E4E4DF"></path>
                    <path d="M17.6702745,14.7827451 C17.6702745,7.07388235 23.923451,0.821960784 31.6323137,0.821960784 C39.3424314,0.821960784 45.5943529,7.07388235 45.5943529,14.7827451 C45.5943529,17.5334902 44.6644706,21.043451 43.6103529,23.4967843 C39.6172549,32.7755294 35.6241569,42.060549 31.6323137,51.3443137 C27.6392157,42.0592941 23.641098,32.7717647 19.6492549,23.4867451 C18.5951373,21.0371765 17.6702745,17.5309804 17.6702745,14.7827451 L17.6702745,14.7827451 Z M31.6323137,22.835451 C27.1861961,22.835451 23.5821176,19.2301176 23.5821176,14.7827451 C23.5821176,10.3366275 27.1861961,6.73254902 31.6323137,6.73254902 C36.0796863,6.73254902 39.6850196,10.3366275 39.6850196,14.7827451 C39.6850196,19.2301176 36.0796863,22.835451 31.6323137,22.835451 L31.6323137,22.835451 Z" id="Fill-12" fill="#D6473C"></path>
                    <path d="M31.6335686,0.821960784 C39.3424314,0.821960784 45.5943529,7.07513725 45.5943529,14.7827451 C45.5943529,17.5347451 44.6657255,21.043451 43.6116078,23.4967843 C39.6172549,32.7755294 35.6241569,42.060549 31.6335686,51.3443137 L31.6335686,22.835451 C36.0796863,22.835451 39.6850196,19.2301176 39.6850196,14.7827451 C39.6850196,10.3366275 36.0796863,6.73254902 31.6335686,6.73254902 L31.6335686,0.821960784" id="Fill-13" fill="#E26253"></path>
                </g>
            </g>
        </g>
    </g>
</svg>