<?xml version="1.0" encoding="UTF-8" standalone="no"?>
<svg width="11px" height="10px" viewBox="0 0 11 10" version="1.1" xmlns="http://www.w3.org/2000/svg" xmlns:xlink="http://www.w3.org/1999/xlink">
    <!-- Generator: Sketch 3.8.3 (29802) - http://www.bohemiancoding.com/sketch -->
    <title>Cloud</title>
    <desc>Created with Sketch.</desc>
    <defs></defs>
    <g id="Page-1" stroke="none" stroke-width="1" fill="none" fill-rule="evenodd">
        <g id="Cloud" fill="#666666">
            <g id="noun_97498_cc">
                <path d="M1.84411765,9.109375 L1.81176471,9.109375 C1.74705882,9.09375 1.73088235,9.03125 1.74705882,8.96875 L2.08676471,8.046875 C2.10294118,7.984375 2.16764706,7.96875 2.23235294,7.984375 C2.29705882,8 2.31323529,8.0625 2.29705882,8.125 L1.95735294,9.046875 C1.94117647,9.078125 1.89264706,9.109375 1.84411765,9.109375 L1.84411765,9.109375 Z" id="Shape"></path>
                <path d="M8.71911765,6.984375 L2.70147059,6.984375 C1.24558824,6.984375 0.0485294118,5.828125 0.0485294118,4.421875 C0.0485294118,3.046875 1.16470588,1.921875 2.57205882,1.859375 C3.15441176,0.765625 4.31911765,0.0625 5.59705882,0.0625 C7.21470588,0.0625 8.60588235,1.171875 8.92941176,2.671875 C10.0617647,2.8125 10.9352941,3.71875 10.9352941,4.84375 C10.9352941,6.03125 9.94852941,6.984375 8.71911765,6.984375 L8.71911765,6.984375 Z M2.70147059,2.5 C1.60147059,2.5 0.711764706,3.359375 0.711764706,4.421875 C0.711764706,5.484375 1.60147059,6.34375 2.70147059,6.34375 L8.70294118,6.34375 C9.57647059,6.34375 10.2720588,5.65625 10.2720588,4.828125 C10.2720588,4 9.56029412,3.3125 8.70294118,3.3125 L8.36323529,3.3125 L8.33088235,3.03125 C8.16911765,1.703125 6.98823529,0.703125 5.61323529,0.703125 C4.51323529,0.703125 3.52647059,1.328125 3.08970588,2.296875 L2.99264706,2.5 L2.78235294,2.5 L2.70147059,2.5 L2.70147059,2.5 Z" id="Shape"></path>
                <path d="M2.71764706,9.734375 L2.68529412,9.734375 C2.62058824,9.71875 2.60441176,9.65625 2.62058824,9.59375 L3.36470588,7.5625 C3.38088235,7.5 3.44558824,7.484375 3.51029412,7.5 C3.575,7.515625 3.59117647,7.578125 3.575,7.640625 L2.83088235,9.671875 C2.81470588,9.703125 2.76617647,9.734375 2.71764706,9.734375 L2.71764706,9.734375 Z" id="Shape"></path>
                <path d="M3.97941176,9.265625 L3.94705882,9.265625 C3.88235294,9.25 3.86617647,9.1875 3.88235294,9.125 L4.41617647,7.671875 C4.43235294,7.609375 4.49705882,7.59375 4.56176471,7.609375 C4.62647059,7.625 4.64264706,7.6875 4.62647059,7.75 L4.09264706,9.203125 C4.07647059,9.25 4.02794118,9.265625 3.97941176,9.265625 L3.97941176,9.265625 Z" id="Shape"></path>
                <path d="M4.83676471,9.921875 L4.80441176,9.921875 C4.73970588,9.90625 4.72352941,9.84375 4.73970588,9.78125 L5.58088235,7.46875 C5.59705882,7.40625 5.66176471,7.390625 5.72647059,7.40625 C5.79117647,7.421875 5.80735294,7.484375 5.79117647,7.546875 L4.95,9.84375 C4.93382353,9.890625 4.88529412,9.921875 4.83676471,9.921875 L4.83676471,9.921875 Z" id="Shape"></path>
                <path d="M6.03382353,9.65625 L6.00147059,9.65625 C5.93676471,9.640625 5.92058824,9.578125 5.93676471,9.515625 L6.45441176,8.109375 C6.47058824,8.046875 6.53529412,8.03125 6.6,8.046875 C6.66470588,8.0625 6.68088235,8.125 6.66470588,8.1875 L6.14705882,9.59375 C6.11470588,9.625 6.08235294,9.65625 6.03382353,9.65625 L6.03382353,9.65625 Z" id="Shape"></path>
                <path d="M7.03676471,9.921875 L7.00441176,9.921875 C6.93970588,9.90625 6.92352941,9.84375 6.93970588,9.78125 L7.71617647,7.640625 C7.73235294,7.578125 7.79705882,7.5625 7.86176471,7.578125 C7.92647059,7.59375 7.94264706,7.65625 7.92647059,7.71875 L7.13382353,9.84375 C7.11764706,9.890625 7.06911765,9.921875 7.03676471,9.921875 L7.03676471,9.921875 Z" id="Shape"></path>
                <path d="M8.46029412,9.015625 L8.42794118,9.015625 C8.36323529,9 8.34705882,8.9375 8.36323529,8.875 L8.73529412,7.84375 C8.75147059,7.78125 8.81617647,7.765625 8.88088235,7.78125 C8.94558824,7.796875 8.96176471,7.859375 8.94558824,7.921875 L8.57352941,8.953125 C8.54117647,8.984375 8.49264706,9.015625 8.46029412,9.015625 L8.46029412,9.015625 Z" id="Shape"></path>
            </g>
        </g>
    </g>
</svg>