<?xml version="1.0" encoding="UTF-8" standalone="no"?>
<svg width="43px" height="66px" viewBox="0 0 43 66" version="1.1" xmlns="http://www.w3.org/2000/svg" xmlns:xlink="http://www.w3.org/1999/xlink">
    <!-- Generator: Sketch 39 (31667) - http://www.bohemiancoding.com/sketch -->
    <title>Group 45</title>
    <desc>Created with Sketch.</desc>
    <defs>
        <rect id="path-1" x="0" y="22" width="43" height="43" rx="6"></rect>
        <mask id="mask-2" maskContentUnits="userSpaceOnUse" maskUnits="objectBoundingBox" x="0" y="0" width="43" height="43" fill="white">
            <use xlink:href="#path-1"></use>
        </mask>
    </defs>
    <g id="Page-1" stroke="none" stroke-width="1" fill="none" fill-rule="evenodd">
        <g id="A4-Copy" transform="translate(-276.000000, -232.000000)">
            <g id="Group-45" transform="translate(276.000000, 233.000000)">
                <use id="Rectangle-2" stroke="#4C4F58" mask="url(#mask-2)" stroke-width="6" fill="#D8D8D8" xlink:href="#path-1"></use>
                <path d="M24.2533567,24.9923096 L10.0574949,62.0250261 L5.60858157,62.0250261 C5.60858157,62.0250261 3.09631348,61.6330566 2.96472168,59.0316162 C2.83312988,56.4301758 2.96472168,28.0286263 2.96472168,27.7931519 C2.96472168,27.7931519 3.04428971,26.6879424 3.79724124,25.8777466 C4.28546987,25.3523996 5.17096939,24.9965351 6.11431887,24.9923096 C8.51251223,24.9815674 24.2533567,24.9923096 24.2533567,24.9923096 Z" id="Path-9" fill="#9DC389"></path>
                <path d="M16.8262939,44.3398438 L39.9975586,54.8329468 C39.9975586,54.8329468 39.9975586,59.0721435 39.9975586,59.0721436 C39.9975586,59.0721436 40.3324585,62.0429688 36.7079468,62.0429688 C33.0834351,62.0429688 10.0483398,62.0429688 10.0483398,62.0429688 L16.8262939,44.3398438 Z" id="Path-10" fill="#F7FFF4"></path>
                <path d="M24.2632446,24.9754639 L16.8421631,44.3425297 L40.0401611,54.8900146 C40.0401611,54.8900146 40.0354004,28.0075684 40.0354004,28.0075684 C40.0354004,28.0075684 39.9925371,26.5987573 38.9505005,25.7075806 C38.4200668,25.25394 37.7598722,24.9826699 36.6470947,24.9754639 C33.3482666,24.9541016 24.2632446,24.9754639 24.2632446,24.9754639 Z" id="Path-11" fill="#D8EBCF"></path>
                <circle id="Oval-2" stroke="#4C4F58" cx="12.5" cy="51.5" r="1.5"></circle>
                <circle id="Oval-2-Copy" stroke="#4C4F58" cx="26.5" cy="31.5" r="1.5"></circle>
                <path d="M19.7005547,15.4527005 L27.8963531,29.7424796 L36.0927056,15.4527005 C36.219042,15.266189 36.3282011,15.0674654 36.4395766,14.8715173 L36.5193681,14.7555027 C37.3222693,13.3228057 37.7938144,11.6758425 37.7938144,9.91452991 C37.7938144,4.43852982 33.3620657,7.10542736e-15 27.8969072,7.10542736e-15 C22.4306405,7.10542736e-15 18,4.43852982 18,9.91452991 C18,11.6752874 18.4715452,13.3228057 19.2761087,14.7555027 C19.4079862,14.993638 19.5481753,15.2278875 19.7005547,15.4527005 L19.7005547,15.4527005 Z M27.8963531,4.95698741 C30.6292094,4.95698741 32.8456379,7.17736251 32.8456379,9.91508501 C32.8456379,12.6528075 30.6292094,14.8720724 27.8963531,14.8720724 C25.1634968,14.8720724 22.9470683,12.6528075 22.9470683,9.91508501 C22.9470683,7.17736251 25.1634968,4.95698741 27.8963531,4.95698741 L27.8963531,4.95698741 Z" id="Shape" stroke="#4C4F58" stroke-width="2" fill="#EEB223"></path>
                <g id="noun_408398_cc" transform="translate(24.493945, 45.776891) rotate(98.000000) translate(-24.493945, -45.776891) translate(10.493945, 35.776891)" fill="#4C4F58">
                    <path d="M3.37975745,10.2256113 L1.13924409,11.1147949 C0.759496057,11.2629922 0.341773226,11.0777456 0.189874014,10.7072524 L0.113924409,10.4849565 C-0.0379748028,10.1144633 0.151899211,9.70692087 0.53164724,9.5587236 L2.77216061,8.70658933 C3.15190864,8.55839206 3.56963147,8.74363864 3.72153068,9.11413181 L3.79748028,9.3364277 C3.94937949,9.66987155 3.75950548,10.077414 3.37975745,10.2256113 L3.37975745,10.2256113 Z" id="Shape"></path>
                    <path d="M8.62028024,6.55772898 L6.7215401,7.965603 C6.37976688,8.1878989 5.92406924,8.15084958 5.69622043,7.81740574 L5.54432121,7.63215916 C5.3164724,7.29871531 5.3544472,6.85412351 5.69622043,6.63182762 L7.59496057,5.2239536 C7.93673379,5.0016577 8.39243143,5.03870702 8.62028024,5.37215086 L8.77217946,5.55739744 C9.00002827,5.85379197 8.96205347,6.29838377 8.62028024,6.55772898 L8.62028024,6.55772898 Z" id="Shape"></path>
                    <path d="M13.7848534,4.92755907 L11.3924409,5.11280565 C10.974718,5.14985496 10.6329448,4.85346043 10.59497,4.44591795 L10.5569952,4.18657274 C10.5190204,3.77903026 10.8228188,3.44558641 11.2405416,3.4085371 L13.6329542,3.22329052 C14.050677,3.1862412 14.3924503,3.48263573 14.4304251,3.89017821 L14.4683999,4.14952342 C14.5063747,4.5570659 14.1646015,4.92755907 13.7848534,4.92755907 L13.7848534,4.92755907 Z" id="Shape"></path>
                    <path d="M19.4051242,2.26000829 L17.1646109,3.11214257 C16.7848629,3.26033983 16.36714,3.07509325 16.2152408,2.70460009 L16.1392912,2.48230419 C15.987392,2.11181103 16.177266,1.70426855 16.557014,1.55607128 L18.7975274,0.703937009 C19.1772754,0.555739744 19.5949983,0.740986326 19.7468975,1.11147949 L19.8228471,1.33377539 C19.9747463,1.70426855 19.7848723,2.14886034 19.4051242,2.26000829 L19.4051242,2.26000829 Z" id="Shape"></path>
                    <path d="M24.4177982,2.55640282 L22.1772849,1.66721923 C21.7975368,1.51902197 21.6076628,1.11147949 21.759562,0.740986326 L21.8355116,0.518690428 C21.9874108,0.148197265 22.4051337,-0.0370493163 22.7848817,0.111147949 L25.0253951,1.00033154 C25.4051431,1.1485288 25.5950171,1.55607128 25.4431179,1.92656445 L25.3671683,2.14886034 C25.2152691,2.51935351 24.7595714,2.70460009 24.4177982,2.55640282 L24.4177982,2.55640282 Z" id="Shape"></path>
                    <path d="M25.4810927,6.52067967 L25.8228659,4.18657274 C25.8988155,3.77903026 26.2405888,3.51968505 26.6583116,3.59378368 L26.9241352,3.630833 C27.341858,3.70493163 27.6076817,4.07542479 27.5317321,4.44591795 L27.1899588,6.78002488 C27.1140092,7.18756736 26.772236,7.44691257 26.3545132,7.37281394 L26.0886895,7.33576463 C25.7089415,7.29871531 25.4431179,6.92822215 25.4810927,6.52067967 L25.4810927,6.52067967 Z" id="Shape"></path>
                    <path d="M22.0253856,9.48462497 L24.1139998,8.33609616 C24.455773,8.15084958 24.9114707,8.26199753 25.1013447,8.59544138 L25.2152691,8.81773728 C25.4051431,9.15118112 25.2912187,9.59577292 24.9494455,9.7810195 L22.8608313,10.9295483 C22.5190581,11.1147949 22.0633604,11.0036469 21.8734864,10.6702031 L21.759562,10.4479072 C21.5317132,10.1515127 21.6456376,9.70692087 22.0253856,9.48462497 L22.0253856,9.48462497 Z" id="Shape"></path>
                    <path d="M19.8987967,16.3757978 L21.18994,18.3394116 C21.4177888,18.6728554 21.3038644,19.1174472 20.9620912,19.3397431 L20.7342423,19.4879404 C20.3924691,19.7102363 19.9367715,19.5990883 19.7089227,19.2656445 L18.4177794,17.3020307 C18.1899306,16.9685869 18.303855,16.5239951 18.6456282,16.3016992 L18.873477,16.1535019 C19.253225,15.9682553 19.7089227,16.042354 19.8987967,16.3757978 L19.8987967,16.3757978 Z" id="Shape"></path>
                    <path d="M20.5443683,12.3374223 L19.5570235,14.4862827 C19.4051242,14.8567758 18.9494266,15.0049731 18.5696786,14.8567758 L18.3418298,14.7456279 C17.9620817,14.5974306 17.8101825,14.1528388 17.9620817,13.7823457 L18.9494266,11.6334853 C19.1013258,11.2629922 19.5570235,11.1147949 19.9367715,11.2629922 L20.1646203,11.3741401 C20.5443683,11.5593867 20.7342423,11.9669292 20.5443683,12.3374223 L20.5443683,12.3374223 Z" id="Shape"></path>
                </g>
            </g>
        </g>
    </g>
</svg>