<?xml version="1.0" encoding="UTF-8" standalone="no"?>
<svg width="103px" height="157px" viewBox="0 0 103 157" version="1.1" xmlns="http://www.w3.org/2000/svg" xmlns:xlink="http://www.w3.org/1999/xlink">
    <!-- Generator: Sketch 3.8.3 (29802) - http://www.bohemiancoding.com/sketch -->
    <title>Grocery</title>
    <desc>Created with Sketch.</desc>
    <defs>
        <rect id="path-1" x="0" y="0.93373494" width="79.4907407" height="140.060241" rx="7"></rect>
        <mask id="mask-2" maskContentUnits="userSpaceOnUse" maskUnits="objectBoundingBox" x="0" y="0" width="79.4907407" height="140.060241" fill="white">
            <use xlink:href="#path-1"></use>
        </mask>
        <rect id="path-3" x="0" y="120.32935" width="79.4907407" height="20.6646257" rx="7"></rect>
        <mask id="mask-4" maskContentUnits="userSpaceOnUse" maskUnits="objectBoundingBox" x="0" y="0" width="79.4907407" height="20.6646257" fill="white">
            <use xlink:href="#path-3"></use>
        </mask>
        <rect id="path-5" x="0" y="0.811277898" width="79.4907407" height="13.1947462" rx="5"></rect>
        <mask id="mask-6" maskContentUnits="userSpaceOnUse" maskUnits="objectBoundingBox" x="0" y="0" width="79.4907407" height="13.1947462" fill="white">
            <use xlink:href="#path-5"></use>
        </mask>
        <path d="M0,43.5982958 L0,0.986608847 L2.39287313,2.48058475 L3.24762662,2.55457062 L6.87299138,0 L9.08375692,1.99870801 L11.298845,0.260675242 L13.5964275,2.01932693 L15.8255651,0.40905918 L18.0465276,2.08460695 L20.2503988,0.52466227 L22.4143419,2.16136182 L24.6988066,0.62571868 L27.0029889,2.24954026 L28.9835723,0.734682145 L31.5222768,2.35788532 L33.5640952,0.854243214 L35.860219,2.45607084 L38.1865384,0.959936752 L40.4927419,2.55457068 L42.4778646,0.986608847 L42.4778646,43.564375 C42.4778646,43.564375 42.4778646,48.7938398 37.3131376,48.7938375 C32.1484106,48.7938352 9.26037541,48.7938362 5.29990832,48.7938378 C0,48.7938398 0,43.5982958 0,43.5982958 Z" id="path-7"></path>
        <mask id="mask-8" maskContentUnits="userSpaceOnUse" maskUnits="objectBoundingBox" x="0" y="0" width="42.4778646" height="48.7938378" fill="white">
            <use xlink:href="#path-7"></use>
        </mask>
    </defs>
    <g id="Page-1" stroke="none" stroke-width="1" fill="none" fill-rule="evenodd">
        <g id="A4-Copy" transform="translate(-247.000000, -343.000000)">
            <g id="Grocery" transform="translate(247.000000, 343.000000)">
                <g id="Group-101">
                    <g id="Group-100">
                        <g id="Group-98">
                            <g id="Group-97-Copy">
                                <use id="Rectangle-303" stroke="#4C4F58" mask="url(#mask-2)" stroke-width="6" fill="#E5FBF8" xlink:href="#path-1"></use>
                                <use id="Rectangle-303-Copy" stroke="#4C4F58" mask="url(#mask-4)" stroke-width="6" fill="#C1E5DE" xlink:href="#path-3"></use>
                                <use id="Rectangle-303-Copy-2" stroke="#4C4F58" mask="url(#mask-6)" stroke-width="6" fill="#C1E5DE" xlink:href="#path-5"></use>
                                <ellipse id="Oval-66-Copy" fill="#6A9B92" cx="39.3632033" cy="130.661663" rx="4.20383725" ry="4.20946079"></ellipse>
                            </g>
                            <g id="Group-96" transform="translate(15.898148, 35.481928)">
                                <g id="Group-95-Copy">
                                    <g id="Group-86">
                                        <g id="Group-84">
                                            <path d="M7.88457771,34.0375004 C7.88457771,34.0375004 -1.99698781,12.095253 0.615114958,1.0479828 C0.615114958,1.0479828 1.68323645,-0.522055469 3.28616623,0.709840564 C3.28616623,0.709840564 12.9011819,12.3219718 19.8635144,33.7862598 L9.32710772,33.8060493 L7.88457771,34.0375004 Z" id="Path-693" fill="#FDBF74"></path>
                                            <path d="M7.88457771,34.0375004 C7.88457771,34.0375004 -1.99698781,12.095253 0.615114958,1.0479828 C0.615114958,1.0479828 1.35034862,-0.0327416286 2.51624433,0.302613929 C2.67836216,0.349245128 1.19415347,4.62439469 3.0631871,14.1520696 C3.95377511,18.6919735 6.03444413,25.033182 8.61673562,31.5410116 L9.32710772,33.8060493 L7.88457771,34.0375004 Z" id="Path-693-Copy" fill="#E29444"></path>
                                        </g>
                                        <g id="Group-85" transform="translate(6.069054, 13.882799) rotate(-6.000000) translate(-6.069054, -13.882799) translate(2.069054, 11.882799)">
                                            <ellipse id="Oval-38" fill="#E49C4A" transform="translate(4.350124, 1.818347) rotate(-16.000000) translate(-4.350124, -1.818347) " cx="4.35012447" cy="1.81834702" rx="3.49932065" ry="0.881062712"></ellipse>
                                            <path d="M1.00889216,2.83333937 C1.00889216,2.83333937 1.0509778,2.92881458 1.21152769,2.99587672 C1.36401393,3.05957067 1.62975253,3.09486694 1.83190209,3.10055132 C1.83190209,3.10055132 2.90370787,3.13381165 4.2671326,2.75025576 C5.63055733,2.36669986 5.94737891,2.18590562 5.94737891,2.18590562 C5.94737891,2.18590562 6.9877882,1.77680622 7.46925448,1.31850196 C7.95072076,0.860197702 7.60258278,0.698171216 7.60258278,0.698171216 C7.60258278,0.698171216 7.53500852,0.941567379 6.52164639,1.44008904 C5.81915242,1.78567968 5.49826738,1.94734003 5.0083406,2.11804413 C4.79153783,2.19358423 4.54163252,2.27089533 4.21090725,2.36669986 C3.13281528,2.67900165 2.01431286,2.77599124 1.71202943,2.83333937 C1.409746,2.89068749 1.00889216,2.83333937 1.00889216,2.83333937 Z" id="Path-695" fill="#F9D69E"></path>
                                        </g>
                                        <g id="Group-85-Copy" transform="translate(9.302469, 21.948015) rotate(-6.000000) translate(-9.302469, -21.948015) translate(4.302469, 19.448015)">
                                            <ellipse id="Oval-38" fill="#E49C4A" transform="translate(5.261266, 2.277936) rotate(-16.000000) translate(-5.261266, -2.277936) " cx="5.26126614" cy="2.277936" rx="4.38377735" ry="1.10375217"></ellipse>
                                            <path d="M1.07553411,3.54946864 C1.07553411,3.54946864 1.12825694,3.6690753 1.32938597,3.75308748 C1.52041326,3.83288012 1.85331755,3.87709757 2.1065606,3.88421868 C2.1065606,3.88421868 3.44926633,3.92588559 5.15729799,3.44538557 C6.86532965,2.96488555 7.26222819,2.73839539 7.26222819,2.73839539 C7.26222819,2.73839539 8.56560193,2.22589572 9.16875929,1.65175461 C9.77191664,1.07761351 9.33578645,0.874634668 9.33578645,0.874634668 C9.33578645,0.874634668 9.25113272,1.17954945 7.98164233,1.80407295 C7.10159233,2.23701196 6.69960328,2.43953211 6.08584703,2.65338184 C5.81424715,2.74801478 5.50117803,2.84486633 5.08686163,2.96488555 C3.73628086,3.35612192 2.33507587,3.47762572 1.95639001,3.54946864 C1.57770415,3.62131156 1.07553411,3.54946864 1.07553411,3.54946864 Z" id="Path-695" fill="#F9D69E"></path>
                                        </g>
                                    </g>
                                    <g id="Group-89" transform="translate(19.375868, 5.228916)">
                                        <path d="M0,10.2908145 C0,7.03831602 2.57882764,3.88447975 5.80300509,3.3455309 C5.80300509,3.3455309 5.08454059,3.34249256 5.89084422,3.34249256 C6.69714785,3.34249256 5.99134044,3.34632773 5.99134044,3.34632773 C9.1892613,3.9291634 11.7816884,7.03329385 11.7816884,10.2908145 L11.7816884,27.875893 C11.7816884,31.1283914 9.13764753,33.7650624 5.89084418,33.7650624 L5.89084418,33.7650624 C2.63742078,33.7650624 0,31.1334136 0,27.875893 L0,10.2908145 Z" id="Rectangle-295" fill="#49A9C9"></path>
                                        <path d="M-3.06644573e-12,9.95556138 L0.0221309238,9.64468547 C0.109587105,8.41617735 0.846700587,6.6738543 1.68585238,5.76715283 C1.68585238,5.76715283 2.29392209,5.00398652 2.96377903,4.5564943 C3.63363596,4.10900208 4.47363733,3.69801354 4.47363733,3.74312362 C4.47363733,3.78823369 3.8163968,4.32833006 3.8163968,4.32833006 C2.87628818,5.12570584 2.11296947,6.77506386 2.10426452,7.99897954 C2.10426452,7.99897954 2.1141796,7.80051674 2.10378484,8.01012225 C2.09339007,8.21972776 1.97946745,32.8255307 2.11417956,33.0254547 C2.24889166,33.2253786 1.92473305,32.9679596 1.92473305,32.9679596 C0.861732338,32.3436629 -3.06644573e-12,30.8404853 -3.06644573e-12,29.5986455 L-3.06644573e-12,9.95556138 Z" id="Rectangle-295-Copy" fill="#81D3ED"></path>
                                        <polygon id="Path-700" fill="#81D2ED" points="7.51744759 1.9398476 8.38945664 3.251324e-18 3.37067414 3.251324e-18 4.26765684 1.9398476"></polygon>
                                        <polygon id="Rectangle-297" fill="#125065" points="4.28144725 1.87426068 7.53070175 1.87426068 7.53070175 3.74852136 4.28144725 3.74852136"></polygon>
                                        <ellipse id="Oval-40" fill="#81D2ED" cx="5.33424708" cy="18.7969332" rx="0.941337719" ry="0.93713034"></ellipse>
                                        <path d="M9.41337719,14.5323111 C10.1065591,14.5323111 10.6684942,13.9728877 10.6684942,13.2828039 C10.6684942,12.5927202 10.1065591,12.0332968 9.41337719,12.0332968 C8.72019524,12.0332968 8.15826023,12.5927202 8.15826023,13.2828039 C8.15826023,13.9728877 8.72019524,14.5323111 9.41337719,14.5323111 Z" id="Oval-40-Copy" fill="#81D2ED"></path>
                                        <ellipse id="Oval-40-Copy-2" fill="#81D2ED" cx="3.1377924" cy="31.8624315" rx="0.62755848" ry="0.62475356"></ellipse>
                                        <ellipse id="Oval-40-Copy-3" fill="#81D2ED" cx="8.78581871" cy="6.2475356" rx="0.62755848" ry="0.62475356"></ellipse>
                                    </g>
                                    <g id="Group-88" transform="translate(19.073351, 23.921687) scale(-1, 1) translate(-19.073351, -23.921687) translate(10.573351, 19.421687)">
                                        <path d="M5.69874477,3.27855857 C5.69874477,3.27855857 0.794931666,2.15287909 0.489393983,8.47501235 L16.2791545,8.67251918 C16.2791545,8.67251918 16.6087082,2.27187559 10.1358457,2.93442618 C10.1358457,2.93442618 9.46493033,2.09385957 7.95411987,2.09385957 C6.44330941,2.09385957 5.69874477,3.27855857 5.69874477,3.27855857 Z" id="Path-697" fill="#D82F20"></path>
                                        <path d="M5.69874477,3.27855857 C5.69874477,3.27855857 12.0699515,2.35038592 11.7644138,8.67251918 L16.2791545,8.67251918 C16.2791545,8.67251918 16.6087082,2.27187559 10.1358457,2.93442618 C10.1358457,2.93442618 9.46493033,2.09385957 7.95411987,2.09385957 C6.44330941,2.09385957 5.69874477,3.27855857 5.69874477,3.27855857 Z" id="Path-697-Copy" fill="#F64C3D"></path>
                                        <path d="M4.42802822,0.677869682 L5.08686887,1.7209355 C5.08686887,1.7209355 7.64964957,0.394740093 7.71796193,3.51819289 C7.71796193,3.51819289 5.39294024,4.09977115 4.92996392,4.57384224 L5.87913208,5.28508566 C5.87913208,5.28508566 8.83123984,3.73402791 10.1278404,5.09058794 L11.0948871,4.22670075 C11.0948871,4.22670075 9.59148164,2.99187276 8.86726394,3.56688571 C8.86726394,3.56688571 9.12797164,0.28531803 7.15198339,0.0908203125 C5.17599514,-0.103677405 4.42802822,0.677869682 4.42802822,0.677869682 Z" id="Path-698" fill="#79A908"></path>
                                    </g>
                                    <g id="Group-93" transform="translate(37.329716, 23.454590) rotate(8.000000) translate(-37.329716, -23.454590) translate(28.329716, 13.454590)">
                                        <path d="M4.38872548,0.617027242 L0.535407042,18.6615933 L14.7539237,19.8396161 L17.7409844,2.94590607 L14.0777791,2.10407308 C14.0777791,2.10407308 11.8044825,5.54271802 10.967783,1.4999501 L5.68424929,0.850322627 L4.38872548,0.617027242 Z" id="Path-703" fill="#FBD252"></path>
                                        <ellipse id="Oval-44" fill="#F6BF3E" cx="14.7898638" cy="8.69339427" rx="1.03185096" ry="1.04320731"></ellipse>
                                        <ellipse id="Oval-44-Copy-6" fill="#F6BF3E" cx="11.4650107" cy="12.9950145" rx="1.03185096" ry="1.04320731"></ellipse>
                                        <ellipse id="Oval-44-Copy-5" fill="#F6BF3E" cx="4.75797943" cy="9.26007478" rx="1.03185096" ry="1.04320731"></ellipse>
                                        <ellipse id="Oval-44-Copy" fill="#F6BF3E" cx="10.6624599" cy="15.6481097" rx="1.7197516" ry="1.73867885"></ellipse>
                                        <ellipse id="Oval-44-Copy-2" fill="#F6BF3E" cx="4.47135417" cy="12.170752" rx="1.03185096" ry="1.04320731"></ellipse>
                                        <ellipse id="Oval-44-Copy-3" fill="#F6BF3E" cx="6.87900641" cy="4.17282925" rx="0.687900641" ry="0.695471541"></ellipse>
                                        <ellipse id="Oval-44-Copy-7" fill="#F6BF3E" cx="14.212931" cy="3.78011434" rx="0.687900641" ry="0.695471541"></ellipse>
                                        <ellipse id="Oval-44-Copy-4" fill="#F6BF3E" cx="9.28665865" cy="9.38886581" rx="1.03185096" ry="1.04320731"></ellipse>
                                    </g>
                                    <g id="Group-92" transform="translate(31.569415, 25.954963) rotate(8.000000) translate(-31.569415, -25.954963) translate(24.569415, 20.954963)">
                                        <path d="M0.262390368,8.41223145 C0.262390368,8.41223145 -0.020443477,5.69784999 1.58843428,5.14209229 C1.58843428,5.14209229 1.26411819,1.52897577 4.11508283,1.79470421 C4.11508283,1.79470421 5.61598749,-1.15537541 8.49096818,1.46950791 C8.49096818,1.46950791 11.5995597,1.31836869 11.054534,4.88288359 C11.054534,4.88288359 13.7066218,5.7478346 13.0909373,8.50429795 C12.4752528,11.2607613 0.262390368,8.41223145 0.262390368,8.41223145 Z" id="Path-701" fill="#206D05"></path>
                                        <path d="M9.66033364,9.70590932 C5.85343704,9.71628801 0.262390368,8.41223145 0.262390368,8.41223145 C0.262390368,8.41223145 -0.020443477,5.69784999 1.58843428,5.14209229 C1.58843428,5.14209229 1.26411819,1.52897577 4.11508283,1.79470421 C4.11508283,1.79470421 4.74505755,1.3288397 7.62003825,3.95372302 C7.62003825,3.95372302 10.2053593,3.02041359 9.66033362,6.58492849 C9.66033362,6.58492849 11.4798714,9.70094873 9.66033364,9.70590932 Z" id="Path-701-Copy" fill="#3F8E16"></path>
                                    </g>
                                    <g id="Group-94" transform="translate(1.490451, 25.397590)">
                                        <use id="Rectangle-293" stroke="#4C4F58" mask="url(#mask-8)" stroke-width="6" fill="#F3D8BB" xlink:href="#path-7"></use>
                                        <path d="M3.66733691,45.597439 C2.59316788,44.7492712 2.81354664,42.9641842 2.81354664,42.9641842 L2.81354664,5.31097084 L4.02168441,5.38363379 L6.66347981,3.60033922 L8.93882692,5.65240187 L11.3235953,3.79826776 L13.5521945,5.38363388 L15.7868442,3.91999982 C15.7868442,3.91999982 12.8636319,11.5914288 17.248141,24.9641089 C21.6326502,38.3367891 32.2644606,45.9931236 32.2644606,45.9931236 C32.2644606,45.9931236 18.7775981,45.9866081 16.8187211,45.9931236 C11.5419,46.0106752 6.76500996,45.9824578 5.2466035,45.9931236 C4.5630731,45.997925 4.02376132,45.878873 3.66733691,45.597439 Z" id="Rectangle-293-Copy" fill="#EDC79E"></path>
                                    </g>
                                </g>
                            </g>
                            <ellipse id="Oval-82" fill="#9B9B9B" cx="39.2777778" cy="7.46987952" rx="2.80555556" ry="2.80120482"></ellipse>
                        </g>
                        <g id="Group-99" transform="translate(55.175926, 109.246988)">
                            <ellipse id="Oval-83" stroke="#4C4F58" stroke-width="3" fill="#F5F5F5" cx="22.912037" cy="22.876506" rx="22.912037" ry="22.876506"></ellipse>
                            <g id="noun_162332_cc" transform="translate(11.222222, 12.138554)" fill="#4C4F58">
                                <path d="M8.41666667,22.2762478 C8.00102881,22.2762478 7.61136831,22.116179 7.32561728,21.8227194 L0.519547325,14.6196213 C-0.129886831,14.0060241 -0.155864198,12.9655766 0.467592593,12.2986231 C1.06507202,11.6316695 2.0781893,11.6049914 2.72762346,12.2452668 L7.71527778,15.9001721 C8.00102881,16.1669535 8.44264403,16.1135972 8.67644033,15.7934596 L20.496142,0.800344234 C21.0156893,0.0800344234 22.0288066,-0.0800344234 22.7301955,0.48020654 C23.4315844,1.01376936 23.5874486,2.05421687 23.0419239,2.77452668 L9.68955761,21.6092943 C9.40380658,21.9827883 8.98816872,22.2228916 8.5465535,22.2495697 C8.49459877,22.2762478 8.4686214,22.2762478 8.41666667,22.2762478 L8.41666667,22.2762478 Z" id="Shape"></path>
                            </g>
                        </g>
                    </g>
                </g>
            </g>
        </g>
    </g>
</svg>