<?xml version="1.0" encoding="UTF-8" standalone="no"?>
<svg width="146px" height="137px" viewBox="0 0 146 137" version="1.1" xmlns="http://www.w3.org/2000/svg" xmlns:xlink="http://www.w3.org/1999/xlink">
    <!-- Generator: Sketch 3.8.3 (29802) - http://www.bohemiancoding.com/sketch -->
    <title>Cloths Delivery</title>
    <desc>Created with Sketch.</desc>
    <defs>
        <rect id="path-1" x="113.680478" y="11.2763819" width="4.08432854" height="2.3919598"></rect>
        <mask id="mask-2" maskContentUnits="userSpaceOnUse" maskUnits="objectBoundingBox" x="0" y="0" width="4.08432854" height="2.3919598" fill="white">
            <use xlink:href="#path-1"></use>
        </mask>
        <rect id="path-3" x="5.44577139" y="13.6683417" width="7.14757495" height="4.10050251"></rect>
        <mask id="mask-4" maskContentUnits="userSpaceOnUse" maskUnits="objectBoundingBox" x="0" y="0" width="7.14757495" height="4.10050251" fill="white">
            <use xlink:href="#path-3"></use>
        </mask>
        <rect id="path-5" x="112.319035" y="13.6683417" width="7.14757495" height="4.10050251"></rect>
        <mask id="mask-6" maskContentUnits="userSpaceOnUse" maskUnits="objectBoundingBox" x="0" y="0" width="7.14757495" height="4.10050251" fill="white">
            <use xlink:href="#path-5"></use>
        </mask>
        <rect id="path-7" x="6.80721423" y="17.7688442" width="4.25052029" height="100.053529"></rect>
        <mask id="mask-8" maskContentUnits="userSpaceOnUse" maskUnits="objectBoundingBox" x="0" y="0" width="4.25052029" height="100.053529" fill="white">
            <use xlink:href="#path-7"></use>
        </mask>
        <rect id="path-9" x="113.680478" y="17.7688442" width="4.25052029" height="100.053529"></rect>
        <mask id="mask-10" maskContentUnits="userSpaceOnUse" maskUnits="objectBoundingBox" x="0" y="0" width="4.25052029" height="100.053529" fill="white">
            <use xlink:href="#path-9"></use>
        </mask>
        <rect id="path-11" x="60.2975259" y="-37.6418322" width="4.25052029" height="82.9681022"></rect>
        <mask id="mask-12" maskContentUnits="userSpaceOnUse" maskUnits="objectBoundingBox" x="0" y="0" width="4.25052029" height="82.9681022" fill="white">
            <use xlink:href="#path-11"></use>
        </mask>
        <rect id="path-13" x="0" y="105.58794" width="124.912381" height="7.1758794" rx="2"></rect>
        <mask id="mask-14" maskContentUnits="userSpaceOnUse" maskUnits="objectBoundingBox" x="0" y="0" width="124.912381" height="7.1758794" fill="white">
            <use xlink:href="#path-13"></use>
        </mask>
        <rect id="path-15" x="17.1882159" y="1.53768844" width="7.14757495" height="4.10050251"></rect>
        <mask id="mask-16" maskContentUnits="userSpaceOnUse" maskUnits="objectBoundingBox" x="0" y="0" width="7.14757495" height="4.10050251" fill="white">
            <use xlink:href="#path-15"></use>
        </mask>
        <rect id="path-17" x="100.57659" y="1.53768844" width="7.14757495" height="4.10050251"></rect>
        <mask id="mask-18" maskContentUnits="userSpaceOnUse" maskUnits="objectBoundingBox" x="0" y="0" width="7.14757495" height="4.10050251" fill="white">
            <use xlink:href="#path-17"></use>
        </mask>
        <rect id="path-19" x="6.12649281" y="116.864322" width="6.46685352" height="3.75879397"></rect>
        <mask id="mask-20" maskContentUnits="userSpaceOnUse" maskUnits="objectBoundingBox" x="0" y="0" width="6.46685352" height="3.75879397" fill="white">
            <use xlink:href="#path-19"></use>
        </mask>
        <rect id="path-21" x="112.659396" y="116.864322" width="6.46685352" height="3.75879397"></rect>
        <mask id="mask-22" maskContentUnits="userSpaceOnUse" maskUnits="objectBoundingBox" x="0" y="0" width="6.46685352" height="3.75879397" fill="white">
            <use xlink:href="#path-21"></use>
        </mask>
        <rect id="path-23" x="15.4864124" y="2.56281407" width="4.08432854" height="2.3919598"></rect>
        <mask id="mask-24" maskContentUnits="userSpaceOnUse" maskUnits="objectBoundingBox" x="0" y="0" width="4.08432854" height="2.3919598" fill="white">
            <use xlink:href="#path-23"></use>
        </mask>
        <rect id="path-25" x="6.80721423" y="11.2763819" width="4.08432854" height="2.3919598"></rect>
        <mask id="mask-26" maskContentUnits="userSpaceOnUse" maskUnits="objectBoundingBox" x="0" y="0" width="4.08432854" height="2.3919598" fill="white">
            <use xlink:href="#path-25"></use>
        </mask>
        <rect id="path-27" x="105.00128" y="2.56281407" width="4.08432854" height="2.3919598"></rect>
        <mask id="mask-28" maskContentUnits="userSpaceOnUse" maskUnits="objectBoundingBox" x="0" y="0" width="4.08432854" height="2.3919598" fill="white">
            <use xlink:href="#path-27"></use>
        </mask>
        <polygon id="path-29" points="0.248489846 61.0126169 43.8248805 61.0126169 43.8248805 0.079907212 0.248489846 0.079907212 0.248489846 61.0126169"></polygon>
        <polygon id="path-31" points="33.4248384 29.289219 33.4248384 0.228782632 0.255108586 0.228782632 0.255108586 58.3496553 33.4248384 58.3496553"></polygon>
        <rect id="path-33" x="2.22222222" y="7.39814815" width="45.5555556" height="39.6018519" rx="2"></rect>
        <mask id="mask-34" maskContentUnits="userSpaceOnUse" maskUnits="objectBoundingBox" x="0" y="0" width="45.5555556" height="39.6018519" fill="white">
            <use xlink:href="#path-33"></use>
        </mask>
        <rect id="path-35" x="0" y="0" width="50" height="10.7925926" rx="1"></rect>
        <mask id="mask-36" maskContentUnits="userSpaceOnUse" maskUnits="objectBoundingBox" x="0" y="0" width="50" height="10.7925926" fill="white">
            <use xlink:href="#path-35"></use>
        </mask>
    </defs>
    <g id="Page-1" stroke="none" stroke-width="1" fill="none" fill-rule="evenodd">
        <g id="A4-Copy" transform="translate(-225.000000, -353.000000)">
            <g id="Cloths-Delivery" transform="translate(225.000000, 353.000000)">
                <g id="Group-155">
                    <g id="Group-119" transform="translate(6.045455, 0.000000)">
                        <ellipse id="Oval-84" stroke="#4C4F58" stroke-width="2" cx="13.4442481" cy="128.666699" rx="6.97739459" ry="7.00502513"></ellipse>
                        <ellipse id="Oval-84-Copy" stroke="#4C4F58" cx="13.4442481" cy="128.666699" rx="4.43137922" ry="4.44892752"></ellipse>
                        <use id="Rectangle-325" stroke="#4C4F58" mask="url(#mask-2)" stroke-width="4" fill="#D8D8D8" xlink:href="#path-1"></use>
                        <use id="Rectangle-323" stroke="#4C4F58" mask="url(#mask-4)" stroke-width="6" fill="#D8D8D8" xlink:href="#path-3"></use>
                        <use id="Rectangle-323" stroke="#4C4F58" mask="url(#mask-6)" stroke-width="6" fill="#D8D8D8" xlink:href="#path-5"></use>
                        <g id="Rectangle-321">
                            <use stroke="#7B92AA" mask="url(#mask-8)" stroke-width="6" fill="#D8D8D8" fill-rule="evenodd" xlink:href="#path-7"></use>
                            <use stroke="#4C4F58" stroke-width="2" xlink:href="#path-7"></use>
                        </g>
                        <g id="Rectangle-321-Copy">
                            <use stroke="#7B92A9" mask="url(#mask-10)" stroke-width="6" fill="#D8D8D8" fill-rule="evenodd" xlink:href="#path-9"></use>
                            <use stroke="#4C4F58" stroke-width="2" xlink:href="#path-9"></use>
                        </g>
                        <use id="Rectangle-321-Copy" stroke="#4C4F58" mask="url(#mask-12)" stroke-width="6" fill="#D8D8D8" transform="translate(62.422786, 3.842219) rotate(-270.000000) translate(-62.422786, -3.842219) " xlink:href="#path-11"></use>
                        <use id="Rectangle-320" stroke="#4C4F58" mask="url(#mask-14)" stroke-width="6" fill="#FC7A7A" xlink:href="#path-13"></use>
                        <use id="Rectangle-323-Copy" stroke="#4C4F58" mask="url(#mask-16)" stroke-width="6" fill="#D8D8D8" transform="translate(20.762003, 3.587940) rotate(-270.000000) translate(-20.762003, -3.587940) " xlink:href="#path-15"></use>
                        <use id="Rectangle-323-Copy" stroke="#4C4F58" mask="url(#mask-18)" stroke-width="6" fill="#D8D8D8" transform="translate(104.150378, 3.587940) rotate(-270.000000) translate(-104.150378, -3.587940) " xlink:href="#path-17"></use>
                        <use id="Rectangle-332" stroke="#4C4F58" mask="url(#mask-20)" stroke-width="6" fill="#D8D8D8" xlink:href="#path-19"></use>
                        <path d="M7.09871457,119.943703 L15.8679886,119.943703 L15.8679886,126.975069 C15.8679886,126.975069 15.4209328,130.286727 12.1469553,128.457385 L7.09871457,119.943703 Z" id="Path-892" stroke="#4C4F58" stroke-width="2" fill="#FC7A7A"></path>
                        <ellipse id="Oval-84" stroke="#4C4F58" stroke-width="2" cx="119.977151" cy="128.666699" rx="6.97739459" ry="7.00502513"></ellipse>
                        <ellipse id="Oval-84-Copy" stroke="#4C4F58" cx="119.977151" cy="128.666699" rx="4.43137922" ry="4.44892752"></ellipse>
                        <use id="Rectangle-332" stroke="#4C4F58" mask="url(#mask-22)" stroke-width="6" fill="#D8D8D8" xlink:href="#path-21"></use>
                        <path d="M113.631617,119.943703 L122.400891,119.943703 L122.400891,126.975069 C122.400891,126.975069 121.953836,130.286727 118.679858,128.457385 L113.631617,119.943703 Z" id="Path-892" stroke="#4C4F58" stroke-width="2" fill="#FC7A7A"></path>
                        <path d="M10.3823313,11.8089667 C10.3823313,11.8089667 9.8531767,5.34853957 16.5593463,5.27112123 L16.5593463,2.23712311 C16.5593463,2.23712311 7.33703354,1.68918813 7.33703354,11.192957 L7.71860981,11.8089667 C7.71860981,11.8089667 9.19372795,11.5309948 10.3823313,11.8089667 Z" id="Path-894" stroke="#4C4F58" stroke-width="3" fill="#7B92A9"></path>
                        <use id="Rectangle-325-Copy" stroke="#4C4F58" mask="url(#mask-24)" stroke-width="4" fill="#D8D8D8" transform="translate(17.528577, 3.758794) rotate(-270.000000) translate(-17.528577, -3.758794) " xlink:href="#path-23"></use>
                        <use id="Rectangle-325" stroke="#4C4F58" mask="url(#mask-26)" stroke-width="4" fill="#D8D8D8" xlink:href="#path-25"></use>
                        <path d="M107.11258,2.15903737 L124.003408,2.15903737 L124.003408,5.21572707 C124.003408,5.21572707 117.734559,4.63709171 117.327722,11.202968 L114.087647,11.202968 C114.087647,11.202968 113.637933,5.40827183 107.11258,5.21572707 L107.11258,2.60486024 L107.11258,2.15903737 Z" id="Path-895" stroke="#4C4F58" stroke-width="3" fill="#7B92A9"></path>
                        <use id="Rectangle-325-Copy" stroke="#4C4F58" mask="url(#mask-28)" stroke-width="4" fill="#D8D8D8" transform="translate(107.043444, 3.758794) rotate(-270.000000) translate(-107.043444, -3.758794) " xlink:href="#path-27"></use>
                    </g>
                    <g id="noun_121405_cc" transform="translate(12.954545, 0.000000)" stroke="#979797" fill="#6C6F77">
                        <path d="M20.1834634,11.7518565 L11.6104644,9.06820926 L11.6104642,0.667787452 L10.813084,0.667787455 L10.813084,1.60102508 L10.813084,5.10101513 L10.813084,9.06130282 L9.88146443,9.35285346 C7.80149012,10.0316583 3.30277075,11.4501928 2.40922628,11.7101711 C0.86669664,12.1588434 0.182565217,12.825562 0.182565217,14.0480028 C0.182565217,15.3237218 1.2096166,16.3624018 2.47219664,16.3624018 L9.88122036,16.3624018 L19.9279209,16.3624018 L20.0650889,16.3624018 C20.0975504,16.3624018 20.1290356,16.3574686 20.1590563,16.3503155 C21.3135128,16.2324127 22.2175524,15.2452843 22.2175524,14.0480028 C22.2180405,12.9076994 21.6222628,12.2503538 20.2896344,11.8031615 C20.2576611,11.7812089 20.2227589,11.7636961 20.1834634,11.7518565 Z M19.9279209,15.5560744 L18.1940395,15.5560744 L9.88195257,15.5560744 L4.20705435,15.5560744 L2.47292885,15.5560744 C1.64992095,15.5560744 0.980433794,14.8794894 0.980433794,14.0480028 C0.980433794,13.384984 1.40609387,12.8203822 1.99552569,12.6191086 L1.99552569,12.6186153 L2.00455632,12.6156554 C2.04287549,12.6030758 2.08192688,12.5914828 2.1214664,12.5818632 L11.1760178,9.80941881 C11.1845603,9.8064589 11.1928587,9.80275902 11.200913,9.7993058 C11.2089674,9.80275902 11.2172658,9.8064589 11.2255642,9.80941881 L13.9235267,10.635479 L19.9481789,12.5211851 C19.9872302,12.533518 20.0272579,12.5389445 20.0660652,12.5389445 C20.0860791,12.5389445 20.1058488,12.5374646 20.1253745,12.534258 L20.2801156,12.5813698 C20.3196551,12.5907429 20.3587065,12.6025825 20.3970257,12.6151621 L20.4055682,12.6183686 L20.4055682,12.618862 C20.9952441,12.8198888 21.4209042,13.3844907 21.4209042,14.0472628 C21.4211482,14.8794894 20.7511729,15.5560744 19.9279209,15.5560744 L19.9279209,15.5560744 Z" id="Shape"></path>
                    </g>
                    <g id="Group-127" transform="translate(0.000000, 10.394904)">
                        <path d="M18.1016257,0.100041313 C18.1016257,0.100041313 18.3507407,31.529687 24.6958273,34.4994669 C31.0412265,31.529687 31.2903415,0.100041313 31.2903415,0.100041313 C29.4740214,1.24233693 19.9176333,1.24233693 18.1016257,0.100041313" id="Fill-11" fill="#2D2E2C"></path>
                        <path d="M5.56210919,5.80208154 C5.56210919,5.80208154 -1.21838166,33.4732569 0.546677661,54.5077294 L7.419688,54.5077294 C7.419688,54.5077294 8.53461037,25.8078273 10.856662,22.3491663 C13.1787137,18.8898762 5.56210919,5.80208154 5.56210919,5.80208154" id="Fill-12" fill="#696A63"></path>
                        <path d="M1.79881643,50.6029723 C1.79881643,50.8493004 1.60064969,51.0490684 1.35559806,51.0490684 C1.11085901,51.0490684 0.912379698,50.8493004 0.912379698,50.6029723 C0.912379698,50.3563295 1.11085901,50.1568761 1.35559806,50.1568761 C1.60064969,50.1568761 1.79881643,50.3563295 1.79881643,50.6029723" id="Fill-13" fill="#2D2E2C"></path>
                        <path d="M1.91946685,52.6513024 C1.91946685,52.8979451 1.7213001,53.0973986 1.47624848,53.0973986 C1.23150942,53.0973986 1.03303011,52.8979451 1.03303011,52.6513024 C1.03303011,52.4049743 1.23150942,52.2052062 1.47624848,52.2052062 C1.7213001,52.2052062 1.91946685,52.4049743 1.91946685,52.6513024" id="Fill-14" fill="#2D2E2C"></path>
                        <g id="Group-18" transform="translate(5.313619, 0.471893)">
                            <mask id="mask-30" fill="white">
                                <use xlink:href="#path-29"></use>
                            </mask>
                            <g id="Clip-16"></g>
                            <path d="M38.5162387,5.33018855 C38.5162387,5.33018855 45.2967295,33.001364 43.5316702,54.0358364 L36.6586599,54.0358364 C36.6586599,54.0358364 35.5434249,25.3359343 33.2216858,21.8772733 C30.8996342,18.4179832 38.5162387,5.33018855 38.5162387,5.33018855" id="Fill-15" fill="#696A63" mask="url(#mask-30)"></path>
                            <path d="M32.757213,32.1604507 C33.1288538,26.0837274 38.5162387,5.33018855 38.5162387,5.33018855 L25.9457781,0.079907212 C25.9457781,0.079907212 23.9334792,26.2718554 19.382208,31.6932766 C14.8312493,26.2718554 12.8189504,0.079907212 12.8189504,0.079907212 L0.248489846,5.33018855 C0.248489846,5.33018855 5.63556216,26.0837274 6.00720295,32.1604507 C6.37915631,38.2368593 1.54938889,60.2988001 1.54938889,60.2988001 C16.2243553,63.7574611 19.382208,53.8483376 19.382208,53.8483376 C19.382208,53.8483376 22.5400607,63.7574611 37.2153396,60.2988001 C37.2153396,60.2988001 32.3855722,38.2368593 32.757213,32.1604507" id="Fill-17" fill="#2D2E2C" mask="url(#mask-30)"></path>
                        </g>
                        <path d="M31.2903415,0.100041313 L35.1917884,2.25030034 C35.1917884,2.25030034 35.2843078,12.7206619 32.1264551,18.2361471 L30.4545404,17.6752236 L31.10499,20.1992219 C31.10499,20.1992219 26.9253595,29.4543017 24.6958273,32.1651696 C24.6958273,32.1651696 30.6433302,10.508113 31.2903415,0.100041313" id="Fill-19" fill="#464644"></path>
                        <path d="M47.5931508,50.6029723 C47.5931508,50.8493004 47.7913175,51.0490684 48.0363691,51.0490684 C48.2811082,51.0490684 48.4795875,50.8493004 48.4795875,50.6029723 C48.4795875,50.3563295 48.2811082,50.1568761 48.0363691,50.1568761 C47.7913175,50.1568761 47.5931508,50.3563295 47.5931508,50.6029723" id="Fill-20" fill="#2D2E2C"></path>
                        <path d="M47.4721878,52.6513024 C47.4721878,52.8979451 47.6706671,53.0973986 47.9154062,53.0973986 C48.1604578,53.0973986 48.3586245,52.8979451 48.3586245,52.6513024 C48.3586245,52.4049743 48.1604578,52.2052062 47.9154062,52.2052062 C47.6706671,52.2052062 47.4721878,52.4049743 47.4721878,52.6513024" id="Fill-21" fill="#2D2E2C"></path>
                        <path d="M27.0722654,35.933707 C27.0722654,36.4430368 26.662179,36.8557859 26.1564475,36.8557859 C25.650716,36.8557859 25.2406296,36.4430368 25.2406296,35.933707 C25.2406296,35.4250063 25.650716,35.0119427 26.1564475,35.0119427 C26.662179,35.0119427 27.0722654,35.4250063 27.0722654,35.933707" id="Fill-22" fill="#464644"></path>
                        <path d="M27.0722654,41.5231221 C27.0722654,42.0324519 26.662179,42.4448864 26.1564475,42.4448864 C25.650716,42.4448864 25.2406296,42.0324519 25.2406296,41.5231221 C25.2406296,41.0137922 25.650716,40.6016724 26.1564475,40.6016724 C26.662179,40.6016724 27.0722654,41.0137922 27.0722654,41.5231221" id="Fill-23" fill="#464644"></path>
                        <path d="M27.0722654,47.1128518 C27.0722654,47.6215524 26.662179,48.0346161 26.1564475,48.0346161 C25.650716,48.0346161 25.2406296,47.6215524 25.2406296,47.1128518 C25.2406296,46.6035219 25.650716,46.1904583 26.1564475,46.1904583 C26.662179,46.1904583 27.0722654,46.6035219 27.0722654,47.1128518" id="Fill-24" fill="#464644"></path>
                        <path d="M9.57076614,47.1128518 C9.57076614,47.1128518 14.2498768,48.0490874 16.0818252,48.0346161 C16.0818252,48.0346161 15.269154,50.2446482 14.1998663,50.1568761 C13.1305785,50.0681602 9.12879804,49.531146 9.12879804,49.531146 L9.57076614,47.1128518" id="Fill-25" fill="#464644"></path>
                        <path d="M39.8212011,47.1128518 C39.8212011,47.1128518 35.1420904,48.0490874 33.310142,48.0346161 C33.310142,48.0346161 34.1225006,50.2446482 35.1921009,50.1568761 C36.2613887,50.0681602 40.2631692,49.531146 40.2631692,49.531146 L39.8212011,47.1128518" id="Fill-26" fill="#464644"></path>
                        <path d="M18.1016257,0.100041313 L14.2001789,2.25030034 C14.2001789,2.25030034 14.1076594,12.7206619 17.2655121,18.2361471 L18.9374268,17.6752236 L18.2869773,20.1992219 C18.2869773,20.1992219 22.4666077,29.4543017 24.6958273,32.1651696 C24.6958273,32.1651696 18.748637,10.508113 18.1016257,0.100041313" id="Fill-27" fill="#464644"></path>
                        <path d="M23.2355197,3.90853229 C23.2355197,3.90853229 22.2415603,1.28166135 20.4330543,2.17070773 C18.6242358,3.05943951 20.516822,5.24021429 20.516822,5.24021429 C20.516822,5.24021429 18.6992516,6.23433551 19.6503895,7.8425468 C20.6012148,9.45107269 23.2508354,6.67854411 23.2508354,6.67854411 C23.2508354,6.67854411 23.7253104,4.29233858 23.2355197,3.90853229" id="Fill-28" fill="#DD544E"></path>
                        <path d="M26.1564475,3.90853229 C26.1564475,3.90853229 27.1504069,1.28166135 28.9589129,2.17070773 C30.7677314,3.05943951 28.8751452,5.24021429 28.8751452,5.24021429 C28.8751452,5.24021429 30.692403,6.23433551 29.7415777,7.8425468 C28.7907524,9.45107269 26.1408192,6.67854411 26.1408192,6.67854411 C26.1408192,6.67854411 25.6666568,4.29233858 26.1564475,3.90853229" id="Fill-29" fill="#DD544E"></path>
                        <path d="M26.1564475,6.57189629 C26.1564475,6.79809033 25.9745342,6.9814994 25.7491742,6.9814994 L23.6424804,6.9814994 C23.417433,6.9814994 23.2355197,6.79809033 23.2355197,6.57189629 L23.2355197,3.90853229 C23.2355197,3.68233825 23.417433,3.49892918 23.6424804,3.49892918 L25.7491742,3.49892918 C25.9745342,3.49892918 26.1564475,3.68233825 26.1564475,3.90853229 L26.1564475,6.57189629" id="Fill-30" fill="#A93636"></path>
                    </g>
                    <g id="Group-126" transform="translate(71.681818, 10.394904)">
                        <path d="M16.8399735,1.40546906 L8.55580556,1.00147549 C8.55580556,1.00147549 9.62925758,20.9953758 16.8399735,20.9953758 C24.0506894,20.9953758 25.1244533,1.00147549 25.1244533,1.00147549 L16.8399735,1.40546906" id="Fill-31" fill="#3CAB48"></path>
                        <g id="Group-35" transform="translate(0.000000, 0.157564)">
                            <mask id="mask-32" fill="white">
                                <use xlink:href="#path-31"></use>
                            </mask>
                            <g id="Clip-33"></g>
                        </g>
                        <path d="M0.466555556,53.6700105 C0.400439394,54.5649729 0.329645202,55.2585687 0.255108586,55.7117222 C0.255108586,55.7117222 5.55469318,58.5072191 16.8399735,58.5072191 C28.1255657,58.5072191 33.4248384,55.7117222 33.4248384,55.7117222 C33.3503018,55.2585687 33.2798194,54.5649729 33.2133914,53.6700105 C33.2133914,53.6700105 27.3580568,56.0882997 16.8399735,56.0882997 C6.32189015,56.0882997 0.466555556,53.6700105 0.466555556,53.6700105" id="Fill-36" fill="#84BF43"></path>
                        <path d="M0.864188131,20.6339245 C0.527993687,20.6339245 0.255108586,20.3581879 0.255108586,20.0178501 L0.255108586,4.81577987 C0.255108586,4.47607232 0.527993687,4.20033568 0.864188131,4.20033568 C1.20100631,4.20033568 1.47357955,4.47607232 1.47357955,4.81577987 L1.47357955,20.0178501 C1.47357955,20.3581879 1.20100631,20.6339245 0.864188131,20.6339245" id="Fill-38" fill="#84BF43"></path>
                    </g>
                    <g id="Group-128" transform="translate(39.727273, 0.000000)">
                        <g id="noun_121405_cc-copy" transform="translate(12.090909, 0.000000)" stroke="#979797" fill="#6C6F77">
                            <path d="M20.1834634,11.7518565 L11.6104644,9.06820926 L11.6104642,0.667787452 L10.813084,0.667787455 L10.813084,1.60102508 L10.813084,5.10101513 L10.813084,9.06130282 L9.88146443,9.35285346 C7.80149012,10.0316583 3.30277075,11.4501928 2.40922628,11.7101711 C0.86669664,12.1588434 0.182565217,12.825562 0.182565217,14.0480028 C0.182565217,15.3237218 1.2096166,16.3624018 2.47219664,16.3624018 L9.88122036,16.3624018 L19.9279209,16.3624018 L20.0650889,16.3624018 C20.0975504,16.3624018 20.1290356,16.3574686 20.1590563,16.3503155 C21.3135128,16.2324127 22.2175524,15.2452843 22.2175524,14.0480028 C22.2180405,12.9076994 21.6222628,12.2503538 20.2896344,11.8031615 C20.2576611,11.7812089 20.2227589,11.7636961 20.1834634,11.7518565 Z M19.9279209,15.5560744 L18.1940395,15.5560744 L9.88195257,15.5560744 L4.20705435,15.5560744 L2.47292885,15.5560744 C1.64992095,15.5560744 0.980433794,14.8794894 0.980433794,14.0480028 C0.980433794,13.384984 1.40609387,12.8203822 1.99552569,12.6191086 L1.99552569,12.6186153 L2.00455632,12.6156554 C2.04287549,12.6030758 2.08192688,12.5914828 2.1214664,12.5818632 L11.1760178,9.80941881 C11.1845603,9.8064589 11.1928587,9.80275902 11.200913,9.7993058 C11.2089674,9.80275902 11.2172658,9.8064589 11.2255642,9.80941881 L13.9235267,10.635479 L19.9481789,12.5211851 C19.9872302,12.533518 20.0272579,12.5389445 20.0660652,12.5389445 C20.0860791,12.5389445 20.1058488,12.5374646 20.1253745,12.534258 L20.2801156,12.5813698 C20.3196551,12.5907429 20.3587065,12.6025825 20.3970257,12.6151621 L20.4055682,12.6183686 L20.4055682,12.618862 C20.9952441,12.8198888 21.4209042,13.3844907 21.4209042,14.0472628 C21.4211482,14.8794894 20.7511729,15.5560744 19.9279209,15.5560744 L19.9279209,15.5560744 Z" id="Shape"></path>
                        </g>
                        <g id="Group-125" transform="translate(0.000000, 9.528662)">
                            <path d="M9.92649577,5.46138535 C9.92649577,5.46138535 4.90142759,10.0781847 1.10978277,18.0189172 L6.38131871,23.2816083 L9.77763901,19.9584873 L9.92649577,5.46138535" id="Fill-1" fill="#DD544E"></path>
                            <polyline id="Fill-2" fill="#A93636" points="1.10978277 18.0189172 0 19.311242 5.51827484 24.6667834 6.38131871 23.2816083 1.10978277 18.0189172"></polyline>
                            <polyline id="Fill-3" fill="#A93636" points="23.2975751 1.75143312 17.6212246 1.40466561 23.2975751 6.75425159 28.9739255 1.40466561 23.2975751 1.75143312"></polyline>
                            <path d="M36.6686543,5.46138535 C35.4975936,4.41512739 30.4410729,2.32234076 30.4410729,2.32234076 L23.2975751,5.00065287 L16.153806,2.32234076 C16.153806,2.32234076 11.0975566,4.41512739 9.92649577,5.46138535 C9.92649577,5.46138535 9.71066702,44.3337261 8.8785333,49.3197611 C8.8785333,49.3197611 13.4860433,51.7203344 23.2975751,51.7203344 C33.1091068,51.7203344 37.7166168,49.3197611 37.7166168,49.3197611 C36.8844831,44.3337261 36.6686543,5.46138535 36.6686543,5.46138535" id="Fill-4" fill="#A93636"></path>
                            <path d="M9.06236734,47.5653503 C9.00488531,48.3338694 8.94333615,48.9299522 8.8785333,49.3197611 C8.8785333,49.3197611 13.4860433,51.7203344 23.2975751,51.7203344 C33.1091068,51.7203344 37.7166168,49.3197611 37.7166168,49.3197611 C37.651814,48.9299522 37.5905359,48.3338694 37.5327828,47.5653503 C37.5327828,47.5653503 32.4418272,49.642707 23.2975751,49.642707 C14.1530518,49.642707 9.06236734,47.5653503 9.06236734,47.5653503" id="Fill-5" fill="#DD544E"></path>
                            <path d="M29.9437992,0.790175159 C29.9437992,0.790175159 29.348101,0.0579299363 23.2975751,0.0579299363 C17.2470492,0.0579299363 16.651351,0.790175159 16.651351,0.790175159 C16.651351,0.790175159 15.5055063,3.53589172 16.651351,2.52888535 C17.7971956,1.52269108 23.2975751,1.75143312 23.2975751,1.75143312 C23.2975751,1.75143312 28.7979545,1.52269108 29.9437992,2.52888535 C31.0899149,3.53589172 29.9437992,0.790175159 29.9437992,0.790175159" id="Fill-6" fill="#DD544E"></path>
                            <path d="M29.9437992,0.790175159 C29.9437992,0.790175159 31.136009,1.43092357 31.5025925,2.84966561 C31.5025925,2.84966561 28.1561623,5.54936306 27.1938805,7.42585987 C27.1938805,7.42585987 25.4059725,4.5889172 23.2975751,5.00065287 L29.9437992,0.790175159" id="Fill-7" fill="#DD544E"></path>
                            <path d="M36.6686543,5.46138535 C36.6686543,5.46138535 41.6934514,10.0781847 45.4853673,18.0189172 L40.2138314,23.2816083 L36.81724,19.9584873 L36.6686543,5.46138535" id="Fill-8" fill="#DD544E"></path>
                            <polyline id="Fill-9" fill="#A93636" points="45.4853673 18.0189172 46.5951501 19.311242 41.0771464 24.6667834 40.2138314 23.2816083 45.4853673 18.0189172"></polyline>
                            <path d="M16.651351,0.790175159 C16.651351,0.790175159 15.4591411,1.43092357 15.0925576,2.84966561 C15.0925576,2.84966561 18.4387167,5.54936306 19.4012696,7.42585987 C19.4012696,7.42585987 21.1891776,4.5889172 23.2975751,5.00065287 L16.651351,0.790175159" id="Fill-10" fill="#DD544E"></path>
                        </g>
                    </g>
                    <g id="noun_121405_cc-copy-2" transform="translate(77.727273, 0.000000)" stroke="#979797" fill="#6C6F77">
                        <path d="M20.1834634,12.6180985 L11.6104644,9.9344513 L11.6104642,0.667787452 L10.813084,0.667787455 L10.813084,1.60102508 L10.813084,5.96725717 L10.813084,9.92754486 L9.88146443,10.2190955 C7.80149012,10.8979004 3.30277075,12.3164348 2.40922628,12.5764132 C0.86669664,13.0250854 0.182565217,13.691804 0.182565217,14.9142448 C0.182565217,16.1899639 1.2096166,17.2286439 2.47219664,17.2286439 L9.88122036,17.2286439 L19.9279209,17.2286439 L20.0650889,17.2286439 C20.0975504,17.2286439 20.1290356,17.2237107 20.1590563,17.2165576 C21.3135128,17.0986547 22.2175524,16.1115264 22.2175524,14.9142448 C22.2180405,13.7739414 21.6222628,13.1165958 20.2896344,12.6694035 C20.2576611,12.6474509 20.2227589,12.6299381 20.1834634,12.6180985 Z M19.9279209,16.4223164 L18.1940395,16.4223164 L9.88195257,16.4223164 L4.20705435,16.4223164 L2.47292885,16.4223164 C1.64992095,16.4223164 0.980433794,15.7457314 0.980433794,14.9142448 C0.980433794,14.2512261 1.40609387,13.6866242 1.99552569,13.4853507 L1.99552569,13.4848573 L2.00455632,13.4818974 C2.04287549,13.4693178 2.08192688,13.4577249 2.1214664,13.4481052 L11.1760178,10.6756608 C11.1845603,10.6727009 11.1928587,10.6690011 11.200913,10.6655478 C11.2089674,10.6690011 11.2172658,10.6727009 11.2255642,10.6756608 L13.9235267,11.501721 L19.9481789,13.3874271 C19.9872302,13.3997601 20.0272579,13.4051866 20.0660652,13.4051866 C20.0860791,13.4051866 20.1058488,13.4037066 20.1253745,13.4005001 L20.2801156,13.4476119 C20.3196551,13.4569849 20.3587065,13.4688245 20.3970257,13.4814041 L20.4055682,13.4846107 L20.4055682,13.485104 C20.9952441,13.6861309 21.4209042,14.2507328 21.4209042,14.9135048 C21.4211482,15.7457314 20.7511729,16.4223164 19.9279209,16.4223164 L19.9279209,16.4223164 Z" id="Shape"></path>
                    </g>
                    <path d="M97.3471237,11.2611465 C97.3471237,11.2611465 96.5499874,28.0801364 89.1303194,28.0801364 C81.7109634,28.0801364 80.913827,11.2611465 80.913827,11.2611465 C80.913827,11.2611465 75.0977879,13.6973979 73.750827,14.9153661 C73.750827,14.9153661 73.5025795,60.1673732 72.5454545,65.9713932 C72.5454545,65.9713932 77.8450391,68.7668901 89.1303194,68.7668901 C100.415912,68.7668901 105.715184,65.9713932 105.715184,65.9713932 C104.758059,60.1673732 104.509812,14.9153661 104.509812,14.9153661 C103.162851,13.6973979 97.3471237,11.2611465 97.3471237,11.2611465 Z" id="Fill-32" stroke="#4C4F58" stroke-width="3" fill="#D5DC34"></path>
                    <path d="M80.3189032,11.9059441 C80.3026861,11.5662366 80.5618489,11.2778948 80.8980434,11.2618233 C81.226753,11.246067 81.5199096,11.5073077 81.535503,11.8470153 C81.5436116,12.009306 82.3884638,28.0798678 89.1438515,28.0798678 C95.899551,28.0798678 96.7444032,12.009306 96.7522,11.8470153 C96.7677934,11.5073077 97.0590787,11.2463821 97.3899714,11.2618233 C97.725854,11.2778948 97.9853287,11.5662366 97.9691116,11.9059441 C97.9354298,12.616872 97.0531532,29.3110713 89.1438515,29.3110713 C81.2345497,29.3110713 80.3525851,12.616872 80.3189032,11.9059441 Z" id="Fill-34" fill="#84BF43"></path>
                </g>
                <g id="Group-159" transform="translate(96.000000, 90.000000)">
                    <g id="Group-225-Copy">
                        <use id="Rectangle-817" stroke="#4C4F58" mask="url(#mask-34)" stroke-width="6" fill="#B07474" xlink:href="#path-33"></use>
                        <path d="M5.15722656,10.734375 L24.1225586,10.734375 C24.1225586,10.734375 20.2823893,18.5994281 18.7090386,27.1858145 C17.1356879,35.772201 17.359375,44.1005859 17.359375,44.1005859 L5.15722656,44.1005868 L5.15722656,10.734375 Z" id="Path-10661" fill="#E4BDBD"></path>
                        <use id="Rectangle-818" stroke="#4C4F58" mask="url(#mask-36)" stroke-width="4" fill="#EDBFBF" xlink:href="#path-35"></use>
                    </g>
                    <g id="noun_162332_cc" transform="translate(15.000000, 17.000000)" fill="#FFFFFF">
                        <path d="M7.01388889,17.4335853 C6.66752401,17.4335853 6.34280693,17.308314 6.10468107,17.07865 L0.432956104,11.4414428 C-0.108239026,10.9612362 -0.129886831,10.146973 0.389660494,9.62500935 C0.887560014,9.10304572 1.73182442,9.08216718 2.27301955,9.58325226 L6.42939815,12.443613 C6.66752401,12.6523984 7.03553669,12.6106413 7.23036694,12.3600988 L17.0801183,0.626356357 C17.5130744,0.0626356357 18.3573388,-0.0626356357 18.9418296,0.375813814 C19.5263203,0.793384719 19.6562071,1.60764798 19.2016032,2.1713687 L8.07463134,16.9116216 C7.83650549,17.2039213 7.4901406,17.3918282 7.12212791,17.4127067 C7.0788323,17.4335853 7.0571845,17.4335853 7.01388889,17.4335853 L7.01388889,17.4335853 Z" id="Shape"></path>
                    </g>
                </g>
            </g>
        </g>
    </g>
</svg>