<?xml version="1.0" encoding="UTF-8" standalone="no"?>
<svg width="85px" height="71px" viewBox="0 0 85 71" version="1.1" xmlns="http://www.w3.org/2000/svg" xmlns:xlink="http://www.w3.org/1999/xlink">
    <!-- Generator: Sketch 39.1 (31720) - http://www.bohemiancoding.com/sketch -->
    <title>Group 24</title>
    <desc>Created with Sketch.</desc>
    <defs>
        <rect id="path-1" x="4.55938697" y="0" width="76.2068966" height="23.2242991" rx="11.6121495"></rect>
        <mask id="mask-2" maskContentUnits="userSpaceOnUse" maskUnits="objectBoundingBox" x="0" y="0" width="76.2068966" height="23.2242991" fill="white">
            <use xlink:href="#path-1"></use>
        </mask>
        <path d="M9.33158896,41.899759 L6.51340996,26.0612131 L0,26.0612131 L0,18.317757 L84.9529304,18.317757 L84.9529304,26.0612131 L78.0311602,26.0612131 C78.0311602,26.0612131 76.1356641,38.8974082 75.8497403,40.9184515 C75.5638165,42.9394948 74.4522831,46.1946462 71.0022113,46.1946462 L14.1876571,46.1946462 C9.73036024,46.1946462 9.33158896,41.899759 9.33158896,41.899759 Z" id="path-3"></path>
        <mask id="mask-4" maskContentUnits="userSpaceOnUse" maskUnits="objectBoundingBox" x="0" y="0" width="84.9529304" height="27.8768892" fill="white">
            <use xlink:href="#path-3"></use>
        </mask>
        <path d="M12.3980713,42.1541637 L9.51062012,25.8813375 L21.845459,25.8813375 L21.845459,22.993398 L2.9934082,22.993398 L2.9934082,21.317757 L29.7749023,21.317757 C29.7749023,21.317757 32.7066893,28.3466173 37.2407227,34.014028 C41.774756,39.6814387 46.7402344,43.2734264 46.7402344,43.2734264 L14.3711548,43.2734264 C12.6054077,43.2734264 12.3980713,42.1541637 12.3980713,42.1541637 Z" id="path-5"></path>
    </defs>
    <g id="Page-1" stroke="none" stroke-width="1" fill="none" fill-rule="evenodd">
        <g id="A4-Copy" transform="translate(-8.000000, -39.000000)">
            <g id="Group-24" transform="translate(8.000000, 40.000000)">
                <g id="bakery">
                    <g id="Group-20">
                        <g id="Group-8">
                            <g id="Group-96-Copy-3">
                                <g id="Group-76">
                                    <path d="M33.1585997,4.25233645 C23.7207961,8.31489844 38.8997823,12.660707 29.3103448,18.0098204" id="Path-331" stroke="#4C4F58" stroke-width="2"></path>
                                    <path d="M45.9195402,0.0191661799 C35.5363962,4.26925425 52.23579,8.81566342 41.6858238,14.4116895" id="Path-331-Copy" stroke="#4C4F58" stroke-width="2"></path>
                                    <path d="M57.9095576,6.21495327 C48.4717539,10.2775153 63.6507401,14.6233238 54.0613027,19.9724372" id="Path-331-Copy-2" stroke="#4C4F58" stroke-width="2"></path>
                                    <g id="Group-34" transform="translate(0.000000, 23.551402)">
                                        <g id="Group-31">
                                            <use id="Rectangle-72" stroke="#4C4F58" mask="url(#mask-2)" stroke-width="4" fill="#E1C96F" xlink:href="#path-1"></use>
                                            <use id="Rectangle-71" stroke="#4C4F58" mask="url(#mask-4)" stroke-width="6" fill="#FFFFFF" xlink:href="#path-3"></use>
                                            <use id="Rectangle-71-Copy" fill="#E4E3E3" xlink:href="#path-5"></use>
                                            <path d="M65.7854406,8.98505361 L65.7854406,5.90688658 C65.7854406,2.9661911 65.020317,0.969657979 63.0808863,0.981359575 C61.1414556,0.99306117 60.3736186,3.35560356 60.2676952,5.86063676 C60.2221682,6.93732555 60.2743007,8.03817591 60.2743007,8.98505361 L65.7854406,8.98505361 Z" id="Combined-Shape-Copy" stroke="#4C4F58" stroke-width="2" fill="#A79E7D" transform="translate(63.017241, 4.983181) scale(1, -1) translate(-63.017241, -4.983181) "></path>
                                            <path d="M52.7586207,8.98505361 L52.7586207,5.90688658 C52.7586207,2.9661911 51.9934971,0.969657979 50.0540664,0.981359575 C48.1146357,0.99306117 47.3467987,3.35560356 47.2408753,5.86063676 C47.1953483,6.93732555 47.2474808,8.03817591 47.2474808,8.98505361 L52.7586207,8.98505361 Z" id="Combined-Shape-Copy-2" stroke="#4C4F58" stroke-width="2" fill="#A79E7D" transform="translate(49.990421, 4.983181) scale(1, -1) translate(-49.990421, -4.983181) "></path>
                                            <path d="M39.7318008,8.98505361 L39.7318008,5.90688658 C39.7318008,2.9661911 38.9666772,0.969657979 37.0272465,0.981359575 C35.0878158,0.99306117 34.3199788,3.35560356 34.2140553,5.86063676 C34.1685283,6.93732555 34.2206609,8.03817591 34.2206609,8.98505361 L39.7318008,8.98505361 Z" id="Combined-Shape-Copy-3" stroke="#4C4F58" stroke-width="2" fill="#A79E7D" transform="translate(36.963602, 4.983181) scale(1, -1) translate(-36.963602, -4.983181) "></path>
                                            <path d="M66.5143433,24.5284322 L82.0071411,24.5284321" id="Line-Copy-6" stroke="#4C4F58" stroke-width="3" stroke-linecap="square"></path>
                                            <path d="M2.99450684,24.4060491 L20.4204712,24.4060491" id="Line-Copy-9" stroke="#4C4F58" stroke-width="3" stroke-linecap="square"></path>
                                            <path d="M6.64648438,9.40013627 C5.50997702,15.1154911 8.5640073,18.3250234 8.69628898,18.3250234 C10.3368859,18.3250234 28.6488266,18.3250242 28.6488266,18.3250242 C28.6488266,18.3250242 24.839621,10.4269362 32.5863029,1.95506785 C32.5863029,1.95506785 28.9271551,1.95870442 24.7983122,1.95995212 C21.4514444,1.9609635 17.7959477,1.9604052 15.5306398,1.95506782 C14.8882117,1.95355417 13.7762452,1.95506782 13.7762452,1.95506782 C13.7762452,1.95506782 7.78299173,3.68478142 6.64648438,9.40013627 Z" id="Path-368" fill="#C9AF54"></path>
                                            <path d="M26.7049808,8.98505361 L26.7049808,5.90688658 C26.7049808,2.9661911 25.9398572,0.969657979 24.0004265,0.981359575 C22.0609959,0.99306117 21.2931589,3.35560356 21.1872354,5.86063676 C21.1417084,6.93732555 21.193841,8.03817591 21.193841,8.98505361 L26.7049808,8.98505361 Z" id="Combined-Shape" stroke="#4C4F58" stroke-width="2" fill="#A79E7D" opacity="0.747026586" transform="translate(23.936782, 4.983181) scale(1, -1) translate(-23.936782, -4.983181) "></path>
                                        </g>
                                    </g>
                                </g>
                            </g>
                        </g>
                    </g>
                </g>
            </g>
        </g>
    </g>
</svg>