<?xml version="1.0" encoding="UTF-8" standalone="no"?>
<svg width="83px" height="81px" viewBox="0 0 83 81" version="1.1" xmlns="http://www.w3.org/2000/svg" xmlns:xlink="http://www.w3.org/1999/xlink">
    <!-- Generator: Sketch 39.1 (31720) - http://www.bohemiancoding.com/sketch -->
    <title>Group 29</title>
    <desc>Created with Sketch.</desc>
    <defs></defs>
    <g id="Page-1" stroke="none" stroke-width="1" fill="none" fill-rule="evenodd">
        <g id="A4-Copy" transform="translate(-9.000000, -35.000000)">
            <g id="Group-29" transform="translate(9.000000, 35.000000)">
                <g id="cake">
                    <g id="Group-13">
                        <g id="Group-97-Copy-3">
                            <g id="Group-89">
                                <g id="Group-68-Copy">
                                    <path d="M68.0965319,67.5295764 L68.0965319,51.9203187 C68.5023373,51.7812479 71.7805868,49.6841538 71.7805868,48.5830523 L71.7805868,43.8057969 C71.7805868,38.3082646 67.3219461,33.8365662 61.8404671,33.8365662 L46.6196587,33.8365662 L46.6196587,22.6942062 C46.6196587,21.5931046 45.729521,20.70036 44.6316347,20.70036 L38.2704551,20.70036 C37.1725689,20.70036 36.2824311,21.5931046 36.2824311,22.6942062 L36.2824311,33.8365662 L21.0616228,33.8365662 C15.5798952,33.8365662 11.121503,38.3082646 11.121503,43.8057969 L11.121503,48.5830523 C11.121503,49.6841538 14.6480088,51.7812479 15.0538142,51.9203187 L15.0538144,67.5295754 L1.98802395,67.5295754 C0.890137725,67.5295754 0.0604269976,67.6746288 0.0604269976,68.7757303 C0.0604269976,69.8768318 0.890137725,70.2631173 1.98802395,70.2631173 L7.87783612,70.2631173 L9.77113772,79.3962 C9.95652096,80.3288215 10.7731018,80.9997508 11.7213892,80.9997508 L71.3453552,80.9997511 C72.2928971,80.9997511 72.873769,80.3288204 73.0591522,79.3961989 L75.0627076,70.2631173 L80.9138201,70.2631173 C82.0117063,70.2631173 82.9206441,69.8768318 82.9206441,68.7757303 C82.9206441,67.6756257 82.0117063,67.5295764 80.9138201,67.5295764 L68.0965319,67.5295764 Z M35.2483063,50.3972579 C36.6012124,51.679855 38.2847139,53.2750178 41.4980599,53.2750178 C41.9173832,53.2750178 42.3085101,53.2455964 42.6781665,53.1954927 C42.850966,53.171606 43.0219547,53.145389 43.1854416,53.112472 C45.343883,52.6743557 46.6543653,51.4339972 47.7478135,50.3972579 C47.9164741,50.2382077 48.0763395,50.0878965 48.2318073,49.9457418 C49.1229663,49.1298084 49.8819388,48.6142062 51.3318506,48.6142062 C53.0355293,48.6142062 53.7844133,49.3243973 54.9171811,50.3972579 C56.2700872,51.679855 57.9535888,53.2750178 61.1669348,53.2750178 C61.6064352,53.2750178 62.0156699,53.2444312 62.4008472,53.1896667 C63.6032005,53.0189644 64.5579952,52.6059 65.3562874,52.0972889 L65.3562874,67.5557446 L17.6437126,67.5557446 L17.6437126,52.0984541 C18.6965477,52.7699023 20.0212575,53.2750178 21.8302197,53.2750178 C22.2707549,53.2750178 22.6820591,53.2444312 23.0669777,53.1885015 C23.2206347,53.1669452 23.3711875,53.1418934 23.5165667,53.112472 C25.6760429,52.6743557 26.9865252,51.4339972 28.0799734,50.3972579 C28.2486339,50.2382077 28.4072059,50.0878965 28.5639671,49.9457418 C29.4551261,49.1298084 30.2140987,48.6142062 31.6640105,48.6142062 C33.3676892,48.6142062 34.1165731,49.3243973 35.2483063,50.3972579 Z M40.258479,33.8365662 L40.258479,24.6880523 L42.6436108,24.6880523 L42.6436108,33.9085938 L40.258479,33.9085938 L40.258479,33.8365662 Z M13.4191617,44.0508192 C13.4191617,42.6877213 14.062859,40.2161314 14.810196,39.1905649 C15.9443287,37.6297737 18.0094303,36.3799038 20.0848177,36.3799038 L62.6945343,36.3799038 C66.1346241,36.3799038 69.3323353,40.6173898 69.3323353,44.0508192 L69.3323353,47.171364 C68.72303,47.3107954 67.6991672,48.6939586 66.2483743,49.5112538 C64.7567226,50.3515666 61.5684616,51.0992862 60.7491203,51.0992862 C59.0371336,51.0992862 58.2848577,50.4680685 57.1465659,49.5112537 C55.7878422,48.3691987 54.4851851,46.6222175 51.2561693,46.6222175 C48.0274134,46.6222175 45.9456085,48.3691987 44.5868848,49.5112537 C44.2975679,49.7546085 44.0324257,49.9764297 43.7717026,50.1720475 C43.4974624,50.3777834 43.2263415,50.5542026 42.9328655,50.6961163 C42.4049207,50.9524431 41.8057513,51.0992862 40.9843305,51.0992862 C39.2723438,51.0992862 38.5208477,50.4680685 37.3825559,49.5112537 C36.0240921,48.3691987 34.3323811,46.9482456 31.1023255,46.9482456 C27.8733096,46.9482456 26.1818585,48.3691987 24.8231348,49.5112537 C24.5338179,49.7546085 24.2697155,49.9764297 24.0087324,50.1720475 C23.7337123,50.3777834 23.4625915,50.5542026 23.1691155,50.6961163 C22.6409107,50.9524431 22.0420013,51.0992862 21.2216202,51.0992862 C20.2874785,51.0992862 17.9931912,50.549213 16.2606866,49.5112538 C14.8180576,48.6469617 13.8735948,47.2753538 13.4191617,47.171364 L13.4191617,44.0508192 Z M70.5447814,77.5115169 L12.3573084,77.5115169 L11.0166347,70.7695754 L71.8852066,70.7695754 L70.5447814,77.5115169 Z" id="Fill-1" fill="#4C4F58"></path>
                                    <path d="M41.4515419,18.7065138 C45.4964251,18.7065138 48.7880958,15.4052031 48.7880958,11.3484738 C48.7880958,7.92528923 44.3374072,2.34401538 42.9736228,0.714295385 C42.5958982,0.26244 42.0387545,0.00249230769 41.4515419,0.00249230769 C40.8633353,0.00249230769 40.3059431,0.263436923 39.9284671,0.714295385 C38.5646826,2.34401538 34.1147395,7.92528923 34.1147395,11.3484738 C34.1147395,15.4052031 37.4054162,18.7065138 41.4515419,18.7065138 L41.4515419,18.7065138 Z M39.6208791,5.54196859 C40.1923122,4.67879835 40.8109042,3.79567468 41.4516019,2.92659231 C44.1311847,6.55405049 46.4338648,10.45827 46.4338648,12.0142674 C46.4338648,14.1389373 45.1027315,15.9532207 43.2347974,16.6748694 C42.6792067,16.8884449 42.0790362,17.0111215 41.4516019,17.0111215 C38.7042282,17.0111215 36.4689706,14.7696872 36.4689706,12.0142674 C36.4689706,10.83369 37.8030513,8.29036769 39.6208791,5.54196859 L39.6208791,5.54196859 Z" id="Fill-3" fill="#4C4F58"></path>
                                    <polygon id="Fill-9" fill="#FFFFFF" points="44.2791564 24.4246154 38.7257126 24.4246154 38.7257126 34.071591 44.2791564 34.071591"></polygon>
                                    <path d="M13.4359065,47.2783955 L13.4359065,42.8296019 C13.4359065,42.8296019 13.9846031,36.8372326 19.8200552,36.330009 C25.6555073,35.8227855 62.9188225,36.3599459 62.9188225,36.3599459 C62.9188225,36.3599459 70.1101206,36.7926923 69.4445742,47.1046155 C69.4445742,47.1046155 68.2262058,48.0959405 67.1516245,49.0680379 C66.6225524,49.5466518 65.2942159,50.3649885 63.6473015,50.8280403 C61.9492212,51.3054781 59.9124605,51.4052123 58.0639137,50.3654253 C58.0639137,50.3654253 55.2824126,47.204256 52.6891871,46.7885743 C52.3490799,46.7340568 51.592461,46.5928784 51.2925711,46.653128 C51.2925711,46.653128 49.1604893,46.6531281 47.2843034,47.5634194 C46.9471864,47.7269824 45.4334979,48.6315199 44.8228782,49.1977645 C43.9266732,50.0288402 42.8187838,51.0755903 41.5545075,51.2420125 C41.1414525,51.2963848 41.0704166,51.266204 40.3000751,51.2420122 C38.2307538,51.1770274 37.2181769,49.1235489 35.4856937,48.1475572 C35.4856937,48.1475572 31.6571589,45.394188 26.6436581,48.147557 C26.4839239,48.2352815 25.233169,49.2799894 25.0882397,49.4234825 C24.4637929,50.0417415 23.3928636,50.866133 22.0126573,51.020021 C22.0126573,51.020021 18.3497863,51.1600917 16.2710005,49.5276789 C14.1922147,47.895266 13.4359065,47.2783955 13.4359065,47.2783955 Z" id="Path-639" stroke="#766051" fill="#766051"></path>
                                    <path d="M13.4359065,47.2783955 L13.4359065,42.8296019 C13.4359065,42.8296019 13.9846031,36.8372326 19.8200552,36.330009 C25.6555073,35.8227855 62.9188225,36.3599459 62.9188225,36.3599459 C62.9188225,36.3599459 70.1101206,36.7926923 69.4445742,47.1046155 C69.4445742,47.1046155 68.2262058,48.0959405 67.1516245,49.0680379 C66.6225524,49.5466518 65.2942159,50.3649885 63.6473015,50.8280403 C61.9492212,51.3054781 59.9124605,51.4052123 58.0639137,50.3654253 C58.0639137,50.3654253 55.2824126,47.204256 52.6891871,46.7885743 C52.3490799,46.7340568 51.592461,46.5928784 51.2925711,46.653128 C51.2925711,46.653128 49.1604893,46.6531281 47.2843034,47.5634194 C46.9471864,47.7269824 45.4334979,48.6315199 44.8228782,49.1977645 C43.9266732,50.0288402 42.8187838,51.0755903 41.5545075,51.2420125 C41.1414525,51.2963848 41.0704166,51.266204 40.3000751,51.2420122 C38.2307538,51.1770274 37.2181769,49.1235489 35.4856937,48.1475572 C35.4856937,48.1475572 31.6571589,45.394188 26.6436581,48.147557 C26.4839239,48.2352815 25.233169,49.2799894 25.0882397,49.4234825 C24.4637929,50.0417415 23.3928636,50.866133 22.0126573,51.020021 C22.0126573,51.020021 18.3497863,51.1600917 16.2710005,49.5276789 C14.1922147,47.895266 13.4359065,47.2783955 13.4359065,47.2783955 Z" id="Path-639-Copy" stroke="#F7A2A0" fill="#F7A2A0"></path>
                                </g>
                            </g>
                            <path d="M30.4377446,41.2318115 C31.2901404,38.0130554 34.3391118,35.6015625 34.3391118,35.6015625 C34.3391118,35.6015625 32.1519775,35.6015625 32.1519775,35.6015625 L20.1975042,35.6015625 C20.1975042,35.6015625 15.9054209,36.1159923 13.8710938,39.2382812 C12.394899,41.5039476 12.878418,46.3376257 12.878418,47.6011963 C12.878418,47.6011963 15.8496094,50.0230713 16.538208,50.4074707 C16.538208,50.4074707 18.3632812,51.8999023 22.378418,51.5345459 C22.378418,51.5345459 23.7198486,51.3376465 24.7247314,50.4970703 C24.7247314,50.4970703 27.5046382,47.4191895 31.2125244,47.407959 C31.2125244,47.407959 29.5853489,44.4505677 30.4377446,41.2318115 Z" id="Path-744" fill="#F58886"></path>
                            <path d="M17.6524275,52.0729369 C17.6524275,52.0729369 20.0277708,53.6826175 23.4600828,53.0696413 C23.4600828,53.0696413 25.3954468,52.8146973 27.7316284,50.7371826 C27.7316284,50.7371826 29.4015881,48.4503651 31.8257452,48.5679138 C31.9809274,48.5754387 33.7407224,53.3247067 36.2285154,57.3874509 C38.7163084,61.450195 44.1147459,67.5397345 44.1147459,67.5397345 L17.6524275,67.5397345 C17.6524275,67.5397345 17.6524275,52.9447023 17.6524275,52.0729369 Z" id="Path-745" fill="#E4E3E3"></path>
                            <path d="M48.9196777,74.106842 C47.4359748,72.4094 46.4838867,70.704834 46.4838867,70.704834 L11.0100098,70.704834 L12.3345947,77.5088501 L52.5996094,77.5088501 C52.5996094,77.5088501 50.4033807,75.8042841 48.9196777,74.106842 Z" id="Path-746" fill="#E4E3E3"></path>
                        </g>
                    </g>
                </g>
            </g>
        </g>
    </g>
</svg>