<?xml version="1.0" encoding="UTF-8" standalone="no"?>
<svg width="80px" height="70px" viewBox="0 0 80 70" version="1.1" xmlns="http://www.w3.org/2000/svg" xmlns:xlink="http://www.w3.org/1999/xlink">
    <!-- Generator: Sketch 39.1 (31720) - http://www.bohemiancoding.com/sketch -->
    <title>cash</title>
    <desc>Created with Sketch.</desc>
    <defs>
        <path d="M8.8578571,27.8905735 L73.8687241,27.8905735 C73.8687241,27.8905735 78.2702238,27.8905735 78.2702238,30.6355016 L78.2702238,73.9102646 L8.64493573,73.9102646 L8.8578571,27.8905735 Z" id="path-1"></path>
        <mask id="mask-2" maskContentUnits="userSpaceOnUse" maskUnits="objectBoundingBox" x="0" y="0" width="69.6252881" height="46.0196911" fill="white">
            <use xlink:href="#path-1"></use>
        </mask>
        <rect id="path-3" x="7.1637195" y="2.67568234" width="20.8941819" height="37.7568509"></rect>
        <mask id="mask-4" maskContentUnits="userSpaceOnUse" maskUnits="objectBoundingBox" x="0" y="0" width="20.8941819" height="37.7568509" fill="white">
            <use xlink:href="#path-3"></use>
        </mask>
        <rect id="path-5" x="8.36579101" y="3.12466161" width="24.4002238" height="44.0924471"></rect>
        <mask id="mask-6" maskContentUnits="userSpaceOnUse" maskUnits="objectBoundingBox" x="0" y="0" width="24.4002238" height="44.0924471" fill="white">
            <use xlink:href="#path-5"></use>
        </mask>
        <path d="M8.57673436,73.4803209 C8.57673435,68.0070329 8.35900627,30.0625245 8.57673435,28.1531787 C8.79446243,26.2438328 11.9032149,31.8039702 15.4584196,31.8039704 C19.0136243,31.8039705 83.3595436,31.8039702 83.3595436,31.8039702 C83.3595436,31.8039702 87,31.8039702 87,35.1971271 C87,38.2318472 87,62.9210526 87,73.5041205 C87.0000011,78.7879283 87,78.7879277 83.3595436,78.7879277 C79.7190872,78.7879277 15.4584196,78.7879277 15.4584196,78.7879277 C15.4584196,78.7879277 8.57673436,78.953609 8.57673436,73.4803209 Z" id="path-7"></path>
        <mask id="mask-8" maskContentUnits="userSpaceOnUse" maskUnits="objectBoundingBox" x="0" y="0" width="78.5200337" height="51.0344787" fill="white">
            <use xlink:href="#path-7"></use>
        </mask>
        <path d="M11.5625001,73.4755859 C11.5625,68.0022979 11.4683838,33.5373535 11.4683838,33.5373535 C11.4683838,33.5373535 11.5926418,33.6021018 11.7734624,33.6955241 C12.0015857,33.8133856 12.3197358,33.9768855 12.59198,34.1135864 C13.0800171,34.3586426 14.0295829,34.8039703 15.4584196,34.8039704 C17.3347668,34.8039704 55.4902344,34.8039703 55.4902344,34.8039703 C55.4902344,34.8039703 44.8608944,41.008785 42.8442383,51.4511719 C40.8275822,61.8935588 49.5678711,75.7914429 49.5678711,75.7914429 L16.1962281,75.7914429 C16.1962281,75.7914429 11.397644,76.2127075 11.5625001,73.4755859 Z" id="path-9"></path>
    </defs>
    <g id="Page-1" stroke="none" stroke-width="1" fill="none" fill-rule="evenodd">
        <g id="A4-Copy" transform="translate(-14.000000, -45.000000)">
            <g id="cash" transform="translate(7.000000, 36.000000)">
                <g id="Group-15">
                    <g id="Group-3">
                        <g id="Group-83-Copy-3">
                            <g id="Group-82">
                                <g id="Group-17-Copy-6">
                                    <use id="Rectangle-204" stroke="#4C4F58" mask="url(#mask-2)" stroke-width="4" fill="#ED8B63" xlink:href="#path-1"></use>
                                    <g id="Group-17-Copy-2" transform="translate(28.273388, 28.544234) rotate(-170.000000) translate(-28.273388, -28.544234) translate(3.773388, 7.544234)">
                                        <g id="Group-9-Copy" transform="translate(24.131880, 21.019045) rotate(263.000000) translate(-24.131880, -21.019045) translate(6.131880, -0.980955)">
                                            <use id="Rectangle-36" stroke="#4C4F58" mask="url(#mask-4)" stroke-width="4" fill="#AFE079" transform="translate(17.610810, 21.554108) rotate(25.000000) translate(-17.610810, -21.554108) " xlink:href="#path-3"></use>
                                            <path d="M10.44197,3.65694902 L10.44197,32.7936742" id="Line" stroke="#7AA649" stroke-linecap="square" transform="translate(10.441970, 18.224553) rotate(25.000000) translate(-10.441970, -18.224553) "></path>
                                            <path d="M24.7796509,10.3160588 L24.7796509,39.4527839" id="Line-Copy" stroke="#7AA649" stroke-linecap="square" transform="translate(24.779651, 24.883663) rotate(25.000000) translate(-24.779651, -24.883663) "></path>
                                            <path d="M18.3804998,21.3857136 L17.8335486,21.3857136 C17.7972782,21.2094845 17.7290566,21.056329 17.6287854,20.9268825 L18.3739722,20.9268825 C18.4039112,20.9268825 18.4284513,20.9173011 18.4475927,20.8982361 C18.4667831,20.8791223 18.4763537,20.85468 18.4763537,20.8249092 L18.4763537,20.4998754 C18.4763537,20.4701047 18.4667831,20.4456623 18.4475927,20.4265485 C18.4284513,20.4074835 18.4039112,20.3979021 18.3739722,20.3979021 L15.7125419,20.3979021 C15.682652,20.3979021 15.6581118,20.4074835 15.6389214,20.4265485 C15.619731,20.4456623 15.6101603,20.4701047 15.6101603,20.4998754 L15.6101603,20.9236073 C15.6101603,20.9513248 15.6203199,20.9751805 15.6406392,20.9954188 C15.6607621,21.0154615 15.6847624,21.0255806 15.7125419,21.0255806 L16.176302,21.0255806 C16.6262705,21.0255806 16.9121144,21.1454946 17.0336864,21.385518 L15.7125419,21.385518 C15.682652,21.385518 15.6581118,21.3950994 15.6389214,21.41436 C15.619731,21.4334738 15.6101603,21.4577206 15.6101603,21.4874913 L15.6101603,21.8125252 C15.6101603,21.8422959 15.619731,21.8667382 15.6389214,21.8858521 C15.6581118,21.9049171 15.682652,21.9144985 15.7125419,21.9144985 L17.0785458,21.9144985 C17.0315759,22.088821 16.922274,22.2215428 16.7504928,22.3128104 C16.578908,22.404078 16.3523041,22.4499317 16.0708774,22.4499317 L15.7125419,22.4499317 C15.6847624,22.4499317 15.6607621,22.4598553 15.6406392,22.4800935 C15.6203199,22.5003318 15.6101603,22.5241875 15.6101603,22.551905 L15.6101603,22.956523 C15.6101603,22.9841917 15.619731,23.0075097 15.6389214,23.0266236 C16.0484477,23.459888 16.5794969,24.0663505 17.2321182,24.8460113 C17.2513086,24.8714313 17.2779101,24.8842391 17.31207,24.8842391 L17.9359302,24.8842391 C17.9805933,24.8842391 18.0116611,24.8651252 18.0284957,24.8267508 C18.0499929,24.7885719 18.045772,24.7524462 18.015882,24.7184714 C17.3931507,23.9580711 16.9036725,23.3886631 16.5474966,23.0105894 C16.9100039,22.9681576 17.2042896,22.8513233 17.4303536,22.6601845 C17.6563686,22.4689967 17.7940389,22.2203696 17.8431193,21.914694 L18.3804998,21.914694 C18.4104389,21.914694 18.434979,21.9051126 18.4541204,21.8858521 C18.4733108,21.8667382 18.4828814,21.8422959 18.4828814,21.8127207 L18.4828814,21.4876869 C18.4828814,21.4579162 18.4733108,21.4334738 18.4541204,21.41436 C18.434979,21.395295 18.4104389,21.3857136 18.3804998,21.3857136 Z" id="rupee-indian-copy" fill="#FFFFFF" transform="translate(17.046521, 22.641071) rotate(-65.000000) translate(-17.046521, -22.641071) "></path>
                                        </g>
                                    </g>
                                    <g id="Group-17-Copy-3" transform="translate(35.720531, 30.546205) rotate(-167.000000) translate(-35.720531, -30.546205) translate(7.720531, 6.546205)">
                                        <g id="Group-9-Copy" transform="translate(28.132158, 23.744125) rotate(263.000000) translate(-28.132158, -23.744125) translate(7.632158, -1.755875)">
                                            <use id="Rectangle-36" stroke="#4C4F58" mask="url(#mask-6)" stroke-width="4" fill="#AFE079" transform="translate(20.565903, 25.170885) rotate(25.000000) translate(-20.565903, -25.170885) " xlink:href="#path-5"></use>
                                            <path d="M12.1941316,4.27058475 L12.1941316,38.2964498" id="Line" stroke="#7AA649" stroke-linecap="square" transform="translate(12.194132, 21.282631) rotate(25.000000) translate(-12.194132, -21.282631) "></path>
                                            <path d="M28.9376742,12.0470925 L28.9376742,46.0729576" id="Line-Copy" stroke="#7AA649" stroke-linecap="square" transform="translate(28.937674, 29.059139) rotate(25.000000) translate(-28.937674, -29.059139) "></path>
                                            <path d="M21.4647461,24.9742344 L20.8260165,24.9742344 C20.7836599,24.7684342 20.7039907,24.5895792 20.5868941,24.4384116 L21.4571231,24.4384116 C21.4920858,24.4384116 21.5207439,24.4272224 21.5430971,24.4049583 C21.5655077,24.3826371 21.5766843,24.3540934 21.5766843,24.3193272 L21.5766843,23.9397527 C21.5766843,23.9049864 21.5655077,23.8764427 21.5430971,23.8541215 C21.5207439,23.8318574 21.4920858,23.8206682 21.4571231,23.8206682 L18.349105,23.8206682 C18.3141996,23.8206682 18.2855416,23.8318574 18.263131,23.8541215 C18.2407205,23.8764427 18.2295438,23.9049864 18.2295438,23.9397527 L18.2295438,24.4345867 C18.2295438,24.4669553 18.2414082,24.494814 18.2651371,24.5184482 C18.2886366,24.5418541 18.3166642,24.5536712 18.349105,24.5536712 L18.890684,24.5536712 C19.4161572,24.5536712 19.7499657,24.6937067 19.8919374,24.9740061 L18.349105,24.9740061 C18.3141996,24.9740061 18.2855416,24.9851952 18.263131,25.0076877 C18.2407205,25.0300089 18.2295438,25.0583242 18.2295438,25.0930905 L18.2295438,25.472665 C18.2295438,25.5074312 18.2407205,25.535975 18.263131,25.5582962 C18.2855416,25.5805603 18.3141996,25.5917494 18.349105,25.5917494 L19.9443243,25.5917494 C19.8894728,25.7953233 19.7618301,25.9503157 19.561224,26.056898 C19.3608473,26.1634803 19.0962192,26.2170283 18.7675692,26.2170283 L18.349105,26.2170283 C18.3166642,26.2170283 18.2886366,26.2286171 18.2651371,26.2522513 C18.2414082,26.2758855 18.2295438,26.3037441 18.2295438,26.3361127 L18.2295438,26.8086256 C18.2295438,26.8409371 18.2407205,26.8681678 18.263131,26.890489 C18.7413758,27.3964551 19.3615351,28.1046821 20.1236661,29.0151699 C20.1460766,29.0448553 20.1771419,29.0598123 20.2170339,29.0598123 L20.9455777,29.0598123 C20.9977352,29.0598123 21.0340163,29.0374911 21.0536757,28.9926774 C21.0787801,28.9480921 21.0738509,28.9059045 21.0389455,28.8662287 C20.3117199,27.9782333 19.7401073,27.3132787 19.324165,26.8717643 C19.7475011,26.8222124 20.0911679,26.6857734 20.3551654,26.4625614 C20.6191057,26.2392924 20.7798771,25.9489456 20.8371931,25.5919778 L21.4647461,25.5919778 C21.4997089,25.5919778 21.5283669,25.5807886 21.5507201,25.5582962 C21.5731307,25.535975 21.5843073,25.5074312 21.5843073,25.4728933 L21.5843073,25.0933189 C21.5843073,25.0585526 21.5731307,25.0300089 21.5507201,25.0076877 C21.5283669,24.9854236 21.4997089,24.9742344 21.4647461,24.9742344 Z" id="rupee-indian-copy" fill="#FFFFFF" transform="translate(19.906926, 26.440240) rotate(-65.000000) translate(-19.906926, -26.440240) "></path>
                                        </g>
                                    </g>
                                    <use id="Rectangle-203" stroke="#4C4F58" mask="url(#mask-8)" stroke-width="6" fill="#FFFFFF" xlink:href="#path-7"></use>
                                    <use id="Rectangle-203-Copy" fill="#E4E3E3" xlink:href="#path-9"></use>
                                    <path d="M55.8718163,48.9512333 L52.7692437,48.9512333 C52.5635006,47.9515767 52.1765143,47.0828045 51.6077279,46.3485214 L55.8347881,46.3485214 C56.0046166,46.3485214 56.1438203,46.2941711 56.2523992,46.1860252 C56.3612565,46.077602 56.415546,45.9389533 56.415546,45.7700793 L56.415546,43.92633 C56.415546,43.7574559 56.3612565,43.6188073 56.2523992,43.5103841 C56.1438203,43.4022382 56.0046166,43.3478879 55.8347881,43.3478879 L40.7378662,43.3478879 C40.5683161,43.3478879 40.4291124,43.4022382 40.320255,43.5103841 C40.2113977,43.6188073 40.1571083,43.7574559 40.1571083,43.92633 L40.1571083,46.3299425 C40.1571083,46.48717 40.2147386,46.622491 40.3299993,46.7372921 C40.4441464,46.850984 40.5802876,46.9083845 40.7378662,46.9083845 L43.3685381,46.9083845 C45.9209775,46.9083845 47.5424225,47.5885946 48.2320377,48.9501241 L40.7378662,48.9501241 C40.5683161,48.9501241 40.4291124,49.0044744 40.320255,49.1137295 C40.2113977,49.2221527 40.1571083,49.3596921 40.1571083,49.5285661 L40.1571083,51.3723155 C40.1571083,51.5411895 40.2113977,51.6798381 40.320255,51.7882614 C40.4291124,51.8964073 40.5683161,51.9507575 40.7378662,51.9507575 L48.4865021,51.9507575 C48.2200662,52.9395995 47.6000528,53.6924615 46.6256268,54.2101755 C45.6523143,54.7278894 44.3669072,54.9879942 42.7705189,54.9879942 L40.7378662,54.9879942 C40.5802876,54.9879942 40.4441464,55.0442856 40.3299993,55.1590866 C40.2147386,55.2738877 40.1571083,55.4092087 40.1571083,55.5664363 L40.1571083,57.8616256 C40.1571083,58.0185758 40.2113977,58.1508466 40.320255,58.2592698 C42.6432867,60.7169553 45.6556552,64.1571048 49.357639,68.5797186 C49.4664963,68.7239131 49.6173931,68.796565 49.8111647,68.796565 L53.3500017,68.796565 C53.6033524,68.796565 53.7795843,68.6881418 53.8750781,68.4704634 C53.9970206,68.2538943 53.9730775,68.0489716 53.8035274,67.85625 C50.2710938,63.5428914 47.4945364,60.3129332 45.4741336,58.1683163 C47.5304509,57.9276223 49.1997819,57.2648819 50.4821266,56.1806497 C51.7641929,55.0961402 52.5451258,53.6858064 52.8235332,51.9518667 L55.8718163,51.9518667 C56.0416448,51.9518667 56.1808485,51.8975165 56.2894274,51.7882614 C56.3982847,51.6798381 56.4525742,51.5411895 56.4525742,51.3734247 L56.4525742,49.5296753 C56.4525742,49.3608013 56.3982847,49.2221527 56.2894274,49.1137295 C56.1808485,49.0055835 56.0416448,48.9512333 55.8718163,48.9512333 Z" id="rupee-indian-copy-7" fill="#4C4F58"></path>
                                </g>
                            </g>
                        </g>
                    </g>
                </g>
            </g>
        </g>
    </g>
</svg>