<?xml version="1.0" encoding="UTF-8" standalone="no"?>
<svg width="74px" height="81px" viewBox="0 0 74 81" version="1.1" xmlns="http://www.w3.org/2000/svg" xmlns:xlink="http://www.w3.org/1999/xlink">
    <!-- Generator: Sketch 39.1 (31720) - http://www.bohemiancoding.com/sketch -->
    <title>grocery</title>
    <desc>Created with Sketch.</desc>
    <defs>
        <path d="M2.80276817,16.2762396 C2.80276817,13.5162106 3.89600056,9.32708983 5.2469184,6.91538582 L7.22538903,3.38335347 L12.4731146,3.38335347 L14.4035292,6.89237556 C15.7362364,9.31491161 16.816609,13.5117207 16.816609,16.2762396 L16.816609,36.6482584 C16.816609,39.4082873 14.5805785,41.6457328 11.8166417,41.6457328 L7.80273549,41.6457328 C5.04132979,41.6457328 2.80276817,39.4127772 2.80276817,36.6482584 L2.80276817,16.2762396 Z" id="path-1"></path>
        <mask id="mask-2" maskContentUnits="userSpaceOnUse" maskUnits="objectBoundingBox" x="0" y="0" width="14.0138408" height="38.2623794" fill="white">
            <use xlink:href="#path-1"></use>
        </mask>
        <rect id="path-3" x="3.62940777" y="0.665432685" width="7.28719723" height="3.99259611" rx="1.99629805"></rect>
        <mask id="mask-4" maskContentUnits="userSpaceOnUse" maskUnits="objectBoundingBox" x="0" y="0" width="7.28719723" height="3.99259611" fill="white">
            <use xlink:href="#path-3"></use>
        </mask>
        <path d="M12.9863267,74.6232967 L9.14469058,42.9767092 C8.61240876,38.5918839 11.139529,37.0413157 14.8065592,39.5251957 L14.8818135,39.5761695 C14.8818135,39.5761695 15.9866428,40.8657229 19.1085913,40.8657229 C22.866841,40.8657229 21.5800772,37.3408203 25.5781254,37.3408203 C29.5761737,37.3408203 27.4912229,39.6008772 31.6814633,39.6008772 C35.8717036,39.6008772 37.124973,35.9298246 40.9853398,35.9298246 C44.8457065,35.9298246 45.2211181,39.6008772 49.1631823,39.6008772 C53.1052464,39.6008772 53.5090428,35.9298246 56.8132315,35.9298246 C60.1174203,35.9298246 62.0834952,39.9116211 65.3698722,39.9116211 L65.3698722,39.9116211 C68.1492398,37.2195972 69.9696439,38.596899 69.4377232,42.9725725 L65.6213154,74.3670174 C65.6213154,74.3670174 65.6213158,79.9495614 59.7594045,79.9495614 L19.1085915,79.9495614 C12.9863269,79.9495614 12.9863267,74.6232967 12.9863267,74.6232967 Z" id="path-5"></path>
        <mask id="mask-6" maskContentUnits="userSpaceOnUse" maskUnits="objectBoundingBox" x="0" y="0" width="60.4561397" height="44.0197368" fill="white">
            <use xlink:href="#path-5"></use>
        </mask>
    </defs>
    <g id="Page-1" stroke="none" stroke-width="1" fill="none" fill-rule="evenodd">
        <g id="A4-Copy" transform="translate(-8.000000, -34.000000)">
            <g id="grocery" transform="translate(9.000000, 35.000000)">
                <g id="Group-19">
                    <g id="Group-99-Copy">
                        <g id="Group-93">
                            <g id="Group-92">
                                <g id="Group-73-Copy">
                                    <g id="Group-60" transform="translate(61.213561, 40.943781) rotate(32.000000) translate(-61.213561, -40.943781) translate(51.213561, 19.443781)" stroke="#4C4F58">
                                        <use id="Rectangle-41" mask="url(#mask-2)" stroke-width="4" fill="#D8D3D3" transform="translate(9.809689, 22.514543) rotate(-8.000000) translate(-9.809689, -22.514543) " xlink:href="#path-1"></use>
                                        <path d="M2.47462294,12.5543223 L14.1250932,11.9834639" id="Line" stroke-linecap="square" transform="translate(8.299858, 12.268893) rotate(-8.000000) translate(-8.299858, -12.268893) "></path>
                                        <use id="Rectangle-42" mask="url(#mask-4)" stroke-width="2" fill="#FFFFFF" transform="translate(7.273006, 2.661731) rotate(-8.000000) translate(-7.273006, -2.661731) " xlink:href="#path-3"></use>
                                    </g>
                                    <ellipse id="Oval-27" fill="#FFFFFF" transform="translate(24.103806, 40.701754) scale(-1, 1) translate(-24.103806, -40.701754) " cx="24.1038062" cy="40.7017544" rx="0.280276817" ry="0.280701754"></ellipse>
                                    <path d="M1.49213975e-13,46.742419 C1.49213975e-13,46.742419 15.41753,-1.9050202 26.5658419,0.0578407181 C37.7141538,2.02070164 33.3870225,12.523251 33.3870225,12.523251 C33.3870225,12.523251 21.4912251,45.3730359 19.2989806,47.0468579 C17.1067362,48.72068 1.49213975e-13,46.742419 1.49213975e-13,46.742419 Z" id="Path-648" stroke="#4C4F58" stroke-width="2" fill="#E3C484" transform="translate(17.106737, 23.859649) scale(-1, 1) translate(-17.106737, -23.859649) "></path>
                                    <path d="M8.8846999,26.0588273 C8.8846999,26.0588273 8.9509372,22.5070536 13.8043244,23.6191343 C18.6577116,24.7312151 20.1680314,19.1860203 20.1680314,19.1860203" id="Path-651-Copy" stroke="#AA9663" transform="translate(14.526366, 22.622424) scale(-1, 1) rotate(17.000000) translate(-14.526366, -22.622424) "></path>
                                    <path d="M11.9677449,34.7605817 C11.9677449,34.7605817 12.0339822,31.2088079 16.8873694,32.3208887 C21.7407566,33.4329695 23.2510764,27.8877747 23.2510764,27.8877747" id="Path-651-Copy-3" stroke="#AA9663" transform="translate(17.609411, 31.324178) scale(-1, 1) rotate(17.000000) translate(-17.609411, -31.324178) "></path>
                                    <path d="M6.36220856,17.6377747 C6.36220856,17.6377747 6.42844585,14.0860009 11.2818331,15.1980817 C16.1352203,16.3101625 17.6455401,10.7649677 17.6455401,10.7649677" id="Path-651-Copy-2" stroke="#AA9663" transform="translate(12.003874, 14.201371) scale(-1, 1) rotate(17.000000) translate(-12.003874, -14.201371) "></path>
                                    <path d="M49.0484429,40.7017544 C54.3113917,40.7017544 58.5778547,36.4288229 58.5778547,31.1578947 C58.5778547,25.8869666 54.3113917,21.6140351 49.0484429,21.6140351 C43.7854941,21.6140351 39.5190311,25.8869666 39.5190311,31.1578947 C39.5190311,36.4288229 43.7854941,40.7017544 49.0484429,40.7017544 Z" id="Oval-86-Copy" stroke="#4C4F58" stroke-width="2" fill="#F6A623"></path>
                                    <path d="M36.716263,46.3157895 C41.9792118,46.3157895 46.2456747,42.042858 46.2456747,36.7719298 C46.2456747,31.5010017 41.9792118,27.2280702 36.716263,27.2280702 C31.4533142,27.2280702 27.1868512,31.5010017 27.1868512,36.7719298 C27.1868512,42.042858 31.4533142,46.3157895 36.716263,46.3157895 Z" id="Oval-86" stroke="#4C4F58" stroke-width="2" fill="#C9E167"></path>
                                    <path d="M39.5190311,27.5153509 L42.0333113,19.9298246" id="Line" stroke="#4C4F58" stroke-linecap="square"></path>
                                    <use id="Rectangle-225" stroke="#4C4F58" mask="url(#mask-6)" stroke-width="6" fill="#FFFFFF" xlink:href="#path-5"></use>
                                    <path d="M47.1397687,26.7833089 C46.9909742,25.0532947 45.5416464,23.6955896 43.7756897,23.6955896 C42.009733,23.6955896 40.5604052,25.0532947 40.4116106,26.7833089 L47.1397687,26.7833089 Z" id="Combined-Shape-Copy-12" stroke="#4C4F58" fill="#FFFFFF" transform="translate(43.775690, 25.239449) rotate(-6.000000) translate(-43.775690, -25.239449) "></path>
                                    <path d="M40.685729,25.199572 C40.5369345,23.4695578 39.0876067,22.1118527 37.32165,22.1118527 C35.5556933,22.1118527 34.1063655,23.4695578 33.9575709,25.199572 L40.685729,25.199572 Z" id="Combined-Shape-Copy-13" stroke="#4C4F58" fill="#FFFFFF" transform="translate(37.321650, 23.655712) scale(-1, 1) rotate(-29.000000) translate(-37.321650, -23.655712) "></path>
                                    <path d="M38.6782007,31.1578947 C38.6782007,31.1578947 41.2729509,31.4078947 41.9424403,33.7373904" id="Path-639" stroke="#4C4F58"></path>
                                </g>
                            </g>
                        </g>
                        <path d="M11.9991455,41.6713867 C11.9991455,41.6713867 11.9786377,41.0997314 12.5368652,41.5192871 C13.0950928,41.9388428 17.6230466,44.2366943 19.5026855,43.8085937 C19.5026855,43.8085937 22.1092532,43.6665649 23.624634,42.1497192 C24.1555345,41.6183055 24.690678,40.6302271 25.1100466,40.3782959 C25.8877068,39.9111249 26.384948,40.4802677 26.5484619,40.6472168 C26.5484619,40.6472168 27.6514895,42.6815796 32.9846191,42.5224609 C32.9846191,42.5224609 36.0805047,41.8649292 38.2205193,40.177063 C40.360534,38.4891968 41.5254517,38.8356323 42.2192986,39.2879028 C42.2192986,39.2879028 44.6320183,41.4241942 45.5078728,41.6713866 C45.9192344,41.7874852 38.7443043,47.9199531 36.562011,56.1503897 C34.0978531,65.4438681 36.5620117,76.9562988 36.5620117,76.9562988 L18.116394,76.9813232 C18.116394,76.9813232 16.0790403,76.6514292 15.9096069,74.474 C15.7401736,72.2965708 11.9991455,41.6713867 11.9991455,41.6713867 Z" id="Path-747" fill="#E4E3E3"></path>
                    </g>
                </g>
            </g>
        </g>
    </g>
</svg>