<?xml version="1.0" encoding="UTF-8" standalone="no"?>
<svg width="165px" height="146px" viewBox="0 0 165 146" version="1.1" xmlns="http://www.w3.org/2000/svg" xmlns:xlink="http://www.w3.org/1999/xlink">
    <!-- Generator: Sketch 40.2 (33826) - http://www.bohemiancoding.com/sketch -->
    <title>Group 2</title>
    <desc>Created with Sketch.</desc>
    <defs>
        <rect id="path-1" x="6.02189781" y="69.8779438" width="9.6350365" height="9.63833707" rx="4.81751825"></rect>
        <mask id="mask-2" maskContentUnits="userSpaceOnUse" maskUnits="objectBoundingBox" x="0" y="0" width="9.6350365" height="9.63833707" fill="white">
            <use xlink:href="#path-1"></use>
        </mask>
        <rect id="path-3" x="144.525547" y="43.9749129" width="8.43065693" height="8.43354494" rx="4.21532847"></rect>
        <mask id="mask-4" maskContentUnits="userSpaceOnUse" maskUnits="objectBoundingBox" x="0" y="0" width="8.43065693" height="8.43354494" fill="white">
            <use xlink:href="#path-3"></use>
        </mask>
        <path d="M50.8688486,31.8946047 C50.8688486,29.5657455 52.7608526,27.6778322 55.0841771,27.6778322 L55.0841771,27.6778322 C57.4122387,27.6778322 59.2995055,29.5704843 59.2995055,31.8946047 L59.2995055,31.8946047 C59.2995055,34.2234638 57.4075016,36.1113771 55.0841771,36.1113771 L55.0841771,36.1113771 C52.7561154,36.1113771 50.8688486,34.218725 50.8688486,31.8946047 L50.8688486,31.8946047 Z" id="path-5"></path>
        <mask id="mask-6" maskContentUnits="userSpaceOnUse" maskUnits="objectBoundingBox" x="0" y="0" width="8.43065693" height="8.43354494" fill="white">
            <use xlink:href="#path-5"></use>
        </mask>
        <rect id="path-7" x="10.8394161" y="56.6252303" width="6.62408759" height="6.62635674" rx="3.3120438"></rect>
        <mask id="mask-8" maskContentUnits="userSpaceOnUse" maskUnits="objectBoundingBox" x="0" y="0" width="6.62408759" height="6.62635674" fill="white">
            <use xlink:href="#path-7"></use>
        </mask>
        <rect id="path-9" x="104.178832" y="29.5174073" width="8.43065693" height="8.43354494" rx="4.21532847"></rect>
        <mask id="mask-10" maskContentUnits="userSpaceOnUse" maskUnits="objectBoundingBox" x="0" y="0" width="8.43065693" height="8.43354494" fill="white">
            <use xlink:href="#path-9"></use>
        </mask>
        <rect id="path-11" x="27.7007299" y="56.0228342" width="104.781022" height="89.1546179" rx="20"></rect>
        <mask id="mask-12" maskContentUnits="userSpaceOnUse" maskUnits="objectBoundingBox" x="0" y="0" width="104.781022" height="89.1546179" fill="white">
            <use xlink:href="#path-11"></use>
        </mask>
        <rect id="path-13" x="18.6678832" y="45.179705" width="122.244526" height="29.5174073" rx="14.7587036"></rect>
        <mask id="mask-14" maskContentUnits="userSpaceOnUse" maskUnits="objectBoundingBox" x="0" y="0" width="122.244526" height="29.5174073" fill="white">
            <use xlink:href="#path-13"></use>
        </mask>
    </defs>
    <g id="Page-1" stroke="none" stroke-width="1" fill="none" fill-rule="evenodd">
        <g id="Artboard" transform="translate(-638.000000, -113.000000)">
            <g id="Group-2" transform="translate(638.000000, 113.000000)">
                <use id="Rectangle-3" stroke="#4C4F58" mask="url(#mask-2)" stroke-width="3" fill="#FEED97" xlink:href="#path-1"></use>
                <use id="Rectangle-3" stroke="#4C4F58" mask="url(#mask-4)" stroke-width="3" fill="#FEED97" xlink:href="#path-3"></use>
                <use id="Rectangle-3" stroke="#4C4F58" mask="url(#mask-6)" stroke-width="3" fill="#E0FBFF" xlink:href="#path-5"></use>
                <use id="Rectangle-3" stroke="#4C4F58" mask="url(#mask-8)" stroke-width="3" fill="#E0FBFF" transform="translate(14.151460, 59.938409) rotate(-6.000000) translate(-14.151460, -59.938409) " xlink:href="#path-7"></use>
                <use id="Rectangle-3" stroke="#4C4F58" mask="url(#mask-10)" stroke-width="3" fill="#FEED97" xlink:href="#path-9"></use>
                <use id="Rectangle" stroke="#4C4F58" mask="url(#mask-12)" stroke-width="6" fill="#F6834B" xlink:href="#path-11"></use>
                <g id="Group-48" transform="translate(54.425787, 86.227533)">
                    <path d="M41.6565223,25.48271 L39.4966797,25.48271" id="Line" stroke="#FFFFFF" stroke-width="3"></path>
                    <g id="Group-47">
                        <path d="M25.9976634,37.7633753 L25.9976634,42.034911" id="Line" stroke="#FFFFFF" stroke-width="3"></path>
                        <g id="Group-46">
                            <path d="M13.0386077,25.48271 L10.8787651,25.48271" id="Line" stroke="#FFFFFF" stroke-width="3"></path>
                            <g id="Group-45">
                                <path d="M25.9976634,8.93050897 L25.9976634,12.6681028" id="Line" stroke="#FFFFFF" stroke-width="3"></path>
                                <g id="noun_585404_cc" transform="translate(25.203885, 24.879741) rotate(161.000000) translate(-25.203885, -24.879741) translate(5.703885, 5.879741)" fill="#FFFFFF">
                                    <g id="Group" transform="translate(0.024419, 0.014725)">
                                        <g id="Shape" transform="translate(-0.000000, 0.000000)">
                                            <path d="M0.100892728,18.4212926 C0.100892728,19.3510373 0.866008333,20.1077718 1.80638221,20.1077718 C2.7473522,20.1077718 3.5124678,19.3511846 3.5124678,18.4212926 C3.5124678,10.1791487 10.2932937,3.473316 18.6283444,3.473316 C26.9633952,3.473316 33.7448172,10.1792961 33.7448172,18.4212926 C33.7448172,26.6632892 26.9632462,33.3686798 18.6283444,33.3686798 C14.2509115,33.3686798 10.1502257,31.5246642 7.27470844,28.2852212 L7.99466822,27.7532228 C8.42029544,27.4385922 8.63683478,26.9394568 8.57468963,26.4174794 C8.51194836,25.895502 8.18304105,25.4597349 7.69467256,25.2523881 L2.65182452,23.1134892 C2.07374048,22.8695952 1.38522586,23.0247737 0.970328731,23.4858881 C0.692836472,23.7949188 0.562286945,24.2084333 0.611913649,24.6210637 L1.26033944,30.0086898 C1.34752148,30.7405192 1.97657348,31.2922649 2.72291142,31.2922649 C3.0398964,31.2922649 3.34302167,31.19176 3.60039499,31.0018026 L4.53436062,30.3109415 C8.06575512,34.4062978 13.1668736,36.741933 18.6283444,36.741933 C28.8445901,36.741933 37.1563923,28.5233679 37.1563923,18.4209979 C37.1563923,8.31862792 28.8445901,0.0997681247 18.6283444,0.0997681247 C8.41209884,0.0997681247 0.100892728,8.31892266 0.100892728,18.4212926 Z"></path>
                                        </g>
                                    </g>
                                </g>
                            </g>
                        </g>
                    </g>
                </g>
                <g id="noun_685856_cc" transform="translate(73.673942, 106.637795)" stroke-width="2" stroke="#FFFFFF" fill="#FFFFFF">
                    <g id="Group">
                        <polygon id="Shape" points="4.62734709 10.5377261 0.246434185 6.09482045 1.33194794 4.99388295 4.62734709 8.33534263 12.707029 0.141113235 13.7925428 1.24205072"></polygon>
                    </g>
                </g>
                <rect id="Rectangle-2" fill="#BE6438" x="30.1094891" y="67.4683595" width="99.9635036" height="14.4575056"></rect>
                <use id="Rectangle" stroke="#4C4F58" mask="url(#mask-14)" stroke-width="6" fill="#FD7537" xlink:href="#path-13"></use>
                <path d="M139.881998,48.1916854 C139.881998,48.1916854 145.000611,29.8186053 164.872874,20.1802682 C164.872874,20.1802682 145.301706,26.2042289 138.978714,46.6856952 L138.677619,47.8904873 L139.881998,48.1916854 Z" id="Path-2" fill="#E4E4E4"></path>
                <path d="M134.80745,45.7576214 C134.80745,45.7576214 139.573056,27.3845414 158.074818,17.7462043 C158.074818,17.7462043 139.853385,23.770165 133.966461,44.2516313 L133.686131,45.4564234 L134.80745,45.7576214 Z" id="Path-2" fill="#E4E4E4" transform="translate(145.880474, 31.751913) rotate(13.000000) translate(-145.880474, -31.751913) "></path>
                <path d="M21.979927,44.5915682 C21.979927,44.5915682 27.0985401,26.2184882 46.9708029,16.5801511 C46.9708029,16.5801511 27.399635,22.6041118 21.0766423,43.0855781 L20.7755474,44.2903702 L21.979927,44.5915682 Z" id="Path-2" fill="#E4E4E4" transform="translate(33.873175, 30.585860) scale(-1, 1) rotate(13.000000) translate(-33.873175, -30.585860) "></path>
                <path d="M15.0610633,43.3092982 C15.0610633,43.3092982 19.8266687,24.9362182 38.3284306,15.2978811 C38.3284306,15.2978811 20.1069984,21.3218418 14.2200742,41.8033081 L13.9397444,43.0081002 L15.0610633,43.3092982 Z" id="Path-2" fill="#E4E4E4" transform="translate(26.134087, 29.303590) scale(-1, 1) rotate(17.000000) translate(-26.134087, -29.303590) "></path>
                <g id="Star-2" transform="translate(147.536496, 12.047921)">
                    <g id="Group">
                        <polygon id="Path-3" fill="#FEED97" points="1.12686999 4.78689732 3.00498663 6.40045821 2.30740045 9.57379463 2.57570283 10.0040775 5.31238708 7.90644838 8.26371323 9.84272145 8.58567609 9.30486782 7.72710848 6.34667285 10.5711137 4.14147296 10.0881694 3.76497542 6.92220134 3.65740469 5.58068946 0.430282905 4.99042422 0.591638994 4.02453567 3.54983397 0.697586182 3.60361933 0.429283804 3.92633151 0.536604755 4.57175586"></polygon>
                        <path d="M5.36561827,0.81323469 L6.44054492,4.1302856 L9.92074872,4.1302856 L7.10475428,6.18015336 L8.18064682,9.49677399 L5.36561827,7.44636838 L2.5504824,9.49677399 L3.62551637,6.18015336 L0.811239069,4.12985532 L4.28961841,4.12985532 L5.36561827,0.81323469 L5.36561827,0.81323469 Z M5.36561827,0 C5.01446412,0 4.70237479,0.226866662 4.59430259,0.562057045 L3.700963,3.31651306 L0.811239069,3.31651306 C0.460084917,3.31651306 0.147995592,3.54337972 0.0399233938,3.87867768 C-0.0691146925,4.21333021 0.0502262051,4.58025395 0.334304763,4.78754274 L2.67250632,6.49071005 L1.77916673,9.24559635 C1.67012864,9.58024888 1.78946954,9.94771048 2.0735481,10.1544614 C2.21607032,10.2581596 2.38370564,10.3099011 2.5504824,10.3099011 C2.71811773,10.3099011 2.88586037,10.2581596 3.02741671,10.1544614 L5.36561827,8.45140168 L7.70381983,10.1544614 C7.84537617,10.2581596 8.01311881,10.3099011 8.18075414,10.3099011 C8.3475309,10.3099011 8.51516622,10.2581596 8.65768844,10.1544614 C8.941767,9.94717263 9.06100058,9.58024888 8.95206981,9.24559635 L8.05873022,6.49071005 L10.3977903,4.7880806 C10.6818689,4.58122209 10.8012098,4.21386806 10.6921717,3.87910796 C10.5831336,3.54391758 10.2720102,3.31694334 9.92074872,3.31694334 L7.03027354,3.31694334 L6.13693395,0.562057045 C6.02789586,0.226866662 5.71677242,0 5.36561827,0 L5.36561827,0 L5.36561827,0 Z" id="Shape" fill="#4C4F58"></path>
                    </g>
                </g>
                <g id="Star-2" transform="translate(0.000000, 12.047921)">
                    <g id="Group">
                        <polygon id="Path-3" fill="#E0FBFF" points="1.31468165 5.63841271 3.50581774 7.53900126 2.69196719 11.2768254 3.00498663 11.783649 6.19778492 9.31288391 9.64099877 11.5935902 10.0166221 10.9600607 9.01495989 7.47564831 12.332966 4.87817728 11.769531 4.43470662 8.07590157 4.30800072 6.51080437 0.506823614 5.8221616 0.696882469 4.69529161 4.18129482 0.813850546 4.24464777 0.500831105 4.62476548 0.626038881 5.3850009"></polygon>
                        <path d="M6.25988798,0.95789663 L7.51396907,4.86499987 L11.5742068,4.86499987 L8.28888,7.27950757 L9.54408795,11.186104 L6.25988798,8.77096276 L2.9755628,11.186104 L4.2297691,7.27950757 L0.946445581,4.86449305 L5.00455482,4.86449305 L6.25988798,0.95789663 L6.25988798,0.95789663 Z M6.25988798,0 C5.85020814,0 5.48610392,0.26722275 5.36001969,0.662038346 L4.31779016,3.90646971 L0.946445581,3.90646971 C0.536765737,3.90646971 0.172661523,4.17369246 0.0465772928,4.56863476 C-0.0806338079,4.96281683 0.0585972393,5.39501067 0.390022223,5.63917294 L3.11792404,7.64530751 L2.07569451,10.8902457 C1.94848341,11.2844278 2.08771446,11.7172551 2.41913944,11.9607839 C2.58541537,12.0829284 2.78098992,12.1438739 2.9755628,12.1438739 C3.17113735,12.1438739 3.3668371,12.0829284 3.53198616,11.9607839 L6.25988798,9.95477601 L8.9877898,11.9607839 C9.15293886,12.0829284 9.34863861,12.1438739 9.54421316,12.1438739 C9.73878604,12.1438739 9.93436059,12.0829284 10.1006365,11.9607839 C10.4320615,11.7166216 10.5711673,11.2844278 10.4440814,10.8902457 L9.40185192,7.64530751 L12.1307554,5.63980647 C12.4621804,5.39615102 12.6014114,4.96345036 12.4742003,4.56914159 C12.3469892,4.17432599 11.9840119,3.90697653 11.5742068,3.90697653 L8.2019858,3.90697653 L7.15975627,0.662038346 C7.03254517,0.26722275 6.66956783,0 6.25988798,0 L6.25988798,0 L6.25988798,0 Z" id="Shape" fill="#4C4F58"></path>
                    </g>
                </g>
                <g id="Star-2" transform="translate(80.693431, 0.000000)">
                    <g id="Group">
                        <polygon id="Path-3" fill="#E0FBFF" points="1.62770109 6.98089192 4.34053624 9.33400156 3.33291176 13.9617838 3.72045964 14.5892797 7.673448 11.5302372 11.9364747 14.3539688 12.4015321 13.5695989 11.1613789 9.25556457 15.2693864 6.03964807 14.5718002 5.49058915 9.99873527 5.33371518 8.06099588 0.627495903 7.20839055 0.862806867 5.81321818 5.1768412 1.00762449 5.25527819 0.620076606 5.72590012 0.775095758 6.66714397"></polygon>
                        <path d="M7.7503375,1.18596726 L9.30300932,6.02333317 L14.3299704,6.02333317 L10.2624229,9.01272366 L11.8164898,13.8494621 L7.7503375,10.8592872 L3.68403014,13.8494621 L5.23685698,9.01272366 L1.17178977,6.02270568 L6.19611549,6.02270568 L7.7503375,1.18596726 L7.7503375,1.18596726 Z M7.7503375,0 C7.24311484,0 6.79231914,0.330847215 6.63621486,0.819666523 L5.34583544,4.83658155 L1.17178977,4.83658155 C0.664567103,4.83658155 0.21377141,5.16742876 0.0576671244,5.65640494 C-0.0998323336,6.14443988 0.0725489629,6.67953701 0.482884657,6.98183317 L3.86028691,9.46561882 L2.56990749,13.4831613 C2.41240804,13.9711963 2.58478933,14.5070778 2.99512503,14.8085896 C3.20099046,14.9598161 3.44313038,15.0352725 3.68403014,15.0352725 C3.92617005,15.0352725 4.16846499,14.9598161 4.37293525,14.8085896 L7.7503375,12.3249608 L11.1277398,14.8085896 C11.33221,14.9598161 11.574505,15.0352725 11.8166449,15.0352725 C12.0575446,15.0352725 12.2996845,14.9598161 12.50555,14.8085896 C12.9158857,14.5062934 13.0881119,13.9711963 12.9307675,13.4831613 L11.6403881,9.46561882 L15.0190305,6.98261754 C15.4293662,6.68094888 15.6017475,6.14522425 15.444248,5.65703244 C15.2867486,5.16821313 14.8373481,4.83720904 14.3299704,4.83720904 L10.1548396,4.83720904 L8.86446014,0.819666523 C8.70696069,0.330847215 8.25756016,0 7.7503375,0 L7.7503375,0 L7.7503375,0 Z" id="Shape" fill="#4C4F58"></path>
                    </g>
                </g>
                <g id="Star-2" transform="translate(122.846715, 28.312615)">
                    <g id="Group">
                        <polygon id="Path-3" fill="#E0FBFF" points="0.751246658 3.35082812 2.00332442 4.48032075 1.53826697 6.70165624 1.71713522 7.00285428 3.54159139 5.53451386 5.50914216 6.88990502 5.72378406 6.51340747 5.15140565 4.44267099 7.04740912 2.89903107 6.72544627 2.63548279 4.6148009 2.56018328 3.72045964 0.301198033 3.32694948 0.414147296 2.68302378 2.48488378 0.465057455 2.52253353 0.286189203 2.74843206 0.357736504 3.20022911"></polygon>
                        <path d="M3.57707885,0.569264283 L4.29369661,2.89119992 L6.61383248,2.89119992 L4.73650285,4.32610735 L5.45376454,6.6477418 L3.57707885,5.21245787 L1.7003216,6.6477418 L2.41701091,4.32610735 L0.540826046,2.89089873 L2.85974561,2.89089873 L3.57707885,0.569264283 L3.57707885,0.569264283 Z M3.57707885,0 C3.34297608,0 3.13491653,0.158806663 3.0628684,0.393439931 L2.46730867,2.32155914 L0.540826046,2.32155914 C0.306723278,2.32155914 0.0986637277,2.48036581 0.0266155959,2.71507437 C-0.0460764617,2.94933114 0.0334841367,3.20617777 0.222869842,3.35127992 L1.78167088,4.54349704 L1.18611115,6.47191744 C1.11341909,6.70617421 1.19297969,6.96339734 1.3823654,7.10812299 C1.47738021,7.18071172 1.5891371,7.21693078 1.7003216,7.21693078 C1.81207849,7.21693078 1.92390692,7.18071172 2.01827781,7.10812299 L3.57707885,5.91598117 L5.13587989,7.10812299 C5.23025078,7.18071172 5.34207921,7.21693078 5.45383609,7.21693078 C5.5650206,7.21693078 5.67677748,7.18071172 5.7717923,7.10812299 C5.961178,6.96302084 6.04066705,6.70617421 5.96804654,6.47191744 L5.37248681,4.54349704 L6.93186023,3.35165642 C7.12124593,3.20685546 7.20080653,2.94970764 7.12811448,2.71537557 C7.05542242,2.4807423 6.84800679,2.32186034 6.61383248,2.32186034 L4.68684903,2.32186034 L4.0912893,0.393439931 C4.01859724,0.158806663 3.81118161,0 3.57707885,0 L3.57707885,0 L3.57707885,0 Z" id="Shape" fill="#4C4F58"></path>
                    </g>
                </g>
                <g id="Star-2" transform="translate(151.751825, 33.131784)">
                    <g id="Group">
                        <polygon id="Path-3" fill="#E0FBFF" points="0.751246658 3.35082812 2.00332442 4.48032075 1.53826697 6.70165624 1.71713522 7.00285428 3.54159139 5.53451386 5.50914216 6.88990502 5.72378406 6.51340747 5.15140565 4.44267099 7.04740912 2.89903107 6.72544627 2.63548279 4.6148009 2.56018328 3.72045964 0.301198033 3.32694948 0.414147296 2.68302378 2.48488378 0.465057455 2.52253353 0.286189203 2.74843206 0.357736504 3.20022911"></polygon>
                        <path d="M3.57707885,0.569264283 L4.29369661,2.89119992 L6.61383248,2.89119992 L4.73650285,4.32610735 L5.45376454,6.6477418 L3.57707885,5.21245787 L1.7003216,6.6477418 L2.41701091,4.32610735 L0.540826046,2.89089873 L2.85974561,2.89089873 L3.57707885,0.569264283 L3.57707885,0.569264283 Z M3.57707885,0 C3.34297608,0 3.13491653,0.158806663 3.0628684,0.393439931 L2.46730867,2.32155914 L0.540826046,2.32155914 C0.306723278,2.32155914 0.0986637277,2.48036581 0.0266155959,2.71507437 C-0.0460764617,2.94933114 0.0334841367,3.20617777 0.222869842,3.35127992 L1.78167088,4.54349704 L1.18611115,6.47191744 C1.11341909,6.70617421 1.19297969,6.96339734 1.3823654,7.10812299 C1.47738021,7.18071172 1.5891371,7.21693078 1.7003216,7.21693078 C1.81207849,7.21693078 1.92390692,7.18071172 2.01827781,7.10812299 L3.57707885,5.91598117 L5.13587989,7.10812299 C5.23025078,7.18071172 5.34207921,7.21693078 5.45383609,7.21693078 C5.5650206,7.21693078 5.67677748,7.18071172 5.7717923,7.10812299 C5.961178,6.96302084 6.04066705,6.70617421 5.96804654,6.47191744 L5.37248681,4.54349704 L6.93186023,3.35165642 C7.12124593,3.20685546 7.20080653,2.94970764 7.12811448,2.71537557 C7.05542242,2.4807423 6.84800679,2.32186034 6.61383248,2.32186034 L4.68684903,2.32186034 L4.0912893,0.393439931 C4.01859724,0.158806663 3.81118161,0 3.57707885,0 L3.57707885,0 L3.57707885,0 Z" id="Shape" fill="#4C4F58"></path>
                    </g>
                </g>
                <g id="Star-2" transform="translate(122.846715, 28.312615)">
                    <g id="Group">
                        <polygon id="Path-3" fill="#E0FBFF" points="0.751246658 3.35082812 2.00332442 4.48032075 1.53826697 6.70165624 1.71713522 7.00285428 3.54159139 5.53451386 5.50914216 6.88990502 5.72378406 6.51340747 5.15140565 4.44267099 7.04740912 2.89903107 6.72544627 2.63548279 4.6148009 2.56018328 3.72045964 0.301198033 3.32694948 0.414147296 2.68302378 2.48488378 0.465057455 2.52253353 0.286189203 2.74843206 0.357736504 3.20022911"></polygon>
                        <path d="M3.57707885,0.569264283 L4.29369661,2.89119992 L6.61383248,2.89119992 L4.73650285,4.32610735 L5.45376454,6.6477418 L3.57707885,5.21245787 L1.7003216,6.6477418 L2.41701091,4.32610735 L0.540826046,2.89089873 L2.85974561,2.89089873 L3.57707885,0.569264283 L3.57707885,0.569264283 Z M3.57707885,0 C3.34297608,0 3.13491653,0.158806663 3.0628684,0.393439931 L2.46730867,2.32155914 L0.540826046,2.32155914 C0.306723278,2.32155914 0.0986637277,2.48036581 0.0266155959,2.71507437 C-0.0460764617,2.94933114 0.0334841367,3.20617777 0.222869842,3.35127992 L1.78167088,4.54349704 L1.18611115,6.47191744 C1.11341909,6.70617421 1.19297969,6.96339734 1.3823654,7.10812299 C1.47738021,7.18071172 1.5891371,7.21693078 1.7003216,7.21693078 C1.81207849,7.21693078 1.92390692,7.18071172 2.01827781,7.10812299 L3.57707885,5.91598117 L5.13587989,7.10812299 C5.23025078,7.18071172 5.34207921,7.21693078 5.45383609,7.21693078 C5.5650206,7.21693078 5.67677748,7.18071172 5.7717923,7.10812299 C5.961178,6.96302084 6.04066705,6.70617421 5.96804654,6.47191744 L5.37248681,4.54349704 L6.93186023,3.35165642 C7.12124593,3.20685546 7.20080653,2.94970764 7.12811448,2.71537557 C7.05542242,2.4807423 6.84800679,2.32186034 6.61383248,2.32186034 L4.68684903,2.32186034 L4.0912893,0.393439931 C4.01859724,0.158806663 3.81118161,0 3.57707885,0 L3.57707885,0 L3.57707885,0 Z" id="Shape" fill="#4C4F58"></path>
                    </g>
                </g>
                <path d="M18.3991641,144.202607 L142.592713,144.202607" id="Path-4" stroke="#4C4F58" stroke-width="3"></path>
            </g>
        </g>
    </g>
</svg>