<?xml version="1.0" encoding="UTF-8" standalone="no"?>
<svg width="74px" height="64px" viewBox="0 0 74 64" version="1.1" xmlns="http://www.w3.org/2000/svg" xmlns:xlink="http://www.w3.org/1999/xlink">
    <!-- Generator: Sketch 39.1 (31720) - http://www.bohemiancoding.com/sketch -->
    <title>home &amp; kitchen</title>
    <desc>Created with Sketch.</desc>
    <defs>
        <rect id="path-1" x="0" y="13.2620321" width="64.5831662" height="48.4181017" rx="9"></rect>
        <mask id="mask-2" maskContentUnits="userSpaceOnUse" maskUnits="objectBoundingBox" x="0" y="0" width="64.5831662" height="48.4181017" fill="white">
            <use xlink:href="#path-1"></use>
        </mask>
    </defs>
    <g id="Page-1" stroke="none" stroke-width="1" fill="none" fill-rule="evenodd">
        <g id="A4-Copy" transform="translate(-14.000000, -42.000000)">
            <g id="home-&amp;-kitchen" transform="translate(14.000000, 44.000000)">
                <g id="Group-17">
                    <g id="Group-9">
                        <g id="Group-78-Copy-5">
                            <g id="Group-77">
                                <path d="M16.8461538,0.997485482 C16.8461538,1.99497096 16.8461538,5.00659709 16.8461538,5.00659709 L49.6462658,5.00659709 C49.6462658,5.00659709 49.6462645,2.02508251 49.6462658,1.01254126 C49.6462671,0 48.7300693,0 48.7300693,0 L18.0046044,0 C18.0046044,0 16.8461538,0 16.8461538,0.997485482 Z" id="Fill-316-Copy-4" stroke="#4C4F58" stroke-width="3" fill="#FFFFFF"></path>
                                <path d="M5.28506787,6.37560739 C5.28506787,7.19652466 11.5120255,13.7270165 11.5120255,13.7270165 L54.9912437,13.7270165 C54.9912437,13.7270165 54.9912405,6.97287355 54.9912437,6.13884319 C54.9912469,5.30481283 54.0549316,5.30481283 54.0549316,5.30481283 L51.7851331,5.30481283 L6.48520795,5.30481283 C6.48520795,5.30481283 5.28506787,5.55469013 5.28506787,6.37560739 Z" id="Fill-313-Copy-4" stroke="#4C4F58" stroke-width="3" fill="#C1A283"></path>
                                <polygon id="Fill-320-Copy-3" stroke="#4C4F58" stroke-width="2" fill="#C1A283" points="64.4117647 25.4052949 70.9368548 25.4052949 70.9368548 21.5508021 64.4117647 21.5508021"></polygon>
                                <path d="M72.9797798,41.1062979 L72.4333212,41.1062979 C71.1100041,41.1062979 70.0271493,39.8847898 70.0271493,38.3930956 L70.0271493,18.9589008 C70.0271493,17.4669158 71.1100041,16.2459893 72.4333212,16.2459893 L72.9797798,16.2459893 L72.9797798,41.1062979" id="Fill-319-Copy" stroke="#4C4F58" stroke-width="2" fill="#FFFFFF" transform="translate(71.503465, 28.676144) scale(-1, 1) translate(-71.503465, -28.676144) "></path>
                                <use id="Rectangle-67-Copy-2" stroke="#4C4F58" mask="url(#mask-2)" stroke-width="6" fill="#FFFFFF" xlink:href="#path-1"></use>
                                <path d="M4.62982892,42.6177946 C4.63233515,41.2991206 5.28920832,40.5081002 6.43767702,40.6956094 C12.7557308,41.7271512 33.9514999,44.8576673 42.5076363,41.962546 C52.6190705,38.5411618 57.3112359,33.486631 57.8379261,33.486631 C59.8730641,33.486631 59.8730655,35.5345464 59.8730655,35.5345464 C59.8730655,35.5345464 59.8730641,47.7603203 59.8730641,51.2212056 C59.8730641,54.6820908 58.5225329,57.3445357 52.0056259,57.3445357 L14.0110342,57.3445357 C14.0110342,57.3445357 4.66664682,58.3780417 4.63233515,50.7277647 C4.62250561,48.5361299 4.62732268,43.9364686 4.62982892,42.6177946 Z" id="Path-382-Copy" fill="#E4DCD4"></path>
                                <path d="M4.62982892,42.6177946 C4.63233515,41.2991206 5.28920832,40.5081002 6.43767702,40.6956094 C9.27421005,41.1587271 26.4665369,42.9112526 26.4665369,42.9112526 C26.4665369,42.9112526 23.3549804,45.1191313 21.9863281,49.0297753 C20.6176758,52.9404194 23.9951172,57.3445355 23.9951172,57.3445355 L14.0110342,57.3445357 C14.0110342,57.3445357 4.66664682,58.3780417 4.63233515,50.7277647 C4.62250561,48.5361299 4.62732268,43.9364686 4.62982892,42.6177946 Z" id="Path-382-Copy-2" fill="#D9C8AF"></path>
                            </g>
                        </g>
                    </g>
                </g>
            </g>
        </g>
    </g>
</svg>