<?xml version="1.0" encoding="UTF-8" standalone="no"?>
<svg width="94px" height="98px" viewBox="0 0 94 98" version="1.1" xmlns="http://www.w3.org/2000/svg" xmlns:xlink="http://www.w3.org/1999/xlink">
    <!-- Generator: Sketch 40.1 (33804) - http://www.bohemiancoding.com/sketch -->
    <title>Group 2</title>
    <desc>Created with Sketch.</desc>
    <defs>
        <path d="M75.661,38.1639 C75.661,59.2416 58.724,76.3279 37.831,76.3279 C16.937,76.3279 0,59.2416 0,38.1639 C0,17.086 16.937,0 37.831,0 C58.724,0 75.661,17.086 75.661,38.1639 L75.661,38.1639 Z" id="path-1"></path>
        <polygon id="path-3" points="0.797 51.2787 67 51.2787 67 0.3934 0.797 0.3934"></polygon>
        <polygon id="path-5" points="0.034 50 44.169 50 44.169 0.7049 0.034 0.7049"></polygon>
        <path d="M0.075,21.2369 C0.075,39.5237 17.987,41.998 19.491,60.587 C19.559,61.4346 20.235,62.1009 21.079,62.1009 C21.92,62.1009 22.596,61.4346 22.666,60.587 C24.17,41.998 42.082,39.5237 42.082,21.2369 C42.082,9.535 32.678,0.048 21.079,0.048 C9.479,0.048 0.075,9.535 0.075,21.2369 L0.075,21.2369 Z" id="path-7"></path>
        <path d="M13.83,7.2369 C13.83,10.9976 10.806,14.0475 7.079,14.0475 C3.349,14.0475 0.327,10.9976 0.327,7.2369 C0.327,3.476 3.349,0.426 7.079,0.426 C10.806,0.426 13.83,3.476 13.83,7.2369 L13.83,7.2369 Z" id="path-9"></path>
    </defs>
    <g id="Page-1" stroke="none" stroke-width="1" fill="none" fill-rule="evenodd">
        <g id="Artboard" transform="translate(-61.000000, -92.000000)">
            <g id="Group-2" transform="translate(61.000000, 92.000000)">
                <g id="Group-2849">
                    <mask id="mask-2" fill="white">
                        <use xlink:href="#path-1"></use>
                    </mask>
                    <g id="Clip-2848"></g>
                    <polygon id="Fill-2847" fill="#E9EAE7" mask="url(#mask-2)" points="-5 -5 80.661 -5 80.661 81.3279 -5 81.3279"></polygon>
                </g>
                <g id="Group-2852" transform="translate(26.000000, 33.000000)">
                    <mask id="mask-4" fill="white">
                        <use xlink:href="#path-3"></use>
                    </mask>
                    <g id="Clip-2851"></g>
                    <polygon id="Fill-2850" fill="#FFFFFF" mask="url(#mask-4)" points="-4.203 -4.6066 72 -4.6066 72 56.2787 -4.203 56.2787"></polygon>
                </g>
                <g id="Group-2855" transform="translate(11.000000, 47.000000)">
                    <mask id="mask-6" fill="white">
                        <use xlink:href="#path-5"></use>
                    </mask>
                    <g id="Clip-2854"></g>
                    <polygon id="Fill-2853" fill="#FFFFFF" mask="url(#mask-6)" points="-4.966 -4.2951 49.169 -4.2951 49.169 55 -4.966 55"></polygon>
                </g>
                <g id="Group-2862" transform="translate(11.000000, 33.000000)" stroke-width="2">
                    <path d="M44.16959,56.04916 L44.16959,63.99998 L0.034,63.99998 L0.034,14.7049 L11.0679,14.7049 M15.79671,51.27867 L15.79671,54.459 L42.59332,62.40982 L44.16959,62.40982 L44.16959,56.04916" id="Stroke-2856" stroke="#000000"></path>
                    <path d="M74.4151,51.5776 L58.35605,35.37701 L36.28825,35.37701 L28.4069,27.42619 L34.71198,21.06553 L37.86453,24.24586 L61.50859,24.24586 L82.00012,44.91799 M17.373,27.42619 L33.13571,43.32783 L55.20351,43.32783 L63.08486,51.27865 M17.373,3.573728 L28.4069,14.70488 L22.101814,21.06553 L17.373,16.29504 M82.00012,33.78684 L64.66114,16.29504 L41.01707,16.29504 L25.254356,0.3934 M66.23741,0.3934 L82.00012,16.29504" id="Stroke-2858" stroke="#B6BAB9"></path>
                    <polygon id="Stroke-2860" stroke="#000000" points="15.797 51.27865 82.00039 51.27865 82.00039 0.3934 15.797 0.3934"></polygon>
                </g>
                <g id="Group-2865" transform="translate(48.000000, 1.000000)">
                    <mask id="mask-8" fill="white">
                        <use xlink:href="#path-7"></use>
                    </mask>
                    <g id="Clip-2864"></g>
                    <polygon id="Fill-2863" fill="#F42323" mask="url(#mask-8)" points="-4.925 -4.952 47.082 -4.952 47.082 67.1009 -4.925 67.1009"></polygon>
                </g>
                <path d="M69.07881,1.048 C57.479034,1.048 48.075,10.534918 48.075,22.23693 C48.075,40.52382 65.98775,42.99811 67.49151,61.58713 C67.55929,62.43469 68.23551,63.10097 69.07881,63.10097 C69.92054,63.10097 70.59676,62.43469 70.66612,61.58713 C72.16988,42.99811 90.08263,40.52382 90.08263,22.23693 C90.08263,10.534918 80.67859,1.048 69.07881,1.048 L69.07881,1.048 L69.07881,1.048 Z" id="Stroke-2866" stroke="#000000" stroke-width="2"></path>
                <g id="Group-2870" transform="translate(62.000000, 15.000000)">
                    <mask id="mask-10" fill="white">
                        <use xlink:href="#path-9"></use>
                    </mask>
                    <g id="Clip-2869"></g>
                    <polygon id="Fill-2868" fill="#FFFFFF" mask="url(#mask-10)" points="-4.673 -4.574 18.83 -4.574 18.83 19.0475 -4.673 19.0475"></polygon>
                </g>
                <path d="M75.82934,22.236672 C75.82934,25.99741 72.80605,29.04734 69.078169,29.04734 C65.348712,29.04734 62.327,25.99741 62.327,22.236672 C62.327,18.475934 65.348712,15.426 69.078169,15.426 C72.80605,15.426 75.82934,18.475934 75.82934,22.236672 L75.82934,22.236672 L75.82934,22.236672 Z" id="Stroke-2871" stroke="#000000" stroke-width="2"></path>
            </g>
        </g>
    </g>
</svg>