<?xml version="1.0" encoding="UTF-8" standalone="no"?>
<svg width="58px" height="76px" viewBox="0 0 58 76" version="1.1" xmlns="http://www.w3.org/2000/svg" xmlns:xlink="http://www.w3.org/1999/xlink">
    <!-- Generator: Sketch 3.8.3 (29802) - http://www.bohemiancoding.com/sketch -->
    <title>Group 46</title>
    <desc>Created with Sketch.</desc>
    <defs></defs>
    <g id="Page-1" stroke="none" stroke-width="1" fill="none" fill-rule="evenodd">
        <g id="Group-46">
            <g id="Group-9-Copy">
                <g id="Group-222-Copy">
                    <g id="Group-71-Copy-2">
                        <path d="M51.5999863,19.3707111 C51.2551826,19.0236444 50.6875181,19.0236444 50.3427145,19.3707111 C49.9970699,19.7177778 49.9970699,20.2860889 50.3427145,20.6331556 L47.6078329,23.4392444 C47.2596654,23.7905333 47.2596654,24.3622222 47.6078329,24.7126667 L48.2158647,25.3240444 L47.1595882,26.3855111 C46.7878731,26.7587556 46.7861911,27.3650667 47.1528603,27.7416889 C43.0875413,24.1173333 37.9499671,21.6836444 32.2884596,20.9954222 L32.2884596,18.7492 C36.0518651,17.4825333 38.7724499,13.9113778 38.7724499,9.71195556 C38.7724499,4.45697778 34.5145455,0.181555556 29.28194,0.181555556 C28.1107752,0.181555556 26.9885072,0.395666815 25.9519027,0.786952439 C22.3563548,2.14415879 19.7914301,5.63296102 19.7914301,9.71195556 C19.7914301,13.9113778 22.512015,17.4825333 26.2745795,18.7492 L26.2745795,20.9287111 C20.4255325,21.5096889 15.1071466,23.9526667 10.9173619,27.6538667 C11.2075015,27.2755556 11.183954,26.7308889 10.8399913,26.3855111 L9.78287381,25.3240444 L10.3917466,24.7126667 C10.7407551,24.3622222 10.7407551,23.7896889 10.3917466,23.4392444 L7.62743058,20.6635556 C8.00335064,20.2860889 8.00335064,19.7177778 7.65686503,19.3707111 C7.31122041,19.0236444 6.74523785,19.0236444 6.39959323,19.3707111 L0.290681942,25.5047556 C-0.0549626806,25.8518222 -0.0549626806,26.4201333 0.290681942,26.7672 C0.636326565,27.1142667 1.20230912,27.1142667 1.54795375,26.7672 L4.34254518,29.5124889 C4.69239473,29.8629333 5.26174123,29.8629333 5.61074979,29.5124889 L6.21962255,28.9011111 L7.27589906,29.9625778 C7.60556498,30.2936 8.11688355,30.3324444 8.49028066,30.0816444 C4.19873684,34.9405778 1.58663903,41.3254222 1.58663903,48.3056 C1.58663903,63.4583111 13.894447,75.8167556 28.9850725,75.8167556 C44.0756981,75.8167556 56.384347,63.4583111 56.384347,48.3056 C56.384347,41.2865778 53.7428147,34.8696444 49.4092217,30.0005778 C49.7859827,30.3341333 50.3620571,30.324 50.7228395,29.9625778 L51.779957,28.9011111 L52.3896707,29.5124889 C52.7378383,29.8629333 53.3088667,29.8629333 53.6578753,29.5124889 L56.4221913,26.7368 C56.7981114,27.1142667 57.3632529,27.1142667 57.7088976,26.7672 C58.0553832,26.4201333 58.0553832,25.8518222 57.7088976,25.5047556 L51.5999863,19.3707111 Z M21.0730905,9.71195556 C21.0730905,5.16631111 24.7557616,1.46764444 29.282781,1.46764444 C33.8089595,1.46764444 37.4933125,5.16546667 37.4933125,9.71195556 C37.4933125,13.1927556 35.3328234,16.1736444 32.2893006,17.3812 L32.2893006,13.8362222 L33.6037593,13.8362222 C33.9283793,13.8362222 34.1958124,13.5685333 34.1958124,13.2408889 L34.1958124,7.54257778 C34.1958124,7.21493333 33.9283793,6.94724444 33.6037593,6.94724444 L24.9634847,6.94724444 C24.6371827,6.94724444 24.3714316,7.21493333 24.3714316,7.54257778 L24.3714316,13.2408889 C24.3714316,13.5685333 24.6371827,13.8362222 24.9634847,13.8362222 L26.2762615,13.8362222 L26.2762615,17.3812 C23.2318977,16.1744889 21.0730905,13.1927556 21.0730905,9.71195556 L21.0730905,9.71195556 Z M28.9859135,72.9118667 C15.4897945,72.9118667 4.48130762,61.8589333 4.48130762,48.3064444 C4.48130762,34.7539556 15.4889535,23.7001778 28.9859135,23.7001778 C42.4837145,23.7001778 53.4913604,34.7539556 53.4913604,48.3064444 C53.4913604,61.8589333 42.4837145,72.9118667 28.9859135,72.9118667 L28.9859135,72.9118667 Z" id="Shape" fill="#4C4F58" transform="translate(29.000105, 37.999156) scale(-1, 1) translate(-29.000105, -37.999156) "></path>
                        <path d="M6.10840235,48.3064444 C6.10840235,60.9731111 16.3978475,71.3048889 29.0126148,71.3048889 C41.628223,71.3048889 51.9185091,60.9731111 51.9185091,48.3064444 C51.9185091,35.6380889 41.628223,25.3071556 29.0126148,25.3071556 C16.3978475,25.3071556 6.10840235,35.6380889 6.10840235,48.3064444 Z" id="Shape" fill="#279AAD" transform="translate(29.013456, 48.306022) scale(-1, 1) translate(-29.013456, -48.306022) "></path>
                        <path d="M27.5691349,25.2285924 L27.9207625,48.3064462 C27.9207625,48.3064462 6.04908701,55.3923872 6.09217761,55.5231796 C9.12137532,64.7176636 17.7709508,71.383452 27.9207623,71.383452 C40.5794649,71.383452 50.9049022,61.0163813 50.9049022,48.3064459 C50.9049022,35.5948158 40.5794649,25.2285924 27.9207623,25.2285924 L27.5691349,25.2285924 Z" id="Shape-Copy-8" fill="#48CCD3" transform="translate(28.498508, 48.306022) scale(-1, 1) translate(-28.498508, -48.306022) "></path>
                    </g>
                </g>
            </g>
        </g>
    </g>
</svg>