<?xml version="1.0" encoding="UTF-8" standalone="no"?>
<svg width="40px" height="40px" viewBox="0 0 40 40" version="1.1" xmlns="http://www.w3.org/2000/svg" xmlns:xlink="http://www.w3.org/1999/xlink">
    <!-- Generator: Sketch 3.8.3 (29802) - http://www.bohemiancoding.com/sketch -->
    <title>Group 20</title>
    <desc>Created with Sketch.</desc>
    <defs></defs>
    <g id="Page-1" stroke="none" stroke-width="1" fill="none" fill-rule="evenodd">
        <g id="Group-20" fill="#666666">
            <path d="M36.173913,0 L7.73913043,0 C5.65217391,0 3.91304348,1.70175439 3.91304348,3.74385965 L3.91304348,7.65789474 L0,7.65789474 L0,9.35964912 L3.91304348,9.35964912 L3.91304348,15.3157895 L0,15.3157895 L0,17.0175439 L3.91304348,17.0175439 L3.91304348,22.9736842 L0,22.9736842 L0,24.6754386 L3.91304348,24.6754386 L3.91304348,30.6315789 L0,30.6315789 L0,32.3333333 L3.91304348,32.3333333 L3.91304348,36.2473684 C3.91304348,38.2894737 5.65217391,39.9912281 7.73913043,39.9912281 L36.173913,39.9912281 C38.2608696,39.9912281 40,38.2894737 40,36.2473684 L40,3.74385965 C40,1.70175439 38.2608696,0 36.173913,0 L36.173913,0 Z M38.2608696,36.2473684 C38.2608696,37.3535088 37.3043478,38.2894737 36.173913,38.2894737 L7.73913043,38.2894737 C6.60869565,38.2894737 5.65217391,37.3535088 5.65217391,36.2473684 L5.65217391,32.3333333 L9.56521739,32.3333333 L9.56521739,30.6315789 L5.65217391,30.6315789 L5.65217391,24.6754386 L9.56521739,24.6754386 L9.56521739,22.9736842 L5.65217391,22.9736842 L5.65217391,17.0175439 L9.56521739,17.0175439 L9.56521739,15.3157895 L5.65217391,15.3157895 L5.65217391,9.35964912 L9.56521739,9.35964912 L9.56521739,7.65789474 L5.65217391,7.65789474 L5.65217391,3.74385965 C5.65217391,2.6377193 6.60869565,1.70175439 7.73913043,1.70175439 L36.173913,1.70175439 C37.3043478,1.70175439 38.2608696,2.6377193 38.2608696,3.74385965 L38.2608696,36.2473684 L38.2608696,36.2473684 Z" id="Shape"></path>
            <path d="M29.4347826,21.2315789 C28.9130435,21.4868421 28.4782609,21.7421053 28.0434783,22.0824561 L27.6086957,22.422807 C27.3478261,22.5929825 26.9130435,22.6780702 26.6521739,22.422807 L21.5217391,17.9131579 C21.4347826,17.8280702 21.3478261,17.7429825 21.3478261,17.6578947 C21.3478261,17.572807 21.4347826,17.4877193 21.5217391,17.4026316 L21.9565217,17.0622807 C22.3913043,16.7219298 22.6521739,16.2964912 22.9130435,15.7859649 L23.173913,15.1903509 L17.2608696,10 L16.7391304,10.1701754 C16.2173913,10.4254386 15.7826087,10.6807018 15.3478261,11.0210526 C13.7826087,12.3824561 13,13.9991228 13,15.8710526 C13,17.9131579 14.0434783,19.9552632 15.9565217,21.6570175 L22.6521739,27.5280702 C24.5652174,29.1447368 26.826087,30.0807018 29.173913,30.0807018 C31.173913,30.0807018 33.0869565,29.3149123 34.6521739,28.0385965 C35.0869565,27.6982456 35.3478261,27.272807 35.6086957,26.7622807 L35.8695652,26.2517544 L29.9565217,21.0614035 L29.4347826,21.2315789 L29.4347826,21.2315789 Z M33.4347826,26.677193 C32.2173913,27.6982456 30.7391304,28.2938596 29.173913,28.2938596 C27.2608696,28.2938596 25.3478261,27.5280702 23.7826087,26.1666667 L17.0869565,20.295614 C15.5217391,18.9342105 14.6521739,17.3175439 14.6521739,15.7008772 C14.6521739,14.4245614 15.3478261,13.1482456 16.4782609,12.127193 C16.6521739,12.0421053 16.7391304,11.9570175 16.9130435,11.8719298 L20.826087,15.445614 C20.826087,15.445614 20.7391304,15.5307018 20.6521739,15.6157895 L20.2173913,15.9561404 C19.7826087,16.2964912 19.5217391,16.8921053 19.5217391,17.4877193 C19.5217391,18.0833333 19.7826087,18.5938596 20.2173913,19.0192982 L25.3478261,23.5289474 C26.2173913,24.2947368 27.7826087,24.2947368 28.6521739,23.5289474 L29.0869565,23.1885965 C29.2608696,23.1035088 29.3478261,23.0184211 29.5217391,22.9333333 L33.6086957,26.5070175 C33.6086957,26.5070175 33.5217391,26.5921053 33.4347826,26.677193 L33.4347826,26.677193 Z" id="Shape"></path>
        </g>
    </g>
</svg>