<?xml version="1.0" encoding="UTF-8" standalone="no"?>
<svg width="40px" height="40px" viewBox="0 0 40 40" version="1.1" xmlns="http://www.w3.org/2000/svg" xmlns:xlink="http://www.w3.org/1999/xlink">
    <!-- Generator: Sketch 3.8.3 (29802) - http://www.bohemiancoding.com/sketch -->
    <title>Group 14</title>
    <desc>Created with Sketch.</desc>
    <defs></defs>
    <g id="Page-1" stroke="none" stroke-width="1" fill="none" fill-rule="evenodd">
        <g id="Group-14" fill="#FFFFFF">
            <path d="M35.7142857,10.3703704 L37.1428571,10.3703704 L37.1428571,1.44585503 C37.1428571,1.44585503 37.1428571,6.74604405e-14 35.8037458,6.74604405e-14 L1.49605887,6.74604405e-14 C1.49605887,6.74604405e-14 -2.84217094e-13,6.74604405e-14 -2.84217094e-13,1.47677951 L-2.84217094e-13,10.3703704 L1.42857143,10.3703704 L1.42857143,32.6345486 C1.42857143,32.6345486 1.42857143,35.5555556 4.38319615,35.5555556 L5.23733956,35.5555556 L20.7285714,35.5555556 C22.6842857,38.2488889 25.7842857,40 29.2857143,40 C35.2042857,40 40,35.0266667 40,28.8888889 C40,25.2577778 38.3114286,22.042963 35.7142857,20.0148148 L35.7142857,10.3703704 Z M1.42857143,1.48148148 L35.7142857,1.48148148 L35.7142857,8.88888889 L1.42857143,8.88888889 L1.42857143,1.48148148 L1.42857143,1.48148148 Z M2.85714286,10.3703704 L34.2857143,10.3703704 L34.2857143,19.0651852 C32.7928571,18.2459259 31.0928571,17.7777778 29.2857143,17.7777778 C28.0314286,17.7777778 26.8328571,18.0118519 25.7142857,18.4237037 L25.7142857,16.2962963 L11.4285714,16.2962963 L11.4285714,19.2592593 L23.9571429,19.2592593 C20.7414286,21.1777778 18.5714286,24.7674074 18.5714286,28.8888889 C18.5714286,30.762963 19.0228571,32.5259259 19.8128571,34.0740741 L2.85714286,34.0740741 L2.85714286,10.3703704 Z M29.2857143,38.5185185 C24.1571429,38.5185185 20,34.2074074 20,28.8888889 C20,23.5703704 24.1571429,19.2592593 29.2857143,19.2592593 C34.4142857,19.2592593 38.5714286,23.5703704 38.5714286,28.8888889 C38.5714286,34.2074074 34.4142857,38.5185185 29.2857143,38.5185185 L29.2857143,38.5185185 Z" id="Shape"></path>
            <polygon id="Shape" points="30.04 31.3333333 27.01 28.1896296 26 29.2385185 30.04 33.4281481 38.12 25.0474074 37.11 24"></polygon>
        </g>
    </g>
</svg>