<?xml version="1.0" encoding="UTF-8" standalone="no"?>
<svg width="40px" height="40px" viewBox="0 0 40 40" version="1.1" xmlns="http://www.w3.org/2000/svg" xmlns:xlink="http://www.w3.org/1999/xlink">
    <!-- Generator: Sketch 3.8.3 (29802) - http://www.bohemiancoding.com/sketch -->
    <title>Group 41</title>
    <desc>Created with Sketch.</desc>
    <defs></defs>
    <g id="Page-1" stroke="none" stroke-width="1" fill="none" fill-rule="evenodd">
        <g id="Group-41" fill="#666666">
            <path d="M37.0357316,27.9262222 C34.7379538,26.0795556 32.9486205,25.2186667 31.4037316,25.2186667 C29.5201761,25.2186667 28.2863983,26.4706667 26.9806205,27.7951111 L26.5561761,28.2231111 C26.3828427,28.3968889 26.1663983,28.4764444 25.8708427,28.4764444 L25.8695094,28.4764444 C24.7841761,28.4764444 22.4512872,27.4373333 17.5037316,22.4902222 C15.2655094,20.2515556 13.6259538,18.344 12.6339538,16.8186667 C12.0103983,15.8586667 11.0668427,14.1417778 11.7726205,13.4377778 L12.1966205,13.0173333 C14.5797316,10.6711111 16.6383983,8.644 12.0708427,2.96133333 C10.4681761,0.968444444 8.90195383,0 7.28639828,0 C5.10684272,0 3.44106494,1.75111111 1.97128717,3.29466667 C1.72017605,3.55911111 1.47573161,3.81644444 1.23706494,4.05555556 C-0.417157279,5.70933333 -0.411823946,9.32577778 1.24995383,13.732 C3.07839828,18.5777778 6.68950939,23.8511111 11.4179538,28.5786667 C19.8463983,37.0075556 27.8521761,39.9986667 32.1477316,39.9986667 C33.8161761,39.9986667 35.1272872,39.5688889 35.9388427,38.7555556 C36.1752872,38.5195556 36.4299538,38.2777778 36.6917316,38.0293333 C38.2823983,36.5186667 40.0863983,34.8066667 39.9930649,32.5444444 C39.9281761,30.9844444 38.9601761,29.4737778 37.0357316,27.9262222 L37.0357316,27.9262222 Z M35.7655094,37.0537778 C35.4961761,37.3097778 35.2335094,37.5595556 34.9877316,37.8048889 C34.4335094,38.3591111 33.4508427,38.6533333 32.1472872,38.6533333 C28.1090649,38.6533333 20.5055094,35.7662222 12.3686205,27.6275556 C7.77350939,23.0328889 4.27084272,17.9293333 2.50817605,13.2577778 C1.08150939,9.47688889 0.95573161,6.23733333 2.18773161,5.00666667 C2.43484272,4.75955556 2.68684272,4.49466667 2.94550939,4.22222222 C4.22906494,2.87466667 5.68328717,1.34533333 7.28639828,1.34533333 C8.4526205,1.34533333 9.70995383,2.17244444 11.0223983,3.80444444 C14.8281761,8.53866667 13.4815094,9.86444444 11.2535094,12.0595556 L10.8210649,12.4862222 C9.77173161,13.5346667 10.0028427,15.2395556 11.5068427,17.5515556 C12.5503983,19.1555556 14.2472872,21.1364444 16.5530649,23.4408889 C20.8459538,27.7337778 23.8939538,29.8213333 25.8699538,29.8213333 L25.8712872,29.8213333 C26.5281761,29.8213333 27.0797316,29.6031111 27.5081761,29.1737778 L27.9392872,28.7386667 C29.1370649,27.5235556 30.0841761,26.5626667 31.4046205,26.5626667 C32.6095094,26.5626667 34.1761761,27.3524444 36.1926205,28.9737778 C37.7761761,30.2448889 38.6019538,31.4653333 38.6490649,32.5991111 C38.7170649,34.2515556 37.1486205,35.7413333 35.7655094,37.0537778 L35.7655094,37.0537778 Z" id="Shape-Copy"></path>
        </g>
    </g>
</svg>