<?xml version="1.0" encoding="UTF-8" standalone="no"?>
<svg width="29px" height="38px" viewBox="0 0 29 38" version="1.1" xmlns="http://www.w3.org/2000/svg" xmlns:xlink="http://www.w3.org/1999/xlink">
    <!-- Generator: Sketch 3.8.3 (29802) - http://www.bohemiancoding.com/sketch -->
    <title>Group 17</title>
    <desc>Created with Sketch.</desc>
    <defs></defs>
    <g id="Page-1" stroke="none" stroke-width="1" fill="none" fill-rule="evenodd">
        <g id="Group-17" fill="#666666">
            <g id="noun_103314_cc">
                <g id="Group">
                    <g id="Shape">
                        <path d="M7.25,13.4748864 L7.25,9.89209091 C7.25,5.33252273 10.3670735,1.89438636 14.5,1.89438636 C18.7011618,1.89438636 21.75,5.13043182 21.75,9.58895455 C21.75,10.0661136 22.1316912,10.4525909 22.6029412,10.4525909 C23.0741912,10.4525909 23.4558824,10.0661136 23.4558824,9.58895455 C23.4558824,4.21756818 19.6057059,0.167113636 14.5,0.167113636 C9.39429412,0.167113636 5.54411765,4.34840909 5.54411765,9.89209091 L5.54411765,13.4748864 L2.73666176,13.4748864 C1.32589706,13.4748864 0.177838235,14.6373409 0.177838235,16.0657955 L0.177838235,35.2419773 C0.177838235,36.6704318 1.32589706,37.8328864 2.73666176,37.8328864 L26.2633382,37.8328864 C27.6741029,37.8328864 28.8221618,36.6704318 28.8221618,35.2419773 L28.8221618,16.0657955 C28.8221618,14.6373409 27.6745294,13.4748864 26.2633382,13.4748864 L7.25,13.4748864 Z M27.1162794,35.2419773 C27.1162794,35.7187045 26.7341618,36.1056136 26.2633382,36.1056136 L2.73666176,36.1056136 C2.26541176,36.1056136 1.88372059,35.7187045 1.88372059,35.2419773 L1.88372059,16.0657955 C1.88372059,15.5886364 2.26541176,15.2021591 2.73666176,15.2021591 L26.2633382,15.2021591 C26.7341618,15.2021591 27.1162794,15.5886364 27.1162794,16.0657955 L27.1162794,35.2419773 L27.1162794,35.2419773 Z"></path>
                        <path d="M18.7937059,24.0233409 C18.7937059,21.6263182 16.8673382,19.6762273 14.5004265,19.6762273 C12.1326618,19.6762273 10.2067206,21.62675 10.2067206,24.0233409 C10.2067206,26.1513409 11.7253824,27.9239545 13.7225441,28.29575 L13.7225441,32.3133864 C13.7225441,32.7901136 14.1046618,33.1770227 14.5754853,33.1770227 C15.0463088,33.1770227 15.4284265,32.7901136 15.4284265,32.3133864 L15.4284265,28.2659545 C17.3505294,27.835 18.7937059,26.0977955 18.7937059,24.0233409 L18.7937059,24.0233409 Z M14.5,26.6436136 C13.0730294,26.6436136 11.9121765,25.4677727 11.9121765,24.0233409 C11.9121765,22.5789091 13.0734559,21.4035 14.5,21.4035 C15.9265441,21.4035 17.0873971,22.5789091 17.0873971,24.0233409 C17.0873971,25.4677727 15.9269706,26.6436136 14.5,26.6436136 L14.5,26.6436136 Z"></path>
                    </g>
                </g>
            </g>
        </g>
    </g>
</svg>