<?xml version="1.0" encoding="UTF-8" standalone="no"?>
<svg width="43px" height="62px" viewBox="0 0 43 62" version="1.1" xmlns="http://www.w3.org/2000/svg" xmlns:xlink="http://www.w3.org/1999/xlink">
    <!-- Generator: Sketch 3.8.3 (29802) - http://www.bohemiancoding.com/sketch -->
    <title>Group 269 Copy</title>
    <desc>Created with Sketch.</desc>
    <defs>
        <path d="M22.167846,20.5047439 C22.0404157,20.5396337 21.7549563,20.5585428 21.7549563,20.5585428 L16.219395,20.577126 C16.219395,20.577126 15.9167097,20.5640447 15.7914068,20.5372729 C15.5025211,20.4755506 14.9851699,20.3449915 14.7214193,20.1562628 C12.112902,18.2897185 1.75650316,10.842664 0.88360076,9.64219982 C-0.115844464,8.26770685 0.00453677877,7.25680855 0.00453677877,7.25680855 C0.00453677877,7.25680855 0.0045367788,4.11987879 0.00453677877,2.05993939 C0.00453677874,1.95399252e-14 2.16547777,1.95399252e-14 2.16547777,1.95399252e-14 C2.16547777,1.95399252e-14 33.1881278,2.89767377e-10 35.5811767,1.95399252e-14 C37.9742257,-2.89728302e-10 37.9742245,2.0376448 37.9742245,2.0376448 L37.9742245,6.99135408 C37.9742245,6.99135408 37.9923711,7.30174878 37.9760954,7.45448578 C37.9546057,7.65615316 37.9025304,8.01755538 37.6400162,8.57960603 C37.4990265,8.88146923 37.2763991,9.23671298 37.0122365,9.66627161 C36.066985,11.2033583 26.6389421,17.8049966 23.601507,19.9087635 C23.1744229,20.2045675 22.5040672,20.4126881 22.167846,20.5047439 Z" id="path-1"></path>
        <mask id="mask-2" maskContentUnits="userSpaceOnUse" maskUnits="objectBoundingBox" x="0" y="0" width="37.982874" height="20.577126" fill="white">
            <use xlink:href="#path-1"></use>
        </mask>
        <path d="M22.167846,53.7115235 C22.0404157,53.7464133 21.7549563,53.7653225 21.7549563,53.7653225 L16.219395,53.7839057 C16.219395,53.7839057 15.9167097,53.7708243 15.7914068,53.7440526 C15.5025211,53.6823303 14.9851699,53.5517712 14.7214193,53.3630424 C12.112902,51.4964982 1.75650316,44.0494437 0.88360076,42.8489795 C-0.115844464,41.4744865 0.00453677877,40.4635882 0.00453677877,40.4635882 C0.00453677877,40.4635882 0.0045367788,37.3266584 0.00453677877,35.2667191 C0.00453677874,33.2067797 2.16547777,33.2067797 2.16547777,33.2067797 C2.16547777,33.2067797 33.1881278,33.2067797 35.5811767,33.2067797 C37.9742257,33.2067797 37.9742245,35.2444245 37.9742245,35.2444245 L37.9742245,40.1981337 C37.9742245,40.1981337 37.9923711,40.5085284 37.9760954,40.6612654 C37.9546057,40.8629328 37.9025304,41.224335 37.6400162,41.7863857 C37.4990265,42.0882489 37.2763991,42.4434926 37.0122365,42.8730513 C36.066985,44.4101379 26.6389421,51.0117762 23.601507,53.1155432 C23.1744229,53.4113471 22.5040672,53.6194678 22.167846,53.7115235 Z" id="path-3"></path>
        <mask id="mask-4" maskContentUnits="userSpaceOnUse" maskUnits="objectBoundingBox" x="0" y="0" width="37.982874" height="20.577126" fill="white">
            <use xlink:href="#path-3"></use>
        </mask>
        <rect id="path-5" x="0" y="0" width="43" height="2.5220339" rx="1.26101695"></rect>
        <rect id="path-6" x="0" y="59.4779661" width="43" height="2.5220339" rx="1.26101695"></rect>
    </defs>
    <g id="Page-1" stroke="none" stroke-width="1" fill="none" fill-rule="evenodd">
        <g id="Group-269-Copy">
            <g id="Group-267">
                <g id="Group-39-Copy-3">
                    <g id="Group-12-Copy" transform="translate(2.554455, 3.993220)">
                        <g id="Group-11">
                            <use id="Rectangle-587" stroke="#4C4F58" mask="url(#mask-2)" stroke-width="5" fill="#FFFFFF" xlink:href="#path-1"></use>
                            <use id="Rectangle-587-Copy-2" stroke="#4C4F58" mask="url(#mask-4)" stroke-width="5" fill="#FFFFFF" transform="translate(18.991437, 43.495343) scale(1, -1) translate(-18.991437, -43.495343) " xlink:href="#path-3"></use>
                            <path d="M19.9141135,16.6187291 L21.0435169,16.6187291 L21.7418453,16.6187292 L22.5742833,16.4089934 L27.719425,12.6886131 L31.9838334,9.64796732 L33.7208545,8.33035439 C33.7208545,8.33035439 34.0432612,8.15803916 34.144327,7.97449033 C34.2453927,7.79094151 34.1443268,7.56127262 34.1443268,7.56127262 L33.115974,7.56127263 L3.96959722,7.56127262 C3.96959722,7.56127262 3.78684832,7.82559846 3.96959722,7.97449033 C4.15234611,8.1233822 4.43192567,8.3303544 4.43192567,8.3303544 L5.91753744,9.44983724 L9.73558039,12.2917563 L15.4147475,16.3362188 C15.4147475,16.3362188 15.6655956,16.6187293 16.3154385,16.6187293 C16.6578377,16.6187293 17.2978795,16.6187292 17.8268544,16.6187292 C17.7131163,16.8038058 17.6477885,17.021581 17.6477885,17.2546537 L17.6477885,18.0502549 L17.6477885,44.3092854 C17.6477885,44.9764807 18.1961629,45.5253052 18.8726171,45.5253052 C19.5537874,45.5253052 20.0974457,44.977724 20.0974457,44.3022483 L20.0974457,18.6841258 L20.0974457,17.2676905 C20.0974457,17.0291024 20.0303373,16.8068619 19.9141135,16.6187291 Z" id="Combined-Shape" fill="#70DDEF"></path>
                            <path d="M18.664436,16.6191271 C18.6793578,16.6188676 18.6872511,16.6187292 18.6872511,16.6187292 L18.664436,16.6012492 L18.664436,16.5975171 L18.6595647,16.5975171 L6.86530689,7.56127263 L4.14958348,7.56127263 C4.14958348,7.56127263 3.55478625,7.56127263 4.14958348,8.17484383 C4.34056516,8.3718536 4.6609298,8.54103618 4.896188,8.70903247 C5.3936227,9.0642472 5.79611925,9.33982082 5.79611925,9.33982082 L9.66423513,12.2265308 L15.3280005,16.2771168 C15.3280005,16.2771168 15.7447269,16.6466752 16.27317,16.6466752 C16.4217689,16.6466752 16.596961,16.6506103 16.8980557,16.646675 C17.1365613,16.6435577 17.3990646,16.6396888 17.6477885,16.6358334 L17.6477885,42.7627732 C17.6477885,43.6544359 18.1029571,44.2593432 18.664436,44.0882612 L17.6477885,44.3980325 C17.9694621,44.300019 18.664436,43.3551929 18.664436,42.4509072 L18.664436,18.8369305 L18.664436,17.1203694 L18.664436,16.6191271 Z" id="Combined-Shape-Copy-7" fill="#43B5DD"></path>
                            <path d="M21.5645898,49.6884647 L18.8983974,49.6884647 L16.3763772,49.6884647 C16.3763772,49.6884647 16.0459532,49.688465 15.7990442,49.5443142 C15.5521353,49.4001633 5.42182808,44.2130002 5.42182808,44.2130002 L4.50409976,43.8242348 L33.31447,43.8242348 C33.31447,43.8242348 22.5912767,49.4235854 22.3595373,49.5560252 C22.1277979,49.688465 21.5645898,49.6884647 21.5645898,49.6884647 Z" id="Path-10161-Copy" fill="#6CC8DE" transform="translate(18.909285, 46.756350) scale(1, -1) translate(-18.909285, -46.756350) "></path>
                            <path d="M18.6441401,49.5859672 L18.6441401,49.669976 L16.8089848,49.669976 C16.8089848,49.669976 16.5039714,49.6869992 16.1201196,49.5859672 C15.7362677,49.4849352 15.7129998,49.4370446 15.4402329,49.2777974 C15.2570526,49.1708527 10.2267016,46.6022 6.94215798,44.9264567 C5.33580976,44.1069129 4.55431081,43.7336301 4.55431081,43.7336301 L7.11182841,43.7336301 L18.6441401,49.5859672 Z" id="Path-10161-Copy-4" fill="#43B5DD" transform="translate(11.599225, 46.702344) scale(1, -1) translate(-11.599225, -46.702344) "></path>
                        </g>
                    </g>
                    <use id="Rectangle-671" fill="#4C4F58" xlink:href="#path-5"></use>
                    <use id="Rectangle-671-Copy" fill="#4C4F58" xlink:href="#path-6"></use>
                </g>
            </g>
        </g>
    </g>
</svg>