<?xml version="1.0" encoding="UTF-8" standalone="no"?>
<svg width="19px" height="18px" viewBox="0 0 19 18" version="1.1" xmlns="http://www.w3.org/2000/svg" xmlns:xlink="http://www.w3.org/1999/xlink">
    <!-- Generator: Sketch 3.8.3 (29802) - http://www.bohemiancoding.com/sketch -->
    <title>noun_128143_cc</title>
    <desc>Created with Sketch.</desc>
    <defs></defs>
    <g id="Page-1" stroke="none" stroke-width="1" fill="none" fill-rule="evenodd">
        <g id="Artboard" transform="translate(-981.000000, -276.000000)" fill="#666666">
            <g id="noun_128143_cc" transform="translate(981.000000, 276.000000)">
                <g id="Group">
                    <g transform="translate(0.530993, 0.000000)" id="Shape">
                        <path d="M17.108758,17.6599156 C16.9323876,17.6599156 16.7562928,17.5926744 16.6215347,17.4581919 L0.431280807,1.26793801 C0.162040329,0.998973114 0.162040329,0.562731889 0.431280807,0.29376699 C0.700245706,0.0245265123 1.13676251,0.0245265123 1.40545183,0.29376699 L17.5957058,16.4840209 C17.8649462,16.7532614 17.8649462,17.189227 17.5957058,17.4581919 C17.4612233,17.5926744 17.2851285,17.6599156 17.108758,17.6599156 L17.108758,17.6599156 Z"></path>
                        <path d="M0.918504108,17.6599156 C0.742133682,17.6599156 0.565763256,17.5926744 0.431280807,17.4581919 C0.162040329,17.1889515 0.162040329,16.7529858 0.431280807,16.4840209 L16.6215347,0.29376699 C16.8907752,0.0245265123 17.3267409,0.0245265123 17.5957058,0.29376699 C17.8649462,0.562731889 17.8649462,0.998973114 17.5957058,1.26793801 L1.40545183,17.4581919 C1.27124496,17.5926744 1.09487453,17.6599156 0.918504108,17.6599156 L0.918504108,17.6599156 Z"></path>
                    </g>
                </g>
            </g>
        </g>
    </g>
</svg>