<?xml version="1.0" encoding="UTF-8" standalone="no"?>
<svg width="75px" height="65px" viewBox="0 0 75 65" version="1.1" xmlns="http://www.w3.org/2000/svg" xmlns:xlink="http://www.w3.org/1999/xlink">
    <!-- Generator: Sketch 3.8.3 (29802) - http://www.bohemiancoding.com/sketch -->
    <title>Group 217 Copy</title>
    <desc>Created with Sketch.</desc>
    <defs>
        <rect id="path-1" x="0.711664556" y="0" width="58.1192721" height="49.7189189" rx="2"></rect>
        <mask id="mask-2" maskContentUnits="userSpaceOnUse" maskUnits="objectBoundingBox" x="0" y="0" width="58.1192721" height="49.7189189" fill="white">
            <use xlink:href="#path-1"></use>
        </mask>
        <rect id="path-3" x="0.711664556" y="0" width="58.1192721" height="14.9156757" rx="2"></rect>
        <mask id="mask-4" maskContentUnits="userSpaceOnUse" maskUnits="objectBoundingBox" x="0" y="0" width="58.1192721" height="14.9156757" fill="white">
            <use xlink:href="#path-3"></use>
        </mask>
        <rect id="path-5" x="9.01441771" y="28.1740541" width="1.66055063" height="1.6572973"></rect>
        <mask id="mask-6" maskContentUnits="userSpaceOnUse" maskUnits="objectBoundingBox" x="0" y="0" width="1.66055063" height="1.6572973" fill="white">
            <use xlink:href="#path-5"></use>
        </mask>
        <rect id="path-7" x="48.8676329" y="28.1740541" width="1.66055063" height="1.6572973"></rect>
        <mask id="mask-8" maskContentUnits="userSpaceOnUse" maskUnits="objectBoundingBox" x="0" y="0" width="1.66055063" height="1.6572973" fill="white">
            <use xlink:href="#path-7"></use>
        </mask>
        <rect id="path-9" x="42.2254303" y="28.1740541" width="1.66055063" height="1.6572973"></rect>
        <mask id="mask-10" maskContentUnits="userSpaceOnUse" maskUnits="objectBoundingBox" x="0" y="0" width="1.66055063" height="1.6572973" fill="white">
            <use xlink:href="#path-9"></use>
        </mask>
        <rect id="path-11" x="35.5832278" y="28.1740541" width="1.66055063" height="1.6572973"></rect>
        <mask id="mask-12" maskContentUnits="userSpaceOnUse" maskUnits="objectBoundingBox" x="0" y="0" width="1.66055063" height="1.6572973" fill="white">
            <use xlink:href="#path-11"></use>
        </mask>
        <rect id="path-13" x="28.9410253" y="28.1740541" width="1.66055063" height="1.6572973"></rect>
        <mask id="mask-14" maskContentUnits="userSpaceOnUse" maskUnits="objectBoundingBox" x="0" y="0" width="1.66055063" height="1.6572973" fill="white">
            <use xlink:href="#path-13"></use>
        </mask>
        <rect id="path-15" x="22.2988228" y="28.1740541" width="1.66055063" height="1.6572973"></rect>
        <mask id="mask-16" maskContentUnits="userSpaceOnUse" maskUnits="objectBoundingBox" x="0" y="0" width="1.66055063" height="1.6572973" fill="white">
            <use xlink:href="#path-15"></use>
        </mask>
        <rect id="path-17" x="15.6566202" y="28.1740541" width="1.66055063" height="1.6572973"></rect>
        <mask id="mask-18" maskContentUnits="userSpaceOnUse" maskUnits="objectBoundingBox" x="0" y="0" width="1.66055063" height="1.6572973" fill="white">
            <use xlink:href="#path-17"></use>
        </mask>
        <rect id="path-19" x="9.01441771" y="33.1459459" width="1.66055063" height="1.6572973"></rect>
        <mask id="mask-20" maskContentUnits="userSpaceOnUse" maskUnits="objectBoundingBox" x="0" y="0" width="1.66055063" height="1.6572973" fill="white">
            <use xlink:href="#path-19"></use>
        </mask>
        <rect id="path-21" x="48.8676329" y="33.1459459" width="1.66055063" height="1.6572973"></rect>
        <mask id="mask-22" maskContentUnits="userSpaceOnUse" maskUnits="objectBoundingBox" x="0" y="0" width="1.66055063" height="1.6572973" fill="white">
            <use xlink:href="#path-21"></use>
        </mask>
        <rect id="path-23" x="42.2254303" y="33.1459459" width="1.66055063" height="1.6572973"></rect>
        <mask id="mask-24" maskContentUnits="userSpaceOnUse" maskUnits="objectBoundingBox" x="0" y="0" width="1.66055063" height="1.6572973" fill="white">
            <use xlink:href="#path-23"></use>
        </mask>
        <rect id="path-25" x="35.5832278" y="33.1459459" width="1.66055063" height="1.6572973"></rect>
        <mask id="mask-26" maskContentUnits="userSpaceOnUse" maskUnits="objectBoundingBox" x="0" y="0" width="1.66055063" height="1.6572973" fill="white">
            <use xlink:href="#path-25"></use>
        </mask>
        <rect id="path-27" x="28.9410253" y="33.1459459" width="1.66055063" height="1.6572973"></rect>
        <mask id="mask-28" maskContentUnits="userSpaceOnUse" maskUnits="objectBoundingBox" x="0" y="0" width="1.66055063" height="1.6572973" fill="white">
            <use xlink:href="#path-27"></use>
        </mask>
        <rect id="path-29" x="22.2988228" y="33.1459459" width="1.66055063" height="1.6572973"></rect>
        <mask id="mask-30" maskContentUnits="userSpaceOnUse" maskUnits="objectBoundingBox" x="0" y="0" width="1.66055063" height="1.6572973" fill="white">
            <use xlink:href="#path-29"></use>
        </mask>
        <rect id="path-31" x="15.6566202" y="33.1459459" width="1.66055063" height="1.6572973"></rect>
        <mask id="mask-32" maskContentUnits="userSpaceOnUse" maskUnits="objectBoundingBox" x="0" y="0" width="1.66055063" height="1.6572973" fill="white">
            <use xlink:href="#path-31"></use>
        </mask>
        <rect id="path-33" x="9.01441771" y="38.1178378" width="1.66055063" height="1.6572973"></rect>
        <mask id="mask-34" maskContentUnits="userSpaceOnUse" maskUnits="objectBoundingBox" x="0" y="0" width="1.66055063" height="1.6572973" fill="white">
            <use xlink:href="#path-33"></use>
        </mask>
        <rect id="path-35" x="48.8676329" y="38.1178378" width="1.66055063" height="1.6572973"></rect>
        <mask id="mask-36" maskContentUnits="userSpaceOnUse" maskUnits="objectBoundingBox" x="0" y="0" width="1.66055063" height="1.6572973" fill="white">
            <use xlink:href="#path-35"></use>
        </mask>
        <rect id="path-37" x="42.2254303" y="38.1178378" width="1.66055063" height="1.6572973"></rect>
        <mask id="mask-38" maskContentUnits="userSpaceOnUse" maskUnits="objectBoundingBox" x="0" y="0" width="1.66055063" height="1.6572973" fill="white">
            <use xlink:href="#path-37"></use>
        </mask>
        <rect id="path-39" x="35.5832278" y="38.1178378" width="1.66055063" height="1.6572973"></rect>
        <mask id="mask-40" maskContentUnits="userSpaceOnUse" maskUnits="objectBoundingBox" x="0" y="0" width="1.66055063" height="1.6572973" fill="white">
            <use xlink:href="#path-39"></use>
        </mask>
        <rect id="path-41" x="28.9410253" y="38.1178378" width="1.66055063" height="1.6572973"></rect>
        <mask id="mask-42" maskContentUnits="userSpaceOnUse" maskUnits="objectBoundingBox" x="0" y="0" width="1.66055063" height="1.6572973" fill="white">
            <use xlink:href="#path-41"></use>
        </mask>
        <rect id="path-43" x="22.2988228" y="38.1178378" width="1.66055063" height="1.6572973"></rect>
        <mask id="mask-44" maskContentUnits="userSpaceOnUse" maskUnits="objectBoundingBox" x="0" y="0" width="1.66055063" height="1.6572973" fill="white">
            <use xlink:href="#path-43"></use>
        </mask>
        <rect id="path-45" x="15.6566202" y="38.1178378" width="1.66055063" height="1.6572973"></rect>
        <mask id="mask-46" maskContentUnits="userSpaceOnUse" maskUnits="objectBoundingBox" x="0" y="0" width="1.66055063" height="1.6572973" fill="white">
            <use xlink:href="#path-45"></use>
        </mask>
        <rect id="path-47" x="9.01441771" y="43.0897297" width="1.66055063" height="1.6572973"></rect>
        <mask id="mask-48" maskContentUnits="userSpaceOnUse" maskUnits="objectBoundingBox" x="0" y="0" width="1.66055063" height="1.6572973" fill="white">
            <use xlink:href="#path-47"></use>
        </mask>
        <rect id="path-49" x="48.8676329" y="43.0897297" width="1.66055063" height="1.6572973"></rect>
        <mask id="mask-50" maskContentUnits="userSpaceOnUse" maskUnits="objectBoundingBox" x="0" y="0" width="1.66055063" height="1.6572973" fill="white">
            <use xlink:href="#path-49"></use>
        </mask>
        <rect id="path-51" x="42.2254303" y="43.0897297" width="1.66055063" height="1.6572973"></rect>
        <mask id="mask-52" maskContentUnits="userSpaceOnUse" maskUnits="objectBoundingBox" x="0" y="0" width="1.66055063" height="1.6572973" fill="white">
            <use xlink:href="#path-51"></use>
        </mask>
        <rect id="path-53" x="35.5832278" y="43.0897297" width="1.66055063" height="1.6572973"></rect>
        <mask id="mask-54" maskContentUnits="userSpaceOnUse" maskUnits="objectBoundingBox" x="0" y="0" width="1.66055063" height="1.6572973" fill="white">
            <use xlink:href="#path-53"></use>
        </mask>
        <rect id="path-55" x="28.9410253" y="43.0897297" width="1.66055063" height="1.6572973"></rect>
        <mask id="mask-56" maskContentUnits="userSpaceOnUse" maskUnits="objectBoundingBox" x="0" y="0" width="1.66055063" height="1.6572973" fill="white">
            <use xlink:href="#path-55"></use>
        </mask>
        <rect id="path-57" x="22.2988228" y="43.0897297" width="1.66055063" height="1.6572973"></rect>
        <mask id="mask-58" maskContentUnits="userSpaceOnUse" maskUnits="objectBoundingBox" x="0" y="0" width="1.66055063" height="1.6572973" fill="white">
            <use xlink:href="#path-57"></use>
        </mask>
        <rect id="path-59" x="15.6566202" y="43.0897297" width="1.66055063" height="1.6572973"></rect>
        <mask id="mask-60" maskContentUnits="userSpaceOnUse" maskUnits="objectBoundingBox" x="0" y="0" width="1.66055063" height="1.6572973" fill="white">
            <use xlink:href="#path-59"></use>
        </mask>
        <rect id="path-61" x="48.8676329" y="23.2021622" width="1.66055063" height="1.6572973"></rect>
        <mask id="mask-62" maskContentUnits="userSpaceOnUse" maskUnits="objectBoundingBox" x="0" y="0" width="1.66055063" height="1.6572973" fill="white">
            <use xlink:href="#path-61"></use>
        </mask>
        <rect id="path-63" x="42.2254303" y="23.2021622" width="1.66055063" height="1.6572973"></rect>
        <mask id="mask-64" maskContentUnits="userSpaceOnUse" maskUnits="objectBoundingBox" x="0" y="0" width="1.66055063" height="1.6572973" fill="white">
            <use xlink:href="#path-63"></use>
        </mask>
        <rect id="path-65" x="35.5832278" y="23.2021622" width="1.66055063" height="1.6572973"></rect>
        <mask id="mask-66" maskContentUnits="userSpaceOnUse" maskUnits="objectBoundingBox" x="0" y="0" width="1.66055063" height="1.6572973" fill="white">
            <use xlink:href="#path-65"></use>
        </mask>
    </defs>
    <g id="Page-1" stroke="none" stroke-width="1" fill="none" fill-rule="evenodd">
        <g id="Group-217-Copy">
            <g id="Group-216">
                <g id="Group-215">
                    <g id="Group-214" transform="translate(15.313642, 0.000000)">
                        <use id="Rectangle-730" stroke="#4C4F58" mask="url(#mask-2)" stroke-width="4" fill="#FFFFFF" xlink:href="#path-1"></use>
                        <path d="M2.75837982,14.8715728 L17.6500107,14.8715728 C17.6500107,14.8715728 17.6556864,19.3239408 21.9371989,30.6284401 C26.2187114,41.9329395 32.4690732,47.7443832 32.4690732,47.7443832 L2.75837982,47.7443832 L2.75837982,14.8715728 Z" id="Path-10548" fill="#F4F4F4"></path>
                        <use id="Rectangle-730-Copy" stroke="#4C4F58" mask="url(#mask-4)" stroke-width="4" fill="#E26A73" xlink:href="#path-3"></use>
                        <rect id="Rectangle-732" fill="#CCC6C6" x="9.01441771" y="18.2302703" width="41.4991711" height="3.31459459"></rect>
                        <use id="Rectangle-733" stroke="#979797" mask="url(#mask-6)" stroke-width="2" fill="#D8D8D8" xlink:href="#path-5"></use>
                        <use id="Rectangle-733-Copy" stroke="#979797" mask="url(#mask-8)" stroke-width="2" fill="#D8D8D8" xlink:href="#path-7"></use>
                        <use id="Rectangle-733-Copy-2" stroke="#979797" mask="url(#mask-10)" stroke-width="2" fill="#D8D8D8" xlink:href="#path-9"></use>
                        <use id="Rectangle-733-Copy-3" stroke="#979797" mask="url(#mask-12)" stroke-width="2" fill="#D8D8D8" xlink:href="#path-11"></use>
                        <use id="Rectangle-733-Copy-4" stroke="#979797" mask="url(#mask-14)" stroke-width="2" fill="#D8D8D8" xlink:href="#path-13"></use>
                        <use id="Rectangle-733-Copy-5" stroke="#979797" mask="url(#mask-16)" stroke-width="2" fill="#D8D8D8" xlink:href="#path-15"></use>
                        <use id="Rectangle-733-Copy-6" stroke="#979797" mask="url(#mask-18)" stroke-width="2" fill="#D8D8D8" xlink:href="#path-17"></use>
                        <use id="Rectangle-733-Copy-18" stroke="#979797" mask="url(#mask-20)" stroke-width="2" fill="#D8D8D8" xlink:href="#path-19"></use>
                        <use id="Rectangle-733-Copy-17" stroke="#979797" mask="url(#mask-22)" stroke-width="2" fill="#D8D8D8" xlink:href="#path-21"></use>
                        <use id="Rectangle-733-Copy-16" stroke="#979797" mask="url(#mask-24)" stroke-width="2" fill="#D8D8D8" xlink:href="#path-23"></use>
                        <use id="Rectangle-733-Copy-15" stroke="#979797" mask="url(#mask-26)" stroke-width="2" fill="#D8D8D8" xlink:href="#path-25"></use>
                        <use id="Rectangle-733-Copy-14" stroke="#979797" mask="url(#mask-28)" stroke-width="2" fill="#D8D8D8" xlink:href="#path-27"></use>
                        <use id="Rectangle-733-Copy-13" stroke="#979797" mask="url(#mask-30)" stroke-width="2" fill="#D8D8D8" xlink:href="#path-29"></use>
                        <use id="Rectangle-733-Copy-7" stroke="#979797" mask="url(#mask-32)" stroke-width="2" fill="#D8D8D8" xlink:href="#path-31"></use>
                        <use id="Rectangle-733-Copy-32" stroke="#979797" mask="url(#mask-34)" stroke-width="2" fill="#D8D8D8" xlink:href="#path-33"></use>
                        <use id="Rectangle-733-Copy-31" stroke="#979797" mask="url(#mask-36)" stroke-width="2" fill="#D8D8D8" xlink:href="#path-35"></use>
                        <use id="Rectangle-733-Copy-30" stroke="#979797" mask="url(#mask-38)" stroke-width="2" fill="#D8D8D8" xlink:href="#path-37"></use>
                        <use id="Rectangle-733-Copy-29" stroke="#979797" mask="url(#mask-40)" stroke-width="2" fill="#D8D8D8" xlink:href="#path-39"></use>
                        <use id="Rectangle-733-Copy-28" stroke="#979797" mask="url(#mask-42)" stroke-width="2" fill="#D8D8D8" xlink:href="#path-41"></use>
                        <use id="Rectangle-733-Copy-27" stroke="#979797" mask="url(#mask-44)" stroke-width="2" fill="#D8D8D8" xlink:href="#path-43"></use>
                        <use id="Rectangle-733-Copy-26" stroke="#979797" mask="url(#mask-46)" stroke-width="2" fill="#D8D8D8" xlink:href="#path-45"></use>
                        <use id="Rectangle-733-Copy-25" stroke="#979797" mask="url(#mask-48)" stroke-width="2" fill="#D8D8D8" xlink:href="#path-47"></use>
                        <use id="Rectangle-733-Copy-24" stroke="#979797" mask="url(#mask-50)" stroke-width="2" fill="#D8D8D8" xlink:href="#path-49"></use>
                        <use id="Rectangle-733-Copy-23" stroke="#979797" mask="url(#mask-52)" stroke-width="2" fill="#D8D8D8" xlink:href="#path-51"></use>
                        <use id="Rectangle-733-Copy-22" stroke="#979797" mask="url(#mask-54)" stroke-width="2" fill="#D8D8D8" xlink:href="#path-53"></use>
                        <use id="Rectangle-733-Copy-21" stroke="#979797" mask="url(#mask-56)" stroke-width="2" fill="#D8D8D8" xlink:href="#path-55"></use>
                        <use id="Rectangle-733-Copy-20" stroke="#979797" mask="url(#mask-58)" stroke-width="2" fill="#D8D8D8" xlink:href="#path-57"></use>
                        <use id="Rectangle-733-Copy-19" stroke="#979797" mask="url(#mask-60)" stroke-width="2" fill="#D8D8D8" xlink:href="#path-59"></use>
                        <use id="Rectangle-733-Copy-12" stroke="#979797" mask="url(#mask-62)" stroke-width="2" fill="#D8D8D8" xlink:href="#path-61"></use>
                        <use id="Rectangle-733-Copy-11" stroke="#979797" mask="url(#mask-64)" stroke-width="2" fill="#D8D8D8" xlink:href="#path-63"></use>
                        <use id="Rectangle-733-Copy-10" stroke="#979797" mask="url(#mask-66)" stroke-width="2" fill="#D8D8D8" xlink:href="#path-65"></use>
                        <path d="M2.78010834,1.94848632 L19.7493466,1.94848632 C19.7493466,1.94848632 18.159604,4.36521058 17.8184577,6.68967892 C17.4773114,9.01414726 17.534747,12.9694824 17.534747,12.9694824 L2.78010834,12.9694824 L2.78010834,1.94848632 Z" id="Path-10547" fill="#FF9DA4"></path>
                    </g>
                    <g id="noun_58884_cc" transform="translate(0.500000, 28.139312)" fill="#4C4F58">
                        <g id="Group">
                            <path d="M36.8433343,22.0502632 C36.7401145,21.0711872 35.9303303,20.3042784 34.9296715,20.2748448 L34.9296715,19.3611768 C34.9296715,18.8162464 34.5012273,18.3751512 33.9630096,18.3449 L33.9630096,17.4304144 C33.9630096,16.1574112 33.1499486,15.0732736 32.016169,14.659568 C32.0210842,14.6182792 32.028457,14.577808 32.028457,14.5352928 C32.028457,6.52036 25.4952973,0 17.4650405,0 C9.43478373,0 2.90121443,6.52036 2.90121443,14.5352928 C2.90121443,14.577808 2.90858727,14.618688 2.91391211,14.659568 C1.78013242,15.0732736 0.967071477,16.1574112 0.967071477,17.4304144 L0.967071477,18.3449 C0.428444204,18.3751512 0,18.8162464 0,19.3611768 L0,24.1874696 C0,24.7324 0.428444204,25.173904 0.967071477,25.2037464 L0.967071477,26.1174144 C0.967071477,27.745256 2.29418354,29.0701768 3.92522065,29.0701768 L5.85936361,29.0701768 C6.42502464,29.0701768 6.88336983,28.6127296 6.88336983,28.0481768 L6.88336983,15.5004696 C6.88336983,15.0495632 6.58886564,14.6714232 6.18294957,14.5357016 C6.08054895,14.5017712 5.9732331,14.4784696 5.85936361,14.4784696 L4.95045568,14.4784696 C4.98199507,7.6167616 10.5828995,2.044 17.4650405,2.044 C24.3467719,2.044 29.948086,7.6167616 29.9788062,14.4784696 L29.0703079,14.4784696 C28.9564384,14.4784696 28.8491225,14.5013624 28.7467219,14.5357016 C28.3408058,14.6714232 28.0463016,15.0495632 28.0463016,15.5004696 L28.0463016,28.0485856 C28.0463016,28.6131384 28.5046468,29.0705856 29.0703079,29.0705856 L31.0044508,29.0705856 C32.6354879,29.0705856 33.9630096,27.7460736 33.9630096,26.1178232 L33.9630096,25.2041552 C34.3373863,25.1828976 34.6556474,24.9629632 34.8162116,24.646552 L34.8162116,28.0485856 C34.8162116,28.2762872 34.722003,33.466412 26.8924514,33.7681064 C26.5762383,33.2562888 26.0363822,32.904312 25.4084616,32.8384952 C25.3416964,32.8250048 25.2724736,32.8176464 25.2016123,32.8176464 L22.3003979,32.8176464 C22.2295367,32.8176464 22.1603139,32.8250048 22.0935487,32.8384952 C21.0941186,32.9435568 20.3093202,33.7799616 20.3093202,34.805232 C20.3093202,35.8305024 21.0941186,36.6669072 22.0935487,36.7719688 C22.1607235,36.7846416 22.2295367,36.792 22.3003979,36.792 L25.2016123,36.792 C25.2724736,36.792 25.3416964,36.7846416 25.4084616,36.7711512 C26.0490799,36.7036992 26.5963088,36.3374144 26.9096547,35.8092448 C36.7421625,35.4560416 36.864224,28.1242136 36.864224,28.0481768 L36.864224,22.2567072 C36.864224,22.1859848 36.8568512,22.1173064 36.8433343,22.0502632 L36.8433343,22.0502632 Z M4.83576699,27.0261768 L3.92563025,27.0261768 C3.42386721,27.0261768 3.01549352,26.6186032 3.01549352,26.1174144 L3.01549352,17.4304144 C3.01549352,16.9296344 3.42386721,16.5220608 3.92767827,16.5220608 L4.83617659,16.5220608 L4.83617659,27.0261768 L4.83576699,27.0261768 Z M31.9149971,26.1178232 C31.9149971,26.619012 31.5066235,27.0265856 31.0044508,27.0265856 L30.0943141,27.0265856 L30.0943141,16.5224696 L31.0044508,16.5224696 C31.5066235,16.5224696 31.9149971,16.9300432 31.9149971,17.4308232 L31.9149971,26.1178232 L31.9149971,26.1178232 Z" id="Shape"></path>
                        </g>
                    </g>
                </g>
            </g>
        </g>
    </g>
</svg>