<?xml version="1.0" encoding="UTF-8" standalone="no"?>
<svg width="71px" height="72px" viewBox="0 0 71 72" version="1.1" xmlns="http://www.w3.org/2000/svg" xmlns:xlink="http://www.w3.org/1999/xlink">
    <!-- Generator: Sketch 3.8.3 (29802) - http://www.bohemiancoding.com/sketch -->
    <title>Group 53</title>
    <desc>Created with Sketch.</desc>
    <defs></defs>
    <g id="Page-1" stroke="none" stroke-width="1" fill="none" fill-rule="evenodd">
        <g id="Group-53" transform="translate(2.000000, 1.000000)">
            <g id="Group-221">
                <g id="Group-220-Copy">
                    <g id="Group-213">
                        <g id="Group-211">
                            <g id="Group-208-Copy" transform="translate(36.266667, 46.290323)"></g>
                            <g id="Group-210">
                                <g id="Group-Copy">
                                    <g id="Group">
                                        <path d="M28.778826,41.1917103 C22.4566935,41.1917103 17.3242777,38.4191749 17.247726,34.9830583 C7.57573816,35.8590767 0,43.9259842 0,53.7506391 C0,64.1600677 8.50471866,63.5924261 18.9963275,63.5924261 L38.560749,63.5924261 C49.0529333,63.5924261 57.557652,64.1594966 57.557652,53.7506391 C57.557652,43.9259842 49.9813383,35.8590767 40.309926,34.9830583 C40.2327987,38.4186038 35.1009585,41.1917103 28.778826,41.1917103 Z" id="Shape" stroke="#4C4F58" stroke-width="3" fill="#18CAE6"></path>
                                        <path d="M16.7935872,49.3827681 C18.5102305,43.9647288 22.5090324,41.7573242 22.5090324,41.7573242 C22.5090324,41.7573242 20.1452791,40.9522112 18.4082023,39.6591797 C16.9551248,38.5775493 16.0818189,37.0297639 16.0712892,36.5571289 C10.4406739,37.6228027 2.24641925,41.9290968 1.52978515,52.8781738 C1.26891968,56.8638008 1.88574219,59.2866211 5.41833491,61.5402517 C5.89773167,61.8460846 7.3239747,62.097168 10.6406251,62.097168 L17.496338,62.097168 C17.496338,62.097168 15.0769439,54.8008075 16.7935872,49.3827681 Z" id="Shape-Copy-10" fill="#07A2C0"></path>
                                        <path id="Shape" fill="#000000"></path>
                                        <path d="M28.7840062,0 C20.0358187,0 12.9441404,7.03612958 12.9441404,15.715793 C12.9441404,24.3954565 20.0358187,37.4449328 28.7840062,37.4449328 C37.5321937,37.4449328 44.6244476,24.3948854 44.6244476,15.715793 C44.6244476,7.03670065 37.5321937,0 28.7840062,0 L28.7840062,0 Z M28.7840062,34.9830583 C21.7838445,34.9830583 15.9969982,25.3462848 15.055355,17.8881359 L15.055355,17.8881359 C15.7938197,11.5578465 19.3198015,8.65339433 19.3198015,8.65339433 C21.6859965,15.7985979 38.0294918,12.5823426 38.0294918,12.5823426 C42.7348299,12.2271383 42.393513,18.6453722 42.3889084,18.7184689 C41.1439364,26.0418457 35.5268851,34.9830583 28.7840062,34.9830583 L28.7840062,34.9830583 Z" id="Shape" stroke="#4C4F58" stroke-width="2" fill="#4C4F58"></path>
                                    </g>
                                </g>
                                <ellipse id="Oval-176-Copy" stroke="#4C4F58" stroke-width="2" fill="#FFD487" cx="56.4528302" cy="58.5454545" rx="11.5471698" ry="11.4545455"></ellipse>
                                <path d="M52.8498537,68.3677979 C52.9137489,68.3934813 48.8795977,60.8769983 49.7582031,56.232477 C50.8806514,50.2989432 56.9588912,48.0932617 56.3250729,48.0932617 C49.9477472,48.0932617 45.6711426,52.6411133 45.9682617,59.6002197 C46.1762318,64.4712832 48.4339599,66.5927734 52.8498537,68.3677979 Z" id="Oval-176-Copy-2" fill="#FFE7BC"></path>
                                <g id="Group-209" transform="translate(48.754717, 53.454545)" fill="#4C4F58">
                                    <path d="M5.35413643,9.78275476 C5.15832801,9.78275476 4.96251959,9.71462486 4.81336865,9.57801568 C4.51468433,9.3051467 4.51468433,8.86282643 4.81336865,8.58995745 L13.9918882,0.204739082 C14.2905726,-0.0681298992 14.7747395,-0.0681298992 15.0734238,0.204739082 C15.3721081,0.477608063 15.3721081,0.919928331 15.0734238,1.19279731 L5.89490421,9.57801568 C5.74575327,9.71462486 5.54994485,9.78275476 5.35413643,9.78275476 L5.35413643,9.78275476 Z" id="Shape"></path>
                                    <path d="M5.35413643,9.78275476 C5.15832801,9.78275476 4.96290203,9.71462486 4.81336865,9.57801568 L0.224108853,5.38540649 C-0.0745754717,5.11253751 -0.0745754717,4.66986786 0.224108853,4.39699888 C0.52241074,4.1241299 1.00696009,4.1241299 1.30564441,4.39699888 L5.89490421,8.58960806 C6.19358853,8.86247704 6.19358853,9.30479731 5.89490421,9.57766629 C5.74575327,9.71462486 5.54994485,9.78275476 5.35413643,9.78275476 L5.35413643,9.78275476 Z" id="Shape"></path>
                                </g>
                            </g>
                            <path d="M18.1095378,6.07530163 C18.1095378,6.07530163 13.8459798,10.9824298 14.7333333,17.9145665 C15.2867387,22.2378507 18.3208968,29.4650539 23.0020182,33.0235044 C24.8183095,34.4041955 26.8390183,34.9534725 28.8983398,35.064776 C36.2651439,35.4629418 42.7361582,22.1710402 42.5038737,18.7574817 C42.5038737,18.7574817 43.1373617,11.2824668 36.8330566,12.7330362 C36.8330566,12.7330362 26.043148,13.8128662 22.5402182,11.7908896 C19.0372884,9.76891302 18.1095378,6.07530163 18.1095378,6.07530163 Z" id="Path-10525" fill="#FFE1C0"></path>
                            <path id="Path-10542" stroke="#979797"></path>
                            <path d="M20.9667971,10.6125488 C19.4403586,9.0790726 18.0825805,6.08764648 18.0825805,6.08764648 C18.0825805,6.08764648 12.1302083,12.3154376 15.5811198,22.643216 C15.5811198,22.643216 17.0535435,26.0248004 19.1844889,29.0430869 C20.4618766,30.8523881 22.1239289,32.4560141 23.4336589,33.332362 C23.4336589,33.332362 20.7887532,27.483363 21.1578613,21.1404124 C21.5269694,14.7974617 24.1901241,12.4155885 24.1901241,12.4155885 C24.1901241,12.4155885 22.4932355,12.1460251 20.9667971,10.6125488 Z" id="Path-10543" fill="#F6D6B3"></path>
                        </g>
                    </g>
                </g>
            </g>
        </g>
    </g>
</svg>