<?xml version="1.0" encoding="UTF-8" standalone="no"?>
<svg width="58px" height="59px" viewBox="0 0 58 59" version="1.1" xmlns="http://www.w3.org/2000/svg" xmlns:xlink="http://www.w3.org/1999/xlink">
    <!-- Generator: Sketch 3.8.3 (29802) - http://www.bohemiancoding.com/sketch -->
    <title>Group 41</title>
    <desc>Created with Sketch.</desc>
    <defs></defs>
    <g id="Page-1" stroke="none" stroke-width="1" fill="none" fill-rule="evenodd">
        <g id="Group-41" transform="translate(1.000000, 0.000000)">
            <g id="Group-40">
                <g id="noun_32637_cc">
                    <g id="Group">
                        <path d="M45.4891818,53.1022826 L10.5101818,53.1022826 C7.53836364,53.1022826 5.12845455,55.4884783 5.12845455,58.4338696 L50.8709091,58.4338696 C50.8709091,55.4884783 48.4597273,53.1022826 45.4891818,53.1022826 L45.4891818,53.1022826 Z" id="Shape" fill="#4C4F58"></path>
                        <path d="M36.7449091,47.3262391 C33.6540909,47.3262391 31.1391818,44.8353913 31.1391818,41.7714783 C31.1391818,38.710087 33.6534545,36.2179783 36.7449091,36.2179783 C39.8350909,36.2179783 42.3506364,38.7094565 42.3506364,41.7714783 C42.35,44.8353913 39.8350909,47.3262391 36.7449091,47.3262391 L36.7449091,47.3262391 Z M36.7449091,37.9958043 C34.643,37.9958043 32.9324545,39.690413 32.9324545,41.7721087 C32.9324545,43.8538043 34.643,45.548413 36.7449091,45.548413 C38.8468182,45.548413 40.5567273,43.8538043 40.5567273,41.7721087 C40.5567273,39.690413 38.8461818,37.9958043 36.7449091,37.9958043 L36.7449091,37.9958043 Z" id="Shape" fill="#4C4F58"></path>
                        <path d="M32.0358182,53.9905652 L19.2544545,53.9905652 C17.647,53.9905652 16.3399091,52.6937609 16.3399091,51.1025435 C16.3399091,49.5100652 17.647,48.2151522 19.2544545,48.2151522 L32.0351818,48.2151522 L32.0351818,49.9923478 L19.2544545,49.9923478 C18.6365455,49.9923478 18.1331818,50.4891304 18.1331818,51.1025435 C18.1331818,51.7146957 18.6365455,52.2133696 19.2544545,52.2133696 L32.0351818,52.2133696 L32.0351818,53.9905652 L32.0358182,53.9905652 Z" id="Shape" fill="#4C4F58"></path>
                        <path d="M42.35,53.9905652 L32.0358182,53.9905652 C31.5407273,53.9905652 31.1391818,53.5921304 31.1391818,53.1022826 C31.1391818,52.6111739 31.5407273,52.2133696 32.0358182,52.2133696 L40.5567273,52.2133696 L40.5567273,50.4368043 C40.5567273,48.7226522 38.8461818,47.3268696 36.7449091,47.3268696 C34.4177273,47.3268696 32.9324545,48.4931739 32.9324545,49.1034348 C32.9324545,49.5932826 32.5315455,49.9923478 32.0358182,49.9923478 C31.5407273,49.9923478 31.1391818,49.5932826 31.1391818,49.1034348 C31.1391818,47.1761957 33.7056364,45.548413 36.7449091,45.548413 C39.8350909,45.548413 42.3506364,47.7416957 42.3506364,50.4361739 L42.3506364,53.9905652 L42.35,53.9905652 Z" id="Shape" fill="#4C4F58"></path>
                        <path d="M49.525,42.3273913 L40.3562727,42.3273913 L40.4975455,41.3168043 C40.5331818,41.0703043 40.5567273,40.9246739 40.5567273,40.7721087 C40.5567273,38.6897826 38.8461818,36.9958043 36.7449091,36.9958043 C34.643,36.9958043 32.9324545,38.690413 32.9324545,40.7721087 C32.9324545,40.9398043 32.9598182,41.0993043 32.984,41.2600652 L33.1373636,42.2782174 L32.1045455,42.3273913 L28.9049091,42.3273913 L28.6433636,42.074587 C27.2083636,40.682587 24.7532727,40.6832174 23.3201818,42.0739565 L23.0592727,42.3273913 L6.47436364,42.3273913 C3.01254545,42.3273913 0.196,39.537087 0.196,36.1081522 L0.196,6.786 C0.196,3.35643478 3.01190909,0.56676087 6.47436364,0.56676087 L49.525,0.56676087 C52.9868182,0.56676087 55.804,3.35643478 55.804,6.786 L55.804,36.1081522 C55.804,39.537087 52.9874545,42.3273913 49.525,42.3273913 L49.525,42.3273913 Z M42.3455455,40.5495652 L49.525,40.5495652 C51.9985455,40.5495652 54.0100909,38.5573913 54.0100909,36.1075217 L54.0100909,6.786 C54.0100909,4.33613043 51.9979091,2.34332609 49.525,2.34332609 L6.47436364,2.34332609 C4.00145455,2.34332609 1.98927273,4.33676087 1.98927273,6.786 L1.98927273,36.1081522 C1.98927273,38.5580217 4.00145455,40.5501957 6.47436364,40.5501957 L22.3446364,40.5501957 C24.3714545,38.8278478 27.5882727,38.826587 29.6189091,40.5501957 L31.1436364,40.5501957 C31.262,37.5915652 33.7291818,35.2192391 36.7449091,35.2192391 C39.7606364,35.2186087 42.2271818,37.5909348 42.3455455,40.5495652 L42.3455455,40.5495652 Z" id="Shape" stroke="#4C4F58" fill="#4C4F58"></path>
                        <path d="M29.6367273,49.9923478 L22.3268182,49.9923478 L22.0652727,49.7382826 C20.9758182,48.6816739 20.3757273,47.2732826 20.3757273,45.7722174 C20.3757273,42.7089348 22.8906364,40.2174565 25.9814545,40.2174565 C29.0722727,40.2174565 31.5871818,42.7083043 31.5871818,45.7722174 C31.5871818,47.273913 30.9883636,48.6823043 29.8982727,49.7382826 L29.6367273,49.9923478 L29.6367273,49.9923478 Z M23.0815455,48.2151522 L28.8826364,48.2151522 C29.4731818,47.5305 29.7939091,46.6762609 29.7939091,45.7722174 C29.7939091,43.688 28.0833636,41.9946522 25.9814545,41.9946522 C23.8795455,41.9946522 22.1696364,43.6886304 22.1696364,45.7722174 C22.1696364,46.6756304 22.491,47.5305 23.0815455,48.2151522 L23.0815455,48.2151522 Z" id="Shape" fill="#4C4F58"></path>
                        <path d="M3.51318359,3.88989257 C4.65258799,2.82983398 6.08154297,2.83935547 6.08154297,2.83935547 L49.6240234,2.82983398 C49.6240234,2.82983398 53.5649414,2.71606407 53.5649414,7.10449219 C53.5649414,11.4929203 53.5996094,35.9560547 53.5996094,35.9560547 C53.5996094,35.9560547 54.3220215,40.1682109 49.1079102,40.1682129 C43.8937988,40.1682149 42.791748,40.1437988 42.791748,40.1437988 C42.791748,40.1437988 42.584569,36.3812884 38.2193969,34.9644563 C37.7684297,34.818083 36.093261,34.7350708 35.2401733,35.0574902 C33.4807173,35.7224661 31.1009517,36.9506818 30.7709957,40.0759259 L29.8117671,40.0759259 C29.8117671,40.0759259 26.3161617,37.1560041 22.1298828,40.0324707 L6.49682617,40.0759277 C6.49682617,40.0759277 2.4498291,40.7917463 2.31945801,35.6540509 L2.4921875,6.67358398 C2.4921875,6.67358398 2.37377919,4.94995116 3.51318359,3.88989257 Z" id="Path-532" fill="#B2FFFF"></path>
                        <path d="M3.51318359,3.88989257 C4.65258799,2.82983398 6.08154297,2.83935547 6.08154297,2.83935547 L26.6386069,2.83486023 C26.6386069,2.83486023 18.8257256,5.54003945 16.652379,20.0009769 C14.4790325,34.4619144 16.6523793,40.0476972 16.6523793,40.0476972 L6.49682617,40.0759277 C6.49682617,40.0759277 2.4498291,40.7917463 2.31945801,35.6540509 L2.4921875,6.67358398 C2.4921875,6.67358398 2.37377919,4.94995116 3.51318359,3.88989257 Z" id="Path-532-Copy" fill="#9DCECF"></path>
                        <path d="M19.0812988,49.9277344 L32.0384521,49.9783936 C32.0384521,49.9783936 32.7587891,50.1248779 32.9190674,49.1383057 C33.0793457,48.1517334 35.0940545,47.1913452 36.8789063,47.3388672 C36.8789063,47.3388672 39.8210449,47.2946777 40.5688477,50.083374 L40.5445557,52.2220459 L19.1998291,52.2088623 C19.1998291,52.2088623 18.1074219,52.175293 18.1099854,51.0107422 C18.1125488,49.8461914 19.0812988,49.9277344 19.0812988,49.9277344 Z" id="Path-533" fill="#B5CBF3"></path>
                        <path d="M19.0812988,49.9277344 L24.8163114,49.9501568 C24.8163114,49.9501568 24.967911,50.9178593 25.4868162,51.3730469 C26.0057214,51.8282345 27.3969642,52.2139253 27.3969642,52.2139253 C27.3969642,52.2139253 21.9322075,52.21055 19.1998291,52.2088623 C19.1998291,52.2088623 18.1074219,52.175293 18.1099854,51.0107422 C18.1125488,49.8461914 19.0812988,49.9277344 19.0812988,49.9277344 Z" id="Path-533-Copy" fill="#94A9CE"></path>
                    </g>
                </g>
                <polygon id="Shape" fill="#FF5A5A" points="22 25.7736304 22 16 33.8389091 20.8865"></polygon>
                <path d="M37,45.5723877 C39.209139,45.5723877 41,44.209139 41,42 C41,39.790861 38.9763509,37.9732666 36.7672119,37.9732666 C34.5580729,37.9732666 32.8911133,39.790861 32.8911133,42 C32.8911133,44.209139 34.790861,45.5723877 37,45.5723877 Z" id="Oval-24" fill="#F6A623"></path>
                <path d="M23.0467529,48.2290038 L28.8723145,48.2290039 C28.8723145,48.2290039 30.5075684,46.5904541 29.4138184,44.1219482 C29.4138184,44.1219482 28.3691406,41.9273682 25.9752197,42.003418 C25.9752197,42.003418 23.5938721,41.7889403 22.5135498,44.1219481 C21.4332275,46.4549559 23.0467529,48.2290038 23.0467529,48.2290038 Z" id="Path-534" fill="#5E919C"></path>
            </g>
        </g>
    </g>
</svg>