<?xml version="1.0" encoding="UTF-8" standalone="no"?>
<svg width="66px" height="54px" viewBox="0 0 66 54" version="1.1" xmlns="http://www.w3.org/2000/svg" xmlns:xlink="http://www.w3.org/1999/xlink">
    <!-- Generator: Sketch 3.8.3 (29802) - http://www.bohemiancoding.com/sketch -->
    <title>Group 10</title>
    <desc>Created with Sketch.</desc>
    <defs></defs>
    <g id="Page-1" stroke="none" stroke-width="1" fill="none" fill-rule="evenodd">
        <g id="Group-10">
            <g id="Group-223-Copy-3">
                <path d="M47.6666667,16.9175778 C46.475,15.6176619 44.7958333,15.7259882 43.7666667,16.3759462 C42.6833333,17.0800673 42.25,18.2174937 42.6833333,19.4090833 C42.7916667,19.6798991 43.1166667,19.8423886 43.3875,19.7340622 C43.6583333,19.6257359 43.8208333,19.3007569 43.7125,19.0299411 C43.4416667,18.2716569 43.875,17.6216989 44.3625,17.2967199 C45.0666667,16.8634146 46.0958333,16.8092515 46.9083333,17.6758621 C47.3958333,18.2174937 47.6125,19.0299411 47.5041667,19.9507149 C47.3416667,21.3047939 46.4208333,22.5505467 45.0125,23.3629941 C42.575,24.8253995 39,25.6920101 35.9666667,26.2336417 C37.6458333,25.4753574 39.325,24.4462574 40.1916667,23.2005046 C40.5708333,22.658873 40.8958333,22.1172414 41.1125,21.5214466 C41.4916667,20.654836 41.6541667,19.7882254 41.6,18.9216148 C41.5458333,17.5133726 40.95,16.321783 39.8666667,15.5634987 C38.8375,14.8052145 37.4833333,14.5885618 36.1291667,14.967704 C34.775,15.3468461 33.5291667,16.321783 32.5541667,17.6758621 C31.9041667,18.5424727 31.525,19.7882254 31.2541667,21.1423045 C30.8208333,19.1924306 30.1708333,17.2425568 29.1416667,16.0509672 C28.8708333,15.7259882 28.5458333,15.4010093 28.275,15.1301934 C27.1916667,14.1010934 26,13.4511354 24.7,13.1803196 C23.075,12.8553406 21.5583333,13.1803196 20.4208333,14.1552565 C17.9833333,16.2134567 18.1458333,20.1132044 20.7458333,23.2546678 C22.2625,25.0420521 25.4583333,26.1253154 28.0041667,27.2085786 L16.7916667,27.2085786 L16.7916667,33.7081581 L18.2541667,33.7081581 L18.4166667,33.7081581 L29.7916667,33.7081581 L29.7916667,45.0824222 C29.7916667,45.1907485 29.8458333,45.2990749 29.9,45.353238 C29.8458333,45.4074012 29.7916667,45.5157275 29.7916667,45.6240538 C29.7916667,45.9490328 30.0083333,46.1656854 30.3333333,46.1656854 L47.125,46.1656854 L47.125,33.7081581 L47.6666667,33.7081581 L47.6666667,27.2085786 L37.6458333,27.2085786 C40.4083333,26.666947 43.3875,25.6920101 45.5541667,24.3920942 C47.1791667,23.3629941 48.3166667,21.7380992 48.5333333,20.0590412 C48.6958333,18.8132885 48.3708333,17.6758621 47.6666667,16.9175778 Z M30.875,32.6248949 L30.875,28.2918419 L32.5,28.2918419 L32.5,32.6248949 L30.875,32.6248949 L30.875,32.6248949 Z M39.2708333,22.5505467 C38.0791667,24.1754415 34.775,25.6920101 31.9583333,26.5586207 C31.9583333,26.3961312 31.9583333,26.2336417 31.9041667,26.0169891 C31.9041667,24.987889 31.9583333,23.8504626 32.0666667,22.8213625 C32.2291667,21.8464256 32.5,20.8714886 32.9875,20.1673675 C33.8541667,18.8674516 34.9916667,18.000841 36.2916667,17.7841884 C37.2125,17.6216989 38.0791667,17.7841884 38.7833333,18.32582 C39.65,18.975778 40.1375,19.9507149 40.0833333,21.1964676 C39.8666667,21.5756098 39.5958333,22.0630782 39.2708333,22.5505467 L39.2708333,22.5505467 Z M36.4541667,15.996804 C36.7791667,15.8884777 37.1583333,15.8343146 37.4833333,15.8343146 C38.1333333,15.8343146 38.7291667,16.0509672 39.2708333,16.3759462 C39.9208333,16.8634146 40.3541667,17.5675357 40.5166667,18.4341463 C40.2458333,18.000841 39.9208333,17.6216989 39.4875,17.3508831 C38.5666667,16.646762 37.375,16.4301093 36.1833333,16.646762 C35.4791667,16.7550883 34.8291667,17.0259041 34.2333333,17.4592094 C34.8291667,16.7550883 35.6416667,16.2676198 36.4541667,15.996804 L36.4541667,15.996804 Z M30.875,26.0711522 L30.875,26.666947 C30.4416667,26.5586207 29.9541667,26.4502944 29.5208333,26.341968 C25.5666667,24.7170732 22.75,22.1714045 22.1541667,19.7340622 C21.8833333,18.5424727 22.1541667,17.4592094 22.9125,16.5925988 C23.7791667,15.5634987 24.8083333,15.3468461 25.4583333,15.3468461 C26.3791667,15.2926829 27.1375,15.6176619 27.5166667,15.9426409 C27.7875,16.2134567 28.1125,16.4842725 28.3833333,16.8092515 C29.8458333,18.5424727 30.6041667,22.6047098 30.875,26.0711522 L30.875,26.0711522 Z M21.0708333,14.9135408 C21.775,14.317746 22.5875,14.0469302 23.5083333,14.0469302 C23.8333333,14.0469302 24.1041667,14.1010934 24.4291667,14.1552565 C24.4833333,14.1552565 24.5375,14.2094197 24.5916667,14.2094197 C23.7791667,14.3719092 22.8583333,14.8052145 21.9916667,15.7801514 C21.2949562,16.5868166 20.920953,17.4927699 20.8528522,18.4644039 C20.829343,18.7998239 20.8422887,19.1430711 20.8909978,19.492763 C20.9096184,19.6264432 20.9334653,19.7610652 20.9625,19.8965517 C20.9899849,20.0202259 21.022506,20.1439002 21.0598994,20.2674761 C21.4646704,21.6051434 22.4403489,22.9312951 23.7791667,24.1212784 C22.9125,23.6338099 22.1,23.0380151 21.5583333,22.3880572 C19.3375,19.7340622 19.1208333,16.5925988 21.0708333,14.9135408 Z M17.875,28.2918419 L29.7916667,28.2918419 L29.7916667,32.6248949 L17.875,32.6248949 L17.875,28.2918419 L17.875,28.2918419 Z M30.875,45.0824222 L30.875,33.7081581 L32.5,33.7081581 L32.5,45.0824222 L30.875,45.0824222 L30.875,45.0824222 Z M46.0416667,45.0824222 L33.5833333,45.0824222 L33.5833333,33.7081581 L46.0416667,33.7081581 L46.0416667,45.0824222 L46.0416667,45.0824222 Z M46.5833333,32.6248949 L33.5833333,32.6248949 L33.5833333,28.2918419 L46.5833333,28.2918419 L46.5833333,32.6248949 L46.5833333,32.6248949 Z" id="Shape" fill="#4C4F58"></path>
                <polygon id="Rectangle-810" fill="#F97882" points="30.8347168 33.6665649 32.5949707 33.6665649 32.5949707 35.0644531 32.5949707 45.1311035 30.8347168 45.1311035"></polygon>
                <rect id="Rectangle-811" fill="#F97882" x="33.5897217" y="28.2303467" width="13.0438232" height="4.39294434"></rect>
                <path d="M33.5897217,28.2303467 L44.0185547,28.2303467 C44.0185547,28.2303467 42.7734375,29.1291504 42.1376953,30.1391602 C41.5019531,31.1491699 41.1933594,32.623291 41.1933594,32.623291 L33.5897217,32.623291 L33.5897217,28.2303467 Z" id="Rectangle-811-Copy-2" fill="#FFA6AD"></path>
                <rect id="Rectangle-811-Copy" fill="#F97882" x="17.8364258" y="28.2735596" width="11.9752197" height="4.42749023"></rect>
                <path d="M37.05,48.2238856 L27.1916667,46.9781329 C26.975,46.9781329 26.7583333,46.8698066 26.5416667,46.7614802 L19.3916667,42.4284272 L25.4583333,43.7283431 C26.325,43.8908326 27.2458333,43.4575273 27.6791667,42.6992431 L27.8416667,42.3742641 C28.3833333,41.3993272 28.0041667,40.1535744 26.975,39.5577796 L16.8458333,35.008074 C15.925,34.4664424 15.0041667,34.1956266 13.9208333,34.1956266 L8.125,34.8455845 L8.125,32.6248949 L0,32.6248949 L0,50.4987384 L8.125,50.4987384 L8.125,48.6030278 L22.8583333,52.9902439 C23.075,53.0444071 23.2375,53.2068966 23.4541667,53.2068966 L36.8875,53.2068966 C38.1875,53.2068966 39.2708333,52.015307 39.2708333,50.7153911 C39.2708333,49.4696384 38.2958333,48.2780488 37.05,48.2238856 L37.05,48.2238856 Z M7.04166667,49.4154752 L1.08333333,49.4154752 L1.08333333,33.7081581 L7.04166667,33.7081581 L7.04166667,49.4154752 L7.04166667,49.4154752 Z M36.8875,52.1236333 L23.4541667,52.1236333 C23.2916667,52.1236333 23.2916667,51.9611438 23.1291667,51.9611438 L8.125,47.5197645 L8.125,35.9288478 L14.0833333,35.2788898 C14.95,35.2788898 15.7083333,35.4955425 16.5208333,35.9288478 L26.5416667,40.4785534 C27.0291667,40.7493692 27.1375,41.345164 26.9208333,41.8326325 L26.7583333,42.1576114 C26.5416667,42.5367536 26.1083333,42.7534062 25.7291667,42.6450799 L16.9,40.7493692 C16.6291667,40.6952061 16.3041667,40.8576955 16.1958333,41.1285114 C16.0875,41.3993272 16.1958333,41.7243061 16.4666667,41.8867956 L26,47.6280908 C26.325,47.8447435 26.7583333,47.9530698 27.1375,48.007233 L36.9958333,49.2529857 C37.6458333,49.3071489 38.1875,50.01127 38.1875,50.6612279 C38.1875,51.4195122 37.5916667,52.1236333 36.8875,52.1236333 L36.8875,52.1236333 Z" id="Shape" fill="#4C4F58"></path>
                <polygon id="Path-10648" fill="#FE446E" points="1.05419922 33.696786 7.0269165 33.696786 7.0269165 49.3974915 1.05419922 49.3974915"></polygon>
                <path d="M4.90185547,36.7946778 C3.31077237,34.3976739 1.05419922,33.696786 1.05419922,33.696786 L7.0269165,33.696786 L7.0269165,43.8837891 C7.0269165,43.8837891 6.49293857,39.1916817 4.90185547,36.7946778 Z" id="Path-10648-Copy-2" fill="#FF8AA4"></path>
                <path d="M8.10461426,35.8950195 L8.10461426,47.5181884 L23.3623657,52.1024179 L37.076416,52.102417 C37.076416,52.102417 37.4841865,52.0654999 37.8373413,51.788392 C38.2377841,51.4741789 38.3237764,51.0355418 38.3410034,50.630249 C38.3582304,50.2249561 38.1854132,49.9009137 37.9291382,49.6287231 C37.730375,49.4176159 37.3168783,49.3124648 37.076416,49.2646484 L26.706543,47.9085693 L16.3869629,41.7882079 C16.3869629,41.7882079 15.8013916,40.7839355 16.9417725,40.7839355 L25.8948975,42.7392577 C25.8948975,42.7392577 26.4567982,42.873423 26.9446411,42.3558959 C27.3061945,41.9723428 27.617302,40.9729912 26.5482178,40.4866943 L17.2663574,36.1938477 C17.2663574,36.1938477 16.182372,35.6553634 15.0672607,35.4007568 C14.6203618,35.2987191 14.1617989,35.2491192 13.7762451,35.2875366 C12.4286499,35.421814 8.10461426,35.8950195 8.10461426,35.8950195 Z" id="Path-10649" fill="#FFD487"></path>
                <path d="M53.9208333,15.1463415 C53.7041667,15.1463415 53.4875,15.0380151 53.2708333,14.9296888 L46.1208333,10.5966358 L52.1875,11.8965517 C53.0541667,12.0590412 53.975,11.6257359 54.4083333,10.8674516 L54.5708333,10.5424727 C55.1125,9.56753574 54.7333333,8.32178301 53.7041667,7.72598823 L43.575,3.17628259 C42.6541667,2.63465097 41.7333333,2.36383516 40.65,2.36383516 L34.8541667,3.0137931 L34.8541667,0.793103448 L26.7291667,0.793103448 L26.7291667,18.666947 L34.8541667,18.666947 L34.8541667,16.7712363 L49.5875,21.1584525 C49.8041667,21.2126156 49.9666667,21.3751051 50.1833333,21.3751051 L63.6166667,21.3751051 C64.9166667,21.3751051 66,20.1835156 66,18.8835997 C66,17.6378469 65.025,16.4462574 63.7791667,16.3920942 L53.9208333,15.1463415 Z M33.7708333,17.5836838 L27.8125,17.5836838 L27.8125,1.87636669 L33.7708333,1.87636669 L33.7708333,17.5836838 L33.7708333,17.5836838 Z M63.6166667,20.2918419 L50.1833333,20.2918419 C50.0208333,20.2918419 50.0208333,20.1293524 49.8583333,20.1293524 L34.8541667,15.6879731 L34.8541667,4.09705635 L40.8125,3.4470984 C41.6791667,3.4470984 42.4375,3.66375105 43.25,4.09705635 L53.2708333,8.64676198 C53.7583333,8.9175778 53.8666667,9.51337258 53.65,10.000841 L53.4875,10.32582 C53.2708333,10.7049622 52.8375,10.9216148 52.4583333,10.8132885 L43.6291667,8.9175778 C43.3583333,8.86341463 43.0333333,9.02590412 42.925,9.29671993 C42.8166667,9.56753574 42.925,9.89251472 43.1958333,10.0550042 L52.7291667,15.7962994 C53.0541667,16.0129521 53.4875,16.1212784 53.8666667,16.1754415 L63.725,17.4211943 C64.375,17.4753574 64.9166667,18.1794786 64.9166667,18.8294365 C64.9166667,19.5877208 64.3208333,20.2918419 63.6166667,20.2918419 L63.6166667,20.2918419 Z" id="Shape" fill="#4C4F58" transform="translate(46.364583, 11.084104) scale(-1, -1) translate(-46.364583, -11.084104) "></path>
                <polygon id="Path-10648" fill="#00B4CB" transform="translate(61.959442, 12.452861) scale(-1, -1) translate(-61.959442, -12.452861) " points="58.9730835 4.6025085 64.9458008 4.6025085 64.9458008 20.303214 58.9730835 20.303214"></polygon>
                <path d="M62.3756714,12.6659851 C64.5060425,9.04757686 64.9458008,4.6025085 64.9458008,4.6025085 L64.9458008,16.7897949 L58.9730835,16.7897949 C58.9730835,16.7897949 60.2453003,16.2843933 62.3756714,12.6659851 Z" id="Path-10648-Copy" fill="#2CE2FA" transform="translate(61.959442, 10.696152) scale(-1, -1) translate(-61.959442, -10.696152) "></path>
                <path d="M27.6578153,2.51803793 L27.6578153,14.1412068 L42.9155667,18.7254363 L56.629617,18.7254354 C56.629617,18.7254354 57.0373875,18.6885183 57.3905423,18.4114104 C57.7909851,18.0971973 57.8769774,17.6585602 57.8942044,17.2532674 C57.9114314,16.8479745 57.7386142,16.5239321 57.4823392,16.2517415 C57.283576,16.0406343 56.8700793,15.9354832 56.629617,15.8876668 L46.259744,14.5315877 L35.9401639,8.41122634 C35.9401639,8.41122634 35.3545926,7.40695388 36.4949735,7.40695388 L45.4480985,9.36227614 C45.4480985,9.36227614 46.0099992,9.49644144 46.4978421,8.97891433 C46.8593955,8.59536124 47.1705031,7.59600961 46.1014188,7.10971267 L36.8195584,2.81686605 C36.8195584,2.81686605 35.735573,2.27838176 34.6204618,2.02377523 C34.1735628,1.92173752 33.7149999,1.8721376 33.3294461,1.91055502 C31.9818509,2.04483235 27.6578153,2.51803793 27.6578153,2.51803793 Z" id="Path-10649" fill="#FFD487" transform="translate(42.776601, 10.311509) scale(-1, -1) translate(-42.776601, -10.311509) "></path>
                <polygon id="Rectangle-809" fill="#F97882" points="33.5510254 33.7027588 46.076355 33.7027588 46.076355 45.1544189 33.5510254 45.1544189"></polygon>
                <path d="M33.5510254,33.7027588 L40.9855347,33.7027588 C40.9855347,33.7027588 40.3254395,36.953125 40.147644,39.8713379 C39.9698486,42.7895508 40.2677612,45.1544189 40.2677612,45.1544189 L33.5510254,45.1544189 L33.5510254,33.7027588 Z" id="Rectangle-809-Copy" fill="#FFA6AD"></path>
                <rect id="Rectangle-813" fill="#F97882" x="30.7904053" y="28.2537842" width="1.83068848" height="4.43347168"></rect>
                <path d="M32.7993164,20.4417724 C31.4949951,22.2971191 31.9732666,26.5786133 31.9732666,26.5786133 C31.9732666,26.5786133 38.3281248,24.4624024 39.7015379,22.3616944 C40.3026602,21.4422461 40.2104632,20.1840095 39.5223387,19.1170654 C38.6382719,17.7463107 36.5298112,16.8678754 34.822754,18.286499 C33.8982504,19.0547935 34.1036378,18.5864258 32.7993164,20.4417724 Z" id="Path-10650" fill="#5ACAF8"></path>
                <path d="M25.3557129,24.2236324 C27.5512695,25.7963863 29.8613943,26.7072751 30.9313965,26.7072752 C30.9313965,26.7072752 30.7952786,23.3490888 30.0073243,20.3063963 C29.4686359,18.2262465 28.6181026,16.1744771 27.5512695,15.7886963 C27.5512695,15.7886963 22.0500488,13.2631837 22.0500488,19.5366209 C22.0500488,21.7956362 23.1601562,22.6508785 25.3557129,24.2236324 Z" id="Path-10651" fill="#5ACAF8"></path>
                <path d="M24.6256102,14.1872559 C24.6256102,14.1872559 23.2903147,14.5792772 22.2955323,15.4888916 C21.5099951,16.2071752 21.0412652,17.3337116 20.8861084,18.2523806 C20.8514521,18.4575771 20.7903372,18.4972091 20.8220202,18.8334876 C20.8537032,19.1697661 20.9624065,19.3678334 21.0009375,19.4711604 C21.8430045,21.7292924 22.8067245,23.5133257 23.8930052,24.1673586 C23.8930052,24.1673586 22.7426198,23.7421995 21.7550658,22.6903078 C20.2200292,21.0552658 18.7872283,18.1858487 20.0077515,16.152832 C22.0134888,12.8118896 24.6256102,14.1872559 24.6256102,14.1872559 Z" id="Path-10652" fill="#83DBFF"></path>
                <path d="M34.2773438,17.4489136 C34.2773438,17.4489136 35.8687571,16.4411398 37.4736938,16.5730591 C38.7743997,16.6799718 39.9916382,17.5324707 40.5621948,18.5408935 C40.5621948,18.5408935 40.4645872,17.8403952 39.9855347,17.1344691 C39.5323275,16.4666285 38.7320204,15.7930255 37.5449219,15.7340088 C35.1030273,15.6126099 34.2773438,17.4489136 34.2773438,17.4489136 Z" id="Path-10653" fill="#83DBFF"></path>
            </g>
        </g>
    </g>
</svg>