<?xml version="1.0" encoding="UTF-8" standalone="no"?>
<svg width="27px" height="28px" viewBox="0 0 27 28" version="1.1" xmlns="http://www.w3.org/2000/svg" xmlns:xlink="http://www.w3.org/1999/xlink">
    <!-- Generator: Sketch 3.8.3 (29802) - http://www.bohemiancoding.com/sketch -->
    <title>Group 33</title>
    <desc>Created with Sketch.</desc>
    <defs></defs>
    <g id="Page-1" stroke="none" stroke-width="1" fill="none" fill-rule="evenodd">
        <g id="Group-33" fill="#999999">
            <g id="google-plus-logo">
                <g id="Capa_1">
                    <g id="google-plus">
                        <path d="M23.445232,11.8016529 L23.445232,8.26115702 L21.0792526,8.26115702 L21.0792526,11.8016529 L17.5302835,11.8016529 L17.5302835,14.1619835 L21.0792526,14.1619835 L21.0792526,17.7024793 L23.445232,17.7024793 L23.445232,14.1619835 L26.994201,14.1619835 L26.994201,11.8016529 L23.445232,11.8016529 L23.445232,11.8016529 Z M14.3362113,15.8142149 L13.0348763,14.8700826 C12.5616804,14.5160793 12.0885309,14.0439669 12.0885309,13.2178512 C12.0885309,12.3917355 12.6800258,11.6836364 13.2715206,11.3295868 C14.8094072,10.1494215 16.3472938,8.85123967 16.3472938,6.25487603 C16.3472938,3.77652893 14.8094072,2.36033058 13.9813144,1.6522314 L15.9923969,1.6522314 L17.4119845,0 L10.0774485,0 C4.87229381,0 2.26971649,3.30446281 2.26971649,6.84495868 C2.26971649,9.55933884 4.39909794,12.5097521 8.18466495,12.5097521 L9.1310567,12.5097521 C9.01275773,12.8638017 8.65786082,13.4538843 8.65786082,14.0439669 C8.65786082,15.2241322 9.1310567,15.6961983 9.72255155,16.4042975 C8.06636598,16.522314 4.99059278,16.8763636 2.74291237,18.292562 C0.613530928,19.5907438 0.0220360825,21.3609917 0.0220360825,22.6591736 C0.0220360825,25.3735537 2.50631443,27.9699174 7.82976804,27.9699174 C14.2179124,27.9699174 17.293732,24.4294215 17.293732,21.0069884 C17.2936856,18.528595 15.9923969,17.2304132 14.3362113,15.8142149 L14.3362113,15.8142149 Z M5.34548969,5.07471074 C5.34548969,2.47834711 6.88337629,1.29818182 8.53956186,1.29818182 C11.6153351,1.29818182 13.2715206,5.42876033 13.2715206,7.78909091 C13.2715206,10.8575207 10.7872423,11.4476033 9.84085052,11.4476033 C6.88337629,11.4476033 5.34548969,7.78909091 5.34548969,5.07471074 L5.34548969,5.07471074 Z M9.60420619,26.317686 C5.70034021,26.317686 3.21606186,24.547438 3.21606186,21.9510281 C3.21606186,19.3546645 5.58204124,18.5285488 6.29183505,18.1744992 C7.82972165,17.7024331 9.84080412,17.5844165 10.195701,17.5844165 L11.0237938,17.5844165 C13.8629691,19.5906975 15.0459588,20.4168132 15.0459588,22.3050777 C15.0459588,24.547438 12.7983247,26.317686 9.60420619,26.317686 L9.60420619,26.317686 Z" id="Shape"></path>
                    </g>
                </g>
            </g>
        </g>
    </g>
</svg>