<?xml version="1.0" encoding="UTF-8" standalone="no"?>
<svg width="63px" height="71px" viewBox="0 0 63 71" version="1.1" xmlns="http://www.w3.org/2000/svg" xmlns:xlink="http://www.w3.org/1999/xlink">
    <!-- Generator: Sketch 3.8.3 (29802) - http://www.bohemiancoding.com/sketch -->
    <title>Group 42</title>
    <desc>Created with Sketch.</desc>
    <defs>
        <rect id="path-1" x="2.52" y="0.692307692" width="58.8" height="42.3076923" rx="2"></rect>
        <mask id="mask-2" maskContentUnits="userSpaceOnUse" maskUnits="objectBoundingBox" x="0" y="0" width="58.8" height="42.3076923" fill="white">
            <use xlink:href="#path-1"></use>
        </mask>
        <rect id="path-3" x="0" y="0" width="63" height="3.38461538" rx="1.69230769"></rect>
        <mask id="mask-4" maskContentUnits="userSpaceOnUse" maskUnits="objectBoundingBox" x="0" y="0" width="63" height="3.38461538" fill="white">
            <use xlink:href="#path-3"></use>
        </mask>
        <rect id="path-5" x="30" y="45" width="3" height="19" rx="1.5"></rect>
        <mask id="mask-6" maskContentUnits="userSpaceOnUse" maskUnits="objectBoundingBox" x="0" y="0" width="3" height="19" fill="white">
            <use xlink:href="#path-5"></use>
        </mask>
        <rect id="path-7" x="30" y="0" width="3" height="5" rx="1.5"></rect>
        <mask id="mask-8" maskContentUnits="userSpaceOnUse" maskUnits="objectBoundingBox" x="0" y="0" width="3" height="5" fill="white">
            <use xlink:href="#path-7"></use>
        </mask>
        <path d="M23.0781329,45.1445416 C23.0781329,44.3129982 23.7439301,43.6388991 24.5781329,43.6388991 L24.5781329,43.6388991 C25.40656,43.6388991 26.0781329,44.3114673 26.0781329,45.1365313 L26.0781329,68.7839075 L26.0781329,70.5135167 C26.0781329,71.3433338 25.4123356,72.0160334 24.5781329,72.0160334 L24.5781329,72.0160334 C23.7497057,72.0160334 23.0781329,71.3425613 23.0781329,70.510391 L23.0781329,45.1445416 Z" id="path-9"></path>
        <mask id="mask-10" maskContentUnits="userSpaceOnUse" maskUnits="objectBoundingBox" x="0" y="0" width="3" height="28.3771343" fill="white">
            <use xlink:href="#path-9"></use>
        </mask>
        <path d="M35.4887751,45.8457134 C35.4592275,45.0134304 36.1079827,44.3387317 36.937258,44.3387317 L36.3482772,44.3387317 C37.1777999,44.3387317 37.8945308,45.013714 37.9478198,45.8262098 L39.5436126,70.1572057 C39.5974929,70.9787171 38.9705701,71.6446838 38.1366292,71.6446838 L37.9092306,71.6446838 C37.0782948,71.6446838 36.380725,70.9697014 36.3511874,70.1377021 L35.4887751,45.8457134 Z" id="path-11"></path>
        <mask id="mask-12" maskContentUnits="userSpaceOnUse" maskUnits="objectBoundingBox" x="0" y="0" width="4.0590362" height="27.3059521" fill="white">
            <use xlink:href="#path-11"></use>
        </mask>
    </defs>
    <g id="Page-1" stroke="none" stroke-width="1" fill="none" fill-rule="evenodd">
        <g id="Group-42">
            <g id="Group-34">
                <g id="Group-236">
                    <g id="Group-246-Copy">
                        <g id="Group-245" transform="translate(0.000000, 4.000000)" stroke="#4C4F58">
                            <use id="Rectangle-891" mask="url(#mask-2)" stroke-width="6" fill="#FFB727" xlink:href="#path-1"></use>
                            <use id="Rectangle-892" mask="url(#mask-4)" stroke-width="4" fill="#D8D8D8" xlink:href="#path-3"></use>
                        </g>
                        <use id="Rectangle-893" stroke="#4C4F58" mask="url(#mask-6)" stroke-width="2" fill="#4C4F58" xlink:href="#path-5"></use>
                        <use id="Rectangle-893-Copy-3" stroke="#4C4F58" mask="url(#mask-8)" stroke-width="2" fill="#4C4F58" xlink:href="#path-7"></use>
                        <use id="Rectangle-893-Copy" stroke="#4C4F58" mask="url(#mask-10)" stroke-width="2" fill="#4C4F58" transform="translate(24.578133, 57.827466) rotate(32.000000) translate(-24.578133, -57.827466) " xlink:href="#path-9"></use>
                        <use id="Rectangle-893-Copy-2" stroke="#4C4F58" mask="url(#mask-12)" stroke-width="2" fill="#4C4F58" transform="translate(37.517323, 57.991708) scale(-1, 1) rotate(32.000000) translate(-37.517323, -57.991708) " xlink:href="#path-11"></use>
                        <path d="M5.51318359,7.6986084 L28.4975586,7.6986084 C28.4975586,7.6986084 20.0750303,14.8511563 18.0356445,23.9121094 C15.9962588,32.9730624 19.7840576,44.0294189 19.7840576,44.0294189 L5.51318359,44.0294189 L5.51318359,7.6986084 Z" id="Path-10724" fill="#FFCD5F"></path>
                        <path d="M49.641591,13.4522935 C49.8001369,13.2900605 49.8607109,13.0551386 49.7996102,12.8370722 L49.1369831,10.4641508 C49.0758823,10.2460843 48.9036414,10.076477 48.6839947,10.0201169 C48.4611877,9.96322995 48.2310064,10.0290713 48.0719338,10.1913043 L46.3479445,11.9505845 C46.1888718,12.1122908 46.1288245,12.346686 46.1893986,12.5647524 C46.251026,12.7833456 46.4237937,12.9529529 46.6429136,13.0093131 L46.9737004,13.0941167 L43.0645673,28.4114506 L38.5030802,16.9213491 C38.3729777,16.5895088 38.0490384,16.3682819 37.6692656,16.3851373 C37.3052948,16.4051531 36.9961039,16.6537699 36.8986588,17.0061527 L33.769244,28.7885902 L32.7237919,28.7885902 L30.4630642,23.3759059 C30.3477102,23.1093803 30.1091012,22.9234444 29.8246667,22.8765653 C29.3995951,22.851809 29.0919844,23.027737 28.9392325,23.3142785 L26.1628355,28.5268046 L25.8820881,29.0535352 L24.9445076,30.8138689 L23.5407705,28.3861675 C23.4222561,28.1807426 23.2220985,28.0343115 23.0003449,27.9847988 C22.7722705,27.9289653 22.5199666,27.9790047 22.3261297,28.1122676 L21.7256568,28.5262778 C21.7256568,28.5262778 21.1852312,28.8591716 21.1983995,28.889722 L14.3645965,33.6034342 C13.9811367,33.8689064 13.8842182,34.3966905 14.1502172,34.7817306 C14.2803197,34.9697734 14.4841644,35.0988224 14.7096051,35.1351668 C14.9271448,35.1704578 15.1467915,35.1209451 15.3269334,34.9961099 L22.5341883,30.0248264 L24.2423757,32.9797852 C24.3698445,33.1999585 24.587911,33.3500768 24.8412684,33.3911618 C24.8786662,33.3974825 24.9518818,33.4027498 24.9892797,33.4027498 C25.2968904,33.3969558 25.5776378,33.2252416 25.7230154,32.9534486 L29.6071269,25.6619168 L32.723792,32.8876073 C32.839146,33.1546597 33.0777549,33.3416491 33.3632429,33.3880014 C33.4317179,33.3995895 33.5017731,33.4016964 33.5576065,33.3969558 C33.9168368,33.3732529 34.2218138,33.1235826 34.317152,32.7769939 L37.8615223,19.8905295 L41.2894851,28.5246977 L41.4980704,29.0514283 L42.4509261,31.4512129 C42.5599594,31.7261663 42.8091029,31.9268507 43.1009117,31.9742564 C43.1656996,31.9853178 43.2310142,31.9879514 43.2894813,31.9842643 C43.6571392,31.9610882 43.9658034,31.707204 44.0574545,31.3500806 L44.6484462,29.051955 L44.783816,28.5252244 L48.6139396,13.5149745 L49.02953,13.6229542 C49.2497034,13.6782609 49.4825183,13.6145265 49.641591,13.4522935 Z" id="Shape" fill="#FFFFFF"></path>
                    </g>
                </g>
            </g>
        </g>
    </g>
</svg>