<?xml version="1.0" encoding="UTF-8" standalone="no"?>
<svg width="76px" height="58px" viewBox="0 0 76 58" version="1.1" xmlns="http://www.w3.org/2000/svg" xmlns:xlink="http://www.w3.org/1999/xlink">
    <!-- Generator: Sketch 3.8.3 (29802) - http://www.bohemiancoding.com/sketch -->
    <title>Group 6</title>
    <desc>Created with Sketch.</desc>
    <defs>
        <path d="M25.8461538,24.9787276 C25.8461538,23.8730627 26.7513358,22.9767442 27.837013,22.9767442 C27.837013,22.9767442 31.5859751,22.9767442 39.9034706,22.9767442 C48.220966,22.9767442 54.5321991,22.9767442 54.5321991,22.9767442 C55.6402273,22.9767442 56.5384615,23.8714097 56.5384615,24.9787276 L56.5384615,48.81197 C56.5384615,49.917635 55.6530007,50.8139535 54.5483022,50.8139535 L27.8363132,50.8139535 C26.7371786,50.8139535 25.8461538,49.9192879 25.8461538,48.81197 L25.8461538,24.9787276 Z" id="path-1"></path>
        <mask id="mask-2" maskContentUnits="userSpaceOnUse" maskUnits="objectBoundingBox" x="0" y="0" width="30.6923077" height="27.8372093" fill="white">
            <use xlink:href="#path-1"></use>
        </mask>
    </defs>
    <g id="Page-1" stroke="none" stroke-width="1" fill="none" fill-rule="evenodd">
        <g id="Group-6" transform="translate(-1.000000, -1.000000)">
            <g id="Group-231-Copy">
                <g id="Group-228">
                    <use id="Rectangle-822" stroke="#4C4F58" mask="url(#mask-2)" stroke-width="4" fill="#A37C95" xlink:href="#path-1"></use>
                    <path d="M39.7307692,24.0764756 L39.7307692,36.8953488" id="Line" stroke="#4C4F58" stroke-linecap="square"></path>
                    <path d="M43.0192308,25.1744186 L43.0192308,53.0116279" id="Line" stroke="#4C4F58" stroke-width="1.5" stroke-linecap="square"></path>
                    <g id="Group-230" transform="translate(32.139757, 43.399752) rotate(-9.000000) translate(-32.139757, -43.399752) translate(3.139757, 27.399752)">
                        <g id="Group-223" transform="translate(-0.000000, -0.000000)">
                            <path d="M54.15,23.7698789 L39.7416667,21.9447063 C39.425,21.9447063 39.1083333,21.7859957 38.7916667,21.627285 L28.3416667,15.2788585 L37.2083333,17.1833865 C38.475,17.4214525 39.8208333,16.7866098 40.4541667,15.6756352 L40.6916667,15.1995032 C41.4833333,13.7711072 40.9291667,11.9459346 39.425,11.073026 L24.6208333,4.4071782 C23.275,3.61362489 21.9291667,3.21684824 20.3458333,3.21684824 L11.875,4.16911221 L11.875,0.915543646 L2.7533531e-13,0.915543646 L2.7533531e-13,27.1028028 L11.875,27.1028028 L11.875,24.3253662 L33.4083333,30.753148 C33.725,30.8325034 33.9625,31.0705694 34.2791667,31.0705694 L53.9125,31.0705694 C55.8125,31.0705694 57.3958333,29.3247521 57.3958333,27.4202241 C57.3958333,25.5950515 55.9708333,23.8492343 54.15,23.7698789 L54.15,23.7698789 Z M10.2916667,25.5156962 L1.58333333,25.5156962 L1.58333333,2.50265026 L10.2916667,2.50265026 L10.2916667,25.5156962 L10.2916667,25.5156962 Z M53.9125,29.4834627 L34.2791667,29.4834627 C34.0416667,29.4834627 34.0416667,29.2453968 33.8041667,29.2453968 L11.875,22.7382596 L11.875,5.75621883 L20.5833333,4.80395486 C21.85,4.80395486 22.9583333,5.12137618 24.1458333,5.75621883 L38.7916667,12.4220666 C39.5041667,12.8188433 39.6625,13.6917519 39.3458333,14.4059499 L39.1083333,14.8820819 C38.7916667,15.4375692 38.1583333,15.7549905 37.6041667,15.5962799 L24.7,12.8188433 C24.3041667,12.7394879 23.8291667,12.9775539 23.6708333,13.3743306 C23.5125,13.7711072 23.6708333,14.2472392 24.0666667,14.4853052 L38,22.8969703 C38.475,23.2143916 39.1083333,23.3731023 39.6625,23.4524576 L54.0708333,25.2776302 C55.0208333,25.3569855 55.8125,26.3886048 55.8125,27.3408688 C55.8125,28.4518434 54.9416667,29.4834627 53.9125,29.4834627 L53.9125,29.4834627 Z" id="Shape-Copy-11" fill="#4C4F58"></path>
                            <polygon id="Path-10648-Copy-4" fill="#1CAEFF" points="1.54075271 2.48598874 10.2701087 2.48598874 10.2701087 25.489348 1.54075271 25.489348"></polygon>
                            <path d="M7.1642503,7.02476046 C4.83882116,3.51287103 1.54075271,2.48598874 1.54075271,2.48598874 L10.2701087,2.48598874 L10.2701085,17.9632493 C10.2701085,17.9632493 9.48967945,10.5366499 7.1642503,7.02476046 Z" id="Path-10648-Copy-3" fill="#005F95"></path>
                            <path d="M11.8452055,5.70665653 L11.8452055,22.7359505 L34.1449961,29.4523797 L54.188608,29.4523784 C54.188608,29.4523784 54.7845803,29.3982906 55.3007296,28.9922953 C55.8859921,28.5319365 56.0116732,27.8892822 56.0368511,27.295481 C56.0620291,26.7016799 55.8094501,26.2269201 55.4348943,25.8281292 C55.1443942,25.5188327 54.5400529,25.364774 54.188608,25.2947174 L39.0326397,23.3079038 L23.9501765,14.3408628 C23.9501765,14.3408628 23.0943416,12.8694869 24.7610521,12.8694869 L37.8463886,15.7342614 C37.8463886,15.7342614 38.6676281,15.9308291 39.3806293,15.1725917 C39.9090535,14.6106418 40.3637491,13.1464755 38.8012414,12.4339939 L25.2354455,6.14447447 C25.2354455,6.14447447 23.6511591,5.35553237 22.0213811,4.9825042 C21.368221,4.83300709 20.6980138,4.76033743 20.1345121,4.81662342 C18.1649499,5.01335533 11.8452055,5.70665653 11.8452055,5.70665653 Z" id="Path-10649-Copy" fill="#FFD487"></path>
                        </g>
                    </g>
                    <g id="Group-229" transform="translate(47.500000, 11.476744) scale(-1, -1) translate(-47.500000, -11.476744) translate(18.000000, 0.976744)">
                        <path d="M2.51606624,0.00847229797 C1.1278205,0.00847229797 0.00153849108,1.19400799 0.00153849108,2.60736711 L0.00153849108,18.3742348 C0.00153849108,19.7875939 1.1278205,20.9731296 2.51606624,20.9731296 L6.76132679,20.9731296 C7.90881213,20.9731296 8.86803823,20.1581986 9.16945712,19.0790803 L39.8367658,19.0790803 C39.8409422,19.0783419 39.8995579,19.0801926 39.8757702,19.0790803 L39.9112338,19.0790803 L39.9502383,19.0790803 C40.4401476,19.0587229 41.0173466,19.0291491 41.6100385,18.7537671 C41.7308652,18.7167537 41.9869274,18.6814798 42.3441815,18.450142 L56.0942869,9.55100596 C58.1024727,8.2596062 58.7032978,5.5080475 57.4739087,3.43511031 L57.470277,3.43511031 L57.0836987,2.78809645 C56.1687332,1.24500514 54.4728811,0.468138805 52.8242519,0.735005879 L52.8242519,0.716869282 C52.2712927,0.807552269 51.7343511,1.01923967 51.2424752,1.33496452 L39.7338107,8.24607223 C39.6432542,6.82790136 39.122884,5.62484164 38.2016865,4.87365339 C37.1962735,4.05380516 35.8797254,3.72782759 34.4742278,3.72782759 L29.501918,3.72782759 C28.6810354,3.72782759 27.3543785,3.34165502 26.0156261,2.90008439 C24.6768737,2.45851377 23.331568,1.96683617 22.1001978,1.88799749 L22.071816,1.88799749 L17.0675872,1.88799749 L17.0639555,1.88799749 C15.2466557,1.90650422 13.6951426,2.44053263 12.4285714,2.93984425 C11.1620002,3.43915588 10.1447571,3.85072339 9.61258409,3.85072339 L9.2756586,3.85072339 L9.2756586,2.60730234 C9.2756586,1.19394322 8.14937659,0.00840752441 6.76113068,0.00840752441 L2.51606624,0.00847229797 Z M2.51606624,1.85914549 L6.76132679,1.85914549 C7.15394751,1.85914549 7.4600039,2.16635169 7.4600039,2.60736711 L7.4600039,18.3742348 C7.4600039,18.8154353 7.15394751,19.1224564 6.76132679,19.1224564 L2.51606624,19.1224564 C2.12344588,19.1224564 1.81738931,18.8154353 1.81738931,18.3742348 L1.81738931,2.60736711 C1.81738931,2.16635169 2.12344588,1.85914549 2.51606624,1.85914549 L2.51606624,1.85914549 Z M55.5303981,3.73873546 L55.9205227,4.38574746 C56.6409706,5.60460083 56.2748551,7.23403344 55.1225416,7.97504114 L41.3688899,16.8741772 C41.3589027,16.8741772 41.2360241,16.9129303 40.9184735,17.033224 C40.6574922,17.1620309 40.3123189,17.211888 39.879313,17.2285441 L9.27576937,17.2285441 L9.27576937,5.70159831 L9.61269486,5.70159831 C10.8113723,5.70159831 11.8760988,5.14075735 13.0848001,4.664209 C14.29248,4.18803079 15.6039297,3.74775564 17.0711608,3.73887241 L21.9867253,3.73887241 C22.7810438,3.78884058 24.1047718,4.21745649 25.45883,4.664209 C26.8128899,5.11077644 28.2017779,5.58231687 29.5019362,5.58231687 L34.474246,5.58231687 C35.5991946,5.58231687 36.4932052,5.85545773 37.0667979,6.32330791 C37.6403907,6.79097303 37.9889106,7.44690343 37.9889106,8.611347 C37.9889106,9.29794861 37.7487135,9.67617809 37.5278552,10.0861041 C37.3427292,10.338906 37.1614255,10.6155928 36.9426682,10.7873352 C36.4583463,11.1471061 35.840957,11.4813377 34.474246,11.4813377 L24.3700295,11.4813377 L24.3700295,13.3320109 C27.7730991,13.333323 31.2168638,13.3509248 34.601913,13.2886311 C36.8333776,13.1046002 38.2481033,12.3413696 39.3720677,10.6138309 L52.1965141,2.91112551 C52.5039359,2.7203211 52.8021476,2.60723386 53.1080604,2.55689555 C53.3417022,2.51895675 53.5752098,2.51473722 53.8031898,2.54597658 C54.4871518,2.63984088 55.1183634,3.0437614 55.5303981,3.73873546 Z" id="Shape" fill="#4C4F58"></path>
                        <rect id="Rectangle-820" fill="#86C298" x="1.81585082" y="1.75556473" width="5.68960678" height="17.3705063"></rect>
                        <path d="M4.04643025,5.4353365 C2.59083772,7.99797974 1.81585082,11.7724012 1.81585082,11.7724012 L1.81585082,1.75556473 L7.5054576,1.75556473 C7.5054576,1.75556473 5.50202279,2.87269327 4.04643025,5.4353365 Z" id="Rectangle-820-Copy" fill="#578966"></path>
                        <path d="M9.30534879,5.72168021 L9.30534879,17.2158695 L39.4523071,17.2158699 C39.4523071,17.2158699 40.7130067,17.5591432 42.1314185,16.4200936 L55.4937265,7.73523619 C55.4937265,7.73523619 57.1776887,5.60465771 56.1910735,4.29097802 C55.2044582,2.97729834 53.9362161,1.84025997 52.0258327,3.00508541 C48.8585111,4.93630857 42.5180171,8.70916756 40.1974814,10.0932763 C39.9414447,10.2459921 39.6710676,10.3495295 39.4523071,10.531126 C39.2439758,10.704065 39.0848616,10.9548334 38.9356334,11.1115674 C38.2137567,11.8697524 36.7089188,13.1609814 34.7454364,13.2793486 L24.3518406,13.2793486 L24.3518406,11.4422301 L35.6151253,11.4422301 C35.6151253,11.4422301 38.0505199,11.2262583 38.0505199,8.631882 C38.0505199,6.03750566 36.8151458,5.90973749 35.2868446,5.60465778 L29.8468286,5.60465774 C29.8468286,5.60465774 27.196644,5.2515568 25.8576979,4.82311421 C25.8576979,4.82311421 23.1263852,3.54727486 20.9713923,3.61764653 C20.9713923,3.61764653 18.2668885,3.48074046 15.9693794,3.81362541 C14.7501528,3.99027854 13.7420796,4.25599271 12.8497158,4.58251766 C10.2757827,5.52434585 9.30534879,5.72168021 9.30534879,5.72168021 Z" id="Path-10667" fill="#FFD487"></path>
                    </g>
                </g>
            </g>
        </g>
    </g>
</svg>