<?xml version="1.0" encoding="UTF-8" standalone="no"?>
<svg width="139px" height="140px" viewBox="0 0 139 140" version="1.1" xmlns="http://www.w3.org/2000/svg" xmlns:xlink="http://www.w3.org/1999/xlink">
    <!-- Generator: Sketch 3.8.3 (29802) - http://www.bohemiancoding.com/sketch -->
    <title>Group 2</title>
    <desc>Created with Sketch.</desc>
    <defs></defs>
    <g id="Page-1" stroke="none" stroke-width="1" fill="none" fill-rule="evenodd">
        <g id="Group-2" fill="#999999">
            <g id="noun_18797_cc">
                <g id="Group">
                    <path d="M135.263579,79.94 L135.263579,73.3386957 L133.832632,73.3386957 C133.747158,53.6093478 127.089053,35.0745652 115.041684,21.1141304 C102.867579,7.00152174 86.6496842,0.321086957 69.3751579,0.321086957 C52.1021053,0.321086957 35.8856842,7.00152174 23.7101053,21.1141304 C11.6671579,35.0745652 5.00463158,53.6093478 4.92210526,73.3386957 L3.48968421,73.3386957 L3.48968421,79.94 C1.50463158,80.6247826 0.0707368421,82.5558696 0.0707368421,84.8369565 C0.0707368421,87.6902174 2.31221053,90.0032609 5.07242105,90.0032609 C5.36421053,90.0032609 5.64568421,89.9713043 5.92273684,89.9226087 L15.8214737,109.282174 L15.8214737,137.414565 L23.0705263,137.414565 C23.5435789,142.244565 33.5631579,138.508696 33.5631579,138.508696 C35.4096842,138.274348 36.9202105,136.507609 36.9202105,134.588696 L36.9202105,94.3721739 C36.9202105,92.4517391 35.4096842,90.6819565 33.5646316,90.44 L26.376,89.1069565 C24.5309474,88.8680435 23.0218947,90.2376087 23.0218947,92.1565217 L23.0218947,92.6267391 L15.8229474,92.6267391 L15.8229474,99.1747826 L9.60547368,87.016087 C9.90463158,86.3526087 10.0741053,85.616087 10.0741053,84.8384783 C10.0741053,83.4917391 9.57010526,82.2682609 8.75073684,81.3476087 L8.75073684,73.7084783 C8.75073684,69.1752174 9.12063158,64.708913 9.83242105,60.3536957 L11.3237895,53.2502174 C11.7452632,51.6219565 12.2168421,50.015 12.74,48.4308696 L16.1884211,39.7843478 C18.9397895,33.9652174 22.4162105,28.5676087 26.572,23.7497826 C38.0107368,10.4908696 53.2103158,4.28217391 69.3751579,4.28217391 C85.54,4.28217391 100.741053,10.4908696 112.179789,23.7497826 C123.670105,37.0726087 130.002526,54.8145652 130.002526,73.71 L130.002526,81.3476087 C129.178737,82.2682609 128.679158,83.4932609 128.679158,84.84 C128.679158,85.6176087 128.850105,86.3541304 129.150737,87.0176087 L122.930316,99.1763043 L122.930316,92.6282609 L115.729895,92.6282609 L115.729895,92.1565217 C115.729895,90.2376087 114.222316,88.8680435 112.375789,89.1069565 L104.286737,90.44 C102.446105,90.6819565 100.937053,92.4517391 100.937053,94.3721739 L100.937053,134.588696 C100.937053,136.507609 102.446105,138.274348 104.291158,138.508696 L112.375789,139.905652 C114.026316,140.115652 115.413053,139.032174 115.678316,137.414565 L122.930316,137.414565 L122.930316,109.280652 C122.930316,109.280652 126.954947,101.635435 128.039579,99.2782609 C132.771579,89.9332609 133.702947,89.9986957 133.702947,89.9986957 C136.451368,89.9880435 138.679579,87.6826087 138.679579,84.8369565 C138.679579,82.5558696 137.245684,80.6232609 135.263579,79.94 Z" id="Shape"></path>
                </g>
            </g>
        </g>
    </g>
</svg>