<?xml version="1.0" encoding="UTF-8" standalone="no"?>
<svg width="61px" height="37px" viewBox="0 0 61 37" version="1.1" xmlns="http://www.w3.org/2000/svg" xmlns:xlink="http://www.w3.org/1999/xlink">
    <!-- Generator: Sketch 3.8.3 (29802) - http://www.bohemiancoding.com/sketch -->
    <title>Group</title>
    <desc>Created with Sketch.</desc>
    <defs>
        <rect id="path-1" x="4.0444239" y="0" width="48.7709941" height="31.2117707" rx="2"></rect>
        <mask id="mask-2" maskContentUnits="userSpaceOnUse" maskUnits="objectBoundingBox" x="0" y="0" width="48.7709941" height="31.2117707" fill="white">
            <use xlink:href="#path-1"></use>
        </mask>
        <rect id="path-3" x="6" y="1.86083984" width="44.8479004" height="28.7653809"></rect>
        <path d="M6,1.86083984 L24.5791016,1.86083984 C24.5791016,1.86083984 19.7016602,5.3996582 18.0187988,12.8771973 C16.3359375,20.3547363 20.0820312,27.2392578 20.0820312,27.2392578 L6,30.6262207 L6,1.86083984 Z" id="path-4"></path>
        <rect id="path-5" x="46" y="15" width="14" height="22" rx="2"></rect>
        <mask id="mask-6" maskContentUnits="userSpaceOnUse" maskUnits="objectBoundingBox" x="0" y="0" width="14" height="22" fill="white">
            <use xlink:href="#path-5"></use>
        </mask>
        <path d="M47.5993652,35.3988037 C47.4992571,35.2936367 47.4915161,34.9830933 47.4915161,34.9830933 L47.4915161,17.038269 C47.4915161,17.038269 47.4669731,16.7701737 47.5993652,16.630249 C47.7317574,16.4903243 48,16.5008545 48,16.5008545 L54.5126955,16.5008545 C54.5126955,16.5008545 51.2080078,20.6091309 50.3012695,25.4401856 C49.3945312,30.2712403 50.6235352,35.5172729 50.6235352,35.5172729 L48.0142822,35.5172729 C48.0142822,35.5172729 47.6994733,35.5039707 47.5993652,35.3988037 Z" id="path-7"></path>
        <path d="M47.4320679,33 L58.5458984,33 L58.5458984,35.032959 C58.5458984,35.032959 58.4971331,35.2799356 58.4082031,35.3660889 C58.3192732,35.4522421 58.0376587,35.5253296 58.0376587,35.5253296 L47.9993286,35.5253296 C47.9993286,35.5253296 47.7633057,35.5253296 47.5950317,35.4450073 C47.4267578,35.3646851 47.4320679,35.032959 47.4320679,35.032959 L47.4320679,33 Z" id="path-8"></path>
    </defs>
    <g id="Page-1" stroke="none" stroke-width="1" fill="none" fill-rule="evenodd">
        <g id="Group" transform="translate(1.000000, 0.000000)">
            <g id="Group-199">
                <g id="Group-198">
                    <g id="Group-197">
                        <g id="Group-196">
                            <g id="Group-70-Copy">
                                <use id="Rectangle-676" stroke="#4C4F58" mask="url(#mask-2)" stroke-width="4" fill="#FFFFFF" xlink:href="#path-1"></use>
                                <use id="Rectangle-721" fill="#8FE4F7" xlink:href="#path-3"></use>
                                <use id="Rectangle-721-Copy" fill="#9FF1FF" xlink:href="#path-4"></use>
                                <path d="M33.9069652,26.6500504 C32.4754978,28.6761465 30.6951079,29.9896324 28.4338051,29.9896324 C26.1725024,29.9896324 23.9082154,28.3940206 22.9606451,26.6500504 L0,26.6500504 C0,30.3474448 2.94956485,33.4484852 6.72500786,33.4484852 L50.260585,33.4484852 C53.8000628,33.3292144 56.7496277,30.3474448 56.7496277,26.6500504 L33.9069652,26.6500504 Z" id="Shape" stroke="#4C4F58" stroke-width="2" fill="#FBF7ED"></path>
                                <path d="M21.2504883,30.196167 C20.4511719,28.8922119 20.0559079,27.6777344 20.0559079,27.6777344 L17.3828122,27.6777344 L1.06347656,27.6777344 C1.06347656,27.6777344 1.19042969,29.6760254 2.50708008,30.9108887 C3.82373047,32.145752 5.91699219,32.409668 5.91699219,32.409668 L23.28479,32.409668 C23.28479,32.409668 22.0498047,31.5001221 21.2504883,30.196167 Z" id="Shape-Copy-5" fill="#E2DDD1"></path>
                            </g>
                        </g>
                    </g>
                </g>
                <use id="Rectangle-723" stroke="#4C4F58" mask="url(#mask-6)" stroke-width="3" fill="#E9F0FB" xlink:href="#path-5"></use>
                <use id="Rectangle-729" fill="#F6F9FD" xlink:href="#path-7"></use>
                <use id="Rectangle-730" fill="#EDEDED" xlink:href="#path-8"></use>
                <path d="M47.4863281,32.9372559 L58.6339111,32.9372559" id="Line" stroke="#4C4F58" stroke-width="0.3" stroke-linecap="square"></path>
                <path d="M53,35.1616821 C53.5522847,35.1616821 54.0101929,34.8014303 54.0101929,34.2491455 C54.0101929,33.6968608 53.5522847,33.2979126 53,33.2979126 C52.4477153,33.2979126 52.0161743,33.6968608 52.0161743,34.2491455 C52.0161743,34.8014303 52.4477153,35.1616821 53,35.1616821 Z" id="Oval-174" fill="#4C4F58"></path>
            </g>
        </g>
    </g>
</svg>