<?xml version="1.0" encoding="UTF-8" standalone="no"?>
<svg width="62px" height="63px" viewBox="0 0 62 63" version="1.1" xmlns="http://www.w3.org/2000/svg" xmlns:xlink="http://www.w3.org/1999/xlink">
    <!-- Generator: Sketch 3.8.3 (29802) - http://www.bohemiancoding.com/sketch -->
    <title>Group 213 Copy</title>
    <desc>Created with Sketch.</desc>
    <defs></defs>
    <g id="Page-1" stroke="none" stroke-width="1" fill="none" fill-rule="evenodd">
        <g id="Group-213-Copy" transform="translate(1.000000, 0.000000)">
            <g id="Group-211">
                <g id="Group-208-Copy" transform="translate(32.000000, 41.000000)"></g>
                <g id="Group-210">
                    <g id="Group-Copy">
                        <g id="Group">
                            <path d="M25.3930818,36.4840863 C19.8147296,36.4840863 15.2861274,34.028412 15.2185818,30.9849945 C6.68447484,31.7608965 0,38.9058717 0,47.6077089 C0,56.8274885 7.50416352,56.3247202 16.7614654,56.3247202 L34.0241903,56.3247202 C43.282,56.3247202 50.7861635,56.8269827 50.7861635,47.6077089 C50.7861635,38.9058717 44.1011808,31.7608965 35.5675818,30.9849945 C35.4995283,34.0279062 30.971434,36.4840863 25.3930818,36.4840863 Z" id="Shape" stroke="#4C4F58" stroke-width="2" fill="#18CAE6"></path>
                            <path d="M14.8178711,43.7390232 C16.3325563,38.9401884 20.0827646,36.6641846 20.0827646,36.6641846 C20.0827646,36.6641846 18.1984872,36.2149587 16.6657724,35.0697021 C15.3836452,34.1116866 14.3969861,32.4946694 14.3876953,32.0760498 C6.3354492,33.5228271 1.52429198,37.751709 0.891967773,47.4494629 C0.661792351,50.9795897 1.58386226,53.5029297 4.78088374,54.5070801 C5.24350292,54.6523838 7.21741988,55.0746336 9.3216557,55.2285156 C12.170518,55.4368519 15.2679448,55.3587646 15.2679448,55.3587646 C15.2679448,55.3587646 13.3031858,48.537858 14.8178711,43.7390232 Z" id="Shape-Copy-10" fill="#07A2C0"></path>
                            <path id="Shape" fill="#000000"></path>
                            <path d="M25.3976525,0 C17.6786635,0 11.4213003,6.23200048 11.4213003,13.9197024 C11.4213003,21.6074043 17.6786635,33.1655119 25.3976525,33.1655119 C33.1166415,33.1655119 39.3745126,21.6068985 39.3745126,13.9197024 C39.3745126,6.23250629 33.1166415,0 25.3976525,0 L25.3976525,0 Z M25.3976525,30.9849945 C19.2210393,30.9849945 14.1149984,22.4495666 13.2841368,15.8437775 L13.2841368,15.8437775 C13.9357233,10.2369497 17.0468836,7.66443498 17.0468836,7.66443498 C19.1347028,13.9930439 33.555434,11.1443606 33.555434,11.1443606 C37.7072028,10.829751 37.4060409,16.5144725 37.401978,16.5792153 C36.3034733,23.0656348 31.3472516,30.9849945 25.3976525,30.9849945 L25.3976525,30.9849945 Z" id="Shape" fill="#4C4F58"></path>
                        </g>
                    </g>
                    <ellipse id="Oval-176" stroke="#4C4F58" fill="#FFD487" cx="49.8113208" cy="51.8545455" rx="10.1886792" ry="10.1454545"></ellipse>
                    <ellipse id="Oval-176-Copy" stroke="#4C4F58" stroke-width="2" fill="#FFD487" cx="49.8113208" cy="51.8545455" rx="10.1886792" ry="10.1454545"></ellipse>
                    <path d="M46.6690674,60.5020752 C46.7253713,60.5254994 43.1290568,53.9196271 43.9042969,49.8059082 C44.8946924,44.5504926 50.2549301,42.7210693 49.6956787,42.7210693 C44.0686265,42.7210693 40.1951904,47.5489502 40.5482178,52.5808105 C40.8491481,56.8701084 43.5899659,59.2210693 46.6690674,60.5020752 Z" id="Oval-176-Copy-2" fill="#FFE7BC"></path>
                    <g id="Group-209" transform="translate(43.018868, 47.345455)" fill="#4C4F58">
                        <path d="M4.72423803,8.66472564 C4.55146589,8.66472564 4.37869376,8.60438202 4.24708999,8.48338531 C3.98354499,8.24170136 3.98354499,7.84993198 4.24708999,7.60824802 L12.3457837,0.18134033 C12.6093287,-0.060343625 13.0365348,-0.060343625 13.3000798,0.18134033 C13.5636248,0.423024284 13.5636248,0.814793665 13.3000798,1.05647762 L5.20138607,8.48338531 C5.06978229,8.60438202 4.89701016,8.66472564 4.72423803,8.66472564 L4.72423803,8.66472564 Z" id="Shape"></path>
                        <path d="M4.72423803,8.66472564 C4.55146589,8.66472564 4.3790312,8.60438202 4.24708999,8.48338531 L0.197743106,4.76993147 C-0.0658018868,4.52824751 -0.0658018868,4.13616868 0.197743106,3.89448472 C0.460950653,3.65280077 0.888494194,3.65280077 1.15203919,3.89448472 L5.20138607,7.60793857 C5.46493106,7.84962252 5.46493106,8.24139191 5.20138607,8.48307586 C5.06978229,8.60438202 4.89701016,8.66472564 4.72423803,8.66472564 L4.72423803,8.66472564 Z" id="Shape"></path>
                    </g>
                </g>
                <path d="M15.9790039,5.38098145 C15.9790039,5.38098145 12.217041,9.72729492 13,15.8671875 C13.4882988,19.6963821 16.1654972,26.0976192 20.2958984,29.2493896 C21.8985084,30.4722875 23.6814867,30.9587899 25.4985352,31.057373 C31.9986564,31.4100342 37.7083749,19.637207 37.503418,16.6137695 C37.503418,16.6137695 38.0623779,9.99304199 32.4997559,11.277832 C32.4997559,11.277832 22.9792483,12.2342529 19.8884278,10.4433594 C16.7976074,8.65246582 15.9790039,5.38098145 15.9790039,5.38098145 Z" id="Path-10525" fill="#FFE1C0"></path>
                <path id="Path-10542" stroke="#979797"></path>
                <path d="M18.6687013,9.3034668 C17.3218438,7.94524499 15.9521485,5.35180664 15.9521485,5.35180664 C15.9521485,5.35180664 10.703125,10.907959 13.7480469,20.0554199 C13.7480469,20.0554199 15.0472442,23.0505375 16.9274902,25.723877 C18.054597,27.3264009 19.5211137,28.7467553 20.6767578,29.5229492 C20.6767578,29.5229492 18.3430175,24.3424072 18.6687011,18.7243652 C18.9943847,13.1063232 21.4155273,10.907959 21.4155273,10.907959 C21.4155273,10.907959 20.0155587,10.6616886 18.6687013,9.3034668 Z" id="Path-10543" fill="#F6D6B3"></path>
            </g>
        </g>
    </g>
</svg>