<?xml version="1.0" encoding="UTF-8" standalone="no"?>
<svg width="28px" height="28px" viewBox="0 0 28 28" version="1.1" xmlns="http://www.w3.org/2000/svg" xmlns:xlink="http://www.w3.org/1999/xlink">
    <!-- Generator: Sketch 3.8.3 (29802) - http://www.bohemiancoding.com/sketch -->
    <title>Group 30</title>
    <desc>Created with Sketch.</desc>
    <defs></defs>
    <g id="Page-1" stroke="none" stroke-width="1" fill="none" fill-rule="evenodd">
        <g id="Group-30" transform="translate(1.000000, 1.000000)" fill="#999999" stroke="#979797">
            <g id="Group-32">
                <path d="M21.8058148,0 L4.06803704,0 C1.82240741,0 0,1.82240741 0,4.07188889 L0,21.8096667 C0,24.0552963 1.82240741,25.8777037 4.06803704,25.8777037 L21.8058148,25.8777037 C24.0514444,25.8777037 25.8719259,24.0552963 25.8719259,21.8096667 L25.8719259,4.07188889 C25.8719259,1.82240741 24.0514444,0 21.8058148,0 L21.8058148,0 Z M19.0541481,2.99433333 L22.3060741,2.98662963 L22.3132963,2.98662963 C22.6257778,2.98277778 22.8795185,3.237 22.8795185,3.54514815 L22.8795185,6.8067037 C22.8795185,7.1187037 22.6296296,7.36907407 22.3171481,7.36907407 L19.0690741,7.38014815 C18.7570741,7.38014815 18.5067037,7.13025926 18.5067037,6.82162963 L18.4956296,3.56055556 C18.4917778,3.24807407 18.7421481,2.99818519 19.0541481,2.99433333 L19.0541481,2.99433333 Z M8.97144444,10.7168148 C9.0557037,10.569963 9.1442963,10.4235926 9.24396296,10.2858889 C10.0716296,9.13707407 11.4164074,8.38644444 12.934037,8.38644444 C14.4555185,8.38644444 15.8002963,9.13707407 16.627963,10.2858889 C16.7276296,10.4235926 16.8162222,10.569963 16.9004815,10.7206667 C17.2712222,11.375 17.4912593,12.1347778 17.4912593,12.9398148 C17.4912593,15.4507407 15.444963,17.4912593 12.934037,17.4912593 C10.4231111,17.4912593 8.38066667,15.4507407 8.38066667,12.9398148 C8.38066667,12.1347778 8.59685185,11.375 8.97144444,10.7168148 L8.97144444,10.7168148 Z M23.3537778,20.8784815 C23.3537778,22.2458889 22.2401111,23.3595556 20.8727037,23.3595556 L4.99922222,23.3595556 C3.63181481,23.3595556 2.51814815,22.2458889 2.51814815,20.8784815 L2.51814815,10.2858889 L6.38155556,10.2858889 C6.28525926,10.5213333 6.201,10.7673704 6.13118519,11.0138889 C5.95448148,11.6253704 5.86251852,12.272 5.86251852,12.9398148 C5.86251852,16.8407778 9.035,20.0151852 12.934037,20.0151852 C16.8364444,20.0151852 20.0094074,16.8407778 20.0094074,12.9398148 C20.0094074,12.272 19.9135926,11.6253704 19.7407407,11.0138889 C19.6670741,10.7673704 19.5861852,10.5213333 19.4903704,10.2858889 L23.3537778,10.2858889 L23.3537778,20.8784815 Z" id="Fill-2"></path>
            </g>
        </g>
    </g>
</svg>