<?xml version="1.0" encoding="UTF-8" standalone="no"?>
<svg width="78px" height="47px" viewBox="0 0 78 47" version="1.1" xmlns="http://www.w3.org/2000/svg" xmlns:xlink="http://www.w3.org/1999/xlink">
    <!-- Generator: Sketch 3.8.3 (29802) - http://www.bohemiancoding.com/sketch -->
    <title>Group 8</title>
    <desc>Created with Sketch.</desc>
    <defs>
        <rect id="path-1" x="5.190344" y="0" width="62.5894424" height="39.6473844" rx="2"></rect>
        <mask id="mask-2" maskContentUnits="userSpaceOnUse" maskUnits="objectBoundingBox" x="0" y="0" width="62.5894424" height="39.6473844" fill="white">
            <use xlink:href="#path-1"></use>
        </mask>
        <rect id="path-3" x="7.07592773" y="1.98510742" width="58.7380363" height="36.9184685"></rect>
        <path d="M7.01977539,1.9519043 L31.5974121,1.9519043 C31.5974121,1.9519043 25.2837972,6.85902529 23.1241252,16.3575209 C20.9644531,25.8560164 25.7719401,34.6012194 25.7719401,34.6012194 L7.01977539,38.9279785 L7.01977539,1.9519043 Z" id="path-4"></path>
        <rect id="path-5" x="59.0333333" y="19.0540541" width="17.9666667" height="27.9459459" rx="2"></rect>
        <mask id="mask-6" maskContentUnits="userSpaceOnUse" maskUnits="objectBoundingBox" x="0" y="0" width="17.9666667" height="27.9459459" fill="white">
            <use xlink:href="#path-5"></use>
        </mask>
        <path d="M61.0858521,44.966048 C60.95738,44.8324575 60.4689331,44.3274539 60.4689331,44.3274539 L60.5637207,21.1249109 C60.5637207,21.1249109 60.521503,20.8552324 60.6914062,20.6774902 C60.8613095,20.4997481 61.208374,20.5335693 61.208374,20.5335693 L69.9796753,20.5335693 C69.9796753,20.5335693 65.7169434,26.1791663 64.5532959,32.3159114 C63.3896484,38.4526565 64.9668701,45.1165359 64.9668701,45.1165359 L61.6183289,45.1165359 C61.6183289,45.1165359 61.2143241,45.0996384 61.0858521,44.966048 Z" id="path-7"></path>
        <path d="M60.4058838,41.9189189 L75.5200028,41.9189189 L75.5177006,44.4843751 C75.5177006,44.4843751 75.5273028,44.6771443 75.5200033,44.8764829 C75.5172274,44.9522886 75.5330336,45.1543474 75.4376835,45.2771607 C75.3050321,45.4480191 75.0494389,45.5351563 75.0494389,45.5351563 C75.0494389,45.5351563 81.5452881,45.5351563 74.7876587,45.5351563 C68.0300293,45.5351563 61.2723999,45.5351563 61.2723999,45.5351563 C61.2723999,45.5351563 60.8314142,45.5521043 60.6148071,45.4500733 C60.3982001,45.3480423 60.4058838,44.8021851 60.4058838,44.8021851 L60.4058838,41.9189189 Z" id="path-8"></path>
    </defs>
    <g id="Page-1" stroke="none" stroke-width="1" fill="none" fill-rule="evenodd">
        <g id="Group-8" transform="translate(1.000000, 0.000000)">
            <g id="Group-223">
                <g id="Group">
                    <g id="Group-199">
                        <g id="Group-198">
                            <g id="Group-197">
                                <g id="Group-196">
                                    <g id="Group-70-Copy">
                                        <use id="Rectangle-676" stroke="#4C4F58" mask="url(#mask-2)" stroke-width="4" fill="#FFFFFF" xlink:href="#path-1"></use>
                                        <use id="Rectangle-721" fill="#8FE4F7" xlink:href="#path-3"></use>
                                        <use id="Rectangle-721-Copy" fill="#9FF1FF" xlink:href="#path-4"></use>
                                        <path d="M43.5139387,33.8527667 C41.6768888,36.4264563 39.3920551,38.0949385 36.4900499,38.0949384 C33.5880448,38.0949384 30.6822098,36.0680802 29.4661612,33.8527667 L0,33.8527667 C0,38.5494569 3.78527489,42.4886163 8.63042675,42.4886163 L64.5010841,42.4886163 C69.043414,42.3371102 72.8286889,38.5494569 72.8286889,33.8527667 L43.5139387,33.8527667 Z" id="Shape" stroke="#4C4F58" stroke-width="2" fill="#FBF7ED"></path>
                                        <path d="M27.27146,38.3572932 C26.2456706,36.7009179 25.7225342,34.84375 25.7225342,34.84375 L22.3164062,34.84375 L0.985229492,34.84375 C0.985229492,34.84375 1.52917074,37.9813166 3.21887207,39.5499268 C4.9085734,41.1185369 7.92077637,41.5039062 7.92077637,41.5039062 L29.9558105,41.5039062 C29.9558105,41.5039062 28.2972493,40.0136686 27.27146,38.3572932 Z" id="Shape-Copy-5" fill="#E2DDD1"></path>
                                    </g>
                                </g>
                            </g>
                        </g>
                        <use id="Rectangle-723" stroke="#4C4F58" mask="url(#mask-6)" stroke-width="3" fill="#E9F0FB" xlink:href="#path-5"></use>
                        <use id="Rectangle-729" fill="#F6F9FD" xlink:href="#path-7"></use>
                        <use id="Rectangle-730" fill="#EDEDED" xlink:href="#path-8"></use>
                        <path d="M60.4418945,41.8392169 L75.5692753,41.8392169" id="Line" stroke="#4C4F58" stroke-width="0.3" stroke-linecap="square"></path>
                    </g>
                </g>
                <circle id="Oval-183" fill="#4C4F58" cx="68" cy="44" r="1"></circle>
            </g>
        </g>
    </g>
</svg>