<?xml version="1.0" encoding="UTF-8" standalone="no"?>
<svg xmlns="http://www.w3.org/2000/svg" height="45px" width="270px" version="1.1" xmlns:xlink="http://www.w3.org/1999/xlink" viewBox="0 0 270 45"><!-- Generator: Sketch 3.8.3 (29802) - http://www.bohemiancoding.com/sketch -->
 <title>Group 2</title>
 <desc>Created with Sketch.</desc>
 <g id="Page-1" fill-rule="evenodd" fill="none">
  <g id="A4" transform="translate(-163 -265)">
   <g id="Group-2" transform="translate(163 265)">
    <g id="GOOGLE-">
     <g id="Group-256">
      <g id="Page-1">
       <g id="Group-256">
        <g id="Login-Gplus">
         <g id="Group-7">
          <g id="Page-1">
           <g id="Artboard">
            <g id="Group-7">
             <rect id="Rectangle-462" rx="1" height="45" width="270" y="0" x="0" fill="#DF4A32"/>
             <g id="social-network" fill="#fff" transform="translate(25 17)">
              <g id="Capa_1">
               <g id="google-plus">
                <path id="Shape" d="m10.729 5.2999v-1.59h-1.0599v1.59h-1.59v1.06h1.59v1.59h1.0599v-1.59h1.59v-1.06h-1.59zm-4.0809 1.802l-0.583-0.424c-0.212-0.159-0.4239-0.371-0.4239-0.742s0.2649-0.689 0.5299-0.848c0.689-0.53 1.378-1.113 1.378-2.2789 0-1.113-0.689-1.749-1.06-2.067l0.901-0.00001 0.636-0.74199h-3.2859c-2.332 0-3.498 1.484-3.498 3.074 0 1.2189 0.954 2.5439 2.65 2.5439h0.424c-0.053 0.159-0.212 0.424-0.212 0.689 0 0.53 0.212 0.742 0.477 1.06-0.742 0.053-2.12 0.212-3.127 0.848-0.95397 0.583-1.219 1.3779-1.219 1.9611 0.00004 1.219 1.113 2.385 3.498 2.385 2.8619 0 4.2399-1.59 4.2399-3.1271 0-1.113-0.583-1.696-1.325-2.332zm-4.0279-4.8229c0-1.166 0.689-1.696 1.431-1.696 1.378-0.00001 2.1199 1.855 2.1199 2.9149 0 1.378-1.1129 1.643-1.5369 1.643-1.325 0-2.014-1.643-2.014-2.8619zm1.9079 9.54c-1.7489 0-2.8619-0.795-2.8619-1.9612 0-1.166 1.06-1.537 1.378-1.6959 0.689-0.212 1.5899-0.265 1.7489-0.265h0.371c1.272 0.9009 1.802 1.2719 1.802 2.1201 0 1.007-1.007 1.802-2.438 1.802z"/>
               </g>
              </g>
             </g>
             <g id="Continue-with-Google" font-size="12" font-family="Ubuntu-Bold, Ubuntu" transform="translate(57 12)" font-weight="bold" fill="#fff">
              <g id="CONTINUE-WITH-GOOGLE">
               <text id="CONTINUE-WITH-GOOGLE+">
                <tspan y="14" x="0">CONTINUE WITH GOOGLE+</tspan>
               </text>
              </g>
             </g>
            </g>
           </g>
          </g>
         </g>
        </g>
       </g>
      </g>
     </g>
    </g>
   </g>
  </g>
 </g>
</svg>
