<?xml version="1.0" encoding="UTF-8" standalone="no"?>
<svg width="270px" height="45px" viewBox="0 0 270 45" version="1.1" xmlns="http://www.w3.org/2000/svg" xmlns:xlink="http://www.w3.org/1999/xlink">
    <!-- Generator: Sketch 3.8.3 (29802) - http://www.bohemiancoding.com/sketch -->
    <title>Group</title>
    <desc>Created with Sketch.</desc>
    <defs></defs>
    <g id="Page-1" stroke="none" stroke-width="1" fill="none" fill-rule="evenodd">
        <g id="A4" transform="translate(-163.000000, -162.000000)">
            <g id="Group" transform="translate(163.000000, 162.000000)">
                <g id="FACEBOOK">
                    <g id="Group-255">
                        <g id="Page-1">
                            <g id="Group-255">
                                <g id="Login-Facebook">
                                    <g id="Group-4">
                                        <g id="Page-1">
                                            <g id="Artboard">
                                                <g id="Group-4">
                                                    <rect id="Rectangle-462" fill="#39579A" x="0" y="0" width="270" height="45" rx="1"></rect>
                                                    <g id="Continue-with-Facebo" transform="translate(52.000000, 13.000000)" font-size="12" font-family="Ubuntu-Bold, Ubuntu" fill="#FFFFFF" font-weight="bold">
                                                        <g id="CONTINUE-WITH-FACEBO">
                                                            <text>
                                                                <tspan x="0" y="14">CONTINUE WITH FACEBOOK</tspan>
                                                            </text>
                                                        </g>
                                                    </g>
                                                    <g id="social-media" transform="translate(26.000000, 16.000000)" fill="#FFFFFF">
                                                        <g id="Capa_1">
                                                            <path d="M5.71442695,0 L5.00611494,0 C3.0374282,0 1.4358054,1.60166793 1.4358054,3.57035468 L1.4358054,5.07715375 L0.225663313,5.07715375 C0.101052032,5.07715375 -1.33226763e-15,5.17820578 -1.33226763e-15,5.30281707 L-1.33226763e-15,7.10812357 C-1.33226763e-15,7.23273485 0.101052032,7.33378688 0.225663313,7.33378688 L1.43571513,7.33378688 L1.43571513,12.8628089 C1.43571513,12.9874201 1.53676716,13.0884722 1.66137844,13.0884722 L3.46668495,13.0884722 C3.59129623,13.0884722 3.69234826,12.9874201 3.69234826,12.8628089 L3.69234826,7.33378688 L5.48799638,7.33378688 C5.61260766,7.33378688 5.71365969,7.23273485 5.71365969,7.10812357 L5.71365969,5.30281707 C5.71365969,5.17820578 5.61260766,5.07715375 5.48799638,5.07715375 L3.69234826,5.07715375 L3.69234826,3.57035468 C3.69234826,2.84597544 4.28169057,2.25663313 5.00602468,2.25663313 L5.71433668,2.25663313 C5.83894797,2.25663313 5.94,2.1555811 5.94,2.03096982 L5.94,0.225663313 C5.94009026,0.101052032 5.83903823,0 5.71442695,0 L5.71442695,0 L5.71442695,0 L5.71442695,0 Z" id="Shape"></path>
                                                        </g>
                                                    </g>
                                                </g>
                                            </g>
                                        </g>
                                    </g>
                                </g>
                            </g>
                        </g>
                    </g>
                </g>
            </g>
        </g>
    </g>
</svg>