<?xml version="1.0" encoding="UTF-8" standalone="no"?>
<svg width="40px" height="72px" viewBox="0 0 40 72" version="1.1" xmlns="http://www.w3.org/2000/svg" xmlns:xlink="http://www.w3.org/1999/xlink">
    <!-- Generator: Sketch 3.8.3 (29802) - http://www.bohemiancoding.com/sketch -->
    <title>Group 43</title>
    <desc>Created with Sketch.</desc>
    <defs>
        <rect id="path-1" x="3" y="41" width="32.3880597" height="27.0514033" rx="5"></rect>
        <mask id="mask-2" maskContentUnits="userSpaceOnUse" maskUnits="objectBoundingBox" x="0" y="0" width="32.3880597" height="27.0514033" fill="white">
            <use xlink:href="#path-1"></use>
        </mask>
    </defs>
    <g id="Page-1" stroke="none" stroke-width="1" fill="none" fill-rule="evenodd">
        <g id="Group-43" transform="translate(2.000000, 3.000000)">
            <g id="Group-18">
                <use id="Rectangle-697" stroke="#4C4F58" mask="url(#mask-2)" stroke-width="6" fill="#FF5855" xlink:href="#path-1"></use>
                <g id="Group-58-Copy" transform="translate(3.238806, 11.209524)">
                    <g id="Group-57">
                        <g id="Group-49">
                            <g id="Group-55">
                                <path d="M15.5671642,31.2190476 C24.1646716,31.2190476 31.1343284,24.2304258 31.1343284,15.6095238 C31.1343284,6.98862186 24.1646716,0 15.5671642,0 C6.96965681,0 0,6.98862186 0,15.6095238 C0,24.2304258 6.96965681,31.2190476 15.5671642,31.2190476 Z" id="Oval-152" stroke="#4C4F58" stroke-width="3" fill="#FFE1C0"></path>
                                <path d="M6.42977313,26.3976546 C8.58048577,28.391752 10.8797243,28.8753157 10.8797243,28.8753157 C10.8797243,28.8753157 6.32247559,25.2404589 4.75964902,17.9541854 C2.33013643,6.62721299 7.72379053,4.26580264 7.28463153,4.51667248 C2.77194164,7.09454924 0.974817077,10.4113279 0.974817077,15.9916478 C0.974817077,19.4058523 3.69814401,23.8649431 6.42977313,26.3976546 Z" id="Oval-152-Copy" fill="#E5CAAC"></path>
                            </g>
                        </g>
                    </g>
                </g>
                <path d="M8.66524447,22.8105278 C8.66524447,22.8105278 9.89213124,23.7720309 11.2979743,24.2532192 C12.7038175,24.7344074 15.1693855,24.8997675 15.1693855,24.8997675 C15.4182716,24.9800599 15.7010781,24.7948959 15.79957,24.4868354 L15.963042,23.9727186 C16.0615338,23.6642485 15.9393385,23.3496335 15.6900438,23.2689315 C15.6900438,23.2689315 13.3028185,23.5522239 11.8698223,23.0402062 C10.4368262,22.5281885 9.18631138,21.1809207 9.18631138,21.1809207 C8.93701662,21.0998091 8.65543615,21.2857924 8.55653561,21.5938528 L8.39224628,22.1079697 C8.29375442,22.4160301 8.41635839,22.7310547 8.66524447,22.8105278 Z" id="Shape-Copy-6" fill="#4C4F58" transform="translate(12.177670, 23.040206) rotate(-9.000000) translate(-12.177670, -23.040206) "></path>
                <path d="M21.5159907,22.8105278 C21.5159907,22.8105278 22.7428775,23.7720309 24.1487206,24.2532192 C25.5545637,24.7344074 28.0201318,24.8997675 28.0201318,24.8997675 C28.2690179,24.9800599 28.5518244,24.7948959 28.6503163,24.4868354 L28.8137882,23.9727186 C28.9122801,23.6642485 28.7900848,23.3496335 28.54079,23.2689315 C28.54079,23.2689315 26.1535647,23.5522239 24.7205686,23.0402062 C23.2875724,22.5281885 22.0370576,21.1809207 22.0370576,21.1809207 C21.7877629,21.0998091 21.5061824,21.2857924 21.4072819,21.5938528 L21.2429925,22.1079697 C21.1445007,22.4160301 21.2671047,22.7310547 21.5159907,22.8105278 Z" id="Shape-Copy-7" fill="#4C4F58" transform="translate(25.028416, 23.040206) scale(-1, 1) rotate(-9.000000) translate(-25.028416, -23.040206) "></path>
                <path d="M27.4946431,27.7680496 C27.2997027,27.8929943 23.6534604,30.2005801 18.8187769,30.3091387 C13.9849107,30.2001705 10.3382596,27.8929943 10.142502,27.7680496 C10.1404586,27.765182 10.1367804,27.7631337 10.1343284,27.7619048 C10.1343284,27.7619048 13.2966937,37.0500093 18.7877172,37.1171927 L18.7897606,37.1184217 C18.7991602,37.1184217 18.8089685,37.1176024 18.8187769,37.1176024 C18.8285852,37.1176024 18.8388022,37.1184217 18.8482018,37.1184217 L18.8502452,37.1171927 C24.3416774,37.0500093 27.5040427,27.7619048 27.5040427,27.7619048 C27.5003646,27.7631337 27.4979125,27.765182 27.4946431,27.7680496 L27.4946431,27.7680496 Z M24.5709469,31.7183514 C23.1021512,32.2890006 21.0992109,32.8514567 18.8187769,32.9038925 C16.5379342,32.8514567 14.5362199,32.2890006 13.0674242,31.7183514 C12.6701873,31.0084195 12.3571385,30.3406821 12.1323645,29.8163239 C13.6195508,30.4943026 16.0086937,31.3324565 18.8187769,31.3963626 C21.6292687,31.3324565 24.0188203,30.4943026 25.5055979,29.8163239 C25.2812326,30.3406821 24.9669577,31.0084195 24.5709469,31.7183514 L24.5709469,31.7183514 Z" id="Shape-Copy-4" fill="#4C4F58"></path>
                <path d="M8.7858797,0.0646349664 C8.7858797,0.0646349664 -2.48379203,5.00033483 0.592584051,12.8368777 C0.592584051,12.8368777 1.91050684,17.8622328 6.4127217,18.6237477 C6.4127217,18.6237477 32.8539241,17.2278084 33.128816,18.6237484 L33.2238806,12.836878 C33.2238806,12.836878 32.97714,9.16746882 28.6533047,8.77546539 L8.94076016,6.46628669 L8.7858797,0.0646349664 Z" id="Path-10365" stroke="#4C4F58" stroke-width="3" fill="#FFD487"></path>
                <path d="M7.56420879,2.45532227 C7.56420879,2.45532227 0.696411112,5.91564941 1.59741211,11.3679199 C1.92649203,13.359297 3.08199334,15.1274006 4.28637707,16.1120605 C5.29522616,16.9368585 6.41015613,17.1420898 6.41015613,17.1420898 L7.56420886,17.1420898 L13.5361327,16.8189697 C13.5361327,16.8189697 11.6788419,14.2931455 12.8056493,11.8206008 C13.9324566,9.34805618 15.1678466,8.70812988 15.1678466,8.70812988 C12.5576092,8.39396021 7.56420889,7.74902344 7.56420889,7.74902344 L7.56420879,2.45532227 Z" id="Path-10366" fill="#FFE6AF"></path>
                <path d="M35.3309033,59.5341017 C35.5638868,59.8118916 35.7098951,60.1673988 35.7098951,60.5603698 C35.7098951,61.1426524 35.3982009,61.6472177 34.9373501,61.9250075 C35.1703336,62.2031959 35.3163418,62.5587032 35.3163418,62.9516742 C35.3163418,63.5343553 35.0042541,64.0381234 34.5437969,64.3163119 C34.7767804,64.5941017 34.9227886,64.949609 34.9227886,65.34258 C34.9227886,66.2229785 34.2179348,66.9367829 33.3485757,66.9367829 L24.1378561,66.9359858 L24.1378561,66.9264205 C23.5073838,66.8989205 22.9501124,66.5980148 22.573482,66.1388843 L19.9677661,66.1388843 C18.8807721,66.1388843 18,63.9974713 18,61.3562756 C18,58.71508 18.8807721,56.5736669 19.9677661,56.5736669 L23.268497,56.5736669 L26.2646177,52.1904061 L26.2646177,50.1976524 C26.47753,48.89758 27.4452774,49.0020003 27.4452774,49.0020003 C28.3158171,49.0020003 28.625937,49.400551 28.625937,49.400551 C29.8065967,50.5962032 29.8065967,52.5889568 29.8065967,52.5889568 C29.8065967,55.22258 28.625937,56.574464 28.625937,56.574464 L34.5292354,56.574464 C35.3985945,56.574464 36.1034483,57.2882684 36.1034483,58.1686669 C36.1034483,58.7513481 35.7913606,59.2559133 35.3309033,59.5341017 L35.3309033,59.5341017 Z" id="Shape" stroke="#4C4F58" stroke-width="2" fill="#FFE1C0" transform="translate(27.051724, 57.968391) scale(-1, 1) translate(-27.051724, -57.968391) "></path>
                <path d="M13.7463379,43.9897461 L7.77893061,43.9924316 C7.77893061,43.9924316 6.00073242,44.078064 6.00073242,45.8236694 C6.00073242,47.5692749 6.00073242,63.3080444 6.00073242,63.3080444 C6.00073242,63.3080444 6.15454101,65.0639648 7.88262936,65.0639648 L11.6679687,65.0639648 C11.6679687,65.0639648 10.3102774,59.0606757 11.6679687,53.2138672 C12.5834027,49.2716109 15.4098793,45.1192819 18.1542972,43.9924316 L15.0855716,43.9924316 L13.7463379,43.9897461 Z" id="Path-333" fill="#F74645"></path>
            </g>
        </g>
    </g>
</svg>