<?xml version="1.0" encoding="UTF-8" standalone="no"?>
<svg width="97px" height="87px" viewBox="0 0 97 87" version="1.1" xmlns="http://www.w3.org/2000/svg" xmlns:xlink="http://www.w3.org/1999/xlink">
    <!-- Generator: Sketch 3.8.3 (29802) - http://www.bohemiancoding.com/sketch -->
    <title>Group 16</title>
    <desc>Created with Sketch.</desc>
    <defs></defs>
    <g id="Page-1" stroke="none" stroke-width="1" fill="none" fill-rule="evenodd">
        <g id="Group-16">
            <g id="Group-29">
                <g id="Group-12-Copy">
                    <g id="Group-219-Copy">
                        <path d="M77.0149505,36.8467747 L74.3800602,38.6749704 L76.1470624,41.2287218 C76.1894538,41.2025723 76.2320344,41.1788861 76.2729118,41.1502732 C77.6621763,40.186908 78.0083097,38.2774212 77.0454194,36.8865675 L77.0149505,36.8467747" id="Fill-36" fill="#2C4927"></path>
                        <path d="M79.5697892,46.0885618 L81.3960258,48.7270151 L83.9465118,46.9575612 C83.9202065,46.915305 83.8965505,46.8726698 83.8685419,46.8317401 C82.9056516,45.4406969 80.9987957,45.0941204 79.6095312,46.0582435 L79.5697892,46.0885618" id="Fill-37" fill="#2C4927"></path>
                        <path d="M44.1088172,40.5181358 L46.1053763,43.0292521 L43.6775226,44.9641305 C43.644972,44.92718 43.6107183,44.8925034 43.5796817,44.8530896 C42.5270882,43.5291257 42.7456688,41.6012584 44.068129,40.5469382 L44.1088172,40.5181358" id="Fill-44" fill="#2C4927"></path>
                        <path d="M39.0006538,48.629428 L36.4923699,50.6281644 L34.5597763,48.1973917 C34.5968688,48.164989 34.6318796,48.1305018 34.6706753,48.099615 C35.9931355,47.0456738 37.9189161,47.2645343 38.9713204,48.5884982 L39.0006538,48.629428" id="Fill-45" fill="#2C4927"></path>
                        <path d="M22.2002237,72.7813944 C22.5632,73.2248001 23.2227269,73.290553 23.6657548,72.9271119 L48.0771441,52.896355 C48.5199828,52.5329139 48.5858409,51.8727321 48.2226753,51.4291369 L40.2958624,41.7439441 C39.932886,41.3001594 39.2733591,41.2347855 38.8303312,41.5984161 L14.4189419,61.6289836 C13.9757247,61.9924246 13.9102452,62.6527959 14.2734108,63.0962016 L22.2002237,72.7813944" id="Fill-48" fill="#4B7036"></path>
                        <path d="M27.4211785,60.4026068 C29.1529806,62.5186373 32.2704516,62.8284528 34.3839656,61.0940544 C36.4972903,59.360035 36.8065204,56.2385727 35.074529,54.1227317 C33.3427269,52.0065118 30.2252559,51.6970752 28.1121204,53.4309052 C25.9986065,55.1649246 25.6891871,58.2865764 27.4211785,60.4026068" id="Fill-49" fill="#2C4927"></path>
                        <path d="M39.3475441,43.3616169 L16.0436301,62.4835817 L23.2717419,71.3149344 L46.5758452,52.1933485 L39.3475441,43.3616169 M14.944671,62.3742462 L39.4567398,42.2612507 L47.6749935,52.3024945 L23.1629247,72.4153005 L14.944671,62.3742462" id="Fill-50" fill="#2C4927"></path>
                        <path d="M36.8267699,44.7285949 L39.3060989,42.6942345 L41.2729462,45.0971522 C41.2362323,45.1303129 41.2019785,45.1648 41.163372,45.1968237 C39.8562409,46.2691454 37.9278108,46.0777609 36.8562925,44.7689562 L36.8267699,44.7285949" id="Fill-51" fill="#2C4927"></path>
                        <path d="M44.9997935,49.7275203 L47.0315527,52.2105921 L44.6309505,54.1793891 C44.5982108,54.1430071 44.5635785,54.108141 44.5319742,54.0698641 C43.4606452,52.7610594 43.6521634,50.8301603 44.9591054,49.7570806 L44.9997935,49.7275203" id="Fill-52" fill="#2C4927"></path>
                        <path d="M25.7168172,69.8551064 L23.2372989,71.8892774 L21.2706409,69.4865491 C21.3071656,69.453199 21.3414194,69.4183329 21.3800258,69.3866881 C22.687157,68.3145559 24.6159656,68.5059404 25.6872946,69.8147451 L25.7168172,69.8551064" id="Fill-53" fill="#2C4927"></path>
                        <path d="M17.5439828,64.8561811 L15.5120344,62.3731092 L17.9122581,60.4041227 C17.9451871,60.4405047 17.9800086,60.4753708 18.0116129,60.5138372 C19.0829419,61.8224524 18.8916129,63.7537305 17.5842925,64.8260522 L17.5439828,64.8561811" id="Fill-54" fill="#2C4927"></path>
                        <path d="M80.5171613,36.8583335 L77.3432946,37.3091293 L77.7789419,40.3853036 C77.8283355,40.3807559 77.8771613,40.378861 77.9267441,40.3718498 C79.5998796,40.1342299 80.7643183,38.5832574 80.5270022,36.9076008 L80.5171613,36.8583335" id="Fill-59" fill="#38562C"></path>
                        <path d="M78.6617806,46.2663031 L79.112,49.4440438 L82.1844301,49.0078387 C82.1798882,48.9585714 82.1778065,48.9094936 82.1709935,48.8600368 C81.9332989,47.1843802 80.3843097,46.0186402 78.7109849,46.2564496 L78.6617806,46.2663031" id="Fill-60" fill="#38562C"></path>
                        <path d="M86.9880946,46.577824 L83.8736516,45.8175917 L83.1388043,48.8359717 C83.1861161,48.8501834 83.2321032,48.86629 83.2805505,48.8784173 C84.9224602,49.2791878 86.5785634,48.2714821 86.9788215,46.6270913 L86.9880946,46.577824" id="Fill-67" fill="#38562C"></path>
                        <path d="M81.7794409,54.6248792 L81.0201806,57.7436886 L84.0350796,58.4792873 C84.0488946,58.4321044 84.0651699,58.3858689 84.0770925,58.3377386 C84.4773505,56.6933477 83.4703656,55.0353137 81.8288344,54.6341642 L81.7794409,54.6248792" id="Fill-68" fill="#38562C"></path>
                        <path d="M92.6993892,60.4710126 C90.9677763,62.587043 87.8501161,62.8968585 85.7366022,61.1626496 C83.6232774,59.4286302 83.3140473,56.3071679 85.0460387,54.191327 C86.7778409,52.0752965 89.8955011,51.765481 92.0084473,53.4993109 C94.1219613,55.2335198 94.4311914,58.3549821 92.6993892,60.4710126" id="Fill-72" fill="#38562C"></path>
                        <path d="M83.2937978,44.7971901 L80.8142796,42.7626402 L78.8476215,45.1657474 C78.8843355,45.1989081 78.9187785,45.2333952 78.9570065,45.2652295 C80.2645161,46.3375512 82.192757,46.1463562 83.2642753,44.8373619 L83.2937978,44.7971901" id="Fill-74" fill="#38562C"></path>
                        <path d="M75.1209634,49.7961155 L73.0890151,52.2791873 L75.4896172,54.2481738 C75.5219785,54.2116023 75.5568,54.1769257 75.5887828,54.1384594 C76.6599226,52.8296546 76.4684043,50.8987555 75.1616516,49.8256759 L75.1209634,49.7961155" id="Fill-75" fill="#38562C"></path>
                        <path d="M33.262486,19.992811 C32.6955011,20.0742915 32.298271,20.6052414 32.3794581,21.1727628 L36.8581849,52.4550337 C36.939372,53.0225551 37.469643,53.4204832 38.0364387,53.3390027 L50.4158624,51.5623481 C50.9826581,51.4808676 51.3800774,50.9499177 51.2988903,50.3823963 L46.8203527,19.1001254 C46.7389763,18.5324146 46.2085161,18.1346759 45.6417204,18.2161564 L33.262486,19.992811" id="Fill-78" fill="#587D3A"></path>
                        <path d="M41.1370667,30.8736832 C38.4325333,31.2619474 36.5542538,33.7723058 36.9418323,36.4806807 C37.3294108,39.1886767 39.8365591,41.0695506 42.5412817,40.6810969 C45.2460043,40.2928327 47.1242839,37.7826638 46.7365161,35.0746679 C46.3489376,32.3662929 43.8419785,30.485419 41.1370667,30.8736832" id="Fill-79" fill="#38562C"></path>
                        <path d="M49.5243183,49.9124621 L45.248843,20.0496579 L33.9608086,21.6699835 L38.2362839,51.5327878 L49.5243183,49.9124621 M45.9112086,19.1647414 L50.4081032,50.5756757 L37.573729,52.4175147 L33.0768344,21.0069594 L45.9112086,19.1647414" id="Fill-81" fill="#38562C"></path>
                        <path d="M49.6613333,47.0452949 L50.1162839,50.2224671 L47.0446108,50.6635989 C47.0351484,50.6149001 47.0232258,50.5675277 47.0162237,50.5180709 C46.7764473,48.8427933 47.9382366,47.2899259 49.6115613,47.0496531 L49.6613333,47.0452949" id="Fill-82" fill="#38562C"></path>
                        <path d="M41.1590194,51.4590763 L37.9855312,51.9140408 L37.5453419,48.838435 C37.5937892,48.8293395 37.6411011,48.8174017 37.6904946,48.8103906 C39.3634409,48.5703072 40.9147011,49.7335839 41.1542882,51.4088615 L41.1590194,51.4590763" id="Fill-83" fill="#38562C"></path>
                        <path d="M33.9424516,24.5204757 L33.4876903,21.3429244 L36.5591742,20.9019821 C36.5684473,20.9506809 36.5803699,20.9980533 36.5875613,21.0475101 C36.8271484,22.7225983 35.6653591,24.2754656 33.9922237,24.5159279 L33.9424516,24.5204757" id="Fill-84" fill="#38562C"></path>
                        <path d="M42.4449548,20.1068837 L45.6180645,19.6511612 L46.058443,22.7269565 C46.0099957,22.736052 45.9626839,22.7481794 45.9132903,22.7551905 C44.2401548,22.9954633 42.6894624,21.8319971 42.4494968,20.1567195 L42.4449548,20.1068837" id="Fill-85" fill="#38562C"></path>
                        <path d="M9.95289462,42.9581935 C9.87208602,43.5260939 10.2702624,44.0560963 10.8374366,44.1370084 L42.0863312,48.5756129 C42.6529376,48.6559565 43.1830194,48.2574599 43.263071,47.689749 L45.0198538,35.2920124 C45.1002839,34.7241121 44.7022968,34.1937307 44.1351226,34.1131976 L12.8864172,29.6747825 C12.319243,29.5940599 11.7895398,29.9925566 11.7094882,30.5604569 L9.95289462,42.9581935" id="Fill-86" fill="#587D3A"></path>
                        <path d="M22.5876129,38.4292024 C22.2040086,41.1379563 24.0862624,43.6452828 26.7915527,44.0297572 C29.4966538,44.4140422 32.0011527,42.529568 32.384757,39.8210036 C32.768172,37.1120601 30.8862968,34.6045441 28.1811957,34.2204487 C25.4759054,33.8359743 22.9712172,35.7204484 22.5876129,38.4292024" id="Fill-87" fill="#38562C"></path>
                        <path d="M43.1885075,35.6878562 L13.357643,31.4506791 L11.756043,42.7556291 L41.5869075,46.9928062 L43.1885075,35.6878562 L43.1885075,35.6878562 Z M12.6943312,30.5665206 L44.0715355,35.0235057 L42.2504086,47.8771542 L10.8733935,43.4199797 L12.6943312,30.5665206 L12.6943312,30.5665206 Z" id="Fill-88" fill="#38562C"></path>
                        <path d="M40.4773505,34.7546199 L43.6512172,35.2052262 L43.2157591,38.2817795 C43.1663656,38.2770422 43.1175398,38.2753368 43.0681462,38.2683257 C41.3948215,38.0307057 40.230572,36.4795438 40.4676989,34.8040767 L40.4773505,34.7546199" id="Fill-89" fill="#38562C"></path>
                        <path d="M42.3329204,44.1622105 L41.8827011,47.3403302 L38.810271,46.9039356 C38.8151914,46.8546683 38.8168946,46.8059695 38.8238968,46.7563232 C39.0612129,45.0808561 40.6103914,43.9149265 42.2840946,44.152736 L42.3329204,44.1622105" id="Fill-90" fill="#38562C"></path>
                        <path d="M14.4842323,43.569866 L11.3105548,43.1192597 L11.7460129,40.0428959 C11.7952172,40.0476331 11.8438538,40.0493385 11.8934366,40.0563496 C13.5667613,40.2941591 14.7313892,41.8449421 14.4938839,43.5209776 L14.4842323,43.569866" id="Fill-91" fill="#38562C"></path>
                        <path d="M12.6288516,34.1624649 L13.079071,30.9843452 L16.1513118,31.4207397 C16.1465806,31.470007 16.1450667,31.5188954 16.1378753,31.5681627 C15.9005591,33.2438193 14.3513806,34.4095593 12.6778667,34.1715604 L12.6288516,34.1624649" id="Fill-92" fill="#38562C"></path>
                        <path d="M5.50898925,64.3608552 C5.64467957,64.9179547 6.21090753,65.2626363 6.76729462,65.1273407 L37.4306581,57.6413642 C37.9868559,57.5053107 38.331286,56.9387368 38.1955957,56.3812584 L35.2333075,44.215836 C35.0976172,43.6587366 34.5313892,43.3138655 33.9750022,43.4497295 L3.31163871,50.935706 C2.75525161,51.0713806 2.41101075,51.638144 2.54670108,52.1954329 L5.50898925,64.3608552" id="Fill-93" fill="#587D3A"></path>
                        <path d="M15.5644559,55.4616653 C16.2114925,58.119636 18.8882065,59.7492466 21.543157,59.1011922 C24.1975398,58.4529482 25.8250667,55.7728072 25.1778409,53.1148365 C24.5304258,50.4568658 21.8537118,48.8274446 19.199329,49.4754991 C16.5445677,50.1235535 14.9168516,52.8036946 15.5644559,55.4616653" id="Fill-94" fill="#38562C"></path>
                        <path d="M33.6793978,45.2637136 L4.40738065,52.4099351 L7.10869677,63.5026568 L36.380714,56.3568142 L33.6793978,45.2637136 L33.6793978,45.2637136 Z M3.4636043,51.8354027 L34.2531957,44.3187289 L37.3244903,56.9317257 L6.53489892,64.4476415 L3.4636043,51.8354027 L3.4636043,51.8354027 Z" id="Fill-96" fill="#38562C"></path>
                        <path d="M30.8158968,45.4043149 L33.930529,44.6438931 L34.6655656,47.6624625 C34.6180645,47.6764847 34.5720774,47.6927808 34.5236301,47.7045292 C32.8817204,48.1056787 31.2258065,47.097594 30.8253591,45.4533927 L30.8158968,45.4043149" id="Fill-97" fill="#38562C"></path>
                        <path d="M36.024929,53.4511805 L36.7841892,56.5698005 L33.7691011,57.3057782 C33.7554753,57.2582163 33.7392,57.2121703 33.7272774,57.1638504 C33.3268301,55.5196491 34.3336258,53.8618045 35.9757247,53.4604655 L36.024929,53.4511805" id="Fill-98" fill="#38562C"></path>
                        <path d="M9.94381075,63.2457089 L6.82917849,64.0059412 L6.09414194,60.9879402 C6.14164301,60.973539 6.18763011,60.9570534 6.23607742,60.9453051 C7.8779871,60.544345 9.53427957,61.5524298 9.93453763,63.1966311 L9.94381075,63.2457089" id="Fill-99" fill="#38562C"></path>
                        <path d="M4.73515699,55.1984642 L3.97570753,52.0800337 L6.9904172,51.3442456 C7.00442151,51.391618 7.02088602,51.4378535 7.03261935,51.4861733 C7.43306667,53.1303746 6.42646022,54.7882192 4.78436129,55.1891792 L4.73515699,55.1984642" id="Fill-100" fill="#38562C"></path>
                        <g id="Group-204" transform="translate(15.696588, 20.078610)">
                            <path d="M24.6306944,8.95584734 C24.9497654,9.34259563 24.8946944,9.91959149 24.5082514,10.238692 L8.57646644,23.4046194 C8.19040192,23.7237199 7.61395461,23.6685785 7.29526214,23.2820197 L0.337963214,14.8415841 C0.0192707407,14.4550253 0.0745309557,13.8776504 0.460406225,13.5587394 L16.3925697,0.392811957 C16.7786342,0.0737114575 17.3548922,0.128852933 17.6735847,0.515411734 L24.6306944,8.95584734" id="Fill-117" fill="#DBC032"></path>
                            <polyline id="Fill-118" fill="#252019" points="20.8868148 4.41359195 3.55100407 18.7395748 1.4830987 16.2309219 18.8189095 1.90474954 20.8868148 4.41359195"></polyline>
                            <polyline id="Fill-119" fill="#252019" points="17.0854041 10.1356096 10.5628062 15.5256415 10.3054299 15.2131732 16.8278385 9.82314128 17.0854041 10.1356096"></polyline>
                            <polyline id="Fill-120" fill="#252019" points="17.9180922 11.1457787 11.3954944 16.5360001 11.1379288 16.2235318 17.6605267 10.8333104 17.9180922 11.1457787"></polyline>
                            <polyline id="Fill-121" fill="#252019" points="18.7509697 12.1559478 12.2283718 17.5461692 11.9708062 17.2337009 18.4932148 11.843669 18.7509697 12.1559478"></polyline>
                            <polyline id="Fill-122" fill="#FBF5D2" points="8.27423848 22.3444251 5.1259202 18.5248831 8.94057827 15.3727234 12.0888965 19.1922655 8.27423848 22.3444251"></polyline>
                            <polyline id="Fill-124" fill="#252019" points="21.8120449 7.37038779 20.2034428 8.70022586 18.8753051 7.08899572 20.4839073 5.75934715 21.8120449 7.37038779"></polyline>
                            <polyline id="Fill-125" fill="#252019" points="23.6670471 9.62114536 22.0584449 10.9509834 20.7303073 9.3395638 22.3396664 8.00991522 23.6670471 9.62114536"></polyline>
                            <path d="M27.7008535,16.593605 C27.6578944,16.593605 27.6075546,16.5797722 27.5521051,16.5505908 L26.9336449,16.2248582 C26.8327761,16.1718011 26.6999245,16.1452726 26.5670729,16.1452726 C26.434032,16.1452726 26.3011804,16.1718011 26.2005008,16.2248582 L25.5820406,16.5505908 C25.5265912,16.5797722 25.4762514,16.593605 25.4332922,16.593605 C25.3199331,16.593605 25.2574815,16.4977232 25.2853008,16.3347622 L25.4033912,15.6452095 C25.4418084,15.4202853 25.3398041,15.1061115 25.1768621,14.9467508 L24.676303,14.4584361 C24.5131718,14.2992648 24.5642686,14.1419884 24.7896621,14.1093962 L25.4811718,14.0087772 C25.7067546,13.9759955 25.9735933,13.7815792 26.0744621,13.5771199 L26.3836922,12.9497198 C26.434032,12.8473954 26.5004578,12.7962332 26.5668836,12.7962332 C26.6333095,12.7962332 26.6999245,12.8473954 26.7502643,12.9497198 L27.0596836,13.5771199 C27.1603632,13.7815792 27.4273912,13.9759955 27.652974,14.0087772 L28.3442944,14.1093962 C28.5698772,14.1419884 28.6207847,14.2992648 28.4578428,14.4584361 L27.9572836,14.9467508 C27.7941525,15.1061115 27.6923374,15.4202853 27.7305654,15.6452095 L27.8488449,16.3347622 C27.8766643,16.4977232 27.8142127,16.593605 27.7008535,16.593605" id="Fill-141" fill="#FCFCF6"></path>
                        </g>
                        <path d="M52.6374366,34.2625425 L68.3682409,34.2625425 L68.3682409,26.2264777 L52.6374366,26.2264777 L52.6374366,34.2625425 Z M68.5046882,37.4641589 L52.5008,37.4641589 C50.8129032,37.4641589 49.4397247,36.0894118 49.4397247,34.3991645 L49.4397247,26.0898557 C49.4397247,24.3997979 50.8129032,23.0248613 52.5008,23.0248613 L68.5046882,23.0248613 C70.1925849,23.0248613 71.5657634,24.3997979 71.5657634,26.0898557 L71.5657634,34.3991645 C71.5657634,36.0894118 70.1925849,37.4641589 68.5046882,37.4641589 L68.5046882,37.4641589 Z" id="Fill-131" stroke="#4C4F58" fill="#4C4F58"></path>
                        <path d="M37.2762323,85.7885929 C37.2762323,86.3782846 36.7989505,86.8559879 36.2103914,86.8559879 L32.4797591,86.8559879 C31.8912,86.8559879 31.4141075,86.3782846 31.4141075,85.7885929 C31.4141075,85.1994697 31.8912,84.7217664 32.4797591,84.7217664 L36.2103914,84.7217664 C36.7989505,84.7217664 37.2762323,85.1994697 37.2762323,85.7885929" id="Fill-132" fill="#4C4F58"></path>
                        <path d="M88.6771269,85.7885929 C88.6771269,86.3782846 88.2000344,86.8559879 87.6114753,86.8559879 L83.8806538,86.8559879 C83.2920946,86.8559879 82.8151914,86.3782846 82.8151914,85.7885929 C82.8151914,85.1994697 83.2920946,84.7217664 83.8806538,84.7217664 L87.6114753,84.7217664 C88.2000344,84.7217664 88.6771269,85.1994697 88.6771269,85.7885929" id="Fill-133" fill="#4C4F58"></path>
                        <path d="M93.4179613,84.0817967 L26.6734624,84.0817967 C25.6138667,84.0817967 24.7548731,83.2215139 24.7548731,82.1605616 L24.7548731,36.2993392 C24.7548731,35.2381974 25.6138667,34.3782935 26.6734624,34.3782935 L93.4179613,34.3782935 C94.4773677,34.3782935 95.3365505,35.2381974 95.3365505,36.2993392 L95.3365505,82.1605616 C95.3365505,83.2215139 94.4773677,84.0817967 93.4179613,84.0817967 Z" id="Fill-134" stroke="#4C4F58" stroke-width="3" fill="#B8DDD9"></path>
                        <path d="M53.8681118,18.9917374 C53.7943054,18.9917374 53.7080086,18.9678617 53.612628,18.9178364 L52.5515183,18.3592211 C52.378357,18.2680766 52.150314,18.2224096 51.922271,18.2224096 C51.694228,18.2224096 51.4661849,18.2680766 51.2932129,18.3592211 L50.231914,18.9178364 C50.1367226,18.9678617 50.0502366,18.9917374 49.9766194,18.9917374 C49.7820731,18.9917374 49.6749591,18.8270709 49.7226495,18.5473842 L49.9255226,17.3642111 C49.9913806,16.9782208 49.8163269,16.4389334 49.5364301,16.1656894 L48.6778151,15.3277663 C48.3979183,15.0545223 48.4853505,14.7846891 48.872172,14.7284107 L50.0589419,14.5559751 C50.4457634,14.4995072 50.9041204,14.166195 51.0770925,13.8152603 L51.6075527,12.7385803 C51.6940387,12.5631129 51.8081548,12.4753792 51.922271,12.4753792 C52.0363871,12.4753792 52.1505032,12.5631129 52.2369892,12.7385803 L52.7676387,13.8152603 C52.9406108,14.166195 53.3989677,14.4995072 53.7857892,14.5559751 L54.9723699,14.7284107 C55.3591914,14.7846891 55.4468129,15.0545223 55.1667269,15.3277663 L54.3081118,16.1656894 C54.0282151,16.4389334 53.8531613,16.9782208 53.9192086,17.3642111 L54.1218925,18.5473842 C54.169772,18.8270709 54.0624688,18.9917374 53.8681118,18.9917374" id="Fill-138" fill="#FCFCF6"></path>
                        <path d="M5.40944516,46.678443 C5.33563871,46.678443 5.24934194,46.6545673 5.15396129,46.604542 L4.09285161,46.0457372 C3.91987957,45.9547822 3.69183656,45.9091152 3.46379355,45.9091152 C3.23556129,45.9091152 3.00751828,45.9547822 2.83454624,46.0457372 L1.77343656,46.604542 C1.67805591,46.6545673 1.59175914,46.678443 1.51795269,46.678443 C1.32340645,46.678443 1.21629247,46.5137765 1.26417204,46.2342793 L1.46666667,45.0509167 C1.53271398,44.6649264 1.35784946,44.1258285 1.07776344,43.8525845 L0.219148387,43.0144719 C-0.0607483871,42.7412279 0.026683871,42.4715842 0.413694624,42.4153058 L1.60027527,42.2424913 C1.98728602,42.1862128 2.44526452,41.8529006 2.61842581,41.5017764 L3.14907527,40.4254754 C3.23556129,40.2498185 3.34967742,40.1620848 3.46379355,40.1620848 C3.57772043,40.1620848 3.69183656,40.2498185 3.77832258,40.4254754 L4.30897204,41.5017764 C4.48213333,41.8529006 4.94011183,42.1862128 5.32712258,42.2424913 L6.51370323,42.4153058 C6.90071398,42.4715842 6.98814624,42.7412279 6.70824946,43.0144719 L5.84963441,43.8525845 C5.56954839,44.1258285 5.39468387,44.6649264 5.46054194,45.0509167 L5.66322581,46.2342793 C5.71110538,46.5137765 5.6039914,46.678443 5.40944516,46.678443" id="Fill-139" fill="#FCFCF6"></path>
                        <path d="M28.5417118,4.16360708 C28.4987527,4.16360708 28.4484129,4.14977434 28.3929634,4.12059294 L27.7745032,3.79504979 C27.6736344,3.7419927 27.5407828,3.71527466 27.4079312,3.71527466 C27.2750796,3.71527466 27.142228,3.7419927 27.0413591,3.79504979 L26.4228989,4.12059294 C26.3674495,4.14977434 26.3171097,4.16360708 26.2741505,4.16360708 C26.1607914,4.16360708 26.0983398,4.06772534 26.1261591,3.90476427 L26.2444387,3.21521159 C26.2826667,2.99028742 26.1808516,2.67611365 26.0177204,2.51694238 L25.5171613,2.02843817 C25.3542194,1.8692669 25.4051269,1.71218002 25.6307097,1.67939832 L26.3220301,1.57877933 C26.5476129,1.54599763 26.8144516,1.35177078 26.9153204,1.14712201 L27.2245505,0.519721915 C27.2748903,0.417397527 27.3415054,0.366424822 27.4079312,0.366424822 C27.474357,0.366424822 27.5407828,0.417397527 27.5911226,0.519721915 L27.9005419,1.14712201 C28.0014108,1.35177078 28.2682495,1.54599763 28.4938323,1.57877933 L29.1853419,1.67939832 C29.4107355,1.71218002 29.4618323,1.8692669 29.2985118,2.02843817 L28.7981419,2.51694238 C28.6352,2.67611365 28.5331957,2.99028742 28.5716129,3.21521159 L28.6897032,3.90476427 C28.7175226,4.06772534 28.655071,4.16360708 28.5417118,4.16360708" id="Fill-142" fill="#FCFCF6"></path>
                        <path d="M12.4443355,25.964576 C12.4013763,25.964576 12.3510366,25.9507432 12.2955871,25.9215618 L11.6771269,25.5960187 C11.5762581,25.5427721 11.4434065,25.5162436 11.3103656,25.5162436 C11.177514,25.5162436 11.0446624,25.5427721 10.9439828,25.5960187 L10.3255226,25.9215618 C10.2700731,25.9507432 10.2197333,25.964576 10.1767742,25.964576 C10.0634151,25.964576 10.0009634,25.8686942 10.0287828,25.7057332 L10.1468731,25.0161805 C10.1852903,24.7912563 10.0834753,24.4770825 9.92015484,24.3177218 L9.41978495,23.8294071 C9.25665376,23.6702358 9.30775054,23.5129594 9.53314409,23.4803672 L10.2246538,23.3795587 C10.4502366,23.346777 10.7170753,23.1525502 10.8179441,22.9480909 L11.1269849,22.3206908 C11.177514,22.2183664 11.2439398,22.1672042 11.3103656,22.1672042 C11.3769806,22.1672042 11.4434065,22.2183664 11.4937462,22.3206908 L11.8031656,22.9480909 C11.9038452,23.1525502 12.1708731,23.346777 12.3962667,23.3795587 L13.0877763,23.4803672 C13.3133591,23.5129594 13.3642667,23.6702358 13.2011355,23.8294071 L12.7007656,24.3177218 C12.5376344,24.4770825 12.4356301,24.7912563 12.4740473,25.0161805 L12.5923269,25.7057332 C12.6201462,25.8686942 12.5575054,25.964576 12.4443355,25.964576" id="Fill-143" fill="#FCFCF6"></path>
                        <path d="M12.0071742,17.9279427 C11.9640258,17.9279427 11.913686,17.91411 11.8582366,17.8849286 L11.2399656,17.5593854 C11.1390968,17.5063283 11.0060559,17.4797998 10.8732043,17.4797998 C10.7403527,17.4797998 10.6075011,17.5063283 10.5068215,17.5593854 L9.88836129,17.8849286 C9.83272258,17.91411 9.7823828,17.9279427 9.73942366,17.9279427 C9.62625376,17.9279427 9.5636129,17.832061 9.59143226,17.6690999 L9.70971183,16.9795472 C9.74812903,16.7546231 9.64612473,16.4404493 9.48299355,16.281278 L8.98262366,15.7929633 C8.81949247,15.6336025 8.8704,15.4765157 9.0959828,15.443734 L9.78749247,15.343115 C10.012886,15.3103333 10.279914,15.1159169 10.3805935,14.9114576 L10.6898237,14.2840576 C10.7401634,14.1817332 10.8067785,14.1307605 10.8732043,14.1307605 C10.9396301,14.1307605 11.0060559,14.1817332 11.0565849,14.2840576 L11.3660043,14.9114576 C11.4666839,15.1159169 11.7337118,15.3103333 11.9591054,15.343115 L12.6506151,15.443734 C12.8761978,15.4765157 12.9271054,15.6336025 12.7639742,15.7929633 L12.2636043,16.281278 C12.1004731,16.4404493 11.9984688,16.7546231 12.036886,16.9795472 L12.1551656,17.6690999 C12.1827957,17.832061 12.1203441,17.9279427 12.0071742,17.9279427" id="Fill-144" fill="#FCFCF6"></path>
                        <path d="M36.6437212,8.4045146 C36.600762,8.4045146 36.5504223,8.39068186 36.4949728,8.36150046 L35.8765126,8.03595731 C35.7756438,7.98271073 35.6427922,7.95618219 35.5099405,7.95618219 C35.3770889,7.95618219 35.2442373,7.98271073 35.1433685,8.03595731 L34.5250975,8.36150046 C34.4694588,8.39068186 34.419119,8.4045146 34.3761599,8.4045146 C34.2628008,8.4045146 34.2003491,8.30863286 34.2281685,8.1456718 L34.3464481,7.45611911 C34.384676,7.23119495 34.282861,6.91702118 34.1197298,6.75766042 L33.6193599,6.2693457 C33.4562287,6.11017443 33.5071362,5.95308754 33.732719,5.92030584 L34.4240395,5.81949737 C34.6496223,5.78690516 34.916461,5.59248882 35.017519,5.38784004 L35.3265599,4.76062944 C35.3768997,4.65830505 35.4433255,4.60714286 35.5099405,4.60714286 C35.5763663,4.60714286 35.6427922,4.65830505 35.6933212,4.76062944 L36.0025513,5.38784004 C36.1034201,5.59248882 36.3704481,5.78690516 36.5958416,5.81949737 L37.2873513,5.92030584 C37.5127448,5.95308754 37.5638416,6.11017443 37.4007104,6.2693457 L36.9003405,6.75766042 C36.7372094,6.91702118 36.6352051,7.23119495 36.6736223,7.45611911 L36.7919018,8.1456718 C36.8195319,8.30863286 36.7570803,8.4045146 36.6437212,8.4045146" id="Fill-145" fill="#FCFCF6"></path>
                        <path d="M26.256958,35.8511963 L52.0577393,35.8511963 C52.0577393,35.8511963 38.5107422,40.3482924 36.2119141,55.2778408 C33.9130859,70.2073891 41.4812622,82.5678101 41.4812622,82.5678101 L26.256958,82.5678101 L26.256958,35.8511963 Z" id="Path-10508" fill="#DCF4F2"></path>
                        <path d="M66.9797477,51.0899235 L58.2468343,51.0899235 L54.0202522,51.0899235 C53.5487796,51.0899235 53.1666667,51.4730148 53.1666667,51.9456948 C53.1666667,52.4183747 53.5487796,52.801466 54.0202522,52.801466 L58.2468343,52.801466 C59.5215442,52.801466 60.7302347,53.4275831 61.4801229,54.4762372 C61.8333522,54.9703114 62.0701722,55.5177042 62.1983351,56.0784684 L54.0202522,56.0784684 C53.5487796,56.0784684 53.1666667,56.4615597 53.1666667,56.9342397 C53.1666667,57.4069196 53.5487796,57.790011 54.0202522,57.790011 L62.2291359,57.790011 C62.1986269,57.9377652 62.1609491,58.0841406 62.1126431,58.2275909 C61.7575382,59.2835993 60.9502997,60.0537935 59.8396382,60.3964363 C58.1491387,60.9175877 56.2612476,60.8517334 54.4330408,60.7872163 L54.0489273,60.7738449 C53.6904881,60.7554591 53.3610574,60.9764219 53.2276846,61.3117105 C53.0943119,61.6466647 53.1843385,62.0290875 53.4530846,62.2687703 L63.9815286,71.6555116 C64.1442433,71.8005916 64.3466365,71.8717945 64.5483627,71.8717945 C64.7837656,71.8717945 65.0178347,71.7748516 65.1865512,71.5846431 C65.4999772,71.2316374 65.4683012,70.6907632 65.1158637,70.3765347 L56.3289343,62.5425502 C57.6699972,62.5405444 59.0213965,62.4392559 60.3414532,62.0324302 C61.9912739,61.5236474 63.1949629,60.3666848 63.7304545,58.7744822 C63.838403,58.4535679 63.9050894,58.1231266 63.9519783,57.7900109 L66.9797478,57.7900109 C67.4512204,57.7900109 67.8333333,57.4069195 67.8333333,56.9342396 C67.8333333,56.4615597 67.4512204,56.0784683 66.9797478,56.0784683 L63.9423087,56.0784683 C63.7956404,55.1642388 63.4335751,54.2704843 62.8678663,53.479063 C62.6929395,53.2344912 62.4948394,53.0125674 62.2871947,52.801466 L66.9797478,52.801466 C67.4512204,52.801466 67.8333333,52.4183747 67.8333333,51.9456948 C67.8333333,51.4730148 67.4512204,51.0899235 66.9797477,51.0899235 Z" id="Shape-Copy-9" fill="#FFFFFF"></path>
                    </g>
                </g>
            </g>
        </g>
    </g>
</svg>