<?xml version="1.0" encoding="UTF-8" standalone="no"?>
<svg width="40px" height="41px" viewBox="0 0 40 41" version="1.1" xmlns="http://www.w3.org/2000/svg" xmlns:xlink="http://www.w3.org/1999/xlink">
    <!-- Generator: Sketch 3.8.3 (29802) - http://www.bohemiancoding.com/sketch -->
    <title>Group 3</title>
    <desc>Created with Sketch.</desc>
    <defs>
        <path d="M23.120965,11.2195122 C23.2267385,10.6529882 23.2820513,10.0687205 23.2820513,9.47154472 C23.2820513,4.23940486 19.0416796,0 13.8109161,0 L10.1890839,0 C4.9620838,0 0.71794872,4.24055501 0.71794872,9.47154472 C0.71794872,10.0687432 0.7731924,10.6530083 0.87884698,11.2195122 L23.120965,11.2195122 L23.120965,11.2195122 Z" id="path-1"></path>
        <path d="M0.0127366754,30.5615446 C1.07962355,22.8006961 4.34363041,3.0123727 4.60017616,1.78549751 C4.90723104,0.31707317 6.37088538,0.31707317 6.37088538,0.31707317 L33.5224529,0.31707317 C33.5224529,0.31707317 34.818777,0.31707317 35.2670231,1.77676446 C35.6416073,2.99657931 38.8284739,22.8048393 39.865777,30.5648302 C40.0697626,32.0908314 37.6275836,33 37.6275836,33 L2.26024586,33 C2.26024586,33 -0.197313722,32.0895129 0.0127366754,30.5615446 L0.0127366754,30.5615446 Z" id="path-3"></path>
    </defs>
    <g id="Page-1" stroke="none" stroke-width="1" fill="none" fill-rule="evenodd">
        <g id="Group-3" transform="translate(0.000000, 1.000000)">
            <g id="Group-2">
                <g id="Group">
                    <g id="my-order2-copy">
                        <g id="Page-1">
                            <g id="Group-9">
                                <g id="Group-23">
                                    <g id="Combined-Shape-Clipped" transform="translate(8.000000, 0.000000)">
                                        <mask id="mask-2" fill="white">
                                            <use xlink:href="#path-1"></use>
                                        </mask>
                                        <g id="path-1"></g>
                                    </g>
                                    <g id="Rectangle-78-Clipped" transform="translate(0.000000, 7.000000)">
                                        <mask id="mask-4" fill="white">
                                            <use xlink:href="#path-3"></use>
                                        </mask>
                                        <g id="path-3"></g>
                                        <g id="Rectangle-78" mask="url(#mask-4)" stroke="#666666" stroke-width="3.4">
                                            <path d="M0.0127366754,30.5615446 C1.07962355,22.8006961 4.34363041,3.0123727 4.60017616,1.78549751 C4.90723104,0.31707317 6.37088538,0.31707317 6.37088538,0.31707317 L33.5224529,0.31707317 C33.5224529,0.31707317 34.818777,0.31707317 35.2670231,1.77676446 C35.6416073,2.99657931 38.8284739,22.8048393 39.865777,30.5648302 C40.0697626,32.0908314 37.6275836,33 37.6275836,33 L2.26024586,33 C2.26024586,33 -0.197313722,32.0895129 0.0127366754,30.5615446 L0.0127366754,30.5615446 Z" id="path-3"></path>
                                        </g>
                                    </g>
                                    <ellipse id="Oval-36" fill="#666666" cx="12.8205128" cy="14.6341463" rx="2.05128205" ry="1.95121951"></ellipse>
                                    <ellipse id="Oval-36-Copy" fill="#666666" cx="27.1794872" cy="14.6341463" rx="2.05128205" ry="1.95121951"></ellipse>
                                </g>
                            </g>
                        </g>
                    </g>
                    <path d="M10.720459,7.32592773 C10.720459,7.32592773 11.442749,5.04772949 12.8390503,3.8425293 C12.8390503,3.8425293 14.8048096,1.78833008 18.0352173,1.68457031 C21.265625,1.58081055 22.8118896,1.73034668 22.8118896,1.73034668 C22.8118896,1.73034668 25.270752,2.02252197 26.7716675,3.4765625 C26.7716675,3.4765625 28.6362915,5.06085205 29.2965088,7.32775879 L31.0488892,7.33465576 C31.0488892,7.33465576 30.237854,4.02453613 27.894165,2.21490479 C27.894165,2.21490479 24.9358521,0.0601806641 21.9830322,0.030090332 C19.0302124,-1.00613962e-16 17.4918823,0.028503418 17.4918823,0.028503418 C17.4918823,0.028503418 14.6515503,0.270385742 12.8515015,1.64709473 C11.0514526,3.02380371 9.79797363,5.11303711 9.79797363,5.11303711 C9.79797363,5.11303711 9.11407471,6.37976074 8.96209717,7.32025146 L10.5526123,7.32958984 L10.720459,7.32592773 Z" id="Path-14" stroke="#666666" stroke-width="0.1" fill="#666666"></path>
                </g>
            </g>
        </g>
    </g>
</svg>