<?xml version="1.0" encoding="UTF-8" standalone="no"?>
<svg width="40px" height="40px" viewBox="0 0 40 40" version="1.1" xmlns="http://www.w3.org/2000/svg" xmlns:xlink="http://www.w3.org/1999/xlink">
    <!-- Generator: Sketch 3.8.3 (29802) - http://www.bohemiancoding.com/sketch -->
    <title>Group 34</title>
    <desc>Created with Sketch.</desc>
    <defs></defs>
    <g id="Page-1" stroke="none" stroke-width="1" fill="none" fill-rule="evenodd">
        <g id="Group-34" fill="#666666">
            <g id="Group-38">
                <path d="M6.03726027,17.7726027 C6.03726027,17.2668493 6.44712329,16.8569863 6.95287671,16.8569863 L29.3435616,16.8569863 C29.8493151,16.8569863 30.2591781,17.2668493 30.2591781,17.7726027 C30.2591781,18.2783562 29.8493151,18.6882192 29.3435616,18.6882192 L6.95287671,18.6882192 C6.44712329,18.6882192 6.03726027,18.2783562 6.03726027,17.7726027 L6.03726027,17.7726027 L6.03726027,17.7726027 Z M5.23616438,35.6082192 C4.79452055,35.6082192 4.43506849,35.2487671 4.43506849,34.8071233 C4.43506849,34.3654795 4.79452055,34.0060274 5.23616438,34.0060274 C5.67780822,34.0060274 6.03726027,34.3654795 6.03726027,34.8071233 C6.03726027,35.2493151 5.67780822,35.6082192 5.23616438,35.6082192 L5.23616438,35.6082192 L5.23616438,35.6082192 Z M5.23616438,32.1747945 C3.78465753,32.1747945 2.60383562,33.3561644 2.60383562,34.8076712 C2.60383562,36.2591781 3.78465753,37.44 5.23616438,37.44 C6.68767123,37.44 7.86849315,36.2591781 7.86849315,34.8076712 C7.86849315,33.3561644 6.68767123,32.1747945 5.23616438,32.1747945 L5.23616438,32.1747945 L5.23616438,32.1747945 Z M29.939726,26.7128767 C29.8186301,26.7128767 29.72,26.6142466 29.72,26.4931507 C29.72,26.3720548 29.8186301,26.2734247 29.939726,26.2734247 C30.0608219,26.2734247 30.1594521,26.3720548 30.1594521,26.4931507 C30.1594521,26.6142466 30.0608219,26.7128767 29.939726,26.7128767 L29.939726,26.7128767 L29.939726,26.7128767 Z M29.939726,25.0810959 C29.1610959,25.0810959 28.5276712,25.7145205 28.5276712,26.4931507 C28.5276712,27.2717808 29.1610959,27.9052055 29.939726,27.9052055 C30.7183562,27.9052055 31.3517808,27.2717808 31.3517808,26.4931507 C31.3517808,25.7145205 30.7183562,25.0810959 29.939726,25.0810959 L29.939726,25.0810959 L29.939726,25.0810959 Z M38.0334247,28.9150685 C38.0334247,29.2487671 37.7621918,29.52 37.4279452,29.52 L28.8542466,29.52 L27.6591781,28.3254795 L25.7819178,26.529863 L27.6717808,24.7210959 L28.8542466,23.5391781 L35.009863,23.5391781 L35.0120548,23.5391781 L35.0142466,23.5391781 L37.4284932,23.5391781 C37.7621918,23.5391781 38.0339726,23.810411 38.0339726,24.1441096 L38.0339726,28.9150685 L38.0334247,28.9150685 L38.0334247,28.9150685 Z M34.1961644,35.8871233 C34.1961644,37.1545205 33.1654795,38.1852055 31.8980822,38.1852055 L3.99123288,38.1852055 C2.72383562,38.1852055 1.69260274,37.1545205 1.69260274,35.8871233 L1.69260274,17.1720548 C1.69260274,15.9046575 2.72383562,14.8734247 3.99123288,14.8734247 L5.04712329,14.8734247 C5.04876712,14.8734247 5.04986301,14.8739726 5.05150685,14.8739726 C5.05315068,14.8739726 5.05479452,14.8734247 5.05643836,14.8734247 L31.68,14.8734247 C31.7386301,14.8865753 31.7983562,14.8947945 31.8586301,14.8947945 C31.9090411,14.8947945 31.9594521,14.8887671 32.009863,14.8789041 C33.2252055,14.9380822 34.1961644,15.9419178 34.1961644,17.1715068 L34.1961644,21.9068493 L28.5161644,21.9068493 C28.299726,21.9068493 28.0920548,21.9928767 27.9391781,22.1457534 L26.5309589,23.5539726 L24.0378082,25.9391781 C23.8772603,26.0931507 23.7863014,26.3063014 23.7863014,26.5287671 C23.7863014,26.7512329 23.8772603,26.9643836 24.0378082,27.1183562 L26.5183562,29.4909589 L27.9391781,30.9123288 C28.0920548,31.0652055 28.299726,31.1512329 28.5161644,31.1512329 L34.1961644,31.1512329 L34.1961644,35.8871233 L34.1961644,35.8871233 L34.1961644,35.8871233 Z M14.9057534,2.32657534 L19.0827397,5.59452055 L7.46849315,11.8328767 L14.9057534,2.32657534 L14.9057534,2.32657534 L14.9057534,2.32657534 Z M23.5665753,6.23506849 L25.6252055,6.81205479 L24.2679452,7.54082192 L23.5665753,6.23506849 L23.5665753,6.23506849 L23.5665753,6.23506849 Z M20.9621918,6.43780822 C20.9649315,6.43616438 20.9671233,6.43506849 20.969863,6.43342466 L21.6306849,6.07835616 L23.2169863,9.03123288 C23.3643836,9.30520548 23.6460274,9.46136986 23.9364384,9.46136986 C24.0668493,9.46136986 24.1989041,9.43013699 24.3216438,9.36383562 L27.4865753,7.66356164 L30.4821918,13.2405479 L8.29424658,13.2405479 L20.9621918,6.43780822 L20.9621918,6.43780822 L20.9621918,6.43780822 Z M37.4284932,21.9073973 L35.8284932,21.9073973 L35.8284932,17.1720548 C35.8284932,15.1578082 34.3046575,13.4947945 32.349589,13.269589 L28.5506849,6.19726027 C28.549589,6.19506849 28.5479452,6.19342466 28.5468493,6.19178082 C28.5276712,6.15726027 28.5046575,6.1260274 28.4810959,6.09424658 C28.4723288,6.08273973 28.4652055,6.0690411 28.4558904,6.05808219 C28.4317808,6.0290411 28.4032877,6.00383562 28.3753425,5.97863014 C28.3643836,5.96876712 28.3545205,5.95616438 28.3430137,5.94684932 C28.3216438,5.92931507 28.2964384,5.91616438 28.2728767,5.90082192 C28.2520548,5.88712329 28.2323288,5.87178082 28.209863,5.86027397 C28.1923288,5.8509589 28.1726027,5.84547945 28.1545205,5.83780822 C28.1232877,5.82410959 28.0920548,5.80986301 28.059726,5.80054795 C28.0575342,5.8 28.0553425,5.79835616 28.0526027,5.79780822 L22.2279452,4.16493151 C22.2109589,4.16 22.1934247,4.15945205 22.1758904,4.15616438 C22.1430137,4.1490411 22.110137,4.14191781 22.0761644,4.13863014 C22.0520548,4.13643836 22.0279452,4.13808219 22.0038356,4.13808219 C21.9791781,4.13808219 21.9550685,4.13589041 21.930411,4.13808219 C21.8065753,4.14082192 21.6816438,4.16876712 21.5649315,4.23178082 C21.5046575,4.26410959 21.4526027,4.30465753 21.4038356,4.34849315 L20.6536986,4.75123288 L15.2690411,0.538630137 C15.0986301,0.405479452 14.8827397,0.345753425 14.6673973,0.371506849 C14.4526027,0.397808219 14.2569863,0.508493151 14.1238356,0.67890411 L4.29424658,13.2416438 L3.99123288,13.2416438 C1.82410959,13.2416438 0.0608219178,15.0049315 0.0608219178,17.1720548 L0.0608219178,35.8871233 C0.0608219178,38.0542466 1.82410959,39.8169863 3.99123288,39.8169863 L31.8980822,39.8169863 C34.0652055,39.8169863 35.8279452,38.0536986 35.8279452,35.8871233 L35.8279452,31.1517808 L37.4279452,31.1517808 C38.6613699,31.1517808 39.6652055,30.1484932 39.6652055,28.9150685 L39.6652055,24.1441096 C39.6652055,22.9106849 38.6619178,21.9073973 37.4284932,21.9073973 L37.4284932,21.9073973 L37.4284932,21.9073973 Z" id="Shape"></path>
            </g>
        </g>
    </g>
</svg>
