<?xml version="1.0" encoding="UTF-8" standalone="no"?>
<svg width="140px" height="140px" viewBox="0 0 140 140" version="1.1" xmlns="http://www.w3.org/2000/svg" xmlns:xlink="http://www.w3.org/1999/xlink">
    <!-- Generator: Sketch 3.8.3 (29802) - http://www.bohemiancoding.com/sketch -->
    <title>Group 3</title>
    <desc>Created with Sketch.</desc>
    <defs></defs>
    <g id="Page-1" stroke="none" stroke-width="1" fill="none" fill-rule="evenodd">
        <g id="Group-3" fill="#999999">
            <g id="Group-21">
                <g id="Group-20-Copy">
                    <g id="Group-19">
                        <path d="M131.358025,31.0779948 C131.358025,31.0779948 131.358025,10.4608073 131.358025,5.69707031 C131.358025,0.933333333 126.235502,0.933333333 126.235502,0.933333333 C126.235502,0.933333333 19.0326003,0.933333332 13.8372878,0.933333333 C8.64197531,0.933333335 8.64197531,5.59521484 8.64197531,5.59521484 L8.64197531,31.0779948 L-8.18633381e-12,51.3333333 L-8.18633381e-12,134.421647 C-8.18633381e-12,134.421647 -8.18633381e-12,139.066667 5.22210769,139.066667 C9.87734231,139.066667 129.810735,139.066667 134.885917,139.066667 C139.9611,139.066667 139.961102,134.376699 139.961102,134.376699 L139.272346,51.3333333 L131.358025,31.0779948 Z M5.18518519,58.0421333 L45.9061728,78.3421333 L5.18518519,128.792533 L5.18518519,58.0421333 L5.18518519,58.0421333 Z M68.9145679,89.8072 C69.2585185,89.9789333 69.6301235,90.0666667 70,90.0666667 C70.3698765,90.0666667 70.7432099,89.9789333 71.0871605,89.8072 L90.4014742,80.7837333 L133.227363,134.41276 L6.44055025,134.41276 L49.21875,80.7837333 L68.9145679,89.8072 Z M93.4854321,78.6445333 L134.814815,58.0421333 L134.814815,129.850933 L93.4854321,78.6445333 L93.4854321,78.6445333 Z M131.358025,56 L131.358025,38.7451823 L136.482024,53.4483724 L131.358025,56 Z M128.631245,57.3202474 L70.0111822,85.9892578 L12.0616319,57.3202474 L12.0616319,5.07773437 L127.960733,5.07773437 L128.631245,57.3202474 Z M8.64197531,38.7451823 L8.64197531,56.0724606 L3.32302517,52.8322266 L8.64197531,38.7451823 Z" id="Shape"></path>
                        <rect id="Rectangle-path" x="22.4691358" y="17.7333333" width="74.3209877" height="1.86666667"></rect>
                        <rect id="Rectangle-path" x="22.4691358" y="34.5333333" width="63.9506173" height="1.86666667"></rect>
                    </g>
                </g>
            </g>
        </g>
    </g>
</svg>