<?xml version="1.0" encoding="UTF-8" standalone="no"?>
<svg width="68px" height="52px" viewBox="0 0 68 52" version="1.1" xmlns="http://www.w3.org/2000/svg" xmlns:xlink="http://www.w3.org/1999/xlink">
    <!-- Generator: Sketch 3.8.3 (29802) - http://www.bohemiancoding.com/sketch -->
    <title>Group 51</title>
    <desc>Created with Sketch.</desc>
    <defs>
        <rect id="path-1" x="1.93103448" y="7.06465665" width="20.045977" height="17.7022431" rx="2"></rect>
        <mask id="mask-2" maskContentUnits="userSpaceOnUse" maskUnits="objectBoundingBox" x="0" y="0" width="20.045977" height="17.7022431" fill="white">
            <use xlink:href="#path-1"></use>
        </mask>
        <rect id="path-3" x="0" y="6.3338301" width="24" height="3.65413275" rx="1.82706638"></rect>
        <mask id="mask-4" maskContentUnits="userSpaceOnUse" maskUnits="objectBoundingBox" x="0" y="0" width="24" height="3.65413275" fill="white">
            <use xlink:href="#path-3"></use>
        </mask>
    </defs>
    <g id="Page-1" stroke="none" stroke-width="1" fill="none" fill-rule="evenodd">
        <g id="Group-51" transform="translate(2.000000, 1.000000)">
            <g id="Group-23">
                <g id="Group-22">
                    <g id="Group-10-Copy" transform="translate(24.000000, 0.000000)">
                        <g id="Group-223-Copy-3">
                            <path d="M27.9208333,15.1463415 C27.7041667,15.1463415 27.4875,15.0380151 27.2708333,14.9296888 L20.1208333,10.5966358 L26.1875,11.8965517 C27.0541667,12.0590412 27.975,11.6257359 28.4083333,10.8674516 L28.5708333,10.5424727 C29.1125,9.56753574 28.7333333,8.32178301 27.7041667,7.72598823 L17.575,3.17628259 C16.6541667,2.63465097 15.7333333,2.36383516 14.65,2.36383516 L8.85416667,3.0137931 L8.85416667,0.793103448 L0.729166667,0.793103448 L0.729166667,18.666947 L8.85416667,18.666947 L8.85416667,16.7712363 L23.5875,21.1584525 C23.8041667,21.2126156 23.9666667,21.3751051 24.1833333,21.3751051 L37.6166667,21.3751051 C38.9166667,21.3751051 40,20.1835156 40,18.8835997 C40,17.6378469 39.025,16.4462574 37.7791667,16.3920942 L27.9208333,15.1463415 Z M7.77083333,17.5836838 L1.8125,17.5836838 L1.8125,1.87636669 L7.77083333,1.87636669 L7.77083333,17.5836838 L7.77083333,17.5836838 Z M37.6166667,20.2918419 L24.1833333,20.2918419 C24.0208333,20.2918419 24.0208333,20.1293524 23.8583333,20.1293524 L8.85416667,15.6879731 L8.85416667,4.09705635 L14.8125,3.4470984 C15.6791667,3.4470984 16.4375,3.66375105 17.25,4.09705635 L27.2708333,8.64676198 C27.7583333,8.9175778 27.8666667,9.51337258 27.65,10.000841 L27.4875,10.32582 C27.2708333,10.7049622 26.8375,10.9216148 26.4583333,10.8132885 L17.6291667,8.9175778 C17.3583333,8.86341463 17.0333333,9.02590412 16.925,9.29671993 C16.8166667,9.56753574 16.925,9.89251472 17.1958333,10.0550042 L26.7291667,15.7962994 C27.0541667,16.0129521 27.4875,16.1212784 27.8666667,16.1754415 L37.725,17.4211943 C38.375,17.4753574 38.9166667,18.1794786 38.9166667,18.8294365 C38.9166667,19.5877208 38.3208333,20.2918419 37.6166667,20.2918419 L37.6166667,20.2918419 Z" id="Shape" stroke="#4C4F58" stroke-width="3" fill="#4C4F58" transform="translate(20.364583, 11.084104) scale(-1, -1) translate(-20.364583, -11.084104) "></path>
                            <path d="M36.3756714,12.6659851 C38.5060425,9.04757686 38.9458008,4.6025085 38.9458008,4.6025085 L38.9458008,16.7897949 L32.9730835,16.7897949 C32.9730835,16.7897949 34.2453003,16.2843933 36.3756714,12.6659851 Z" id="Path-10648-Copy" fill="#2CE2FA" transform="translate(35.959442, 10.696152) scale(-1, -1) translate(-35.959442, -10.696152) "></path>
                            <g id="Group-20" transform="translate(1.000000, 1.000000)">
                                <polygon id="Path-10648" fill="#00B4CB" transform="translate(34.959442, 11.452861) scale(-1, -1) translate(-34.959442, -11.452861) " points="31.9730835 3.6025085 37.9458008 3.6025085 37.9458008 19.303214 31.9730835 19.303214"></polygon>
                                <path d="M0.657815278,1.51803793 L0.657815278,13.1412068 L15.9155667,17.7254363 L29.629617,17.7254354 C29.629617,17.7254354 30.0373875,17.6885183 30.3905423,17.4114104 C30.7909851,17.0971973 30.8769774,16.6585602 30.8942044,16.2532674 C30.9114314,15.8479745 30.7386142,15.5239321 30.4823392,15.2517415 C30.283576,15.0406343 29.8700793,14.9354832 29.629617,14.8876668 L19.259744,13.5315877 L8.94016391,7.41122634 C8.94016391,7.41122634 8.35459262,6.40695388 9.49497348,6.40695388 L18.4480985,8.36227614 C18.4480985,8.36227614 19.0099992,8.49644144 19.4978421,7.97891433 C19.8593955,7.59536124 20.1705031,6.59600961 19.1014188,6.10971267 L9.81955844,1.81686605 C9.81955844,1.81686605 8.73557302,1.27838176 7.62046176,1.02377523 C7.17356277,0.921737521 6.71499991,0.872137596 6.32944614,0.910555017 C4.98185092,1.04483235 0.657815278,1.51803793 0.657815278,1.51803793 Z" id="Path-10649" fill="#FFD487" transform="translate(15.776601, 9.311509) scale(-1, -1) translate(-15.776601, -9.311509) "></path>
                            </g>
                        </g>
                    </g>
                    <g id="Group-19" transform="translate(21.000000, 13.000000)">
                        <g id="Group-238-Copy" stroke="#4C4F58">
                            <g id="Group-90">
                                <path d="M11.4800935,6.56586437 C11.4800935,6.56586437 13.8331826,-2.03974519 16.6223349,0.959371627 C19.4114872,3.95848845 11.4800935,6.56586437 11.4800935,6.56586437 Z" id="Path-622" fill="#7EC378" transform="translate(14.348433, 3.445338) rotate(-6.000000) translate(-14.348433, -3.445338) "></path>
                                <path d="M6.82603293,7.66520418 C6.82603293,7.66520418 9.17912201,-0.940405381 11.9682743,2.05871144 C14.7574266,5.05782826 6.82603293,7.66520418 6.82603293,7.66520418 Z" id="Path-622-Copy" fill="#7EC378" transform="translate(9.694372, 4.544678) scale(-1, 1) translate(-9.694372, -4.544678) "></path>
                                <use id="Rectangle-221" mask="url(#mask-2)" stroke-width="4" fill="#FFFFFF" xlink:href="#path-1"></use>
                                <use id="Rectangle-222" mask="url(#mask-4)" stroke-width="2" fill="#B0F6AA" xlink:href="#path-3"></use>
                                <path d="M11.25,6.84306538 L11.25,24.1641746" id="Line" stroke-width="0.5" stroke-linecap="square"></path>
                                <path d="M12.6037267,7.2022338 L12.6037267,23.9888225" id="Line" stroke-linecap="square"></path>
                            </g>
                        </g>
                        <path d="M3.90661621,9.96264648 L10.0249023,9.96264648 C10.0249023,9.96264648 5.51806641,15.2924805 7.38031006,22.8114624 L3.90661621,22.8114624 L3.90661621,9.96264648 Z" id="Path-350" fill="#F3F3F3"></path>
                    </g>
                    <g id="Group-21" transform="translate(0.000000, 28.000000)">
                        <path d="M37.05,15.5989907 L27.1916667,14.353238 C26.975,14.353238 26.7583333,14.2449117 26.5416667,14.1365854 L19.3916667,9.80353238 L25.4583333,11.1034483 C26.325,11.2659378 27.2458333,10.8326325 27.6791667,10.0743482 L27.8416667,9.74936922 C28.3833333,8.7744323 28.0041667,7.52867956 26.975,6.93288478 L16.8458333,2.38317914 C15.925,1.84154752 15.0041667,1.57073171 13.9208333,1.57073171 L8.125,2.22068966 L8.125,0 L0,0 L0,17.8738436 L8.125,17.8738436 L8.125,15.9781329 L22.8583333,20.365349 C23.075,20.4195122 23.2375,20.5820017 23.4541667,20.5820017 L36.8875,20.5820017 C38.1875,20.5820017 39.2708333,19.3904121 39.2708333,18.0904962 C39.2708333,16.8447435 38.2958333,15.6531539 37.05,15.5989907 L37.05,15.5989907 Z M7.04166667,16.7905803 L1.08333333,16.7905803 L1.08333333,1.08326325 L7.04166667,1.08326325 L7.04166667,16.7905803 L7.04166667,16.7905803 Z M36.8875,19.4987384 L23.4541667,19.4987384 C23.2916667,19.4987384 23.2916667,19.3362489 23.1291667,19.3362489 L8.125,14.8948696 L8.125,3.3039529 L14.0833333,2.65399495 C14.95,2.65399495 15.7083333,2.8706476 16.5208333,3.3039529 L26.5416667,7.85365854 C27.0291667,8.12447435 27.1375,8.72026913 26.9208333,9.20773759 L26.7583333,9.53271657 C26.5416667,9.9118587 26.1083333,10.1285114 25.7291667,10.020185 L16.9,8.12447435 C16.6291667,8.07031119 16.3041667,8.23280067 16.1958333,8.50361648 C16.0875,8.7744323 16.1958333,9.09941127 16.4666667,9.26190076 L26,15.003196 C26.325,15.2198486 26.7583333,15.3281749 27.1375,15.3823381 L36.9958333,16.6280908 C37.6458333,16.682254 38.1875,17.3863751 38.1875,18.0363331 C38.1875,18.7946173 37.5916667,19.4987384 36.8875,19.4987384 L36.8875,19.4987384 Z" id="Shape" stroke="#4C4F58" stroke-width="3" fill="#4C4F58"></path>
                        <polygon id="Path-10648" fill="#FE446E" points="1 1 6.97271729 1 6.97271729 16.7007055 1 16.7007055"></polygon>
                        <path d="M4.84765625,4.09789181 C3.25657315,1.70088791 1,1 1,1 L6.97271729,1 L6.97271729,11.1870031 C6.97271729,11.1870031 6.43873935,6.4948957 4.84765625,4.09789181 Z" id="Path-10648-Copy-2" fill="#FF8AA4"></path>
                        <path d="M8,3.62045581 L8,15.2436247 L23.2577515,19.8278542 L36.9718018,19.8278533 C36.9718018,19.8278533 37.3795723,19.7909362 37.7327271,19.5138283 C38.1331698,19.1996152 38.2191622,18.7609781 38.2363892,18.3556852 C38.2536162,17.9503924 38.0807989,17.62635 37.8245239,17.3541594 C37.6257607,17.1430522 37.2122641,17.0379011 36.9718018,16.9900846 L26.6019287,15.6340055 L16.2823486,9.51364422 C16.2823486,9.51364422 15.6967773,8.50937176 16.8371582,8.50937176 L25.7902832,10.464694 C25.7902832,10.464694 26.3521839,10.5988593 26.8400269,10.0813322 C27.2015802,9.69777912 27.5126878,8.69842749 26.4436035,8.21213055 L17.1617432,3.91928393 C17.1617432,3.91928393 16.0777577,3.38079964 14.9626465,3.12619311 C14.5157475,3.0241554 14.0571846,2.97455548 13.6716309,3.0129729 C12.3240356,3.14725023 8,3.62045581 8,3.62045581 Z" id="Path-10649" fill="#FFD487"></path>
                    </g>
                </g>
            </g>
        </g>
    </g>
</svg>