<?xml version="1.0" encoding="UTF-8" standalone="no"?>
<svg width="40px" height="40px" viewBox="0 0 40 40" version="1.1" xmlns="http://www.w3.org/2000/svg" xmlns:xlink="http://www.w3.org/1999/xlink">
    <!-- Generator: Sketch 3.8.3 (29802) - http://www.bohemiancoding.com/sketch -->
    <title>Group 26</title>
    <desc>Created with Sketch.</desc>
    <defs></defs>
    <g id="Page-1" stroke="none" stroke-width="1" fill="none" fill-rule="evenodd">
        <g id="Group-26" fill="#666666">
            <g id="Group-12">
                <path d="M26.1327473,24.9152174 C26.1327473,24.9152174 30.0101099,21.036087 30.0101099,17.0921739 L30.0101099,9.26913043 C30.0101099,9.26913043 29.9107692,0.43 20.0079121,0.43 C9.19868132,0.43 8.97846154,9.26913043 8.97846154,9.26913043 L8.97846154,17.0921739 C8.97846154,20.9778261 13.8659341,24.9152174 13.8659341,24.9152174 C13.8659341,24.9152174 0.274285714,32.0243478 0.274285714,35.9278261 C0.274285714,39.8308696 2.32879121,39.5634783 2.32879121,39.5634783 L37.9195604,39.5634783 C37.9195604,39.5634783 39.9353846,39.723913 39.9353846,35.8513043 C39.9349451,31.946087 26.1327473,24.9152174 26.1327473,24.9152174 L26.1327473,24.9152174 Z M37.3718681,37.1721739 L2.81934066,37.1721739 C2.76,36.9508696 2.69626374,36.5786957 2.69186813,35.9908696 C3.14461538,34.4078261 8.86285714,30.2395652 14.9969231,27.0291304 L18.2224176,25.3408696 L15.392967,23.0613043 C14.0914286,22.0043478 11.3964835,19.15 11.3964835,17.0921739 L11.3964835,9.31652174 C11.4065934,9.16478261 11.5362637,7.52869565 12.5810989,5.97826087 C13.992967,3.88347826 16.4918681,2.82086957 20.0083516,2.82086957 C23.1578022,2.82086957 25.2945055,3.82608696 26.5406593,5.89391304 C27.4923077,7.47304348 27.5859341,9.14652174 27.5925275,9.30173913 L27.5925275,17.0917391 C27.5925275,19.4947826 25.2949451,22.3430435 24.4092308,23.2378261 L22.1191209,25.5526087 L25.0254945,27.0408696 C31.2342857,30.206087 37.036044,34.333913 37.5169231,35.9204348 C37.5120879,36.5573913 37.4378022,36.9486957 37.3718681,37.1721739 L37.3718681,37.1721739 Z" id="Shape"></path>
            </g>
        </g>
    </g>
</svg>