<?xml version="1.0" encoding="UTF-8" standalone="no"?>
<svg width="29px" height="27px" viewBox="0 0 29 27" version="1.1" xmlns="http://www.w3.org/2000/svg" xmlns:xlink="http://www.w3.org/1999/xlink">
    <!-- Generator: Sketch 3.8.3 (29802) - http://www.bohemiancoding.com/sketch -->
    <title>quotation-mark</title>
    <desc>Created with Sketch.</desc>
    <defs></defs>
    <g id="Page-1" stroke="none" stroke-width="1" fill="none" fill-rule="evenodd">
        <g id="quotation-mark" fill="#F9B100">
            <g id="Capa_1">
                <path d="M12.4533457,1.21574769 L12.4533457,6.05497846 C12.4533457,6.71128615 11.9227286,7.24306154 11.2681571,7.24306154 C8.93274571,7.24306154 7.66238,9.64473231 7.48630857,14.3848523 L11.2681571,14.3848523 C11.9227286,14.3848523 12.4533457,14.9171262 12.4533457,15.5731846 L12.4533457,25.7909815 C12.4533457,26.4469569 11.9227286,26.9788154 11.2681571,26.9788154 L1.18494,26.9788154 C0.53012,26.9788154 0,26.4465415 0,25.7909815 L0,15.5731846 C0,13.3008646 0.228188571,11.2156338 0.67802,9.37473231 C1.13936857,7.48714154 1.84754857,5.83673538 2.78226,4.46920615 C3.74406571,3.06379385 4.94715143,1.96094769 6.35837429,1.19265231 C7.77912571,0.419704615 9.43129714,0.0276646154 11.2685714,0.0276646154 C11.9227286,0.0276646154 12.4533457,0.55944 12.4533457,1.21574769 L12.4533457,1.21574769 Z M27.7383343,7.24314462 C28.3925743,7.24314462 28.9236057,6.71087077 28.9236057,6.05506154 L28.9236057,1.21583077 C28.9236057,0.559523077 28.3926571,0.0277476923 27.7383343,0.0277476923 C25.9018057,0.0277476923 24.2493857,0.419870769 22.8291314,1.19273538 C21.41766,1.96103077 20.2139114,3.06387692 19.25194,4.46928923 C18.31756,5.83681846 17.60938,7.48730769 17.1479486,9.37531385 C16.6983657,11.2167969 16.4701771,13.3020277 16.4701771,15.5732677 L16.4701771,25.7910646 C16.4701771,26.44704 17.00096,26.9788985 17.6553657,26.9788985 L27.7382514,26.9788985 C28.3924914,26.9788985 28.9230257,26.4466246 28.9230257,25.7910646 L28.9230257,15.5731846 C28.9230257,14.9172092 28.3925743,14.3848523 27.7382514,14.3848523 L24.0103429,14.3848523 C24.1837629,9.64481538 25.4355686,7.24314462 27.7383343,7.24314462 L27.7383343,7.24314462 Z" id="Shape"></path>
            </g>
        </g>
    </g>
</svg>