<?xml version="1.0" encoding="UTF-8" standalone="no"?>
<svg width="56px" height="60px" viewBox="0 0 56 60" version="1.1" xmlns="http://www.w3.org/2000/svg" xmlns:xlink="http://www.w3.org/1999/xlink">
    <!-- Generator: Sketch 3.8.3 (29802) - http://www.bohemiancoding.com/sketch -->
    <title>Group 265 Copy 2</title>
    <desc>Created with Sketch.</desc>
    <defs></defs>
    <g id="Page-1" stroke="none" stroke-width="1" fill="none" fill-rule="evenodd">
        <g id="Group-265-Copy-2">
            <g id="Group-263" transform="translate(17.000000, 3.000000)">
                <path d="M0.6640625,1.56988525 L3.7923584,3.99780273 C3.7923584,3.99780273 4.51275635,4.43078613 5.40856934,3.9956665 L9.99316406,0.446960449 L14.5299683,3.99688721 C14.5299683,3.99688721 15.3742676,4.45025635 16.1038208,3.98657227 L20.7015991,0.430847168 L25.2209473,3.99200439 C25.2209473,3.99200439 26.0461426,4.41375732 26.8499756,3.98657227 L29.9880371,1.56988525 L29.9777222,43.9761963 C29.9777222,43.9761963 30.5079346,49.4856567 24.098877,49.9491577 C24.098877,49.9491577 14.631897,51.4102173 14.7888184,44.0410156 L14.7888184,40.9389038 C14.7888184,40.9389038 14.6842041,39.7342529 13.074585,39.7299805 L0.6640625,39.6899414 L0.6640625,1.56988525 Z" id="Path-10819" fill="#E4EDFB"></path>
                <path d="M0.6640625,1.56988525 L3.7923584,3.99780273 C3.7923584,3.99780273 4.51275635,4.43078613 5.40856934,3.9956665 L9.99316406,0.446960449 L14.5299683,3.99688721 C14.5299683,3.99688721 8.36444092,9.26728439 7.59701538,20.0850582 C6.82958984,30.902832 11.3218227,39.7243257 10.9595954,39.723157 C7.52775112,39.7120852 0.6640625,39.6899414 0.6640625,39.6899414 L0.6640625,1.56988525 Z" id="Path-10819-Copy" fill="#B6CBF3"></path>
            </g>
            <g id="Group-264" transform="translate(2.000000, 45.000000)">
                <path d="M0.977783205,0.175292969 C0.977783205,0.175292969 0.436694697,2.87498105 1.67877197,5.12994385 C2.49796499,6.61716997 4.1010398,7.98852539 7.11730957,7.98852539 L29.4313965,7.98864746 C29.4313965,7.98864746 29.0018183,7.60732654 28.4680787,6.92053223 C27.7352745,5.9775896 26.940491,4.38156098 26.9263917,1.8291626 C26.9236658,1.33567967 26.855933,0.741443334 26.9263917,0.175292969 L7.42480469,0.175292969 L0.977783205,0.175292969 Z" id="Path-10818" fill="#E4ECFB"></path>
                <path d="M0.977783205,0.175292969 C0.977783205,0.175292969 0.436694697,2.87498105 1.67877197,5.12994385 C2.49796499,6.61716997 4.1010398,7.98852539 7.11730957,7.98852539 L9.27685459,7.9885372 C9.27685459,7.9885372 7.97656264,5.4810791 8.54394545,3.203125 C9.11132826,0.925170898 10.628418,0.175292969 10.628418,0.175292969 L7.42480469,0.175292969 L0.977783205,0.175292969 Z" id="Path-10818-Copy" fill="#B5CBF3"></path>
            </g>
            <g id="Group-262">
                <g id="noun_37120_cc">
                    <g id="Group" fill="#4C4F58">
                        <path d="M49,0.629263158 C48.4805085,0.428105263 47.8745763,0.510631579 47.4508475,0.839263158 L43.0466102,4.26705263 L38.6423729,0.839263158 C38.0949153,0.413368421 37.2677966,0.413368421 36.7194915,0.839263158 L32.3194915,4.26631579 L27.9169492,0.838526316 C27.370339,0.412631579 26.5423729,0.412631579 25.9949153,0.838526316 L21.5949153,4.26557895 L17.1957627,0.838526316 C16.7720339,0.509157895 16.1661017,0.426631579 15.6466102,0.627789474 C15.1279661,0.828947368 14.7932203,1.27694737 14.7932203,1.77136842 L14.7932203,42.6933684 L1.53050847,42.6933684 C0.734745763,42.6933684 0.0898305085,43.2541053 0.0898305085,43.946 L0.0898305085,47.5167368 C0.0898305085,51.8921053 4.18305085,55.4510526 9.21525424,55.4510526 L40.7288136,55.4510526 C45.7610169,55.4510526 49.8542373,51.8921053 49.8542373,47.5167368 L49.8542373,1.77284211 C49.8525424,1.27842105 49.5186441,0.831157895 49,0.629263158 L49,0.629263158 Z M9.21440678,52.9465263 C5.7720339,52.9465263 2.97118644,50.5112632 2.97118644,47.5182105 L2.97118644,45.2001053 L28.9059322,45.2001053 L28.9059322,47.5182105 C28.9059322,49.6167368 29.8466102,51.5258947 31.3813559,52.9465263 L9.21440678,52.9465263 L9.21440678,52.9465263 Z M46.9711864,47.5182105 C46.9711864,50.5112632 44.170339,52.9465263 40.7279661,52.9465263 L38.029661,52.9465263 C34.5872881,52.9465263 31.7864407,50.5112632 31.7864407,47.5182105 L31.7864407,43.9474737 C31.7864407,43.2555789 31.1415254,42.6948421 30.3457627,42.6948421 L17.6754237,42.6948421 L17.6754237,4.57726316 L20.6330508,6.88136842 C21.1805085,7.308 22.0084746,7.308 22.5559322,6.88136842 L26.9550847,3.45431579 L31.3576271,6.88136842 C31.9050847,7.30726316 32.7322034,7.308 33.2805085,6.88136842 L37.6805085,3.45431579 L42.0847458,6.88136842 C42.6322034,7.30726316 43.459322,7.30726316 44.0067797,6.88136842 L46.970339,4.57505263 L46.970339,47.5182105 L46.9711864,47.5182105 Z" id="Shape"></path>
                    </g>
                    <path d="M22,31.5 L42.6142578,31.5" id="Line" stroke="#8B8D93" stroke-linecap="square"></path>
                    <path d="M22,34.5 L38.0463867,34.5" id="Line-Copy-16" stroke="#8B8D93" stroke-linecap="square"></path>
                    <path d="M22,37.5 L38.0463867,37.5" id="Line-Copy-17" stroke="#8B8D93" stroke-linecap="square"></path>
                </g>
            </g>
            <g id="Group-261" transform="translate(23.000000, 8.000000)">
                <g id="Group-260-Copy">
                    <g id="Group" fill="#4C4F58">
                        <path d="M4.6221,0.0588 C4.4703,0.084 4.3776,0.2865 4.4532,0.4215 L5.3304,1.9479 C5.3811,2.0661 5.5497,2.1168 5.6679,2.049 C5.7861,1.9815 5.8197,1.8129 5.7438,1.7031 L4.8579,0.1767 C4.8159,0.1008 4.7148,0.0501 4.6221,0.0588 L4.6221,0.0588 L4.6221,0.0588 Z M13.3026,0.0588 C13.2264,0.0756 13.1676,0.1179 13.1337,0.177 L12.2562,1.7034 C12.1803,1.8132 12.2139,1.9818 12.3321,2.0493 C12.4419,2.1168 12.6108,2.0661 12.6696,1.9482 L13.5552,0.4218 C13.6395,0.27 13.4964,0.0423 13.3191,0.0591 C13.3107,0.0588 13.3026,0.0588 13.3026,0.0588 L13.3026,0.0588 L13.3026,0.0588 Z M9,1.8975 C5.8449,1.8975 3.2805,4.4952 3.2805,7.6833 C3.2805,9.5643 3.8289,10.5174 4.335,11.3526 C4.8411,12.1875 5.3052,12.9045 5.3052,14.5491 L5.3052,14.5659 C5.3052,14.583 5.3136,14.5995 5.3136,14.6082 C5.3136,14.6253 5.322,14.6334 5.322,14.6418 L6.2079,19.2639 C6.2838,19.6602 6.6717,19.905 7.0851,19.905 L7.161,19.905 L7.161,20.0316 C7.161,20.5125 7.4901,20.9424 7.9539,20.9424 L10.0374,20.9424 C10.5015,20.9424 10.839,20.5122 10.839,20.0316 L10.839,19.905 L10.9065,19.905 C11.3199,19.905 11.7081,19.6605 11.7921,19.2639 L12.678,14.6331 L12.6864,14.6079 L12.6864,14.6079 C12.6945,14.5743 12.6945,14.5491 12.6864,14.5236 L12.6864,14.49 C12.7032,12.8961 13.1673,12.1791 13.665,11.3526 C14.1711,10.5174 14.7108,9.5643 14.7108,7.6833 C14.7111,4.4952 12.1554,1.8975 9,1.8975 L9,1.8975 L9,1.8975 Z M14.2386,7.6833 C14.2386,9.48 13.7661,10.2642 13.26,11.0994 C12.7788,11.8923 12.2814,12.7524 12.2307,14.3211 L9.9615,14.3211 L8.0466,14.3211 L5.769,14.3211 C5.7183,12.7524 5.2206,11.892 4.7397,11.0994 C4.2336,10.2642 3.7611,9.48 3.7611,7.6833 C3.7617,4.7565 6.1065,2.3781 9,2.3781 C11.8935,2.3781 14.2386,4.7565 14.2386,7.6833 Z M1.4418,3.2385 C1.2393,3.2637 1.1802,3.5928 1.3575,3.6855 L2.8845,4.5711 C2.994,4.6302 3.1461,4.5879 3.2136,4.4784 C3.2727,4.3686 3.2304,4.2168 3.1206,4.1493 L1.5939,3.2721 C1.56,3.2469 1.5096,3.2385 1.4589,3.2385 L1.4418,3.2385 L1.4418,3.2385 L1.4418,3.2385 Z M16.5078,3.2385 C16.4655,3.2385 16.4319,3.2553 16.3983,3.2721 L14.88,4.1493 C14.7705,4.2168 14.7282,4.3686 14.787,4.4784 C14.8461,4.5879 15.0063,4.6302 15.1161,4.5711 L16.6431,3.6855 C16.7361,3.6351 16.7868,3.5085 16.7526,3.4071 C16.7187,3.306 16.6092,3.2301 16.5078,3.2385 L16.5078,3.2385 L16.5078,3.2385 Z M0.2943,7.5822 C0.1677,7.5906 0.0582,7.7085 0.0666,7.8351 C0.075,7.9533 0.1932,8.0628 0.3198,8.0544 L2.0745,8.0544 C2.2011,8.0628 2.3109,7.9446 2.3109,7.8183 C2.3109,7.6917 2.2011,7.5822 2.0745,7.5822 L0.3198,7.5822 C0.3114,7.5822 0.303,7.5822 0.2943,7.5822 L0.2943,7.5822 L0.2943,7.5822 Z M15.9006,7.5822 C15.774,7.5906 15.6729,7.7085 15.6729,7.8351 C15.6813,7.9533 15.7995,8.0628 15.9261,8.0544 L17.6892,8.0544 C17.8158,8.0628 17.9337,7.9446 17.9337,7.8183 C17.9337,7.6917 17.8155,7.5822 17.6892,7.5822 L15.9261,7.5822 C15.9177,7.5822 15.909,7.5822 15.9006,7.5822 L15.9006,7.5822 L15.9006,7.5822 Z M5.8368,14.802 L12.1719,14.802 L11.3199,19.1625 C11.3028,19.2555 11.1174,19.4241 10.9065,19.4241 L10.6368,19.4241 L10.5945,19.4241 L8.0469,19.4241 L7.3551,19.4241 L7.0851,19.4241 C6.8826,19.4241 6.6972,19.2552 6.6801,19.1625 L6.4692,18.0663 L9.5652,18.0663 C9.6918,18.0663 9.8013,17.9481 9.8013,17.8218 C9.8013,17.7036 9.6918,17.5857 9.5652,17.5857 L6.3684,17.5857 L6.1152,16.2615 L10.215,16.2615 C10.3332,16.2615 10.4511,16.152 10.4511,16.0254 C10.4511,15.8988 10.3329,15.7893 10.215,15.7893 L6.0309,15.7893 L5.8368,14.802 L5.8368,14.802 L5.8368,14.802 Z M7.6335,19.905 L8.0469,19.905 L10.3581,19.905 L10.3581,20.0316 C10.3581,20.3013 10.1895,20.4702 10.0377,20.4702 L7.9542,20.4702 C7.8024,20.4702 7.6338,20.3013 7.6338,20.0316 L7.6338,19.905 L7.6335,19.905 L7.6335,19.905 Z" id="Shape"></path>
                    </g>
                    <path d="M4.36555807,5.05959066 C3.97559169,5.82684539 3.52136901,6.81481591 3.72991039,8.63241239 C3.72991039,8.63241239 3.67703424,9.73947822 4.70563807,11.2226868 C4.70563807,11.2226868 4.86703077,11.3889092 5.2514105,12.2489794 C5.43961688,12.6701012 5.53144991,13.0786352 5.59571966,13.4374593 C5.66271001,13.8114728 5.69743043,14.131074 5.66317335,14.3342489 L11.9339639,14.3342489 L12.2344223,14.3342489 C12.2344223,14.3342489 12.3267382,13.1947042 12.5141365,12.6193305 C12.633994,12.2513291 12.8227282,11.8643928 13.0221836,11.4919513 C13.1342487,11.2826931 13.3023617,11.0713408 13.4108808,10.8771634 C13.4108808,10.8771634 14.0804089,9.94730971 14.1864919,8.60027398 C14.1864919,8.60027398 14.9093923,5.17822266 11.6662283,3.09269207 C11.6662283,3.09269207 9.2330921,1.51838516 6.67585293,2.88215469 C5.30634712,3.61250886 4.81520549,4.17491413 4.36555807,5.05959066 Z" id="Path-10755-Copy" fill="#FFD22B"></path>
                    <path d="M10.8182359,7.19444444 L8.62860507,7.19444444 L7.56886089,7.19444444 C7.45064707,7.19444444 7.35483871,7.2907307 7.35483871,7.40953417 C7.35483871,7.52833764 7.45064707,7.6246239 7.56886089,7.6246239 L8.62860507,7.6246239 C8.94821709,7.6246239 9.25127585,7.78199228 9.43929767,8.04556122 C9.52786397,8.16974193 9.58724259,8.30732373 9.61937727,8.44826631 L7.56886089,8.44826631 C7.45064707,8.44826631 7.35483871,8.54455257 7.35483871,8.66335604 C7.35483871,8.7821595 7.45064707,8.87844576 7.56886089,8.87844576 L9.62710005,8.87844576 C9.61945043,8.91558234 9.61000336,8.95237236 9.59789145,8.98842719 C9.50885488,9.25384456 9.30645344,9.44742531 9.02797379,9.53354523 C8.60410957,9.66453151 8.13075269,9.64797969 7.67236066,9.63176394 L7.57605068,9.62840317 C7.48617809,9.62378209 7.4035789,9.67931893 7.37013794,9.76359042 C7.33669697,9.84777788 7.35926962,9.94389611 7.42665317,10.004138 L10.066483,12.3634034 C10.1072809,12.3998679 10.1580276,12.417764 10.2086071,12.417764 C10.2676304,12.417764 10.3263193,12.3933984 10.3686221,12.3455913 C10.4472084,12.2568668 10.4392661,12.1209234 10.3508984,12.0419451 L8.147724,10.0729499 C8.48397291,10.0724458 8.82281349,10.0469879 9.15379545,9.94473626 C9.56746018,9.81685869 9.86926489,9.52606747 10.0035304,9.12588295 C10.0305967,9.0452243 10.0473171,8.96217111 10.0590737,8.87844574 L10.8182359,8.87844574 C10.9364497,8.87844574 11.0322581,8.78215949 11.0322581,8.66335602 C11.0322581,8.54455255 10.9364497,8.44826629 10.8182359,8.44826629 L10.0566493,8.44826629 C10.0198746,8.21848367 9.92909287,7.99384724 9.78725092,7.79493125 C9.743391,7.73346054 9.69372073,7.67768214 9.64165732,7.62462388 L10.8182359,7.62462388 C10.9364497,7.6246239 11.032258,7.52833764 11.032258,7.40953417 C11.032258,7.2907307 10.9364497,7.19444444 10.8182359,7.19444444 Z" id="Shape-Copy-16" fill="#4E5159"></path>
                </g>
            </g>
            <path d="M48,59 C51.8659932,59 55,55.8659932 55,52 C55,48.1340068 51.8659932,45 48,45 C44.1340068,45 41,48.1340068 41,52 C41,55.8659932 44.1340068,59 48,59 Z" id="Oval-192" stroke="#4C4F58" stroke-width="2" fill="#FFD12B"></path>
            <path d="M50.6762132,49.6450476 L47.2643876,53.0568732 L45.6328278,51.4253134 C45.2945896,51.0873227 44.7462826,51.0873227 44.4080445,51.4253134 C44.0698063,51.7635516 44.0698063,52.3118586 44.4080445,52.6500967 L46.6512536,54.8933059 C46.8209913,55.063291 47.0426894,55.1476649 47.2641402,55.1476649 C47.4858383,55.1476649 47.7075364,55.0630435 47.8765318,54.8940482 C47.8770267,54.8935533 51.9002542,50.8700783 51.9002542,50.8700783 C52.2389872,50.5315928 52.2389872,49.9832857 51.9007491,49.6450476 C51.562511,49.3070569 51.0144514,49.3070569 50.6762132,49.6450476 Z" id="Shape" fill="#4C4F58"></path>
        </g>
    </g>
</svg>