<?xml version="1.0" encoding="UTF-8" standalone="no"?>
<svg width="77px" height="75px" viewBox="0 0 77 75" version="1.1" xmlns="http://www.w3.org/2000/svg" xmlns:xlink="http://www.w3.org/1999/xlink">
    <!-- Generator: Sketch 3.8.3 (29802) - http://www.bohemiancoding.com/sketch -->
    <title>Group 28</title>
    <desc>Created with Sketch.</desc>
    <defs>
        <path d="M38.8392857,40.8360764 C38.8392857,39.7332794 39.7328857,38.8392857 40.8417869,38.8392857 L65.6397567,38.8392857 C66.7457075,38.8392857 68.2627226,39.489821 69.0190507,40.2828041 L72.9888086,44.4449542 C73.7491903,45.2421874 74.3656015,46.7834041 74.3656015,47.88819 L74.3656015,70.7863613 C74.3656015,71.8907747 73.4696499,72.7860787 72.3666133,72.7860787 L40.8382739,72.7860787 C39.7342632,72.7860787 38.8392857,71.8955334 38.8392857,70.789288 L38.8392857,40.8360764 Z" id="path-1"></path>
        <mask id="mask-2" maskContentUnits="userSpaceOnUse" maskUnits="objectBoundingBox" x="0" y="0" width="35.5263158" height="33.946793" fill="white">
            <use xlink:href="#path-1"></use>
        </mask>
        <path d="M48.7415056,54.2956961 C46.7384282,62.9803405 50.8791504,69.8723145 50.8791504,69.8723145 L41.970459,69.8723145 L41.970459,41.9677734 L56.4494629,41.9677734 C56.4494629,41.9677734 50.7445831,45.6110518 48.7415056,54.2956961 Z" id="path-3"></path>
        <rect id="path-4" x="46.875" y="39.8392857" width="12.3355263" height="11.3155977" rx="1"></rect>
        <mask id="mask-5" maskContentUnits="userSpaceOnUse" maskUnits="objectBoundingBox" x="0" y="0" width="12.3355263" height="11.3155977" fill="white">
            <use xlink:href="#path-4"></use>
        </mask>
        <rect id="path-6" x="46.875" y="58.9285714" width="22.2039474" height="12.7915452" rx="1"></rect>
        <mask id="mask-7" maskContentUnits="userSpaceOnUse" maskUnits="objectBoundingBox" x="0" y="0" width="22.2039474" height="12.7915452" fill="white">
            <use xlink:href="#path-6"></use>
        </mask>
        <path d="M48.8710327,60.9353638 L56.7069702,60.9353638 C56.7069702,60.9353638 55.3991443,62.1825129 54.7586542,64.6606534 C54.1181641,67.1387939 54.7586541,69.7643433 54.7586541,69.7643433 L48.8710327,69.7643433 L48.8710327,60.9353638 Z" id="path-8"></path>
        <rect id="path-9" x="53.5714286" y="43.8571429" width="1.97368421" height="4.42784257" rx="0.986842105"></rect>
        <mask id="mask-10" maskContentUnits="userSpaceOnUse" maskUnits="objectBoundingBox" x="0" y="0" width="1.97368421" height="4.42784257" fill="white">
            <use xlink:href="#path-9"></use>
        </mask>
    </defs>
    <g id="Page-1" stroke="none" stroke-width="1" fill="none" fill-rule="evenodd">
        <g id="Group-28" transform="translate(2.000000, 2.000000)">
            <g id="Group-13-Copy">
                <g id="Group-221-Copy-2">
                    <g id="Group-198">
                        <path d="M33.5526316,66.909621 C52.0832383,66.909621 67.1052632,51.9313921 67.1052632,33.4548105 C67.1052632,14.9782289 52.0832383,0 33.5526316,0 C15.0220248,0 0,14.9782289 0,33.4548105 C0,51.9313921 15.0220248,66.909621 33.5526316,66.909621 Z" id="Oval-158" stroke="#4C4F58" stroke-width="3" fill="#EBF2FA"></path>
                        <path d="M19.192627,62.0935052 C19.6683856,62.3197028 23.5534668,63.7878411 23.5534668,63.7878411 C23.5534668,63.7878411 13.0132378,44.4762068 17.949774,27.7924607 C22.8863103,11.1087147 41.4643555,2.45166015 41.4643555,2.45166015 C41.4643555,2.45166015 36.6849846,1.56847683 33.7158203,1.38525391 C17.9497738,0.412353494 1.43286133,15.1620399 1.43286133,32.7555497 C1.43286133,45.446855 8.42124009,56.9722902 19.192627,62.0935052 Z" id="Oval-158-Copy" fill="#B4D4F9"></path>
                        <path d="M33.3474948,32.9016607 C33.0392617,32.9016607 32.7310285,32.7838112 32.4950376,32.5505172 C32.0254637,32.0863345 32.0254637,31.3191102 32.4950376,30.8501173 L46.9434649,16.4195656 C47.4106308,15.9553829 48.1763974,15.9553829 48.6459713,16.4195656 C49.1131371,16.8885586 49.1131371,17.6557829 48.6459713,18.1199656 L34.1975439,32.5505172 C33.963961,32.7838112 33.6557279,32.9016607 33.3474948,32.9016607 L33.3474948,32.9016607 Z" id="Shape" fill="#4C4F58"></path>
                        <path d="M32.5359942,33.7220991 C32.2277611,33.7220991 31.9195279,33.6042496 31.683537,33.3709557 L24.4593233,26.1556799 C23.9897494,25.6914972 23.9897494,24.9242728 24.4593233,24.4552799 C24.9288972,23.9910972 25.6922557,23.9910972 26.1618296,24.4552799 L33.3860433,31.6705557 C33.8556172,32.1395487 33.8556172,32.906773 33.3860433,33.3709557 C33.1524604,33.6042496 32.8442273,33.7220991 32.5359942,33.7220991 L32.5359942,33.7220991 Z" id="Shape" fill="#4C4F58"></path>
                        <use id="Rectangle-681" stroke="#4C4F58" mask="url(#mask-2)" stroke-width="6" fill="#FF6261" xlink:href="#path-1"></use>
                        <use id="Rectangle-681-Copy" fill="#EF4545" xlink:href="#path-3"></use>
                        <use id="Rectangle-682" stroke="#4C4F58" mask="url(#mask-5)" stroke-width="4" fill="#FFFFFF" xlink:href="#path-4"></use>
                        <use id="Rectangle-683" stroke="#4C4F58" mask="url(#mask-7)" stroke-width="4" fill="#FFC86B" xlink:href="#path-6"></use>
                        <use id="Rectangle-683-Copy" fill="#E4991A" xlink:href="#path-8"></use>
                        <use id="Rectangle-685" stroke="#4C4F58" mask="url(#mask-10)" stroke-width="2" fill="#FFC86B" xlink:href="#path-9"></use>
                    </g>
                </g>
            </g>
        </g>
    </g>
</svg>