<?xml version="1.0" encoding="UTF-8" standalone="no"?>
<svg width="40px" height="40px" viewBox="0 0 40 40" version="1.1" xmlns="http://www.w3.org/2000/svg" xmlns:xlink="http://www.w3.org/1999/xlink">
    <!-- Generator: Sketch 3.8.3 (29802) - http://www.bohemiancoding.com/sketch -->
    <title>Group 18</title>
    <desc>Created with Sketch.</desc>
    <defs></defs>
    <g id="Page-1" stroke="none" stroke-width="1" fill="none" fill-rule="evenodd">
        <g id="Group-18" fill="#666666">
            <path d="M3.55134021,22.0803409 L28.8820619,22.0803409 C29.4342268,22.0803409 29.8804124,21.5889773 29.8804124,20.9817045 C29.8804124,20.3744318 29.4342268,19.8830682 28.8820619,19.8830682 L3.61443299,19.8830682 L9.54556701,12.8753409 C9.93525773,12.4471591 9.93525773,11.7507955 9.54556701,11.3221591 C9.15587629,10.8926136 8.52494845,10.8926136 8.1356701,11.3221591 L0,21.0048864 L8.01113402,30.7571591 C8.20618557,30.97125 8.46103093,31.0780682 8.71628866,31.0780682 C8.97154639,31.0780682 9.22639175,30.97125 9.4214433,30.7571591 C9.81113402,30.3271591 9.81113402,29.6317045 9.4214433,29.2021591 L3.55134021,22.0803409 L3.55134021,22.0803409 Z" id="Shape"></path>
            <path d="M19.9901031,0.00561135187 C17.7896907,0.00561135187 16,-0.220752166 16,2.20197511 L16,14.2901568 L17.9950515,14.2901568 L17.9950515,3.34314251 C17.9950515,2.13314251 18.8894845,2.20197499 19.9901031,2.20197499 L35.9484536,2.20197499 C37.0486598,2.20197499 37.9430923,2.13314251 37.9430923,3.34314251 L37.9430923,35.8585243 C37.9430923,37.0703424 37.6423605,37.3628845 36.5421543,37.3628845 L19.0538728,37.3628845 C17.9536666,37.3628845 17.9950515,37.0703424 17.9950515,35.8585243 L17.9950515,27.4733386 L16,27.4733386 L16,35.8585243 C16,38.2830697 16,39.5606117 19.0538728,39.5606117 L37.1695957,39.5606117 C39.3700081,39.5606117 39.9385567,38.6473426 39.9385567,35.8585243 L39.9385567,2.20197488 C39.9385567,-0.220752389 38.148866,0.00561135187 35.9484536,0.00561135187 L19.9901031,0.00561135187 Z" id="Shape"></path>
        </g>
    </g>
</svg>