<?xml version="1.0" encoding="UTF-8" standalone="no"?>
<svg width="37px" height="79px" viewBox="0 0 37 79" version="1.1" xmlns="http://www.w3.org/2000/svg" xmlns:xlink="http://www.w3.org/1999/xlink">
    <!-- Generator: Sketch 3.8.3 (29802) - http://www.bohemiancoding.com/sketch -->
    <title>Group 11</title>
    <desc>Created with Sketch.</desc>
    <defs>
        <rect id="path-1" x="2.6119403" y="38.9714286" width="32.3880597" height="38.0285714" rx="5"></rect>
        <mask id="mask-2" maskContentUnits="userSpaceOnUse" maskUnits="objectBoundingBox" x="0" y="0" width="32.3880597" height="38.0285714" fill="white">
            <use xlink:href="#path-1"></use>
        </mask>
    </defs>
    <g id="Page-1" stroke="none" stroke-width="1" fill="none" fill-rule="evenodd">
        <g id="Group-11" transform="translate(1.000000, 2.000000)">
            <g id="Group-223">
                <g id="Group-201">
                    <g id="Group-200">
                        <g id="Group-199">
                            <use id="Rectangle-697" stroke="#4C4F58" mask="url(#mask-2)" stroke-width="4" fill="#FF5855" xlink:href="#path-1"></use>
                            <g id="Group-58-Copy" transform="translate(3.238806, 11.209524)">
                                <g id="Group-57">
                                    <g id="Group-49">
                                        <g id="Group-55">
                                            <path d="M15.5671642,31.2190476 C24.1646716,31.2190476 31.1343284,24.2304258 31.1343284,15.6095238 C31.1343284,6.98862186 24.1646716,0 15.5671642,0 C6.96965681,0 0,6.98862186 0,15.6095238 C0,24.2304258 6.96965681,31.2190476 15.5671642,31.2190476 Z" id="Oval-152" stroke="#4C4F58" stroke-width="2" fill="#FFE1C0"></path>
                                            <path d="M11.9452761,29.7934065 C12.0704015,29.8285361 10.6341693,28.3521632 10.6341693,28.3521632 C10.6341693,28.3521632 6.32247559,25.2404589 4.75964902,17.9541854 C2.33013643,6.62721299 7.72379053,4.26580264 7.28463153,4.51667248 C2.77194164,7.09454924 0.974817077,10.4113279 0.974817077,15.9916478 C0.974817077,22.9067119 5.7973521,28.0673459 11.9452761,29.7934065 Z" id="Oval-152-Copy" fill="#E5CAAC"></path>
                                        </g>
                                    </g>
                                </g>
                            </g>
                            <path d="M8.66524447,22.8105278 C8.66524447,22.8105278 9.89213124,23.7720309 11.2979743,24.2532192 C12.7038175,24.7344074 15.1693855,24.8997675 15.1693855,24.8997675 C15.4182716,24.9800599 15.7010781,24.7948959 15.79957,24.4868354 L15.963042,23.9727186 C16.0615338,23.6642485 15.9393385,23.3496335 15.6900438,23.2689315 C15.6900438,23.2689315 13.3028185,23.5522239 11.8698223,23.0402062 C10.4368262,22.5281885 9.18631138,21.1809207 9.18631138,21.1809207 C8.93701662,21.0998091 8.65543615,21.2857924 8.55653561,21.5938528 L8.39224628,22.1079697 C8.29375442,22.4160301 8.41635839,22.7310547 8.66524447,22.8105278 Z" id="Shape-Copy-6" fill="#4C4F58" transform="translate(12.177670, 23.040206) rotate(-9.000000) translate(-12.177670, -23.040206) "></path>
                            <path d="M21.5159907,22.8105278 C21.5159907,22.8105278 22.7428775,23.7720309 24.1487206,24.2532192 C25.5545637,24.7344074 28.0201318,24.8997675 28.0201318,24.8997675 C28.2690179,24.9800599 28.5518244,24.7948959 28.6503163,24.4868354 L28.8137882,23.9727186 C28.9122801,23.6642485 28.7900848,23.3496335 28.54079,23.2689315 C28.54079,23.2689315 26.1535647,23.5522239 24.7205686,23.0402062 C23.2875724,22.5281885 22.0370576,21.1809207 22.0370576,21.1809207 C21.7877629,21.0998091 21.5061824,21.2857924 21.4072819,21.5938528 L21.2429925,22.1079697 C21.1445007,22.4160301 21.2671047,22.7310547 21.5159907,22.8105278 Z" id="Shape-Copy-7" fill="#4C4F58" transform="translate(25.028416, 23.040206) scale(-1, 1) rotate(-9.000000) translate(-25.028416, -23.040206) "></path>
                            <path d="M27.4946431,27.7680496 C27.2997027,27.8929943 23.6534604,30.2005801 18.8187769,30.3091387 C13.9849107,30.2001705 10.3382596,27.8929943 10.142502,27.7680496 C10.1404586,27.765182 10.1367804,27.7631337 10.1343284,27.7619048 C10.1343284,27.7619048 13.2966937,37.0500093 18.7877172,37.1171927 L18.7897606,37.1184217 C18.7991602,37.1184217 18.8089685,37.1176024 18.8187769,37.1176024 C18.8285852,37.1176024 18.8388022,37.1184217 18.8482018,37.1184217 L18.8502452,37.1171927 C24.3416774,37.0500093 27.5040427,27.7619048 27.5040427,27.7619048 C27.5003646,27.7631337 27.4979125,27.765182 27.4946431,27.7680496 L27.4946431,27.7680496 Z M24.5709469,31.7183514 C23.1021512,32.2890006 21.0992109,32.8514567 18.8187769,32.9038925 C16.5379342,32.8514567 14.5362199,32.2890006 13.0674242,31.7183514 C12.6701873,31.0084195 12.3571385,30.3406821 12.1323645,29.8163239 C13.6195508,30.4943026 16.0086937,31.3324565 18.8187769,31.3963626 C21.6292687,31.3324565 24.0188203,30.4943026 25.5055979,29.8163239 C25.2812326,30.3406821 24.9669577,31.0084195 24.5709469,31.7183514 L24.5709469,31.7183514 Z" id="Shape-Copy-4" fill="#4C4F58"></path>
                            <path d="M8.7858797,0.0646349664 C8.7858797,0.0646349664 -2.48379203,5.00033483 0.592584051,12.8368777 C0.592584051,12.8368777 1.91050684,17.8622328 6.4127217,18.6237477 C6.4127217,18.6237477 32.8539241,17.2278084 33.128816,18.6237484 L33.2238806,12.836878 C33.2238806,12.836878 32.97714,9.16746882 28.6533047,8.77546539 L8.94076016,6.46628669 L8.7858797,0.0646349664 Z" id="Path-10365" stroke="#4C4F58" stroke-width="2" fill="#FFD487"></path>
                            <path d="M7.84503435,1.61865234 C7.84503435,1.61865234 0.343125197,4.75388937 1.04223633,11.5909424 C1.42027546,15.2880278 5.16287834,17.4864073 6.26647936,17.621582 C6.45722828,17.6449459 7.39282213,17.621582 7.39282213,17.621582 L12.9497069,17.3813477 C12.9497069,17.3813477 11.6788419,14.2931455 12.8056493,11.8206008 C13.9324566,9.34805618 15.163574,8.1439209 15.163574,8.1439209 C12.5533366,7.82975123 8.15222191,7.40441895 8.15222191,7.40441895 L7.84503435,1.61865234 Z" id="Path-10366" fill="#FFE6AF"></path>
                            <path d="M13.3197021,42.4682617 C12.1996435,42.0335513 10.0274658,40.9240723 10.0274658,40.9240723 L7.98400879,40.9240723 C7.98400879,40.9240723 4.57556152,40.2747532 4.57556152,43.9554443 L4.57556152,72.1845704 C4.57556152,72.1845704 4.6647295,74.4756169 7.0880127,75.0843507 C7.78766501,75.2601048 10.342041,75.0843507 10.342041,75.0843507 L12.8389893,75.0843507 C12.8389893,75.0843507 6.61738755,61.3783263 9.18549636,54.2731114 C12.1104307,46.1806635 17.2143555,43.3393554 17.2143555,43.3393554 C17.2143555,43.3393554 15.1119322,43.1638513 13.3197021,42.4682617 Z" id="Path-10394" fill="#F74645"></path>
                        </g>
                    </g>
                    <g id="noun_169695" transform="translate(24.293103, 62.777778) scale(-1, 1) translate(-24.293103, -62.777778) translate(14.793103, 53.777778)" stroke="#4C4F58" fill="#FFE1C0">
                        <path d="M17.3309033,10.5341017 C17.5638868,10.8118916 17.7098951,11.1673988 17.7098951,11.5603698 C17.7098951,12.1426524 17.3982009,12.6472177 16.9373501,12.9250075 C17.1703336,13.2031959 17.3163418,13.5587032 17.3163418,13.9516742 C17.3163418,14.5343553 17.0042541,15.0381234 16.5437969,15.3163119 C16.7767804,15.5941017 16.9227886,15.949609 16.9227886,16.34258 C16.9227886,17.2229785 16.2179348,17.9367829 15.3485757,17.9367829 L6.13785607,17.9359858 L6.13785607,17.9264205 C5.50738381,17.8989205 4.95011244,17.5980148 4.57348201,17.1388843 L1.96776612,17.1388843 C0.880772114,17.1388843 2.62900812e-13,14.9974713 2.62900812e-13,12.3562756 C2.62900812e-13,9.71507997 0.880772114,7.57366693 1.96776612,7.57366693 L5.268497,7.57366693 L8.26461769,3.19040606 L8.26461769,1.19765243 C8.47752999,-0.102420031 9.44527736,0.00200025907 9.44527736,0.00200025907 C10.3158171,0.00200025907 10.625937,0.400550984 10.625937,0.400550984 C11.8065967,1.59620316 11.8065967,3.58895678 11.8065967,3.58895678 C11.8065967,6.22257997 10.625937,7.57446403 10.625937,7.57446403 L16.5292354,7.57446403 C17.3985945,7.57446403 18.1034483,8.28826838 18.1034483,9.16866693 C18.1034483,9.75134809 17.7913606,10.2559133 17.3309033,10.5341017 L17.3309033,10.5341017 Z" id="Shape"></path>
                    </g>
                </g>
            </g>
        </g>
    </g>
</svg>