<?xml version="1.0" encoding="UTF-8" standalone="no"?>
<svg width="28px" height="23px" viewBox="0 0 28 23" version="1.1" xmlns="http://www.w3.org/2000/svg" xmlns:xlink="http://www.w3.org/1999/xlink">
    <!-- Generator: Sketch 3.8.3 (29802) - http://www.bohemiancoding.com/sketch -->
    <title>twitter</title>
    <desc>Created with Sketch.</desc>
    <defs></defs>
    <g id="Page-1" stroke="none" stroke-width="1" fill="none" fill-rule="evenodd">
        <g id="twitter" fill="#999999">
            <path d="M27.6655849,2.94025581 C26.6501887,3.39597674 25.5566038,3.70513953 24.4112453,3.84313953 C25.581434,3.13227907 26.4790189,2.00848837 26.9043019,0.669139535 C25.8086038,1.32544186 24.5950943,1.80362791 23.3049811,2.06090698 C22.2710943,0.945139535 20.7976604,0.249255814 19.1673208,0.249255814 C16.0366038,0.249255814 13.5007547,2.81937209 13.5007547,5.9864186 C13.5007547,6.43572093 13.5498868,6.87486047 13.6470943,7.29474419 C8.93781132,7.0545814 4.7610566,4.77062791 1.96686792,1.29816279 C1.47766038,2.14648837 1.19924528,3.13227907 1.19924528,4.18332558 C1.19924528,6.17469767 2.19984906,7.9317907 3.71871698,8.95983721 C2.78996226,8.9304186 1.91720755,8.67153488 1.15169811,8.24095349 L1.15169811,8.31423256 C1.15169811,11.0929535 3.10588679,13.4122093 5.69773585,13.9390698 C5.22332075,14.0706512 4.72196226,14.1417907 4.20581132,14.1417907 C3.84075472,14.1417907 3.48573585,14.1059535 3.13864151,14.039093 C3.86135849,16.3187674 5.95396226,17.9774419 8.43433962,18.0234419 C6.49441509,19.5633721 4.05101887,20.4785581 1.39524528,20.4785581 C0.936679245,20.4785581 0.484981132,20.4534186 0.0433207547,20.3993953 C2.55064151,22.0270465 5.52867925,22.9775349 8.72913208,22.9775349 C19.1530566,22.9775349 24.8550189,14.2332558 24.8550189,6.65127907 C24.8550189,6.40255814 24.8486792,6.15597674 24.8386415,5.90939535 C25.9464906,5.10065116 26.9064151,4.08972093 27.6655849,2.94025581 L27.6655849,2.94025581 Z" id="Fill-2"></path>
        </g>
    </g>
</svg>