<?xml version="1.0" encoding="UTF-8" standalone="no"?>
<svg width="75px" height="50px" viewBox="0 0 75 50" version="1.1" xmlns="http://www.w3.org/2000/svg" xmlns:xlink="http://www.w3.org/1999/xlink">
    <!-- Generator: Sketch 3.8.3 (29802) - http://www.bohemiancoding.com/sketch -->
    <title>Group 235 Copy</title>
    <desc>Created with Sketch.</desc>
    <defs></defs>
    <g id="Page-1" stroke="none" stroke-width="1" fill="none" fill-rule="evenodd">
        <g id="Group-235-Copy">
            <g id="Group-234">
                <g id="Group-45">
                    <g id="noun_19252_cc" fill="#4C4F58">
                        <g id="Group">
                            <path d="M58.4857357,0.875449071 C58.2543397,0.649356857 57.9399602,0.522277441 57.6128141,0.522277441 C57.285668,0.522277441 56.9712886,0.649356857 56.7398926,0.875449071 L50.2081413,7.25748652 C49.9767452,7.48357873 49.8466847,7.79075229 49.8466847,8.11039991 C49.8466847,8.43004752 49.9767452,8.73722108 50.2081413,8.96331329 L50.992494,9.72968793 C50.4546977,10.0703855 49.8283326,10.2543778 49.1724446,10.2543778 C48.2763834,10.2543778 47.4337827,9.91368022 46.7994384,9.2938757 C45.6991104,8.21954787 44.2365279,7.62703035 42.6805891,7.62703035 C41.1246503,7.62703035 39.6620679,8.21876824 38.5617399,9.2938757 L37.73031,10.1062484 L36.4249172,8.83077648 C35.3245892,7.75566902 33.8620068,7.16393112 32.306068,7.16393112 C30.7501292,7.16393112 29.2875467,7.75566902 28.1872187,8.83077648 C27.5536723,9.44980136 26.7110716,9.79127857 25.8142126,9.79127857 C25.1583245,9.79127857 24.5319594,9.60728629 23.9941631,9.26580908 L24.7793138,8.49865481 C25.2612558,8.0277593 25.2612558,7.26372355 24.7793138,6.79282804 L18.2459666,0.41079059 C18.0145706,0.184698377 17.7001912,0.0576189602 17.3730451,0.0576189602 C17.045899,0.0576189602 16.7315195,0.184698377 16.5001235,0.41079059 L0.414908,16.1273179 C-0.0670340695,16.5982135 -0.0670340695,17.3622492 0.414908,17.8331447 L3.43342927,20.7824787 C4.60477192,21.9277527 6.16310447,22.5576924 7.81958085,22.5576924 C9.05715064,22.5576924 10.2388662,22.2053004 11.2458379,21.5504126 L18.6313607,28.7666523 L17.7608329,29.6172268 C16.0836107,31.2560056 16.0836107,33.9223344 17.7608329,35.5611131 C18.5818898,36.3633507 19.6886012,36.7952648 20.839198,36.7921463 C20.839198,37.9498943 21.2868296,39.0055111 22.0991094,39.7991727 C22.9209643,40.6021899 24.0284736,41.034104 25.1790704,41.0302058 C25.1694953,42.1177873 25.5891999,43.209267 26.4365881,44.0372323 C27.2584429,44.8402494 28.3571751,45.2768413 29.516549,45.2682654 C29.506974,46.3566265 29.9266785,47.4473266 30.7740667,48.2752918 C31.5863465,49.0689535 32.6667266,49.506325 33.8157276,49.506325 C34.9647285,49.506325 36.0451086,49.0689535 36.8573884,48.2752918 L37.7279163,47.4247173 L39.072407,48.7383911 C39.8846868,49.5320527 40.9650669,49.9694242 42.1140678,49.9694242 C43.2630688,49.9694242 44.3434489,49.5320527 45.1557287,48.7383911 C46.0039148,47.9096462 46.4212256,46.8181665 46.4116506,45.7298054 C47.6005474,45.7313646 48.6809275,45.2939931 49.4932073,44.5003315 C50.3054872,43.7066699 50.7531188,42.6510531 50.7531188,41.5283883 C51.938026,41.4925254 53.0184061,41.0551539 53.830686,40.2614923 C54.6788721,39.4327474 55.0961828,38.3412677 55.0866078,37.252127 C56.2755047,37.2536862 57.3558847,36.8163147 58.1681646,36.0226531 C59.8453868,34.3838744 59.8453868,31.7175455 58.1681646,30.0787668 L56.8236739,28.7650931 L63.7352338,22.0119525 C64.7422055,22.6668403 65.924719,23.0192323 67.1622888,23.0192323 C68.8195631,23.0192323 70.3770977,22.388513 71.5484403,21.2440186 L74.5669616,18.2946847 C74.7983576,18.0685925 74.9284182,17.7614189 74.9284182,17.4417713 C74.9284182,17.1221237 74.8015493,16.8165094 74.5701533,16.5904172 L58.4857357,0.875449071 Z M64.525172,19.5397511 L53.6655171,8.92900964 C53.6647191,8.92823002 53.6647191,8.92823002 53.6639212,8.92745039 L52.826906,8.10962028 L57.6128141,3.4334096 L71.9505907,17.4425509 L69.804991,19.5389715 C69.099632,20.2281629 68.1620792,20.6078419 67.1646825,20.6078419 C66.1680838,20.6086215 65.229733,20.2289426 64.525172,19.5397511 L64.525172,19.5397511 Z M56.4255131,34.3191652 C56.079217,34.6575239 55.6188187,34.8438551 55.1296954,34.8438551 C54.640572,34.8438551 54.1801737,34.6575239 53.8338776,34.3191652 L52.4893869,33.0054915 L51.6164654,32.1525781 L50.7435438,31.2996647 L48.5939545,29.199346 C47.8790206,28.5007991 47.8790206,27.3648806 48.5939545,26.6663336 C48.9402506,26.3279749 49.399851,26.1416438 49.8897722,26.1416438 C50.3788956,26.1416438 50.8392939,26.3279749 51.18559,26.6663336 L53.3351793,28.7666523 L54.2081009,29.6195657 L55.0810224,30.4724791 L56.4255131,31.7861528 C57.1404471,32.4846998 57.1404471,33.6206183 56.4255131,34.3191652 L56.4255131,34.3191652 Z M52.0880345,38.5580044 C51.7417384,38.8963631 51.2813401,39.0819147 50.7922168,39.0819147 C50.3030934,39.0819147 49.8426951,38.8955835 49.496399,38.5580044 L48.1519083,37.2443307 L47.2789867,36.3914173 L46.4060652,35.5385039 L44.2564759,33.4381852 C43.5415419,32.7396382 43.5415419,31.6037198 44.2564759,30.9059524 C44.602772,30.5675937 45.0623724,30.3820422 45.5522936,30.3820422 C46.0422149,30.3820422 46.5018152,30.5683734 46.8481114,30.9059524 L48.9977007,33.0062711 L49.8706222,33.8591845 L50.7435438,34.7120979 L52.0880345,36.0257716 C52.8021705,36.723539 52.8029684,37.8594574 52.0880345,38.5580044 L52.0880345,38.5580044 Z M48.2867563,41.5299476 C48.2867563,42.0078598 48.0960541,42.4577053 47.749758,42.796064 C47.4034618,43.1344227 46.9438615,43.3207538 46.4539402,43.3207538 C45.964019,43.3207538 45.5044186,43.1344227 45.1581225,42.796064 L43.8136318,41.4816106 L42.9407102,40.6286972 L42.0677886,39.7757839 L39.9181993,37.6754652 C39.9174014,37.6746855 39.9174014,37.6746855 39.9166035,37.6739059 C39.5711053,37.3355472 39.381201,36.8864813 39.381201,36.4093488 C39.381201,35.9314366 39.5719032,35.4815911 39.9181993,35.1432324 C40.2644955,34.8048737 40.7240958,34.6193221 41.2140171,34.6193221 C41.7031404,34.6193221 42.1635387,34.8056533 42.5098348,35.1432324 L44.6594241,37.2435511 L45.5323457,38.0964645 L46.4052673,38.9493778 L47.749758,40.2638312 C47.7505559,40.2646108 47.7505559,40.2646108 47.7513538,40.2653904 C48.096852,40.6029695 48.2867563,41.0520354 48.2867563,41.5299476 L48.2867563,41.5299476 Z M43.4122793,47.0349032 C43.0659832,47.3732619 42.6063828,47.5588134 42.1164616,47.5588134 C41.6265403,47.5588134 41.16694,47.3724822 40.8206438,47.0349032 L39.4761531,45.7212295 L38.6032316,44.8683161 L37.73031,44.0154027 L35.5807207,41.915084 C34.8665847,41.216537 34.8657868,40.0806185 35.5807207,39.3820716 C35.9270168,39.0437129 36.3874151,38.8581613 36.8765385,38.8581613 C37.3656618,38.8581613 37.8260601,39.0444925 38.1723562,39.3820716 L40.3219455,41.4823903 L41.1948671,42.3353036 L42.0677886,43.188217 L43.4122793,44.5018908 C44.1264153,45.2004377 44.1264153,46.3363562 43.4122793,47.0349032 L43.4122793,47.0349032 Z M52.932231,24.9605068 C52.1199512,24.1668452 51.0395711,23.7294737 49.8905702,23.7294737 C48.7415692,23.7294737 47.6611891,24.1668452 46.8481114,24.9605068 C45.9999252,25.7892518 45.5818166,26.881511 45.5921895,27.9698722 C45.5786249,27.9698722 45.5658582,27.9683129 45.5522936,27.9683129 C44.4032927,27.9683129 43.3229126,28.4056844 42.5106327,29.199346 C41.6624466,30.0280909 41.2451359,31.1195706 41.2547109,32.2087114 C41.2411463,32.2087114 41.2283796,32.2071521 41.214815,32.2071521 C40.065814,32.2071521 38.985434,32.6445236 38.1731541,33.4381852 C37.3608743,34.2318469 36.9132427,35.2874636 36.9132427,36.4101284 C36.9132427,36.4226024 36.9148385,36.4350765 36.9148385,36.4475506 C36.9020718,36.4475506 36.8901031,36.4459913 36.8773364,36.4459913 C35.7283354,36.4459913 34.6479553,36.8833628 33.8356755,37.6770244 C32.1584533,39.3158032 32.1584533,41.982132 33.8356755,43.6216904 L35.9852648,45.7220091 L35.114737,46.5725836 C34.7684409,46.9109423 34.3088405,47.0972734 33.8189192,47.0972734 C33.328998,47.0972734 32.8693976,46.9109423 32.5231015,46.5725836 C31.8089655,45.8740366 31.8089655,44.7381181 32.5231015,44.0395712 C32.7640725,43.8041234 32.884558,43.4953906 32.884558,43.1866578 C32.884558,42.877925 32.7640725,42.5691921 32.5231015,42.3337444 C32.0411594,41.8628489 31.2592004,41.8628489 30.7772584,42.3337444 C30.4309622,42.6721031 29.9705639,42.8584343 29.4814406,42.8584343 C28.9923173,42.8584343 28.531919,42.6721031 28.1856229,42.3337444 C27.8393267,41.9953857 27.6486245,41.5463198 27.6486245,41.067628 C27.6486245,40.5897158 27.8393267,40.1398703 28.1856229,39.8015116 C28.4265939,39.5660638 28.5470794,39.257331 28.5470794,38.9485982 C28.5470794,38.6398654 28.4265939,38.3311326 28.1856229,38.0956848 C27.7028829,37.6240097 26.9217218,37.6247893 26.4397797,38.0956848 C26.0934836,38.4340435 25.6338832,38.6195951 25.143962,38.6195951 C24.6540407,38.6195951 24.1944404,38.4332639 23.8481442,38.0956848 C23.1332103,37.3971378 23.1332103,36.2612194 23.8481442,35.5626724 C24.0891153,35.3272247 24.2096008,35.0184918 24.2096008,34.709759 C24.2096008,34.4010262 24.0891153,34.0922934 23.8481442,33.8568456 C23.3662022,33.3859501 22.5842432,33.3859501 22.1023011,33.8568456 C21.756005,34.1952043 21.2964046,34.3815355 20.8064834,34.3815355 C20.3165621,34.3815355 19.8569617,34.1952043 19.5106656,33.8568456 C18.7957317,33.1582987 18.7957317,32.0223802 19.5106656,31.3246128 L21.2573067,29.6180064 L21.2573067,29.6180064 L21.2589025,29.6164472 L30.1189766,20.9594543 C30.5993228,20.6218752 31.1826004,20.4316459 31.7818363,20.4300867 C32.5414536,20.4300867 33.2547917,20.7193288 33.79179,21.2440186 L37.6170057,24.9815568 C38.7189296,26.0582235 40.1847037,26.6515207 41.7430363,26.6515207 L41.7430363,26.6515207 C43.2870063,26.6515207 44.7432054,26.0675791 45.8427355,25.0072845 L48.550069,22.3955297 C48.7838588,22.1694375 48.9163131,21.8622639 48.917111,21.541057 C48.9179089,21.2198502 48.7878484,20.9111173 48.5556545,20.6842455 L39.4753552,11.8128548 L40.3067851,11.0004821 C40.9403314,10.3814572 41.7837301,10.03998 42.6797912,10.03998 C43.5758524,10.03998 44.419251,10.3806776 45.0527974,10.9997025 C46.1531254,12.0748099 47.6157078,12.6665478 49.1716466,12.6665478 C50.4898061,12.6665478 51.7409405,12.2416504 52.7614767,11.4581239 L61.9048115,20.3918849 L55.0802245,27.0600459 L52.932231,24.9605068 L52.932231,24.9605068 Z M28.0100811,19.548327 L20.375608,27.057707 L13.0794519,19.9287857 L22.2227866,10.9950247 C23.2433229,11.7785512 24.4944573,12.2034486 25.8126167,12.2034486 C27.3685555,12.2034486 28.831138,11.6117107 29.931466,10.5366032 C30.5650124,9.91757836 31.408411,9.57610115 32.3044721,9.57610115 C33.2005333,9.57610115 34.043134,9.91679873 34.6774783,10.5366032 L35.983669,11.8128548 L36.8565905,12.6657682 L37.7295121,13.5186816 L45.9281127,21.5301422 L44.1048716,23.2889837 C43.4705273,23.900992 42.6311183,24.2377914 41.7406425,24.2377914 L41.7406425,24.2377914 C40.8413897,24.2377914 39.9963952,23.8955346 39.3604551,23.2741708 L35.5352394,19.5366326 C34.8234972,18.8412041 33.9441923,18.3726475 32.9842977,18.1559108 C32.5909245,18.0670332 32.1855825,18.0163574 31.7706654,18.0163574 C31.6334237,18.0163574 31.4969798,18.0264925 31.3605359,18.0374073 C30.3136684,18.1200479 29.3066967,18.5083028 28.483246,19.1429203 C28.3172792,19.2692201 28.1584937,19.4025365 28.0100811,19.548327 L28.0100811,19.548327 Z M7.81958085,20.1447427 C6.82218419,20.1447427 5.88463132,19.7650637 5.1792724,19.0766519 L3.03367269,16.9802313 L17.3722472,2.97031037 L22.1581553,7.64652105 L21.3195442,8.46591042 C21.3195442,8.46591042 21.3187463,8.46591042 21.3187463,8.46669005 L10.4590914,19.0774315 C9.7553283,19.7658433 8.81697752,20.1447427 7.81958085,20.1447427 L7.81958085,20.1447427 Z" id="Shape"></path>
                        </g>
                    </g>
                    <path d="M3.01050279,16.9776914 L17.4567975,2.83209919 L22.2877998,7.67964644 L10.1458285,19.4213583 C10.1458285,19.4213583 7.87584215,21.2003148 5.87024071,19.6659649 C3.86463928,18.1316149 3.01050279,16.9776914 3.01050279,16.9776914 Z" id="Path-10674" fill="#EA5F6E"></path>
                    <path d="M11.7792959,12.4478928 C9.26636349,13.2000189 4.19616591,15.8167081 4.19616591,15.8167081 L17.4567975,2.83209919 L22.2877998,7.67964644 L18.211025,11.6220306 C18.211025,11.6220306 13.9379832,11.801793 11.7792959,12.4478928 Z" id="Path-10674-Copy" fill="#FF667C"></path>
                </g>
                <path d="M12.9888995,19.9252867 L22.2569186,10.9731684 C22.2569186,10.9731684 24.2246154,12.5082815 26.6424856,12.1192437 C29.0603557,11.7302059 29.9303787,10.4446047 29.9303787,10.4446047 C29.9303787,10.4446047 31.9046531,8.19060589 34.4168389,10.2688892 L46.0330505,21.6212905 L44.0636815,23.5301805 C44.0636815,23.5301805 41.6116971,25.3661464 39.6164637,23.5301805 C37.6212303,21.6942147 35.0609948,19.0846429 35.0609948,19.0846429 C35.0609948,19.0846429 31.5033098,16.8634541 28.4599016,19.1454675 L20.3913414,27.1254828 L12.9888995,19.9252867 Z" id="Path-10675" fill="#FBB735"></path>
                <path d="M12.9888995,19.9252867 L22.2569186,10.9731684 C22.2569186,10.9731684 24.2246154,12.5082815 26.6424856,12.1192437 C29.0603557,11.7302059 29.9303787,10.4446047 29.9303787,10.4446047 C29.9303787,10.4446047 31.9046531,8.19060589 34.4168389,10.2688892 L46.0330505,21.6212905 L44.0636815,23.5301805 C44.0636815,23.5301805 41.6116971,25.3661464 39.6164637,23.5301805 C37.6212303,21.6942147 35.0609948,19.0846429 35.0609948,19.0846429 C35.0609948,19.0846429 31.5033098,16.8634541 28.4599016,19.1454675 L20.3913414,27.1254828 L12.9888995,19.9252867 Z" id="Path-10675-Copy" fill="#FBB735"></path>
                <path d="M19.4719309,31.3570441 L30.1359556,20.9675898 C30.1359556,20.9675898 31.9102273,19.3375337 33.7026709,21.1227034 C35.4951144,22.9078731 38.2710719,25.5492746 38.2710719,25.5492746 C38.2710719,25.5492746 42.5328919,28.1497993 45.6980404,25.140398 C48.8631888,22.1309968 48.6958515,22.2127503 48.6958515,22.2127503 C48.6958515,22.2127503 49.2078975,21.2840303 48.4194809,20.6403577 L39.4560379,11.8328884 C39.4560379,11.8328884 41.0123579,9.98242486 42.0151586,10.0988419 C42.0151586,10.0988419 43.5727054,9.50705542 45.1546662,11.0829361 C45.1546662,11.0829361 47.3068688,12.9707883 50.0171615,12.4538881 C52.7274543,11.9369878 52.7412789,11.3405142 52.7412789,11.3405142 L61.936277,20.368064 L54.9992806,27.1086963 L52.3756118,24.4900761 C52.3756118,24.4900761 49.6892864,23.0083753 47.3292783,24.8634178 C47.3292783,24.8634178 45.5367227,25.5186443 45.6347173,27.9665624 C45.6347173,27.9665624 41.5686642,29.8101586 41.3196084,32.2369299 C41.3196084,32.2369299 39.7566647,32.2207988 38.4787676,33.2571054 C37.7315313,33.8630743 37.0257369,34.7867516 36.9351563,36.3954585 C36.9351563,36.3954585 35.0941048,36.6307515 33.8309898,37.8867523 C33.0051576,38.7079331 32.3521134,39.8822143 32.8798057,42.0010243 C32.8798057,42.0010243 33.3184962,43.0588058 33.9866212,43.762976 L36.1194267,45.8039804 L34.7040228,47.0485959 C34.7040228,47.0485959 33.0840091,47.3522941 32.3705454,46.608871 C31.9929612,46.2154315 31.7829014,45.5563254 32.1869309,44.3245688 C32.1869309,44.3245688 33.2889528,43.2783412 32.5093436,42.2384365 C32.5093436,42.2384365 31.206427,41.7469351 30.4364053,42.699636 C30.4364053,42.699636 28.73772,43.5294887 27.8859804,42.1202761 C27.8859804,42.1202761 27.0307849,40.9410635 28.4473036,39.3304103 C28.4473036,39.3304103 28.5025898,38.6754531 28.2292404,38.2352402 C28.0426478,37.9347441 27.8880178,37.7466127 26.7295548,37.8867516 C26.7295548,37.8867516 25.0691086,39.5778509 23.7355342,38.0024062 C23.7355342,38.0024062 22.7005145,36.8491367 23.7355342,35.5607013 C23.7355342,35.5607013 24.3422503,34.4691324 23.9040984,33.9476501 C23.6840682,33.6857732 23.2956023,33.5064645 22.4138884,33.65955 C22.4138884,33.65955 20.8341568,35.2430617 19.4719309,33.9476501 C18.109705,32.6522384 19.4719309,31.3570441 19.4719309,31.3570441 Z" id="Path-10676" fill="#FFFFFF"></path>
                <path d="M35.1347974,41.4615602 L41.0262934,47.2460027 C41.0262934,47.2460027 42.2088067,48.0495851 43.4370286,47.1020074 C44.6652504,46.1544297 43.6206431,44.6722931 43.6206431,44.6722931 L37.973632,39.2141016 C37.973632,39.2141016 36.5465223,38.2114766 35.4880909,39.3433812 C34.4296596,40.4752858 35.1347974,41.4615602 35.1347974,41.4615602 Z" id="Path-10677" fill="#FBB735"></path>
                <path d="M39.7300662,37.4732968 L45.0528811,42.7188202 C45.0528811,42.7188202 46.4034015,44.0115069 47.6394273,42.9329056 C48.875453,41.8543042 48.0263887,40.5374185 48.0263887,40.5374185 L42.3625434,34.9838479 C42.3625434,34.9838479 41.114589,33.9055736 39.880124,35.2167909 C38.645659,36.5280082 39.7300662,37.4732968 39.7300662,37.4732968 Z" id="Path-10678" fill="#FBB735"></path>
                <path d="M43.7371441,32.0382144 C43.7106907,32.6143012 43.9167452,33.1600906 43.9167452,33.1600906 C43.9167452,33.1600906 49.5207234,38.9229501 50.1492715,38.9713482 C50.1492715,38.9713482 51.843386,39.502201 52.3776185,38.2733912 C52.5329598,37.9160844 52.6742155,37.5867456 52.6750586,37.2993254 C52.677115,36.598282 52.2673606,36.1466008 52.2673606,36.1466008 L46.7066383,30.7591534 C46.7066383,30.7591534 46.2374587,30.4372686 45.6965911,30.3672816 C45.2165955,30.3051712 44.6857352,30.4631964 44.2923356,30.8945372 C43.9595276,31.2594428 43.7546163,31.6577153 43.7371441,32.0382144 Z" id="Path-10679" fill="#FBB735"></path>
                <path d="M47.9628427,28.3321641 C47.9628427,28.3321641 48.3265473,28.938024 48.4882679,29.1017372 C50.3975528,31.0345474 52.2341325,32.7549814 54.1434175,34.6877916 C54.1434175,34.6877916 55.1969434,35.4434116 56.4251652,34.3212084 C57.6533871,33.1990052 56.6841431,31.9749916 56.6841431,31.9749916 L50.9350124,26.3816344 C50.9350124,26.3816344 49.71426,25.7271702 48.8070013,26.4471462 C47.8997426,27.1671221 47.9628427,28.3321641 47.9628427,28.3321641 Z" id="Path-10680" fill="#FBB735"></path>
                <path d="M52.7988059,8.09609883 L57.6664307,3.38012023 L71.9209168,17.4435774 L69.5450762,19.808325 C69.5450762,19.808325 67.0216305,21.8091059 64.8194824,19.8071259 C62.6173342,17.8051459 52.7988059,8.09609883 52.7988059,8.09609883 Z" id="Path-10681" fill="#68CADF"></path>
                <path d="M64.8194822,13.5233716 C63.5778244,9.53605248 60.6077396,6.2820117 60.6077396,6.2820117 L71.9209168,17.4435774 L69.5450762,19.808325 C69.5450762,19.808325 68.29623,20.7649359 67.041586,20.7647315 C65.7869419,20.7645271 64.8194824,19.8071259 64.8194824,19.8071259 C64.8194824,19.8071259 66.0611399,17.5106907 64.8194822,13.5233716 Z" id="Path-10681-Copy" fill="#3CC1E5"></path>
            </g>
            <path d="M20.7935765,12.3787838 C20.7935765,12.3787838 23.12081,14.013527 24.4643065,14.3128539 C24.4643065,14.3128539 26.4131481,14.6661415 28.2994758,14.126674 C29.9840396,13.6449087 31.6168056,12.2690622 31.7980966,12.1912875 C31.8779903,12.1570127 32.2392693,11.9559544 32.5115733,12.0051157 C32.8561565,12.0673261 33.1201346,12.3924003 33.1758107,12.438097 C35.3973304,14.2614322 44.7079489,22.9187736 44.7079489,22.9187736 L46.0854481,21.5957835 L34.2079174,9.95244856 C34.2079174,9.95244856 31.9722182,8.30249548 29.947853,10.4396208 C29.8761369,10.5153316 29.6663579,10.7310728 29.5429582,10.8127703 C29.2402911,11.013153 28.5998381,11.4053149 27.785422,11.7245376 C27.1075509,11.9902394 26.3947995,12.3007327 25.4238514,12.149656 C22.8107723,11.7430684 22.2655029,10.8380026 22.2655029,10.8380026 L20.7935765,12.3787838 Z" id="Path-10685" fill="#CE9D40"></path>
            <path d="M56.6557146,34.0515308 C56.6557146,34.0515308 57.6318703,33.0116263 56.6854809,31.9394561 L51.0363516,26.4547765 C51.0363516,26.4547765 50.2383474,25.839009 49.3842667,26.1445492 C48.530186,26.4500893 48.766867,26.5931034 48.766867,26.5931034" id="Path-10687" fill="#CD9D41"></path>
        </g>
    </g>
</svg>